<svg xmlns="http://www.w3.org/2000/svg" xmlns:xlink="http://www.w3.org/1999/xlink" xmlns:lucid="lucid" width="1360" height="1140"><g transform="translate(-140 -80)" lucid:page-tab-id="Av_Y9CZ.SHm5"><path d="M160 100h250v20l-10 10H160z" fill="#fff"/><path d="M410 100v20l-10 10H160" stroke="#000" stroke-width="2" fill="none"/><path d="M160 100h1320v1100H160z" stroke="#000" stroke-width="2" fill="none"/><use xlink:href="#a" transform="matrix(1,0,0,1,168,100) translate(0 18.6)"/><use xlink:href="#b" transform="matrix(1,0,0,1,168,100) translate(25.950000000000003 18.6)"/><use xlink:href="#c" transform="matrix(1,0,0,1,168,100) translate(76.85000000000001 18.6)"/><use xlink:href="#d" transform="matrix(1,0,0,1,168,100) translate(149.65 18.6)"/><use xlink:href="#e" transform="matrix(1,0,0,1,168,100) translate(169.65 18.6)"/><path d="M265 175c0 8.28-6.72 15-15 15-8.28 0-15-6.72-15-15 0-8.28 6.72-15 15-15 8.28 0 15 6.72 15 15z" stroke="#000" stroke-width="2" fill="#fff"/><path d="M250 190v52.8l30 55.2m-30-55.2L220 298m0-93h60" stroke="#000" stroke-width="2" fill="none"/><path d="M220 160h60v160h-60z" fill="none"/><use xlink:href="#f" transform="matrix(1,0,0,1,140,298) translate(78.025 14.6)"/><path d="M250 245.9v10.03m0 10.03v20.07m0 10.03v20.07m0 10.03v20.07m0 10.03v20.07m0 10.03v20.07m0 10.03v20.07m0 10.03v20.07m0 10.03v20.07m0 10.03v20.07m0 10.03v20.07m0 10.03v20.07m0 10.03v20.07m0 10.03v20.07m0 10.03v20.07m0 10.03v20.07m0 10.03v20.07m0 10.03v20.07m0 10.03v20.07m0 10.03v20.07m0 10.03v20.07m0 10.03v20.07m0 10.03v20.07m0 10.04v20.06m0 10.04v20.06m0 10.04v20.06m0 10.04v20.06m0 10.04v20.06m0 10.04v20.06m0 10.04v20.06m0 10.04v20.06m0 10.04V1179M250 245.92v-4.03M250 1178.97v1.03" stroke="#000" stroke-width="2" fill="none"/><path d="M230 340h40v780h-40zM500 240h160v80H500z" stroke="#000" stroke-width="2" fill="#fff"/><use xlink:href="#g" transform="matrix(1,0,0,1,500,240) translate(8.180000000000001 44.4)"/><path d="M580 322v9.84m0 9.84v19.68m0 9.84v19.68m0 9.84v19.68m0 9.83v19.68m0 9.85v19.68m0 9.84v19.68m0 9.84v19.67m0 9.84V568m0 9.83v19.68m0 9.85v19.67m0 9.84v19.68m0 9.84v19.68m0 9.84v19.68m0 9.84v19.68m0 9.84v19.68m0 9.84v19.68m0 9.84v19.67m0 9.84v19.67m0 9.84v19.7m0 9.83v19.68m0 9.85v19.68m0 9.84v19.68m0 9.84v19.67m0 9.83v19.68m0 9.84v19.68m0 9.84v19.68m0 9.84v9.84" stroke="#000" stroke-width="2" fill="none"/><path d="M581 322.03h-2V321h2z"/><path d="M580 1118.97v1.03" stroke="#000" stroke-width="2" fill="none"/><path d="M560 340h40v720h-40z" stroke="#000" stroke-width="2" fill="#fff"/><path d="M272 395.24h268.5" stroke="#000" stroke-width="2" fill="none"/><path d="M272.03 396.24H271v-2h1.03z"/><path d="M555.76 395.24l-14.26 4.64v-9.27z" stroke="#000" stroke-width="2"/><use xlink:href="#h" transform="matrix(1,0,0,1,300.15,369.64444444444445) translate(0 14.4)"/><use xlink:href="#i" transform="matrix(1,0,0,1,300.15,369.64444444444445) translate(47.95 14.4)"/><use xlink:href="#j" transform="matrix(1,0,0,1,300.15,369.64444444444445) translate(121.80000000000001 14.4)"/><use xlink:href="#k" transform="matrix(1,0,0,1,300.15,369.64444444444445) translate(156.8 14.4)"/><path d="M272 451.24h268.5" stroke="#000" stroke-width="2" fill="none"/><path d="M272.03 452.24H271v-2h1.03z"/><path d="M555.76 451.24l-14.26 4.64v-9.27z" stroke="#000" stroke-width="2"/><use xlink:href="#l" transform="matrix(1,0,0,1,372.6,425.6444444444446) translate(0 14.4)"/><path d="M993.2 400h160v80h-160z" stroke="#000" stroke-width="2" fill="#fff"/><use xlink:href="#m" transform="matrix(1,0,0,1,993.2,400) translate(40.10499999999999 44.4)"/><path d="M1073.2 482v9.8m0 9.8v19.57m0 9.8v19.6m0 9.78v19.6m0 9.78v19.6m0 9.78v19.6m0 9.8v19.58m0 9.8v19.58m0 9.8v19.58m0 9.8v19.58m0 9.8v19.58m0 9.8v19.58m0 9.8v19.6m0 9.78v19.6m0 9.78v19.6m0 9.78v19.6m0 9.78v19.6m0 9.78v19.6m0 9.78v19.6m0 9.78v19.6m0 9.8v19.57m0 9.8v9.8" stroke="#000" stroke-width="2" fill="none"/><path d="M1074.2 482.03h-2V481h2z"/><path d="M1073.2 1098.97v1.03" stroke="#000" stroke-width="2" fill="none"/><path d="M1053.2 500h40v480h-40z" stroke="#000" stroke-width="2" fill="#fff"/><path d="M602 539.7h431.7" stroke="#000" stroke-width="2" fill="none"/><path d="M602.03 540.7H601v-2h1.03z"/><path d="M1048.96 539.7l-14.26 4.62v-9.27z" stroke="#000" stroke-width="2"/><use xlink:href="#n" transform="matrix(1,0,0,1,725.7999999999768,514.0888888888892) translate(0 14.4)"/><path d="M709 620h100v20l-10 10h-90z" fill="#fff"/><path d="M809 620v20l-10 10h-90" stroke="#000" stroke-width="2" fill="none"/><path d="M709 620h700v440H709z" stroke="#000" stroke-width="2" fill="none"/><use xlink:href="#o" transform="matrix(1,0,0,1,717,620) translate(0 18.6)"/><use xlink:href="#p" transform="matrix(1,0,0,1,721,658) translate(0 18.6)"/><use xlink:href="#q" transform="matrix(1,0,0,1,721,658) translate(30.95 18.6)"/><use xlink:href="#r" transform="matrix(1,0,0,1,721,658) translate(74.95 18.6)"/><path d="M759 700h100v20l-10 10h-90z" fill="#fff"/><path d="M859 700v20l-10 10h-90" stroke="#000" stroke-width="2" fill="none"/><path d="M759 700h520v320H759zM759 860h20m15 0h20m15 0h20m15 0h20m15 0h20m15 0h20m15 0h20m15 0h20m15 0h20m15 0h20m15 0h20m15 0h20m15 0h20m15 0h20m15 0h20" stroke="#000" stroke-width="2" fill="none"/><use xlink:href="#s" transform="matrix(1,0,0,1,767,700) translate(0 18.6)"/><use xlink:href="#t" transform="matrix(1,0,0,1,771,738) translate(0 18.6)"/><use xlink:href="#u" transform="matrix(1,0,0,1,771,738) translate(82.9 18.6)"/><use xlink:href="#v" transform="matrix(1,0,0,1,771,738) translate(108.9 18.6)"/><use xlink:href="#w" transform="matrix(1,0,0,1,771,868) translate(0 18.6)"/><path d="M1051.2 798.36h-10.28m-10.28 0h-20.55m-10.3 0h-20.55m-10.28 0H948.4m-10.26 0h-20.56m-10.28 0h-20.56m-10.27 0H855.9m-10.27 0H825.07m-10.28 0h-20.56m-10.28 0H763.4m-10.28 0h-20.55m-10.28 0h-20.57m-10.28 0H670.9m-10.28 0h-20.56m-10.28 0H619.5" stroke="#000" stroke-width="2" fill="none"/><path d="M1052.2 799.36h-1.03v-2h1.03z"/><path d="M604.24 798.36l14.26-4.64V803z" stroke="#000" stroke-width="2"/><use xlink:href="#x" transform="matrix(1,0,0,1,826.3222222222221,802.3555555555558) translate(0 14.4)"/><use xlink:href="#y" transform="matrix(1,0,0,1,826.3222222222221,802.3555555555558) translate(59.900000000000006 14.4)"/><path d="M1051.2 937.02h-10.28m-10.28 0h-20.55m-10.3 0h-20.55m-10.28 0H948.4m-10.26 0h-20.56m-10.28 0h-20.56m-10.27 0H855.9m-10.27 0h-20.56m-10.28 0h-20.56m-10.28 0H763.4m-10.28 0h-20.55m-10.28 0h-20.57m-10.28 0H670.9m-10.28 0h-20.56m-10.28 0H619.5" stroke="#000" stroke-width="2" fill="none"/><path d="M1052.2 938.02h-1.03v-2h1.03z"/><path d="M604.24 937.02l14.26-4.63v9.26z" stroke="#000" stroke-width="2"/><g><use xlink:href="#z" transform="matrix(1,0,0,1,811.6805555555553,941.0222222222224) translate(0 14.4)"/><use xlink:href="#A" transform="matrix(1,0,0,1,811.6805555555553,941.0222222222224) translate(72.8 14.4)"/><use xlink:href="#B" transform="matrix(1,0,0,1,811.6805555555553,941.0222222222224) translate(116.8 14.4)"/><use xlink:href="#C" transform="matrix(1,0,0,1,811.6805555555553,941.0222222222224) translate(146.8 14.4)"/></g><path d="M558 830.36h-9.94m-9.95 0h-19.88m-9.94 0h-19.9m-9.93 0h-19.9m-9.94 0h-19.88m-9.94 0h-19.9m-9.93 0h-19.9m-9.94 0h-19.88m-9.94 0h-19.9m-9.93 0h-9.95" stroke="#000" stroke-width="2" fill="none"/><path d="M559 831.36h-1.03v-2H559z"/><path d="M274.24 830.36l14.26-4.64V835z" stroke="#000" stroke-width="2"/><g><use xlink:href="#D" transform="matrix(1,0,0,1,361.075,834.355555555556) translate(0 14.4)"/><use xlink:href="#E" transform="matrix(1,0,0,1,361.075,834.355555555556) translate(73.85000000000001 14.4)"/></g><path d="M558 1003.24h-9.94m-9.95 0h-19.88m-9.94 0h-19.9m-9.93 0h-19.9m-9.94 0h-19.88m-9.94 0h-19.9m-9.93 0h-19.9m-9.94 0h-19.88m-9.94 0h-19.9m-9.93 0h-9.95" stroke="#000" stroke-width="2" fill="none"/><path d="M559 1004.24h-1.03v-2H559z"/><path d="M274.24 1003.24l14.26-4.63v9.28z" stroke="#000" stroke-width="2"/><g><use xlink:href="#D" transform="matrix(1,0,0,1,336.1,1007.2444444444446) translate(0 14.4)"/><use xlink:href="#B" transform="matrix(1,0,0,1,336.1,1007.2444444444446) translate(73.85000000000001 14.4)"/><use xlink:href="#F" transform="matrix(1,0,0,1,336.1,1007.2444444444446) translate(103.85000000000001 14.4)"/></g><defs><path d="M137-138c1-29-70-34-71-4 15 46 118 7 119 86 1 83-164 76-172 9l43-7c4 19 20 25 44 25 33 8 57-30 24-41C81-84 22-81 20-136c-2-80 154-74 161-7" id="G"/><path d="M88-194c31-1 46 15 58 34l-1-101h50l1 261h-48c-2-10 0-23-3-31C134-8 116 4 84 4 32 4 16-41 15-95c0-56 19-97 73-99zm17 164c33 0 40-30 41-66 1-37-9-64-41-64s-38 30-39 65c0 43 13 65 39 65" id="H"/><g id="a"><use transform="matrix(0.05,0,0,0.05,0,0)" xlink:href="#G"/><use transform="matrix(0.05,0,0,0.05,10,0)" xlink:href="#H"/><path d="M-.9.97h22.75v1.9H-.9z"/></g><path d="M190 0L58-211 59 0H30v-248h39L202-35l-2-213h31V0h-41" id="I"/><path d="M100-194c62-1 85 37 85 99 1 63-27 99-86 99S16-35 15-95c0-66 28-99 85-99zM99-20c44 1 53-31 53-75 0-43-8-75-51-75s-53 32-53 75 10 74 51 75" id="J"/><path d="M59-47c-2 24 18 29 38 22v24C64 9 27 4 27-40v-127H5v-23h24l9-43h21v43h35v23H59v120" id="K"/><path d="M24-231v-30h32v30H24zM24 0v-190h32V0H24" id="L"/><path d="M101-234c-31-9-42 10-38 44h38v23H63V0H32v-167H5v-23h27c-7-52 17-82 69-68v24" id="M"/><path d="M179-190L93 31C79 59 56 82 12 73V49c39 6 53-20 64-50L1-190h34L92-34l54-156h33" id="N"/><g id="b"><use transform="matrix(0.05,0,0,0.05,0,0)" xlink:href="#I"/><use transform="matrix(0.05,0,0,0.05,12.950000000000001,0)" xlink:href="#J"/><use transform="matrix(0.05,0,0,0.05,22.950000000000003,0)" xlink:href="#K"/><use transform="matrix(0.05,0,0,0.05,27.950000000000003,0)" xlink:href="#L"/><use transform="matrix(0.05,0,0,0.05,31.900000000000002,0)" xlink:href="#M"/><use transform="matrix(0.05,0,0,0.05,36.900000000000006,0)" xlink:href="#N"/></g><path d="M114-163C36-179 61-72 57 0H25l-1-190h30c1 12-1 29 2 39 6-27 23-49 58-41v29" id="O"/><path d="M100-194c63 0 86 42 84 106H49c0 40 14 67 53 68 26 1 43-12 49-29l28 8c-11 28-37 45-77 45C44 4 14-33 15-96c1-61 26-98 85-98zm52 81c6-60-76-77-97-28-3 7-6 17-6 28h103" id="P"/><path d="M108 0H70L1-190h34L89-25l56-165h34" id="Q"/><path d="M206 0h-36l-40-164L89 0H53L-1-190h32L70-26l43-164h34l41 164 42-164h31" id="R"/><g id="c"><use transform="matrix(0.05,0,0,0.05,0,0)" xlink:href="#O"/><use transform="matrix(0.05,0,0,0.05,5.95,0)" xlink:href="#P"/><use transform="matrix(0.05,0,0,0.05,15.949999999999998,0)" xlink:href="#Q"/><use transform="matrix(0.05,0,0,0.05,24.95,0)" xlink:href="#L"/><use transform="matrix(0.05,0,0,0.05,28.899999999999995,0)" xlink:href="#P"/><use transform="matrix(0.05,0,0,0.05,38.9,0)" xlink:href="#R"/><use transform="matrix(0.05,0,0,0.05,51.85,0)" xlink:href="#P"/><use transform="matrix(0.05,0,0,0.05,61.85,0)" xlink:href="#O"/></g><g id="d"><use transform="matrix(0.05,0,0,0.05,0,0)" xlink:href="#J"/><use transform="matrix(0.05,0,0,0.05,10,0)" xlink:href="#M"/></g><path d="M85-194c31 0 48 13 60 33l-1-100h32l1 261h-30c-2-10 0-23-3-31C134-8 116 4 85 4 32 4 16-35 15-94c0-66 23-100 70-100zm9 24c-40 0-46 34-46 75 0 40 6 74 45 74 42 0 51-32 51-76 0-42-9-74-50-73" id="S"/><path d="M96-169c-40 0-48 33-48 73s9 75 48 75c24 0 41-14 43-38l32 2c-6 37-31 61-74 61-59 0-76-41-82-99-10-93 101-131 147-64 4 7 5 14 7 22l-32 3c-4-21-16-35-41-35" id="T"/><g id="e"><use transform="matrix(0.05,0,0,0.05,0,0)" xlink:href="#Q"/><use transform="matrix(0.05,0,0,0.05,9,0)" xlink:href="#P"/><use transform="matrix(0.05,0,0,0.05,19,0)" xlink:href="#O"/><use transform="matrix(0.05,0,0,0.05,24.95,0)" xlink:href="#S"/><use transform="matrix(0.05,0,0,0.05,34.95,0)" xlink:href="#L"/><use transform="matrix(0.05,0,0,0.05,38.900000000000006,0)" xlink:href="#T"/><use transform="matrix(0.05,0,0,0.05,47.900000000000006,0)" xlink:href="#K"/></g><path d="M33 0v-248h34V0H33" id="U"/><path d="M117-194c89-4 53 116 60 194h-32v-121c0-31-8-49-39-48C34-167 62-67 57 0H25l-1-190h30c1 10-1 24 2 32 11-22 29-35 61-36" id="V"/><path d="M135-143c-3-34-86-38-87 0 15 53 115 12 119 90S17 21 10-45l28-5c4 36 97 45 98 0-10-56-113-15-118-90-4-57 82-63 122-42 12 7 21 19 24 35" id="W"/><g id="f"><use transform="matrix(0.05,0,0,0.05,0,0)" xlink:href="#U"/><use transform="matrix(0.05,0,0,0.05,5,0)" xlink:href="#V"/><use transform="matrix(0.05,0,0,0.05,15,0)" xlink:href="#Q"/><use transform="matrix(0.05,0,0,0.05,24,0)" xlink:href="#P"/><use transform="matrix(0.05,0,0,0.05,34,0)" xlink:href="#W"/><use transform="matrix(0.05,0,0,0.05,43,0)" xlink:href="#K"/><use transform="matrix(0.05,0,0,0.05,48,0)" xlink:href="#J"/><use transform="matrix(0.05,0,0,0.05,58,0)" xlink:href="#O"/></g><path d="M33-154v-36h34v36H33zM33 0v-36h34V0H33" id="X"/><path d="M233-177c-1 41-23 64-60 70L243 0h-38l-65-103H63V0H30v-248c88 3 205-21 203 71zM63-129c60-2 137 13 137-47 0-61-80-42-137-45v92" id="Y"/><path d="M232-93c-1 65-40 97-104 97C67 4 28-28 28-90v-158h33c8 89-33 224 67 224 102 0 64-133 71-224h33v155" id="Z"/><g id="g"><use transform="matrix(0.05,0,0,0.05,0,0)" xlink:href="#X"/><use transform="matrix(0.05,0,0,0.05,5,0)" xlink:href="#I"/><use transform="matrix(0.05,0,0,0.05,17.950000000000003,0)" xlink:href="#J"/><use transform="matrix(0.05,0,0,0.05,27.950000000000003,0)" xlink:href="#K"/><use transform="matrix(0.05,0,0,0.05,32.95,0)" xlink:href="#L"/><use transform="matrix(0.05,0,0,0.05,36.900000000000006,0)" xlink:href="#M"/><use transform="matrix(0.05,0,0,0.05,41.900000000000006,0)" xlink:href="#N"/><use transform="matrix(0.05,0,0,0.05,50.900000000000006,0)" xlink:href="#Y"/><use transform="matrix(0.05,0,0,0.05,63.85,0)" xlink:href="#P"/><use transform="matrix(0.05,0,0,0.05,73.85000000000001,0)" xlink:href="#Q"/><use transform="matrix(0.05,0,0,0.05,82.85000000000001,0)" xlink:href="#L"/><use transform="matrix(0.05,0,0,0.05,86.80000000000001,0)" xlink:href="#P"/><use transform="matrix(0.05,0,0,0.05,96.80000000000001,0)" xlink:href="#R"/><use transform="matrix(0.05,0,0,0.05,109.75,0)" xlink:href="#P"/><use transform="matrix(0.05,0,0,0.05,119.75,0)" xlink:href="#O"/><use transform="matrix(0.05,0,0,0.05,125.7,0)" xlink:href="#Z"/><use transform="matrix(0.05,0,0,0.05,138.65,0)" xlink:href="#U"/><path d="M-.9 1.25h145.45v1.32H-.9z"/></g><path d="M30 0v-248h187v28H63v79h144v27H63v87h162V0H30" id="aa"/><g id="h"><use transform="matrix(0.05,0,0,0.05,0,0)" xlink:href="#aa"/><use transform="matrix(0.05,0,0,0.05,12,0)" xlink:href="#V"/><use transform="matrix(0.05,0,0,0.05,22,0)" xlink:href="#K"/><use transform="matrix(0.05,0,0,0.05,27,0)" xlink:href="#P"/><use transform="matrix(0.05,0,0,0.05,37,0)" xlink:href="#O"/></g><path d="M30-248c118-7 216 8 213 122C240-48 200 0 122 0H30v-248zM63-27c89 8 146-16 146-99s-60-101-146-95v194" id="ab"/><g id="i"><use transform="matrix(0.05,0,0,0.05,0,0)" xlink:href="#ab"/><use transform="matrix(0.05,0,0,0.05,12.950000000000001,0)" xlink:href="#P"/><use transform="matrix(0.05,0,0,0.05,22.950000000000003,0)" xlink:href="#T"/><use transform="matrix(0.05,0,0,0.05,31.950000000000003,0)" xlink:href="#L"/><use transform="matrix(0.05,0,0,0.05,35.900000000000006,0)" xlink:href="#W"/><use transform="matrix(0.05,0,0,0.05,44.900000000000006,0)" xlink:href="#L"/><use transform="matrix(0.05,0,0,0.05,48.85000000000001,0)" xlink:href="#J"/><use transform="matrix(0.05,0,0,0.05,58.85,0)" xlink:href="#V"/></g><path d="M141-36C126-15 110 5 73 4 37 3 15-17 15-53c-1-64 63-63 125-63 3-35-9-54-41-54-24 1-41 7-42 31l-33-3c5-37 33-52 76-52 45 0 72 20 72 64v82c-1 20 7 32 28 27v20c-31 9-61-2-59-35zM48-53c0 20 12 33 32 33 41-3 63-29 60-74-43 2-92-5-92 41" id="ac"/><g id="j"><use transform="matrix(0.05,0,0,0.05,0,0)" xlink:href="#ac"/><use transform="matrix(0.05,0,0,0.05,10,0)" xlink:href="#V"/><use transform="matrix(0.05,0,0,0.05,20,0)" xlink:href="#S"/></g><path d="M212-179c-10-28-35-45-73-45-59 0-87 40-87 99 0 60 29 101 89 101 43 0 62-24 78-52l27 14C228-24 195 4 139 4 59 4 22-46 18-125c-6-104 99-153 187-111 19 9 31 26 39 46" id="ad"/><path d="M177-190C167-65 218 103 67 71c-23-6-38-20-44-43l32-5c15 47 100 32 89-28v-30C133-14 115 1 83 1 29 1 15-40 15-95c0-56 16-97 71-98 29-1 48 16 59 35 1-10 0-23 2-32h30zM94-22c36 0 50-32 50-73 0-42-14-75-50-75-39 0-46 34-46 75s6 73 46 73" id="ae"/><g id="k"><use transform="matrix(0.05,0,0,0.05,0,0)" xlink:href="#ad"/><use transform="matrix(0.05,0,0,0.05,12.950000000000001,0)" xlink:href="#ac"/><use transform="matrix(0.05,0,0,0.05,22.950000000000003,0)" xlink:href="#K"/><use transform="matrix(0.05,0,0,0.05,27.950000000000003,0)" xlink:href="#P"/><use transform="matrix(0.05,0,0,0.05,37.95,0)" xlink:href="#ae"/><use transform="matrix(0.05,0,0,0.05,47.95,0)" xlink:href="#J"/><use transform="matrix(0.05,0,0,0.05,57.95,0)" xlink:href="#O"/><use transform="matrix(0.05,0,0,0.05,63.900000000000006,0)" xlink:href="#N"/></g><path d="M160-131c35 5 61 23 61 61C221 17 115-2 30 0v-248c76 3 177-17 177 60 0 33-19 50-47 57zm-97-11c50-1 110 9 110-42 0-47-63-36-110-37v79zm0 115c55-2 124 14 124-45 0-56-70-42-124-44v89" id="af"/><path d="M87 75C49 33 22-17 22-94c0-76 28-126 65-167h31c-38 41-64 92-64 168S80 34 118 75H87" id="ag"/><path d="M33-261c38 41 65 92 65 168S71 34 33 75H2C39 34 66-17 66-93S39-220 2-261h31" id="ah"/><g id="l"><use transform="matrix(0.05,0,0,0.05,0,0)" xlink:href="#af"/><use transform="matrix(0.05,0,0,0.05,12,0)" xlink:href="#K"/><use transform="matrix(0.05,0,0,0.05,17,0)" xlink:href="#V"/><use transform="matrix(0.05,0,0,0.05,27,0)" xlink:href="#I"/><use transform="matrix(0.05,0,0,0.05,39.95,0)" xlink:href="#J"/><use transform="matrix(0.05,0,0,0.05,49.95,0)" xlink:href="#K"/><use transform="matrix(0.05,0,0,0.05,54.95,0)" xlink:href="#L"/><use transform="matrix(0.05,0,0,0.05,58.900000000000006,0)" xlink:href="#M"/><use transform="matrix(0.05,0,0,0.05,63.900000000000006,0)" xlink:href="#N"/><use transform="matrix(0.05,0,0,0.05,72.9,0)" xlink:href="#ag"/><use transform="matrix(0.05,0,0,0.05,78.85000000000001,0)" xlink:href="#ah"/></g><g id="m"><use transform="matrix(0.05,0,0,0.05,0,0)" xlink:href="#X"/><use transform="matrix(0.05,0,0,0.05,5,0)" xlink:href="#Y"/><use transform="matrix(0.05,0,0,0.05,17.950000000000003,0)" xlink:href="#P"/><use transform="matrix(0.05,0,0,0.05,27.950000000000003,0)" xlink:href="#Q"/><use transform="matrix(0.05,0,0,0.05,36.95,0)" xlink:href="#L"/><use transform="matrix(0.05,0,0,0.05,40.900000000000006,0)" xlink:href="#P"/><use transform="matrix(0.05,0,0,0.05,50.900000000000006,0)" xlink:href="#R"/><use transform="matrix(0.05,0,0,0.05,63.85,0)" xlink:href="#P"/><use transform="matrix(0.05,0,0,0.05,73.85000000000001,0)" xlink:href="#O"/><path d="M-.9 1.25h81.6v1.32H-.9z"/></g><path d="M68-38c1 34 0 65-14 84H32c9-13 17-26 17-46H33v-38h35" id="ai"/><g id="n"><use transform="matrix(0.05,0,0,0.05,0,0)" xlink:href="#I"/><use transform="matrix(0.05,0,0,0.05,12.950000000000001,0)" xlink:href="#J"/><use transform="matrix(0.05,0,0,0.05,22.950000000000003,0)" xlink:href="#K"/><use transform="matrix(0.05,0,0,0.05,27.950000000000003,0)" xlink:href="#L"/><use transform="matrix(0.05,0,0,0.05,31.900000000000002,0)" xlink:href="#M"/><use transform="matrix(0.05,0,0,0.05,36.900000000000006,0)" xlink:href="#N"/><use transform="matrix(0.05,0,0,0.05,45.900000000000006,0)" xlink:href="#ag"/><use transform="matrix(0.05,0,0,0.05,51.85,0)" xlink:href="#S"/><use transform="matrix(0.05,0,0,0.05,61.85,0)" xlink:href="#P"/><use transform="matrix(0.05,0,0,0.05,71.85000000000001,0)" xlink:href="#T"/><use transform="matrix(0.05,0,0,0.05,80.85000000000001,0)" xlink:href="#L"/><use transform="matrix(0.05,0,0,0.05,84.80000000000001,0)" xlink:href="#W"/><use transform="matrix(0.05,0,0,0.05,93.80000000000001,0)" xlink:href="#L"/><use transform="matrix(0.05,0,0,0.05,97.75000000000001,0)" xlink:href="#J"/><use transform="matrix(0.05,0,0,0.05,107.75,0)" xlink:href="#V"/><use transform="matrix(0.05,0,0,0.05,117.75,0)" xlink:href="#ai"/><use transform="matrix(0.05,0,0,0.05,122.75,0)" xlink:href="#ad"/><use transform="matrix(0.05,0,0,0.05,135.70000000000002,0)" xlink:href="#ac"/><use transform="matrix(0.05,0,0,0.05,145.70000000000002,0)" xlink:href="#K"/><use transform="matrix(0.05,0,0,0.05,150.70000000000002,0)" xlink:href="#P"/><use transform="matrix(0.05,0,0,0.05,160.70000000000002,0)" xlink:href="#ae"/><use transform="matrix(0.05,0,0,0.05,170.70000000000002,0)" xlink:href="#J"/><use transform="matrix(0.05,0,0,0.05,180.70000000000002,0)" xlink:href="#O"/><use transform="matrix(0.05,0,0,0.05,186.65,0)" xlink:href="#N"/><use transform="matrix(0.05,0,0,0.05,195.65,0)" xlink:href="#ah"/></g><path d="M30 0v-248h33v221h125V0H30" id="aj"/><path d="M115-194c55 1 70 41 70 98S169 2 115 4C84 4 66-9 55-30l1 105H24l-1-265h31l2 30c10-21 28-34 59-34zm-8 174c40 0 45-34 45-75s-6-73-45-74c-42 0-51 32-51 76 0 43 10 73 51 73" id="ak"/><g id="o"><use transform="matrix(0.05,0,0,0.05,0,0)" xlink:href="#aj"/><use transform="matrix(0.05,0,0,0.05,10,0)" xlink:href="#J"/><use transform="matrix(0.05,0,0,0.05,20,0)" xlink:href="#J"/><use transform="matrix(0.05,0,0,0.05,30,0)" xlink:href="#ak"/></g><path d="M26 75v-336h71v23H56V52h41v23H26" id="al"/><g id="p"><use transform="matrix(0.05,0,0,0.05,0,0)" xlink:href="#al"/><use transform="matrix(0.05,0,0,0.05,5,0)" xlink:href="#M"/><use transform="matrix(0.05,0,0,0.05,10,0)" xlink:href="#J"/><use transform="matrix(0.05,0,0,0.05,20,0)" xlink:href="#O"/></g><path d="M106-169C34-169 62-67 57 0H25v-261h32l-1 103c12-21 28-36 61-36 89 0 53 116 60 194h-32v-121c2-32-8-49-39-48" id="am"/><g id="q"><use transform="matrix(0.05,0,0,0.05,0,0)" xlink:href="#P"/><use transform="matrix(0.05,0,0,0.05,10,0)" xlink:href="#ac"/><use transform="matrix(0.05,0,0,0.05,20,0)" xlink:href="#T"/><use transform="matrix(0.05,0,0,0.05,29,0)" xlink:href="#am"/></g><path d="M3 75V52h41v-290H3v-23h71V75H3" id="an"/><g id="r"><use transform="matrix(0.05,0,0,0.05,0,0)" xlink:href="#O"/><use transform="matrix(0.05,0,0,0.05,5.95,0)" xlink:href="#P"/><use transform="matrix(0.05,0,0,0.05,15.949999999999998,0)" xlink:href="#Q"/><use transform="matrix(0.05,0,0,0.05,24.95,0)" xlink:href="#L"/><use transform="matrix(0.05,0,0,0.05,28.899999999999995,0)" xlink:href="#P"/><use transform="matrix(0.05,0,0,0.05,38.9,0)" xlink:href="#R"/><use transform="matrix(0.05,0,0,0.05,51.85,0)" xlink:href="#P"/><use transform="matrix(0.05,0,0,0.05,61.85,0)" xlink:href="#O"/><use transform="matrix(0.05,0,0,0.05,67.8,0)" xlink:href="#an"/></g><path d="M205 0l-28-72H64L36 0H1l101-248h38L239 0h-34zm-38-99l-47-123c-12 45-31 82-46 123h93" id="ao"/><path d="M24 0v-261h32V0H24" id="ap"/><g id="s"><use transform="matrix(0.05,0,0,0.05,0,0)" xlink:href="#ao"/><use transform="matrix(0.05,0,0,0.05,12,0)" xlink:href="#ap"/><use transform="matrix(0.05,0,0,0.05,15.949999999999998,0)" xlink:href="#K"/><use transform="matrix(0.05,0,0,0.05,20.95,0)" xlink:href="#P"/><use transform="matrix(0.05,0,0,0.05,30.950000000000003,0)" xlink:href="#O"/><use transform="matrix(0.05,0,0,0.05,36.9,0)" xlink:href="#V"/><use transform="matrix(0.05,0,0,0.05,46.9,0)" xlink:href="#ac"/><use transform="matrix(0.05,0,0,0.05,56.900000000000006,0)" xlink:href="#K"/><use transform="matrix(0.05,0,0,0.05,61.900000000000006,0)" xlink:href="#L"/><use transform="matrix(0.05,0,0,0.05,65.85,0)" xlink:href="#Q"/><use transform="matrix(0.05,0,0,0.05,74.85,0)" xlink:href="#P"/></g><g id="t"><use transform="matrix(0.05,0,0,0.05,0,0)" xlink:href="#al"/><use transform="matrix(0.05,0,0,0.05,5,0)" xlink:href="#ad"/><use transform="matrix(0.05,0,0,0.05,17.950000000000003,0)" xlink:href="#ac"/><use transform="matrix(0.05,0,0,0.05,27.950000000000003,0)" xlink:href="#K"/><use transform="matrix(0.05,0,0,0.05,32.95,0)" xlink:href="#P"/><use transform="matrix(0.05,0,0,0.05,42.95,0)" xlink:href="#ae"/><use transform="matrix(0.05,0,0,0.05,52.95,0)" xlink:href="#J"/><use transform="matrix(0.05,0,0,0.05,62.95,0)" xlink:href="#O"/><use transform="matrix(0.05,0,0,0.05,68.9,0)" xlink:href="#N"/></g><path d="M18-150v-26h174v26H18zm0 90v-26h174v26H18" id="aq"/><g id="u"><use transform="matrix(0.05,0,0,0.05,0,0)" xlink:href="#aq"/><use transform="matrix(0.05,0,0,0.05,10.5,0)" xlink:href="#aq"/></g><g id="v"><use transform="matrix(0.05,0,0,0.05,0,0)" xlink:href="#Y"/><use transform="matrix(0.05,0,0,0.05,12.950000000000001,0)" xlink:href="#P"/><use transform="matrix(0.05,0,0,0.05,22.950000000000003,0)" xlink:href="#Q"/><use transform="matrix(0.05,0,0,0.05,31.950000000000003,0)" xlink:href="#L"/><use transform="matrix(0.05,0,0,0.05,35.900000000000006,0)" xlink:href="#P"/><use transform="matrix(0.05,0,0,0.05,45.900000000000006,0)" xlink:href="#R"/><use transform="matrix(0.05,0,0,0.05,58.85,0)" xlink:href="#P"/><use transform="matrix(0.05,0,0,0.05,68.85000000000001,0)" xlink:href="#O"/><use transform="matrix(0.05,0,0,0.05,74.80000000000001,0)" xlink:href="#ad"/><use transform="matrix(0.05,0,0,0.05,87.75000000000001,0)" xlink:href="#ac"/><use transform="matrix(0.05,0,0,0.05,97.75000000000001,0)" xlink:href="#K"/><use transform="matrix(0.05,0,0,0.05,102.75,0)" xlink:href="#P"/><use transform="matrix(0.05,0,0,0.05,112.75,0)" xlink:href="#ae"/><use transform="matrix(0.05,0,0,0.05,122.75,0)" xlink:href="#J"/><use transform="matrix(0.05,0,0,0.05,132.75,0)" xlink:href="#O"/><use transform="matrix(0.05,0,0,0.05,138.7,0)" xlink:href="#N"/><use transform="matrix(0.05,0,0,0.05,147.7,0)" xlink:href="#an"/></g><g id="w"><use transform="matrix(0.05,0,0,0.05,0,0)" xlink:href="#al"/><use transform="matrix(0.05,0,0,0.05,5,0)" xlink:href="#aa"/><use transform="matrix(0.05,0,0,0.05,17,0)" xlink:href="#ap"/><use transform="matrix(0.05,0,0,0.05,20.95,0)" xlink:href="#W"/><use transform="matrix(0.05,0,0,0.05,29.950000000000003,0)" xlink:href="#P"/><use transform="matrix(0.05,0,0,0.05,39.95,0)" xlink:href="#an"/></g><path d="M137 0h-34L2-248h35l83 218 83-218h36" id="ar"/><g id="x"><use transform="matrix(0.05,0,0,0.05,0,0)" xlink:href="#ar"/><use transform="matrix(0.05,0,0,0.05,11,0)" xlink:href="#P"/><use transform="matrix(0.05,0,0,0.05,21,0)" xlink:href="#O"/><use transform="matrix(0.05,0,0,0.05,26.950000000000003,0)" xlink:href="#S"/><use transform="matrix(0.05,0,0,0.05,36.95,0)" xlink:href="#L"/><use transform="matrix(0.05,0,0,0.05,40.900000000000006,0)" xlink:href="#T"/><use transform="matrix(0.05,0,0,0.05,49.900000000000006,0)" xlink:href="#K"/></g><g id="y"><use transform="matrix(0.05,0,0,0.05,0,0)" xlink:href="#O"/><use transform="matrix(0.05,0,0,0.05,5.95,0)" xlink:href="#P"/><use transform="matrix(0.05,0,0,0.05,15.949999999999998,0)" xlink:href="#T"/><use transform="matrix(0.05,0,0,0.05,24.95,0)" xlink:href="#L"/><use transform="matrix(0.05,0,0,0.05,28.899999999999995,0)" xlink:href="#P"/><use transform="matrix(0.05,0,0,0.05,38.9,0)" xlink:href="#Q"/><use transform="matrix(0.05,0,0,0.05,47.9,0)" xlink:href="#P"/><use transform="matrix(0.05,0,0,0.05,57.900000000000006,0)" xlink:href="#S"/></g><g id="z"><use transform="matrix(0.05,0,0,0.05,0,0)" xlink:href="#O"/><use transform="matrix(0.05,0,0,0.05,5.95,0)" xlink:href="#P"/><use transform="matrix(0.05,0,0,0.05,15.949999999999998,0)" xlink:href="#Q"/><use transform="matrix(0.05,0,0,0.05,24.95,0)" xlink:href="#L"/><use transform="matrix(0.05,0,0,0.05,28.899999999999995,0)" xlink:href="#P"/><use transform="matrix(0.05,0,0,0.05,38.9,0)" xlink:href="#R"/><use transform="matrix(0.05,0,0,0.05,51.85,0)" xlink:href="#P"/><use transform="matrix(0.05,0,0,0.05,61.85,0)" xlink:href="#O"/></g><g id="A"><use transform="matrix(0.05,0,0,0.05,0,0)" xlink:href="#S"/><use transform="matrix(0.05,0,0,0.05,10,0)" xlink:href="#J"/><use transform="matrix(0.05,0,0,0.05,20,0)" xlink:href="#P"/><use transform="matrix(0.05,0,0,0.05,30,0)" xlink:href="#W"/></g><g id="B"><use transform="matrix(0.05,0,0,0.05,0,0)" xlink:href="#V"/><use transform="matrix(0.05,0,0,0.05,10,0)" xlink:href="#J"/><use transform="matrix(0.05,0,0,0.05,20,0)" xlink:href="#K"/></g><path d="M141 0L90-78 38 0H4l68-98-65-92h35l48 74 47-74h35l-64 92 68 98h-35" id="as"/><g id="C"><use transform="matrix(0.05,0,0,0.05,0,0)" xlink:href="#P"/><use transform="matrix(0.05,0,0,0.05,10,0)" xlink:href="#as"/><use transform="matrix(0.05,0,0,0.05,19,0)" xlink:href="#L"/><use transform="matrix(0.05,0,0,0.05,22.95,0)" xlink:href="#W"/><use transform="matrix(0.05,0,0,0.05,31.950000000000003,0)" xlink:href="#K"/></g><g id="D"><use transform="matrix(0.05,0,0,0.05,0,0)" xlink:href="#ab"/><use transform="matrix(0.05,0,0,0.05,12.950000000000001,0)" xlink:href="#P"/><use transform="matrix(0.05,0,0,0.05,22.950000000000003,0)" xlink:href="#T"/><use transform="matrix(0.05,0,0,0.05,31.950000000000003,0)" xlink:href="#L"/><use transform="matrix(0.05,0,0,0.05,35.900000000000006,0)" xlink:href="#W"/><use transform="matrix(0.05,0,0,0.05,44.900000000000006,0)" xlink:href="#L"/><use transform="matrix(0.05,0,0,0.05,48.85000000000001,0)" xlink:href="#J"/><use transform="matrix(0.05,0,0,0.05,58.85,0)" xlink:href="#V"/></g><g id="E"><use transform="matrix(0.05,0,0,0.05,0,0)" xlink:href="#W"/><use transform="matrix(0.05,0,0,0.05,9,0)" xlink:href="#P"/><use transform="matrix(0.05,0,0,0.05,19,0)" xlink:href="#V"/><use transform="matrix(0.05,0,0,0.05,29,0)" xlink:href="#K"/></g><g id="F"><use transform="matrix(0.05,0,0,0.05,0,0)" xlink:href="#ap"/><use transform="matrix(0.05,0,0,0.05,3.95,0)" xlink:href="#J"/><use transform="matrix(0.05,0,0,0.05,13.949999999999998,0)" xlink:href="#ae"/><use transform="matrix(0.05,0,0,0.05,23.95,0)" xlink:href="#ae"/><use transform="matrix(0.05,0,0,0.05,33.95,0)" xlink:href="#P"/><use transform="matrix(0.05,0,0,0.05,43.95,0)" xlink:href="#S"/></g></defs></g></svg>