<svg xmlns="http://www.w3.org/2000/svg" xmlns:xlink="http://www.w3.org/1999/xlink" xmlns:lucid="lucid" width="1368" height="1080"><g transform="translate(-12 -20)" lucid:page-tab-id="jh_YhPWjVy0J"><path d="M32 40h200v20l-10 10H32z" fill="#fff"/><path d="M232 40v20l-10 10H32" stroke="#000" stroke-width="2" fill="none"/><path d="M32 40h1328v1040H32z" stroke="#000" stroke-width="2" fill="none"/><use xlink:href="#a" transform="matrix(1,0,0,1,40,40) translate(0 18.6)"/><use xlink:href="#b" transform="matrix(1,0,0,1,40,40) translate(25.950000000000003 18.6)"/><use xlink:href="#c" transform="matrix(1,0,0,1,40,40) translate(89.80000000000001 18.6)"/><path d="M151.75 99.75c0 10.9-8.84 19.75-19.75 19.75-10.9 0-19.75-8.84-19.75-19.75C112.25 88.85 121.1 80 132 80c10.9 0 19.75 8.84 19.75 19.75z" stroke="#000" stroke-width="2" fill="#fff"/><path d="M132 119.5v55.3l40 63.2m-40-63.2L92 238m0-98.75h80" stroke="#000" stroke-width="2" fill="none"/><path d="M92 80h80v180H92z" fill="none"/><use xlink:href="#d" transform="matrix(1,0,0,1,12,238) translate(82.525 14.6)"/><path d="M112 340h40v700h-40z" stroke="#000" stroke-width="2" fill="#fff"/><path d="M131 159.86v9.9m0 9.9v19.8m0 9.9v19.78m0 9.9v19.8m0 9.88v19.8m0 9.9v19.8m0 9.88v9.9M131 337.97V339" stroke="#000" stroke-width="2" fill="none"/><path d="M412 130h160v80H412z" stroke="#000" stroke-width="2" fill="#fff"/><use xlink:href="#e" transform="matrix(1,0,0,1,412.00000000000006,130) translate(46.05499999999999 44.4)"/><path d="M472 340h40v700h-40z" stroke="#000" stroke-width="2" fill="#fff"/><path d="M492 212v10.5m0 10.5v21m0 10.5v21m0 10.5v21m0 10.5V338" stroke="#000" stroke-width="2" fill="none"/><path d="M493 212.03h-2V211h2z"/><path d="M492 337.97V339M154 398.54h298.5" stroke="#000" stroke-width="2" fill="none"/><path d="M154.03 399.54H153v-2h1.03z"/><path d="M467.76 398.54l-14.26 4.63v-9.27z" stroke="#000" stroke-width="2"/><use xlink:href="#f" transform="matrix(1,0,0,1,209.175,372.9365853658537) translate(0 14.4)"/><use xlink:href="#g" transform="matrix(1,0,0,1,209.175,372.9365853658537) translate(39.9 14.4)"/><path d="M680 130h160v80H680z" stroke="#000" stroke-width="2" fill="#fff"/><use xlink:href="#h" transform="matrix(1,0,0,1,680,130) translate(48.07999999999999 44.4)"/><path d="M740 340h40v120h-40z" stroke="#000" stroke-width="2" fill="#fff"/><path d="M760 212v10.5m0 10.5v21m0 10.5v21m0 10.5v21m0 10.5V338" stroke="#000" stroke-width="2" fill="none"/><path d="M761 212.03h-2V211h2z"/><path d="M760 337.97V339M514 450.67h206.5" stroke="#000" stroke-width="2" fill="none"/><path d="M514.03 451.67H513v-2h1.03z"/><path d="M735.76 450.67l-14.26 4.63v-9.27z" stroke="#000" stroke-width="2"/><use xlink:href="#i" transform="matrix(1,0,0,1,574.625,425.06666666666644) translate(0 14.4)"/><path d="M782 385.33h39v40h-21.5" stroke="#000" stroke-width="2" fill="none"/><path d="M782.03 386.33H781v-2h1.03z"/><path d="M784.24 425.33l14.26-4.63v9.27z" stroke="#000" stroke-width="2"/><use xlink:href="#j" transform="matrix(1,0,0,1,829.0000000000001,394.5333333333333) translate(0 14.4)"/><path d="M620 480h100v20l-10 10h-90z" fill="#fff"/><path d="M720 480v20l-10 10h-90" stroke="#000" stroke-width="2" fill="none"/><path d="M620 480h700v540H620zM620 815h20m15 0h20m15 0h20m15 0h20m15 0h20m15 0h20m15 0h20m15 0h20m15 0h20m15 0h20m15 0h20m15 0h20m15 0h20m15 0h20m15 0h20m15 0h20m15 0h20m15 0h20m15 0h20m15 0h20" stroke="#000" stroke-width="2" fill="none"/><use xlink:href="#k" transform="matrix(1,0,0,1,628,480) translate(0 18.6)"/><use xlink:href="#l" transform="matrix(1,0,0,1,632,518) translate(0 14.4)"/><use xlink:href="#m" transform="matrix(1,0,0,1,632,518) translate(18.95 14.4)"/><use xlink:href="#n" transform="matrix(1,0,0,1,632,518) translate(0 36)"/><use xlink:href="#o" transform="matrix(1,0,0,1,632,823) translate(0 18.6)"/><path d="M980 500h160v120H980z" stroke="#000" stroke-width="2" fill="#fff"/><use xlink:href="#p" transform="matrix(1,0,0,1,980,500) translate(6.205000000000007 63.15)"/><path d="M1040 660h40v120h-40z" stroke="#000" stroke-width="2" fill="#fff"/><path d="M1060 622v12m0 12v12" stroke="#000" stroke-width="2" fill="none"/><path d="M1061 622.03h-2V621h2zM1061 659h-2v-1.03h2z"/><path d="M740 640h40v120h-40z" stroke="#000" stroke-width="2" fill="#fff"/><path d="M760 462v9.78m0 9.78v19.55m0 9.8v19.54m0 9.78v19.56m0 9.78v19.55m0 9.8v19.54m0 9.78V638" stroke="#000" stroke-width="2" fill="none"/><path d="M761 462.03h-2V461h2zM761 639h-2v-1.03h2z"/><path d="M782 700h238.5" stroke="#000" stroke-width="2" fill="none"/><path d="M782.03 701H781v-2h1.03z"/><path d="M1035.76 700l-14.26 4.64v-9.28z" stroke="#000" stroke-width="2"/><use xlink:href="#q" transform="matrix(1,0,0,1,811.2,674.4000000000001) translate(0 14.4)"/><path d="M740 840h40v120h-40z" stroke="#000" stroke-width="2" fill="#fff"/><path d="M760 762v8.44m0 8.45v16.88m0 8.44v16.9m0 8.44V838" stroke="#000" stroke-width="2" fill="none"/><path d="M761 762.03h-2V761h2zM761 839h-2v-1.03h2z"/><path d="M760 838v-9.5m0-9.5v-19m0-9.5V781" stroke="#000" stroke-width="2" fill="none"/><path d="M761 839h-2v-1.03h2z"/><path d="M760 781.03V780" stroke="#000" stroke-width="2" fill="none"/><path d="M1040 860h40v120h-40z" stroke="#000" stroke-width="2" fill="#fff"/><path d="M1060 782v8.44m0 8.45v16.88m0 8.44v16.9m0 8.44V858M1060 782.03V781" stroke="#000" stroke-width="2" fill="none"/><path d="M1061 859h-2v-1.03h2z"/><path d="M782 918.67h238.5" stroke="#000" stroke-width="2" fill="none"/><path d="M782.03 919.67H781v-2h1.03z"/><path d="M1035.76 918.67l-14.26 4.63v-9.27z" stroke="#000" stroke-width="2"/><use xlink:href="#r" transform="matrix(1,0,0,1,835.125,893.0666666666667) translate(0 14.4)"/><path d="M1038 769.33h-9.93m-9.93 0h-19.87m-9.93 0h-19.86m-9.93 0H938.7m-9.94 0H908.9m-9.94 0H879.1m-9.93 0H849.3m-9.93 0H819.5m-9.92 0h-19.86m-9.93 0H759.9m-9.93 0h-19.87m-9.93 0h-19.87m-9.93 0h-19.86m-9.93 0h-19.85m-9.93 0h-19.87m-9.93 0h-19.86m-9.93 0h-19.87m-9.93 0h-9.93" stroke="#000" stroke-width="2" fill="none"/><path d="M1039 770.33h-1.03v-2h1.03z"/><path d="M516.24 769.33l14.26-4.63v9.27z" stroke="#000" stroke-width="2"/><use xlink:href="#s" transform="matrix(1,0,0,1,657.625,773.3333333333334) translate(0 14.4)"/><use xlink:href="#t" transform="matrix(1,0,0,1,657.625,773.3333333333334) translate(90.85000000000001 14.4)"/><use xlink:href="#u" transform="matrix(1,0,0,1,657.625,773.3333333333334) translate(153.85000000000002 14.4)"/><use xlink:href="#v" transform="matrix(1,0,0,1,657.625,773.3333333333334) translate(187.75000000000003 14.4)"/><path d="M1038 974.67h-9.93m-9.93 0h-19.87m-9.93 0h-19.86m-9.93 0H938.7m-9.94 0H908.9m-9.94 0H879.1m-9.93 0H849.3m-9.93 0H819.5m-9.92 0h-19.86m-9.93 0H759.9m-9.93 0h-19.87m-9.93 0h-19.87m-9.93 0h-19.86m-9.93 0h-19.85m-9.93 0h-19.87m-9.93 0h-19.86m-9.93 0h-19.87m-9.93 0h-9.93" stroke="#000" stroke-width="2" fill="none"/><path d="M1039 975.67h-1.03v-2h1.03z"/><path d="M516.24 974.67l14.26-4.64v9.27z" stroke="#000" stroke-width="2"/><use xlink:href="#s" transform="matrix(1,0,0,1,680.15,978.6666666666665) translate(0 14.4)"/><use xlink:href="#w" transform="matrix(1,0,0,1,680.15,978.6666666666665) translate(90.85000000000001 14.4)"/><use xlink:href="#x" transform="matrix(1,0,0,1,680.15,978.6666666666665) translate(127.80000000000001 14.4)"/><path d="M470 797.35h-10.06m-10.05 0h-20.12m-10.06 0h-20.1m-10.06 0h-20.1m-10.07 0h-20.12m-10.06 0h-20.1m-10.06 0h-20.1m-10.07 0h-20.12m-10.06 0h-20.1m-10.06 0H198.5" stroke="#000" stroke-width="2" fill="none"/><path d="M471 798.35h-1.03v-2H471z"/><path d="M183.24 797.35l14.26-4.63V802z" stroke="#000" stroke-width="2"/><g><use xlink:href="#y" transform="matrix(1,0,0,1,251.55,801.3528455284555) translate(0 14.4)"/><use xlink:href="#u" transform="matrix(1,0,0,1,251.55,801.3528455284555) translate(65 14.4)"/><use xlink:href="#v" transform="matrix(1,0,0,1,251.55,801.3528455284555) translate(98.9 14.4)"/></g><path d="M470 1000h-9.95m-9.95 0h-19.9m-9.95 0h-19.9m-9.95 0h-19.9m-9.95 0h-19.9m-9.95 0h-19.9m-9.95 0h-19.9m-9.95 0h-19.9m-9.95 0h-19.9m-9.95 0h-19.9m-9.95 0h-9.95" stroke="#000" stroke-width="2" fill="none"/><path d="M471 1001h-1.03v-2H471z"/><path d="M156.24 1000l14.26-4.64v9.28z" stroke="#000" stroke-width="2"/><g><use xlink:href="#z" transform="matrix(1,0,0,1,215.15000000000003,1004) translate(0 14.4)"/><use xlink:href="#w" transform="matrix(1,0,0,1,215.15000000000003,1004) translate(92.85000000000001 14.4)"/><use xlink:href="#x" transform="matrix(1,0,0,1,215.15000000000003,1004) translate(129.8 14.4)"/></g><defs><path d="M137-138c1-29-70-34-71-4 15 46 118 7 119 86 1 83-164 76-172 9l43-7c4 19 20 25 44 25 33 8 57-30 24-41C81-84 22-81 20-136c-2-80 154-74 161-7" id="A"/><path d="M88-194c31-1 46 15 58 34l-1-101h50l1 261h-48c-2-10 0-23-3-31C134-8 116 4 84 4 32 4 16-41 15-95c0-56 19-97 73-99zm17 164c33 0 40-30 41-66 1-37-9-64-41-64s-38 30-39 65c0 43 13 65 39 65" id="B"/><g id="a"><use transform="matrix(0.05,0,0,0.05,0,0)" xlink:href="#A"/><use transform="matrix(0.05,0,0,0.05,10,0)" xlink:href="#B"/><path d="M-.9.97h27.75v1.9H-.9z"/></g><path d="M233-177c-1 41-23 64-60 70L243 0h-38l-65-103H63V0H30v-248c88 3 205-21 203 71zM63-129c60-2 137 13 137-47 0-61-80-42-137-45v92" id="C"/><path d="M100-194c63 0 86 42 84 106H49c0 40 14 67 53 68 26 1 43-12 49-29l28 8c-11 28-37 45-77 45C44 4 14-33 15-96c1-61 26-98 85-98zm52 81c6-60-76-77-97-28-3 7-6 17-6 28h103" id="D"/><path d="M108 0H70L1-190h34L89-25l56-165h34" id="E"/><path d="M24-231v-30h32v30H24zM24 0v-190h32V0H24" id="F"/><path d="M206 0h-36l-40-164L89 0H53L-1-190h32L70-26l43-164h34l41 164 42-164h31" id="G"/><g id="b"><use transform="matrix(0.05,0,0,0.05,0,0)" xlink:href="#C"/><use transform="matrix(0.05,0,0,0.05,12.950000000000001,0)" xlink:href="#D"/><use transform="matrix(0.05,0,0,0.05,22.950000000000003,0)" xlink:href="#E"/><use transform="matrix(0.05,0,0,0.05,31.950000000000003,0)" xlink:href="#F"/><use transform="matrix(0.05,0,0,0.05,35.900000000000006,0)" xlink:href="#D"/><use transform="matrix(0.05,0,0,0.05,45.900000000000006,0)" xlink:href="#G"/></g><path d="M141-36C126-15 110 5 73 4 37 3 15-17 15-53c-1-64 63-63 125-63 3-35-9-54-41-54-24 1-41 7-42 31l-33-3c5-37 33-52 76-52 45 0 72 20 72 64v82c-1 20 7 32 28 27v20c-31 9-61-2-59-35zM48-53c0 20 12 33 32 33 41-3 63-29 60-74-43 2-92-5-92 41" id="H"/><path d="M115-194c55 1 70 41 70 98S169 2 115 4C84 4 66-9 55-30l1 105H24l-1-265h31l2 30c10-21 28-34 59-34zm-8 174c40 0 45-34 45-75s-6-73-45-74c-42 0-51 32-51 76 0 43 10 73 51 73" id="I"/><path d="M24 0v-261h32V0H24" id="J"/><path d="M96-169c-40 0-48 33-48 73s9 75 48 75c24 0 41-14 43-38l32 2c-6 37-31 61-74 61-59 0-76-41-82-99-10-93 101-131 147-64 4 7 5 14 7 22l-32 3c-4-21-16-35-41-35" id="K"/><path d="M59-47c-2 24 18 29 38 22v24C64 9 27 4 27-40v-127H5v-23h24l9-43h21v43h35v23H59v120" id="L"/><path d="M100-194c62-1 85 37 85 99 1 63-27 99-86 99S16-35 15-95c0-66 28-99 85-99zM99-20c44 1 53-31 53-75 0-43-8-75-51-75s-53 32-53 75 10 74 51 75" id="M"/><path d="M117-194c89-4 53 116 60 194h-32v-121c0-31-8-49-39-48C34-167 62-67 57 0H25l-1-190h30c1 10-1 24 2 32 11-22 29-35 61-36" id="N"/><g id="c"><use transform="matrix(0.05,0,0,0.05,0,0)" xlink:href="#H"/><use transform="matrix(0.05,0,0,0.05,10,0)" xlink:href="#I"/><use transform="matrix(0.05,0,0,0.05,20,0)" xlink:href="#I"/><use transform="matrix(0.05,0,0,0.05,30,0)" xlink:href="#J"/><use transform="matrix(0.05,0,0,0.05,33.95,0)" xlink:href="#F"/><use transform="matrix(0.05,0,0,0.05,37.900000000000006,0)" xlink:href="#K"/><use transform="matrix(0.05,0,0,0.05,46.900000000000006,0)" xlink:href="#H"/><use transform="matrix(0.05,0,0,0.05,56.900000000000006,0)" xlink:href="#L"/><use transform="matrix(0.05,0,0,0.05,61.900000000000006,0)" xlink:href="#F"/><use transform="matrix(0.05,0,0,0.05,65.85000000000001,0)" xlink:href="#M"/><use transform="matrix(0.05,0,0,0.05,75.85000000000001,0)" xlink:href="#N"/></g><path d="M33 0v-248h34V0H33" id="O"/><path d="M114-163C36-179 61-72 57 0H25l-1-190h30c1 12-1 29 2 39 6-27 23-49 58-41v29" id="P"/><g id="d"><use transform="matrix(0.05,0,0,0.05,0,0)" xlink:href="#O"/><use transform="matrix(0.05,0,0,0.05,5,0)" xlink:href="#N"/><use transform="matrix(0.05,0,0,0.05,15,0)" xlink:href="#N"/><use transform="matrix(0.05,0,0,0.05,25,0)" xlink:href="#M"/><use transform="matrix(0.05,0,0,0.05,35,0)" xlink:href="#E"/><use transform="matrix(0.05,0,0,0.05,44,0)" xlink:href="#H"/><use transform="matrix(0.05,0,0,0.05,54,0)" xlink:href="#L"/><use transform="matrix(0.05,0,0,0.05,59,0)" xlink:href="#M"/><use transform="matrix(0.05,0,0,0.05,69,0)" xlink:href="#P"/></g><path d="M33-154v-36h34v36H33zM33 0v-36h34V0H33" id="Q"/><path d="M205 0l-28-72H64L36 0H1l101-248h38L239 0h-34zm-38-99l-47-123c-12 45-31 82-46 123h93" id="R"/><path d="M179-190L93 31C79 59 56 82 12 73V49c39 6 53-20 64-50L1-190h34L92-34l54-156h33" id="S"/><path d="M232-93c-1 65-40 97-104 97C67 4 28-28 28-90v-158h33c8 89-33 224 67 224 102 0 64-133 71-224h33v155" id="T"/><g id="e"><use transform="matrix(0.05,0,0,0.05,0,0)" xlink:href="#Q"/><use transform="matrix(0.05,0,0,0.05,5,0)" xlink:href="#R"/><use transform="matrix(0.05,0,0,0.05,17,0)" xlink:href="#I"/><use transform="matrix(0.05,0,0,0.05,27,0)" xlink:href="#I"/><use transform="matrix(0.05,0,0,0.05,37,0)" xlink:href="#J"/><use transform="matrix(0.05,0,0,0.05,40.95,0)" xlink:href="#S"/><use transform="matrix(0.05,0,0,0.05,49.95,0)" xlink:href="#T"/><use transform="matrix(0.05,0,0,0.05,62.900000000000006,0)" xlink:href="#O"/><path d="M-.9 1.25h69.7v1.32H-.9z"/></g><path d="M143 0L79-87 56-68V0H24v-261h32v163l83-92h37l-77 82L181 0h-38" id="U"/><g id="f"><use transform="matrix(0.05,0,0,0.05,0,0)" xlink:href="#K"/><use transform="matrix(0.05,0,0,0.05,9,0)" xlink:href="#J"/><use transform="matrix(0.05,0,0,0.05,12.949999999999998,0)" xlink:href="#F"/><use transform="matrix(0.05,0,0,0.05,16.9,0)" xlink:href="#K"/><use transform="matrix(0.05,0,0,0.05,25.899999999999995,0)" xlink:href="#U"/></g><path d="M135-143c-3-34-86-38-87 0 15 53 115 12 119 90S17 21 10-45l28-5c4 36 97 45 98 0-10-56-113-15-118-90-4-57 82-63 122-42 12 7 21 19 24 35" id="V"/><path d="M85-194c31 0 48 13 60 33l-1-100h32l1 261h-30c-2-10 0-23-3-31C134-8 116 4 85 4 32 4 16-35 15-94c0-66 23-100 70-100zm9 24c-40 0-46 34-46 75 0 40 6 74 45 74 42 0 51-32 51-76 0-42-9-74-50-73" id="W"/><path d="M160-131c35 5 61 23 61 61C221 17 115-2 30 0v-248c76 3 177-17 177 60 0 33-19 50-47 57zm-97-11c50-1 110 9 110-42 0-47-63-36-110-37v79zm0 115c55-2 124 14 124-45 0-56-70-42-124-44v89" id="X"/><path d="M87 75C49 33 22-17 22-94c0-76 28-126 65-167h31c-38 41-64 92-64 168S80 34 118 75H87" id="Y"/><path d="M33-261c38 41 65 92 65 168S71 34 33 75H2C39 34 66-17 66-93S39-220 2-261h31" id="Z"/><g id="g"><use transform="matrix(0.05,0,0,0.05,0,0)" xlink:href="#V"/><use transform="matrix(0.05,0,0,0.05,9,0)" xlink:href="#D"/><use transform="matrix(0.05,0,0,0.05,19,0)" xlink:href="#N"/><use transform="matrix(0.05,0,0,0.05,29,0)" xlink:href="#W"/><use transform="matrix(0.05,0,0,0.05,39,0)" xlink:href="#R"/><use transform="matrix(0.05,0,0,0.05,51,0)" xlink:href="#I"/><use transform="matrix(0.05,0,0,0.05,61,0)" xlink:href="#I"/><use transform="matrix(0.05,0,0,0.05,71,0)" xlink:href="#J"/><use transform="matrix(0.05,0,0,0.05,74.95,0)" xlink:href="#F"/><use transform="matrix(0.05,0,0,0.05,78.9,0)" xlink:href="#K"/><use transform="matrix(0.05,0,0,0.05,87.9,0)" xlink:href="#H"/><use transform="matrix(0.05,0,0,0.05,97.9,0)" xlink:href="#L"/><use transform="matrix(0.05,0,0,0.05,102.9,0)" xlink:href="#F"/><use transform="matrix(0.05,0,0,0.05,106.85000000000001,0)" xlink:href="#M"/><use transform="matrix(0.05,0,0,0.05,116.85000000000001,0)" xlink:href="#N"/><use transform="matrix(0.05,0,0,0.05,126.85000000000001,0)" xlink:href="#X"/><use transform="matrix(0.05,0,0,0.05,138.85000000000002,0)" xlink:href="#L"/><use transform="matrix(0.05,0,0,0.05,143.85000000000002,0)" xlink:href="#N"/><use transform="matrix(0.05,0,0,0.05,153.85000000000002,0)" xlink:href="#Y"/><use transform="matrix(0.05,0,0,0.05,159.8,0)" xlink:href="#Z"/></g><g id="h"><use transform="matrix(0.05,0,0,0.05,0,0)" xlink:href="#Q"/><use transform="matrix(0.05,0,0,0.05,5,0)" xlink:href="#C"/><use transform="matrix(0.05,0,0,0.05,17.950000000000003,0)" xlink:href="#D"/><use transform="matrix(0.05,0,0,0.05,27.950000000000003,0)" xlink:href="#E"/><use transform="matrix(0.05,0,0,0.05,36.95,0)" xlink:href="#F"/><use transform="matrix(0.05,0,0,0.05,40.900000000000006,0)" xlink:href="#D"/><use transform="matrix(0.05,0,0,0.05,50.900000000000006,0)" xlink:href="#G"/></g><path d="M84 4C-5 8 30-112 23-190h32v120c0 31 7 50 39 49 72-2 45-101 50-169h31l1 190h-30c-1-10 1-25-2-33-11 22-28 36-60 37" id="aa"/><path d="M115-194c53 0 69 39 70 98 0 66-23 100-70 100C84 3 66-7 56-30L54 0H23l1-261h32v101c10-23 28-34 59-34zm-8 174c40 0 45-34 45-75 0-40-5-75-45-74-42 0-51 32-51 76 0 43 10 73 51 73" id="ab"/><path d="M210-169c-67 3-38 105-44 169h-31v-121c0-29-5-50-35-48C34-165 62-65 56 0H25l-1-190h30c1 10-1 24 2 32 10-44 99-50 107 0 11-21 27-35 58-36 85-2 47 119 55 194h-31v-121c0-29-5-49-35-48" id="ac"/><path d="M106-169C34-169 62-67 57 0H25v-261h32l-1 103c12-21 28-36 61-36 89 0 53 116 60 194h-32v-121c2-32-8-49-39-48" id="ad"/><g id="i"><use transform="matrix(0.05,0,0,0.05,0,0)" xlink:href="#V"/><use transform="matrix(0.05,0,0,0.05,9,0)" xlink:href="#aa"/><use transform="matrix(0.05,0,0,0.05,19,0)" xlink:href="#ab"/><use transform="matrix(0.05,0,0,0.05,29,0)" xlink:href="#ac"/><use transform="matrix(0.05,0,0,0.05,43.95,0)" xlink:href="#F"/><use transform="matrix(0.05,0,0,0.05,47.900000000000006,0)" xlink:href="#L"/><use transform="matrix(0.05,0,0,0.05,52.900000000000006,0)" xlink:href="#Y"/><use transform="matrix(0.05,0,0,0.05,58.85,0)" xlink:href="#I"/><use transform="matrix(0.05,0,0,0.05,68.85000000000001,0)" xlink:href="#F"/><use transform="matrix(0.05,0,0,0.05,72.80000000000001,0)" xlink:href="#L"/><use transform="matrix(0.05,0,0,0.05,77.80000000000001,0)" xlink:href="#K"/><use transform="matrix(0.05,0,0,0.05,86.80000000000001,0)" xlink:href="#ad"/><use transform="matrix(0.05,0,0,0.05,96.80000000000001,0)" xlink:href="#Z"/></g><path d="M145-31C134-9 116 4 85 4 32 4 16-35 15-94c0-59 17-99 70-100 32-1 48 14 60 33 0-11-1-24 2-32h30l-1 268h-32zM93-21c41 0 51-33 51-76s-8-73-50-73c-40 0-46 35-46 75s5 74 45 74" id="ae"/><path d="M68-38c1 34 0 65-14 84H32c9-13 17-26 17-46H33v-38h35" id="af"/><path d="M212-179c-10-28-35-45-73-45-59 0-87 40-87 99 0 60 29 101 89 101 43 0 62-24 78-52l27 14C228-24 195 4 139 4 59 4 22-46 18-125c-6-104 99-153 187-111 19 9 31 26 39 46" id="ag"/><g id="j"><use transform="matrix(0.05,0,0,0.05,0,0)" xlink:href="#K"/><use transform="matrix(0.05,0,0,0.05,9,0)" xlink:href="#ad"/><use transform="matrix(0.05,0,0,0.05,19,0)" xlink:href="#D"/><use transform="matrix(0.05,0,0,0.05,29,0)" xlink:href="#K"/><use transform="matrix(0.05,0,0,0.05,38,0)" xlink:href="#U"/><use transform="matrix(0.05,0,0,0.05,47,0)" xlink:href="#C"/><use transform="matrix(0.05,0,0,0.05,59.95,0)" xlink:href="#D"/><use transform="matrix(0.05,0,0,0.05,69.95,0)" xlink:href="#ae"/><use transform="matrix(0.05,0,0,0.05,79.95,0)" xlink:href="#aa"/><use transform="matrix(0.05,0,0,0.05,89.95,0)" xlink:href="#F"/><use transform="matrix(0.05,0,0,0.05,93.9,0)" xlink:href="#P"/><use transform="matrix(0.05,0,0,0.05,99.85000000000001,0)" xlink:href="#D"/><use transform="matrix(0.05,0,0,0.05,109.85000000000001,0)" xlink:href="#ac"/><use transform="matrix(0.05,0,0,0.05,124.80000000000001,0)" xlink:href="#D"/><use transform="matrix(0.05,0,0,0.05,134.8,0)" xlink:href="#N"/><use transform="matrix(0.05,0,0,0.05,144.8,0)" xlink:href="#L"/><use transform="matrix(0.05,0,0,0.05,149.8,0)" xlink:href="#V"/><use transform="matrix(0.05,0,0,0.05,158.8,0)" xlink:href="#Y"/><use transform="matrix(0.05,0,0,0.05,164.75,0)" xlink:href="#I"/><use transform="matrix(0.05,0,0,0.05,174.75,0)" xlink:href="#F"/><use transform="matrix(0.05,0,0,0.05,178.7,0)" xlink:href="#L"/><use transform="matrix(0.05,0,0,0.05,183.7,0)" xlink:href="#K"/><use transform="matrix(0.05,0,0,0.05,192.7,0)" xlink:href="#ad"/><use transform="matrix(0.05,0,0,0.05,202.7,0)" xlink:href="#af"/><use transform="matrix(0.05,0,0,0.05,207.69999999999996,0)" xlink:href="#F"/><use transform="matrix(0.05,0,0,0.05,211.64999999999998,0)" xlink:href="#V"/><use transform="matrix(0.05,0,0,0.05,220.64999999999998,0)" xlink:href="#ag"/><use transform="matrix(0.05,0,0,0.05,233.59999999999997,0)" xlink:href="#ad"/><use transform="matrix(0.05,0,0,0.05,243.59999999999997,0)" xlink:href="#D"/><use transform="matrix(0.05,0,0,0.05,253.59999999999997,0)" xlink:href="#K"/><use transform="matrix(0.05,0,0,0.05,262.59999999999997,0)" xlink:href="#U"/><use transform="matrix(0.05,0,0,0.05,271.59999999999997,0)" xlink:href="#D"/><use transform="matrix(0.05,0,0,0.05,281.59999999999997,0)" xlink:href="#W"/><use transform="matrix(0.05,0,0,0.05,291.59999999999997,0)" xlink:href="#Z"/></g><g id="k"><use transform="matrix(0.05,0,0,0.05,0,0)" xlink:href="#R"/><use transform="matrix(0.05,0,0,0.05,12,0)" xlink:href="#J"/><use transform="matrix(0.05,0,0,0.05,15.949999999999998,0)" xlink:href="#L"/><use transform="matrix(0.05,0,0,0.05,20.95,0)" xlink:href="#D"/><use transform="matrix(0.05,0,0,0.05,30.950000000000003,0)" xlink:href="#P"/><use transform="matrix(0.05,0,0,0.05,36.9,0)" xlink:href="#N"/><use transform="matrix(0.05,0,0,0.05,46.9,0)" xlink:href="#H"/><use transform="matrix(0.05,0,0,0.05,56.900000000000006,0)" xlink:href="#L"/><use transform="matrix(0.05,0,0,0.05,61.900000000000006,0)" xlink:href="#F"/><use transform="matrix(0.05,0,0,0.05,65.85,0)" xlink:href="#E"/><use transform="matrix(0.05,0,0,0.05,74.85,0)" xlink:href="#D"/></g><path d="M26 75v-336h71v23H56V52h41v23H26" id="ah"/><path d="M101-234c-31-9-42 10-38 44h38v23H63V0H32v-167H5v-23h27c-7-52 17-82 69-68v24" id="ai"/><g id="l"><use transform="matrix(0.05,0,0,0.05,0,0)" xlink:href="#ah"/><use transform="matrix(0.05,0,0,0.05,5,0)" xlink:href="#F"/><use transform="matrix(0.05,0,0,0.05,8.95,0)" xlink:href="#ai"/></g><g id="m"><use transform="matrix(0.05,0,0,0.05,0,0)" xlink:href="#P"/><use transform="matrix(0.05,0,0,0.05,5.95,0)" xlink:href="#D"/><use transform="matrix(0.05,0,0,0.05,15.949999999999998,0)" xlink:href="#ae"/><use transform="matrix(0.05,0,0,0.05,25.950000000000003,0)" xlink:href="#aa"/><use transform="matrix(0.05,0,0,0.05,35.95,0)" xlink:href="#F"/><use transform="matrix(0.05,0,0,0.05,39.900000000000006,0)" xlink:href="#P"/><use transform="matrix(0.05,0,0,0.05,45.85000000000001,0)" xlink:href="#D"/><use transform="matrix(0.05,0,0,0.05,55.85,0)" xlink:href="#ac"/><use transform="matrix(0.05,0,0,0.05,70.80000000000001,0)" xlink:href="#D"/><use transform="matrix(0.05,0,0,0.05,80.80000000000001,0)" xlink:href="#N"/><use transform="matrix(0.05,0,0,0.05,90.80000000000001,0)" xlink:href="#L"/><use transform="matrix(0.05,0,0,0.05,95.80000000000001,0)" xlink:href="#V"/></g><path d="M3 75V52h41v-290H3v-23h71V75H3" id="aj"/><g id="n"><use transform="matrix(0.05,0,0,0.05,0,0)" xlink:href="#ac"/><use transform="matrix(0.05,0,0,0.05,14.950000000000001,0)" xlink:href="#D"/><use transform="matrix(0.05,0,0,0.05,24.950000000000003,0)" xlink:href="#L"/><use transform="matrix(0.05,0,0,0.05,29.950000000000003,0)" xlink:href="#aj"/></g><path d="M30 0v-248h187v28H63v79h144v27H63v87h162V0H30" id="ak"/><g id="o"><use transform="matrix(0.05,0,0,0.05,0,0)" xlink:href="#ah"/><use transform="matrix(0.05,0,0,0.05,5,0)" xlink:href="#ak"/><use transform="matrix(0.05,0,0,0.05,17,0)" xlink:href="#J"/><use transform="matrix(0.05,0,0,0.05,20.95,0)" xlink:href="#V"/><use transform="matrix(0.05,0,0,0.05,29.950000000000003,0)" xlink:href="#D"/><use transform="matrix(0.05,0,0,0.05,39.95,0)" xlink:href="#aj"/></g><g id="p"><use transform="matrix(0.05,0,0,0.05,0,0)" xlink:href="#P"/><use transform="matrix(0.05,0,0,0.05,5.95,0)" xlink:href="#D"/><use transform="matrix(0.05,0,0,0.05,15.949999999999998,0)" xlink:href="#E"/><use transform="matrix(0.05,0,0,0.05,24.95,0)" xlink:href="#F"/><use transform="matrix(0.05,0,0,0.05,28.899999999999995,0)" xlink:href="#D"/><use transform="matrix(0.05,0,0,0.05,38.9,0)" xlink:href="#G"/><use transform="matrix(0.05,0,0,0.05,51.85,0)" xlink:href="#D"/><use transform="matrix(0.05,0,0,0.05,61.85,0)" xlink:href="#P"/><use transform="matrix(0.05,0,0,0.05,67.8,0)" xlink:href="#Q"/><use transform="matrix(0.05,0,0,0.05,72.8,0)" xlink:href="#C"/><use transform="matrix(0.05,0,0,0.05,85.75,0)" xlink:href="#D"/><use transform="matrix(0.05,0,0,0.05,95.75,0)" xlink:href="#E"/><use transform="matrix(0.05,0,0,0.05,104.75,0)" xlink:href="#F"/><use transform="matrix(0.05,0,0,0.05,108.7,0)" xlink:href="#D"/><use transform="matrix(0.05,0,0,0.05,118.7,0)" xlink:href="#G"/><use transform="matrix(0.05,0,0,0.05,131.65,0)" xlink:href="#D"/><use transform="matrix(0.05,0,0,0.05,141.65,0)" xlink:href="#P"/><path d="M-.9 1.25h149.4v1.32H-.9z"/></g><g id="q"><use transform="matrix(0.05,0,0,0.05,0,0)" xlink:href="#P"/><use transform="matrix(0.05,0,0,0.05,5.95,0)" xlink:href="#D"/><use transform="matrix(0.05,0,0,0.05,15.949999999999998,0)" xlink:href="#E"/><use transform="matrix(0.05,0,0,0.05,24.95,0)" xlink:href="#F"/><use transform="matrix(0.05,0,0,0.05,28.899999999999995,0)" xlink:href="#D"/><use transform="matrix(0.05,0,0,0.05,38.9,0)" xlink:href="#G"/><use transform="matrix(0.05,0,0,0.05,51.85,0)" xlink:href="#D"/><use transform="matrix(0.05,0,0,0.05,61.85,0)" xlink:href="#P"/><use transform="matrix(0.05,0,0,0.05,67.8,0)" xlink:href="#Y"/><use transform="matrix(0.05,0,0,0.05,73.75,0)" xlink:href="#I"/><use transform="matrix(0.05,0,0,0.05,83.75,0)" xlink:href="#F"/><use transform="matrix(0.05,0,0,0.05,87.7,0)" xlink:href="#L"/><use transform="matrix(0.05,0,0,0.05,92.7,0)" xlink:href="#K"/><use transform="matrix(0.05,0,0,0.05,101.7,0)" xlink:href="#ad"/><use transform="matrix(0.05,0,0,0.05,111.7,0)" xlink:href="#af"/><use transform="matrix(0.05,0,0,0.05,116.7,0)" xlink:href="#H"/><use transform="matrix(0.05,0,0,0.05,126.7,0)" xlink:href="#I"/><use transform="matrix(0.05,0,0,0.05,136.7,0)" xlink:href="#I"/><use transform="matrix(0.05,0,0,0.05,146.7,0)" xlink:href="#P"/><use transform="matrix(0.05,0,0,0.05,152.64999999999998,0)" xlink:href="#M"/><use transform="matrix(0.05,0,0,0.05,162.64999999999998,0)" xlink:href="#E"/><use transform="matrix(0.05,0,0,0.05,171.64999999999998,0)" xlink:href="#D"/><use transform="matrix(0.05,0,0,0.05,181.64999999999998,0)" xlink:href="#W"/><use transform="matrix(0.05,0,0,0.05,191.64999999999998,0)" xlink:href="#Z"/></g><path d="M24-231v-30h32v30H24zM-9 49c24 4 33-6 33-30v-209h32V24c2 40-23 58-65 49V49" id="al"/><g id="r"><use transform="matrix(0.05,0,0,0.05,0,0)" xlink:href="#P"/><use transform="matrix(0.05,0,0,0.05,5.95,0)" xlink:href="#D"/><use transform="matrix(0.05,0,0,0.05,15.949999999999998,0)" xlink:href="#V"/><use transform="matrix(0.05,0,0,0.05,24.95,0)" xlink:href="#I"/><use transform="matrix(0.05,0,0,0.05,34.95,0)" xlink:href="#M"/><use transform="matrix(0.05,0,0,0.05,44.95,0)" xlink:href="#N"/><use transform="matrix(0.05,0,0,0.05,54.95,0)" xlink:href="#V"/><use transform="matrix(0.05,0,0,0.05,63.95,0)" xlink:href="#D"/><use transform="matrix(0.05,0,0,0.05,73.95,0)" xlink:href="#Y"/><use transform="matrix(0.05,0,0,0.05,79.9,0)" xlink:href="#P"/><use transform="matrix(0.05,0,0,0.05,85.85000000000001,0)" xlink:href="#D"/><use transform="matrix(0.05,0,0,0.05,95.85000000000001,0)" xlink:href="#al"/><use transform="matrix(0.05,0,0,0.05,99.80000000000001,0)" xlink:href="#D"/><use transform="matrix(0.05,0,0,0.05,109.80000000000001,0)" xlink:href="#K"/><use transform="matrix(0.05,0,0,0.05,118.80000000000001,0)" xlink:href="#L"/><use transform="matrix(0.05,0,0,0.05,123.80000000000001,0)" xlink:href="#D"/><use transform="matrix(0.05,0,0,0.05,133.8,0)" xlink:href="#W"/><use transform="matrix(0.05,0,0,0.05,143.8,0)" xlink:href="#Z"/></g><g id="s"><use transform="matrix(0.05,0,0,0.05,0,0)" xlink:href="#H"/><use transform="matrix(0.05,0,0,0.05,10,0)" xlink:href="#I"/><use transform="matrix(0.05,0,0,0.05,20,0)" xlink:href="#I"/><use transform="matrix(0.05,0,0,0.05,30,0)" xlink:href="#J"/><use transform="matrix(0.05,0,0,0.05,33.95,0)" xlink:href="#F"/><use transform="matrix(0.05,0,0,0.05,37.900000000000006,0)" xlink:href="#K"/><use transform="matrix(0.05,0,0,0.05,46.900000000000006,0)" xlink:href="#H"/><use transform="matrix(0.05,0,0,0.05,56.900000000000006,0)" xlink:href="#L"/><use transform="matrix(0.05,0,0,0.05,61.900000000000006,0)" xlink:href="#F"/><use transform="matrix(0.05,0,0,0.05,65.85000000000001,0)" xlink:href="#M"/><use transform="matrix(0.05,0,0,0.05,75.85000000000001,0)" xlink:href="#N"/></g><g id="t"><use transform="matrix(0.05,0,0,0.05,0,0)" xlink:href="#I"/><use transform="matrix(0.05,0,0,0.05,10,0)" xlink:href="#H"/><use transform="matrix(0.05,0,0,0.05,20,0)" xlink:href="#V"/><use transform="matrix(0.05,0,0,0.05,29,0)" xlink:href="#V"/><use transform="matrix(0.05,0,0,0.05,38,0)" xlink:href="#D"/><use transform="matrix(0.05,0,0,0.05,48,0)" xlink:href="#W"/></g><g id="u"><use transform="matrix(0.05,0,0,0.05,0,0)" xlink:href="#ai"/><use transform="matrix(0.05,0,0,0.05,5,0)" xlink:href="#F"/><use transform="matrix(0.05,0,0,0.05,8.95,0)" xlink:href="#P"/><use transform="matrix(0.05,0,0,0.05,14.899999999999999,0)" xlink:href="#V"/><use transform="matrix(0.05,0,0,0.05,23.9,0)" xlink:href="#L"/></g><g id="v"><use transform="matrix(0.05,0,0,0.05,0,0)" xlink:href="#I"/><use transform="matrix(0.05,0,0,0.05,10,0)" xlink:href="#ad"/><use transform="matrix(0.05,0,0,0.05,20,0)" xlink:href="#H"/><use transform="matrix(0.05,0,0,0.05,30,0)" xlink:href="#V"/><use transform="matrix(0.05,0,0,0.05,39,0)" xlink:href="#D"/></g><g id="w"><use transform="matrix(0.05,0,0,0.05,0,0)" xlink:href="#G"/><use transform="matrix(0.05,0,0,0.05,12.950000000000001,0)" xlink:href="#H"/><use transform="matrix(0.05,0,0,0.05,22.950000000000003,0)" xlink:href="#V"/></g><g id="x"><use transform="matrix(0.05,0,0,0.05,0,0)" xlink:href="#P"/><use transform="matrix(0.05,0,0,0.05,5.95,0)" xlink:href="#D"/><use transform="matrix(0.05,0,0,0.05,15.949999999999998,0)" xlink:href="#al"/><use transform="matrix(0.05,0,0,0.05,19.9,0)" xlink:href="#D"/><use transform="matrix(0.05,0,0,0.05,29.899999999999995,0)" xlink:href="#K"/><use transform="matrix(0.05,0,0,0.05,38.9,0)" xlink:href="#L"/><use transform="matrix(0.05,0,0,0.05,43.9,0)" xlink:href="#D"/><use transform="matrix(0.05,0,0,0.05,53.900000000000006,0)" xlink:href="#W"/></g><path d="M30-248c87 1 191-15 191 75 0 78-77 80-158 76V0H30v-248zm33 125c57 0 124 11 124-50 0-59-68-47-124-48v98" id="am"/><g id="y"><use transform="matrix(0.05,0,0,0.05,0,0)" xlink:href="#am"/><use transform="matrix(0.05,0,0,0.05,12,0)" xlink:href="#H"/><use transform="matrix(0.05,0,0,0.05,22,0)" xlink:href="#V"/><use transform="matrix(0.05,0,0,0.05,31,0)" xlink:href="#V"/><use transform="matrix(0.05,0,0,0.05,40,0)" xlink:href="#D"/><use transform="matrix(0.05,0,0,0.05,50,0)" xlink:href="#W"/></g><g id="z"><use transform="matrix(0.05,0,0,0.05,0,0)" xlink:href="#R"/><use transform="matrix(0.05,0,0,0.05,12,0)" xlink:href="#I"/><use transform="matrix(0.05,0,0,0.05,22,0)" xlink:href="#I"/><use transform="matrix(0.05,0,0,0.05,32,0)" xlink:href="#J"/><use transform="matrix(0.05,0,0,0.05,35.95,0)" xlink:href="#F"/><use transform="matrix(0.05,0,0,0.05,39.900000000000006,0)" xlink:href="#K"/><use transform="matrix(0.05,0,0,0.05,48.900000000000006,0)" xlink:href="#H"/><use transform="matrix(0.05,0,0,0.05,58.900000000000006,0)" xlink:href="#L"/><use transform="matrix(0.05,0,0,0.05,63.900000000000006,0)" xlink:href="#F"/><use transform="matrix(0.05,0,0,0.05,67.85000000000001,0)" xlink:href="#M"/><use transform="matrix(0.05,0,0,0.05,77.85000000000001,0)" xlink:href="#N"/></g></defs></g></svg>