<svg xmlns="http://www.w3.org/2000/svg" xmlns:xlink="http://www.w3.org/1999/xlink" xmlns:lucid="lucid" width="1280" height="1060"><g transform="translate(0 -40)" lucid:page-tab-id="VFGZ~X5.8PPW"><path d="M20 60h180v20l-10 10H20z" fill="#fff"/><path d="M200 60v20l-10 10H20" stroke="#000" stroke-width="2" fill="none"/><path d="M20 60h1240v1020H20z" stroke="#000" stroke-width="2" fill="none"/><use xlink:href="#a" transform="matrix(1,0,0,1,28,60) translate(0 18.6)"/><use xlink:href="#b" transform="matrix(1,0,0,1,28,60) translate(30.950000000000003 18.6)"/><use xlink:href="#c" transform="matrix(1,0,0,1,28,60) translate(100.85000000000001 18.6)"/><path d="M179.75 159.75c0 10.9-8.84 19.75-19.75 19.75-10.9 0-19.75-8.84-19.75-19.75 0-10.9 8.84-19.75 19.75-19.75 10.9 0 19.75 8.84 19.75 19.75z" stroke="#000" stroke-width="2" fill="#fff"/><path d="M160 179.5v55.3l40 63.2m-40-63.2L120 298m0-98.75h80" stroke="#000" stroke-width="2" fill="none"/><path d="M120 140h80v180h-80z" fill="none"/><use xlink:href="#d" transform="matrix(1,0,0,1,40,298) translate(82.525 14.6)"/><path d="M140 380h40v660h-40z" stroke="#000" stroke-width="2" fill="#fff"/><path d="M159 219.86v10.55m0 10.55v21.08m0 10.55v21.08m0 10.54v21.1m0 10.53v21.08m0 10.56V378M159 377.97V379" stroke="#000" stroke-width="2" fill="none"/><path d="M400 170h160v120H400z" stroke="#000" stroke-width="2" fill="#fff"/><use xlink:href="#e" transform="matrix(1,0,0,1,400,170) translate(43.55499999999999 63.15)"/><path d="M460 360h40v680h-40z" stroke="#000" stroke-width="2" fill="#fff"/><path d="M480 292v11m0 11v22m0 11v11" stroke="#000" stroke-width="2" fill="none"/><path d="M481 292.03h-2V291h2z"/><path d="M480 357.97V359M182 453.8h258.5" stroke="#000" stroke-width="2" fill="none"/><path d="M182.03 454.8H181v-2h1.03z"/><path d="M455.76 453.8l-14.26 4.64v-9.27z" stroke="#000" stroke-width="2"/><use xlink:href="#f" transform="matrix(1,0,0,1,235.7,428.2054968287526) translate(0 14.4)"/><use xlink:href="#g" transform="matrix(1,0,0,1,235.7,428.2054968287526) translate(39.9 14.4)"/><path d="M714.2 170h160v120h-160z" stroke="#000" stroke-width="2" fill="#fff"/><use xlink:href="#h" transform="matrix(1,0,0,1,714.1999999999534,170) translate(18.57999999999999 63.15)"/><path d="M774.2 360h40v200h-40z" stroke="#000" stroke-width="2" fill="#fff"/><path d="M794.2 292v11m0 11v22m0 11v11" stroke="#000" stroke-width="2" fill="none"/><path d="M795.2 292.03h-2V291h2z"/><path d="M794.2 357.97V359M502 492h252.7" stroke="#000" stroke-width="2" fill="none"/><path d="M502.03 493H501v-2h1.03z"/><path d="M769.96 492l-14.26 4.64v-9.28z" stroke="#000" stroke-width="2"/><use xlink:href="#i" transform="matrix(1,0,0,1,564.2499999999767,466.4) translate(0 14.4)"/><path d="M1020 601.6h160v120h-160z" stroke="#000" stroke-width="2" fill="#fff"/><use xlink:href="#j" transform="matrix(1,0,0,1,1020,601.5999999999767) translate(45.029999999999994 63.15)"/><path d="M774.2 800h40v120h-40z" stroke="#000" stroke-width="2" fill="#fff"/><path d="M794.2 562v9.83m0 9.84v19.66m0 9.84v19.66m0 9.84v19.66m0 9.84v19.66m0 9.84v19.66m0 9.84v19.66m0 9.84v19.66m0 9.84V798" stroke="#000" stroke-width="2" fill="none"/><path d="M795.2 562.03h-2V561h2zM795.2 799h-2v-1.03h2z"/><path d="M1100 723.6v8.38m0 8.38v16.75m0 8.4v16.74m0 8.38V799" stroke="#000" stroke-width="2" fill="none"/><path d="M1101 723.63h-2v-1.03h2z"/><path d="M1100 798.97V800" stroke="#000" stroke-width="2" fill="none"/><path d="M1080 800h40v160h-40z" stroke="#000" stroke-width="2" fill="#fff"/><path d="M816.2 860h244.3" stroke="#000" stroke-width="2" fill="none"/><path d="M816.23 861h-1.03v-2h1.03z"/><path d="M1075.76 860l-14.26 4.64v-9.28z" stroke="#000" stroke-width="2"/><use xlink:href="#k" transform="matrix(1,0,0,1,861.6999999999767,834.4000000000001) translate(0 14.4)"/><path d="M1078 945.33h-9.8m-9.8 0h-19.6m-9.8 0h-19.6m-9.8 0h-19.58m-9.8 0h-19.6m-9.8 0h-19.6m-9.8 0h-19.6m-9.78 0h-19.6m-9.8 0h-19.6m-9.8 0h-19.6m-9.8 0h-19.58m-9.8 0h-19.6m-9.8 0h-19.6m-9.8 0h-19.6m-9.8 0H656.7m-9.8 0h-19.6m-9.8 0h-19.6m-9.8 0h-19.6m-9.78 0h-19.6m-9.8 0h-9.8" stroke="#000" stroke-width="2" fill="none"/><path d="M1079 946.33h-1.03v-2h1.03z"/><path d="M504.24 945.33l14.26-4.63v9.27z" stroke="#000" stroke-width="2"/><use xlink:href="#l" transform="matrix(1,0,0,1,863.9833333333333,949.3333333333335) translate(0 14.4)"/><use xlink:href="#m" transform="matrix(1,0,0,1,863.9833333333333,949.3333333333335) translate(70.85000000000001 14.4)"/><path d="M458 978.2h-9.57m-9.58 0H419.7m-9.57 0h-19.15m-9.57 0h-19.14m-9.57 0h-19.16m-9.58 0h-19.14m-9.58 0H276.1m-9.58 0h-19.15m-9.57 0h-19.15m-9.57 0h-9.58" stroke="#000" stroke-width="2" fill="none"/><path d="M459 979.2h-1.03v-2H459z"/><path d="M184.24 978.2l14.26-4.63v9.27z" stroke="#000" stroke-width="2"/><use xlink:href="#n" transform="matrix(1,0,0,1,223.075,982.2029598308669) translate(0 14.4)"/><use xlink:href="#o" transform="matrix(1,0,0,1,223.075,982.2029598308669) translate(60.900000000000006 14.4)"/><use xlink:href="#p" transform="matrix(1,0,0,1,223.075,982.2029598308669) translate(120.9 14.4)"/><path d="M560 580h115v20l-10 10H560z" fill="#fff"/><path d="M675 580v20l-10 10H560" stroke="#000" stroke-width="2" fill="none"/><path d="M560 580h640v420H560z" stroke="#000" stroke-width="2" fill="none"/><g><use xlink:href="#q" transform="matrix(1,0,0,1,568,580) translate(0 18.6)"/></g><g><use xlink:href="#r" transform="matrix(1,0,0,1,572,618) translate(0 18.6)"/><use xlink:href="#s" transform="matrix(1,0,0,1,572,618) translate(18.95 18.6)"/><use xlink:href="#t" transform="matrix(1,0,0,1,572,618) translate(89.85000000000001 18.6)"/></g><defs><path d="M137-138c1-29-70-34-71-4 15 46 118 7 119 86 1 83-164 76-172 9l43-7c4 19 20 25 44 25 33 8 57-30 24-41C81-84 22-81 20-136c-2-80 154-74 161-7" id="u"/><path d="M88-194c31-1 46 15 58 34l-1-101h50l1 261h-48c-2-10 0-23-3-31C134-8 116 4 84 4 32 4 16-41 15-95c0-56 19-97 73-99zm17 164c33 0 40-30 41-66 1-37-9-64-41-64s-38 30-39 65c0 43 13 65 39 65" id="v"/><g id="a"><use transform="matrix(0.05,0,0,0.05,0,0)" xlink:href="#u"/><use transform="matrix(0.05,0,0,0.05,10,0)" xlink:href="#v"/><path d="M-.9.97h22.75v1.9H-.9z"/></g><path d="M233-177c-1 41-23 64-60 70L243 0h-38l-65-103H63V0H30v-248c88 3 205-21 203 71zM63-129c60-2 137 13 137-47 0-61-80-42-137-45v92" id="w"/><path d="M100-194c63 0 86 42 84 106H49c0 40 14 67 53 68 26 1 43-12 49-29l28 8c-11 28-37 45-77 45C44 4 14-33 15-96c1-61 26-98 85-98zm52 81c6-60-76-77-97-28-3 7-6 17-6 28h103" id="x"/><path d="M96-169c-40 0-48 33-48 73s9 75 48 75c24 0 41-14 43-38l32 2c-6 37-31 61-74 61-59 0-76-41-82-99-10-93 101-131 147-64 4 7 5 14 7 22l-32 3c-4-21-16-35-41-35" id="y"/><path d="M24-231v-30h32v30H24zM24 0v-190h32V0H24" id="z"/><path d="M108 0H70L1-190h34L89-25l56-165h34" id="A"/><g id="b"><use transform="matrix(0.05,0,0,0.05,0,0)" xlink:href="#w"/><use transform="matrix(0.05,0,0,0.05,12.950000000000001,0)" xlink:href="#x"/><use transform="matrix(0.05,0,0,0.05,22.950000000000003,0)" xlink:href="#y"/><use transform="matrix(0.05,0,0,0.05,31.950000000000003,0)" xlink:href="#x"/><use transform="matrix(0.05,0,0,0.05,41.95,0)" xlink:href="#z"/><use transform="matrix(0.05,0,0,0.05,45.900000000000006,0)" xlink:href="#A"/><use transform="matrix(0.05,0,0,0.05,54.900000000000006,0)" xlink:href="#x"/></g><path d="M101-234c-31-9-42 10-38 44h38v23H63V0H32v-167H5v-23h27c-7-52 17-82 69-68v24" id="B"/><path d="M84 4C-5 8 30-112 23-190h32v120c0 31 7 50 39 49 72-2 45-101 50-169h31l1 190h-30c-1-10 1-25-2-33-11 22-28 36-60 37" id="C"/><path d="M117-194c89-4 53 116 60 194h-32v-121c0-31-8-49-39-48C34-167 62-67 57 0H25l-1-190h30c1 10-1 24 2 32 11-22 29-35 61-36" id="D"/><path d="M85-194c31 0 48 13 60 33l-1-100h32l1 261h-30c-2-10 0-23-3-31C134-8 116 4 85 4 32 4 16-35 15-94c0-66 23-100 70-100zm9 24c-40 0-46 34-46 75 0 40 6 74 45 74 42 0 51-32 51-76 0-42-9-74-50-73" id="E"/><path d="M135-143c-3-34-86-38-87 0 15 53 115 12 119 90S17 21 10-45l28-5c4 36 97 45 98 0-10-56-113-15-118-90-4-57 82-63 122-42 12 7 21 19 24 35" id="F"/><g id="c"><use transform="matrix(0.05,0,0,0.05,0,0)" xlink:href="#B"/><use transform="matrix(0.05,0,0,0.05,5,0)" xlink:href="#C"/><use transform="matrix(0.05,0,0,0.05,15,0)" xlink:href="#D"/><use transform="matrix(0.05,0,0,0.05,25,0)" xlink:href="#E"/><use transform="matrix(0.05,0,0,0.05,35,0)" xlink:href="#F"/></g><path d="M33 0v-248h34V0H33" id="G"/><path d="M100-194c62-1 85 37 85 99 1 63-27 99-86 99S16-35 15-95c0-66 28-99 85-99zM99-20c44 1 53-31 53-75 0-43-8-75-51-75s-53 32-53 75 10 74 51 75" id="H"/><path d="M141-36C126-15 110 5 73 4 37 3 15-17 15-53c-1-64 63-63 125-63 3-35-9-54-41-54-24 1-41 7-42 31l-33-3c5-37 33-52 76-52 45 0 72 20 72 64v82c-1 20 7 32 28 27v20c-31 9-61-2-59-35zM48-53c0 20 12 33 32 33 41-3 63-29 60-74-43 2-92-5-92 41" id="I"/><path d="M59-47c-2 24 18 29 38 22v24C64 9 27 4 27-40v-127H5v-23h24l9-43h21v43h35v23H59v120" id="J"/><path d="M114-163C36-179 61-72 57 0H25l-1-190h30c1 12-1 29 2 39 6-27 23-49 58-41v29" id="K"/><g id="d"><use transform="matrix(0.05,0,0,0.05,0,0)" xlink:href="#G"/><use transform="matrix(0.05,0,0,0.05,5,0)" xlink:href="#D"/><use transform="matrix(0.05,0,0,0.05,15,0)" xlink:href="#D"/><use transform="matrix(0.05,0,0,0.05,25,0)" xlink:href="#H"/><use transform="matrix(0.05,0,0,0.05,35,0)" xlink:href="#A"/><use transform="matrix(0.05,0,0,0.05,44,0)" xlink:href="#I"/><use transform="matrix(0.05,0,0,0.05,54,0)" xlink:href="#J"/><use transform="matrix(0.05,0,0,0.05,59,0)" xlink:href="#H"/><use transform="matrix(0.05,0,0,0.05,69,0)" xlink:href="#K"/></g><path d="M33-154v-36h34v36H33zM33 0v-36h34V0H33" id="L"/><path d="M63-220v92h138v28H63V0H30v-248h175v28H63" id="M"/><path d="M232-93c-1 65-40 97-104 97C67 4 28-28 28-90v-158h33c8 89-33 224 67 224 102 0 64-133 71-224h33v155" id="N"/><g id="e"><use transform="matrix(0.05,0,0,0.05,0,0)" xlink:href="#L"/><use transform="matrix(0.05,0,0,0.05,5,0)" xlink:href="#M"/><use transform="matrix(0.05,0,0,0.05,15.950000000000001,0)" xlink:href="#C"/><use transform="matrix(0.05,0,0,0.05,25.950000000000003,0)" xlink:href="#D"/><use transform="matrix(0.05,0,0,0.05,35.95,0)" xlink:href="#E"/><use transform="matrix(0.05,0,0,0.05,45.95,0)" xlink:href="#F"/><use transform="matrix(0.05,0,0,0.05,54.95,0)" xlink:href="#N"/><use transform="matrix(0.05,0,0,0.05,67.9,0)" xlink:href="#G"/><path d="M-.9 1.25h74.7v1.32H-.9z"/></g><path d="M24 0v-261h32V0H24" id="O"/><path d="M143 0L79-87 56-68V0H24v-261h32v163l83-92h37l-77 82L181 0h-38" id="P"/><g id="f"><use transform="matrix(0.05,0,0,0.05,0,0)" xlink:href="#y"/><use transform="matrix(0.05,0,0,0.05,9,0)" xlink:href="#O"/><use transform="matrix(0.05,0,0,0.05,12.949999999999998,0)" xlink:href="#z"/><use transform="matrix(0.05,0,0,0.05,16.9,0)" xlink:href="#y"/><use transform="matrix(0.05,0,0,0.05,25.899999999999995,0)" xlink:href="#P"/></g><path d="M115-194c53 0 69 39 70 98 0 66-23 100-70 100C84 3 66-7 56-30L54 0H23l1-261h32v101c10-23 28-34 59-34zm-8 174c40 0 45-34 45-75 0-40-5-75-45-74-42 0-51 32-51 76 0 43 10 73 51 73" id="Q"/><path d="M87 75C49 33 22-17 22-94c0-76 28-126 65-167h31c-38 41-64 92-64 168S80 34 118 75H87" id="R"/><path d="M33-261c38 41 65 92 65 168S71 34 33 75H2C39 34 66-17 66-93S39-220 2-261h31" id="S"/><g id="g"><use transform="matrix(0.05,0,0,0.05,0,0)" xlink:href="#E"/><use transform="matrix(0.05,0,0,0.05,10,0)" xlink:href="#x"/><use transform="matrix(0.05,0,0,0.05,20,0)" xlink:href="#y"/><use transform="matrix(0.05,0,0,0.05,29,0)" xlink:href="#z"/><use transform="matrix(0.05,0,0,0.05,32.95,0)" xlink:href="#F"/><use transform="matrix(0.05,0,0,0.05,41.95,0)" xlink:href="#z"/><use transform="matrix(0.05,0,0,0.05,45.900000000000006,0)" xlink:href="#H"/><use transform="matrix(0.05,0,0,0.05,55.900000000000006,0)" xlink:href="#D"/><use transform="matrix(0.05,0,0,0.05,65.9,0)" xlink:href="#y"/><use transform="matrix(0.05,0,0,0.05,74.9,0)" xlink:href="#O"/><use transform="matrix(0.05,0,0,0.05,78.85000000000001,0)" xlink:href="#z"/><use transform="matrix(0.05,0,0,0.05,82.80000000000001,0)" xlink:href="#P"/><use transform="matrix(0.05,0,0,0.05,91.80000000000001,0)" xlink:href="#Q"/><use transform="matrix(0.05,0,0,0.05,101.80000000000001,0)" xlink:href="#J"/><use transform="matrix(0.05,0,0,0.05,106.80000000000001,0)" xlink:href="#D"/><use transform="matrix(0.05,0,0,0.05,116.80000000000001,0)" xlink:href="#R"/><use transform="matrix(0.05,0,0,0.05,122.75,0)" xlink:href="#S"/></g><path d="M115-194c55 1 70 41 70 98S169 2 115 4C84 4 66-9 55-30l1 105H24l-1-265h31l2 30c10-21 28-34 59-34zm-8 174c40 0 45-34 45-75s-6-73-45-74c-42 0-51 32-51 76 0 43 10 73 51 73" id="T"/><path d="M205 0l-28-72H64L36 0H1l101-248h38L239 0h-34zm-38-99l-47-123c-12 45-31 82-46 123h93" id="U"/><g id="h"><use transform="matrix(0.05,0,0,0.05,0,0)" xlink:href="#I"/><use transform="matrix(0.05,0,0,0.05,10,0)" xlink:href="#T"/><use transform="matrix(0.05,0,0,0.05,20,0)" xlink:href="#T"/><use transform="matrix(0.05,0,0,0.05,30,0)" xlink:href="#L"/><use transform="matrix(0.05,0,0,0.05,35,0)" xlink:href="#U"/><use transform="matrix(0.05,0,0,0.05,47,0)" xlink:href="#T"/><use transform="matrix(0.05,0,0,0.05,57,0)" xlink:href="#T"/><use transform="matrix(0.05,0,0,0.05,67,0)" xlink:href="#O"/><use transform="matrix(0.05,0,0,0.05,70.95,0)" xlink:href="#z"/><use transform="matrix(0.05,0,0,0.05,74.9,0)" xlink:href="#y"/><use transform="matrix(0.05,0,0,0.05,83.9,0)" xlink:href="#I"/><use transform="matrix(0.05,0,0,0.05,93.9,0)" xlink:href="#J"/><use transform="matrix(0.05,0,0,0.05,98.9,0)" xlink:href="#z"/><use transform="matrix(0.05,0,0,0.05,102.85000000000001,0)" xlink:href="#H"/><use transform="matrix(0.05,0,0,0.05,112.85000000000001,0)" xlink:href="#D"/><path d="M-.9 1.25h124.65v1.32H-.9z"/></g><g id="i"><use transform="matrix(0.05,0,0,0.05,0,0)" xlink:href="#K"/><use transform="matrix(0.05,0,0,0.05,5.95,0)" xlink:href="#x"/><use transform="matrix(0.05,0,0,0.05,15.949999999999998,0)" xlink:href="#y"/><use transform="matrix(0.05,0,0,0.05,24.95,0)" xlink:href="#x"/><use transform="matrix(0.05,0,0,0.05,34.95,0)" xlink:href="#z"/><use transform="matrix(0.05,0,0,0.05,38.900000000000006,0)" xlink:href="#A"/><use transform="matrix(0.05,0,0,0.05,47.900000000000006,0)" xlink:href="#x"/><use transform="matrix(0.05,0,0,0.05,57.900000000000006,0)" xlink:href="#E"/><use transform="matrix(0.05,0,0,0.05,67.9,0)" xlink:href="#R"/><use transform="matrix(0.05,0,0,0.05,73.85000000000001,0)" xlink:href="#E"/><use transform="matrix(0.05,0,0,0.05,83.85000000000001,0)" xlink:href="#x"/><use transform="matrix(0.05,0,0,0.05,93.85000000000001,0)" xlink:href="#y"/><use transform="matrix(0.05,0,0,0.05,102.85000000000001,0)" xlink:href="#z"/><use transform="matrix(0.05,0,0,0.05,106.80000000000001,0)" xlink:href="#F"/><use transform="matrix(0.05,0,0,0.05,115.80000000000001,0)" xlink:href="#z"/><use transform="matrix(0.05,0,0,0.05,119.75,0)" xlink:href="#H"/><use transform="matrix(0.05,0,0,0.05,129.75,0)" xlink:href="#D"/><use transform="matrix(0.05,0,0,0.05,139.75,0)" xlink:href="#S"/></g><path d="M240 0l2-218c-23 76-54 145-80 218h-23L58-218 59 0H30v-248h44l77 211c21-75 51-140 76-211h43V0h-30" id="V"/><path d="M177-190C167-65 218 103 67 71c-23-6-38-20-44-43l32-5c15 47 100 32 89-28v-30C133-14 115 1 83 1 29 1 15-40 15-95c0-56 16-97 71-98 29-1 48 16 59 35 1-10 0-23 2-32h30zM94-22c36 0 50-32 50-73 0-42-14-75-50-75-39 0-46 34-46 75s6 73 46 73" id="W"/><g id="j"><use transform="matrix(0.05,0,0,0.05,0,0)" xlink:href="#L"/><use transform="matrix(0.05,0,0,0.05,5,0)" xlink:href="#V"/><use transform="matrix(0.05,0,0,0.05,19.950000000000003,0)" xlink:href="#I"/><use transform="matrix(0.05,0,0,0.05,29.950000000000003,0)" xlink:href="#D"/><use transform="matrix(0.05,0,0,0.05,39.95,0)" xlink:href="#I"/><use transform="matrix(0.05,0,0,0.05,49.95,0)" xlink:href="#W"/><use transform="matrix(0.05,0,0,0.05,59.95,0)" xlink:href="#x"/><path d="M-.9 1.25h71.75v1.32H-.9z"/></g><path d="M68-38c1 34 0 65-14 84H32c9-13 17-26 17-46H33v-38h35" id="X"/><g id="k"><use transform="matrix(0.05,0,0,0.05,0,0)" xlink:href="#F"/><use transform="matrix(0.05,0,0,0.05,9,0)" xlink:href="#H"/><use transform="matrix(0.05,0,0,0.05,19,0)" xlink:href="#K"/><use transform="matrix(0.05,0,0,0.05,24.95,0)" xlink:href="#J"/><use transform="matrix(0.05,0,0,0.05,29.950000000000003,0)" xlink:href="#M"/><use transform="matrix(0.05,0,0,0.05,40.9,0)" xlink:href="#C"/><use transform="matrix(0.05,0,0,0.05,50.9,0)" xlink:href="#D"/><use transform="matrix(0.05,0,0,0.05,60.900000000000006,0)" xlink:href="#E"/><use transform="matrix(0.05,0,0,0.05,70.9,0)" xlink:href="#F"/><use transform="matrix(0.05,0,0,0.05,79.9,0)" xlink:href="#R"/><use transform="matrix(0.05,0,0,0.05,85.85000000000001,0)" xlink:href="#I"/><use transform="matrix(0.05,0,0,0.05,95.85000000000001,0)" xlink:href="#T"/><use transform="matrix(0.05,0,0,0.05,105.85000000000001,0)" xlink:href="#T"/><use transform="matrix(0.05,0,0,0.05,115.85000000000001,0)" xlink:href="#X"/><use transform="matrix(0.05,0,0,0.05,120.85000000000001,0)" xlink:href="#B"/><use transform="matrix(0.05,0,0,0.05,125.85000000000001,0)" xlink:href="#C"/><use transform="matrix(0.05,0,0,0.05,135.85000000000002,0)" xlink:href="#D"/><use transform="matrix(0.05,0,0,0.05,145.85000000000002,0)" xlink:href="#E"/><use transform="matrix(0.05,0,0,0.05,155.85000000000002,0)" xlink:href="#F"/><use transform="matrix(0.05,0,0,0.05,164.85000000000002,0)" xlink:href="#S"/></g><path d="M127-220V0H93v-220H8v-28h204v28h-85" id="Y"/><path d="M185-189c-5-48-123-54-124 2 14 75 158 14 163 119 3 78-121 87-175 55-17-10-28-26-33-46l33-7c5 56 141 63 141-1 0-78-155-14-162-118-5-82 145-84 179-34 5 7 8 16 11 25" id="Z"/><g id="l"><use transform="matrix(0.05,0,0,0.05,0,0)" xlink:href="#Y"/><use transform="matrix(0.05,0,0,0.05,8.950000000000001,0)" xlink:href="#H"/><use transform="matrix(0.05,0,0,0.05,18.950000000000003,0)" xlink:href="#Z"/><use transform="matrix(0.05,0,0,0.05,30.950000000000003,0)" xlink:href="#J"/><use transform="matrix(0.05,0,0,0.05,35.95,0)" xlink:href="#K"/><use transform="matrix(0.05,0,0,0.05,41.900000000000006,0)" xlink:href="#z"/><use transform="matrix(0.05,0,0,0.05,45.85000000000001,0)" xlink:href="#D"/><use transform="matrix(0.05,0,0,0.05,55.85,0)" xlink:href="#W"/></g><g id="m"><use transform="matrix(0.05,0,0,0.05,0,0)" xlink:href="#I"/><use transform="matrix(0.05,0,0,0.05,10,0)" xlink:href="#O"/><use transform="matrix(0.05,0,0,0.05,13.949999999999998,0)" xlink:href="#O"/><use transform="matrix(0.05,0,0,0.05,17.9,0)" xlink:href="#H"/><use transform="matrix(0.05,0,0,0.05,27.899999999999995,0)" xlink:href="#y"/><use transform="matrix(0.05,0,0,0.05,36.9,0)" xlink:href="#I"/><use transform="matrix(0.05,0,0,0.05,46.9,0)" xlink:href="#J"/><use transform="matrix(0.05,0,0,0.05,51.900000000000006,0)" xlink:href="#z"/><use transform="matrix(0.05,0,0,0.05,55.85,0)" xlink:href="#H"/><use transform="matrix(0.05,0,0,0.05,65.85,0)" xlink:href="#D"/></g><path d="M179-190L93 31C79 59 56 82 12 73V49c39 6 53-20 64-50L1-190h34L92-34l54-156h33" id="aa"/><g id="n"><use transform="matrix(0.05,0,0,0.05,0,0)" xlink:href="#E"/><use transform="matrix(0.05,0,0,0.05,10,0)" xlink:href="#z"/><use transform="matrix(0.05,0,0,0.05,13.949999999999998,0)" xlink:href="#F"/><use transform="matrix(0.05,0,0,0.05,22.95,0)" xlink:href="#T"/><use transform="matrix(0.05,0,0,0.05,32.95,0)" xlink:href="#O"/><use transform="matrix(0.05,0,0,0.05,36.900000000000006,0)" xlink:href="#I"/><use transform="matrix(0.05,0,0,0.05,46.900000000000006,0)" xlink:href="#aa"/></g><g id="o"><use transform="matrix(0.05,0,0,0.05,0,0)" xlink:href="#Q"/><use transform="matrix(0.05,0,0,0.05,10,0)" xlink:href="#C"/><use transform="matrix(0.05,0,0,0.05,20,0)" xlink:href="#E"/><use transform="matrix(0.05,0,0,0.05,30,0)" xlink:href="#W"/><use transform="matrix(0.05,0,0,0.05,40,0)" xlink:href="#x"/><use transform="matrix(0.05,0,0,0.05,50,0)" xlink:href="#J"/></g><g id="p"><use transform="matrix(0.05,0,0,0.05,0,0)" xlink:href="#F"/><use transform="matrix(0.05,0,0,0.05,9,0)" xlink:href="#T"/><use transform="matrix(0.05,0,0,0.05,19,0)" xlink:href="#x"/><use transform="matrix(0.05,0,0,0.05,29,0)" xlink:href="#D"/><use transform="matrix(0.05,0,0,0.05,39,0)" xlink:href="#E"/><use transform="matrix(0.05,0,0,0.05,49,0)" xlink:href="#z"/><use transform="matrix(0.05,0,0,0.05,52.95,0)" xlink:href="#D"/><use transform="matrix(0.05,0,0,0.05,62.95,0)" xlink:href="#W"/></g><g id="q"><use transform="matrix(0.05,0,0,0.05,0,0)" xlink:href="#U"/><use transform="matrix(0.05,0,0,0.05,12,0)" xlink:href="#O"/><use transform="matrix(0.05,0,0,0.05,15.949999999999998,0)" xlink:href="#J"/><use transform="matrix(0.05,0,0,0.05,20.95,0)" xlink:href="#x"/><use transform="matrix(0.05,0,0,0.05,30.950000000000003,0)" xlink:href="#K"/><use transform="matrix(0.05,0,0,0.05,36.9,0)" xlink:href="#D"/><use transform="matrix(0.05,0,0,0.05,46.9,0)" xlink:href="#I"/><use transform="matrix(0.05,0,0,0.05,56.900000000000006,0)" xlink:href="#J"/><use transform="matrix(0.05,0,0,0.05,61.900000000000006,0)" xlink:href="#z"/><use transform="matrix(0.05,0,0,0.05,65.85,0)" xlink:href="#A"/><use transform="matrix(0.05,0,0,0.05,74.85,0)" xlink:href="#x"/></g><path d="M26 75v-336h71v23H56V52h41v23H26" id="ab"/><g id="r"><use transform="matrix(0.05,0,0,0.05,0,0)" xlink:href="#ab"/><use transform="matrix(0.05,0,0,0.05,5,0)" xlink:href="#z"/><use transform="matrix(0.05,0,0,0.05,8.95,0)" xlink:href="#B"/></g><g id="s"><use transform="matrix(0.05,0,0,0.05,0,0)" xlink:href="#E"/><use transform="matrix(0.05,0,0,0.05,10,0)" xlink:href="#x"/><use transform="matrix(0.05,0,0,0.05,20,0)" xlink:href="#y"/><use transform="matrix(0.05,0,0,0.05,29,0)" xlink:href="#z"/><use transform="matrix(0.05,0,0,0.05,32.95,0)" xlink:href="#F"/><use transform="matrix(0.05,0,0,0.05,41.95,0)" xlink:href="#z"/><use transform="matrix(0.05,0,0,0.05,45.900000000000006,0)" xlink:href="#H"/><use transform="matrix(0.05,0,0,0.05,55.900000000000006,0)" xlink:href="#D"/></g><path d="M18-150v-26h174v26H18zm0 90v-26h174v26H18" id="ac"/><path d="M3 75V52h41v-290H3v-23h71V75H3" id="ad"/><g id="t"><use transform="matrix(0.05,0,0,0.05,0,0)" xlink:href="#ac"/><use transform="matrix(0.05,0,0,0.05,10.5,0)" xlink:href="#I"/><use transform="matrix(0.05,0,0,0.05,20.5,0)" xlink:href="#y"/><use transform="matrix(0.05,0,0,0.05,29.5,0)" xlink:href="#y"/><use transform="matrix(0.05,0,0,0.05,38.5,0)" xlink:href="#x"/><use transform="matrix(0.05,0,0,0.05,48.5,0)" xlink:href="#T"/><use transform="matrix(0.05,0,0,0.05,58.5,0)" xlink:href="#J"/><use transform="matrix(0.05,0,0,0.05,63.5,0)" xlink:href="#ad"/></g></defs></g></svg>