<svg xmlns="http://www.w3.org/2000/svg" xmlns:xlink="http://www.w3.org/1999/xlink" xmlns:lucid="lucid" width="1580" height="1160"><g transform="translate(-80 -100)" lucid:page-tab-id=".j1YI0gEGPa~"><path d="M100 120h280v20l-10 10H100z" fill="#fff"/><path d="M380 120v20l-10 10H100" stroke="#000" stroke-width="2" fill="none"/><path d="M100 120h1540v1120H100z" stroke="#000" stroke-width="2" fill="none"/><use xlink:href="#a" transform="matrix(1,0,0,1,108,120) translate(0 18.6)"/><use xlink:href="#b" transform="matrix(1,0,0,1,108,120) translate(25.950000000000003 18.6)"/><use xlink:href="#c" transform="matrix(1,0,0,1,108,120) translate(73.9 18.6)"/><use xlink:href="#d" transform="matrix(1,0,0,1,108,120) translate(153.85000000000002 18.6)"/><use xlink:href="#e" transform="matrix(1,0,0,1,108,120) translate(173.85000000000002 18.6)"/><use xlink:href="#f" transform="matrix(1,0,0,1,108,120) translate(203.85000000000002 18.6)"/><path d="M219.75 219.75c0 10.9-8.84 19.75-19.75 19.75-10.9 0-19.75-8.84-19.75-19.75 0-10.9 8.84-19.75 19.75-19.75 10.9 0 19.75 8.84 19.75 19.75z" stroke="#000" stroke-width="2" fill="#fff"/><path d="M200 239.5v55.3l40 63.2m-40-63.2L160 358m0-98.75h80" stroke="#000" stroke-width="2" fill="none"/><path d="M160 200h80v180h-80z" fill="none"/><use xlink:href="#g" transform="matrix(1,0,0,1,80,358) translate(82.6 14.6)"/><path d="M480 260h160v120H480z" stroke="#000" stroke-width="2" fill="#fff"/><use xlink:href="#h" transform="matrix(1,0,0,1,480,260) translate(45.57999999999999 63.15)"/><path d="M222 440h298.5" stroke="#000" stroke-width="2" fill="none"/><path d="M222.03 441H221v-2h1.03z"/><path d="M535.76 440l-14.26 4.64v-9.28z" stroke="#000" stroke-width="2"/><use xlink:href="#i" transform="matrix(1,0,0,1,320.125,414.40000000000003) translate(0 14.4)"/><use xlink:href="#j" transform="matrix(1,0,0,1,320.125,414.40000000000003) translate(39.9 14.4)"/><path d="M582 817.65h458.5" stroke="#000" stroke-width="2" fill="none"/><path d="M582.03 818.65H581v-2h1.03z"/><path d="M1055.76 817.65l-14.26 4.64V813z" stroke="#000" stroke-width="2"/><use xlink:href="#k" transform="matrix(1,0,0,1,712.6500000000002,792.0532769556025) translate(0 14.4)"/><path d="M855.2 260h160v120h-160z" stroke="#000" stroke-width="2" fill="#fff"/><use xlink:href="#l" transform="matrix(1,0,0,1,855.1999999999534,260) translate(38.58 63.15)"/><path d="M935.2 382v9.52m0 9.52v19.03m0 9.52v19.03m0 9.52v19.04m0 9.5v19.04m0 9.52v19.04m0 9.5v19.05m0 9.52v19.04m0 9.53v19.03m0 9.52V639" stroke="#000" stroke-width="2" fill="none"/><path d="M936.2 382.03h-2V381h2z"/><path d="M935.2 638.97V640M538 1040h-9.95m-9.95 0h-19.9m-9.95 0h-19.9m-9.95 0h-19.9m-9.95 0h-19.9m-9.95 0h-19.9m-9.95 0h-19.9m-9.95 0h-19.9m-9.95 0h-19.9m-9.95 0h-19.9m-9.95 0h-9.95" stroke="#000" stroke-width="2" fill="none"/><path d="M539 1041h-1.03v-2H539z"/><path d="M224.24 1040l14.26-4.64v9.28z" stroke="#000" stroke-width="2"/><use xlink:href="#m" transform="matrix(1,0,0,1,314.05,1044.0000000000002) translate(0 14.4)"/><use xlink:href="#n" transform="matrix(1,0,0,1,314.05,1044.0000000000002) translate(77.95 14.4)"/><path d="M200 297.67v10m0 10.03v20.03m0 10v20.04m0 10.02v20.02m0 10v20.04m0 10.02v20.03m0 10.02v20.03m0 10V518m0 10v20.04m0 10v20.04m0 10.02v20.03m0 10v20.04m0 10.02v20.02m0 10v20.04m0 10v20.04m0 10.02v20.03m0 10v20.04m0 10v20.04m0 10v20.04m0 10.02v20.03m0 10v20.04m0 10.02v20m0 10.03v20.03m0 10v20.04m0 10.02v20.03m0 10v20.04m0 10v20.04m0 10v20.04m0 10.02v20.03m0 10v20.04m0 10V1199M200 1198.97v1.03" stroke="#000" stroke-width="2" fill="none"/><path d="M180 400h40v700h-40z" stroke="#000" stroke-width="2" fill="#fff"/><path d="M560 382v10.1m0 10.07v20.18m0 10.08v20.17m0 10.1v20.16m0 10.1v20.16m0 10.1v20.16m0 10.1v20.16m0 10.1v20.16m0 10.1v20.16m0 10.1v20.16m0 10.1v20.16m0 10.1v20.16m0 10.08v20.18m0 10.08v20.18m0 10.08v20.18m0 10.08v20.18m0 10.08v20.17m0 10.1v20.16m0 10.08v20.17m0 10.1V967m0 10.1v20.17m0 10.1v20.16m0 10.1v20.16m0 10.08v20.17m0 10.1v20.16m0 10.1v20.17m0 10.08v20.18m0 10.08v10.1" stroke="#000" stroke-width="2" fill="none"/><path d="M561 382.03h-2V381h2z"/><path d="M560 1198.97v1.03" stroke="#000" stroke-width="2" fill="none"/><path d="M540 400h40v700h-40zM915.2 440h40v160h-40z" stroke="#000" stroke-width="2" fill="#fff"/><path d="M582 489.6h331.2" stroke="#000" stroke-width="2" fill="none"/><path d="M582.03 490.6H581v-2h1.03zM914.2 490.6h-1.03v-2h1.03z"/><use xlink:href="#o" transform="matrix(1,0,0,1,663.7749999999767,464.00535588442546) translate(0 14.4)"/><path d="M913.2 534h-10.46m-10.45 0h-20.93m-10.45 0H840m-10.45 0h-20.92m-10.45 0h-20.92m-10.45 0h-20.9m-10.46 0h-20.92m-10.45 0h-20.92m-10.45 0h-20.92m-10.45 0h-20.9m-10.47 0H599.5" stroke="#000" stroke-width="2" fill="none"/><path d="M914.2 535h-1.03v-2h1.03z"/><path d="M584.24 534l14.26-4.63v9.27z" stroke="#000" stroke-width="2"/><use xlink:href="#p" transform="matrix(1,0,0,1,714.6499999999767,538.0028188865397) translate(0 14.4)"/><path d="M1000 680h160v80h-160z" stroke="#000" stroke-width="2" fill="#fff"/><use xlink:href="#q" transform="matrix(1,0,0,1,1000,680) translate(40.10499999999999 44.4)"/><path d="M1080 762v9.92m0 9.9v19.85m0 9.9v19.85m0 9.9v19.85m0 9.9v19.85m0 9.9v19.85m0 9.9v19.85m0 9.9v19.85m0 9.9v19.85m0 9.9v19.85m0 9.9v19.85m0 9.9v19.85m0 9.9v9.93" stroke="#000" stroke-width="2" fill="none"/><path d="M1081 762.03h-2V761h2z"/><path d="M1080 1118.97v1.03" stroke="#000" stroke-width="2" fill="none"/><path d="M1060 780h40v280h-40zM1399 780h160v60h-160z" stroke="#000" stroke-width="2" fill="#fff"/><use xlink:href="#r" transform="matrix(1,0,0,1,1399,780) translate(40.029999999999994 33.15)"/><path d="M1479 842v9.67m0 9.66v19.34m0 9.66v19.34m0 9.66v19.34m0 9.66v19.34m0 9.66v19.34m0 9.66v19.34m0 9.66v19.34m0 9.66v19.34m0 9.66v19.34m0 9.66v19.34m0 9.66v19.34m0 9.66v19.34m0 9.66v9.67" stroke="#000" stroke-width="2" fill="none"/><path d="M1480 842.03h-2V841h2z"/><path d="M1479 1218.97v1.03" stroke="#000" stroke-width="2" fill="none"/><path d="M1459 880h40v140h-40z" stroke="#000" stroke-width="2" fill="#fff"/><path d="M1102 924.2h337.5" stroke="#000" stroke-width="2" fill="none"/><path d="M1102.03 925.2H1101v-2h1.03z"/><path d="M1454.76 924.2l-14.26 4.64v-9.27z" stroke="#000" stroke-width="2"/><use xlink:href="#s" transform="matrix(1,0,0,1,1138.15,898.6071881606765) translate(0 14.4)"/><path d="M1058 993.76h-10.2m-10.18 0h-20.38m-10.18 0h-20.38m-10.2 0h-20.37m-10.18 0h-20.37m-10.2 0H895m-10.2 0h-20.37m-10.18 0h-20.37m-10.2 0H803.3m-10.2 0h-20.37m-10.18 0h-20.37m-10.2 0H711.6m-10.2 0h-20.37m-10.18 0h-20.37m-10.2 0H619.9m-10.2 0H599.5" stroke="#000" stroke-width="2" fill="none"/><path d="M1059 994.76h-1.03v-2h1.03z"/><path d="M584.24 993.76l14.26-4.63v9.27z" stroke="#000" stroke-width="2"/><g><use xlink:href="#t" transform="matrix(1,0,0,1,801.875,997.7632135306555) translate(0 14.4)"/></g><path d="M1457 961.2h-10.23m-10.22 0h-20.46m-10.24 0h-20.45m-10.22 0h-20.45m-10.23 0h-20.45m-10.23 0h-20.46m-10.22 0h-20.46m-10.22 0H1232m-10.23 0h-20.45m-10.23 0h-20.46m-10.23 0h-20.44m-10.23 0h-10.23" stroke="#000" stroke-width="2" fill="none"/><path d="M1458 962.2h-1.03v-2h1.03z"/><path d="M1104.24 961.2l14.26-4.63v9.27z" stroke="#000" stroke-width="2"/><g><use xlink:href="#u" transform="matrix(1,0,0,1,1257.55,965.2050739957718) translate(0 14.4)"/></g><defs><path d="M137-138c1-29-70-34-71-4 15 46 118 7 119 86 1 83-164 76-172 9l43-7c4 19 20 25 44 25 33 8 57-30 24-41C81-84 22-81 20-136c-2-80 154-74 161-7" id="v"/><path d="M88-194c31-1 46 15 58 34l-1-101h50l1 261h-48c-2-10 0-23-3-31C134-8 116 4 84 4 32 4 16-41 15-95c0-56 19-97 73-99zm17 164c33 0 40-30 41-66 1-37-9-64-41-64s-38 30-39 65c0 43 13 65 39 65" id="w"/><g id="a"><use transform="matrix(0.05,0,0,0.05,0,0)" xlink:href="#v"/><use transform="matrix(0.05,0,0,0.05,10,0)" xlink:href="#w"/><path d="M-.9.97h22.75v1.9H-.9z"/></g><path d="M117-194c89-4 53 116 60 194h-32v-121c0-31-8-49-39-48C34-167 62-67 57 0H25l-1-190h30c1 10-1 24 2 32 11-22 29-35 61-36" id="x"/><path d="M100-194c62-1 85 37 85 99 1 63-27 99-86 99S16-35 15-95c0-66 28-99 85-99zM99-20c44 1 53-31 53-75 0-43-8-75-51-75s-53 32-53 75 10 74 51 75" id="y"/><path d="M59-47c-2 24 18 29 38 22v24C64 9 27 4 27-40v-127H5v-23h24l9-43h21v43h35v23H59v120" id="z"/><path d="M24-231v-30h32v30H24zM24 0v-190h32V0H24" id="A"/><path d="M101-234c-31-9-42 10-38 44h38v23H63V0H32v-167H5v-23h27c-7-52 17-82 69-68v24" id="B"/><path d="M179-190L93 31C79 59 56 82 12 73V49c39 6 53-20 64-50L1-190h34L92-34l54-156h33" id="C"/><g id="b"><use transform="matrix(0.05,0,0,0.05,0,0)" xlink:href="#x"/><use transform="matrix(0.05,0,0,0.05,10,0)" xlink:href="#y"/><use transform="matrix(0.05,0,0,0.05,20,0)" xlink:href="#z"/><use transform="matrix(0.05,0,0,0.05,25,0)" xlink:href="#A"/><use transform="matrix(0.05,0,0,0.05,28.950000000000003,0)" xlink:href="#B"/><use transform="matrix(0.05,0,0,0.05,33.95,0)" xlink:href="#C"/></g><path d="M33 0v-248h34V0H33" id="D"/><path d="M108 0H70L1-190h34L89-25l56-165h34" id="E"/><path d="M141-36C126-15 110 5 73 4 37 3 15-17 15-53c-1-64 63-63 125-63 3-35-9-54-41-54-24 1-41 7-42 31l-33-3c5-37 33-52 76-52 45 0 72 20 72 64v82c-1 20 7 32 28 27v20c-31 9-61-2-59-35zM48-53c0 20 12 33 32 33 41-3 63-29 60-74-43 2-92-5-92 41" id="F"/><path d="M114-163C36-179 61-72 57 0H25l-1-190h30c1 12-1 29 2 39 6-27 23-49 58-41v29" id="G"/><g id="c"><use transform="matrix(0.05,0,0,0.05,0,0)" xlink:href="#D"/><use transform="matrix(0.05,0,0,0.05,5,0)" xlink:href="#x"/><use transform="matrix(0.05,0,0,0.05,15,0)" xlink:href="#x"/><use transform="matrix(0.05,0,0,0.05,25,0)" xlink:href="#y"/><use transform="matrix(0.05,0,0,0.05,35,0)" xlink:href="#E"/><use transform="matrix(0.05,0,0,0.05,44,0)" xlink:href="#F"/><use transform="matrix(0.05,0,0,0.05,54,0)" xlink:href="#z"/><use transform="matrix(0.05,0,0,0.05,59,0)" xlink:href="#y"/><use transform="matrix(0.05,0,0,0.05,69,0)" xlink:href="#G"/></g><g id="d"><use transform="matrix(0.05,0,0,0.05,0,0)" xlink:href="#y"/><use transform="matrix(0.05,0,0,0.05,10,0)" xlink:href="#B"/></g><path d="M106-169C34-169 62-67 57 0H25v-261h32l-1 103c12-21 28-36 61-36 89 0 53 116 60 194h-32v-121c2-32-8-49-39-48" id="H"/><path d="M100-194c63 0 86 42 84 106H49c0 40 14 67 53 68 26 1 43-12 49-29l28 8c-11 28-37 45-77 45C44 4 14-33 15-96c1-61 26-98 85-98zm52 81c6-60-76-77-97-28-3 7-6 17-6 28h103" id="I"/><g id="e"><use transform="matrix(0.05,0,0,0.05,0,0)" xlink:href="#z"/><use transform="matrix(0.05,0,0,0.05,5,0)" xlink:href="#H"/><use transform="matrix(0.05,0,0,0.05,15,0)" xlink:href="#I"/></g><path d="M135-143c-3-34-86-38-87 0 15 53 115 12 119 90S17 21 10-45l28-5c4 36 97 45 98 0-10-56-113-15-118-90-4-57 82-63 122-42 12 7 21 19 24 35" id="J"/><path d="M84 4C-5 8 30-112 23-190h32v120c0 31 7 50 39 49 72-2 45-101 50-169h31l1 190h-30c-1-10 1-25-2-33-11 22-28 36-60 37" id="K"/><path d="M24 0v-261h32V0H24" id="L"/><g id="f"><use transform="matrix(0.05,0,0,0.05,0,0)" xlink:href="#G"/><use transform="matrix(0.05,0,0,0.05,5.95,0)" xlink:href="#I"/><use transform="matrix(0.05,0,0,0.05,15.949999999999998,0)" xlink:href="#J"/><use transform="matrix(0.05,0,0,0.05,24.95,0)" xlink:href="#K"/><use transform="matrix(0.05,0,0,0.05,34.95,0)" xlink:href="#L"/><use transform="matrix(0.05,0,0,0.05,38.900000000000006,0)" xlink:href="#z"/></g><path d="M233-177c-1 41-23 64-60 70L243 0h-38l-65-103H63V0H30v-248c88 3 205-21 203 71zM63-129c60-2 137 13 137-47 0-61-80-42-137-45v92" id="M"/><path d="M206 0h-36l-40-164L89 0H53L-1-190h32L70-26l43-164h34l41 164 42-164h31" id="N"/><g id="g"><use transform="matrix(0.05,0,0,0.05,0,0)" xlink:href="#M"/><use transform="matrix(0.05,0,0,0.05,12.950000000000001,0)" xlink:href="#I"/><use transform="matrix(0.05,0,0,0.05,22.950000000000003,0)" xlink:href="#E"/><use transform="matrix(0.05,0,0,0.05,31.950000000000003,0)" xlink:href="#A"/><use transform="matrix(0.05,0,0,0.05,35.900000000000006,0)" xlink:href="#I"/><use transform="matrix(0.05,0,0,0.05,45.900000000000006,0)" xlink:href="#N"/><use transform="matrix(0.05,0,0,0.05,58.85,0)" xlink:href="#I"/><use transform="matrix(0.05,0,0,0.05,68.85000000000001,0)" xlink:href="#G"/></g><path d="M33-154v-36h34v36H33zM33 0v-36h34V0H33" id="O"/><path d="M190 0L58-211 59 0H30v-248h39L202-35l-2-213h31V0h-41" id="P"/><path d="M232-93c-1 65-40 97-104 97C67 4 28-28 28-90v-158h33c8 89-33 224 67 224 102 0 64-133 71-224h33v155" id="Q"/><g id="h"><use transform="matrix(0.05,0,0,0.05,0,0)" xlink:href="#O"/><use transform="matrix(0.05,0,0,0.05,5,0)" xlink:href="#P"/><use transform="matrix(0.05,0,0,0.05,17.950000000000003,0)" xlink:href="#y"/><use transform="matrix(0.05,0,0,0.05,27.950000000000003,0)" xlink:href="#z"/><use transform="matrix(0.05,0,0,0.05,32.95,0)" xlink:href="#A"/><use transform="matrix(0.05,0,0,0.05,36.900000000000006,0)" xlink:href="#B"/><use transform="matrix(0.05,0,0,0.05,41.900000000000006,0)" xlink:href="#C"/><use transform="matrix(0.05,0,0,0.05,50.900000000000006,0)" xlink:href="#Q"/><use transform="matrix(0.05,0,0,0.05,63.85,0)" xlink:href="#D"/><path d="M-.9 1.25h70.65v1.32H-.9z"/></g><path d="M96-169c-40 0-48 33-48 73s9 75 48 75c24 0 41-14 43-38l32 2c-6 37-31 61-74 61-59 0-76-41-82-99-10-93 101-131 147-64 4 7 5 14 7 22l-32 3c-4-21-16-35-41-35" id="R"/><path d="M143 0L79-87 56-68V0H24v-261h32v163l83-92h37l-77 82L181 0h-38" id="S"/><g id="i"><use transform="matrix(0.05,0,0,0.05,0,0)" xlink:href="#R"/><use transform="matrix(0.05,0,0,0.05,9,0)" xlink:href="#L"/><use transform="matrix(0.05,0,0,0.05,12.949999999999998,0)" xlink:href="#A"/><use transform="matrix(0.05,0,0,0.05,16.9,0)" xlink:href="#R"/><use transform="matrix(0.05,0,0,0.05,25.899999999999995,0)" xlink:href="#S"/></g><path d="M115-194c53 0 69 39 70 98 0 66-23 100-70 100C84 3 66-7 56-30L54 0H23l1-261h32v101c10-23 28-34 59-34zm-8 174c40 0 45-34 45-75 0-40-5-75-45-74-42 0-51 32-51 76 0 43 10 73 51 73" id="T"/><path d="M87 75C49 33 22-17 22-94c0-76 28-126 65-167h31c-38 41-64 92-64 168S80 34 118 75H87" id="U"/><path d="M33-261c38 41 65 92 65 168S71 34 33 75H2C39 34 66-17 66-93S39-220 2-261h31" id="V"/><g id="j"><use transform="matrix(0.05,0,0,0.05,0,0)" xlink:href="#x"/><use transform="matrix(0.05,0,0,0.05,10,0)" xlink:href="#y"/><use transform="matrix(0.05,0,0,0.05,20,0)" xlink:href="#z"/><use transform="matrix(0.05,0,0,0.05,25,0)" xlink:href="#A"/><use transform="matrix(0.05,0,0,0.05,28.950000000000003,0)" xlink:href="#B"/><use transform="matrix(0.05,0,0,0.05,33.95,0)" xlink:href="#C"/><use transform="matrix(0.05,0,0,0.05,42.95,0)" xlink:href="#T"/><use transform="matrix(0.05,0,0,0.05,52.95,0)" xlink:href="#z"/><use transform="matrix(0.05,0,0,0.05,57.95,0)" xlink:href="#x"/><use transform="matrix(0.05,0,0,0.05,67.95,0)" xlink:href="#U"/><use transform="matrix(0.05,0,0,0.05,73.9,0)" xlink:href="#V"/></g><path d="M85-194c31 0 48 13 60 33l-1-100h32l1 261h-30c-2-10 0-23-3-31C134-8 116 4 85 4 32 4 16-35 15-94c0-66 23-100 70-100zm9 24c-40 0-46 34-46 75 0 40 6 74 45 74 42 0 51-32 51-76 0-42-9-74-50-73" id="W"/><path d="M68-38c1 34 0 65-14 84H32c9-13 17-26 17-46H33v-38h35" id="X"/><path d="M30-248c118-7 216 8 213 122C240-48 200 0 122 0H30v-248zM63-27c89 8 146-16 146-99s-60-101-146-95v194" id="Y"/><g id="k"><use transform="matrix(0.05,0,0,0.05,0,0)" xlink:href="#J"/><use transform="matrix(0.05,0,0,0.05,9,0)" xlink:href="#I"/><use transform="matrix(0.05,0,0,0.05,19,0)" xlink:href="#x"/><use transform="matrix(0.05,0,0,0.05,29,0)" xlink:href="#W"/><use transform="matrix(0.05,0,0,0.05,39,0)" xlink:href="#U"/><use transform="matrix(0.05,0,0,0.05,44.95,0)" xlink:href="#W"/><use transform="matrix(0.05,0,0,0.05,54.95,0)" xlink:href="#I"/><use transform="matrix(0.05,0,0,0.05,64.95,0)" xlink:href="#J"/><use transform="matrix(0.05,0,0,0.05,73.95,0)" xlink:href="#A"/><use transform="matrix(0.05,0,0,0.05,77.9,0)" xlink:href="#R"/><use transform="matrix(0.05,0,0,0.05,86.9,0)" xlink:href="#A"/><use transform="matrix(0.05,0,0,0.05,90.85000000000001,0)" xlink:href="#y"/><use transform="matrix(0.05,0,0,0.05,100.85000000000001,0)" xlink:href="#x"/><use transform="matrix(0.05,0,0,0.05,110.85000000000001,0)" xlink:href="#X"/><use transform="matrix(0.05,0,0,0.05,115.85000000000001,0)" xlink:href="#D"/><use transform="matrix(0.05,0,0,0.05,120.85000000000001,0)" xlink:href="#x"/><use transform="matrix(0.05,0,0,0.05,130.85000000000002,0)" xlink:href="#x"/><use transform="matrix(0.05,0,0,0.05,140.85000000000002,0)" xlink:href="#y"/><use transform="matrix(0.05,0,0,0.05,150.85000000000002,0)" xlink:href="#E"/><use transform="matrix(0.05,0,0,0.05,159.85000000000002,0)" xlink:href="#F"/><use transform="matrix(0.05,0,0,0.05,169.85000000000002,0)" xlink:href="#z"/><use transform="matrix(0.05,0,0,0.05,174.85000000000002,0)" xlink:href="#y"/><use transform="matrix(0.05,0,0,0.05,184.85000000000002,0)" xlink:href="#G"/><use transform="matrix(0.05,0,0,0.05,190.8,0)" xlink:href="#D"/><use transform="matrix(0.05,0,0,0.05,195.8,0)" xlink:href="#Y"/><use transform="matrix(0.05,0,0,0.05,208.75,0)" xlink:href="#V"/></g><path d="M205 0l-28-72H64L36 0H1l101-248h38L239 0h-34zm-38-99l-47-123c-12 45-31 82-46 123h93" id="Z"/><path d="M115-194c55 1 70 41 70 98S169 2 115 4C84 4 66-9 55-30l1 105H24l-1-265h31l2 30c10-21 28-34 59-34zm-8 174c40 0 45-34 45-75s-6-73-45-74c-42 0-51 32-51 76 0 43 10 73 51 73" id="aa"/><g id="l"><use transform="matrix(0.05,0,0,0.05,0,0)" xlink:href="#O"/><use transform="matrix(0.05,0,0,0.05,5,0)" xlink:href="#Z"/><use transform="matrix(0.05,0,0,0.05,17,0)" xlink:href="#aa"/><use transform="matrix(0.05,0,0,0.05,27,0)" xlink:href="#L"/><use transform="matrix(0.05,0,0,0.05,30.950000000000003,0)" xlink:href="#A"/><use transform="matrix(0.05,0,0,0.05,34.9,0)" xlink:href="#R"/><use transform="matrix(0.05,0,0,0.05,43.9,0)" xlink:href="#F"/><use transform="matrix(0.05,0,0,0.05,53.900000000000006,0)" xlink:href="#z"/><use transform="matrix(0.05,0,0,0.05,58.900000000000006,0)" xlink:href="#A"/><use transform="matrix(0.05,0,0,0.05,62.85,0)" xlink:href="#y"/><use transform="matrix(0.05,0,0,0.05,72.85,0)" xlink:href="#x"/><path d="M-.9 1.25h84.65v1.32H-.9z"/></g><path d="M210-169c-67 3-38 105-44 169h-31v-121c0-29-5-50-35-48C34-165 62-65 56 0H25l-1-190h30c1 10-1 24 2 32 10-44 99-50 107 0 11-21 27-35 58-36 85-2 47 119 55 194h-31v-121c0-29-5-49-35-48" id="ab"/><path d="M177-190C167-65 218 103 67 71c-23-6-38-20-44-43l32-5c15 47 100 32 89-28v-30C133-14 115 1 83 1 29 1 15-40 15-95c0-56 16-97 71-98 29-1 48 16 59 35 1-10 0-23 2-32h30zM94-22c36 0 50-32 50-73 0-42-14-75-50-75-39 0-46 34-46 75s6 73 46 73" id="ac"/><g id="m"><use transform="matrix(0.05,0,0,0.05,0,0)" xlink:href="#ab"/><use transform="matrix(0.05,0,0,0.05,14.950000000000001,0)" xlink:href="#I"/><use transform="matrix(0.05,0,0,0.05,24.950000000000003,0)" xlink:href="#J"/><use transform="matrix(0.05,0,0,0.05,33.95,0)" xlink:href="#J"/><use transform="matrix(0.05,0,0,0.05,42.95,0)" xlink:href="#F"/><use transform="matrix(0.05,0,0,0.05,52.95,0)" xlink:href="#ac"/><use transform="matrix(0.05,0,0,0.05,62.95,0)" xlink:href="#I"/></g><g id="n"><use transform="matrix(0.05,0,0,0.05,0,0)" xlink:href="#L"/><use transform="matrix(0.05,0,0,0.05,3.95,0)" xlink:href="#y"/><use transform="matrix(0.05,0,0,0.05,13.949999999999998,0)" xlink:href="#ac"/><use transform="matrix(0.05,0,0,0.05,23.95,0)" xlink:href="#ac"/><use transform="matrix(0.05,0,0,0.05,33.95,0)" xlink:href="#I"/><use transform="matrix(0.05,0,0,0.05,43.95,0)" xlink:href="#W"/></g><path d="M143 4C61 4 22-44 18-125c-5-107 100-154 193-111 17 8 29 25 37 43l-32 9c-13-25-37-40-76-40-61 0-88 39-88 99 0 61 29 100 91 101 35 0 62-11 79-27v-45h-74v-28h105v86C228-13 192 4 143 4" id="ad"/><path d="M30-248c87 1 191-15 191 75 0 78-77 80-158 76V0H30v-248zm33 125c57 0 124 11 124-50 0-59-68-47-124-48v98" id="ae"/><g id="o"><use transform="matrix(0.05,0,0,0.05,0,0)" xlink:href="#ad"/><use transform="matrix(0.05,0,0,0.05,14,0)" xlink:href="#I"/><use transform="matrix(0.05,0,0,0.05,24,0)" xlink:href="#z"/><use transform="matrix(0.05,0,0,0.05,29,0)" xlink:href="#Y"/><use transform="matrix(0.05,0,0,0.05,41.95,0)" xlink:href="#I"/><use transform="matrix(0.05,0,0,0.05,51.95,0)" xlink:href="#J"/><use transform="matrix(0.05,0,0,0.05,60.95,0)" xlink:href="#A"/><use transform="matrix(0.05,0,0,0.05,64.9,0)" xlink:href="#R"/><use transform="matrix(0.05,0,0,0.05,73.9,0)" xlink:href="#A"/><use transform="matrix(0.05,0,0,0.05,77.85000000000001,0)" xlink:href="#y"/><use transform="matrix(0.05,0,0,0.05,87.85000000000001,0)" xlink:href="#x"/><use transform="matrix(0.05,0,0,0.05,97.85000000000001,0)" xlink:href="#U"/><use transform="matrix(0.05,0,0,0.05,103.80000000000001,0)" xlink:href="#ae"/><use transform="matrix(0.05,0,0,0.05,115.80000000000001,0)" xlink:href="#A"/><use transform="matrix(0.05,0,0,0.05,119.75,0)" xlink:href="#z"/><use transform="matrix(0.05,0,0,0.05,124.75,0)" xlink:href="#R"/><use transform="matrix(0.05,0,0,0.05,133.75,0)" xlink:href="#H"/><use transform="matrix(0.05,0,0,0.05,143.75,0)" xlink:href="#D"/><use transform="matrix(0.05,0,0,0.05,148.75,0)" xlink:href="#Y"/><use transform="matrix(0.05,0,0,0.05,161.7,0)" xlink:href="#V"/></g><g id="p"><use transform="matrix(0.05,0,0,0.05,0,0)" xlink:href="#W"/><use transform="matrix(0.05,0,0,0.05,10,0)" xlink:href="#I"/><use transform="matrix(0.05,0,0,0.05,20,0)" xlink:href="#R"/><use transform="matrix(0.05,0,0,0.05,29,0)" xlink:href="#A"/><use transform="matrix(0.05,0,0,0.05,32.95,0)" xlink:href="#J"/><use transform="matrix(0.05,0,0,0.05,41.95,0)" xlink:href="#A"/><use transform="matrix(0.05,0,0,0.05,45.900000000000006,0)" xlink:href="#y"/><use transform="matrix(0.05,0,0,0.05,55.900000000000006,0)" xlink:href="#x"/></g><g id="q"><use transform="matrix(0.05,0,0,0.05,0,0)" xlink:href="#O"/><use transform="matrix(0.05,0,0,0.05,5,0)" xlink:href="#M"/><use transform="matrix(0.05,0,0,0.05,17.950000000000003,0)" xlink:href="#I"/><use transform="matrix(0.05,0,0,0.05,27.950000000000003,0)" xlink:href="#E"/><use transform="matrix(0.05,0,0,0.05,36.95,0)" xlink:href="#A"/><use transform="matrix(0.05,0,0,0.05,40.900000000000006,0)" xlink:href="#I"/><use transform="matrix(0.05,0,0,0.05,50.900000000000006,0)" xlink:href="#N"/><use transform="matrix(0.05,0,0,0.05,63.85,0)" xlink:href="#I"/><use transform="matrix(0.05,0,0,0.05,73.85000000000001,0)" xlink:href="#G"/><path d="M-.9 1.25h81.6v1.32H-.9z"/></g><g id="r"><use transform="matrix(0.05,0,0,0.05,0,0)" xlink:href="#O"/><use transform="matrix(0.05,0,0,0.05,5,0)" xlink:href="#D"/><use transform="matrix(0.05,0,0,0.05,10,0)" xlink:href="#x"/><use transform="matrix(0.05,0,0,0.05,20,0)" xlink:href="#x"/><use transform="matrix(0.05,0,0,0.05,30,0)" xlink:href="#y"/><use transform="matrix(0.05,0,0,0.05,40,0)" xlink:href="#E"/><use transform="matrix(0.05,0,0,0.05,49,0)" xlink:href="#F"/><use transform="matrix(0.05,0,0,0.05,59,0)" xlink:href="#z"/><use transform="matrix(0.05,0,0,0.05,64,0)" xlink:href="#y"/><use transform="matrix(0.05,0,0,0.05,74,0)" xlink:href="#G"/><path d="M-.9 1.25h81.75v1.32H-.9z"/></g><path d="M240 0l2-218c-23 76-54 145-80 218h-23L58-218 59 0H30v-248h44l77 211c21-75 51-140 76-211h43V0h-30" id="af"/><g id="s"><use transform="matrix(0.05,0,0,0.05,0,0)" xlink:href="#ae"/><use transform="matrix(0.05,0,0,0.05,12,0)" xlink:href="#F"/><use transform="matrix(0.05,0,0,0.05,22,0)" xlink:href="#J"/><use transform="matrix(0.05,0,0,0.05,31,0)" xlink:href="#J"/><use transform="matrix(0.05,0,0,0.05,40,0)" xlink:href="#af"/><use transform="matrix(0.05,0,0,0.05,54.95,0)" xlink:href="#I"/><use transform="matrix(0.05,0,0,0.05,64.95,0)" xlink:href="#J"/><use transform="matrix(0.05,0,0,0.05,73.95,0)" xlink:href="#J"/><use transform="matrix(0.05,0,0,0.05,82.95,0)" xlink:href="#F"/><use transform="matrix(0.05,0,0,0.05,92.95,0)" xlink:href="#ac"/><use transform="matrix(0.05,0,0,0.05,102.95,0)" xlink:href="#I"/><use transform="matrix(0.05,0,0,0.05,112.95,0)" xlink:href="#U"/><use transform="matrix(0.05,0,0,0.05,118.9,0)" xlink:href="#W"/><use transform="matrix(0.05,0,0,0.05,128.9,0)" xlink:href="#I"/><use transform="matrix(0.05,0,0,0.05,138.9,0)" xlink:href="#R"/><use transform="matrix(0.05,0,0,0.05,147.9,0)" xlink:href="#A"/><use transform="matrix(0.05,0,0,0.05,151.85,0)" xlink:href="#J"/><use transform="matrix(0.05,0,0,0.05,160.85,0)" xlink:href="#A"/><use transform="matrix(0.05,0,0,0.05,164.79999999999998,0)" xlink:href="#y"/><use transform="matrix(0.05,0,0,0.05,174.79999999999998,0)" xlink:href="#x"/><use transform="matrix(0.05,0,0,0.05,184.79999999999998,0)" xlink:href="#X"/><use transform="matrix(0.05,0,0,0.05,189.79999999999998,0)" xlink:href="#D"/><use transform="matrix(0.05,0,0,0.05,194.79999999999998,0)" xlink:href="#x"/><use transform="matrix(0.05,0,0,0.05,204.79999999999998,0)" xlink:href="#x"/><use transform="matrix(0.05,0,0,0.05,214.79999999999995,0)" xlink:href="#y"/><use transform="matrix(0.05,0,0,0.05,224.79999999999995,0)" xlink:href="#E"/><use transform="matrix(0.05,0,0,0.05,233.79999999999995,0)" xlink:href="#F"/><use transform="matrix(0.05,0,0,0.05,243.79999999999995,0)" xlink:href="#z"/><use transform="matrix(0.05,0,0,0.05,248.79999999999995,0)" xlink:href="#y"/><use transform="matrix(0.05,0,0,0.05,258.79999999999995,0)" xlink:href="#D"/><use transform="matrix(0.05,0,0,0.05,263.79999999999995,0)" xlink:href="#Y"/><use transform="matrix(0.05,0,0,0.05,276.74999999999994,0)" xlink:href="#V"/></g><path d="M127-220V0H93v-220H8v-28h204v28h-85" id="ag"/><g id="t"><use transform="matrix(0.05,0,0,0.05,0,0)" xlink:href="#ag"/><use transform="matrix(0.05,0,0,0.05,10.3,0)" xlink:href="#G"/><use transform="matrix(0.05,0,0,0.05,16.25,0)" xlink:href="#K"/><use transform="matrix(0.05,0,0,0.05,26.25,0)" xlink:href="#I"/></g><g id="u"><use transform="matrix(0.05,0,0,0.05,0,0)" xlink:href="#ag"/><use transform="matrix(0.05,0,0,0.05,10.950000000000001,0)" xlink:href="#M"/><use transform="matrix(0.05,0,0,0.05,23.900000000000002,0)" xlink:href="#K"/><use transform="matrix(0.05,0,0,0.05,33.900000000000006,0)" xlink:href="#I"/></g></defs></g></svg>