<svg xmlns="http://www.w3.org/2000/svg" xmlns:xlink="http://www.w3.org/1999/xlink" xmlns:lucid="lucid" width="1880" height="1180"><g transform="translate(-300 -1360)" lucid:page-tab-id="0_0"><path d="M320 1380h115v20l-10 10H320z" fill="#fff"/><path d="M435 1380v20l-10 10H320" stroke="#000" stroke-width="2" fill="none"/><path d="M320 1380h1840v1140H320z" stroke="#000" stroke-width="2" fill="none"/><use xlink:href="#a" transform="matrix(1,0,0,1,328,1380) translate(0 18.6)"/><use xlink:href="#b" transform="matrix(1,0,0,1,328,1380) translate(25.950000000000003 18.6)"/><path d="M467.75 1434.28c0 10.9-8.84 19.75-19.75 19.75-10.9 0-19.75-8.84-19.75-19.75 0-10.9 8.84-19.75 19.75-19.75 10.9 0 19.75 8.85 19.75 19.75z" stroke="#000" stroke-width="2" fill="#fff"/><path d="M448 1454.03v55.3l40 63.2m-40-63.2l-40 63.2m0-98.75h80" stroke="#000" stroke-width="2" fill="none"/><path d="M408 1414.53h80v180h-80z" fill="none"/><use xlink:href="#c" transform="matrix(1,0,0,1,328,1572.5333333333333) translate(96.55 14.6)"/><path d="M428 1634.53h40V2340h-40z" stroke="#000" stroke-width="2" fill="#fff"/><path d="M447 1494.4v9.2m0 9.2v18.43m0 9.2v18.43m0 9.2v18.43m0 9.2v18.4m0 9.22v9.2M447 1632.5v1.03" stroke="#000" stroke-width="2" fill="none"/><path d="M688 1444.53h160v120H688z" stroke="#000" stroke-width="2" fill="#fff"/><use xlink:href="#d" transform="matrix(1,0,0,1,688,1444.5333333333333) translate(35.10499999999999 63.15)"/><path d="M768 1566.53v9.8m0 9.8v19.6m0 9.8v19.6m0 9.8v19.6m0 9.8v19.6m0 9.8v9.8" stroke="#000" stroke-width="2" fill="none"/><path d="M769 1566.56h-2v-1.03h2z"/><path d="M768 1713.5v1.03" stroke="#000" stroke-width="2" fill="none"/><path d="M748 1640h40v700h-40z" stroke="#000" stroke-width="2" fill="#fff"/><path d="M470 1764.53h258.5" stroke="#000" stroke-width="2" fill="none"/><path d="M470.03 1765.53H469v-2h1.03z"/><path d="M743.76 1764.53l-14.26 4.64v-9.27z" stroke="#000" stroke-width="2"/><use xlink:href="#e" transform="matrix(1,0,0,1,513.775,1738.9333333333334) translate(0 14.4)"/><use xlink:href="#f" transform="matrix(1,0,0,1,513.775,1738.9333333333334) translate(43.85 14.4)"/><path d="M1108 1474.53h160v120h-160z" stroke="#000" stroke-width="2" fill="#fff"/><use xlink:href="#g" transform="matrix(1,0,0,1,1108,1474.5333333333333) translate(41.07999999999999 63.15)"/><path d="M1168 1734.53h40V2080h-40z" stroke="#000" stroke-width="2" fill="#fff"/><path d="M1188 1596.53v9.07m0 9.07v18.13m0 9.07V1660m0 9.07v18.13m0 9.07v18.13m0 9.07v9.06" stroke="#000" stroke-width="2" fill="none"/><path d="M1189 1596.56h-2v-1.03h2z"/><path d="M1188 1732.5v1.03M790 1784.53h358.5" stroke="#000" stroke-width="2" fill="none"/><path d="M790.03 1785.53H789v-2h1.03z"/><path d="M1163.76 1784.53l-14.26 4.64v-9.27z" stroke="#000" stroke-width="2"/><use xlink:href="#h" transform="matrix(1,0,0,1,906.2,1758.9333333333334) translate(0 14.4)"/><path d="M940 1800h100v20l-10 10h-90z" fill="#fff"/><path d="M1040 1800v20l-10 10h-90" stroke="#000" stroke-width="2" fill="none"/><path d="M940 1800h1120v560H940zM940 1955.7h20m15 0h20m15 0h20m15 0h20m15 0h20m15 0h20m15 0h20m15 0h20m15 0h20m15 0h20m15 0h20m15 0h20m15 0h20m15 0h20m15 0h20m15 0h20m15 0h20m15 0h20m15 0h20m15 0h20m15 0h20m15 0h20m15 0h20m15 0h20m15 0h20m15 0h20m15 0h20m15 0h20m15 0h20m15 0h20m15 0h20m15 0h20" stroke="#000" stroke-width="2" fill="none"/><use xlink:href="#i" transform="matrix(1,0,0,1,948,1800) translate(0 18.6)"/><use xlink:href="#j" transform="matrix(1,0,0,1,952,1838) translate(0 18.6)"/><use xlink:href="#k" transform="matrix(1,0,0,1,952,1838) translate(18.95 18.6)"/><use xlink:href="#l" transform="matrix(1,0,0,1,952,1838) translate(58.900000000000006 18.6)"/><use xlink:href="#m" transform="matrix(1,0,0,1,952,1963.6997219647822) translate(0 18.6)"/><path d="M1166 1882.53h-9.96m-9.96 0h-19.9m-9.97 0h-19.9m-9.97 0h-19.9m-9.97 0h-19.92m-9.96 0h-19.9m-9.97 0h-19.9m-9.97 0h-19.9m-9.97 0h-19.92m-9.96 0h-19.9m-9.97 0h-19.9m-9.96 0h-19.92m-9.96 0h-9.96" stroke="#000" stroke-width="2" fill="none"/><path d="M1167 1883.53h-1.03v-2h1.03z"/><path d="M792.24 1882.53l14.26-4.63v9.27z" stroke="#000" stroke-width="2"/><use xlink:href="#n" transform="matrix(1,0,0,1,953.575,1886.5333333333333) translate(0 14.4)"/><path d="M746 1901.2h-9.57m-9.58 0H707.7m-9.57 0h-19.15m-9.57 0h-19.14m-9.57 0h-19.16m-9.58 0h-19.14m-9.58 0H564.1m-9.58 0h-19.15m-9.57 0h-19.15m-9.57 0h-9.58" stroke="#000" stroke-width="2" fill="none"/><path d="M747 1902.2h-1.03v-2H747z"/><path d="M472.24 1901.2l14.26-4.64v9.28z" stroke="#000" stroke-width="2"/><use xlink:href="#o" transform="matrix(1,0,0,1,535.125,1905.2) translate(0 14.4)"/><use xlink:href="#p" transform="matrix(1,0,0,1,535.125,1905.2) translate(42.900000000000006 14.4)"/><use xlink:href="#q" transform="matrix(1,0,0,1,535.125,1905.2) translate(108.80000000000001 14.4)"/><path d="M1166 2034.53h-9.96m-9.96 0h-19.9m-9.97 0h-19.9m-9.97 0h-19.9m-9.97 0h-19.92m-9.96 0h-19.9m-9.97 0h-19.9m-9.97 0h-19.9m-9.97 0h-19.92m-9.95 0h-19.93m-9.96 0h-19.9m-9.96 0h-19.92m-9.96 0h-9.96" stroke="#000" stroke-width="2" fill="none"/><path d="M1167 2035.53h-1.03v-2h1.03z"/><path d="M792.24 2034.53l14.26-4.63v9.27z" stroke="#000" stroke-width="2"/><use xlink:href="#r" transform="matrix(1,0,0,1,950.025,2038.5333333333335) translate(0 14.4)"/><path d="M470 1693.86h258.5" stroke="#000" stroke-width="2" fill="none"/><path d="M470.03 1694.86H469v-2h1.03z"/><path d="M743.76 1693.86l-14.26 4.64v-9.27z" stroke="#000" stroke-width="2"/><use xlink:href="#s" transform="matrix(1,0,0,1,511.175,1668.2619718309857) translate(0 14.4)"/><use xlink:href="#t" transform="matrix(1,0,0,1,511.175,1668.2619718309857) translate(47.95 14.4)"/><use xlink:href="#u" transform="matrix(1,0,0,1,511.175,1668.2619718309857) translate(141.75 14.4)"/><path d="M1539 2080h160v120h-160z" stroke="#000" stroke-width="2" fill="#fff"/><use xlink:href="#v" transform="matrix(1,0,0,1,1539,2080) translate(23.12999999999999 63.15)"/><path d="M790 2160.85h9.95m9.95 0h19.9m9.95 0h19.9m9.94 0h19.9m9.94 0h19.9m9.95 0h19.9m9.93 0h19.9m9.95 0h19.9m9.95 0h19.9m9.95 0h19.9m9.94 0h19.9m9.95 0h19.9m9.95 0h19.9m9.95 0h19.9m9.94 0h19.9m9.96 0h19.9m9.95 0h19.9m9.95 0h19.9m9.95 0h19.9m9.95 0h19.9m9.95 0h19.9m9.94 0h19.9m9.95 0h19.9m9.94 0h19.9m9.95 0h19.88m9.95 0h9.95" stroke="#000" stroke-width="2" fill="none"/><path d="M790.03 2161.85H789v-2h1.03z"/><path d="M1518.82 2171.03l17.22-10.18-17.22-10.18" stroke="#000" stroke-width="2" fill="none"/><use xlink:href="#w" transform="matrix(1,0,0,1,1122.6,2135.247887323944) translate(0 14.4)"/><path d="M1619 2202v10.33m0 10.34v20.66m0 10.34v20.66m0 10.34v20.66m0 10.34v20.66m0 10.34v20.66m0 10.34v20.66m0 10.34V2419" stroke="#000" stroke-width="2" fill="none"/><path d="M1620 2202.03h-2V2201h2z"/><path d="M1619 2418.97v1.03" stroke="#000" stroke-width="2" fill="none"/><path d="M1599 2220h40v120h-40z" stroke="#000" stroke-width="2" fill="#fff"/><path d="M1597 2246.03h-10.12m-10.12 0h-20.25m-10.1 0h-20.25m-10.12 0h-20.25m-10.12 0h-20.24m-10.12 0h-20.25m-10.12 0h-20.24m-10.14 0h-20.24m-10.12 0h-20.24m-10.13 0h-20.24m-10.13 0h-20.24m-10.13 0h-20.24m-10.12 0h-20.25m-10.13 0h-20.24m-10.12 0h-20.24m-10.12 0h-20.24m-10.12 0h-20.25m-10.12 0h-20.23m-10.12 0h-20.25m-10.12 0h-20.24m-10.12 0h-20.25m-10.12 0H949.2m-10.12 0h-20.24m-10.12 0h-20.24m-10.13 0H858.1m-10.1 0h-20.25m-10.13 0H807.5" stroke="#000" stroke-width="2" fill="none"/><path d="M1598 2247.03h-1.03v-2h1.03z"/><path d="M792.24 2246.03l14.26-4.63v9.27z" stroke="#000" stroke-width="2"/><use xlink:href="#x" transform="matrix(1,0,0,1,1175.375,2250.0309859154922) translate(0 14.4)"/><path d="M746 2291.66h-9.57m-9.58 0H707.7m-9.57 0h-19.15m-9.57 0h-19.14m-9.57 0h-19.16m-9.58 0h-19.14m-9.58 0H564.1m-9.58 0h-19.15m-9.57 0h-19.15m-9.57 0h-9.58" stroke="#000" stroke-width="2" fill="none"/><path d="M747 2292.66h-1.03v-2H747z"/><path d="M472.24 2291.66l14.26-4.63v9.27z" stroke="#000" stroke-width="2"/><use xlink:href="#o" transform="matrix(1,0,0,1,561.55,2295.664788732394) translate(0 14.4)"/><use xlink:href="#y" transform="matrix(1,0,0,1,561.55,2295.664788732394) translate(42.900000000000006 14.4)"/><path d="M1188 2082v12.33m0 12.34V2119" stroke="#000" stroke-width="2" fill="none"/><path d="M1189 2082.03h-2V2081h2z"/><path d="M1188 2118.97v1.03M768 2342v10.78m0 10.78v21.55m0 10.8v21.54m0 10.78V2439" stroke="#000" stroke-width="2" fill="none"/><path d="M769 2342.03h-2V2341h2z"/><path d="M768 2438.97v1.03M448 2342v10.78m0 10.78v21.55m0 10.8v21.54m0 10.78V2439" stroke="#000" stroke-width="2" fill="none"/><path d="M449 2342.03h-2V2341h2z"/><path d="M448 2438.97v1.03" stroke="#000" stroke-width="2" fill="none"/><defs><path d="M137-138c1-29-70-34-71-4 15 46 118 7 119 86 1 83-164 76-172 9l43-7c4 19 20 25 44 25 33 8 57-30 24-41C81-84 22-81 20-136c-2-80 154-74 161-7" id="z"/><path d="M88-194c31-1 46 15 58 34l-1-101h50l1 261h-48c-2-10 0-23-3-31C134-8 116 4 84 4 32 4 16-41 15-95c0-56 19-97 73-99zm17 164c33 0 40-30 41-66 1-37-9-64-41-64s-38 30-39 65c0 43 13 65 39 65" id="A"/><g id="a"><use transform="matrix(0.05,0,0,0.05,0,0)" xlink:href="#z"/><use transform="matrix(0.05,0,0,0.05,10,0)" xlink:href="#A"/><path d="M-.9.97h22.75v1.9H-.9z"/></g><path d="M233-177c-1 41-23 64-60 70L243 0h-38l-65-103H63V0H30v-248c88 3 205-21 203 71zM63-129c60-2 137 13 137-47 0-61-80-42-137-45v92" id="B"/><path d="M100-194c63 0 86 42 84 106H49c0 40 14 67 53 68 26 1 43-12 49-29l28 8c-11 28-37 45-77 45C44 4 14-33 15-96c1-61 26-98 85-98zm52 81c6-60-76-77-97-28-3 7-6 17-6 28h103" id="C"/><path d="M177-190C167-65 218 103 67 71c-23-6-38-20-44-43l32-5c15 47 100 32 89-28v-30C133-14 115 1 83 1 29 1 15-40 15-95c0-56 16-97 71-98 29-1 48 16 59 35 1-10 0-23 2-32h30zM94-22c36 0 50-32 50-73 0-42-14-75-50-75-39 0-46 34-46 75s6 73 46 73" id="D"/><path d="M24-231v-30h32v30H24zM24 0v-190h32V0H24" id="E"/><path d="M135-143c-3-34-86-38-87 0 15 53 115 12 119 90S17 21 10-45l28-5c4 36 97 45 98 0-10-56-113-15-118-90-4-57 82-63 122-42 12 7 21 19 24 35" id="F"/><path d="M59-47c-2 24 18 29 38 22v24C64 9 27 4 27-40v-127H5v-23h24l9-43h21v43h35v23H59v120" id="G"/><path d="M114-163C36-179 61-72 57 0H25l-1-190h30c1 12-1 29 2 39 6-27 23-49 58-41v29" id="H"/><g id="b"><use transform="matrix(0.05,0,0,0.05,0,0)" xlink:href="#B"/><use transform="matrix(0.05,0,0,0.05,12.950000000000001,0)" xlink:href="#C"/><use transform="matrix(0.05,0,0,0.05,22.950000000000003,0)" xlink:href="#D"/><use transform="matrix(0.05,0,0,0.05,32.95,0)" xlink:href="#E"/><use transform="matrix(0.05,0,0,0.05,36.900000000000006,0)" xlink:href="#F"/><use transform="matrix(0.05,0,0,0.05,45.900000000000006,0)" xlink:href="#G"/><use transform="matrix(0.05,0,0,0.05,50.900000000000006,0)" xlink:href="#C"/><use transform="matrix(0.05,0,0,0.05,60.900000000000006,0)" xlink:href="#H"/></g><path d="M232-93c-1 65-40 97-104 97C67 4 28-28 28-90v-158h33c8 89-33 224 67 224 102 0 64-133 71-224h33v155" id="I"/><g id="c"><use transform="matrix(0.05,0,0,0.05,0,0)" xlink:href="#I"/><use transform="matrix(0.05,0,0,0.05,12.950000000000001,0)" xlink:href="#F"/><use transform="matrix(0.05,0,0,0.05,21.950000000000003,0)" xlink:href="#C"/><use transform="matrix(0.05,0,0,0.05,31.950000000000003,0)" xlink:href="#H"/><use transform="matrix(0.05,0,0,0.05,37.900000000000006,0)" xlink:href="#F"/></g><path d="M33-154v-36h34v36H33zM33 0v-36h34V0H33" id="J"/><path d="M33 0v-248h34V0H33" id="K"/><g id="d"><use transform="matrix(0.05,0,0,0.05,0,0)" xlink:href="#J"/><use transform="matrix(0.05,0,0,0.05,5,0)" xlink:href="#B"/><use transform="matrix(0.05,0,0,0.05,17.950000000000003,0)" xlink:href="#C"/><use transform="matrix(0.05,0,0,0.05,27.950000000000003,0)" xlink:href="#D"/><use transform="matrix(0.05,0,0,0.05,37.95,0)" xlink:href="#E"/><use transform="matrix(0.05,0,0,0.05,41.900000000000006,0)" xlink:href="#F"/><use transform="matrix(0.05,0,0,0.05,50.900000000000006,0)" xlink:href="#G"/><use transform="matrix(0.05,0,0,0.05,55.900000000000006,0)" xlink:href="#C"/><use transform="matrix(0.05,0,0,0.05,65.9,0)" xlink:href="#H"/><use transform="matrix(0.05,0,0,0.05,71.85000000000001,0)" xlink:href="#I"/><use transform="matrix(0.05,0,0,0.05,84.80000000000001,0)" xlink:href="#K"/><path d="M-.9 1.25h91.6v1.32H-.9z"/></g><path d="M212-179c-10-28-35-45-73-45-59 0-87 40-87 99 0 60 29 101 89 101 43 0 62-24 78-52l27 14C228-24 195 4 139 4 59 4 22-46 18-125c-6-104 99-153 187-111 19 9 31 26 39 46" id="L"/><path d="M24 0v-261h32V0H24" id="M"/><path d="M96-169c-40 0-48 33-48 73s9 75 48 75c24 0 41-14 43-38l32 2c-6 37-31 61-74 61-59 0-76-41-82-99-10-93 101-131 147-64 4 7 5 14 7 22l-32 3c-4-21-16-35-41-35" id="N"/><path d="M143 0L79-87 56-68V0H24v-261h32v163l83-92h37l-77 82L181 0h-38" id="O"/><g id="e"><use transform="matrix(0.05,0,0,0.05,0,0)" xlink:href="#L"/><use transform="matrix(0.05,0,0,0.05,12.950000000000001,0)" xlink:href="#M"/><use transform="matrix(0.05,0,0,0.05,16.900000000000002,0)" xlink:href="#E"/><use transform="matrix(0.05,0,0,0.05,20.85,0)" xlink:href="#N"/><use transform="matrix(0.05,0,0,0.05,29.85,0)" xlink:href="#O"/></g><path d="M160-131c35 5 61 23 61 61C221 17 115-2 30 0v-248c76 3 177-17 177 60 0 33-19 50-47 57zm-97-11c50-1 110 9 110-42 0-47-63-36-110-37v79zm0 115c55-2 124 14 124-45 0-56-70-42-124-44v89" id="P"/><path d="M117-194c89-4 53 116 60 194h-32v-121c0-31-8-49-39-48C34-167 62-67 57 0H25l-1-190h30c1 10-1 24 2 32 11-22 29-35 61-36" id="Q"/><path d="M87 75C49 33 22-17 22-94c0-76 28-126 65-167h31c-38 41-64 92-64 168S80 34 118 75H87" id="R"/><path d="M33-261c38 41 65 92 65 168S71 34 33 75H2C39 34 66-17 66-93S39-220 2-261h31" id="S"/><g id="f"><use transform="matrix(0.05,0,0,0.05,0,0)" xlink:href="#B"/><use transform="matrix(0.05,0,0,0.05,12.950000000000001,0)" xlink:href="#C"/><use transform="matrix(0.05,0,0,0.05,22.950000000000003,0)" xlink:href="#D"/><use transform="matrix(0.05,0,0,0.05,32.95,0)" xlink:href="#E"/><use transform="matrix(0.05,0,0,0.05,36.900000000000006,0)" xlink:href="#F"/><use transform="matrix(0.05,0,0,0.05,45.900000000000006,0)" xlink:href="#G"/><use transform="matrix(0.05,0,0,0.05,50.900000000000006,0)" xlink:href="#C"/><use transform="matrix(0.05,0,0,0.05,60.900000000000006,0)" xlink:href="#H"/><use transform="matrix(0.05,0,0,0.05,66.85000000000001,0)" xlink:href="#P"/><use transform="matrix(0.05,0,0,0.05,78.85000000000001,0)" xlink:href="#G"/><use transform="matrix(0.05,0,0,0.05,83.85000000000001,0)" xlink:href="#Q"/><use transform="matrix(0.05,0,0,0.05,93.85000000000001,0)" xlink:href="#L"/><use transform="matrix(0.05,0,0,0.05,106.80000000000001,0)" xlink:href="#M"/><use transform="matrix(0.05,0,0,0.05,110.75,0)" xlink:href="#E"/><use transform="matrix(0.05,0,0,0.05,114.7,0)" xlink:href="#N"/><use transform="matrix(0.05,0,0,0.05,123.7,0)" xlink:href="#O"/><use transform="matrix(0.05,0,0,0.05,132.70000000000002,0)" xlink:href="#R"/><use transform="matrix(0.05,0,0,0.05,138.65,0)" xlink:href="#S"/></g><path d="M84 4C-5 8 30-112 23-190h32v120c0 31 7 50 39 49 72-2 45-101 50-169h31l1 190h-30c-1-10 1-25-2-33-11 22-28 36-60 37" id="T"/><g id="g"><use transform="matrix(0.05,0,0,0.05,0,0)" xlink:href="#T"/><use transform="matrix(0.05,0,0,0.05,10,0)" xlink:href="#F"/><use transform="matrix(0.05,0,0,0.05,19,0)" xlink:href="#C"/><use transform="matrix(0.05,0,0,0.05,29,0)" xlink:href="#H"/><use transform="matrix(0.05,0,0,0.05,34.95,0)" xlink:href="#J"/><use transform="matrix(0.05,0,0,0.05,39.95,0)" xlink:href="#I"/><use transform="matrix(0.05,0,0,0.05,52.900000000000006,0)" xlink:href="#F"/><use transform="matrix(0.05,0,0,0.05,61.900000000000006,0)" xlink:href="#C"/><use transform="matrix(0.05,0,0,0.05,71.9,0)" xlink:href="#H"/><path d="M-.9 1.25h79.65v1.32H-.9z"/></g><path d="M106-169C34-169 62-67 57 0H25v-261h32l-1 103c12-21 28-36 61-36 89 0 53 116 60 194h-32v-121c2-32-8-49-39-48" id="U"/><path d="M210-169c-67 3-38 105-44 169h-31v-121c0-29-5-50-35-48C34-165 62-65 56 0H25l-1-190h30c1 10-1 24 2 32 10-44 99-50 107 0 11-21 27-35 58-36 85-2 47 119 55 194h-31v-121c0-29-5-49-35-48" id="V"/><path d="M141-36C126-15 110 5 73 4 37 3 15-17 15-53c-1-64 63-63 125-63 3-35-9-54-41-54-24 1-41 7-42 31l-33-3c5-37 33-52 76-52 45 0 72 20 72 64v82c-1 20 7 32 28 27v20c-31 9-61-2-59-35zM48-53c0 20 12 33 32 33 41-3 63-29 60-74-43 2-92-5-92 41" id="W"/><g id="h"><use transform="matrix(0.05,0,0,0.05,0,0)" xlink:href="#L"/><use transform="matrix(0.05,0,0,0.05,12.950000000000001,0)" xlink:href="#U"/><use transform="matrix(0.05,0,0,0.05,22.950000000000003,0)" xlink:href="#C"/><use transform="matrix(0.05,0,0,0.05,32.95,0)" xlink:href="#N"/><use transform="matrix(0.05,0,0,0.05,41.95,0)" xlink:href="#O"/><use transform="matrix(0.05,0,0,0.05,50.95,0)" xlink:href="#I"/><use transform="matrix(0.05,0,0,0.05,63.900000000000006,0)" xlink:href="#F"/><use transform="matrix(0.05,0,0,0.05,72.9,0)" xlink:href="#C"/><use transform="matrix(0.05,0,0,0.05,82.9,0)" xlink:href="#H"/><use transform="matrix(0.05,0,0,0.05,88.85000000000001,0)" xlink:href="#R"/><use transform="matrix(0.05,0,0,0.05,94.80000000000001,0)" xlink:href="#C"/><use transform="matrix(0.05,0,0,0.05,104.80000000000001,0)" xlink:href="#V"/><use transform="matrix(0.05,0,0,0.05,119.75,0)" xlink:href="#W"/><use transform="matrix(0.05,0,0,0.05,129.75,0)" xlink:href="#E"/><use transform="matrix(0.05,0,0,0.05,133.7,0)" xlink:href="#M"/><use transform="matrix(0.05,0,0,0.05,137.64999999999998,0)" xlink:href="#S"/></g><path d="M205 0l-28-72H64L36 0H1l101-248h38L239 0h-34zm-38-99l-47-123c-12 45-31 82-46 123h93" id="X"/><path d="M108 0H70L1-190h34L89-25l56-165h34" id="Y"/><g id="i"><use transform="matrix(0.05,0,0,0.05,0,0)" xlink:href="#X"/><use transform="matrix(0.05,0,0,0.05,12,0)" xlink:href="#M"/><use transform="matrix(0.05,0,0,0.05,15.949999999999998,0)" xlink:href="#G"/><use transform="matrix(0.05,0,0,0.05,20.95,0)" xlink:href="#C"/><use transform="matrix(0.05,0,0,0.05,30.950000000000003,0)" xlink:href="#H"/><use transform="matrix(0.05,0,0,0.05,36.9,0)" xlink:href="#Q"/><use transform="matrix(0.05,0,0,0.05,46.9,0)" xlink:href="#W"/><use transform="matrix(0.05,0,0,0.05,56.900000000000006,0)" xlink:href="#G"/><use transform="matrix(0.05,0,0,0.05,61.900000000000006,0)" xlink:href="#E"/><use transform="matrix(0.05,0,0,0.05,65.85,0)" xlink:href="#Y"/><use transform="matrix(0.05,0,0,0.05,74.85,0)" xlink:href="#C"/></g><path d="M26 75v-336h71v23H56V52h41v23H26" id="Z"/><path d="M101-234c-31-9-42 10-38 44h38v23H63V0H32v-167H5v-23h27c-7-52 17-82 69-68v24" id="aa"/><g id="j"><use transform="matrix(0.05,0,0,0.05,0,0)" xlink:href="#Z"/><use transform="matrix(0.05,0,0,0.05,5,0)" xlink:href="#E"/><use transform="matrix(0.05,0,0,0.05,8.95,0)" xlink:href="#aa"/></g><g id="k"><use transform="matrix(0.05,0,0,0.05,0,0)" xlink:href="#T"/><use transform="matrix(0.05,0,0,0.05,10,0)" xlink:href="#F"/><use transform="matrix(0.05,0,0,0.05,19,0)" xlink:href="#C"/><use transform="matrix(0.05,0,0,0.05,29,0)" xlink:href="#H"/></g><path d="M141 0L90-78 38 0H4l68-98-65-92h35l48 74 47-74h35l-64 92 68 98h-35" id="ab"/><path d="M3 75V52h41v-290H3v-23h71V75H3" id="ac"/><g id="l"><use transform="matrix(0.05,0,0,0.05,0,0)" xlink:href="#C"/><use transform="matrix(0.05,0,0,0.05,10,0)" xlink:href="#ab"/><use transform="matrix(0.05,0,0,0.05,19,0)" xlink:href="#E"/><use transform="matrix(0.05,0,0,0.05,22.95,0)" xlink:href="#F"/><use transform="matrix(0.05,0,0,0.05,31.950000000000003,0)" xlink:href="#G"/><use transform="matrix(0.05,0,0,0.05,36.95,0)" xlink:href="#ac"/></g><path d="M30 0v-248h187v28H63v79h144v27H63v87h162V0H30" id="ad"/><g id="m"><use transform="matrix(0.05,0,0,0.05,0,0)" xlink:href="#Z"/><use transform="matrix(0.05,0,0,0.05,5,0)" xlink:href="#ad"/><use transform="matrix(0.05,0,0,0.05,17,0)" xlink:href="#M"/><use transform="matrix(0.05,0,0,0.05,20.95,0)" xlink:href="#F"/><use transform="matrix(0.05,0,0,0.05,29.950000000000003,0)" xlink:href="#C"/><use transform="matrix(0.05,0,0,0.05,39.95,0)" xlink:href="#ac"/></g><path d="M127-220V0H93v-220H8v-28h204v28h-85" id="ae"/><g id="n"><use transform="matrix(0.05,0,0,0.05,0,0)" xlink:href="#ae"/><use transform="matrix(0.05,0,0,0.05,10.950000000000001,0)" xlink:href="#B"/><use transform="matrix(0.05,0,0,0.05,23.900000000000002,0)" xlink:href="#I"/><use transform="matrix(0.05,0,0,0.05,36.85,0)" xlink:href="#ad"/></g><g id="o"><use transform="matrix(0.05,0,0,0.05,0,0)" xlink:href="#I"/><use transform="matrix(0.05,0,0,0.05,12.950000000000001,0)" xlink:href="#F"/><use transform="matrix(0.05,0,0,0.05,21.950000000000003,0)" xlink:href="#C"/><use transform="matrix(0.05,0,0,0.05,31.950000000000003,0)" xlink:href="#H"/></g><path d="M85-194c31 0 48 13 60 33l-1-100h32l1 261h-30c-2-10 0-23-3-31C134-8 116 4 85 4 32 4 16-35 15-94c0-66 23-100 70-100zm9 24c-40 0-46 34-46 75 0 40 6 74 45 74 42 0 51-32 51-76 0-42-9-74-50-73" id="af"/><path d="M179-190L93 31C79 59 56 82 12 73V49c39 6 53-20 64-50L1-190h34L92-34l54-156h33" id="ag"/><g id="p"><use transform="matrix(0.05,0,0,0.05,0,0)" xlink:href="#X"/><use transform="matrix(0.05,0,0,0.05,12,0)" xlink:href="#M"/><use transform="matrix(0.05,0,0,0.05,15.949999999999998,0)" xlink:href="#H"/><use transform="matrix(0.05,0,0,0.05,21.9,0)" xlink:href="#C"/><use transform="matrix(0.05,0,0,0.05,31.899999999999995,0)" xlink:href="#W"/><use transform="matrix(0.05,0,0,0.05,41.9,0)" xlink:href="#af"/><use transform="matrix(0.05,0,0,0.05,51.900000000000006,0)" xlink:href="#ag"/></g><g id="q"><use transform="matrix(0.05,0,0,0.05,0,0)" xlink:href="#C"/><use transform="matrix(0.05,0,0,0.05,10,0)" xlink:href="#ab"/><use transform="matrix(0.05,0,0,0.05,19,0)" xlink:href="#E"/><use transform="matrix(0.05,0,0,0.05,22.95,0)" xlink:href="#F"/><use transform="matrix(0.05,0,0,0.05,31.950000000000003,0)" xlink:href="#G"/></g><path d="M63-220v92h138v28H63V0H30v-248h175v28H63" id="ah"/><path d="M30 0v-248h33v221h125V0H30" id="ai"/><path d="M185-189c-5-48-123-54-124 2 14 75 158 14 163 119 3 78-121 87-175 55-17-10-28-26-33-46l33-7c5 56 141 63 141-1 0-78-155-14-162-118-5-82 145-84 179-34 5 7 8 16 11 25" id="aj"/><g id="r"><use transform="matrix(0.05,0,0,0.05,0,0)" xlink:href="#ah"/><use transform="matrix(0.05,0,0,0.05,9.950000000000001,0)" xlink:href="#X"/><use transform="matrix(0.05,0,0,0.05,21.950000000000003,0)" xlink:href="#ai"/><use transform="matrix(0.05,0,0,0.05,31.950000000000003,0)" xlink:href="#aj"/><use transform="matrix(0.05,0,0,0.05,43.95,0)" xlink:href="#ad"/></g><g id="s"><use transform="matrix(0.05,0,0,0.05,0,0)" xlink:href="#ad"/><use transform="matrix(0.05,0,0,0.05,12,0)" xlink:href="#Q"/><use transform="matrix(0.05,0,0,0.05,22,0)" xlink:href="#G"/><use transform="matrix(0.05,0,0,0.05,27,0)" xlink:href="#C"/><use transform="matrix(0.05,0,0,0.05,37,0)" xlink:href="#H"/></g><path d="M100-194c62-1 85 37 85 99 1 63-27 99-86 99S16-35 15-95c0-66 28-99 85-99zM99-20c44 1 53-31 53-75 0-43-8-75-51-75s-53 32-53 75 10 74 51 75" id="ak"/><g id="t"><use transform="matrix(0.05,0,0,0.05,0,0)" xlink:href="#H"/><use transform="matrix(0.05,0,0,0.05,5.95,0)" xlink:href="#C"/><use transform="matrix(0.05,0,0,0.05,15.949999999999998,0)" xlink:href="#D"/><use transform="matrix(0.05,0,0,0.05,25.950000000000003,0)" xlink:href="#E"/><use transform="matrix(0.05,0,0,0.05,29.899999999999995,0)" xlink:href="#F"/><use transform="matrix(0.05,0,0,0.05,38.9,0)" xlink:href="#G"/><use transform="matrix(0.05,0,0,0.05,43.9,0)" xlink:href="#H"/><use transform="matrix(0.05,0,0,0.05,49.85,0)" xlink:href="#W"/><use transform="matrix(0.05,0,0,0.05,59.85,0)" xlink:href="#G"/><use transform="matrix(0.05,0,0,0.05,64.85,0)" xlink:href="#E"/><use transform="matrix(0.05,0,0,0.05,68.8,0)" xlink:href="#ak"/><use transform="matrix(0.05,0,0,0.05,78.8,0)" xlink:href="#Q"/></g><g id="u"><use transform="matrix(0.05,0,0,0.05,0,0)" xlink:href="#af"/><use transform="matrix(0.05,0,0,0.05,10,0)" xlink:href="#C"/><use transform="matrix(0.05,0,0,0.05,20,0)" xlink:href="#G"/><use transform="matrix(0.05,0,0,0.05,25,0)" xlink:href="#W"/><use transform="matrix(0.05,0,0,0.05,35,0)" xlink:href="#E"/><use transform="matrix(0.05,0,0,0.05,38.95,0)" xlink:href="#M"/><use transform="matrix(0.05,0,0,0.05,42.900000000000006,0)" xlink:href="#F"/></g><path d="M190 0L58-211 59 0H30v-248h39L202-35l-2-213h31V0h-41" id="al"/><path d="M206 0h-36l-40-164L89 0H53L-1-190h32L70-26l43-164h34l41 164 42-164h31" id="am"/><g id="v"><use transform="matrix(0.05,0,0,0.05,0,0)" xlink:href="#al"/><use transform="matrix(0.05,0,0,0.05,12.950000000000001,0)" xlink:href="#C"/><use transform="matrix(0.05,0,0,0.05,22.950000000000003,0)" xlink:href="#am"/><use transform="matrix(0.05,0,0,0.05,35.900000000000006,0)" xlink:href="#T"/><use transform="matrix(0.05,0,0,0.05,45.900000000000006,0)" xlink:href="#F"/><use transform="matrix(0.05,0,0,0.05,54.900000000000006,0)" xlink:href="#C"/><use transform="matrix(0.05,0,0,0.05,64.9,0)" xlink:href="#H"/><use transform="matrix(0.05,0,0,0.05,70.85000000000001,0)" xlink:href="#J"/><use transform="matrix(0.05,0,0,0.05,75.85000000000001,0)" xlink:href="#I"/><use transform="matrix(0.05,0,0,0.05,88.80000000000001,0)" xlink:href="#F"/><use transform="matrix(0.05,0,0,0.05,97.80000000000001,0)" xlink:href="#C"/><use transform="matrix(0.05,0,0,0.05,107.80000000000001,0)" xlink:href="#H"/><path d="M-.9 1.25h115.55v1.32H-.9z"/></g><g id="w"><use transform="matrix(0.05,0,0,0.05,0,0)" xlink:href="#X"/><use transform="matrix(0.05,0,0,0.05,12,0)" xlink:href="#af"/><use transform="matrix(0.05,0,0,0.05,22,0)" xlink:href="#af"/><use transform="matrix(0.05,0,0,0.05,32,0)" xlink:href="#I"/><use transform="matrix(0.05,0,0,0.05,44.95,0)" xlink:href="#F"/><use transform="matrix(0.05,0,0,0.05,53.95,0)" xlink:href="#C"/><use transform="matrix(0.05,0,0,0.05,63.95,0)" xlink:href="#H"/><use transform="matrix(0.05,0,0,0.05,69.9,0)" xlink:href="#R"/><use transform="matrix(0.05,0,0,0.05,75.85000000000001,0)" xlink:href="#S"/></g><g id="x"><use transform="matrix(0.05,0,0,0.05,0,0)" xlink:href="#ae"/><use transform="matrix(0.05,0,0,0.05,10.3,0)" xlink:href="#H"/><use transform="matrix(0.05,0,0,0.05,16.25,0)" xlink:href="#T"/><use transform="matrix(0.05,0,0,0.05,26.25,0)" xlink:href="#C"/></g><g id="y"><use transform="matrix(0.05,0,0,0.05,0,0)" xlink:href="#W"/><use transform="matrix(0.05,0,0,0.05,10,0)" xlink:href="#af"/><use transform="matrix(0.05,0,0,0.05,20,0)" xlink:href="#af"/><use transform="matrix(0.05,0,0,0.05,30,0)" xlink:href="#C"/><use transform="matrix(0.05,0,0,0.05,40,0)" xlink:href="#af"/></g></defs></g></svg>