<svg xmlns="http://www.w3.org/2000/svg" xmlns:xlink="http://www.w3.org/1999/xlink" xmlns:lucid="lucid" width="1720" height="1680"><g transform="translate(-320 -60)" lucid:page-tab-id="z20YldjTkxF6"><path d="M340 80h290v20l-10 10H340z" fill="#fff"/><path d="M630 80v20l-10 10H340" stroke="#000" stroke-width="2" fill="none"/><path d="M340 80h1680v1640H340z" stroke="#000" stroke-width="2" fill="none"/><use xlink:href="#a" transform="matrix(1,0,0,1,348,80) translate(0 18.6)"/><use xlink:href="#b" transform="matrix(1,0,0,1,348,80) translate(25.950000000000003 18.6)"/><use xlink:href="#c" transform="matrix(1,0,0,1,348,80) translate(74.9 18.6)"/><use xlink:href="#d" transform="matrix(1,0,0,1,348,80) translate(145.8 18.6)"/><use xlink:href="#e" transform="matrix(1,0,0,1,348,80) translate(170.8 18.6)"/><path d="M459.75 179.75c0 10.9-8.84 19.75-19.75 19.75-10.9 0-19.75-8.84-19.75-19.75 0-10.9 8.84-19.75 19.75-19.75 10.9 0 19.75 8.84 19.75 19.75z" stroke="#000" stroke-width="2" fill="#fff"/><path d="M440 199.5v55.3l40 63.2m-40-63.2L400 318m0-98.75h80" stroke="#000" stroke-width="2" fill="none"/><path d="M400 160h80v180h-80z" fill="none"/><use xlink:href="#f" transform="matrix(1,0,0,1,320,318) translate(82.6 14.6)"/><path d="M420 380h40v1260h-40z" stroke="#000" stroke-width="2" fill="#fff"/><path d="M439 239.86v9.2m0 9.22v18.42m0 9.2v18.43m0 9.2v18.42m0 9.2v18.43m0 9.2V378M439 377.97V379" stroke="#000" stroke-width="2" fill="none"/><path d="M779 220h160v120H779z" stroke="#000" stroke-width="2" fill="#fff"/><use xlink:href="#g" transform="matrix(1,0,0,1,779,219.9999999999999) translate(39.10499999999999 63.15)"/><path d="M839 380h40v1260h-40z" stroke="#000" stroke-width="2" fill="#fff"/><path d="M859 342v12m0 12v12" stroke="#000" stroke-width="2" fill="none"/><path d="M860 342.03h-2V341h2z"/><path d="M859 377.97V379" stroke="#000" stroke-width="2" fill="none"/><path d="M1239 200h160v120h-160z" stroke="#000" stroke-width="2" fill="#fff"/><use xlink:href="#h" transform="matrix(1,0,0,1,1239,199.9999999999999) translate(57.529999999999994 63.15)"/><path d="M1299 380h40v560h-40z" stroke="#000" stroke-width="2" fill="#fff"/><path d="M1319 322v9.33m0 9.34v18.66m0 9.34V378" stroke="#000" stroke-width="2" fill="none"/><path d="M1320 322.03h-2V321h2z"/><path d="M1319 377.97V379M837 760h-9.93m-9.93 0h-19.86m-9.93 0H767.5m-9.94 0H737.7m-9.94 0H707.9m-9.93 0H678.1m-9.92 0h-19.86m-9.93 0h-19.87m-9.93 0h-19.86m-9.93 0h-19.85m-9.93 0h-19.86m-9.94 0h-19.86m-9.93 0h-9.93" stroke="#000" stroke-width="2" fill="none"/><path d="M838 761h-1.03v-2H838z"/><path d="M464.24 760l14.26-4.64v9.28z" stroke="#000" stroke-width="2"/><use xlink:href="#i" transform="matrix(1,0,0,1,600.0759999999991,763.9999999999999) translate(0 14.4)"/><use xlink:href="#j" transform="matrix(1,0,0,1,600.0759999999991,763.9999999999999) translate(60.900000000000006 14.4)"/><path d="M462 1041.02h357.5" stroke="#000" stroke-width="2" fill="none"/><path d="M462.03 1042.02H461v-2h1.03z"/><path d="M834.76 1041.02l-14.26 4.64v-9.27z" stroke="#000" stroke-width="2"/><use xlink:href="#k" transform="matrix(1,0,0,1,620.2869978858351,1015.4218463706834) translate(0 14.4)"/><path d="M881 1440h619.5" stroke="#000" stroke-width="2" fill="none"/><path d="M881.03 1441H880v-2h1.03z"/><path d="M1515.76 1440l-14.26 4.64v-9.28z" stroke="#000" stroke-width="2"/><use xlink:href="#l" transform="matrix(1,0,0,1,1146.0460183227624,1414.4) translate(0 14.4)"/><path d="M462 419.65h357.5" stroke="#000" stroke-width="2" fill="none"/><path d="M462.03 420.65H461v-2h1.03z"/><path d="M834.76 419.65l-14.26 4.64V415z" stroke="#000" stroke-width="2"/><use xlink:href="#m" transform="matrix(1,0,0,1,591.8,394.0546863988726) translate(0 14.4)"/><path d="M881 463.38h398.5" stroke="#000" stroke-width="2" fill="none"/><path d="M881.03 464.38H880v-2h1.03z"/><path d="M1294.76 463.38L1280.5 468v-9.26z" stroke="#000" stroke-width="2"/><use xlink:href="#n" transform="matrix(1,0,0,1,1041.6,437.7756166314306) translate(0 14.4)"/><path d="M1039 500h100v20l-10 10h-90z" fill="#fff"/><path d="M1139 500v20l-10 10h-90" stroke="#000" stroke-width="2" fill="none"/><path d="M1039 500h860v380h-860z" stroke="#000" stroke-width="2" fill="none"/><use xlink:href="#o" transform="matrix(1,0,0,1,1047,500) translate(0 18.6)"/><use xlink:href="#p" transform="matrix(1,0,0,1,1051,538) translate(0 18.6)"/><use xlink:href="#q" transform="matrix(1,0,0,1,1051,538) translate(30.95 18.6)"/><use xlink:href="#r" transform="matrix(1,0,0,1,1051,538) translate(53.849999999999994 18.6)"/><path d="M1119 580h100v20l-10 10h-90z" fill="#fff"/><path d="M1219 580v20l-10 10h-90" stroke="#000" stroke-width="2" fill="none"/><path d="M1119 580h700v240h-700z" stroke="#000" stroke-width="2" fill="none"/><use xlink:href="#s" transform="matrix(1,0,0,1,1127,579.9999999999999) translate(0 18.6)"/><use xlink:href="#t" transform="matrix(1,0,0,1,1131,617.9999999999999) translate(0 19.266666666666666)"/><use xlink:href="#u" transform="matrix(1,0,0,1,1131,617.9999999999999) translate(78.4 19.266666666666666)"/><path d="M1297 707.82h-10.22m-10.22 0h-20.43m-10.22 0h-20.43m-10.2 0h-20.45m-10.22 0h-20.43m-10.22 0h-20.44m-10.2 0h-20.44m-10.22 0h-20.44m-10.2 0h-20.45m-10.2 0h-20.45m-10.22 0h-20.43m-10.22 0H949.6m-10.23 0h-20.43m-10.22 0H898.5" stroke="#000" stroke-width="2" fill="none"/><path d="M1298 708.82h-1.03v-2h1.03z"/><path d="M883.24 707.82l14.26-4.64v9.27z" stroke="#000" stroke-width="2"/><use xlink:href="#v" transform="matrix(1,0,0,1,1069.025,711.815362931642) translate(0 14.4)"/><path d="M881 1100h619.5" stroke="#000" stroke-width="2" fill="none"/><path d="M881.03 1101H880v-2h1.03z"/><path d="M1515.76 1100l-14.26 4.64v-9.28z" stroke="#000" stroke-width="2"/><use xlink:href="#w" transform="matrix(1,0,0,1,1087.175,1104) translate(0 14.4)"/><path d="M1460 920h160v80h-160z" stroke="#000" stroke-width="2" fill="#fff"/><use xlink:href="#x" transform="matrix(1,0,0,1,1460,920) translate(33.57999999999999 44.4)"/><path d="M1540 1002v10.1m0 10.12v20.22m0 10.12v20.22m0 10.1v20.23m0 10.12v20.22m0 10.12v20.22m0 10.1v20.23m0 10.12v20.22m0 10.12v20.22m0 10.1v20.23m0 10.12v20.22m0 10.12v20.22m0 10.1v20.23m0 10.12v20.22m0 10.12v20.22m0 10.1v20.23m0 10.12v20.22m0 10.12v20.22m0 10.1v20.23m0 10.12v20.22m0 10.12v20.22m0 10.1V1639" stroke="#000" stroke-width="2" fill="none"/><path d="M1541 1002.03h-2V1001h2z"/><path d="M1540 1638.97v1.03" stroke="#000" stroke-width="2" fill="none"/><path d="M1520 1020h40v560h-40z" stroke="#000" stroke-width="2" fill="#fff"/><path d="M1518 1170h-9.83m-9.84 0h-19.66m-9.84 0h-19.66m-9.84 0h-19.66m-9.84 0h-19.66m-9.84 0h-19.66m-9.84 0h-19.66m-9.84 0h-19.66m-9.84 0h-19.66m-9.84 0h-19.66m-9.84 0h-19.66m-9.84 0h-19.66m-9.84 0h-19.66m-9.84 0h-19.66m-9.84 0h-19.66m-9.84 0h-19.66m-9.84 0h-19.66m-9.84 0h-19.66m-9.84 0h-19.66m-9.83 0h-19.67m-9.83 0h-19.67m-9.83 0h-9.84" stroke="#000" stroke-width="2" fill="none"/><path d="M1519 1171h-1.03v-2h1.03z"/><path d="M883.24 1170l14.26-4.64v9.28z" stroke="#000" stroke-width="2"/><use xlink:href="#y" transform="matrix(1,0,0,1,1181.375,1174) translate(0 14.4)"/><path d="M837 1218.56h-9.93m-9.93 0h-19.86m-9.93 0H767.5m-9.94 0H737.7m-9.94 0H707.9m-9.93 0H678.1m-9.92 0h-19.86m-9.93 0h-19.87m-9.93 0h-19.86m-9.93 0h-19.85m-9.93 0h-19.87m-9.93 0h-19.86m-9.93 0h-9.93" stroke="#000" stroke-width="2" fill="none"/><path d="M838 1219.56h-1.03v-2H838z"/><path d="M464.24 1218.56l14.26-4.64v9.27z" stroke="#000" stroke-width="2"/><use xlink:href="#z" transform="matrix(1,0,0,1,587.575,1222.5553206483441) translate(0 14.4)"/><use xlink:href="#A" transform="matrix(1,0,0,1,587.575,1222.5553206483441) translate(73.85000000000001 14.4)"/><path d="M462 1344.42h357.5" stroke="#000" stroke-width="2" fill="none"/><path d="M462.03 1345.42H461v-2h1.03z"/><path d="M834.76 1344.42l-14.26 4.63v-9.27z" stroke="#000" stroke-width="2"/><use xlink:href="#B" transform="matrix(1,0,0,1,585.175,1318.8186046511628) translate(0 14.4)"/><path d="M1518 1508.04h-9.83m-9.84 0h-19.66m-9.84 0h-19.66m-9.84 0h-19.66m-9.84 0h-19.66m-9.84 0h-19.66m-9.84 0h-19.66m-9.84 0h-19.66m-9.84 0h-19.66m-9.84 0h-19.66m-9.84 0h-19.66m-9.84 0h-19.66m-9.84 0h-19.66m-9.83 0h-19.67m-9.83 0h-19.67m-9.83 0h-19.67m-9.83 0h-19.67m-9.83 0h-19.67m-9.83 0h-19.67m-9.83 0h-19.67m-9.83 0h-19.67m-9.83 0h-9.84" stroke="#000" stroke-width="2" fill="none"/><path d="M1519 1509.04h-1.03v-2h1.03z"/><path d="M883.24 1508.04l14.26-4.63v9.28z" stroke="#000" stroke-width="2"/><g><use xlink:href="#y" transform="matrix(1,0,0,1,1181.375,1512.0408738548274) translate(0 14.4)"/></g><path d="M837 1593.5h-9.93m-9.93 0h-19.86m-9.93 0H767.5m-9.94 0H737.7m-9.94 0H707.9m-9.93 0H678.1m-9.92 0h-19.86m-9.93 0h-19.87m-9.93 0h-19.86m-9.93 0h-19.85m-9.93 0h-19.87m-9.93 0h-19.86m-9.93 0h-9.93" stroke="#000" stroke-width="2" fill="none"/><path d="M838 1594.5h-1.03v-2H838z"/><path d="M464.24 1593.5l14.26-4.64v9.27z" stroke="#000" stroke-width="2"/><g><use xlink:href="#z" transform="matrix(1,0,0,1,586.575,1597.4954193093731) translate(0 14.4)"/><use xlink:href="#C" transform="matrix(1,0,0,1,586.575,1597.4954193093731) translate(73.85000000000001 14.4)"/></g><defs><path d="M137-138c1-29-70-34-71-4 15 46 118 7 119 86 1 83-164 76-172 9l43-7c4 19 20 25 44 25 33 8 57-30 24-41C81-84 22-81 20-136c-2-80 154-74 161-7" id="D"/><path d="M88-194c31-1 46 15 58 34l-1-101h50l1 261h-48c-2-10 0-23-3-31C134-8 116 4 84 4 32 4 16-41 15-95c0-56 19-97 73-99zm17 164c33 0 40-30 41-66 1-37-9-64-41-64s-38 30-39 65c0 43 13 65 39 65" id="E"/><g id="a"><use transform="matrix(0.05,0,0,0.05,0,0)" xlink:href="#D"/><use transform="matrix(0.05,0,0,0.05,10,0)" xlink:href="#E"/><path d="M-.9.97h27.75v1.9H-.9z"/></g><path d="M240 0l2-218c-23 76-54 145-80 218h-23L58-218 59 0H30v-248h44l77 211c21-75 51-140 76-211h43V0h-30" id="F"/><path d="M141-36C126-15 110 5 73 4 37 3 15-17 15-53c-1-64 63-63 125-63 3-35-9-54-41-54-24 1-41 7-42 31l-33-3c5-37 33-52 76-52 45 0 72 20 72 64v82c-1 20 7 32 28 27v20c-31 9-61-2-59-35zM48-53c0 20 12 33 32 33 41-3 63-29 60-74-43 2-92-5-92 41" id="G"/><path d="M143 0L79-87 56-68V0H24v-261h32v163l83-92h37l-77 82L181 0h-38" id="H"/><path d="M100-194c63 0 86 42 84 106H49c0 40 14 67 53 68 26 1 43-12 49-29l28 8c-11 28-37 45-77 45C44 4 14-33 15-96c1-61 26-98 85-98zm52 81c6-60-76-77-97-28-3 7-6 17-6 28h103" id="I"/><g id="b"><use transform="matrix(0.05,0,0,0.05,0,0)" xlink:href="#F"/><use transform="matrix(0.05,0,0,0.05,14.950000000000001,0)" xlink:href="#G"/><use transform="matrix(0.05,0,0,0.05,24.950000000000003,0)" xlink:href="#H"/><use transform="matrix(0.05,0,0,0.05,33.95,0)" xlink:href="#I"/></g><path d="M85-194c31 0 48 13 60 33l-1-100h32l1 261h-30c-2-10 0-23-3-31C134-8 116 4 85 4 32 4 16-35 15-94c0-66 23-100 70-100zm9 24c-40 0-46 34-46 75 0 40 6 74 45 74 42 0 51-32 51-76 0-42-9-74-50-73" id="J"/><path d="M96-169c-40 0-48 33-48 73s9 75 48 75c24 0 41-14 43-38l32 2c-6 37-31 61-74 61-59 0-76-41-82-99-10-93 101-131 147-64 4 7 5 14 7 22l-32 3c-4-21-16-35-41-35" id="K"/><path d="M24-231v-30h32v30H24zM24 0v-190h32V0H24" id="L"/><path d="M135-143c-3-34-86-38-87 0 15 53 115 12 119 90S17 21 10-45l28-5c4 36 97 45 98 0-10-56-113-15-118-90-4-57 82-63 122-42 12 7 21 19 24 35" id="M"/><path d="M100-194c62-1 85 37 85 99 1 63-27 99-86 99S16-35 15-95c0-66 28-99 85-99zM99-20c44 1 53-31 53-75 0-43-8-75-51-75s-53 32-53 75 10 74 51 75" id="N"/><path d="M117-194c89-4 53 116 60 194h-32v-121c0-31-8-49-39-48C34-167 62-67 57 0H25l-1-190h30c1 10-1 24 2 32 11-22 29-35 61-36" id="O"/><g id="c"><use transform="matrix(0.05,0,0,0.05,0,0)" xlink:href="#J"/><use transform="matrix(0.05,0,0,0.05,10,0)" xlink:href="#I"/><use transform="matrix(0.05,0,0,0.05,20,0)" xlink:href="#K"/><use transform="matrix(0.05,0,0,0.05,29,0)" xlink:href="#L"/><use transform="matrix(0.05,0,0,0.05,32.95,0)" xlink:href="#M"/><use transform="matrix(0.05,0,0,0.05,41.95,0)" xlink:href="#L"/><use transform="matrix(0.05,0,0,0.05,45.900000000000006,0)" xlink:href="#N"/><use transform="matrix(0.05,0,0,0.05,55.900000000000006,0)" xlink:href="#O"/></g><g id="d"><use transform="matrix(0.05,0,0,0.05,0,0)" xlink:href="#N"/><use transform="matrix(0.05,0,0,0.05,10,0)" xlink:href="#O"/></g><path d="M205 0l-28-72H64L36 0H1l101-248h38L239 0h-34zm-38-99l-47-123c-12 45-31 82-46 123h93" id="P"/><path d="M115-194c55 1 70 41 70 98S169 2 115 4C84 4 66-9 55-30l1 105H24l-1-265h31l2 30c10-21 28-34 59-34zm-8 174c40 0 45-34 45-75s-6-73-45-74c-42 0-51 32-51 76 0 43 10 73 51 73" id="Q"/><path d="M24 0v-261h32V0H24" id="R"/><path d="M59-47c-2 24 18 29 38 22v24C64 9 27 4 27-40v-127H5v-23h24l9-43h21v43h35v23H59v120" id="S"/><g id="e"><use transform="matrix(0.05,0,0,0.05,0,0)" xlink:href="#P"/><use transform="matrix(0.05,0,0,0.05,12,0)" xlink:href="#Q"/><use transform="matrix(0.05,0,0,0.05,22,0)" xlink:href="#Q"/><use transform="matrix(0.05,0,0,0.05,32,0)" xlink:href="#R"/><use transform="matrix(0.05,0,0,0.05,35.95,0)" xlink:href="#L"/><use transform="matrix(0.05,0,0,0.05,39.900000000000006,0)" xlink:href="#K"/><use transform="matrix(0.05,0,0,0.05,48.900000000000006,0)" xlink:href="#G"/><use transform="matrix(0.05,0,0,0.05,58.900000000000006,0)" xlink:href="#S"/><use transform="matrix(0.05,0,0,0.05,63.900000000000006,0)" xlink:href="#L"/><use transform="matrix(0.05,0,0,0.05,67.85000000000001,0)" xlink:href="#N"/><use transform="matrix(0.05,0,0,0.05,77.85000000000001,0)" xlink:href="#O"/></g><path d="M233-177c-1 41-23 64-60 70L243 0h-38l-65-103H63V0H30v-248c88 3 205-21 203 71zM63-129c60-2 137 13 137-47 0-61-80-42-137-45v92" id="T"/><path d="M108 0H70L1-190h34L89-25l56-165h34" id="U"/><path d="M206 0h-36l-40-164L89 0H53L-1-190h32L70-26l43-164h34l41 164 42-164h31" id="V"/><path d="M114-163C36-179 61-72 57 0H25l-1-190h30c1 12-1 29 2 39 6-27 23-49 58-41v29" id="W"/><g id="f"><use transform="matrix(0.05,0,0,0.05,0,0)" xlink:href="#T"/><use transform="matrix(0.05,0,0,0.05,12.950000000000001,0)" xlink:href="#I"/><use transform="matrix(0.05,0,0,0.05,22.950000000000003,0)" xlink:href="#U"/><use transform="matrix(0.05,0,0,0.05,31.950000000000003,0)" xlink:href="#L"/><use transform="matrix(0.05,0,0,0.05,35.900000000000006,0)" xlink:href="#I"/><use transform="matrix(0.05,0,0,0.05,45.900000000000006,0)" xlink:href="#V"/><use transform="matrix(0.05,0,0,0.05,58.85,0)" xlink:href="#I"/><use transform="matrix(0.05,0,0,0.05,68.85000000000001,0)" xlink:href="#W"/></g><path d="M33-154v-36h34v36H33zM33 0v-36h34V0H33" id="X"/><path d="M232-93c-1 65-40 97-104 97C67 4 28-28 28-90v-158h33c8 89-33 224 67 224 102 0 64-133 71-224h33v155" id="Y"/><path d="M33 0v-248h34V0H33" id="Z"/><g id="g"><use transform="matrix(0.05,0,0,0.05,0,0)" xlink:href="#X"/><use transform="matrix(0.05,0,0,0.05,5,0)" xlink:href="#T"/><use transform="matrix(0.05,0,0,0.05,17.950000000000003,0)" xlink:href="#I"/><use transform="matrix(0.05,0,0,0.05,27.950000000000003,0)" xlink:href="#U"/><use transform="matrix(0.05,0,0,0.05,36.95,0)" xlink:href="#L"/><use transform="matrix(0.05,0,0,0.05,40.900000000000006,0)" xlink:href="#I"/><use transform="matrix(0.05,0,0,0.05,50.900000000000006,0)" xlink:href="#V"/><use transform="matrix(0.05,0,0,0.05,63.85,0)" xlink:href="#Y"/><use transform="matrix(0.05,0,0,0.05,76.80000000000001,0)" xlink:href="#Z"/><path d="M-.9 1.25h83.6v1.32H-.9z"/></g><path d="M30-248c87 1 191-15 191 75 0 78-77 80-158 76V0H30v-248zm33 125c57 0 124 11 124-50 0-59-68-47-124-48v98" id="aa"/><path d="M106-169C34-169 62-67 57 0H25v-261h32l-1 103c12-21 28-36 61-36 89 0 53 116 60 194h-32v-121c2-32-8-49-39-48" id="ab"/><g id="h"><use transform="matrix(0.05,0,0,0.05,0,0)" xlink:href="#X"/><use transform="matrix(0.05,0,0,0.05,5,0)" xlink:href="#aa"/><use transform="matrix(0.05,0,0,0.05,17,0)" xlink:href="#L"/><use transform="matrix(0.05,0,0,0.05,20.95,0)" xlink:href="#S"/><use transform="matrix(0.05,0,0,0.05,25.950000000000003,0)" xlink:href="#K"/><use transform="matrix(0.05,0,0,0.05,34.95,0)" xlink:href="#ab"/><path d="M-.9 1.25h46.75v1.32H-.9z"/></g><path d="M179-190L93 31C79 59 56 82 12 73V49c39 6 53-20 64-50L1-190h34L92-34l54-156h33" id="ac"/><g id="i"><use transform="matrix(0.05,0,0,0.05,0,0)" xlink:href="#J"/><use transform="matrix(0.05,0,0,0.05,10,0)" xlink:href="#L"/><use transform="matrix(0.05,0,0,0.05,13.949999999999998,0)" xlink:href="#M"/><use transform="matrix(0.05,0,0,0.05,22.95,0)" xlink:href="#Q"/><use transform="matrix(0.05,0,0,0.05,32.95,0)" xlink:href="#R"/><use transform="matrix(0.05,0,0,0.05,36.900000000000006,0)" xlink:href="#G"/><use transform="matrix(0.05,0,0,0.05,46.900000000000006,0)" xlink:href="#ac"/></g><g id="j"><use transform="matrix(0.05,0,0,0.05,0,0)" xlink:href="#Q"/><use transform="matrix(0.05,0,0,0.05,10,0)" xlink:href="#L"/><use transform="matrix(0.05,0,0,0.05,13.949999999999998,0)" xlink:href="#S"/><use transform="matrix(0.05,0,0,0.05,18.95,0)" xlink:href="#K"/><use transform="matrix(0.05,0,0,0.05,27.950000000000003,0)" xlink:href="#ab"/></g><path d="M160-131c35 5 61 23 61 61C221 17 115-2 30 0v-248c76 3 177-17 177 60 0 33-19 50-47 57zm-97-11c50-1 110 9 110-42 0-47-63-36-110-37v79zm0 115c55-2 124 14 124-45 0-56-70-42-124-44v89" id="ad"/><path d="M212-179c-10-28-35-45-73-45-59 0-87 40-87 99 0 60 29 101 89 101 43 0 62-24 78-52l27 14C228-24 195 4 139 4 59 4 22-46 18-125c-6-104 99-153 187-111 19 9 31 26 39 46" id="ae"/><path d="M87 75C49 33 22-17 22-94c0-76 28-126 65-167h31c-38 41-64 92-64 168S80 34 118 75H87" id="af"/><path d="M33-261c38 41 65 92 65 168S71 34 33 75H2C39 34 66-17 66-93S39-220 2-261h31" id="ag"/><g id="k"><use transform="matrix(0.05,0,0,0.05,0,0)" xlink:href="#P"/><use transform="matrix(0.05,0,0,0.05,12,0)" xlink:href="#K"/><use transform="matrix(0.05,0,0,0.05,21,0)" xlink:href="#K"/><use transform="matrix(0.05,0,0,0.05,30,0)" xlink:href="#I"/><use transform="matrix(0.05,0,0,0.05,40,0)" xlink:href="#Q"/><use transform="matrix(0.05,0,0,0.05,50,0)" xlink:href="#S"/><use transform="matrix(0.05,0,0,0.05,55,0)" xlink:href="#ad"/><use transform="matrix(0.05,0,0,0.05,67,0)" xlink:href="#S"/><use transform="matrix(0.05,0,0,0.05,72,0)" xlink:href="#O"/><use transform="matrix(0.05,0,0,0.05,82,0)" xlink:href="#ae"/><use transform="matrix(0.05,0,0,0.05,94.95,0)" xlink:href="#R"/><use transform="matrix(0.05,0,0,0.05,98.9,0)" xlink:href="#L"/><use transform="matrix(0.05,0,0,0.05,102.85000000000001,0)" xlink:href="#K"/><use transform="matrix(0.05,0,0,0.05,111.85000000000001,0)" xlink:href="#H"/><use transform="matrix(0.05,0,0,0.05,120.85000000000001,0)" xlink:href="#af"/><use transform="matrix(0.05,0,0,0.05,126.80000000000001,0)" xlink:href="#ag"/></g><path d="M30-248c118-7 216 8 213 122C240-48 200 0 122 0H30v-248zM63-27c89 8 146-16 146-99s-60-101-146-95v194" id="ah"/><path d="M-5 72V49h209v23H-5" id="ai"/><path d="M68-38c1 34 0 65-14 84H32c9-13 17-26 17-46H33v-38h35" id="aj"/><path d="M24-231v-30h32v30H24zM-9 49c24 4 33-6 33-30v-209h32V24c2 40-23 58-65 49V49" id="ak"/><g id="l"><use transform="matrix(0.05,0,0,0.05,0,0)" xlink:href="#ah"/><use transform="matrix(0.05,0,0,0.05,12.950000000000001,0)" xlink:href="#I"/><use transform="matrix(0.05,0,0,0.05,22.950000000000003,0)" xlink:href="#K"/><use transform="matrix(0.05,0,0,0.05,31.950000000000003,0)" xlink:href="#L"/><use transform="matrix(0.05,0,0,0.05,35.900000000000006,0)" xlink:href="#M"/><use transform="matrix(0.05,0,0,0.05,44.900000000000006,0)" xlink:href="#L"/><use transform="matrix(0.05,0,0,0.05,48.85000000000001,0)" xlink:href="#N"/><use transform="matrix(0.05,0,0,0.05,58.85,0)" xlink:href="#O"/><use transform="matrix(0.05,0,0,0.05,68.85000000000001,0)" xlink:href="#af"/><use transform="matrix(0.05,0,0,0.05,74.80000000000001,0)" xlink:href="#G"/><use transform="matrix(0.05,0,0,0.05,84.80000000000001,0)" xlink:href="#Q"/><use transform="matrix(0.05,0,0,0.05,94.80000000000001,0)" xlink:href="#Q"/><use transform="matrix(0.05,0,0,0.05,104.80000000000001,0)" xlink:href="#ai"/><use transform="matrix(0.05,0,0,0.05,114.80000000000001,0)" xlink:href="#L"/><use transform="matrix(0.05,0,0,0.05,118.75,0)" xlink:href="#J"/><use transform="matrix(0.05,0,0,0.05,128.75,0)" xlink:href="#aj"/><use transform="matrix(0.05,0,0,0.05,133.75,0)" xlink:href="#T"/><use transform="matrix(0.05,0,0,0.05,146.7,0)" xlink:href="#I"/><use transform="matrix(0.05,0,0,0.05,156.7,0)" xlink:href="#ak"/><use transform="matrix(0.05,0,0,0.05,160.64999999999998,0)" xlink:href="#I"/><use transform="matrix(0.05,0,0,0.05,170.64999999999998,0)" xlink:href="#K"/><use transform="matrix(0.05,0,0,0.05,179.64999999999998,0)" xlink:href="#S"/><use transform="matrix(0.05,0,0,0.05,184.64999999999998,0)" xlink:href="#I"/><use transform="matrix(0.05,0,0,0.05,194.64999999999998,0)" xlink:href="#J"/><use transform="matrix(0.05,0,0,0.05,204.64999999999998,0)" xlink:href="#ag"/></g><path d="M115-194c53 0 69 39 70 98 0 66-23 100-70 100C84 3 66-7 56-30L54 0H23l1-261h32v101c10-23 28-34 59-34zm-8 174c40 0 45-34 45-75 0-40-5-75-45-74-42 0-51 32-51 76 0 43 10 73 51 73" id="al"/><path d="M137 0h-34L2-248h35l83 218 83-218h36" id="am"/><g id="m"><use transform="matrix(0.05,0,0,0.05,0,0)" xlink:href="#al"/><use transform="matrix(0.05,0,0,0.05,10,0)" xlink:href="#S"/><use transform="matrix(0.05,0,0,0.05,15,0)" xlink:href="#O"/><use transform="matrix(0.05,0,0,0.05,25,0)" xlink:href="#am"/><use transform="matrix(0.05,0,0,0.05,36.65,0)" xlink:href="#L"/><use transform="matrix(0.05,0,0,0.05,40.6,0)" xlink:href="#I"/><use transform="matrix(0.05,0,0,0.05,50.6,0)" xlink:href="#V"/><use transform="matrix(0.05,0,0,0.05,63.550000000000004,0)" xlink:href="#aa"/><use transform="matrix(0.05,0,0,0.05,75.55000000000001,0)" xlink:href="#L"/><use transform="matrix(0.05,0,0,0.05,79.50000000000001,0)" xlink:href="#S"/><use transform="matrix(0.05,0,0,0.05,84.50000000000001,0)" xlink:href="#K"/><use transform="matrix(0.05,0,0,0.05,93.50000000000001,0)" xlink:href="#ab"/><use transform="matrix(0.05,0,0,0.05,103.5,0)" xlink:href="#af"/><use transform="matrix(0.05,0,0,0.05,109.45,0)" xlink:href="#ag"/></g><path d="M143 4C61 4 22-44 18-125c-5-107 100-154 193-111 17 8 29 25 37 43l-32 9c-13-25-37-40-76-40-61 0-88 39-88 99 0 61 29 100 91 101 35 0 62-11 79-27v-45h-74v-28h105v86C228-13 192 4 143 4" id="an"/><g id="n"><use transform="matrix(0.05,0,0,0.05,0,0)" xlink:href="#an"/><use transform="matrix(0.05,0,0,0.05,14,0)" xlink:href="#I"/><use transform="matrix(0.05,0,0,0.05,24,0)" xlink:href="#S"/><use transform="matrix(0.05,0,0,0.05,29,0)" xlink:href="#aa"/><use transform="matrix(0.05,0,0,0.05,41,0)" xlink:href="#L"/><use transform="matrix(0.05,0,0,0.05,44.95,0)" xlink:href="#S"/><use transform="matrix(0.05,0,0,0.05,49.95,0)" xlink:href="#K"/><use transform="matrix(0.05,0,0,0.05,58.95,0)" xlink:href="#ab"/><use transform="matrix(0.05,0,0,0.05,68.95,0)" xlink:href="#af"/><use transform="matrix(0.05,0,0,0.05,74.9,0)" xlink:href="#L"/><use transform="matrix(0.05,0,0,0.05,78.85000000000001,0)" xlink:href="#J"/><use transform="matrix(0.05,0,0,0.05,88.85000000000001,0)" xlink:href="#ag"/></g><path d="M30 0v-248h33v221h125V0H30" id="ao"/><g id="o"><use transform="matrix(0.05,0,0,0.05,0,0)" xlink:href="#ao"/><use transform="matrix(0.05,0,0,0.05,10,0)" xlink:href="#N"/><use transform="matrix(0.05,0,0,0.05,20,0)" xlink:href="#N"/><use transform="matrix(0.05,0,0,0.05,30,0)" xlink:href="#Q"/></g><path d="M26 75v-336h71v23H56V52h41v23H26" id="ap"/><path d="M101-234c-31-9-42 10-38 44h38v23H63V0H32v-167H5v-23h27c-7-52 17-82 69-68v24" id="aq"/><g id="p"><use transform="matrix(0.05,0,0,0.05,0,0)" xlink:href="#ap"/><use transform="matrix(0.05,0,0,0.05,5,0)" xlink:href="#aq"/><use transform="matrix(0.05,0,0,0.05,10,0)" xlink:href="#N"/><use transform="matrix(0.05,0,0,0.05,20,0)" xlink:href="#W"/></g><g id="q"><use transform="matrix(0.05,0,0,0.05,0,0)" xlink:href="#G"/><use transform="matrix(0.05,0,0,0.05,10,0)" xlink:href="#R"/><use transform="matrix(0.05,0,0,0.05,13.949999999999998,0)" xlink:href="#R"/></g><path d="M3 75V52h41v-290H3v-23h71V75H3" id="ar"/><g id="r"><use transform="matrix(0.05,0,0,0.05,0,0)" xlink:href="#aa"/><use transform="matrix(0.05,0,0,0.05,12,0)" xlink:href="#L"/><use transform="matrix(0.05,0,0,0.05,15.949999999999998,0)" xlink:href="#S"/><use transform="matrix(0.05,0,0,0.05,20.95,0)" xlink:href="#K"/><use transform="matrix(0.05,0,0,0.05,29.950000000000003,0)" xlink:href="#ab"/><use transform="matrix(0.05,0,0,0.05,39.95,0)" xlink:href="#I"/><use transform="matrix(0.05,0,0,0.05,49.95,0)" xlink:href="#M"/><use transform="matrix(0.05,0,0,0.05,58.95,0)" xlink:href="#ar"/></g><g id="s"><use transform="matrix(0.05,0,0,0.05,0,0)" xlink:href="#P"/><use transform="matrix(0.05,0,0,0.05,12,0)" xlink:href="#R"/><use transform="matrix(0.05,0,0,0.05,15.949999999999998,0)" xlink:href="#S"/><use transform="matrix(0.05,0,0,0.05,20.95,0)" xlink:href="#I"/><use transform="matrix(0.05,0,0,0.05,30.950000000000003,0)" xlink:href="#W"/><use transform="matrix(0.05,0,0,0.05,36.9,0)" xlink:href="#O"/><use transform="matrix(0.05,0,0,0.05,46.9,0)" xlink:href="#G"/><use transform="matrix(0.05,0,0,0.05,56.900000000000006,0)" xlink:href="#S"/><use transform="matrix(0.05,0,0,0.05,61.900000000000006,0)" xlink:href="#L"/><use transform="matrix(0.05,0,0,0.05,65.85,0)" xlink:href="#U"/><use transform="matrix(0.05,0,0,0.05,74.85,0)" xlink:href="#I"/></g><path d="M18-150v-26h174v26H18zm0 90v-26h174v26H18" id="as"/><g id="t"><use transform="matrix(0.05,0,0,0.05,0,0)" xlink:href="#ap"/><use transform="matrix(0.05,0,0,0.05,5,0)" xlink:href="#aa"/><use transform="matrix(0.05,0,0,0.05,17,0)" xlink:href="#L"/><use transform="matrix(0.05,0,0,0.05,20.95,0)" xlink:href="#S"/><use transform="matrix(0.05,0,0,0.05,25.950000000000003,0)" xlink:href="#K"/><use transform="matrix(0.05,0,0,0.05,34.95,0)" xlink:href="#ab"/><use transform="matrix(0.05,0,0,0.05,44.95,0)" xlink:href="#Z"/><use transform="matrix(0.05,0,0,0.05,49.95,0)" xlink:href="#ah"/><use transform="matrix(0.05,0,0,0.05,62.900000000000006,0)" xlink:href="#as"/></g><g id="u"><use transform="matrix(0.05,0,0,0.05,0,0)" xlink:href="#L"/><use transform="matrix(0.05,0,0,0.05,3.95,0)" xlink:href="#J"/><use transform="matrix(0.05,0,0,0.05,13.949999999999998,0)" xlink:href="#ar"/></g><g id="v"><use transform="matrix(0.05,0,0,0.05,0,0)" xlink:href="#aa"/><use transform="matrix(0.05,0,0,0.05,12,0)" xlink:href="#L"/><use transform="matrix(0.05,0,0,0.05,15.949999999999998,0)" xlink:href="#S"/><use transform="matrix(0.05,0,0,0.05,20.95,0)" xlink:href="#K"/><use transform="matrix(0.05,0,0,0.05,29.950000000000003,0)" xlink:href="#ab"/></g><g id="w"><use transform="matrix(0.05,0,0,0.05,0,0)" xlink:href="#ah"/><use transform="matrix(0.05,0,0,0.05,12.950000000000001,0)" xlink:href="#I"/><use transform="matrix(0.05,0,0,0.05,22.950000000000003,0)" xlink:href="#K"/><use transform="matrix(0.05,0,0,0.05,31.950000000000003,0)" xlink:href="#L"/><use transform="matrix(0.05,0,0,0.05,35.900000000000006,0)" xlink:href="#M"/><use transform="matrix(0.05,0,0,0.05,44.900000000000006,0)" xlink:href="#L"/><use transform="matrix(0.05,0,0,0.05,48.85000000000001,0)" xlink:href="#N"/><use transform="matrix(0.05,0,0,0.05,58.85,0)" xlink:href="#O"/><use transform="matrix(0.05,0,0,0.05,68.85000000000001,0)" xlink:href="#af"/><use transform="matrix(0.05,0,0,0.05,74.80000000000001,0)" xlink:href="#aa"/><use transform="matrix(0.05,0,0,0.05,86.80000000000001,0)" xlink:href="#L"/><use transform="matrix(0.05,0,0,0.05,90.75000000000001,0)" xlink:href="#S"/><use transform="matrix(0.05,0,0,0.05,95.75000000000001,0)" xlink:href="#K"/><use transform="matrix(0.05,0,0,0.05,104.75,0)" xlink:href="#ab"/><use transform="matrix(0.05,0,0,0.05,114.75,0)" xlink:href="#ai"/><use transform="matrix(0.05,0,0,0.05,124.75,0)" xlink:href="#L"/><use transform="matrix(0.05,0,0,0.05,128.70000000000002,0)" xlink:href="#J"/><use transform="matrix(0.05,0,0,0.05,138.70000000000002,0)" xlink:href="#aj"/><use transform="matrix(0.05,0,0,0.05,143.70000000000002,0)" xlink:href="#P"/><use transform="matrix(0.05,0,0,0.05,155.70000000000002,0)" xlink:href="#K"/><use transform="matrix(0.05,0,0,0.05,164.70000000000002,0)" xlink:href="#K"/><use transform="matrix(0.05,0,0,0.05,173.70000000000002,0)" xlink:href="#I"/><use transform="matrix(0.05,0,0,0.05,183.70000000000002,0)" xlink:href="#Q"/><use transform="matrix(0.05,0,0,0.05,193.70000000000002,0)" xlink:href="#S"/><use transform="matrix(0.05,0,0,0.05,198.70000000000002,0)" xlink:href="#I"/><use transform="matrix(0.05,0,0,0.05,208.70000000000002,0)" xlink:href="#J"/><use transform="matrix(0.05,0,0,0.05,218.70000000000002,0)" xlink:href="#ag"/></g><g id="x"><use transform="matrix(0.05,0,0,0.05,0,0)" xlink:href="#X"/><use transform="matrix(0.05,0,0,0.05,5,0)" xlink:href="#P"/><use transform="matrix(0.05,0,0,0.05,17,0)" xlink:href="#Q"/><use transform="matrix(0.05,0,0,0.05,27,0)" xlink:href="#Q"/><use transform="matrix(0.05,0,0,0.05,37,0)" xlink:href="#R"/><use transform="matrix(0.05,0,0,0.05,40.95,0)" xlink:href="#L"/><use transform="matrix(0.05,0,0,0.05,44.900000000000006,0)" xlink:href="#K"/><use transform="matrix(0.05,0,0,0.05,53.900000000000006,0)" xlink:href="#G"/><use transform="matrix(0.05,0,0,0.05,63.900000000000006,0)" xlink:href="#S"/><use transform="matrix(0.05,0,0,0.05,68.9,0)" xlink:href="#L"/><use transform="matrix(0.05,0,0,0.05,72.85000000000001,0)" xlink:href="#N"/><use transform="matrix(0.05,0,0,0.05,82.85000000000001,0)" xlink:href="#O"/><path d="M-.9 1.25h94.65v1.32H-.9z"/></g><path d="M127-220V0H93v-220H8v-28h204v28h-85" id="at"/><path d="M84 4C-5 8 30-112 23-190h32v120c0 31 7 50 39 49 72-2 45-101 50-169h31l1 190h-30c-1-10 1-25-2-33-11 22-28 36-60 37" id="au"/><g id="y"><use transform="matrix(0.05,0,0,0.05,0,0)" xlink:href="#at"/><use transform="matrix(0.05,0,0,0.05,10.3,0)" xlink:href="#W"/><use transform="matrix(0.05,0,0,0.05,16.25,0)" xlink:href="#au"/><use transform="matrix(0.05,0,0,0.05,26.25,0)" xlink:href="#I"/></g><g id="z"><use transform="matrix(0.05,0,0,0.05,0,0)" xlink:href="#ah"/><use transform="matrix(0.05,0,0,0.05,12.950000000000001,0)" xlink:href="#I"/><use transform="matrix(0.05,0,0,0.05,22.950000000000003,0)" xlink:href="#K"/><use transform="matrix(0.05,0,0,0.05,31.950000000000003,0)" xlink:href="#L"/><use transform="matrix(0.05,0,0,0.05,35.900000000000006,0)" xlink:href="#M"/><use transform="matrix(0.05,0,0,0.05,44.900000000000006,0)" xlink:href="#L"/><use transform="matrix(0.05,0,0,0.05,48.85000000000001,0)" xlink:href="#N"/><use transform="matrix(0.05,0,0,0.05,58.85,0)" xlink:href="#O"/></g><g id="A"><use transform="matrix(0.05,0,0,0.05,0,0)" xlink:href="#G"/><use transform="matrix(0.05,0,0,0.05,10,0)" xlink:href="#J"/><use transform="matrix(0.05,0,0,0.05,20,0)" xlink:href="#J"/><use transform="matrix(0.05,0,0,0.05,30,0)" xlink:href="#I"/><use transform="matrix(0.05,0,0,0.05,40,0)" xlink:href="#J"/></g><g id="B"><use transform="matrix(0.05,0,0,0.05,0,0)" xlink:href="#T"/><use transform="matrix(0.05,0,0,0.05,12.950000000000001,0)" xlink:href="#I"/><use transform="matrix(0.05,0,0,0.05,22.950000000000003,0)" xlink:href="#ak"/><use transform="matrix(0.05,0,0,0.05,26.900000000000002,0)" xlink:href="#I"/><use transform="matrix(0.05,0,0,0.05,36.900000000000006,0)" xlink:href="#K"/><use transform="matrix(0.05,0,0,0.05,45.900000000000006,0)" xlink:href="#S"/><use transform="matrix(0.05,0,0,0.05,50.900000000000006,0)" xlink:href="#ad"/><use transform="matrix(0.05,0,0,0.05,62.900000000000006,0)" xlink:href="#S"/><use transform="matrix(0.05,0,0,0.05,67.9,0)" xlink:href="#O"/><use transform="matrix(0.05,0,0,0.05,77.9,0)" xlink:href="#ae"/><use transform="matrix(0.05,0,0,0.05,90.85000000000001,0)" xlink:href="#R"/><use transform="matrix(0.05,0,0,0.05,94.80000000000001,0)" xlink:href="#L"/><use transform="matrix(0.05,0,0,0.05,98.75000000000001,0)" xlink:href="#K"/><use transform="matrix(0.05,0,0,0.05,107.75,0)" xlink:href="#H"/><use transform="matrix(0.05,0,0,0.05,116.75,0)" xlink:href="#af"/><use transform="matrix(0.05,0,0,0.05,122.7,0)" xlink:href="#ag"/></g><g id="C"><use transform="matrix(0.05,0,0,0.05,0,0)" xlink:href="#P"/><use transform="matrix(0.05,0,0,0.05,12,0)" xlink:href="#J"/><use transform="matrix(0.05,0,0,0.05,22,0)" xlink:href="#J"/><use transform="matrix(0.05,0,0,0.05,32,0)" xlink:href="#I"/><use transform="matrix(0.05,0,0,0.05,42,0)" xlink:href="#J"/></g></defs></g></svg>