<svg xmlns="http://www.w3.org/2000/svg" xmlns:xlink="http://www.w3.org/1999/xlink" xmlns:lucid="lucid" width="950" height="900"><g transform="translate(-110 40)" lucid:page-tab-id="ObbZU8B~W4-1"><path d="M219.75 51.75c0 10.9-8.84 19.75-19.75 19.75-10.9 0-19.75-8.84-19.75-19.75C180.25 40.85 189.1 32 200 32c10.9 0 19.75 8.84 19.75 19.75z" stroke="#000" stroke-width="2" fill="#fff"/><path d="M200 71.5v55.3l40 63.2m-40-63.2L160 190m0-98.75h80" stroke="#000" stroke-width="2" fill="none"/><path d="M160 32h80v180h-80z" fill="none"/><use xlink:href="#a" transform="matrix(1,0,0,1,80,190) translate(82.525 14.6)"/><path d="M200 129.67v10m0 9.98v19.98m0 10v19.97m0 10v19.97m0 10v19.97m0 10v19.97m0 10v19.98m0 10v19.98m0 10v19.97m0 10v19.97m0 10v19.97m0 10v19.97m0 10v19.97m0 10v19.98m0 10v19.97m0 10v19.97m0 10v19.97m0 9.98v19.98m0 10v19.97m0 10v19.98m0 10v19.98m0 10v19.97m0 10V799m0 10V819M200 818.97V820" stroke="#000" stroke-width="2" fill="none"/><path d="M180 220h40v520h-40z" stroke="#000" stroke-width="2" fill="#fff"/><path d="M130-20h165V0l-10 10H130z" fill="#fff"/><path d="M295-20V0l-10 10H130" stroke="#000" stroke-width="2" fill="none"/><path d="M130-20h910v860H130z" stroke="#000" stroke-width="2" fill="none"/><use xlink:href="#b" transform="matrix(1,0,0,1,138,-20) translate(0 18.6)"/><use xlink:href="#c" transform="matrix(1,0,0,1,138,-20) translate(25.950000000000003 18.6)"/><use xlink:href="#d" transform="matrix(1,0,0,1,138,-20) translate(59.95 18.6)"/><path d="M400 140h160v60H400z" stroke="#000" stroke-width="2" fill="#fff"/><use xlink:href="#e" transform="matrix(1,0,0,1,400,140) translate(32.60499999999999 33.15)"/><path d="M480 202v9.95m0 9.95v19.9m0 9.95v19.9m0 9.95v19.9m0 9.95v19.9m0 9.95v19.9m0 9.95v19.9m0 9.95v19.9m0 9.95v19.9m0 9.95v19.9m0 9.95v19.9m0 9.95v19.9m0 9.95v19.9m0 9.95V600m0 9.95v19.9m0 9.95v19.9m0 9.95v19.9m0 9.95v19.9m0 9.95v19.9m0 9.95v19.9m0 9.95V799" stroke="#000" stroke-width="2" fill="none"/><path d="M481 202.03h-2V201h2z"/><path d="M480 798.97V800" stroke="#000" stroke-width="2" fill="none"/><path d="M460 240h40v500h-40z" stroke="#000" stroke-width="2" fill="#fff"/><path d="M222 340h218.5" stroke="#000" stroke-width="2" fill="none"/><path d="M222.03 341H221v-2h1.03z"/><path d="M455.76 340l-14.26 4.64v-9.28z" stroke="#000" stroke-width="2"/><use xlink:href="#f" transform="matrix(1,0,0,1,266.15,314.40000000000003) translate(0 14.4)"/><path d="M680 220h160v60H680z" stroke="#000" stroke-width="2" fill="#fff"/><use xlink:href="#g" transform="matrix(1,0,0,1,680,220) translate(41.57999999999999 33.15)"/><path d="M760 282v9.38m0 9.38v18.76m0 9.38v18.77m0 9.38v18.76m0 9.4v18.75m0 9.38v18.77m0 9.38v18.76m0 9.38V479" stroke="#000" stroke-width="2" fill="none"/><path d="M761 282.03h-2V281h2z"/><path d="M760 478.97V480" stroke="#000" stroke-width="2" fill="none"/><path d="M740 320h40v120h-40z" stroke="#000" stroke-width="2" fill="#fff"/><path d="M781 380" stroke="#000" stroke-width="2" fill="none"/><path/><path/><path d="M502 365.47h218.5" stroke="#000" stroke-width="2" fill="none"/><path d="M502.03 366.47H501v-2h1.03z"/><path d="M735.76 365.47l-14.26 4.63v-9.27z" stroke="#000" stroke-width="2"/><use xlink:href="#h" transform="matrix(1,0,0,1,566.575,339.8666666666669) translate(0 14.4)"/><path d="M738 413.47h-10.4m-10.4 0h-20.82m-10.4 0h-20.8m-10.42 0h-20.8m-10.4 0h-20.82m-10.4 0h-20.8m-10.42 0h-20.8m-10.4 0H519.5" stroke="#000" stroke-width="2" fill="none"/><path d="M739 414.47h-1.03v-2H739z"/><path d="M504.24 413.47l14.26-4.64v9.27z" stroke="#000" stroke-width="2"/><use xlink:href="#i" transform="matrix(1,0,0,1,568.55,417.4666666666669) translate(0 14.4)"/><path d="M860 440h160v60H860z" stroke="#000" stroke-width="2" fill="#fff"/><use xlink:href="#j" transform="matrix(1,0,0,1,860,440) translate(26.554999999999993 33.15)"/><path d="M222 282.8h218.5" stroke="#000" stroke-width="2" fill="none"/><path d="M222.03 283.8H221v-2h1.03z"/><path d="M455.76 282.8l-14.26 4.64v-9.28z" stroke="#000" stroke-width="2"/><use xlink:href="#k" transform="matrix(1,0,0,1,254.625,257.20000000000016) translate(0 14.4)"/><use xlink:href="#l" transform="matrix(1,0,0,1,254.625,257.20000000000016) translate(47.95 14.4)"/><use xlink:href="#m" transform="matrix(1,0,0,1,254.625,257.20000000000016) translate(108.85 14.4)"/><path d="M940 502v10.33m0 10.34v20.66m0 10.34v20.66m0 10.34v20.66m0 10.34v20.66m0 10.34v20.66m0 10.34v20.66m0 10.34V719" stroke="#000" stroke-width="2" fill="none"/><path d="M941 502.03h-2V501h2z"/><path d="M940 718.97V720" stroke="#000" stroke-width="2" fill="none"/><path d="M920 540h40v120h-40z" stroke="#000" stroke-width="2" fill="#fff"/><path d="M502 577.47h398.5" stroke="#000" stroke-width="2" fill="none"/><path d="M502.03 578.47H501v-2h1.03z"/><path d="M915.76 577.47l-14.26 4.63v-9.27z" stroke="#000" stroke-width="2"/><use xlink:href="#n" transform="matrix(1,0,0,1,558.8,551.866666666667) translate(0 14.4)"/><path d="M918 634.8h-10.22m-10.22 0h-20.43m-10.22 0h-20.43m-10.2 0H815.8m-10.22 0h-20.43m-10.22 0H754.5m-10.2 0h-20.44m-10.22 0H693.2m-10.2 0h-20.45m-10.22 0H631.9m-10.22 0h-20.43m-10.22 0H570.6m-10.23 0h-20.43m-10.22 0H519.5" stroke="#000" stroke-width="2" fill="none"/><path d="M919 635.8h-1.03v-2H919z"/><path d="M504.24 634.8l14.26-4.64v9.28z" stroke="#000" stroke-width="2"/><use xlink:href="#o" transform="matrix(1,0,0,1,670.1,638.8000000000002) translate(0 14.4)"/><path d="M458 677.9h-10.4m-10.4 0h-20.82m-10.4 0h-20.8m-10.42 0h-20.8m-10.4 0h-20.82m-10.4 0h-20.8m-10.42 0h-20.8m-10.4 0H239.5" stroke="#000" stroke-width="2" fill="none"/><path d="M459 678.9h-1.03v-2H459z"/><path d="M224.24 677.9l14.26-4.62v9.27z" stroke="#000" stroke-width="2"/><g><use xlink:href="#p" transform="matrix(1,0,0,1,269.65,681.9111111111113) translate(0 14.4)"/><use xlink:href="#q" transform="matrix(1,0,0,1,269.65,681.9111111111113) translate(63.85000000000001 14.4)"/></g><defs><path d="M33 0v-248h34V0H33" id="r"/><path d="M117-194c89-4 53 116 60 194h-32v-121c0-31-8-49-39-48C34-167 62-67 57 0H25l-1-190h30c1 10-1 24 2 32 11-22 29-35 61-36" id="s"/><path d="M100-194c62-1 85 37 85 99 1 63-27 99-86 99S16-35 15-95c0-66 28-99 85-99zM99-20c44 1 53-31 53-75 0-43-8-75-51-75s-53 32-53 75 10 74 51 75" id="t"/><path d="M108 0H70L1-190h34L89-25l56-165h34" id="u"/><path d="M141-36C126-15 110 5 73 4 37 3 15-17 15-53c-1-64 63-63 125-63 3-35-9-54-41-54-24 1-41 7-42 31l-33-3c5-37 33-52 76-52 45 0 72 20 72 64v82c-1 20 7 32 28 27v20c-31 9-61-2-59-35zM48-53c0 20 12 33 32 33 41-3 63-29 60-74-43 2-92-5-92 41" id="v"/><path d="M59-47c-2 24 18 29 38 22v24C64 9 27 4 27-40v-127H5v-23h24l9-43h21v43h35v23H59v120" id="w"/><path d="M114-163C36-179 61-72 57 0H25l-1-190h30c1 12-1 29 2 39 6-27 23-49 58-41v29" id="x"/><g id="a"><use transform="matrix(0.05,0,0,0.05,0,0)" xlink:href="#r"/><use transform="matrix(0.05,0,0,0.05,5,0)" xlink:href="#s"/><use transform="matrix(0.05,0,0,0.05,15,0)" xlink:href="#s"/><use transform="matrix(0.05,0,0,0.05,25,0)" xlink:href="#t"/><use transform="matrix(0.05,0,0,0.05,35,0)" xlink:href="#u"/><use transform="matrix(0.05,0,0,0.05,44,0)" xlink:href="#v"/><use transform="matrix(0.05,0,0,0.05,54,0)" xlink:href="#w"/><use transform="matrix(0.05,0,0,0.05,59,0)" xlink:href="#t"/><use transform="matrix(0.05,0,0,0.05,69,0)" xlink:href="#x"/></g><path d="M137-138c1-29-70-34-71-4 15 46 118 7 119 86 1 83-164 76-172 9l43-7c4 19 20 25 44 25 33 8 57-30 24-41C81-84 22-81 20-136c-2-80 154-74 161-7" id="y"/><path d="M88-194c31-1 46 15 58 34l-1-101h50l1 261h-48c-2-10 0-23-3-31C134-8 116 4 84 4 32 4 16-41 15-95c0-56 19-97 73-99zm17 164c33 0 40-30 41-66 1-37-9-64-41-64s-38 30-39 65c0 43 13 65 39 65" id="z"/><g id="b"><use transform="matrix(0.05,0,0,0.05,0,0)" xlink:href="#y"/><use transform="matrix(0.05,0,0,0.05,10,0)" xlink:href="#z"/><path d="M-.9.97h22.75v1.9H-.9z"/></g><path d="M143 4C61 4 22-44 18-125c-5-107 100-154 193-111 17 8 29 25 37 43l-32 9c-13-25-37-40-76-40-61 0-88 39-88 99 0 61 29 100 91 101 35 0 62-11 79-27v-45h-74v-28h105v86C228-13 192 4 143 4" id="A"/><path d="M100-194c63 0 86 42 84 106H49c0 40 14 67 53 68 26 1 43-12 49-29l28 8c-11 28-37 45-77 45C44 4 14-33 15-96c1-61 26-98 85-98zm52 81c6-60-76-77-97-28-3 7-6 17-6 28h103" id="B"/><g id="c"><use transform="matrix(0.05,0,0,0.05,0,0)" xlink:href="#A"/><use transform="matrix(0.05,0,0,0.05,14,0)" xlink:href="#B"/><use transform="matrix(0.05,0,0,0.05,24,0)" xlink:href="#w"/></g><path d="M85-194c31 0 48 13 60 33l-1-100h32l1 261h-30c-2-10 0-23-3-31C134-8 116 4 85 4 32 4 16-35 15-94c0-66 23-100 70-100zm9 24c-40 0-46 34-46 75 0 40 6 74 45 74 42 0 51-32 51-76 0-42-9-74-50-73" id="C"/><path d="M24-231v-30h32v30H24zM24 0v-190h32V0H24" id="D"/><path d="M96-169c-40 0-48 33-48 73s9 75 48 75c24 0 41-14 43-38l32 2c-6 37-31 61-74 61-59 0-76-41-82-99-10-93 101-131 147-64 4 7 5 14 7 22l-32 3c-4-21-16-35-41-35" id="E"/><path d="M135-143c-3-34-86-38-87 0 15 53 115 12 119 90S17 21 10-45l28-5c4 36 97 45 98 0-10-56-113-15-118-90-4-57 82-63 122-42 12 7 21 19 24 35" id="F"/><g id="d"><use transform="matrix(0.05,0,0,0.05,0,0)" xlink:href="#C"/><use transform="matrix(0.05,0,0,0.05,10,0)" xlink:href="#D"/><use transform="matrix(0.05,0,0,0.05,13.949999999999998,0)" xlink:href="#x"/><use transform="matrix(0.05,0,0,0.05,19.9,0)" xlink:href="#B"/><use transform="matrix(0.05,0,0,0.05,29.899999999999995,0)" xlink:href="#E"/><use transform="matrix(0.05,0,0,0.05,38.9,0)" xlink:href="#w"/><use transform="matrix(0.05,0,0,0.05,43.9,0)" xlink:href="#D"/><use transform="matrix(0.05,0,0,0.05,47.85,0)" xlink:href="#t"/><use transform="matrix(0.05,0,0,0.05,57.85,0)" xlink:href="#s"/><use transform="matrix(0.05,0,0,0.05,67.85,0)" xlink:href="#F"/></g><path d="M33-154v-36h34v36H33zM33 0v-36h34V0H33" id="G"/><path d="M206 0h-36l-40-164L89 0H53L-1-190h32L70-26l43-164h34l41 164 42-164h31" id="H"/><path d="M232-93c-1 65-40 97-104 97C67 4 28-28 28-90v-158h33c8 89-33 224 67 224 102 0 64-133 71-224h33v155" id="I"/><g id="e"><use transform="matrix(0.05,0,0,0.05,0,0)" xlink:href="#G"/><use transform="matrix(0.05,0,0,0.05,5,0)" xlink:href="#r"/><use transform="matrix(0.05,0,0,0.05,10,0)" xlink:href="#s"/><use transform="matrix(0.05,0,0,0.05,20,0)" xlink:href="#w"/><use transform="matrix(0.05,0,0,0.05,25,0)" xlink:href="#B"/><use transform="matrix(0.05,0,0,0.05,35,0)" xlink:href="#x"/><use transform="matrix(0.05,0,0,0.05,40.95,0)" xlink:href="#u"/><use transform="matrix(0.05,0,0,0.05,49.95,0)" xlink:href="#D"/><use transform="matrix(0.05,0,0,0.05,53.900000000000006,0)" xlink:href="#B"/><use transform="matrix(0.05,0,0,0.05,63.900000000000006,0)" xlink:href="#H"/><use transform="matrix(0.05,0,0,0.05,76.85000000000001,0)" xlink:href="#I"/><use transform="matrix(0.05,0,0,0.05,89.80000000000001,0)" xlink:href="#r"/><path d="M-.9 1.25h96.6v1.32H-.9z"/></g><path d="M160-131c35 5 61 23 61 61C221 17 115-2 30 0v-248c76 3 177-17 177 60 0 33-19 50-47 57zm-97-11c50-1 110 9 110-42 0-47-63-36-110-37v79zm0 115c55-2 124 14 124-45 0-56-70-42-124-44v89" id="J"/><path d="M30-248c118-7 216 8 213 122C240-48 200 0 122 0H30v-248zM63-27c89 8 146-16 146-99s-60-101-146-95v194" id="K"/><path d="M87 75C49 33 22-17 22-94c0-76 28-126 65-167h31c-38 41-64 92-64 168S80 34 118 75H87" id="L"/><path d="M33-261c38 41 65 92 65 168S71 34 33 75H2C39 34 66-17 66-93S39-220 2-261h31" id="M"/><g id="f"><use transform="matrix(0.05,0,0,0.05,0,0)" xlink:href="#J"/><use transform="matrix(0.05,0,0,0.05,12,0)" xlink:href="#w"/><use transform="matrix(0.05,0,0,0.05,17,0)" xlink:href="#s"/><use transform="matrix(0.05,0,0,0.05,27,0)" xlink:href="#A"/><use transform="matrix(0.05,0,0,0.05,41,0)" xlink:href="#B"/><use transform="matrix(0.05,0,0,0.05,51,0)" xlink:href="#w"/><use transform="matrix(0.05,0,0,0.05,56,0)" xlink:href="#K"/><use transform="matrix(0.05,0,0,0.05,68.95,0)" xlink:href="#D"/><use transform="matrix(0.05,0,0,0.05,72.9,0)" xlink:href="#x"/><use transform="matrix(0.05,0,0,0.05,78.85000000000001,0)" xlink:href="#B"/><use transform="matrix(0.05,0,0,0.05,88.85000000000001,0)" xlink:href="#E"/><use transform="matrix(0.05,0,0,0.05,97.85000000000001,0)" xlink:href="#w"/><use transform="matrix(0.05,0,0,0.05,102.85000000000001,0)" xlink:href="#D"/><use transform="matrix(0.05,0,0,0.05,106.80000000000001,0)" xlink:href="#t"/><use transform="matrix(0.05,0,0,0.05,116.80000000000001,0)" xlink:href="#s"/><use transform="matrix(0.05,0,0,0.05,126.80000000000001,0)" xlink:href="#F"/><use transform="matrix(0.05,0,0,0.05,135.8,0)" xlink:href="#L"/><use transform="matrix(0.05,0,0,0.05,141.75,0)" xlink:href="#M"/></g><g id="g"><use transform="matrix(0.05,0,0,0.05,0,0)" xlink:href="#G"/><use transform="matrix(0.05,0,0,0.05,5,0)" xlink:href="#r"/><use transform="matrix(0.05,0,0,0.05,10,0)" xlink:href="#s"/><use transform="matrix(0.05,0,0,0.05,20,0)" xlink:href="#w"/><use transform="matrix(0.05,0,0,0.05,25,0)" xlink:href="#B"/><use transform="matrix(0.05,0,0,0.05,35,0)" xlink:href="#x"/><use transform="matrix(0.05,0,0,0.05,40.95,0)" xlink:href="#u"/><use transform="matrix(0.05,0,0,0.05,49.95,0)" xlink:href="#D"/><use transform="matrix(0.05,0,0,0.05,53.900000000000006,0)" xlink:href="#B"/><use transform="matrix(0.05,0,0,0.05,63.900000000000006,0)" xlink:href="#H"/><path d="M-.9 1.25h78.65v1.32H-.9z"/></g><path d="M205 0l-28-72H64L36 0H1l101-248h38L239 0h-34zm-38-99l-47-123c-12 45-31 82-46 123h93" id="N"/><g id="h"><use transform="matrix(0.05,0,0,0.05,0,0)" xlink:href="#A"/><use transform="matrix(0.05,0,0,0.05,14,0)" xlink:href="#B"/><use transform="matrix(0.05,0,0,0.05,24,0)" xlink:href="#w"/><use transform="matrix(0.05,0,0,0.05,29,0)" xlink:href="#N"/><use transform="matrix(0.05,0,0,0.05,41,0)" xlink:href="#C"/><use transform="matrix(0.05,0,0,0.05,51,0)" xlink:href="#C"/><use transform="matrix(0.05,0,0,0.05,61,0)" xlink:href="#x"/><use transform="matrix(0.05,0,0,0.05,66.95,0)" xlink:href="#B"/><use transform="matrix(0.05,0,0,0.05,76.95,0)" xlink:href="#F"/><use transform="matrix(0.05,0,0,0.05,85.95,0)" xlink:href="#F"/><use transform="matrix(0.05,0,0,0.05,94.95,0)" xlink:href="#L"/><use transform="matrix(0.05,0,0,0.05,100.9,0)" xlink:href="#M"/></g><g id="i"><use transform="matrix(0.05,0,0,0.05,0,0)" xlink:href="#K"/><use transform="matrix(0.05,0,0,0.05,12.950000000000001,0)" xlink:href="#B"/><use transform="matrix(0.05,0,0,0.05,22.950000000000003,0)" xlink:href="#F"/><use transform="matrix(0.05,0,0,0.05,31.950000000000003,0)" xlink:href="#w"/><use transform="matrix(0.05,0,0,0.05,36.95,0)" xlink:href="#N"/><use transform="matrix(0.05,0,0,0.05,48.95,0)" xlink:href="#C"/><use transform="matrix(0.05,0,0,0.05,58.95,0)" xlink:href="#C"/><use transform="matrix(0.05,0,0,0.05,68.95,0)" xlink:href="#x"/><use transform="matrix(0.05,0,0,0.05,74.9,0)" xlink:href="#B"/><use transform="matrix(0.05,0,0,0.05,84.9,0)" xlink:href="#F"/><use transform="matrix(0.05,0,0,0.05,93.9,0)" xlink:href="#F"/></g><path d="M177-190C167-65 218 103 67 71c-23-6-38-20-44-43l32-5c15 47 100 32 89-28v-30C133-14 115 1 83 1 29 1 15-40 15-95c0-56 16-97 71-98 29-1 48 16 59 35 1-10 0-23 2-32h30zM94-22c36 0 50-32 50-73 0-42-14-75-50-75-39 0-46 34-46 75s6 73 46 73" id="O"/><path d="M24 0v-261h32V0H24" id="P"/><path d="M240 0l2-218c-23 76-54 145-80 218h-23L58-218 59 0H30v-248h44l77 211c21-75 51-140 76-211h43V0h-30" id="Q"/><path d="M115-194c55 1 70 41 70 98S169 2 115 4C84 4 66-9 55-30l1 105H24l-1-265h31l2 30c10-21 28-34 59-34zm-8 174c40 0 45-34 45-75s-6-73-45-74c-42 0-51 32-51 76 0 43 10 73 51 73" id="R"/><g id="j"><use transform="matrix(0.05,0,0,0.05,0,0)" xlink:href="#G"/><use transform="matrix(0.05,0,0,0.05,5,0)" xlink:href="#A"/><use transform="matrix(0.05,0,0,0.05,19,0)" xlink:href="#t"/><use transform="matrix(0.05,0,0,0.05,29,0)" xlink:href="#t"/><use transform="matrix(0.05,0,0,0.05,39,0)" xlink:href="#O"/><use transform="matrix(0.05,0,0,0.05,49,0)" xlink:href="#P"/><use transform="matrix(0.05,0,0,0.05,52.95,0)" xlink:href="#B"/><use transform="matrix(0.05,0,0,0.05,62.95,0)" xlink:href="#Q"/><use transform="matrix(0.05,0,0,0.05,77.9,0)" xlink:href="#v"/><use transform="matrix(0.05,0,0,0.05,87.9,0)" xlink:href="#R"/><use transform="matrix(0.05,0,0,0.05,97.9,0)" xlink:href="#F"/><path d="M-.9 1.25h108.7v1.32H-.9z"/></g><path d="M30 0v-248h187v28H63v79h144v27H63v87h162V0H30" id="S"/><g id="k"><use transform="matrix(0.05,0,0,0.05,0,0)" xlink:href="#S"/><use transform="matrix(0.05,0,0,0.05,12,0)" xlink:href="#s"/><use transform="matrix(0.05,0,0,0.05,22,0)" xlink:href="#w"/><use transform="matrix(0.05,0,0,0.05,27,0)" xlink:href="#B"/><use transform="matrix(0.05,0,0,0.05,37,0)" xlink:href="#x"/></g><path d="M84 4C-5 8 30-112 23-190h32v120c0 31 7 50 39 49 72-2 45-101 50-169h31l1 190h-30c-1-10 1-25-2-33-11 22-28 36-60 37" id="T"/><g id="l"><use transform="matrix(0.05,0,0,0.05,0,0)" xlink:href="#E"/><use transform="matrix(0.05,0,0,0.05,9,0)" xlink:href="#T"/><use transform="matrix(0.05,0,0,0.05,19,0)" xlink:href="#x"/><use transform="matrix(0.05,0,0,0.05,24.95,0)" xlink:href="#x"/><use transform="matrix(0.05,0,0,0.05,30.899999999999995,0)" xlink:href="#B"/><use transform="matrix(0.05,0,0,0.05,40.9,0)" xlink:href="#s"/><use transform="matrix(0.05,0,0,0.05,50.9,0)" xlink:href="#w"/></g><g id="m"><use transform="matrix(0.05,0,0,0.05,0,0)" xlink:href="#P"/><use transform="matrix(0.05,0,0,0.05,3.95,0)" xlink:href="#t"/><use transform="matrix(0.05,0,0,0.05,13.949999999999998,0)" xlink:href="#E"/><use transform="matrix(0.05,0,0,0.05,22.95,0)" xlink:href="#v"/><use transform="matrix(0.05,0,0,0.05,32.95,0)" xlink:href="#w"/><use transform="matrix(0.05,0,0,0.05,37.95,0)" xlink:href="#D"/><use transform="matrix(0.05,0,0,0.05,41.900000000000006,0)" xlink:href="#t"/><use transform="matrix(0.05,0,0,0.05,51.900000000000006,0)" xlink:href="#s"/></g><path d="M212-179c-10-28-35-45-73-45-59 0-87 40-87 99 0 60 29 101 89 101 43 0 62-24 78-52l27 14C228-24 195 4 139 4 59 4 22-46 18-125c-6-104 99-153 187-111 19 9 31 26 39 46" id="U"/><path d="M68-38c1 34 0 65-14 84H32c9-13 17-26 17-46H33v-38h35" id="V"/><g id="n"><use transform="matrix(0.05,0,0,0.05,0,0)" xlink:href="#A"/><use transform="matrix(0.05,0,0,0.05,14,0)" xlink:href="#B"/><use transform="matrix(0.05,0,0,0.05,24,0)" xlink:href="#w"/><use transform="matrix(0.05,0,0,0.05,29,0)" xlink:href="#K"/><use transform="matrix(0.05,0,0,0.05,41.95,0)" xlink:href="#D"/><use transform="matrix(0.05,0,0,0.05,45.900000000000006,0)" xlink:href="#x"/><use transform="matrix(0.05,0,0,0.05,51.85,0)" xlink:href="#B"/><use transform="matrix(0.05,0,0,0.05,61.85,0)" xlink:href="#E"/><use transform="matrix(0.05,0,0,0.05,70.85000000000001,0)" xlink:href="#w"/><use transform="matrix(0.05,0,0,0.05,75.85000000000001,0)" xlink:href="#D"/><use transform="matrix(0.05,0,0,0.05,79.80000000000001,0)" xlink:href="#t"/><use transform="matrix(0.05,0,0,0.05,89.80000000000001,0)" xlink:href="#s"/><use transform="matrix(0.05,0,0,0.05,99.80000000000001,0)" xlink:href="#F"/><use transform="matrix(0.05,0,0,0.05,108.80000000000001,0)" xlink:href="#L"/><use transform="matrix(0.05,0,0,0.05,114.75,0)" xlink:href="#U"/><use transform="matrix(0.05,0,0,0.05,127.7,0)" xlink:href="#T"/><use transform="matrix(0.05,0,0,0.05,137.70000000000002,0)" xlink:href="#x"/><use transform="matrix(0.05,0,0,0.05,143.65,0)" xlink:href="#x"/><use transform="matrix(0.05,0,0,0.05,149.6,0)" xlink:href="#B"/><use transform="matrix(0.05,0,0,0.05,159.6,0)" xlink:href="#s"/><use transform="matrix(0.05,0,0,0.05,169.6,0)" xlink:href="#w"/><use transform="matrix(0.05,0,0,0.05,174.6,0)" xlink:href="#P"/><use transform="matrix(0.05,0,0,0.05,178.54999999999998,0)" xlink:href="#t"/><use transform="matrix(0.05,0,0,0.05,188.54999999999998,0)" xlink:href="#E"/><use transform="matrix(0.05,0,0,0.05,197.54999999999998,0)" xlink:href="#V"/><use transform="matrix(0.05,0,0,0.05,202.54999999999998,0)" xlink:href="#K"/><use transform="matrix(0.05,0,0,0.05,215.49999999999997,0)" xlink:href="#B"/><use transform="matrix(0.05,0,0,0.05,225.49999999999997,0)" xlink:href="#F"/><use transform="matrix(0.05,0,0,0.05,234.49999999999997,0)" xlink:href="#w"/><use transform="matrix(0.05,0,0,0.05,239.49999999999997,0)" xlink:href="#N"/><use transform="matrix(0.05,0,0,0.05,251.49999999999997,0)" xlink:href="#C"/><use transform="matrix(0.05,0,0,0.05,261.5,0)" xlink:href="#C"/><use transform="matrix(0.05,0,0,0.05,271.5,0)" xlink:href="#x"/><use transform="matrix(0.05,0,0,0.05,277.45,0)" xlink:href="#B"/><use transform="matrix(0.05,0,0,0.05,287.45,0)" xlink:href="#F"/><use transform="matrix(0.05,0,0,0.05,296.45,0)" xlink:href="#M"/></g><g id="o"><use transform="matrix(0.05,0,0,0.05,0,0)" xlink:href="#K"/><use transform="matrix(0.05,0,0,0.05,12.950000000000001,0)" xlink:href="#D"/><use transform="matrix(0.05,0,0,0.05,16.900000000000002,0)" xlink:href="#x"/><use transform="matrix(0.05,0,0,0.05,22.85,0)" xlink:href="#B"/><use transform="matrix(0.05,0,0,0.05,32.85,0)" xlink:href="#E"/><use transform="matrix(0.05,0,0,0.05,41.85,0)" xlink:href="#w"/><use transform="matrix(0.05,0,0,0.05,46.85,0)" xlink:href="#D"/><use transform="matrix(0.05,0,0,0.05,50.800000000000004,0)" xlink:href="#t"/><use transform="matrix(0.05,0,0,0.05,60.800000000000004,0)" xlink:href="#s"/><use transform="matrix(0.05,0,0,0.05,70.80000000000001,0)" xlink:href="#F"/></g><path d="M179-190L93 31C79 59 56 82 12 73V49c39 6 53-20 64-50L1-190h34L92-34l54-156h33" id="W"/><g id="p"><use transform="matrix(0.05,0,0,0.05,0,0)" xlink:href="#K"/><use transform="matrix(0.05,0,0,0.05,12.950000000000001,0)" xlink:href="#D"/><use transform="matrix(0.05,0,0,0.05,16.900000000000002,0)" xlink:href="#F"/><use transform="matrix(0.05,0,0,0.05,25.900000000000002,0)" xlink:href="#R"/><use transform="matrix(0.05,0,0,0.05,35.900000000000006,0)" xlink:href="#P"/><use transform="matrix(0.05,0,0,0.05,39.85000000000001,0)" xlink:href="#v"/><use transform="matrix(0.05,0,0,0.05,49.85000000000001,0)" xlink:href="#W"/></g><g id="q"><use transform="matrix(0.05,0,0,0.05,0,0)" xlink:href="#C"/><use transform="matrix(0.05,0,0,0.05,10,0)" xlink:href="#D"/><use transform="matrix(0.05,0,0,0.05,13.949999999999998,0)" xlink:href="#x"/><use transform="matrix(0.05,0,0,0.05,19.9,0)" xlink:href="#B"/><use transform="matrix(0.05,0,0,0.05,29.899999999999995,0)" xlink:href="#E"/><use transform="matrix(0.05,0,0,0.05,38.9,0)" xlink:href="#w"/><use transform="matrix(0.05,0,0,0.05,43.9,0)" xlink:href="#D"/><use transform="matrix(0.05,0,0,0.05,47.85,0)" xlink:href="#t"/><use transform="matrix(0.05,0,0,0.05,57.85,0)" xlink:href="#s"/><use transform="matrix(0.05,0,0,0.05,67.85,0)" xlink:href="#F"/></g></defs></g></svg>