<svg xmlns="http://www.w3.org/2000/svg" xmlns:xlink="http://www.w3.org/1999/xlink" xmlns:lucid="lucid" width="1260" height="880"><g transform="translate(-80 -60)" lucid:page-tab-id="ZgLZXZapt5fJ"><path d="M100 80h305v20l-10 10H100z" fill="#fff"/><path d="M405 80v20l-10 10H100" stroke="#000" stroke-width="2" fill="none"/><path d="M100 80h1220v840H100z" stroke="#000" stroke-width="2" fill="none"/><use xlink:href="#a" transform="matrix(1,0,0,1,108,80) translate(0 18.6)"/><use xlink:href="#b" transform="matrix(1,0,0,1,108,80) translate(30.950000000000003 18.6)"/><use xlink:href="#c" transform="matrix(1,0,0,1,108,80) translate(74.5 18.6)"/><use xlink:href="#d" transform="matrix(1,0,0,1,108,80) translate(139.35 18.6)"/><use xlink:href="#e" transform="matrix(1,0,0,1,108,80) translate(182.3 18.6)"/><use xlink:href="#f" transform="matrix(1,0,0,1,108,80) translate(235.25 18.6)"/><path d="M165 135c0 8.28-6.72 15-15 15-8.28 0-15-6.72-15-15 0-8.28 6.72-15 15-15 8.28 0 15 6.72 15 15z" stroke="#000" stroke-width="2" fill="#fff"/><path d="M150 150v64.8l30 63.2m-30-63.2L120 278m0-113h60" stroke="#000" stroke-width="2" fill="none"/><path d="M120 120h60v180h-60z" fill="none"/><use xlink:href="#g" transform="matrix(1,0,0,1,40,278) translate(78.025 14.6)"/><path d="M150 218.13V228m0 9.84v19.7m0 9.87v19.72m0 9.85v19.7m0 9.87v19.7m0 9.86v19.7m0 9.87v19.7m0 9.86v19.7m0 9.87v19.7m0 9.86v19.7m0 9.87v19.7m0 9.86v19.7m0 9.86v19.7m0 9.86v19.7m0 9.87v19.7m0 9.85v19.7m0 9.87v19.7m0 9.86v19.7m0 9.87v19.7m0 9.86v19.72m0 9.86v19.7m0 9.86V839M150 218.16v-4.03M150 838.97V840" stroke="#000" stroke-width="2" fill="none"/><path d="M130 320h40v480h-40zM360 200h160v60H360z" stroke="#000" stroke-width="2" fill="#fff"/><use xlink:href="#h" transform="matrix(1,0,0,1,360,200) translate(23.10499999999999 33.15)"/><path d="M440 262v9.95m0 9.95v19.9m0 9.95v19.9m0 9.95v19.9m0 9.95v19.9m0 9.95v19.9m0 9.95v19.9m0 9.95v19.9m0 9.95v19.9m0 9.95v19.9m0 9.95v19.9m0 9.95v19.9m0 9.95v19.9m0 9.95V660m0 9.95v19.9m0 9.95v19.9m0 9.95v19.9m0 9.95v19.9m0 9.95v19.9m0 9.95v19.9m0 9.95V859" stroke="#000" stroke-width="2" fill="none"/><path d="M441 262.03h-2V261h2z"/><path d="M440 858.97V860" stroke="#000" stroke-width="2" fill="none"/><path d="M420 320h40v480h-40z" stroke="#000" stroke-width="2" fill="#fff"/><path d="M172 385.02h228.5" stroke="#000" stroke-width="2" fill="none"/><path d="M172.03 386.02H171v-2h1.03z"/><path d="M415.76 385.02l-14.26 4.64v-9.27z" stroke="#000" stroke-width="2"/><use xlink:href="#i" transform="matrix(1,0,0,1,225.825,359.42222222222256) translate(0 14.4)"/><path d="M720 300h160v60H720z" stroke="#000" stroke-width="2" fill="#fff"/><use xlink:href="#j" transform="matrix(1,0,0,1,720,300) translate(33.57999999999999 33.15)"/><path d="M800 362v10.16m0 10.15v20.32m0 10.16v20.3m0 10.16v20.32m0 10.15v20.32m0 10.16v20.3m0 10.16v20.32m0 10.15v20.32m0 10.16v20.3m0 10.16v20.32m0 10.15v20.32m0 10.16v20.3m0 10.16v20.32m0 10.15v20.32m0 10.16v20.3m0 10.16V819" stroke="#000" stroke-width="2" fill="none"/><path d="M801 362.03h-2V361h2z"/><path d="M800 818.97V820" stroke="#000" stroke-width="2" fill="none"/><path d="M780 400h40v360h-40z" stroke="#000" stroke-width="2" fill="#fff"/><path d="M462 438.36h298.5" stroke="#000" stroke-width="2" fill="none"/><path d="M462.03 439.36H461v-2h1.03z"/><path d="M775.76 438.36L761.5 443v-9.28z" stroke="#000" stroke-width="2"/><use xlink:href="#k" transform="matrix(1,0,0,1,542.85,412.7555555555558) translate(0 14.4)"/><path d="M778 564.58h-9.95m-9.95 0h-19.9m-9.95 0h-19.9m-9.95 0h-19.9m-9.95 0h-19.9m-9.95 0h-19.9m-9.95 0h-19.9m-9.95 0h-19.9m-9.95 0h-19.9m-9.95 0h-19.9m-9.95 0h-9.95" stroke="#000" stroke-width="2" fill="none"/><path d="M779 565.58h-1.03v-2H779z"/><path d="M464.24 564.58l14.26-4.64v9.27z" stroke="#000" stroke-width="2"/><use xlink:href="#l" transform="matrix(1,0,0,1,600.2,568.5777777777778) translate(0 14.4)"/><path d="M418 629.9h-9.52m-9.52 0h-19.04m-9.52 0h-19.05m-9.52 0H322.8m-9.53 0h-19.04m-9.52 0h-19.03m-9.52 0H237.1m-9.52 0h-19.04m-9.52 0h-9.52" stroke="#000" stroke-width="2" fill="none"/><path d="M419 630.9h-1.03v-2H419z"/><path d="M174.24 629.9l14.26-4.62v9.27z" stroke="#000" stroke-width="2"/><use xlink:href="#m" transform="matrix(1,0,0,1,245.27499999999998,633.9111111111113) translate(0 14.4)"/><use xlink:href="#n" transform="matrix(1,0,0,1,245.27499999999998,633.9111111111113) translate(63.85000000000001 14.4)"/><path d="M500 460h100v20l-10 10h-90z" fill="#fff"/><path d="M600 460v20l-10 10h-90" stroke="#000" stroke-width="2" fill="none"/><path d="M500 460h700v260H500z" stroke="#000" stroke-width="2" fill="none"/><g><use xlink:href="#o" transform="matrix(1,0,0,1,508,460) translate(0 18.6)"/></g><g><use xlink:href="#p" transform="matrix(1,0,0,1,512,498) translate(0 19.266666666666666)"/><use xlink:href="#q" transform="matrix(1,0,0,1,512,498) translate(5.9259259259259265 19.266666666666666)"/><use xlink:href="#r" transform="matrix(1,0,0,1,512,498) translate(81.65925925925927 19.266666666666666)"/><use xlink:href="#s" transform="matrix(1,0,0,1,512,498) translate(112.4740740740741 19.266666666666666)"/></g><defs><path d="M137-138c1-29-70-34-71-4 15 46 118 7 119 86 1 83-164 76-172 9l43-7c4 19 20 25 44 25 33 8 57-30 24-41C81-84 22-81 20-136c-2-80 154-74 161-7" id="t"/><path d="M88-194c31-1 46 15 58 34l-1-101h50l1 261h-48c-2-10 0-23-3-31C134-8 116 4 84 4 32 4 16-41 15-95c0-56 19-97 73-99zm17 164c33 0 40-30 41-66 1-37-9-64-41-64s-38 30-39 65c0 43 13 65 39 65" id="u"/><g id="a"><use transform="matrix(0.05,0,0,0.05,0,0)" xlink:href="#t"/><use transform="matrix(0.05,0,0,0.05,10,0)" xlink:href="#u"/><path d="M-.9.97h32.75v1.9H-.9z"/></g><path d="M137 0h-34L2-248h35l83 218 83-218h36" id="v"/><path d="M24-231v-30h32v30H24zM24 0v-190h32V0H24" id="w"/><path d="M100-194c63 0 86 42 84 106H49c0 40 14 67 53 68 26 1 43-12 49-29l28 8c-11 28-37 45-77 45C44 4 14-33 15-96c1-61 26-98 85-98zm52 81c6-60-76-77-97-28-3 7-6 17-6 28h103" id="x"/><path d="M206 0h-36l-40-164L89 0H53L-1-190h32L70-26l43-164h34l41 164 42-164h31" id="y"/><g id="b"><use transform="matrix(0.05,0,0,0.05,0,0)" xlink:href="#v"/><use transform="matrix(0.05,0,0,0.05,11.65,0)" xlink:href="#w"/><use transform="matrix(0.05,0,0,0.05,15.600000000000001,0)" xlink:href="#x"/><use transform="matrix(0.05,0,0,0.05,25.6,0)" xlink:href="#y"/></g><path d="M212-179c-10-28-35-45-73-45-59 0-87 40-87 99 0 60 29 101 89 101 43 0 62-24 78-52l27 14C228-24 195 4 139 4 59 4 22-46 18-125c-6-104 99-153 187-111 19 9 31 26 39 46" id="z"/><path d="M84 4C-5 8 30-112 23-190h32v120c0 31 7 50 39 49 72-2 45-101 50-169h31l1 190h-30c-1-10 1-25-2-33-11 22-28 36-60 37" id="A"/><path d="M114-163C36-179 61-72 57 0H25l-1-190h30c1 12-1 29 2 39 6-27 23-49 58-41v29" id="B"/><path d="M117-194c89-4 53 116 60 194h-32v-121c0-31-8-49-39-48C34-167 62-67 57 0H25l-1-190h30c1 10-1 24 2 32 11-22 29-35 61-36" id="C"/><path d="M59-47c-2 24 18 29 38 22v24C64 9 27 4 27-40v-127H5v-23h24l9-43h21v43h35v23H59v120" id="D"/><g id="c"><use transform="matrix(0.05,0,0,0.05,0,0)" xlink:href="#z"/><use transform="matrix(0.05,0,0,0.05,12.950000000000001,0)" xlink:href="#A"/><use transform="matrix(0.05,0,0,0.05,22.950000000000003,0)" xlink:href="#B"/><use transform="matrix(0.05,0,0,0.05,28.900000000000002,0)" xlink:href="#B"/><use transform="matrix(0.05,0,0,0.05,34.85,0)" xlink:href="#x"/><use transform="matrix(0.05,0,0,0.05,44.85,0)" xlink:href="#C"/><use transform="matrix(0.05,0,0,0.05,54.85,0)" xlink:href="#D"/></g><path d="M115-194c55 1 70 41 70 98S169 2 115 4C84 4 66-9 55-30l1 105H24l-1-265h31l2 30c10-21 28-34 59-34zm-8 174c40 0 45-34 45-75s-6-73-45-74c-42 0-51 32-51 76 0 43 10 73 51 73" id="E"/><path d="M96-169c-40 0-48 33-48 73s9 75 48 75c24 0 41-14 43-38l32 2c-6 37-31 61-74 61-59 0-76-41-82-99-10-93 101-131 147-64 4 7 5 14 7 22l-32 3c-4-21-16-35-41-35" id="F"/><path d="M106-169C34-169 62-67 57 0H25v-261h32l-1 103c12-21 28-36 61-36 89 0 53 116 60 194h-32v-121c2-32-8-49-39-48" id="G"/><g id="d"><use transform="matrix(0.05,0,0,0.05,0,0)" xlink:href="#E"/><use transform="matrix(0.05,0,0,0.05,10,0)" xlink:href="#w"/><use transform="matrix(0.05,0,0,0.05,13.949999999999998,0)" xlink:href="#D"/><use transform="matrix(0.05,0,0,0.05,18.95,0)" xlink:href="#F"/><use transform="matrix(0.05,0,0,0.05,27.950000000000003,0)" xlink:href="#G"/></g><path d="M145-31C134-9 116 4 85 4 32 4 16-35 15-94c0-59 17-99 70-100 32-1 48 14 60 33 0-11-1-24 2-32h30l-1 268h-32zM93-21c41 0 51-33 51-76s-8-73-50-73c-40 0-46 35-46 75s5 74 45 74" id="H"/><path d="M179-190L93 31C79 59 56 82 12 73V49c39 6 53-20 64-50L1-190h34L92-34l54-156h33" id="I"/><g id="e"><use transform="matrix(0.05,0,0,0.05,0,0)" xlink:href="#x"/><use transform="matrix(0.05,0,0,0.05,10,0)" xlink:href="#H"/><use transform="matrix(0.05,0,0,0.05,20,0)" xlink:href="#A"/><use transform="matrix(0.05,0,0,0.05,30,0)" xlink:href="#w"/><use transform="matrix(0.05,0,0,0.05,33.95,0)" xlink:href="#D"/><use transform="matrix(0.05,0,0,0.05,38.95,0)" xlink:href="#I"/></g><path d="M100-194c62-1 85 37 85 99 1 63-27 99-86 99S16-35 15-95c0-66 28-99 85-99zM99-20c44 1 53-31 53-75 0-43-8-75-51-75s-53 32-53 75 10 74 51 75" id="J"/><path d="M101-234c-31-9-42 10-38 44h38v23H63V0H32v-167H5v-23h27c-7-52 17-82 69-68v24" id="K"/><g id="f"><use transform="matrix(0.05,0,0,0.05,0,0)" xlink:href="#J"/><use transform="matrix(0.05,0,0,0.05,10,0)" xlink:href="#K"/><use transform="matrix(0.05,0,0,0.05,14.65,0)" xlink:href="#K"/><use transform="matrix(0.05,0,0,0.05,19.65,0)" xlink:href="#x"/><use transform="matrix(0.05,0,0,0.05,29.649999999999995,0)" xlink:href="#B"/></g><path d="M33 0v-248h34V0H33" id="L"/><path d="M108 0H70L1-190h34L89-25l56-165h34" id="M"/><path d="M135-143c-3-34-86-38-87 0 15 53 115 12 119 90S17 21 10-45l28-5c4 36 97 45 98 0-10-56-113-15-118-90-4-57 82-63 122-42 12 7 21 19 24 35" id="N"/><g id="g"><use transform="matrix(0.05,0,0,0.05,0,0)" xlink:href="#L"/><use transform="matrix(0.05,0,0,0.05,5,0)" xlink:href="#C"/><use transform="matrix(0.05,0,0,0.05,15,0)" xlink:href="#M"/><use transform="matrix(0.05,0,0,0.05,24,0)" xlink:href="#x"/><use transform="matrix(0.05,0,0,0.05,34,0)" xlink:href="#N"/><use transform="matrix(0.05,0,0,0.05,43,0)" xlink:href="#D"/><use transform="matrix(0.05,0,0,0.05,48,0)" xlink:href="#J"/><use transform="matrix(0.05,0,0,0.05,58,0)" xlink:href="#B"/></g><path d="M33-154v-36h34v36H33zM33 0v-36h34V0H33" id="O"/><path d="M190 0L58-211 59 0H30v-248h39L202-35l-2-213h31V0h-41" id="P"/><path d="M177-190C167-65 218 103 67 71c-23-6-38-20-44-43l32-5c15 47 100 32 89-28v-30C133-14 115 1 83 1 29 1 15-40 15-95c0-56 16-97 71-98 29-1 48 16 59 35 1-10 0-23 2-32h30zM94-22c36 0 50-32 50-73 0-42-14-75-50-75-39 0-46 34-46 75s6 73 46 73" id="Q"/><path d="M141-36C126-15 110 5 73 4 37 3 15-17 15-53c-1-64 63-63 125-63 3-35-9-54-41-54-24 1-41 7-42 31l-33-3c5-37 33-52 76-52 45 0 72 20 72 64v82c-1 20 7 32 28 27v20c-31 9-61-2-59-35zM48-53c0 20 12 33 32 33 41-3 63-29 60-74-43 2-92-5-92 41" id="R"/><path d="M232-93c-1 65-40 97-104 97C67 4 28-28 28-90v-158h33c8 89-33 224 67 224 102 0 64-133 71-224h33v155" id="S"/><g id="h"><use transform="matrix(0.05,0,0,0.05,0,0)" xlink:href="#O"/><use transform="matrix(0.05,0,0,0.05,5,0)" xlink:href="#P"/><use transform="matrix(0.05,0,0,0.05,17.950000000000003,0)" xlink:href="#x"/><use transform="matrix(0.05,0,0,0.05,27.950000000000003,0)" xlink:href="#Q"/><use transform="matrix(0.05,0,0,0.05,37.95,0)" xlink:href="#J"/><use transform="matrix(0.05,0,0,0.05,47.95,0)" xlink:href="#D"/><use transform="matrix(0.05,0,0,0.05,52.95,0)" xlink:href="#w"/><use transform="matrix(0.05,0,0,0.05,56.900000000000006,0)" xlink:href="#R"/><use transform="matrix(0.05,0,0,0.05,66.9,0)" xlink:href="#D"/><use transform="matrix(0.05,0,0,0.05,71.9,0)" xlink:href="#w"/><use transform="matrix(0.05,0,0,0.05,75.85000000000001,0)" xlink:href="#J"/><use transform="matrix(0.05,0,0,0.05,85.85000000000001,0)" xlink:href="#C"/><use transform="matrix(0.05,0,0,0.05,95.85000000000001,0)" xlink:href="#S"/><use transform="matrix(0.05,0,0,0.05,108.80000000000001,0)" xlink:href="#L"/><path d="M-.9 1.25h115.6v1.32H-.9z"/></g><path d="M160-131c35 5 61 23 61 61C221 17 115-2 30 0v-248c76 3 177-17 177 60 0 33-19 50-47 57zm-97-11c50-1 110 9 110-42 0-47-63-36-110-37v79zm0 115c55-2 124 14 124-45 0-56-70-42-124-44v89" id="T"/><path d="M140-251c81 0 123 46 123 126C263-46 219 4 140 4 59 4 17-45 17-125s42-126 123-126zm0 227c63 0 89-41 89-101s-29-99-89-99c-61 0-89 39-89 99S79-25 140-24" id="U"/><path d="M87 75C49 33 22-17 22-94c0-76 28-126 65-167h31c-38 41-64 92-64 168S80 34 118 75H87" id="V"/><path d="M33-261c38 41 65 92 65 168S71 34 33 75H2C39 34 66-17 66-93S39-220 2-261h31" id="W"/><g id="i"><use transform="matrix(0.05,0,0,0.05,0,0)" xlink:href="#T"/><use transform="matrix(0.05,0,0,0.05,12,0)" xlink:href="#D"/><use transform="matrix(0.05,0,0,0.05,17,0)" xlink:href="#C"/><use transform="matrix(0.05,0,0,0.05,27,0)" xlink:href="#z"/><use transform="matrix(0.05,0,0,0.05,39.95,0)" xlink:href="#A"/><use transform="matrix(0.05,0,0,0.05,49.95,0)" xlink:href="#B"/><use transform="matrix(0.05,0,0,0.05,55.900000000000006,0)" xlink:href="#B"/><use transform="matrix(0.05,0,0,0.05,61.85,0)" xlink:href="#x"/><use transform="matrix(0.05,0,0,0.05,71.85000000000001,0)" xlink:href="#C"/><use transform="matrix(0.05,0,0,0.05,81.85000000000001,0)" xlink:href="#D"/><use transform="matrix(0.05,0,0,0.05,86.85000000000001,0)" xlink:href="#U"/><use transform="matrix(0.05,0,0,0.05,100.85000000000001,0)" xlink:href="#K"/><use transform="matrix(0.05,0,0,0.05,105.5,0)" xlink:href="#K"/><use transform="matrix(0.05,0,0,0.05,110.5,0)" xlink:href="#x"/><use transform="matrix(0.05,0,0,0.05,120.5,0)" xlink:href="#B"/><use transform="matrix(0.05,0,0,0.05,126.45,0)" xlink:href="#V"/><use transform="matrix(0.05,0,0,0.05,132.4,0)" xlink:href="#W"/></g><path d="M205 0l-28-72H64L36 0H1l101-248h38L239 0h-34zm-38-99l-47-123c-12 45-31 82-46 123h93" id="X"/><path d="M24 0v-261h32V0H24" id="Y"/><g id="j"><use transform="matrix(0.05,0,0,0.05,0,0)" xlink:href="#O"/><use transform="matrix(0.05,0,0,0.05,5,0)" xlink:href="#X"/><use transform="matrix(0.05,0,0,0.05,17,0)" xlink:href="#E"/><use transform="matrix(0.05,0,0,0.05,27,0)" xlink:href="#E"/><use transform="matrix(0.05,0,0,0.05,37,0)" xlink:href="#Y"/><use transform="matrix(0.05,0,0,0.05,40.95,0)" xlink:href="#w"/><use transform="matrix(0.05,0,0,0.05,44.900000000000006,0)" xlink:href="#F"/><use transform="matrix(0.05,0,0,0.05,53.900000000000006,0)" xlink:href="#R"/><use transform="matrix(0.05,0,0,0.05,63.900000000000006,0)" xlink:href="#D"/><use transform="matrix(0.05,0,0,0.05,68.9,0)" xlink:href="#w"/><use transform="matrix(0.05,0,0,0.05,72.85000000000001,0)" xlink:href="#J"/><use transform="matrix(0.05,0,0,0.05,82.85000000000001,0)" xlink:href="#C"/><path d="M-.9 1.25h94.65v1.32H-.9z"/></g><path d="M143 4C61 4 22-44 18-125c-5-107 100-154 193-111 17 8 29 25 37 43l-32 9c-13-25-37-40-76-40-61 0-88 39-88 99 0 61 29 100 91 101 35 0 62-11 79-27v-45h-74v-28h105v86C228-13 192 4 143 4" id="Z"/><path d="M85-194c31 0 48 13 60 33l-1-100h32l1 261h-30c-2-10 0-23-3-31C134-8 116 4 85 4 32 4 16-35 15-94c0-66 23-100 70-100zm9 24c-40 0-46 34-46 75 0 40 6 74 45 74 42 0 51-32 51-76 0-42-9-74-50-73" id="aa"/><g id="k"><use transform="matrix(0.05,0,0,0.05,0,0)" xlink:href="#Z"/><use transform="matrix(0.05,0,0,0.05,14,0)" xlink:href="#x"/><use transform="matrix(0.05,0,0,0.05,24,0)" xlink:href="#D"/><use transform="matrix(0.05,0,0,0.05,29,0)" xlink:href="#z"/><use transform="matrix(0.05,0,0,0.05,41.95,0)" xlink:href="#A"/><use transform="matrix(0.05,0,0,0.05,51.95,0)" xlink:href="#B"/><use transform="matrix(0.05,0,0,0.05,57.900000000000006,0)" xlink:href="#B"/><use transform="matrix(0.05,0,0,0.05,63.85,0)" xlink:href="#x"/><use transform="matrix(0.05,0,0,0.05,73.85000000000001,0)" xlink:href="#C"/><use transform="matrix(0.05,0,0,0.05,83.85000000000001,0)" xlink:href="#D"/><use transform="matrix(0.05,0,0,0.05,88.85000000000001,0)" xlink:href="#U"/><use transform="matrix(0.05,0,0,0.05,102.85000000000001,0)" xlink:href="#K"/><use transform="matrix(0.05,0,0,0.05,107.5,0)" xlink:href="#K"/><use transform="matrix(0.05,0,0,0.05,112.5,0)" xlink:href="#x"/><use transform="matrix(0.05,0,0,0.05,122.5,0)" xlink:href="#B"/><use transform="matrix(0.05,0,0,0.05,128.45000000000002,0)" xlink:href="#V"/><use transform="matrix(0.05,0,0,0.05,134.4,0)" xlink:href="#w"/><use transform="matrix(0.05,0,0,0.05,138.35,0)" xlink:href="#aa"/><use transform="matrix(0.05,0,0,0.05,148.35,0)" xlink:href="#W"/></g><g id="l"><use transform="matrix(0.05,0,0,0.05,0,0)" xlink:href="#U"/><use transform="matrix(0.05,0,0,0.05,14,0)" xlink:href="#K"/><use transform="matrix(0.05,0,0,0.05,18.65,0)" xlink:href="#K"/><use transform="matrix(0.05,0,0,0.05,23.65,0)" xlink:href="#x"/><use transform="matrix(0.05,0,0,0.05,33.65,0)" xlink:href="#B"/></g><path d="M30-248c118-7 216 8 213 122C240-48 200 0 122 0H30v-248zM63-27c89 8 146-16 146-99s-60-101-146-95v194" id="ab"/><g id="m"><use transform="matrix(0.05,0,0,0.05,0,0)" xlink:href="#ab"/><use transform="matrix(0.05,0,0,0.05,12.950000000000001,0)" xlink:href="#w"/><use transform="matrix(0.05,0,0,0.05,16.900000000000002,0)" xlink:href="#N"/><use transform="matrix(0.05,0,0,0.05,25.900000000000002,0)" xlink:href="#E"/><use transform="matrix(0.05,0,0,0.05,35.900000000000006,0)" xlink:href="#Y"/><use transform="matrix(0.05,0,0,0.05,39.85000000000001,0)" xlink:href="#R"/><use transform="matrix(0.05,0,0,0.05,49.85000000000001,0)" xlink:href="#I"/></g><g id="n"><use transform="matrix(0.05,0,0,0.05,0,0)" xlink:href="#J"/><use transform="matrix(0.05,0,0,0.05,10,0)" xlink:href="#K"/><use transform="matrix(0.05,0,0,0.05,14.65,0)" xlink:href="#K"/><use transform="matrix(0.05,0,0,0.05,19.65,0)" xlink:href="#x"/><use transform="matrix(0.05,0,0,0.05,29.649999999999995,0)" xlink:href="#B"/></g><g id="o"><use transform="matrix(0.05,0,0,0.05,0,0)" xlink:href="#X"/><use transform="matrix(0.05,0,0,0.05,12,0)" xlink:href="#Y"/><use transform="matrix(0.05,0,0,0.05,15.949999999999998,0)" xlink:href="#D"/><use transform="matrix(0.05,0,0,0.05,20.95,0)" xlink:href="#x"/><use transform="matrix(0.05,0,0,0.05,30.950000000000003,0)" xlink:href="#B"/><use transform="matrix(0.05,0,0,0.05,36.9,0)" xlink:href="#C"/><use transform="matrix(0.05,0,0,0.05,46.9,0)" xlink:href="#R"/><use transform="matrix(0.05,0,0,0.05,56.900000000000006,0)" xlink:href="#D"/><use transform="matrix(0.05,0,0,0.05,61.900000000000006,0)" xlink:href="#w"/><use transform="matrix(0.05,0,0,0.05,65.85,0)" xlink:href="#M"/><use transform="matrix(0.05,0,0,0.05,74.85,0)" xlink:href="#x"/></g><path d="M26 75v-336h71v23H56V52h41v23H26" id="ac"/><path d="M30-248c87 1 191-15 191 75 0 78-77 80-158 76V0H30v-248zm33 125c57 0 124 11 124-50 0-59-68-47-124-48v98" id="ad"/><g id="q"><use transform="matrix(0.05925925925925927,0,0,0.05925925925925927,0,0)" xlink:href="#ac"/><use transform="matrix(0.05925925925925927,0,0,0.05925925925925927,5.9259259259259265,0)" xlink:href="#ad"/><use transform="matrix(0.05925925925925927,0,0,0.05925925925925927,20.148148148148152,0)" xlink:href="#w"/><use transform="matrix(0.05925925925925927,0,0,0.05925925925925927,24.829629629629636,0)" xlink:href="#D"/><use transform="matrix(0.05925925925925927,0,0,0.05925925925925927,30.75555555555556,0)" xlink:href="#F"/><use transform="matrix(0.05925925925925927,0,0,0.05925925925925927,41.42222222222223,0)" xlink:href="#G"/><use transform="matrix(0.05925925925925927,0,0,0.05925925925925927,53.274074074074086,0)" xlink:href="#w"/><use transform="matrix(0.05925925925925927,0,0,0.05925925925925927,57.95555555555557,0)" xlink:href="#aa"/></g><path d="M18-150v-26h174v26H18zm0 90v-26h174v26H18" id="ae"/><g id="r"><use transform="matrix(0.05925925925925927,0,0,0.05925925925925927,0,0)" xlink:href="#ae"/><use transform="matrix(0.05925925925925927,0,0,0.05925925925925927,12.444444444444446,0)" xlink:href="#ae"/></g><path d="M3 75V52h41v-290H3v-23h71V75H3" id="af"/><g id="s"><use transform="matrix(0.05925925925925927,0,0,0.05925925925925927,0,0)" xlink:href="#w"/><use transform="matrix(0.05925925925925927,0,0,0.05925925925925927,4.681481481481482,0)" xlink:href="#aa"/><use transform="matrix(0.05925925925925927,0,0,0.05925925925925927,16.533333333333335,0)" xlink:href="#af"/></g></defs></g></svg>