<svg xmlns="http://www.w3.org/2000/svg" xmlns:xlink="http://www.w3.org/1999/xlink" xmlns:lucid="lucid" width="1161" height="1120"><g transform="translate(-79 -100)" lucid:page-tab-id="6rLZweL_E0yP"><path d="M99 120h220v20l-10 10H99z" fill="#fff"/><path d="M319 120v20l-10 10H99" stroke="#000" stroke-width="2" fill="none"/><path d="M99 120h1121v1080H99z" stroke="#000" stroke-width="2" fill="none"/><use xlink:href="#a" transform="matrix(1,0,0,1,107,120) translate(0 18.6)"/><use xlink:href="#b" transform="matrix(1,0,0,1,107,120) translate(25.950000000000003 18.6)"/><use xlink:href="#c" transform="matrix(1,0,0,1,107,120) translate(100.9 18.6)"/><use xlink:href="#d" transform="matrix(1,0,0,1,107,120) translate(153.85000000000002 18.6)"/><path d="M199.75 179.75c0 10.9-8.84 19.75-19.75 19.75-10.9 0-19.75-8.84-19.75-19.75 0-10.9 8.84-19.75 19.75-19.75 10.9 0 19.75 8.84 19.75 19.75z" stroke="#000" stroke-width="2" fill="#fff"/><path d="M180 199.5v55.3l40 63.2m-40-63.2L140 318m0-98.75h80" stroke="#000" stroke-width="2" fill="none"/><path d="M140 160h80v180h-80z" fill="none"/><use xlink:href="#e" transform="matrix(1,0,0,1,60,318) translate(101.05 14.6)"/><path d="M180 257.67v9.9m0 9.9v19.8m0 9.9v19.8m0 9.9v19.8m0 9.9v19.8m0 9.9v19.8m0 9.9v19.8m0 9.9v19.8m0 9.9v19.8m0 9.9v19.8m0 9.9v19.8m0 9.9v19.8m0 9.9v19.8m0 9.9v19.8m0 9.9v19.8m0 9.92v19.8m0 9.9v19.8m0 9.9v19.8m0 9.9v19.8m0 9.9v19.8m0 9.9v19.8m0 9.9v19.8m0 9.9V921m0 9.9v19.8m0 9.9v19.8m0 9.9v19.8m0 9.9v19.8m0 9.9v19.8m0 9.9v19.8m0 9.9v9.9M180 257.7v-4.03M180 1118.97v1.03" stroke="#000" stroke-width="2" fill="none"/><path d="M160 360h40v700h-40zM440 280h160v60H440z" stroke="#000" stroke-width="2" fill="#fff"/><use xlink:href="#f" transform="matrix(1,0,0,1,440,280.0000000000001) translate(23.10499999999999 33.15)"/><path d="M520 342v9.84m0 9.84v19.68m0 9.84v19.68m0 9.84v19.68m0 9.83v19.68m0 9.85v19.68m0 9.84v19.68m0 9.84v19.67m0 9.84V588m0 9.83v19.68m0 9.85v19.67m0 9.84v19.68m0 9.84v19.68m0 9.84v19.68m0 9.84v19.68m0 9.84v19.68m0 9.84v19.68m0 9.84v19.67m0 9.84v19.67m0 9.84v19.7m0 9.83v19.68m0 9.85v19.68m0 9.84v19.68m0 9.84v19.67m0 9.83v19.68m0 9.84v19.68m0 9.84v19.68m0 9.84v9.84" stroke="#000" stroke-width="2" fill="none"/><path d="M521 342.03h-2V341h2z"/><path d="M520 1138.97v1.03" stroke="#000" stroke-width="2" fill="none"/><path d="M500 400h40v680h-40z" stroke="#000" stroke-width="2" fill="#fff"/><path d="M202 478.8h278.5" stroke="#000" stroke-width="2" fill="none"/><path d="M202.03 479.8H201v-2h1.03z"/><path d="M495.76 478.8l-14.26 4.64v-9.28z" stroke="#000" stroke-width="2"/><use xlink:href="#g" transform="matrix(1,0,0,1,291.475,453.2000000000003) translate(0 14.4)"/><path d="M799 390h160v60H799z" stroke="#000" stroke-width="2" fill="#fff"/><use xlink:href="#h" transform="matrix(1,0,0,1,799,390.0000000000001) translate(33.57999999999999 33.15)"/><path d="M879 452v10.12m0 10.13v20.24m0 10.1v20.26m0 10.12v20.25m0 10.12v20.25m0 10.12v20.24m0 10.13v20.23m0 10.13v20.24m0 10.12v20.25m0 10.12v20.24m0 10.12v20.25m0 10.13v20.25m0 10.12v20.24m0 10.13v20.24m0 10.14v20.24m0 10.12v20.25m0 10.12v20.25m0 10.12v20.25m0 10.1v20.25m0 10.13V1029" stroke="#000" stroke-width="2" fill="none"/><path d="M880 452.03h-2V451h2z"/><path d="M879 1028.97v1.03" stroke="#000" stroke-width="2" fill="none"/><path d="M859 490h40v460h-40z" stroke="#000" stroke-width="2" fill="#fff"/><path d="M541 528.36h298.5M541.03 528.36H540" stroke="#000" stroke-width="2" fill="none"/><path d="M854.76 528.36L840.5 533v-9.28z" stroke="#000" stroke-width="2"/><use xlink:href="#i" transform="matrix(1,0,0,1,621.85,502.755555555556) translate(0 14.4)"/><path d="M857 654.58h-9.95m-9.95 0h-19.9m-9.95 0h-19.9m-9.95 0h-19.9m-9.95 0h-19.9m-9.95 0h-19.9m-9.95 0h-19.9m-9.95 0h-19.9m-9.95 0h-19.9m-9.95 0h-19.9m-9.95 0h-9.95" stroke="#000" stroke-width="2" fill="none"/><path d="M858 655.58h-1.03v-2H858z"/><path d="M543.24 654.58l14.26-4.64v9.27z" stroke="#000" stroke-width="2"/><use xlink:href="#j" transform="matrix(1,0,0,1,679.2,658.5777777777779) translate(0 14.4)"/><path d="M620 560h100v20l-10 10h-90z" fill="#fff"/><path d="M720 560v20l-10 10h-90" stroke="#000" stroke-width="2" fill="none"/><path d="M620 560h480v160H620z" stroke="#000" stroke-width="2" fill="none"/><use xlink:href="#k" transform="matrix(1,0,0,1,628,560.0000000000001) translate(0 18.6)"/><use xlink:href="#l" transform="matrix(1,0,0,1,632,598.0000000000001) translate(0 19.266666666666666)"/><use xlink:href="#m" transform="matrix(1,0,0,1,632,598.0000000000001) translate(5.9259259259259265 19.266666666666666)"/><use xlink:href="#n" transform="matrix(1,0,0,1,632,598.0000000000001) translate(81.65925925925927 19.266666666666666)"/><use xlink:href="#o" transform="matrix(1,0,0,1,632,598.0000000000001) translate(112.4740740740741 19.266666666666666)"/><path d="M202 745.9h278.5" stroke="#000" stroke-width="2" fill="none"/><path d="M202.03 746.9H201v-2h1.03z"/><path d="M495.76 745.9l-14.26 4.65v-9.27z" stroke="#000" stroke-width="2"/><use xlink:href="#p" transform="matrix(1,0,0,1,291.6,720.3111111111112) translate(0 14.4)"/><use xlink:href="#q" transform="matrix(1,0,0,1,291.6,720.3111111111112) translate(47.95 14.4)"/><path d="M542 836.13h297.5" stroke="#000" stroke-width="2" fill="none"/><path d="M542.03 837.13H541v-2h1.03z"/><path d="M854.76 836.13l-14.26 4.64v-9.27z" stroke="#000" stroke-width="2"/><use xlink:href="#r" transform="matrix(1,0,0,1,626.175,810.5333333333338) translate(0 14.4)"/><path d="M857 898.8h-9.92m-9.9 0h-19.85m-9.9 0h-19.85m-9.9 0h-19.85m-9.9 0h-19.85m-9.9 0h-19.85m-9.9 0h-19.84m-9.93 0h-19.83m-9.92 0H609.1m-9.93 0h-19.83m-9.92 0h-9.92" stroke="#000" stroke-width="2" fill="none"/><path d="M858 899.8h-1.03v-2H858z"/><path d="M544.24 898.8l14.26-4.64v9.28z" stroke="#000" stroke-width="2"/><use xlink:href="#s" transform="matrix(1,0,0,1,684.025,902.8000000000003) translate(0 14.4)"/><path d="M498 946.8h-10.3m-10.33 0h-20.63m-10.3 0H425.8m-10.32 0h-20.63m-10.3 0H363.9m-10.3 0h-20.64m-10.3 0H302m-10.3 0h-20.64m-10.32 0h-20.63m-10.3 0H219.5" stroke="#000" stroke-width="2" fill="none"/><path d="M499 947.8h-1.03v-2H499z"/><path d="M204.24 946.8l14.26-4.64v9.28z" stroke="#000" stroke-width="2"/><g><use xlink:href="#t" transform="matrix(1,0,0,1,279.125,950.8000000000002) translate(0 14.4)"/><use xlink:href="#u" transform="matrix(1,0,0,1,279.125,950.8000000000002) translate(73.85000000000001 14.4)"/></g><path d="M202 797.9h278.5" stroke="#000" stroke-width="2" fill="none"/><path d="M202.03 798.9H201v-2h1.03z"/><path d="M495.76 797.9l-14.26 4.65v-9.27z" stroke="#000" stroke-width="2"/><g><use xlink:href="#v" transform="matrix(1,0,0,1,296.125,772.311111111111) translate(0 14.4)"/></g><defs><path d="M137-138c1-29-70-34-71-4 15 46 118 7 119 86 1 83-164 76-172 9l43-7c4 19 20 25 44 25 33 8 57-30 24-41C81-84 22-81 20-136c-2-80 154-74 161-7" id="w"/><path d="M88-194c31-1 46 15 58 34l-1-101h50l1 261h-48c-2-10 0-23-3-31C134-8 116 4 84 4 32 4 16-41 15-95c0-56 19-97 73-99zm17 164c33 0 40-30 41-66 1-37-9-64-41-64s-38 30-39 65c0 43 13 65 39 65" id="x"/><g id="a"><use transform="matrix(0.05,0,0,0.05,0,0)" xlink:href="#w"/><use transform="matrix(0.05,0,0,0.05,10,0)" xlink:href="#x"/><path d="M-.9.97h27.75v1.9H-.9z"/></g><path d="M30 0v-248h187v28H63v79h144v27H63v87h162V0H30" id="y"/><path d="M108 0H70L1-190h34L89-25l56-165h34" id="z"/><path d="M141-36C126-15 110 5 73 4 37 3 15-17 15-53c-1-64 63-63 125-63 3-35-9-54-41-54-24 1-41 7-42 31l-33-3c5-37 33-52 76-52 45 0 72 20 72 64v82c-1 20 7 32 28 27v20c-31 9-61-2-59-35zM48-53c0 20 12 33 32 33 41-3 63-29 60-74-43 2-92-5-92 41" id="A"/><path d="M24 0v-261h32V0H24" id="B"/><path d="M84 4C-5 8 30-112 23-190h32v120c0 31 7 50 39 49 72-2 45-101 50-169h31l1 190h-30c-1-10 1-25-2-33-11 22-28 36-60 37" id="C"/><path d="M59-47c-2 24 18 29 38 22v24C64 9 27 4 27-40v-127H5v-23h24l9-43h21v43h35v23H59v120" id="D"/><path d="M100-194c63 0 86 42 84 106H49c0 40 14 67 53 68 26 1 43-12 49-29l28 8c-11 28-37 45-77 45C44 4 14-33 15-96c1-61 26-98 85-98zm52 81c6-60-76-77-97-28-3 7-6 17-6 28h103" id="E"/><g id="b"><use transform="matrix(0.05,0,0,0.05,0,0)" xlink:href="#y"/><use transform="matrix(0.05,0,0,0.05,12,0)" xlink:href="#z"/><use transform="matrix(0.05,0,0,0.05,21,0)" xlink:href="#A"/><use transform="matrix(0.05,0,0,0.05,31,0)" xlink:href="#B"/><use transform="matrix(0.05,0,0,0.05,34.95,0)" xlink:href="#C"/><use transform="matrix(0.05,0,0,0.05,44.95,0)" xlink:href="#A"/><use transform="matrix(0.05,0,0,0.05,54.95,0)" xlink:href="#D"/><use transform="matrix(0.05,0,0,0.05,59.95,0)" xlink:href="#E"/></g><path d="M145-31C134-9 116 4 85 4 32 4 16-35 15-94c0-59 17-99 70-100 32-1 48 14 60 33 0-11-1-24 2-32h30l-1 268h-32zM93-21c41 0 51-33 51-76s-8-73-50-73c-40 0-46 35-46 75s5 74 45 74" id="F"/><path d="M24-231v-30h32v30H24zM24 0v-190h32V0H24" id="G"/><path d="M179-190L93 31C79 59 56 82 12 73V49c39 6 53-20 64-50L1-190h34L92-34l54-156h33" id="H"/><g id="c"><use transform="matrix(0.05,0,0,0.05,0,0)" xlink:href="#E"/><use transform="matrix(0.05,0,0,0.05,10,0)" xlink:href="#F"/><use transform="matrix(0.05,0,0,0.05,20,0)" xlink:href="#C"/><use transform="matrix(0.05,0,0,0.05,30,0)" xlink:href="#G"/><use transform="matrix(0.05,0,0,0.05,33.95,0)" xlink:href="#D"/><use transform="matrix(0.05,0,0,0.05,38.95,0)" xlink:href="#H"/></g><path d="M100-194c62-1 85 37 85 99 1 63-27 99-86 99S16-35 15-95c0-66 28-99 85-99zM99-20c44 1 53-31 53-75 0-43-8-75-51-75s-53 32-53 75 10 74 51 75" id="I"/><path d="M101-234c-31-9-42 10-38 44h38v23H63V0H32v-167H5v-23h27c-7-52 17-82 69-68v24" id="J"/><path d="M114-163C36-179 61-72 57 0H25l-1-190h30c1 12-1 29 2 39 6-27 23-49 58-41v29" id="K"/><g id="d"><use transform="matrix(0.05,0,0,0.05,0,0)" xlink:href="#I"/><use transform="matrix(0.05,0,0,0.05,10,0)" xlink:href="#J"/><use transform="matrix(0.05,0,0,0.05,14.65,0)" xlink:href="#J"/><use transform="matrix(0.05,0,0,0.05,19.65,0)" xlink:href="#E"/><use transform="matrix(0.05,0,0,0.05,29.649999999999995,0)" xlink:href="#K"/></g><path d="M232-93c-1 65-40 97-104 97C67 4 28-28 28-90v-158h33c8 89-33 224 67 224 102 0 64-133 71-224h33v155" id="L"/><path d="M135-143c-3-34-86-38-87 0 15 53 115 12 119 90S17 21 10-45l28-5c4 36 97 45 98 0-10-56-113-15-118-90-4-57 82-63 122-42 12 7 21 19 24 35" id="M"/><g id="e"><use transform="matrix(0.05,0,0,0.05,0,0)" xlink:href="#L"/><use transform="matrix(0.05,0,0,0.05,12.950000000000001,0)" xlink:href="#M"/><use transform="matrix(0.05,0,0,0.05,21.950000000000003,0)" xlink:href="#E"/><use transform="matrix(0.05,0,0,0.05,31.950000000000003,0)" xlink:href="#K"/></g><path d="M33-154v-36h34v36H33zM33 0v-36h34V0H33" id="N"/><path d="M190 0L58-211 59 0H30v-248h39L202-35l-2-213h31V0h-41" id="O"/><path d="M177-190C167-65 218 103 67 71c-23-6-38-20-44-43l32-5c15 47 100 32 89-28v-30C133-14 115 1 83 1 29 1 15-40 15-95c0-56 16-97 71-98 29-1 48 16 59 35 1-10 0-23 2-32h30zM94-22c36 0 50-32 50-73 0-42-14-75-50-75-39 0-46 34-46 75s6 73 46 73" id="P"/><path d="M117-194c89-4 53 116 60 194h-32v-121c0-31-8-49-39-48C34-167 62-67 57 0H25l-1-190h30c1 10-1 24 2 32 11-22 29-35 61-36" id="Q"/><path d="M33 0v-248h34V0H33" id="R"/><g id="f"><use transform="matrix(0.05,0,0,0.05,0,0)" xlink:href="#N"/><use transform="matrix(0.05,0,0,0.05,5,0)" xlink:href="#O"/><use transform="matrix(0.05,0,0,0.05,17.950000000000003,0)" xlink:href="#E"/><use transform="matrix(0.05,0,0,0.05,27.950000000000003,0)" xlink:href="#P"/><use transform="matrix(0.05,0,0,0.05,37.95,0)" xlink:href="#I"/><use transform="matrix(0.05,0,0,0.05,47.95,0)" xlink:href="#D"/><use transform="matrix(0.05,0,0,0.05,52.95,0)" xlink:href="#G"/><use transform="matrix(0.05,0,0,0.05,56.900000000000006,0)" xlink:href="#A"/><use transform="matrix(0.05,0,0,0.05,66.9,0)" xlink:href="#D"/><use transform="matrix(0.05,0,0,0.05,71.9,0)" xlink:href="#G"/><use transform="matrix(0.05,0,0,0.05,75.85000000000001,0)" xlink:href="#I"/><use transform="matrix(0.05,0,0,0.05,85.85000000000001,0)" xlink:href="#Q"/><use transform="matrix(0.05,0,0,0.05,95.85000000000001,0)" xlink:href="#L"/><use transform="matrix(0.05,0,0,0.05,108.80000000000001,0)" xlink:href="#R"/><path d="M-.9 1.25h115.6v1.32H-.9z"/></g><path d="M160-131c35 5 61 23 61 61C221 17 115-2 30 0v-248c76 3 177-17 177 60 0 33-19 50-47 57zm-97-11c50-1 110 9 110-42 0-47-63-36-110-37v79zm0 115c55-2 124 14 124-45 0-56-70-42-124-44v89" id="S"/><path d="M137 0h-34L2-248h35l83 218 83-218h36" id="T"/><path d="M206 0h-36l-40-164L89 0H53L-1-190h32L70-26l43-164h34l41 164 42-164h31" id="U"/><path d="M140-251c81 0 123 46 123 126C263-46 219 4 140 4 59 4 17-45 17-125s42-126 123-126zm0 227c63 0 89-41 89-101s-29-99-89-99c-61 0-89 39-89 99S79-25 140-24" id="V"/><path d="M87 75C49 33 22-17 22-94c0-76 28-126 65-167h31c-38 41-64 92-64 168S80 34 118 75H87" id="W"/><path d="M33-261c38 41 65 92 65 168S71 34 33 75H2C39 34 66-17 66-93S39-220 2-261h31" id="X"/><g id="g"><use transform="matrix(0.05,0,0,0.05,0,0)" xlink:href="#S"/><use transform="matrix(0.05,0,0,0.05,12,0)" xlink:href="#D"/><use transform="matrix(0.05,0,0,0.05,17,0)" xlink:href="#Q"/><use transform="matrix(0.05,0,0,0.05,27,0)" xlink:href="#T"/><use transform="matrix(0.05,0,0,0.05,38.65,0)" xlink:href="#G"/><use transform="matrix(0.05,0,0,0.05,42.6,0)" xlink:href="#E"/><use transform="matrix(0.05,0,0,0.05,52.6,0)" xlink:href="#U"/><use transform="matrix(0.05,0,0,0.05,65.55,0)" xlink:href="#V"/><use transform="matrix(0.05,0,0,0.05,79.55,0)" xlink:href="#J"/><use transform="matrix(0.05,0,0,0.05,84.2,0)" xlink:href="#J"/><use transform="matrix(0.05,0,0,0.05,89.2,0)" xlink:href="#E"/><use transform="matrix(0.05,0,0,0.05,99.2,0)" xlink:href="#K"/><use transform="matrix(0.05,0,0,0.05,105.15,0)" xlink:href="#W"/><use transform="matrix(0.05,0,0,0.05,111.10000000000001,0)" xlink:href="#X"/></g><path d="M205 0l-28-72H64L36 0H1l101-248h38L239 0h-34zm-38-99l-47-123c-12 45-31 82-46 123h93" id="Y"/><path d="M115-194c55 1 70 41 70 98S169 2 115 4C84 4 66-9 55-30l1 105H24l-1-265h31l2 30c10-21 28-34 59-34zm-8 174c40 0 45-34 45-75s-6-73-45-74c-42 0-51 32-51 76 0 43 10 73 51 73" id="Z"/><path d="M96-169c-40 0-48 33-48 73s9 75 48 75c24 0 41-14 43-38l32 2c-6 37-31 61-74 61-59 0-76-41-82-99-10-93 101-131 147-64 4 7 5 14 7 22l-32 3c-4-21-16-35-41-35" id="aa"/><g id="h"><use transform="matrix(0.05,0,0,0.05,0,0)" xlink:href="#N"/><use transform="matrix(0.05,0,0,0.05,5,0)" xlink:href="#Y"/><use transform="matrix(0.05,0,0,0.05,17,0)" xlink:href="#Z"/><use transform="matrix(0.05,0,0,0.05,27,0)" xlink:href="#Z"/><use transform="matrix(0.05,0,0,0.05,37,0)" xlink:href="#B"/><use transform="matrix(0.05,0,0,0.05,40.95,0)" xlink:href="#G"/><use transform="matrix(0.05,0,0,0.05,44.900000000000006,0)" xlink:href="#aa"/><use transform="matrix(0.05,0,0,0.05,53.900000000000006,0)" xlink:href="#A"/><use transform="matrix(0.05,0,0,0.05,63.900000000000006,0)" xlink:href="#D"/><use transform="matrix(0.05,0,0,0.05,68.9,0)" xlink:href="#G"/><use transform="matrix(0.05,0,0,0.05,72.85000000000001,0)" xlink:href="#I"/><use transform="matrix(0.05,0,0,0.05,82.85000000000001,0)" xlink:href="#Q"/><path d="M-.9 1.25h94.65v1.32H-.9z"/></g><path d="M143 4C61 4 22-44 18-125c-5-107 100-154 193-111 17 8 29 25 37 43l-32 9c-13-25-37-40-76-40-61 0-88 39-88 99 0 61 29 100 91 101 35 0 62-11 79-27v-45h-74v-28h105v86C228-13 192 4 143 4" id="ab"/><path d="M212-179c-10-28-35-45-73-45-59 0-87 40-87 99 0 60 29 101 89 101 43 0 62-24 78-52l27 14C228-24 195 4 139 4 59 4 22-46 18-125c-6-104 99-153 187-111 19 9 31 26 39 46" id="ac"/><path d="M85-194c31 0 48 13 60 33l-1-100h32l1 261h-30c-2-10 0-23-3-31C134-8 116 4 85 4 32 4 16-35 15-94c0-66 23-100 70-100zm9 24c-40 0-46 34-46 75 0 40 6 74 45 74 42 0 51-32 51-76 0-42-9-74-50-73" id="ad"/><g id="i"><use transform="matrix(0.05,0,0,0.05,0,0)" xlink:href="#ab"/><use transform="matrix(0.05,0,0,0.05,14,0)" xlink:href="#E"/><use transform="matrix(0.05,0,0,0.05,24,0)" xlink:href="#D"/><use transform="matrix(0.05,0,0,0.05,29,0)" xlink:href="#ac"/><use transform="matrix(0.05,0,0,0.05,41.95,0)" xlink:href="#C"/><use transform="matrix(0.05,0,0,0.05,51.95,0)" xlink:href="#K"/><use transform="matrix(0.05,0,0,0.05,57.900000000000006,0)" xlink:href="#K"/><use transform="matrix(0.05,0,0,0.05,63.85,0)" xlink:href="#E"/><use transform="matrix(0.05,0,0,0.05,73.85000000000001,0)" xlink:href="#Q"/><use transform="matrix(0.05,0,0,0.05,83.85000000000001,0)" xlink:href="#D"/><use transform="matrix(0.05,0,0,0.05,88.85000000000001,0)" xlink:href="#V"/><use transform="matrix(0.05,0,0,0.05,102.85000000000001,0)" xlink:href="#J"/><use transform="matrix(0.05,0,0,0.05,107.5,0)" xlink:href="#J"/><use transform="matrix(0.05,0,0,0.05,112.5,0)" xlink:href="#E"/><use transform="matrix(0.05,0,0,0.05,122.5,0)" xlink:href="#K"/><use transform="matrix(0.05,0,0,0.05,128.45000000000002,0)" xlink:href="#W"/><use transform="matrix(0.05,0,0,0.05,134.4,0)" xlink:href="#G"/><use transform="matrix(0.05,0,0,0.05,138.35,0)" xlink:href="#ad"/><use transform="matrix(0.05,0,0,0.05,148.35,0)" xlink:href="#X"/></g><g id="j"><use transform="matrix(0.05,0,0,0.05,0,0)" xlink:href="#V"/><use transform="matrix(0.05,0,0,0.05,14,0)" xlink:href="#J"/><use transform="matrix(0.05,0,0,0.05,18.65,0)" xlink:href="#J"/><use transform="matrix(0.05,0,0,0.05,23.65,0)" xlink:href="#E"/><use transform="matrix(0.05,0,0,0.05,33.65,0)" xlink:href="#K"/></g><g id="k"><use transform="matrix(0.05,0,0,0.05,0,0)" xlink:href="#Y"/><use transform="matrix(0.05,0,0,0.05,12,0)" xlink:href="#B"/><use transform="matrix(0.05,0,0,0.05,15.949999999999998,0)" xlink:href="#D"/><use transform="matrix(0.05,0,0,0.05,20.95,0)" xlink:href="#E"/><use transform="matrix(0.05,0,0,0.05,30.950000000000003,0)" xlink:href="#K"/><use transform="matrix(0.05,0,0,0.05,36.9,0)" xlink:href="#Q"/><use transform="matrix(0.05,0,0,0.05,46.9,0)" xlink:href="#A"/><use transform="matrix(0.05,0,0,0.05,56.900000000000006,0)" xlink:href="#D"/><use transform="matrix(0.05,0,0,0.05,61.900000000000006,0)" xlink:href="#G"/><use transform="matrix(0.05,0,0,0.05,65.85,0)" xlink:href="#z"/><use transform="matrix(0.05,0,0,0.05,74.85,0)" xlink:href="#E"/></g><path d="M26 75v-336h71v23H56V52h41v23H26" id="ae"/><path d="M30-248c87 1 191-15 191 75 0 78-77 80-158 76V0H30v-248zm33 125c57 0 124 11 124-50 0-59-68-47-124-48v98" id="af"/><path d="M106-169C34-169 62-67 57 0H25v-261h32l-1 103c12-21 28-36 61-36 89 0 53 116 60 194h-32v-121c2-32-8-49-39-48" id="ag"/><g id="m"><use transform="matrix(0.05925925925925927,0,0,0.05925925925925927,0,0)" xlink:href="#ae"/><use transform="matrix(0.05925925925925927,0,0,0.05925925925925927,5.9259259259259265,0)" xlink:href="#af"/><use transform="matrix(0.05925925925925927,0,0,0.05925925925925927,20.148148148148152,0)" xlink:href="#G"/><use transform="matrix(0.05925925925925927,0,0,0.05925925925925927,24.829629629629636,0)" xlink:href="#D"/><use transform="matrix(0.05925925925925927,0,0,0.05925925925925927,30.75555555555556,0)" xlink:href="#aa"/><use transform="matrix(0.05925925925925927,0,0,0.05925925925925927,41.42222222222223,0)" xlink:href="#ag"/><use transform="matrix(0.05925925925925927,0,0,0.05925925925925927,53.274074074074086,0)" xlink:href="#G"/><use transform="matrix(0.05925925925925927,0,0,0.05925925925925927,57.95555555555557,0)" xlink:href="#ad"/></g><path d="M18-150v-26h174v26H18zm0 90v-26h174v26H18" id="ah"/><g id="n"><use transform="matrix(0.05925925925925927,0,0,0.05925925925925927,0,0)" xlink:href="#ah"/><use transform="matrix(0.05925925925925927,0,0,0.05925925925925927,12.444444444444446,0)" xlink:href="#ah"/></g><path d="M3 75V52h41v-290H3v-23h71V75H3" id="ai"/><g id="o"><use transform="matrix(0.05925925925925927,0,0,0.05925925925925927,0,0)" xlink:href="#G"/><use transform="matrix(0.05925925925925927,0,0,0.05925925925925927,4.681481481481482,0)" xlink:href="#ad"/><use transform="matrix(0.05925925925925927,0,0,0.05925925925925927,16.533333333333335,0)" xlink:href="#ai"/></g><g id="p"><use transform="matrix(0.05,0,0,0.05,0,0)" xlink:href="#y"/><use transform="matrix(0.05,0,0,0.05,12,0)" xlink:href="#Q"/><use transform="matrix(0.05,0,0,0.05,22,0)" xlink:href="#D"/><use transform="matrix(0.05,0,0,0.05,27,0)" xlink:href="#E"/><use transform="matrix(0.05,0,0,0.05,37,0)" xlink:href="#K"/></g><path d="M30-248c118-7 216 8 213 122C240-48 200 0 122 0H30v-248zM63-27c89 8 146-16 146-99s-60-101-146-95v194" id="aj"/><g id="q"><use transform="matrix(0.05,0,0,0.05,0,0)" xlink:href="#aj"/><use transform="matrix(0.05,0,0,0.05,12.950000000000001,0)" xlink:href="#E"/><use transform="matrix(0.05,0,0,0.05,22.950000000000003,0)" xlink:href="#aa"/><use transform="matrix(0.05,0,0,0.05,31.950000000000003,0)" xlink:href="#G"/><use transform="matrix(0.05,0,0,0.05,35.900000000000006,0)" xlink:href="#M"/><use transform="matrix(0.05,0,0,0.05,44.900000000000006,0)" xlink:href="#G"/><use transform="matrix(0.05,0,0,0.05,48.85000000000001,0)" xlink:href="#I"/><use transform="matrix(0.05,0,0,0.05,58.85,0)" xlink:href="#Q"/></g><g id="r"><use transform="matrix(0.05,0,0,0.05,0,0)" xlink:href="#aj"/><use transform="matrix(0.05,0,0,0.05,12.950000000000001,0)" xlink:href="#E"/><use transform="matrix(0.05,0,0,0.05,22.950000000000003,0)" xlink:href="#aa"/><use transform="matrix(0.05,0,0,0.05,31.950000000000003,0)" xlink:href="#G"/><use transform="matrix(0.05,0,0,0.05,35.900000000000006,0)" xlink:href="#M"/><use transform="matrix(0.05,0,0,0.05,44.900000000000006,0)" xlink:href="#G"/><use transform="matrix(0.05,0,0,0.05,48.85000000000001,0)" xlink:href="#I"/><use transform="matrix(0.05,0,0,0.05,58.85,0)" xlink:href="#Q"/><use transform="matrix(0.05,0,0,0.05,68.85000000000001,0)" xlink:href="#W"/><use transform="matrix(0.05,0,0,0.05,74.80000000000001,0)" xlink:href="#ad"/><use transform="matrix(0.05,0,0,0.05,84.80000000000001,0)" xlink:href="#E"/><use transform="matrix(0.05,0,0,0.05,94.80000000000001,0)" xlink:href="#aa"/><use transform="matrix(0.05,0,0,0.05,103.80000000000001,0)" xlink:href="#G"/><use transform="matrix(0.05,0,0,0.05,107.75,0)" xlink:href="#M"/><use transform="matrix(0.05,0,0,0.05,116.75,0)" xlink:href="#G"/><use transform="matrix(0.05,0,0,0.05,120.7,0)" xlink:href="#I"/><use transform="matrix(0.05,0,0,0.05,130.70000000000002,0)" xlink:href="#Q"/><use transform="matrix(0.05,0,0,0.05,140.70000000000002,0)" xlink:href="#X"/></g><g id="s"><use transform="matrix(0.05,0,0,0.05,0,0)" xlink:href="#D"/><use transform="matrix(0.05,0,0,0.05,5,0)" xlink:href="#K"/><use transform="matrix(0.05,0,0,0.05,10.95,0)" xlink:href="#C"/><use transform="matrix(0.05,0,0,0.05,20.95,0)" xlink:href="#E"/></g><g id="t"><use transform="matrix(0.05,0,0,0.05,0,0)" xlink:href="#aj"/><use transform="matrix(0.05,0,0,0.05,12.950000000000001,0)" xlink:href="#E"/><use transform="matrix(0.05,0,0,0.05,22.950000000000003,0)" xlink:href="#aa"/><use transform="matrix(0.05,0,0,0.05,31.950000000000003,0)" xlink:href="#G"/><use transform="matrix(0.05,0,0,0.05,35.900000000000006,0)" xlink:href="#M"/><use transform="matrix(0.05,0,0,0.05,44.900000000000006,0)" xlink:href="#G"/><use transform="matrix(0.05,0,0,0.05,48.85000000000001,0)" xlink:href="#I"/><use transform="matrix(0.05,0,0,0.05,58.85,0)" xlink:href="#Q"/></g><g id="u"><use transform="matrix(0.05,0,0,0.05,0,0)" xlink:href="#K"/><use transform="matrix(0.05,0,0,0.05,5.95,0)" xlink:href="#E"/><use transform="matrix(0.05,0,0,0.05,15.949999999999998,0)" xlink:href="#aa"/><use transform="matrix(0.05,0,0,0.05,24.95,0)" xlink:href="#E"/><use transform="matrix(0.05,0,0,0.05,34.95,0)" xlink:href="#G"/><use transform="matrix(0.05,0,0,0.05,38.900000000000006,0)" xlink:href="#z"/><use transform="matrix(0.05,0,0,0.05,47.900000000000006,0)" xlink:href="#E"/><use transform="matrix(0.05,0,0,0.05,57.900000000000006,0)" xlink:href="#ad"/></g><g id="v"><use transform="matrix(0.05,0,0,0.05,0,0)" xlink:href="#S"/><use transform="matrix(0.05,0,0,0.05,12,0)" xlink:href="#D"/><use transform="matrix(0.05,0,0,0.05,17,0)" xlink:href="#Q"/><use transform="matrix(0.05,0,0,0.05,27,0)" xlink:href="#aj"/><use transform="matrix(0.05,0,0,0.05,39.95,0)" xlink:href="#E"/><use transform="matrix(0.05,0,0,0.05,49.95,0)" xlink:href="#aa"/><use transform="matrix(0.05,0,0,0.05,58.95,0)" xlink:href="#G"/><use transform="matrix(0.05,0,0,0.05,62.900000000000006,0)" xlink:href="#M"/><use transform="matrix(0.05,0,0,0.05,71.9,0)" xlink:href="#G"/><use transform="matrix(0.05,0,0,0.05,75.85000000000001,0)" xlink:href="#I"/><use transform="matrix(0.05,0,0,0.05,85.85000000000001,0)" xlink:href="#Q"/><use transform="matrix(0.05,0,0,0.05,95.85000000000001,0)" xlink:href="#W"/><use transform="matrix(0.05,0,0,0.05,101.80000000000001,0)" xlink:href="#X"/></g></defs></g></svg>