<svg xmlns="http://www.w3.org/2000/svg" xmlns:xlink="http://www.w3.org/1999/xlink" xmlns:lucid="lucid" width="1680" height="1200"><g transform="translate(-140 -1380)" lucid:page-tab-id="BIQYW876T1.e"><path d="M160 1400h115v20l-10 10H160z" fill="#fff"/><path d="M275 1400v20l-10 10H160" stroke="#000" stroke-width="2" fill="none"/><path d="M160 1400h1640v1160H160z" stroke="#000" stroke-width="2" fill="none"/><use xlink:href="#a" transform="matrix(1,0,0,1,168,1400) translate(0 18.6)"/><use xlink:href="#b" transform="matrix(1,0,0,1,168,1400) translate(25.950000000000003 18.6)"/><path d="M299.75 1479.75c0 10.9-8.84 19.75-19.75 19.75-10.9 0-19.75-8.84-19.75-19.75 0-10.9 8.84-19.75 19.75-19.75 10.9 0 19.75 8.84 19.75 19.75z" stroke="#000" stroke-width="2" fill="#fff"/><path d="M280 1499.5v55.3l40 63.2m-40-63.2l-40 63.2m0-98.75h80" stroke="#000" stroke-width="2" fill="none"/><path d="M240 1460h80v180h-80z" fill="none"/><use xlink:href="#c" transform="matrix(1,0,0,1,160,1618) translate(96.55 14.6)"/><path d="M260 1660h40v760h-40z" stroke="#000" stroke-width="2" fill="#fff"/><path d="M279 1539.86v9.85m0 9.85v19.7m0 9.84v19.68m0 9.84v19.7m0 9.83v9.85M279 1657.97v1.03" stroke="#000" stroke-width="2" fill="none"/><path d="M560 1490h160v120H560z" stroke="#000" stroke-width="2" fill="#fff"/><use xlink:href="#d" transform="matrix(1,0,0,1,560,1490) translate(46.55499999999999 63.15)"/><path d="M640 1612v8.92m0 8.9v17.85m0 8.9v17.85m0 8.9v17.85m0 8.9v8.93" stroke="#000" stroke-width="2" fill="none"/><path d="M641 1612.03h-2V1611h2z"/><path d="M640 1718.97v1.03" stroke="#000" stroke-width="2" fill="none"/><path d="M620 1660h40v780h-40zM900 1490h160v120H900z" stroke="#000" stroke-width="2" fill="#fff"/><use xlink:href="#e" transform="matrix(1,0,0,1,900,1490) translate(58.555 63.15)"/><path d="M960 1720h40v740h-40z" stroke="#000" stroke-width="2" fill="#fff"/><path d="M980 1612v8.83m0 8.84v17.66m0 8.84v17.66m0 8.84v17.66m0 8.84v8.83" stroke="#000" stroke-width="2" fill="none"/><path d="M981 1612.03h-2V1611h2z"/><path d="M980 1717.97v1.03M662 1749.33h278.5" stroke="#000" stroke-width="2" fill="none"/><path d="M662.03 1750.33H661v-2h1.03z"/><path d="M955.76 1749.33l-14.26 4.64v-9.27z" stroke="#000" stroke-width="2"/><use xlink:href="#f" transform="matrix(1,0,0,1,729.7,1723.7333333333336) translate(0 14.4)"/><path d="M840 1940h100v20l-10 10h-90z" fill="#fff"/><path d="M940 1940v20l-10 10h-90" stroke="#000" stroke-width="2" fill="none"/><path d="M840 1940h820v460H840zM840 2185h20m15 0h20m15 0h20m15 0h20m15 0h20m15 0h20m15 0h20m15 0h20m15 0h20m15 0h20m15 0h20m15 0h20m15 0h20m15 0h20m15 0h20m15 0h20m15 0h20m15 0h20m15 0h20m15 0h20m15 0h20m15 0h20m15 0h20m15 0h15" stroke="#000" stroke-width="2" fill="none"/><use xlink:href="#g" transform="matrix(1,0,0,1,848,1940) translate(0 18.6)"/><use xlink:href="#h" transform="matrix(1,0,0,1,852,1978) translate(0 18.6)"/><use xlink:href="#i" transform="matrix(1,0,0,1,852,1978) translate(18.95 18.6)"/><use xlink:href="#j" transform="matrix(1,0,0,1,852,1978) translate(58.900000000000006 18.6)"/><use xlink:href="#k" transform="matrix(1,0,0,1,852,2193) translate(0 18.6)"/><path d="M302 1686.68h298.5" stroke="#000" stroke-width="2" fill="none"/><path d="M302.03 1687.68H301v-2h1.03z"/><path d="M615.76 1686.68l-14.26 4.64v-9.27z" stroke="#000" stroke-width="2"/><use xlink:href="#l" transform="matrix(1,0,0,1,372.625,1661.0841437632132) translate(0 14.4)"/><use xlink:href="#m" transform="matrix(1,0,0,1,372.625,1661.0841437632132) translate(47.95 14.4)"/><use xlink:href="#n" transform="matrix(1,0,0,1,372.625,1661.0841437632132) translate(87.9 14.4)"/><path d="M302 1732.35h298.5" stroke="#000" stroke-width="2" fill="none"/><path d="M302.03 1733.35H301v-2h1.03z"/><path d="M615.76 1732.35L601.5 1737v-9.3z" stroke="#000" stroke-width="2"/><use xlink:href="#o" transform="matrix(1,0,0,1,377.225,1706.7501057082452) translate(0 14.4)"/><use xlink:href="#p" transform="matrix(1,0,0,1,377.225,1706.7501057082452) translate(43.85 14.4)"/><path d="M1002 1770.4h39v43.13h-21.5" stroke="#000" stroke-width="2" fill="none"/><path d="M1002.03 1771.4H1001v-2h1.03z"/><path d="M1004.24 1813.53l14.26-4.63v9.27z" stroke="#000" stroke-width="2"/><use xlink:href="#q" transform="matrix(1,0,0,1,1048.9999999999998,1781.16955602537) translate(0 14.4)"/><path d="M740 1860h100v20l-10 10h-90z" fill="#fff"/><path d="M840 1860v20l-10 10h-90" stroke="#000" stroke-width="2" fill="none"/><path d="M740 1860h1000v580H740z" stroke="#000" stroke-width="2" fill="none"/><use xlink:href="#r" transform="matrix(1,0,0,1,748,1860) translate(0 18.6)"/><use xlink:href="#s" transform="matrix(1,0,0,1,752,1898) translate(0 18.6)"/><use xlink:href="#t" transform="matrix(1,0,0,1,752,1898) translate(36.900000000000006 18.6)"/><use xlink:href="#u" transform="matrix(1,0,0,1,752,1898) translate(80.9 18.6)"/><path d="M958 2072.3h-10.3m-10.33 0h-20.63m-10.3 0H885.8m-10.32 0h-20.63m-10.3 0H823.9m-10.3 0h-20.64m-10.3 0H762m-10.3 0h-20.64m-10.32 0h-20.63m-10.3 0H679.5" stroke="#000" stroke-width="2" fill="none"/><path d="M959 2073.3h-1.03v-2H959z"/><path d="M664.24 2072.3l14.26-4.63v9.27z" stroke="#000" stroke-width="2"/><use xlink:href="#v" transform="matrix(1,0,0,1,791.875,2076.3078224101478) translate(0 14.4)"/><path d="M958 2260.05h-10.3m-10.33 0h-20.63m-10.3 0H885.8m-10.32 0h-20.63m-10.3 0H823.9m-10.3 0h-20.64m-10.3 0H762m-10.3 0h-20.64m-10.32 0h-20.63m-10.3 0H679.5" stroke="#000" stroke-width="2" fill="none"/><path d="M959 2261.05h-1.03v-2H959z"/><path d="M664.24 2260.05l14.26-4.64v9.28z" stroke="#000" stroke-width="2"/><use xlink:href="#w" transform="matrix(1,0,0,1,788.05,2264.045665961945) translate(0 14.4)"/><path d="M618 2145.88H319.5" stroke="#000" stroke-width="2" fill="none"/><path d="M619 2146.88h-1.03v-2H619z"/><path d="M304.24 2145.88l14.26-4.63v9.27z" stroke="#000" stroke-width="2"/><g><use xlink:href="#x" transform="matrix(1,0,0,1,380.1,2149.8807610993654) translate(0 14.4)"/><use xlink:href="#y" transform="matrix(1,0,0,1,380.1,2149.8807610993654) translate(86.9 14.4)"/><use xlink:href="#z" transform="matrix(1,0,0,1,380.1,2149.8807610993654) translate(145.85000000000002 14.4)"/></g><path d="M618 2343.77H319.5" stroke="#000" stroke-width="2" fill="none"/><path d="M619 2344.77h-1.03v-2H619z"/><path d="M304.24 2343.77l14.26-4.64v9.27z" stroke="#000" stroke-width="2"/><g><use xlink:href="#A" transform="matrix(1,0,0,1,358.7,2347.766596194503) translate(0 14.4)"/><use xlink:href="#B" transform="matrix(1,0,0,1,358.7,2347.766596194503) translate(56.900000000000006 14.4)"/><use xlink:href="#C" transform="matrix(1,0,0,1,358.7,2347.766596194503) translate(104.75000000000001 14.4)"/><use xlink:href="#D" transform="matrix(1,0,0,1,358.7,2347.766596194503) translate(125.70000000000002 14.4)"/></g><defs><path d="M137-138c1-29-70-34-71-4 15 46 118 7 119 86 1 83-164 76-172 9l43-7c4 19 20 25 44 25 33 8 57-30 24-41C81-84 22-81 20-136c-2-80 154-74 161-7" id="E"/><path d="M88-194c31-1 46 15 58 34l-1-101h50l1 261h-48c-2-10 0-23-3-31C134-8 116 4 84 4 32 4 16-41 15-95c0-56 19-97 73-99zm17 164c33 0 40-30 41-66 1-37-9-64-41-64s-38 30-39 65c0 43 13 65 39 65" id="F"/><g id="a"><use transform="matrix(0.05,0,0,0.05,0,0)" xlink:href="#E"/><use transform="matrix(0.05,0,0,0.05,10,0)" xlink:href="#F"/><path d="M-.9.97h27.75v1.9H-.9z"/></g><path d="M30 0v-248h33v221h125V0H30" id="G"/><path d="M100-194c62-1 85 37 85 99 1 63-27 99-86 99S16-35 15-95c0-66 28-99 85-99zM99-20c44 1 53-31 53-75 0-43-8-75-51-75s-53 32-53 75 10 74 51 75" id="H"/><path d="M177-190C167-65 218 103 67 71c-23-6-38-20-44-43l32-5c15 47 100 32 89-28v-30C133-14 115 1 83 1 29 1 15-40 15-95c0-56 16-97 71-98 29-1 48 16 59 35 1-10 0-23 2-32h30zM94-22c36 0 50-32 50-73 0-42-14-75-50-75-39 0-46 34-46 75s6 73 46 73" id="I"/><path d="M33 0v-248h34V0H33" id="J"/><path d="M117-194c89-4 53 116 60 194h-32v-121c0-31-8-49-39-48C34-167 62-67 57 0H25l-1-190h30c1 10-1 24 2 32 11-22 29-35 61-36" id="K"/><g id="b"><use transform="matrix(0.05,0,0,0.05,0,0)" xlink:href="#G"/><use transform="matrix(0.05,0,0,0.05,10,0)" xlink:href="#H"/><use transform="matrix(0.05,0,0,0.05,20,0)" xlink:href="#I"/><use transform="matrix(0.05,0,0,0.05,30,0)" xlink:href="#J"/><use transform="matrix(0.05,0,0,0.05,35,0)" xlink:href="#K"/></g><path d="M232-93c-1 65-40 97-104 97C67 4 28-28 28-90v-158h33c8 89-33 224 67 224 102 0 64-133 71-224h33v155" id="L"/><path d="M135-143c-3-34-86-38-87 0 15 53 115 12 119 90S17 21 10-45l28-5c4 36 97 45 98 0-10-56-113-15-118-90-4-57 82-63 122-42 12 7 21 19 24 35" id="M"/><path d="M100-194c63 0 86 42 84 106H49c0 40 14 67 53 68 26 1 43-12 49-29l28 8c-11 28-37 45-77 45C44 4 14-33 15-96c1-61 26-98 85-98zm52 81c6-60-76-77-97-28-3 7-6 17-6 28h103" id="N"/><path d="M114-163C36-179 61-72 57 0H25l-1-190h30c1 12-1 29 2 39 6-27 23-49 58-41v29" id="O"/><g id="c"><use transform="matrix(0.05,0,0,0.05,0,0)" xlink:href="#L"/><use transform="matrix(0.05,0,0,0.05,12.950000000000001,0)" xlink:href="#M"/><use transform="matrix(0.05,0,0,0.05,21.950000000000003,0)" xlink:href="#N"/><use transform="matrix(0.05,0,0,0.05,31.950000000000003,0)" xlink:href="#O"/><use transform="matrix(0.05,0,0,0.05,37.900000000000006,0)" xlink:href="#M"/></g><path d="M33-154v-36h34v36H33zM33 0v-36h34V0H33" id="P"/><path d="M24-231v-30h32v30H24zM24 0v-190h32V0H24" id="Q"/><g id="d"><use transform="matrix(0.05,0,0,0.05,0,0)" xlink:href="#P"/><use transform="matrix(0.05,0,0,0.05,5,0)" xlink:href="#G"/><use transform="matrix(0.05,0,0,0.05,15,0)" xlink:href="#H"/><use transform="matrix(0.05,0,0,0.05,25,0)" xlink:href="#I"/><use transform="matrix(0.05,0,0,0.05,35,0)" xlink:href="#Q"/><use transform="matrix(0.05,0,0,0.05,38.95,0)" xlink:href="#K"/><use transform="matrix(0.05,0,0,0.05,48.95,0)" xlink:href="#L"/><use transform="matrix(0.05,0,0,0.05,61.900000000000006,0)" xlink:href="#J"/><path d="M-.9 1.25h68.7v1.32H-.9z"/></g><g id="e"><use transform="matrix(0.05,0,0,0.05,0,0)" xlink:href="#P"/><use transform="matrix(0.05,0,0,0.05,5,0)" xlink:href="#L"/><use transform="matrix(0.05,0,0,0.05,17.950000000000003,0)" xlink:href="#M"/><use transform="matrix(0.05,0,0,0.05,26.950000000000003,0)" xlink:href="#N"/><use transform="matrix(0.05,0,0,0.05,36.95,0)" xlink:href="#O"/><path d="M-.9 1.25h44.7v1.32H-.9z"/></g><path d="M24 0v-261h32V0H24" id="R"/><path d="M87 75C49 33 22-17 22-94c0-76 28-126 65-167h31c-38 41-64 92-64 168S80 34 118 75H87" id="S"/><path d="M210-169c-67 3-38 105-44 169h-31v-121c0-29-5-50-35-48C34-165 62-65 56 0H25l-1-190h30c1 10-1 24 2 32 10-44 99-50 107 0 11-21 27-35 58-36 85-2 47 119 55 194h-31v-121c0-29-5-49-35-48" id="T"/><path d="M141-36C126-15 110 5 73 4 37 3 15-17 15-53c-1-64 63-63 125-63 3-35-9-54-41-54-24 1-41 7-42 31l-33-3c5-37 33-52 76-52 45 0 72 20 72 64v82c-1 20 7 32 28 27v20c-31 9-61-2-59-35zM48-53c0 20 12 33 32 33 41-3 63-29 60-74-43 2-92-5-92 41" id="U"/><path d="M68-38c1 34 0 65-14 84H32c9-13 17-26 17-46H33v-38h35" id="V"/><path d="M115-194c55 1 70 41 70 98S169 2 115 4C84 4 66-9 55-30l1 105H24l-1-265h31l2 30c10-21 28-34 59-34zm-8 174c40 0 45-34 45-75s-6-73-45-74c-42 0-51 32-51 76 0 43 10 73 51 73" id="W"/><path d="M206 0h-36l-40-164L89 0H53L-1-190h32L70-26l43-164h34l41 164 42-164h31" id="X"/><path d="M85-194c31 0 48 13 60 33l-1-100h32l1 261h-30c-2-10 0-23-3-31C134-8 116 4 85 4 32 4 16-35 15-94c0-66 23-100 70-100zm9 24c-40 0-46 34-46 75 0 40 6 74 45 74 42 0 51-32 51-76 0-42-9-74-50-73" id="Y"/><path d="M33-261c38 41 65 92 65 168S71 34 33 75H2C39 34 66-17 66-93S39-220 2-261h31" id="Z"/><g id="f"><use transform="matrix(0.05,0,0,0.05,0,0)" xlink:href="#R"/><use transform="matrix(0.05,0,0,0.05,3.95,0)" xlink:href="#H"/><use transform="matrix(0.05,0,0,0.05,13.949999999999998,0)" xlink:href="#I"/><use transform="matrix(0.05,0,0,0.05,23.95,0)" xlink:href="#S"/><use transform="matrix(0.05,0,0,0.05,29.899999999999995,0)" xlink:href="#N"/><use transform="matrix(0.05,0,0,0.05,39.9,0)" xlink:href="#T"/><use transform="matrix(0.05,0,0,0.05,54.85,0)" xlink:href="#U"/><use transform="matrix(0.05,0,0,0.05,64.85,0)" xlink:href="#Q"/><use transform="matrix(0.05,0,0,0.05,68.8,0)" xlink:href="#R"/><use transform="matrix(0.05,0,0,0.05,72.75,0)" xlink:href="#V"/><use transform="matrix(0.05,0,0,0.05,77.75,0)" xlink:href="#W"/><use transform="matrix(0.05,0,0,0.05,87.75,0)" xlink:href="#U"/><use transform="matrix(0.05,0,0,0.05,97.75,0)" xlink:href="#M"/><use transform="matrix(0.05,0,0,0.05,106.75,0)" xlink:href="#M"/><use transform="matrix(0.05,0,0,0.05,115.75,0)" xlink:href="#X"/><use transform="matrix(0.05,0,0,0.05,128.7,0)" xlink:href="#H"/><use transform="matrix(0.05,0,0,0.05,138.7,0)" xlink:href="#O"/><use transform="matrix(0.05,0,0,0.05,144.64999999999998,0)" xlink:href="#Y"/><use transform="matrix(0.05,0,0,0.05,154.64999999999998,0)" xlink:href="#Z"/></g><path d="M205 0l-28-72H64L36 0H1l101-248h38L239 0h-34zm-38-99l-47-123c-12 45-31 82-46 123h93" id="aa"/><path d="M59-47c-2 24 18 29 38 22v24C64 9 27 4 27-40v-127H5v-23h24l9-43h21v43h35v23H59v120" id="ab"/><path d="M108 0H70L1-190h34L89-25l56-165h34" id="ac"/><g id="g"><use transform="matrix(0.05,0,0,0.05,0,0)" xlink:href="#aa"/><use transform="matrix(0.05,0,0,0.05,12,0)" xlink:href="#R"/><use transform="matrix(0.05,0,0,0.05,15.949999999999998,0)" xlink:href="#ab"/><use transform="matrix(0.05,0,0,0.05,20.95,0)" xlink:href="#N"/><use transform="matrix(0.05,0,0,0.05,30.950000000000003,0)" xlink:href="#O"/><use transform="matrix(0.05,0,0,0.05,36.9,0)" xlink:href="#K"/><use transform="matrix(0.05,0,0,0.05,46.9,0)" xlink:href="#U"/><use transform="matrix(0.05,0,0,0.05,56.900000000000006,0)" xlink:href="#ab"/><use transform="matrix(0.05,0,0,0.05,61.900000000000006,0)" xlink:href="#Q"/><use transform="matrix(0.05,0,0,0.05,65.85,0)" xlink:href="#ac"/><use transform="matrix(0.05,0,0,0.05,74.85,0)" xlink:href="#N"/></g><path d="M26 75v-336h71v23H56V52h41v23H26" id="ad"/><path d="M101-234c-31-9-42 10-38 44h38v23H63V0H32v-167H5v-23h27c-7-52 17-82 69-68v24" id="ae"/><g id="h"><use transform="matrix(0.05,0,0,0.05,0,0)" xlink:href="#ad"/><use transform="matrix(0.05,0,0,0.05,5,0)" xlink:href="#Q"/><use transform="matrix(0.05,0,0,0.05,8.95,0)" xlink:href="#ae"/></g><path d="M84 4C-5 8 30-112 23-190h32v120c0 31 7 50 39 49 72-2 45-101 50-169h31l1 190h-30c-1-10 1-25-2-33-11 22-28 36-60 37" id="af"/><g id="i"><use transform="matrix(0.05,0,0,0.05,0,0)" xlink:href="#af"/><use transform="matrix(0.05,0,0,0.05,10,0)" xlink:href="#M"/><use transform="matrix(0.05,0,0,0.05,19,0)" xlink:href="#N"/><use transform="matrix(0.05,0,0,0.05,29,0)" xlink:href="#O"/></g><path d="M141 0L90-78 38 0H4l68-98-65-92h35l48 74 47-74h35l-64 92 68 98h-35" id="ag"/><path d="M3 75V52h41v-290H3v-23h71V75H3" id="ah"/><g id="j"><use transform="matrix(0.05,0,0,0.05,0,0)" xlink:href="#N"/><use transform="matrix(0.05,0,0,0.05,10,0)" xlink:href="#ag"/><use transform="matrix(0.05,0,0,0.05,19,0)" xlink:href="#Q"/><use transform="matrix(0.05,0,0,0.05,22.95,0)" xlink:href="#M"/><use transform="matrix(0.05,0,0,0.05,31.950000000000003,0)" xlink:href="#ab"/><use transform="matrix(0.05,0,0,0.05,36.95,0)" xlink:href="#ah"/></g><path d="M30 0v-248h187v28H63v79h144v27H63v87h162V0H30" id="ai"/><g id="k"><use transform="matrix(0.05,0,0,0.05,0,0)" xlink:href="#ad"/><use transform="matrix(0.05,0,0,0.05,5,0)" xlink:href="#ai"/><use transform="matrix(0.05,0,0,0.05,17,0)" xlink:href="#R"/><use transform="matrix(0.05,0,0,0.05,20.95,0)" xlink:href="#M"/><use transform="matrix(0.05,0,0,0.05,29.950000000000003,0)" xlink:href="#N"/><use transform="matrix(0.05,0,0,0.05,39.95,0)" xlink:href="#ah"/></g><g id="l"><use transform="matrix(0.05,0,0,0.05,0,0)" xlink:href="#ai"/><use transform="matrix(0.05,0,0,0.05,12,0)" xlink:href="#K"/><use transform="matrix(0.05,0,0,0.05,22,0)" xlink:href="#ab"/><use transform="matrix(0.05,0,0,0.05,27,0)" xlink:href="#N"/><use transform="matrix(0.05,0,0,0.05,37,0)" xlink:href="#O"/></g><g id="m"><use transform="matrix(0.05,0,0,0.05,0,0)" xlink:href="#af"/><use transform="matrix(0.05,0,0,0.05,10,0)" xlink:href="#M"/><use transform="matrix(0.05,0,0,0.05,19,0)" xlink:href="#N"/><use transform="matrix(0.05,0,0,0.05,29,0)" xlink:href="#O"/></g><path d="M96-169c-40 0-48 33-48 73s9 75 48 75c24 0 41-14 43-38l32 2c-6 37-31 61-74 61-59 0-76-41-82-99-10-93 101-131 147-64 4 7 5 14 7 22l-32 3c-4-21-16-35-41-35" id="aj"/><g id="n"><use transform="matrix(0.05,0,0,0.05,0,0)" xlink:href="#aj"/><use transform="matrix(0.05,0,0,0.05,9,0)" xlink:href="#O"/><use transform="matrix(0.05,0,0,0.05,14.949999999999998,0)" xlink:href="#N"/><use transform="matrix(0.05,0,0,0.05,24.95,0)" xlink:href="#Y"/><use transform="matrix(0.05,0,0,0.05,34.95,0)" xlink:href="#N"/><use transform="matrix(0.05,0,0,0.05,44.95,0)" xlink:href="#K"/><use transform="matrix(0.05,0,0,0.05,54.95,0)" xlink:href="#ab"/><use transform="matrix(0.05,0,0,0.05,59.95,0)" xlink:href="#Q"/><use transform="matrix(0.05,0,0,0.05,63.900000000000006,0)" xlink:href="#U"/><use transform="matrix(0.05,0,0,0.05,73.9,0)" xlink:href="#R"/><use transform="matrix(0.05,0,0,0.05,77.85000000000001,0)" xlink:href="#M"/></g><path d="M212-179c-10-28-35-45-73-45-59 0-87 40-87 99 0 60 29 101 89 101 43 0 62-24 78-52l27 14C228-24 195 4 139 4 59 4 22-46 18-125c-6-104 99-153 187-111 19 9 31 26 39 46" id="ak"/><path d="M143 0L79-87 56-68V0H24v-261h32v163l83-92h37l-77 82L181 0h-38" id="al"/><g id="o"><use transform="matrix(0.05,0,0,0.05,0,0)" xlink:href="#ak"/><use transform="matrix(0.05,0,0,0.05,12.950000000000001,0)" xlink:href="#R"/><use transform="matrix(0.05,0,0,0.05,16.900000000000002,0)" xlink:href="#Q"/><use transform="matrix(0.05,0,0,0.05,20.85,0)" xlink:href="#aj"/><use transform="matrix(0.05,0,0,0.05,29.85,0)" xlink:href="#al"/></g><path d="M160-131c35 5 61 23 61 61C221 17 115-2 30 0v-248c76 3 177-17 177 60 0 33-19 50-47 57zm-97-11c50-1 110 9 110-42 0-47-63-36-110-37v79zm0 115c55-2 124 14 124-45 0-56-70-42-124-44v89" id="am"/><g id="p"><use transform="matrix(0.05,0,0,0.05,0,0)" xlink:href="#G"/><use transform="matrix(0.05,0,0,0.05,10,0)" xlink:href="#H"/><use transform="matrix(0.05,0,0,0.05,20,0)" xlink:href="#I"/><use transform="matrix(0.05,0,0,0.05,30,0)" xlink:href="#Q"/><use transform="matrix(0.05,0,0,0.05,33.95,0)" xlink:href="#K"/><use transform="matrix(0.05,0,0,0.05,43.95,0)" xlink:href="#am"/><use transform="matrix(0.05,0,0,0.05,55.95,0)" xlink:href="#ab"/><use transform="matrix(0.05,0,0,0.05,60.95,0)" xlink:href="#K"/><use transform="matrix(0.05,0,0,0.05,70.95,0)" xlink:href="#ak"/><use transform="matrix(0.05,0,0,0.05,83.9,0)" xlink:href="#R"/><use transform="matrix(0.05,0,0,0.05,87.85000000000001,0)" xlink:href="#Q"/><use transform="matrix(0.05,0,0,0.05,91.80000000000001,0)" xlink:href="#aj"/><use transform="matrix(0.05,0,0,0.05,100.80000000000001,0)" xlink:href="#al"/><use transform="matrix(0.05,0,0,0.05,109.80000000000001,0)" xlink:href="#S"/><use transform="matrix(0.05,0,0,0.05,115.75,0)" xlink:href="#Z"/></g><path d="M106-169C34-169 62-67 57 0H25v-261h32l-1 103c12-21 28-36 61-36 89 0 53 116 60 194h-32v-121c2-32-8-49-39-48" id="an"/><g id="q"><use transform="matrix(0.05,0,0,0.05,0,0)" xlink:href="#ak"/><use transform="matrix(0.05,0,0,0.05,12.950000000000001,0)" xlink:href="#an"/><use transform="matrix(0.05,0,0,0.05,22.950000000000003,0)" xlink:href="#N"/><use transform="matrix(0.05,0,0,0.05,32.95,0)" xlink:href="#aj"/><use transform="matrix(0.05,0,0,0.05,41.95,0)" xlink:href="#al"/><use transform="matrix(0.05,0,0,0.05,50.95,0)" xlink:href="#S"/><use transform="matrix(0.05,0,0,0.05,56.900000000000006,0)" xlink:href="#ai"/><use transform="matrix(0.05,0,0,0.05,68.9,0)" xlink:href="#T"/><use transform="matrix(0.05,0,0,0.05,83.85000000000001,0)" xlink:href="#U"/><use transform="matrix(0.05,0,0,0.05,93.85000000000001,0)" xlink:href="#Q"/><use transform="matrix(0.05,0,0,0.05,97.80000000000001,0)" xlink:href="#R"/><use transform="matrix(0.05,0,0,0.05,101.75000000000001,0)" xlink:href="#V"/><use transform="matrix(0.05,0,0,0.05,106.75,0)" xlink:href="#W"/><use transform="matrix(0.05,0,0,0.05,116.75,0)" xlink:href="#U"/><use transform="matrix(0.05,0,0,0.05,126.75,0)" xlink:href="#M"/><use transform="matrix(0.05,0,0,0.05,135.75,0)" xlink:href="#M"/><use transform="matrix(0.05,0,0,0.05,144.75,0)" xlink:href="#X"/><use transform="matrix(0.05,0,0,0.05,157.7,0)" xlink:href="#H"/><use transform="matrix(0.05,0,0,0.05,167.7,0)" xlink:href="#Y"/><use transform="matrix(0.05,0,0,0.05,177.7,0)" xlink:href="#Z"/></g><g id="r"><use transform="matrix(0.05,0,0,0.05,0,0)" xlink:href="#G"/><use transform="matrix(0.05,0,0,0.05,10,0)" xlink:href="#H"/><use transform="matrix(0.05,0,0,0.05,20,0)" xlink:href="#H"/><use transform="matrix(0.05,0,0,0.05,30,0)" xlink:href="#W"/></g><path d="M63-220v92h138v28H63V0H30v-248h175v28H63" id="ao"/><g id="s"><use transform="matrix(0.05,0,0,0.05,0,0)" xlink:href="#ad"/><use transform="matrix(0.05,0,0,0.05,5,0)" xlink:href="#ao"/><use transform="matrix(0.05,0,0,0.05,15.950000000000001,0)" xlink:href="#H"/><use transform="matrix(0.05,0,0,0.05,25.950000000000003,0)" xlink:href="#O"/></g><g id="t"><use transform="matrix(0.05,0,0,0.05,0,0)" xlink:href="#N"/><use transform="matrix(0.05,0,0,0.05,10,0)" xlink:href="#U"/><use transform="matrix(0.05,0,0,0.05,20,0)" xlink:href="#aj"/><use transform="matrix(0.05,0,0,0.05,29,0)" xlink:href="#an"/></g><g id="u"><use transform="matrix(0.05,0,0,0.05,0,0)" xlink:href="#af"/><use transform="matrix(0.05,0,0,0.05,10,0)" xlink:href="#M"/><use transform="matrix(0.05,0,0,0.05,19,0)" xlink:href="#N"/><use transform="matrix(0.05,0,0,0.05,29,0)" xlink:href="#O"/><use transform="matrix(0.05,0,0,0.05,34.95,0)" xlink:href="#ah"/></g><path d="M127-220V0H93v-220H8v-28h204v28h-85" id="ap"/><g id="v"><use transform="matrix(0.05,0,0,0.05,0,0)" xlink:href="#ap"/><use transform="matrix(0.05,0,0,0.05,10.3,0)" xlink:href="#O"/><use transform="matrix(0.05,0,0,0.05,16.25,0)" xlink:href="#af"/><use transform="matrix(0.05,0,0,0.05,26.25,0)" xlink:href="#N"/></g><g id="w"><use transform="matrix(0.05,0,0,0.05,0,0)" xlink:href="#ao"/><use transform="matrix(0.05,0,0,0.05,10.950000000000001,0)" xlink:href="#U"/><use transform="matrix(0.05,0,0,0.05,20.950000000000003,0)" xlink:href="#R"/><use transform="matrix(0.05,0,0,0.05,24.900000000000002,0)" xlink:href="#M"/><use transform="matrix(0.05,0,0,0.05,33.900000000000006,0)" xlink:href="#N"/></g><path d="M185-189c-5-48-123-54-124 2 14 75 158 14 163 119 3 78-121 87-175 55-17-10-28-26-33-46l33-7c5 56 141 63 141-1 0-78-155-14-162-118-5-82 145-84 179-34 5 7 8 16 11 25" id="aq"/><path d="M179-190L93 31C79 59 56 82 12 73V49c39 6 53-20 64-50L1-190h34L92-34l54-156h33" id="ar"/><g id="x"><use transform="matrix(0.05,0,0,0.05,0,0)" xlink:href="#aq"/><use transform="matrix(0.05,0,0,0.05,12,0)" xlink:href="#af"/><use transform="matrix(0.05,0,0,0.05,22,0)" xlink:href="#aj"/><use transform="matrix(0.05,0,0,0.05,31,0)" xlink:href="#aj"/><use transform="matrix(0.05,0,0,0.05,40,0)" xlink:href="#N"/><use transform="matrix(0.05,0,0,0.05,50,0)" xlink:href="#ae"/><use transform="matrix(0.05,0,0,0.05,55,0)" xlink:href="#af"/><use transform="matrix(0.05,0,0,0.05,65,0)" xlink:href="#R"/><use transform="matrix(0.05,0,0,0.05,68.95,0)" xlink:href="#R"/><use transform="matrix(0.05,0,0,0.05,72.9,0)" xlink:href="#ar"/></g><g id="y"><use transform="matrix(0.05,0,0,0.05,0,0)" xlink:href="#R"/><use transform="matrix(0.05,0,0,0.05,3.95,0)" xlink:href="#H"/><use transform="matrix(0.05,0,0,0.05,13.949999999999998,0)" xlink:href="#I"/><use transform="matrix(0.05,0,0,0.05,23.95,0)" xlink:href="#I"/><use transform="matrix(0.05,0,0,0.05,33.95,0)" xlink:href="#N"/><use transform="matrix(0.05,0,0,0.05,43.95,0)" xlink:href="#Y"/></g><g id="z"><use transform="matrix(0.05,0,0,0.05,0,0)" xlink:href="#Q"/><use transform="matrix(0.05,0,0,0.05,3.95,0)" xlink:href="#K"/></g><g id="A"><use transform="matrix(0.05,0,0,0.05,0,0)" xlink:href="#J"/><use transform="matrix(0.05,0,0,0.05,5,0)" xlink:href="#K"/><use transform="matrix(0.05,0,0,0.05,15,0)" xlink:href="#ac"/><use transform="matrix(0.05,0,0,0.05,24,0)" xlink:href="#U"/><use transform="matrix(0.05,0,0,0.05,34,0)" xlink:href="#R"/><use transform="matrix(0.05,0,0,0.05,37.95,0)" xlink:href="#Q"/><use transform="matrix(0.05,0,0,0.05,41.900000000000006,0)" xlink:href="#Y"/></g><g id="B"><use transform="matrix(0.05,0,0,0.05,0,0)" xlink:href="#N"/><use transform="matrix(0.05,0,0,0.05,10,0)" xlink:href="#T"/><use transform="matrix(0.05,0,0,0.05,24.950000000000003,0)" xlink:href="#U"/><use transform="matrix(0.05,0,0,0.05,34.95,0)" xlink:href="#Q"/><use transform="matrix(0.05,0,0,0.05,38.900000000000006,0)" xlink:href="#R"/></g><g id="C"><use transform="matrix(0.05,0,0,0.05,0,0)" xlink:href="#H"/><use transform="matrix(0.05,0,0,0.05,10,0)" xlink:href="#O"/></g><g id="D"><use transform="matrix(0.05,0,0,0.05,0,0)" xlink:href="#W"/><use transform="matrix(0.05,0,0,0.05,10,0)" xlink:href="#U"/><use transform="matrix(0.05,0,0,0.05,20,0)" xlink:href="#M"/><use transform="matrix(0.05,0,0,0.05,29,0)" xlink:href="#M"/><use transform="matrix(0.05,0,0,0.05,38,0)" xlink:href="#X"/><use transform="matrix(0.05,0,0,0.05,50.95,0)" xlink:href="#H"/><use transform="matrix(0.05,0,0,0.05,60.95,0)" xlink:href="#O"/><use transform="matrix(0.05,0,0,0.05,66.9,0)" xlink:href="#Y"/></g></defs></g></svg>