<svg xmlns="http://www.w3.org/2000/svg" xmlns:xlink="http://www.w3.org/1999/xlink" xmlns:lucid="lucid" width="1000" height="740"><g transform="translate(-340 -180)" lucid:page-tab-id="MwaZjSKduZK4"><path d="M360 200h170v20l-10 10H360z" fill="#fff"/><path d="M530 200v20l-10 10H360" stroke="#000" stroke-width="2" fill="none"/><path d="M360 200h960v700H360z" stroke="#000" stroke-width="2" fill="none"/><use xlink:href="#a" transform="matrix(1,0,0,1,368,200) translate(0 18.6)"/><use xlink:href="#b" transform="matrix(1,0,0,1,368,200) translate(25.950000000000003 18.6)"/><use xlink:href="#c" transform="matrix(1,0,0,1,368,200) translate(80.9 18.6)"/><path d="M439.75 259.75c0 10.9-8.84 19.75-19.75 19.75-10.9 0-19.75-8.84-19.75-19.75 0-10.9 8.84-19.75 19.75-19.75 10.9 0 19.75 8.84 19.75 19.75z" stroke="#000" stroke-width="2" fill="#fff"/><path d="M420 279.5v55.3l40 63.2m-40-63.2L380 398m0-98.75h80" stroke="#000" stroke-width="2" fill="none"/><path d="M380 240h80v180h-80z" fill="none"/><use xlink:href="#d" transform="matrix(1,0,0,1,300,398) translate(88.025 14.6)"/><path d="M420 337.67v10.22m0 10.2v20.46m0 10.22v20.44m0 10.23v20.44m0 10.2v20.46m0 10.22v20.44m0 10.23v20.44m0 10.2v20.46m0 10.22v20.44m0 10.23v20.44m0 10.2v20.46m0 10.22v20.44m0 10.22v20.45m0 10.2v20.46m0 10.22v20.44m0 10.22v20.45m0 10.2v20.45m0 10.23V859M420 858.97V860" stroke="#000" stroke-width="2" fill="none"/><path d="M400 440h40v320h-40zM819 320h160v60H819z" stroke="#000" stroke-width="2" fill="#fff"/><use xlink:href="#e" transform="matrix(1,0,0,1,819,320) translate(32.60499999999999 33.15)"/><path d="M899 382v9.96m0 9.96v19.9m0 9.97v19.9m0 9.97v19.9m0 9.97v19.92m0 9.96v19.9m0 9.97v19.9m0 9.97v19.9m0 9.97v9.46h1v9.46m0 9.96v19.9m0 9.97v19.9m0 9.97v19.9m0 9.97v19.92m0 9.96v19.9m0 9.97v19.9m0 9.97v19.9m0 9.97V859" stroke="#000" stroke-width="2" fill="none"/><path d="M900 382.03h-2V381h2z"/><path d="M900 858.97V860" stroke="#000" stroke-width="2" fill="none"/><path d="M879 440h40v340h-40z" stroke="#000" stroke-width="2" fill="#fff"/><path d="M442 503.7h417.5" stroke="#000" stroke-width="2" fill="none"/><path d="M442.03 504.7H441v-2h1.03z"/><path d="M874.76 503.7l-14.26 4.62v-9.27z" stroke="#000" stroke-width="2"/><use xlink:href="#f" transform="matrix(1,0,0,1,507.17499999999995,478.088888888889) translate(0 14.4)"/><use xlink:href="#g" transform="matrix(1,0,0,1,507.17499999999995,478.088888888889) translate(47.95 14.4)"/><use xlink:href="#h" transform="matrix(1,0,0,1,507.17499999999995,478.088888888889) translate(116.9 14.4)"/><use xlink:href="#i" transform="matrix(1,0,0,1,507.17499999999995,478.088888888889) translate(137.85 14.4)"/><use xlink:href="#j" transform="matrix(1,0,0,1,507.17499999999995,478.088888888889) translate(189.8 14.4)"/><path d="M442 567.24h417.5" stroke="#000" stroke-width="2" fill="none"/><path d="M442.03 568.24H441v-2h1.03z"/><path d="M874.76 567.24l-14.26 4.64v-9.27z" stroke="#000" stroke-width="2"/><use xlink:href="#k" transform="matrix(1,0,0,1,588.6,541.6444444444446) translate(0 14.4)"/><path d="M1100 420h160v40h-160z" stroke="#000" stroke-width="2" fill="#fff"/><use xlink:href="#l" transform="matrix(1,0,0,1,1100,420) translate(41.57999999999999 24.4)"/><path d="M1180 462v10.18m0 10.18v20.36m0 10.18v20.36m0 10.18v20.35m0 10.17v20.36m0 10.18v20.37m0 10.18v20.36m0 10.2v20.35m0 10.18v20.36m0 10.17v20.36m0 10.18v20.36m0 10.18v20.36m0 10.18v20.36m0 10.18V859" stroke="#000" stroke-width="2" fill="none"/><path d="M1181 462.03h-2V461h2z"/><path d="M1180 858.97V860" stroke="#000" stroke-width="2" fill="none"/><path d="M1160 560h40v120h-40z" stroke="#000" stroke-width="2" fill="#fff"/><path d="M921 622.8h219.5" stroke="#000" stroke-width="2" fill="none"/><path d="M921.03 623.8H920v-2h1.03z"/><path d="M1155.76 622.8l-14.26 4.64v-9.28z" stroke="#000" stroke-width="2"/><use xlink:href="#m" transform="matrix(1,0,0,1,948.1,597.2000000000002) translate(0 14.4)"/><path d="M1158 658.8h-10.45m-10.45 0h-20.9m-10.46 0h-20.9m-10.46 0h-20.9m-10.46 0h-20.9m-10.45 0h-20.9m-10.46 0h-20.9m-10.45 0H938.5" stroke="#000" stroke-width="2" fill="none"/><path d="M1159 659.8h-1.03v-2h1.03z"/><path d="M923.24 658.8l14.26-4.64v9.28z" stroke="#000" stroke-width="2"/><g><use xlink:href="#n" transform="matrix(1,0,0,1,970.075,662.8000000000002) translate(0 14.4)"/><use xlink:href="#o" transform="matrix(1,0,0,1,970.075,662.8000000000002) translate(70.95 14.4)"/></g><path d="M877 688.13h-9.94m-9.94 0h-19.88m-9.94 0h-19.88m-9.94 0H777.6m-9.94 0h-19.9m-9.93 0h-19.88m-9.94 0h-19.87m-9.94 0h-19.9m-9.93 0H628.5m-9.95 0h-19.88m-9.94 0h-19.88m-9.94 0h-19.87m-9.95 0H509.2m-9.94 0h-19.88m-9.94 0h-9.94" stroke="#000" stroke-width="2" fill="none"/><path d="M878 689.13h-1.03v-2H878z"/><path d="M444.24 688.13l14.26-4.63v9.27z" stroke="#000" stroke-width="2"/><g><use xlink:href="#n" transform="matrix(1,0,0,1,600.025,692.1333333333334) translate(0 14.4)"/><use xlink:href="#p" transform="matrix(1,0,0,1,600.025,692.1333333333334) translate(70.95 14.4)"/></g><defs><path d="M137-138c1-29-70-34-71-4 15 46 118 7 119 86 1 83-164 76-172 9l43-7c4 19 20 25 44 25 33 8 57-30 24-41C81-84 22-81 20-136c-2-80 154-74 161-7" id="q"/><path d="M88-194c31-1 46 15 58 34l-1-101h50l1 261h-48c-2-10 0-23-3-31C134-8 116 4 84 4 32 4 16-41 15-95c0-56 19-97 73-99zm17 164c33 0 40-30 41-66 1-37-9-64-41-64s-38 30-39 65c0 43 13 65 39 65" id="r"/><g id="a"><use transform="matrix(0.05,0,0,0.05,0,0)" xlink:href="#q"/><use transform="matrix(0.05,0,0,0.05,10,0)" xlink:href="#r"/><path d="M-.9.97h22.75v1.9H-.9z"/></g><path d="M185-189c-5-48-123-54-124 2 14 75 158 14 163 119 3 78-121 87-175 55-17-10-28-26-33-46l33-7c5 56 141 63 141-1 0-78-155-14-162-118-5-82 145-84 179-34 5 7 8 16 11 25" id="s"/><path d="M100-194c63 0 86 42 84 106H49c0 40 14 67 53 68 26 1 43-12 49-29l28 8c-11 28-37 45-77 45C44 4 14-33 15-96c1-61 26-98 85-98zm52 81c6-60-76-77-97-28-3 7-6 17-6 28h103" id="t"/><path d="M24 0v-261h32V0H24" id="u"/><path d="M96-169c-40 0-48 33-48 73s9 75 48 75c24 0 41-14 43-38l32 2c-6 37-31 61-74 61-59 0-76-41-82-99-10-93 101-131 147-64 4 7 5 14 7 22l-32 3c-4-21-16-35-41-35" id="v"/><path d="M59-47c-2 24 18 29 38 22v24C64 9 27 4 27-40v-127H5v-23h24l9-43h21v43h35v23H59v120" id="w"/><g id="b"><use transform="matrix(0.05,0,0,0.05,0,0)" xlink:href="#s"/><use transform="matrix(0.05,0,0,0.05,12,0)" xlink:href="#t"/><use transform="matrix(0.05,0,0,0.05,22,0)" xlink:href="#u"/><use transform="matrix(0.05,0,0,0.05,25.950000000000003,0)" xlink:href="#t"/><use transform="matrix(0.05,0,0,0.05,35.95,0)" xlink:href="#v"/><use transform="matrix(0.05,0,0,0.05,44.95,0)" xlink:href="#w"/></g><path d="M141-36C126-15 110 5 73 4 37 3 15-17 15-53c-1-64 63-63 125-63 3-35-9-54-41-54-24 1-41 7-42 31l-33-3c5-37 33-52 76-52 45 0 72 20 72 64v82c-1 20 7 32 28 27v20c-31 9-61-2-59-35zM48-53c0 20 12 33 32 33 41-3 63-29 60-74-43 2-92-5-92 41" id="x"/><path d="M85-194c31 0 48 13 60 33l-1-100h32l1 261h-30c-2-10 0-23-3-31C134-8 116 4 85 4 32 4 16-35 15-94c0-66 23-100 70-100zm9 24c-40 0-46 34-46 75 0 40 6 74 45 74 42 0 51-32 51-76 0-42-9-74-50-73" id="y"/><path d="M114-163C36-179 61-72 57 0H25l-1-190h30c1 12-1 29 2 39 6-27 23-49 58-41v29" id="z"/><path d="M135-143c-3-34-86-38-87 0 15 53 115 12 119 90S17 21 10-45l28-5c4 36 97 45 98 0-10-56-113-15-118-90-4-57 82-63 122-42 12 7 21 19 24 35" id="A"/><g id="c"><use transform="matrix(0.05,0,0,0.05,0,0)" xlink:href="#x"/><use transform="matrix(0.05,0,0,0.05,10,0)" xlink:href="#y"/><use transform="matrix(0.05,0,0,0.05,20,0)" xlink:href="#y"/><use transform="matrix(0.05,0,0,0.05,30,0)" xlink:href="#z"/><use transform="matrix(0.05,0,0,0.05,35.95,0)" xlink:href="#t"/><use transform="matrix(0.05,0,0,0.05,45.95,0)" xlink:href="#A"/><use transform="matrix(0.05,0,0,0.05,54.95,0)" xlink:href="#A"/></g><path d="M33 0v-248h34V0H33" id="B"/><path d="M117-194c89-4 53 116 60 194h-32v-121c0-31-8-49-39-48C34-167 62-67 57 0H25l-1-190h30c1 10-1 24 2 32 11-22 29-35 61-36" id="C"/><path d="M108 0H70L1-190h34L89-25l56-165h34" id="D"/><path d="M100-194c62-1 85 37 85 99 1 63-27 99-86 99S16-35 15-95c0-66 28-99 85-99zM99-20c44 1 53-31 53-75 0-43-8-75-51-75s-53 32-53 75 10 74 51 75" id="E"/><g id="d"><use transform="matrix(0.05,0,0,0.05,0,0)" xlink:href="#B"/><use transform="matrix(0.05,0,0,0.05,5,0)" xlink:href="#C"/><use transform="matrix(0.05,0,0,0.05,15,0)" xlink:href="#D"/><use transform="matrix(0.05,0,0,0.05,24,0)" xlink:href="#t"/><use transform="matrix(0.05,0,0,0.05,34,0)" xlink:href="#A"/><use transform="matrix(0.05,0,0,0.05,43,0)" xlink:href="#w"/><use transform="matrix(0.05,0,0,0.05,48,0)" xlink:href="#E"/><use transform="matrix(0.05,0,0,0.05,58,0)" xlink:href="#z"/></g><path d="M33-154v-36h34v36H33zM33 0v-36h34V0H33" id="F"/><path d="M24-231v-30h32v30H24zM24 0v-190h32V0H24" id="G"/><path d="M206 0h-36l-40-164L89 0H53L-1-190h32L70-26l43-164h34l41 164 42-164h31" id="H"/><path d="M232-93c-1 65-40 97-104 97C67 4 28-28 28-90v-158h33c8 89-33 224 67 224 102 0 64-133 71-224h33v155" id="I"/><g id="e"><use transform="matrix(0.05,0,0,0.05,0,0)" xlink:href="#F"/><use transform="matrix(0.05,0,0,0.05,5,0)" xlink:href="#B"/><use transform="matrix(0.05,0,0,0.05,10,0)" xlink:href="#C"/><use transform="matrix(0.05,0,0,0.05,20,0)" xlink:href="#w"/><use transform="matrix(0.05,0,0,0.05,25,0)" xlink:href="#t"/><use transform="matrix(0.05,0,0,0.05,35,0)" xlink:href="#z"/><use transform="matrix(0.05,0,0,0.05,40.95,0)" xlink:href="#D"/><use transform="matrix(0.05,0,0,0.05,49.95,0)" xlink:href="#G"/><use transform="matrix(0.05,0,0,0.05,53.900000000000006,0)" xlink:href="#t"/><use transform="matrix(0.05,0,0,0.05,63.900000000000006,0)" xlink:href="#H"/><use transform="matrix(0.05,0,0,0.05,76.85000000000001,0)" xlink:href="#I"/><use transform="matrix(0.05,0,0,0.05,89.80000000000001,0)" xlink:href="#B"/><path d="M-.9 1.25h96.6v1.32H-.9z"/></g><path d="M30 0v-248h187v28H63v79h144v27H63v87h162V0H30" id="J"/><g id="f"><use transform="matrix(0.05,0,0,0.05,0,0)" xlink:href="#J"/><use transform="matrix(0.05,0,0,0.05,12,0)" xlink:href="#C"/><use transform="matrix(0.05,0,0,0.05,22,0)" xlink:href="#w"/><use transform="matrix(0.05,0,0,0.05,27,0)" xlink:href="#t"/><use transform="matrix(0.05,0,0,0.05,37,0)" xlink:href="#z"/></g><g id="g"><use transform="matrix(0.05,0,0,0.05,0,0)" xlink:href="#x"/><use transform="matrix(0.05,0,0,0.05,10,0)" xlink:href="#y"/><use transform="matrix(0.05,0,0,0.05,20,0)" xlink:href="#y"/><use transform="matrix(0.05,0,0,0.05,30,0)" xlink:href="#z"/><use transform="matrix(0.05,0,0,0.05,35.95,0)" xlink:href="#t"/><use transform="matrix(0.05,0,0,0.05,45.95,0)" xlink:href="#A"/><use transform="matrix(0.05,0,0,0.05,54.95,0)" xlink:href="#A"/></g><g id="h"><use transform="matrix(0.05,0,0,0.05,0,0)" xlink:href="#E"/><use transform="matrix(0.05,0,0,0.05,10,0)" xlink:href="#z"/></g><g id="i"><use transform="matrix(0.05,0,0,0.05,0,0)" xlink:href="#A"/><use transform="matrix(0.05,0,0,0.05,9,0)" xlink:href="#t"/><use transform="matrix(0.05,0,0,0.05,19,0)" xlink:href="#u"/><use transform="matrix(0.05,0,0,0.05,22.95,0)" xlink:href="#t"/><use transform="matrix(0.05,0,0,0.05,32.95,0)" xlink:href="#v"/><use transform="matrix(0.05,0,0,0.05,41.95,0)" xlink:href="#w"/></g><path d="M210-169c-67 3-38 105-44 169h-31v-121c0-29-5-50-35-48C34-165 62-65 56 0H25l-1-190h30c1 10-1 24 2 32 10-44 99-50 107 0 11-21 27-35 58-36 85-2 47 119 55 194h-31v-121c0-29-5-49-35-48" id="K"/><g id="j"><use transform="matrix(0.05,0,0,0.05,0,0)" xlink:href="#z"/><use transform="matrix(0.05,0,0,0.05,5.95,0)" xlink:href="#t"/><use transform="matrix(0.05,0,0,0.05,15.949999999999998,0)" xlink:href="#v"/><use transform="matrix(0.05,0,0,0.05,24.95,0)" xlink:href="#E"/><use transform="matrix(0.05,0,0,0.05,34.95,0)" xlink:href="#K"/><use transform="matrix(0.05,0,0,0.05,49.900000000000006,0)" xlink:href="#K"/><use transform="matrix(0.05,0,0,0.05,64.85000000000001,0)" xlink:href="#t"/><use transform="matrix(0.05,0,0,0.05,74.85000000000001,0)" xlink:href="#C"/><use transform="matrix(0.05,0,0,0.05,84.85000000000001,0)" xlink:href="#y"/><use transform="matrix(0.05,0,0,0.05,94.85000000000001,0)" xlink:href="#t"/><use transform="matrix(0.05,0,0,0.05,104.85000000000001,0)" xlink:href="#y"/></g><path d="M160-131c35 5 61 23 61 61C221 17 115-2 30 0v-248c76 3 177-17 177 60 0 33-19 50-47 57zm-97-11c50-1 110 9 110-42 0-47-63-36-110-37v79zm0 115c55-2 124 14 124-45 0-56-70-42-124-44v89" id="L"/><path d="M205 0l-28-72H64L36 0H1l101-248h38L239 0h-34zm-38-99l-47-123c-12 45-31 82-46 123h93" id="M"/><path d="M87 75C49 33 22-17 22-94c0-76 28-126 65-167h31c-38 41-64 92-64 168S80 34 118 75H87" id="N"/><path d="M33-261c38 41 65 92 65 168S71 34 33 75H2C39 34 66-17 66-93S39-220 2-261h31" id="O"/><g id="k"><use transform="matrix(0.05,0,0,0.05,0,0)" xlink:href="#L"/><use transform="matrix(0.05,0,0,0.05,12,0)" xlink:href="#w"/><use transform="matrix(0.05,0,0,0.05,17,0)" xlink:href="#C"/><use transform="matrix(0.05,0,0,0.05,27,0)" xlink:href="#s"/><use transform="matrix(0.05,0,0,0.05,39,0)" xlink:href="#x"/><use transform="matrix(0.05,0,0,0.05,49,0)" xlink:href="#D"/><use transform="matrix(0.05,0,0,0.05,58,0)" xlink:href="#t"/><use transform="matrix(0.05,0,0,0.05,68,0)" xlink:href="#M"/><use transform="matrix(0.05,0,0,0.05,80,0)" xlink:href="#y"/><use transform="matrix(0.05,0,0,0.05,90,0)" xlink:href="#z"/><use transform="matrix(0.05,0,0,0.05,95.95,0)" xlink:href="#z"/><use transform="matrix(0.05,0,0,0.05,101.9,0)" xlink:href="#t"/><use transform="matrix(0.05,0,0,0.05,111.9,0)" xlink:href="#A"/><use transform="matrix(0.05,0,0,0.05,120.9,0)" xlink:href="#A"/><use transform="matrix(0.05,0,0,0.05,129.9,0)" xlink:href="#N"/><use transform="matrix(0.05,0,0,0.05,135.85,0)" xlink:href="#O"/></g><g id="l"><use transform="matrix(0.05,0,0,0.05,0,0)" xlink:href="#F"/><use transform="matrix(0.05,0,0,0.05,5,0)" xlink:href="#B"/><use transform="matrix(0.05,0,0,0.05,10,0)" xlink:href="#C"/><use transform="matrix(0.05,0,0,0.05,20,0)" xlink:href="#w"/><use transform="matrix(0.05,0,0,0.05,25,0)" xlink:href="#t"/><use transform="matrix(0.05,0,0,0.05,35,0)" xlink:href="#z"/><use transform="matrix(0.05,0,0,0.05,40.95,0)" xlink:href="#D"/><use transform="matrix(0.05,0,0,0.05,49.95,0)" xlink:href="#G"/><use transform="matrix(0.05,0,0,0.05,53.900000000000006,0)" xlink:href="#t"/><use transform="matrix(0.05,0,0,0.05,63.900000000000006,0)" xlink:href="#H"/><path d="M-.9 1.25h78.65v1.32H-.9z"/></g><g id="m"><use transform="matrix(0.05,0,0,0.05,0,0)" xlink:href="#s"/><use transform="matrix(0.05,0,0,0.05,12,0)" xlink:href="#x"/><use transform="matrix(0.05,0,0,0.05,22,0)" xlink:href="#D"/><use transform="matrix(0.05,0,0,0.05,31,0)" xlink:href="#t"/><use transform="matrix(0.05,0,0,0.05,41,0)" xlink:href="#M"/><use transform="matrix(0.05,0,0,0.05,53,0)" xlink:href="#y"/><use transform="matrix(0.05,0,0,0.05,63,0)" xlink:href="#y"/><use transform="matrix(0.05,0,0,0.05,73,0)" xlink:href="#z"/><use transform="matrix(0.05,0,0,0.05,78.95,0)" xlink:href="#t"/><use transform="matrix(0.05,0,0,0.05,88.95,0)" xlink:href="#A"/><use transform="matrix(0.05,0,0,0.05,97.95,0)" xlink:href="#A"/><use transform="matrix(0.05,0,0,0.05,106.95,0)" xlink:href="#N"/><use transform="matrix(0.05,0,0,0.05,112.9,0)" xlink:href="#x"/><use transform="matrix(0.05,0,0,0.05,122.9,0)" xlink:href="#y"/><use transform="matrix(0.05,0,0,0.05,132.9,0)" xlink:href="#y"/><use transform="matrix(0.05,0,0,0.05,142.9,0)" xlink:href="#z"/><use transform="matrix(0.05,0,0,0.05,148.85,0)" xlink:href="#t"/><use transform="matrix(0.05,0,0,0.05,158.85,0)" xlink:href="#A"/><use transform="matrix(0.05,0,0,0.05,167.85,0)" xlink:href="#A"/><use transform="matrix(0.05,0,0,0.05,176.85,0)" xlink:href="#O"/></g><g id="n"><use transform="matrix(0.05,0,0,0.05,0,0)" xlink:href="#M"/><use transform="matrix(0.05,0,0,0.05,12,0)" xlink:href="#y"/><use transform="matrix(0.05,0,0,0.05,22,0)" xlink:href="#y"/><use transform="matrix(0.05,0,0,0.05,32,0)" xlink:href="#z"/><use transform="matrix(0.05,0,0,0.05,37.95,0)" xlink:href="#t"/><use transform="matrix(0.05,0,0,0.05,47.95,0)" xlink:href="#A"/><use transform="matrix(0.05,0,0,0.05,56.95,0)" xlink:href="#A"/></g><g id="o"><use transform="matrix(0.05,0,0,0.05,0,0)" xlink:href="#z"/><use transform="matrix(0.05,0,0,0.05,5.95,0)" xlink:href="#t"/><use transform="matrix(0.05,0,0,0.05,15.949999999999998,0)" xlink:href="#v"/><use transform="matrix(0.05,0,0,0.05,24.95,0)" xlink:href="#G"/><use transform="matrix(0.05,0,0,0.05,28.899999999999995,0)" xlink:href="#t"/><use transform="matrix(0.05,0,0,0.05,38.9,0)" xlink:href="#D"/><use transform="matrix(0.05,0,0,0.05,47.9,0)" xlink:href="#t"/><use transform="matrix(0.05,0,0,0.05,57.900000000000006,0)" xlink:href="#y"/></g><g id="p"><use transform="matrix(0.05,0,0,0.05,0,0)" xlink:href="#A"/><use transform="matrix(0.05,0,0,0.05,9,0)" xlink:href="#x"/><use transform="matrix(0.05,0,0,0.05,19,0)" xlink:href="#D"/><use transform="matrix(0.05,0,0,0.05,28,0)" xlink:href="#t"/><use transform="matrix(0.05,0,0,0.05,38,0)" xlink:href="#y"/></g></defs></g></svg>