<svg xmlns="http://www.w3.org/2000/svg" xmlns:xlink="http://www.w3.org/1999/xlink" xmlns:lucid="lucid" width="740" height="740"><g transform="translate(-460 -60)" lucid:page-tab-id="FwKZ8Yoe81TC"><path d="M559.75 159.75c0 10.9-8.84 19.75-19.75 19.75-10.9 0-19.75-8.84-19.75-19.75 0-10.9 8.84-19.75 19.75-19.75 10.9 0 19.75 8.84 19.75 19.75z" stroke="#000" stroke-width="2" fill="#fff"/><path d="M540 179.5v55.3l40 63.2m-40-63.2L500 298m0-98.75h80" stroke="#000" stroke-width="2" fill="none"/><path d="M500 140h80v180h-80z" fill="none"/><use xlink:href="#a" transform="matrix(1,0,0,1,420,298) translate(82.525 14.6)"/><path d="M480 80h270v20l-10 10H480z" fill="#fff"/><path d="M750 80v20l-10 10H480" stroke="#000" stroke-width="2" fill="none"/><path d="M480 80h700v700H480z" stroke="#000" stroke-width="2" fill="none"/><use xlink:href="#b" transform="matrix(1,0,0,1,488,80) translate(0 18.6)"/><use xlink:href="#c" transform="matrix(1,0,0,1,488,80) translate(25.950000000000003 18.6)"/><use xlink:href="#d" transform="matrix(1,0,0,1,488,80) translate(97.9 18.6)"/><use xlink:href="#e" transform="matrix(1,0,0,1,488,80) translate(150.85000000000002 18.6)"/><use xlink:href="#f" transform="matrix(1,0,0,1,488,80) translate(200.8 18.6)"/><path d="M540 269.4v9.78m0 9.8v19.55m0 9.8v19.55m0 9.8v19.55m0 9.8v19.55m0 9.8v19.55m0 9.8v19.55m0 9.8v19.55m0 9.8v19.55m0 9.8v19.55m0 9.8v19.55m0 9.8v19.55m0 9.8v19.55m0 9.8v19.55m0 9.8v19.55m0 9.8v19.55m0 9.8V739M540 269.43v-1.03M540 738.97V740" stroke="#000" stroke-width="2" fill="none"/><path d="M520 328.4h40V700h-40zM720 200h160v60H720z" stroke="#000" stroke-width="2" fill="#fff"/><use xlink:href="#g" transform="matrix(1,0,0,1,720,200) translate(23.10499999999999 33.15)"/><path d="M800 262v9.94m0 9.94v19.87m0 9.94v19.86m0 9.94v19.88m0 9.93v19.9m0 9.93V421m0 9.94v19.87m0 9.95v19.88m0 9.93v19.88m0 9.94v19.87m0 9.94v19.86m0 9.94v19.88m0 9.93v19.9m0 9.92v19.88m0 9.94v19.87m0 9.95v19.88m0 9.93V739" stroke="#000" stroke-width="2" fill="none"/><path d="M801 262.03h-2V261h2z"/><path d="M800 738.97V740" stroke="#000" stroke-width="2" fill="none"/><path d="M780 320h40v380h-40z" stroke="#000" stroke-width="2" fill="#fff"/><path d="M562 379.7h198.5" stroke="#000" stroke-width="2" fill="none"/><path d="M562.03 380.7H561v-2h1.03z"/><path d="M775.76 379.7l-14.26 4.62v-9.27z" stroke="#000" stroke-width="2"/><use xlink:href="#h" transform="matrix(1,0,0,1,601.75,354.0888888888892) translate(0 14.4)"/><use xlink:href="#i" transform="matrix(1,0,0,1,601.75,354.0888888888892) translate(47.95 14.4)"/><use xlink:href="#j" transform="matrix(1,0,0,1,601.75,354.0888888888892) translate(100.9 14.4)"/><path d="M562 445.02h198.5" stroke="#000" stroke-width="2" fill="none"/><path d="M562.03 446.02H561v-2h1.03z"/><path d="M775.76 445.02l-14.26 4.64v-9.27z" stroke="#000" stroke-width="2"/><use xlink:href="#k" transform="matrix(1,0,0,1,611.325,419.42222222222256) translate(0 14.4)"/><path d="M960 360h160v60H960z" stroke="#000" stroke-width="2" fill="#fff"/><use xlink:href="#l" transform="matrix(1,0,0,1,960,360) translate(33.57999999999999 33.15)"/><path d="M1040 422v9.88m0 9.87v19.75m0 9.88v19.75m0 9.87v19.75m0 9.88v19.75m0 9.87V580m0 9.88v19.75m0 9.87v19.75m0 9.88V659" stroke="#000" stroke-width="2" fill="none"/><path d="M1041 422.03h-2V421h2z"/><path d="M1040 658.97V660" stroke="#000" stroke-width="2" fill="none"/><path d="M1020 460h40v120h-40z" stroke="#000" stroke-width="2" fill="#fff"/><path d="M822 512.13h178.5" stroke="#000" stroke-width="2" fill="none"/><path d="M822.03 513.13H821v-2h1.03z"/><path d="M1015.76 512.13l-14.26 4.64v-9.27z" stroke="#000" stroke-width="2"/><use xlink:href="#m" transform="matrix(1,0,0,1,848.5,486.5333333333334) translate(0 14.4)"/><path d="M1018 557.47h-9.92m-9.9 0h-19.85m-9.9 0h-19.85m-9.9 0h-19.85m-9.9 0h-19.84m-9.93 0h-19.83m-9.92 0h-9.92" stroke="#000" stroke-width="2" fill="none"/><path d="M1019 558.47h-1.03v-2h1.03z"/><path d="M824.24 557.47l14.26-4.64v9.27z" stroke="#000" stroke-width="2"/><g><use xlink:href="#n" transform="matrix(1,0,0,1,901.875,561.466666666667) translate(0 14.4)"/></g><path d="M778 621.47h-9.45m-9.45 0h-18.9m-9.46 0h-18.9m-9.46 0h-18.9m-9.46 0h-18.9m-9.45 0h-18.9m-9.46 0h-18.9m-9.45 0h-9.45" stroke="#000" stroke-width="2" fill="none"/><path d="M779 622.47h-1.03v-2H779z"/><path d="M564.24 621.47l14.26-4.64v9.27z" stroke="#000" stroke-width="2"/><g><use xlink:href="#o" transform="matrix(1,0,0,1,569.775,625.466666666667) translate(0 14.4)"/><use xlink:href="#p" transform="matrix(1,0,0,1,569.775,625.466666666667) translate(81.95 14.4)"/><use xlink:href="#q" transform="matrix(1,0,0,1,569.775,625.466666666667) translate(122.55000000000001 14.4)"/></g><defs><path d="M33 0v-248h34V0H33" id="r"/><path d="M117-194c89-4 53 116 60 194h-32v-121c0-31-8-49-39-48C34-167 62-67 57 0H25l-1-190h30c1 10-1 24 2 32 11-22 29-35 61-36" id="s"/><path d="M100-194c62-1 85 37 85 99 1 63-27 99-86 99S16-35 15-95c0-66 28-99 85-99zM99-20c44 1 53-31 53-75 0-43-8-75-51-75s-53 32-53 75 10 74 51 75" id="t"/><path d="M108 0H70L1-190h34L89-25l56-165h34" id="u"/><path d="M141-36C126-15 110 5 73 4 37 3 15-17 15-53c-1-64 63-63 125-63 3-35-9-54-41-54-24 1-41 7-42 31l-33-3c5-37 33-52 76-52 45 0 72 20 72 64v82c-1 20 7 32 28 27v20c-31 9-61-2-59-35zM48-53c0 20 12 33 32 33 41-3 63-29 60-74-43 2-92-5-92 41" id="v"/><path d="M59-47c-2 24 18 29 38 22v24C64 9 27 4 27-40v-127H5v-23h24l9-43h21v43h35v23H59v120" id="w"/><path d="M114-163C36-179 61-72 57 0H25l-1-190h30c1 12-1 29 2 39 6-27 23-49 58-41v29" id="x"/><g id="a"><use transform="matrix(0.05,0,0,0.05,0,0)" xlink:href="#r"/><use transform="matrix(0.05,0,0,0.05,5,0)" xlink:href="#s"/><use transform="matrix(0.05,0,0,0.05,15,0)" xlink:href="#s"/><use transform="matrix(0.05,0,0,0.05,25,0)" xlink:href="#t"/><use transform="matrix(0.05,0,0,0.05,35,0)" xlink:href="#u"/><use transform="matrix(0.05,0,0,0.05,44,0)" xlink:href="#v"/><use transform="matrix(0.05,0,0,0.05,54,0)" xlink:href="#w"/><use transform="matrix(0.05,0,0,0.05,59,0)" xlink:href="#t"/><use transform="matrix(0.05,0,0,0.05,69,0)" xlink:href="#x"/></g><path d="M137-138c1-29-70-34-71-4 15 46 118 7 119 86 1 83-164 76-172 9l43-7c4 19 20 25 44 25 33 8 57-30 24-41C81-84 22-81 20-136c-2-80 154-74 161-7" id="y"/><path d="M88-194c31-1 46 15 58 34l-1-101h50l1 261h-48c-2-10 0-23-3-31C134-8 116 4 84 4 32 4 16-41 15-95c0-56 19-97 73-99zm17 164c33 0 40-30 41-66 1-37-9-64-41-64s-38 30-39 65c0 43 13 65 39 65" id="z"/><g id="b"><use transform="matrix(0.05,0,0,0.05,0,0)" xlink:href="#y"/><use transform="matrix(0.05,0,0,0.05,10,0)" xlink:href="#z"/><path d="M-.9.97h22.75v1.9H-.9z"/></g><path d="M30-248c87 1 191-15 191 75 0 78-77 80-158 76V0H30v-248zm33 125c57 0 124 11 124-50 0-59-68-47-124-48v98" id="A"/><path d="M115-194c55 1 70 41 70 98S169 2 115 4C84 4 66-9 55-30l1 105H24l-1-265h31l2 30c10-21 28-34 59-34zm-8 174c40 0 45-34 45-75s-6-73-45-74c-42 0-51 32-51 76 0 43 10 73 51 73" id="B"/><path d="M135-143c-3-34-86-38-87 0 15 53 115 12 119 90S17 21 10-45l28-5c4 36 97 45 98 0-10-56-113-15-118-90-4-57 82-63 122-42 12 7 21 19 24 35" id="C"/><path d="M100-194c63 0 86 42 84 106H49c0 40 14 67 53 68 26 1 43-12 49-29l28 8c-11 28-37 45-77 45C44 4 14-33 15-96c1-61 26-98 85-98zm52 81c6-60-76-77-97-28-3 7-6 17-6 28h103" id="D"/><g id="c"><use transform="matrix(0.05,0,0,0.05,0,0)" xlink:href="#A"/><use transform="matrix(0.05,0,0,0.05,12,0)" xlink:href="#x"/><use transform="matrix(0.05,0,0,0.05,17.95,0)" xlink:href="#t"/><use transform="matrix(0.05,0,0,0.05,27.950000000000003,0)" xlink:href="#B"/><use transform="matrix(0.05,0,0,0.05,37.95,0)" xlink:href="#t"/><use transform="matrix(0.05,0,0,0.05,47.95,0)" xlink:href="#C"/><use transform="matrix(0.05,0,0,0.05,56.95,0)" xlink:href="#D"/></g><path d="M145-31C134-9 116 4 85 4 32 4 16-35 15-94c0-59 17-99 70-100 32-1 48 14 60 33 0-11-1-24 2-32h30l-1 268h-32zM93-21c41 0 51-33 51-76s-8-73-50-73c-40 0-46 35-46 75s5 74 45 74" id="E"/><path d="M84 4C-5 8 30-112 23-190h32v120c0 31 7 50 39 49 72-2 45-101 50-169h31l1 190h-30c-1-10 1-25-2-33-11 22-28 36-60 37" id="F"/><path d="M24-231v-30h32v30H24zM24 0v-190h32V0H24" id="G"/><path d="M179-190L93 31C79 59 56 82 12 73V49c39 6 53-20 64-50L1-190h34L92-34l54-156h33" id="H"/><g id="d"><use transform="matrix(0.05,0,0,0.05,0,0)" xlink:href="#D"/><use transform="matrix(0.05,0,0,0.05,10,0)" xlink:href="#E"/><use transform="matrix(0.05,0,0,0.05,20,0)" xlink:href="#F"/><use transform="matrix(0.05,0,0,0.05,30,0)" xlink:href="#G"/><use transform="matrix(0.05,0,0,0.05,33.95,0)" xlink:href="#w"/><use transform="matrix(0.05,0,0,0.05,38.95,0)" xlink:href="#H"/></g><path d="M106-169C34-169 62-67 57 0H25v-261h32l-1 103c12-21 28-36 61-36 89 0 53 116 60 194h-32v-121c2-32-8-49-39-48" id="I"/><g id="e"><use transform="matrix(0.05,0,0,0.05,0,0)" xlink:href="#C"/><use transform="matrix(0.05,0,0,0.05,9,0)" xlink:href="#I"/><use transform="matrix(0.05,0,0,0.05,19,0)" xlink:href="#v"/><use transform="matrix(0.05,0,0,0.05,29,0)" xlink:href="#x"/><use transform="matrix(0.05,0,0,0.05,34.95,0)" xlink:href="#D"/></g><path d="M101-234c-31-9-42 10-38 44h38v23H63V0H32v-167H5v-23h27c-7-52 17-82 69-68v24" id="J"/><g id="f"><use transform="matrix(0.05,0,0,0.05,0,0)" xlink:href="#t"/><use transform="matrix(0.05,0,0,0.05,10,0)" xlink:href="#J"/><use transform="matrix(0.05,0,0,0.05,14.65,0)" xlink:href="#J"/><use transform="matrix(0.05,0,0,0.05,19.65,0)" xlink:href="#D"/><use transform="matrix(0.05,0,0,0.05,29.649999999999995,0)" xlink:href="#x"/></g><path d="M33-154v-36h34v36H33zM33 0v-36h34V0H33" id="K"/><path d="M190 0L58-211 59 0H30v-248h39L202-35l-2-213h31V0h-41" id="L"/><path d="M177-190C167-65 218 103 67 71c-23-6-38-20-44-43l32-5c15 47 100 32 89-28v-30C133-14 115 1 83 1 29 1 15-40 15-95c0-56 16-97 71-98 29-1 48 16 59 35 1-10 0-23 2-32h30zM94-22c36 0 50-32 50-73 0-42-14-75-50-75-39 0-46 34-46 75s6 73 46 73" id="M"/><path d="M232-93c-1 65-40 97-104 97C67 4 28-28 28-90v-158h33c8 89-33 224 67 224 102 0 64-133 71-224h33v155" id="N"/><g id="g"><use transform="matrix(0.05,0,0,0.05,0,0)" xlink:href="#K"/><use transform="matrix(0.05,0,0,0.05,5,0)" xlink:href="#L"/><use transform="matrix(0.05,0,0,0.05,17.950000000000003,0)" xlink:href="#D"/><use transform="matrix(0.05,0,0,0.05,27.950000000000003,0)" xlink:href="#M"/><use transform="matrix(0.05,0,0,0.05,37.95,0)" xlink:href="#t"/><use transform="matrix(0.05,0,0,0.05,47.95,0)" xlink:href="#w"/><use transform="matrix(0.05,0,0,0.05,52.95,0)" xlink:href="#G"/><use transform="matrix(0.05,0,0,0.05,56.900000000000006,0)" xlink:href="#v"/><use transform="matrix(0.05,0,0,0.05,66.9,0)" xlink:href="#w"/><use transform="matrix(0.05,0,0,0.05,71.9,0)" xlink:href="#G"/><use transform="matrix(0.05,0,0,0.05,75.85000000000001,0)" xlink:href="#t"/><use transform="matrix(0.05,0,0,0.05,85.85000000000001,0)" xlink:href="#s"/><use transform="matrix(0.05,0,0,0.05,95.85000000000001,0)" xlink:href="#N"/><use transform="matrix(0.05,0,0,0.05,108.80000000000001,0)" xlink:href="#r"/><path d="M-.9 1.25h115.6v1.32H-.9z"/></g><path d="M30 0v-248h187v28H63v79h144v27H63v87h162V0H30" id="O"/><g id="h"><use transform="matrix(0.05,0,0,0.05,0,0)" xlink:href="#O"/><use transform="matrix(0.05,0,0,0.05,12,0)" xlink:href="#s"/><use transform="matrix(0.05,0,0,0.05,22,0)" xlink:href="#w"/><use transform="matrix(0.05,0,0,0.05,27,0)" xlink:href="#D"/><use transform="matrix(0.05,0,0,0.05,37,0)" xlink:href="#x"/></g><g id="i"><use transform="matrix(0.05,0,0,0.05,0,0)" xlink:href="#D"/><use transform="matrix(0.05,0,0,0.05,10,0)" xlink:href="#E"/><use transform="matrix(0.05,0,0,0.05,20,0)" xlink:href="#F"/><use transform="matrix(0.05,0,0,0.05,30,0)" xlink:href="#G"/><use transform="matrix(0.05,0,0,0.05,33.95,0)" xlink:href="#w"/><use transform="matrix(0.05,0,0,0.05,38.95,0)" xlink:href="#H"/></g><g id="j"><use transform="matrix(0.05,0,0,0.05,0,0)" xlink:href="#t"/><use transform="matrix(0.05,0,0,0.05,10,0)" xlink:href="#J"/><use transform="matrix(0.05,0,0,0.05,14.65,0)" xlink:href="#J"/><use transform="matrix(0.05,0,0,0.05,19.65,0)" xlink:href="#D"/><use transform="matrix(0.05,0,0,0.05,29.649999999999995,0)" xlink:href="#x"/></g><path d="M160-131c35 5 61 23 61 61C221 17 115-2 30 0v-248c76 3 177-17 177 60 0 33-19 50-47 57zm-97-11c50-1 110 9 110-42 0-47-63-36-110-37v79zm0 115c55-2 124 14 124-45 0-56-70-42-124-44v89" id="P"/><path d="M212-179c-10-28-35-45-73-45-59 0-87 40-87 99 0 60 29 101 89 101 43 0 62-24 78-52l27 14C228-24 195 4 139 4 59 4 22-46 18-125c-6-104 99-153 187-111 19 9 31 26 39 46" id="Q"/><path d="M24 0v-261h32V0H24" id="R"/><path d="M96-169c-40 0-48 33-48 73s9 75 48 75c24 0 41-14 43-38l32 2c-6 37-31 61-74 61-59 0-76-41-82-99-10-93 101-131 147-64 4 7 5 14 7 22l-32 3c-4-21-16-35-41-35" id="S"/><path d="M143 0L79-87 56-68V0H24v-261h32v163l83-92h37l-77 82L181 0h-38" id="T"/><path d="M140-251c81 0 123 46 123 126C263-46 219 4 140 4 59 4 17-45 17-125s42-126 123-126zm0 227c63 0 89-41 89-101s-29-99-89-99c-61 0-89 39-89 99S79-25 140-24" id="U"/><path d="M87 75C49 33 22-17 22-94c0-76 28-126 65-167h31c-38 41-64 92-64 168S80 34 118 75H87" id="V"/><path d="M33-261c38 41 65 92 65 168S71 34 33 75H2C39 34 66-17 66-93S39-220 2-261h31" id="W"/><g id="k"><use transform="matrix(0.05,0,0,0.05,0,0)" xlink:href="#P"/><use transform="matrix(0.05,0,0,0.05,12,0)" xlink:href="#w"/><use transform="matrix(0.05,0,0,0.05,17,0)" xlink:href="#s"/><use transform="matrix(0.05,0,0,0.05,27,0)" xlink:href="#Q"/><use transform="matrix(0.05,0,0,0.05,39.95,0)" xlink:href="#R"/><use transform="matrix(0.05,0,0,0.05,43.900000000000006,0)" xlink:href="#G"/><use transform="matrix(0.05,0,0,0.05,47.85000000000001,0)" xlink:href="#S"/><use transform="matrix(0.05,0,0,0.05,56.85,0)" xlink:href="#T"/><use transform="matrix(0.05,0,0,0.05,65.85000000000001,0)" xlink:href="#U"/><use transform="matrix(0.05,0,0,0.05,79.85000000000001,0)" xlink:href="#J"/><use transform="matrix(0.05,0,0,0.05,84.50000000000001,0)" xlink:href="#J"/><use transform="matrix(0.05,0,0,0.05,89.50000000000001,0)" xlink:href="#D"/><use transform="matrix(0.05,0,0,0.05,99.50000000000001,0)" xlink:href="#x"/><use transform="matrix(0.05,0,0,0.05,105.45,0)" xlink:href="#V"/><use transform="matrix(0.05,0,0,0.05,111.40000000000003,0)" xlink:href="#W"/></g><path d="M205 0l-28-72H64L36 0H1l101-248h38L239 0h-34zm-38-99l-47-123c-12 45-31 82-46 123h93" id="X"/><g id="l"><use transform="matrix(0.05,0,0,0.05,0,0)" xlink:href="#K"/><use transform="matrix(0.05,0,0,0.05,5,0)" xlink:href="#X"/><use transform="matrix(0.05,0,0,0.05,17,0)" xlink:href="#B"/><use transform="matrix(0.05,0,0,0.05,27,0)" xlink:href="#B"/><use transform="matrix(0.05,0,0,0.05,37,0)" xlink:href="#R"/><use transform="matrix(0.05,0,0,0.05,40.95,0)" xlink:href="#G"/><use transform="matrix(0.05,0,0,0.05,44.900000000000006,0)" xlink:href="#S"/><use transform="matrix(0.05,0,0,0.05,53.900000000000006,0)" xlink:href="#v"/><use transform="matrix(0.05,0,0,0.05,63.900000000000006,0)" xlink:href="#w"/><use transform="matrix(0.05,0,0,0.05,68.9,0)" xlink:href="#G"/><use transform="matrix(0.05,0,0,0.05,72.85000000000001,0)" xlink:href="#t"/><use transform="matrix(0.05,0,0,0.05,82.85000000000001,0)" xlink:href="#s"/><path d="M-.9 1.25h94.65v1.32H-.9z"/></g><path d="M185-189c-5-48-123-54-124 2 14 75 158 14 163 119 3 78-121 87-175 55-17-10-28-26-33-46l33-7c5 56 141 63 141-1 0-78-155-14-162-118-5-82 145-84 179-34 5 7 8 16 11 25" id="Y"/><path d="M115-194c53 0 69 39 70 98 0 66-23 100-70 100C84 3 66-7 56-30L54 0H23l1-261h32v101c10-23 28-34 59-34zm-8 174c40 0 45-34 45-75 0-40-5-75-45-74-42 0-51 32-51 76 0 43 10 73 51 73" id="Z"/><path d="M210-169c-67 3-38 105-44 169h-31v-121c0-29-5-50-35-48C34-165 62-65 56 0H25l-1-190h30c1 10-1 24 2 32 10-44 99-50 107 0 11-21 27-35 58-36 85-2 47 119 55 194h-31v-121c0-29-5-49-35-48" id="aa"/><g id="m"><use transform="matrix(0.05,0,0,0.05,0,0)" xlink:href="#Y"/><use transform="matrix(0.05,0,0,0.05,12,0)" xlink:href="#F"/><use transform="matrix(0.05,0,0,0.05,22,0)" xlink:href="#Z"/><use transform="matrix(0.05,0,0,0.05,32,0)" xlink:href="#aa"/><use transform="matrix(0.05,0,0,0.05,46.95,0)" xlink:href="#G"/><use transform="matrix(0.05,0,0,0.05,50.900000000000006,0)" xlink:href="#w"/><use transform="matrix(0.05,0,0,0.05,55.900000000000006,0)" xlink:href="#U"/><use transform="matrix(0.05,0,0,0.05,69.9,0)" xlink:href="#J"/><use transform="matrix(0.05,0,0,0.05,74.55000000000001,0)" xlink:href="#J"/><use transform="matrix(0.05,0,0,0.05,79.55000000000001,0)" xlink:href="#D"/><use transform="matrix(0.05,0,0,0.05,89.55000000000001,0)" xlink:href="#x"/><use transform="matrix(0.05,0,0,0.05,95.50000000000001,0)" xlink:href="#V"/><use transform="matrix(0.05,0,0,0.05,101.45000000000002,0)" xlink:href="#t"/><use transform="matrix(0.05,0,0,0.05,111.45,0)" xlink:href="#J"/><use transform="matrix(0.05,0,0,0.05,116.10000000000002,0)" xlink:href="#J"/><use transform="matrix(0.05,0,0,0.05,121.10000000000002,0)" xlink:href="#D"/><use transform="matrix(0.05,0,0,0.05,131.10000000000002,0)" xlink:href="#x"/><use transform="matrix(0.05,0,0,0.05,137.05,0)" xlink:href="#W"/></g><path d="M127-220V0H93v-220H8v-28h204v28h-85" id="ab"/><g id="n"><use transform="matrix(0.05,0,0,0.05,0,0)" xlink:href="#ab"/><use transform="matrix(0.05,0,0,0.05,10.3,0)" xlink:href="#x"/><use transform="matrix(0.05,0,0,0.05,16.25,0)" xlink:href="#F"/><use transform="matrix(0.05,0,0,0.05,26.25,0)" xlink:href="#D"/></g><path d="M85-194c31 0 48 13 60 33l-1-100h32l1 261h-30c-2-10 0-23-3-31C134-8 116 4 85 4 32 4 16-35 15-94c0-66 23-100 70-100zm9 24c-40 0-46 34-46 75 0 40 6 74 45 74 42 0 51-32 51-76 0-42-9-74-50-73" id="ac"/><g id="o"><use transform="matrix(0.05,0,0,0.05,0,0)" xlink:href="#A"/><use transform="matrix(0.05,0,0,0.05,12,0)" xlink:href="#x"/><use transform="matrix(0.05,0,0,0.05,17.95,0)" xlink:href="#t"/><use transform="matrix(0.05,0,0,0.05,27.950000000000003,0)" xlink:href="#B"/><use transform="matrix(0.05,0,0,0.05,37.95,0)" xlink:href="#t"/><use transform="matrix(0.05,0,0,0.05,47.95,0)" xlink:href="#C"/><use transform="matrix(0.05,0,0,0.05,56.95,0)" xlink:href="#D"/><use transform="matrix(0.05,0,0,0.05,66.95,0)" xlink:href="#ac"/></g><g id="p"><use transform="matrix(0.05,0,0,0.05,0,0)" xlink:href="#t"/><use transform="matrix(0.05,0,0,0.05,10,0)" xlink:href="#J"/><use transform="matrix(0.05,0,0,0.05,14.65,0)" xlink:href="#J"/><use transform="matrix(0.05,0,0,0.05,19.65,0)" xlink:href="#D"/><use transform="matrix(0.05,0,0,0.05,29.649999999999995,0)" xlink:href="#x"/></g><g id="q"><use transform="matrix(0.05,0,0,0.05,0,0)" xlink:href="#C"/><use transform="matrix(0.05,0,0,0.05,9,0)" xlink:href="#F"/><use transform="matrix(0.05,0,0,0.05,19,0)" xlink:href="#Z"/><use transform="matrix(0.05,0,0,0.05,29,0)" xlink:href="#aa"/><use transform="matrix(0.05,0,0,0.05,43.95,0)" xlink:href="#G"/><use transform="matrix(0.05,0,0,0.05,47.900000000000006,0)" xlink:href="#w"/><use transform="matrix(0.05,0,0,0.05,52.900000000000006,0)" xlink:href="#w"/><use transform="matrix(0.05,0,0,0.05,57.900000000000006,0)" xlink:href="#D"/><use transform="matrix(0.05,0,0,0.05,67.9,0)" xlink:href="#ac"/></g></defs></g></svg>