<svg xmlns="http://www.w3.org/2000/svg" xmlns:xlink="http://www.w3.org/1999/xlink" xmlns:lucid="lucid" width="1540" height="1280"><g transform="translate(-260 -180)" lucid:page-tab-id="kySY13FfTnw6"><path d="M280 200h140v20l-10 10H280z" fill="#fff"/><path d="M420 200v20l-10 10H280" stroke="#000" stroke-width="2" fill="none"/><path d="M280 200h1500v1240H280z" stroke="#000" stroke-width="2" fill="none"/><use xlink:href="#a" transform="matrix(1,0,0,1,288,200) translate(0 18.6)"/><use xlink:href="#b" transform="matrix(1,0,0,1,288,200) translate(25.950000000000003 18.6)"/><use xlink:href="#c" transform="matrix(1,0,0,1,288,200) translate(62.95 18.6)"/><path d="M359.75 259.75c0 10.9-8.84 19.75-19.75 19.75-10.9 0-19.75-8.84-19.75-19.75 0-10.9 8.84-19.75 19.75-19.75 10.9 0 19.75 8.84 19.75 19.75z" stroke="#000" stroke-width="2" fill="#fff"/><path d="M340 279.5v55.3l40 63.2m-40-63.2L300 398m0-98.75h80" stroke="#000" stroke-width="2" fill="none"/><path d="M300 240h80v180h-80z" fill="none"/><use xlink:href="#d" transform="matrix(1,0,0,1,220,398) translate(82.525 14.6)"/><path d="M320 500h40v820h-40z" stroke="#000" stroke-width="2" fill="#fff"/><path d="M339 319.86v9.9m0 9.9v19.8m0 9.9v19.78m0 9.9v19.8m0 9.88v19.8m0 9.9v19.8m0 9.88v9.9M339 497.97V499" stroke="#000" stroke-width="2" fill="none"/><path d="M620 290h160v80H620z" stroke="#000" stroke-width="2" fill="#fff"/><use xlink:href="#e" transform="matrix(1,0,0,1,620,290) translate(46.05499999999999 44.4)"/><path d="M680 500h40v800h-40z" stroke="#000" stroke-width="2" fill="#fff"/><path d="M700 372v10.5m0 10.5v21m0 10.5v21m0 10.5v21m0 10.5V498" stroke="#000" stroke-width="2" fill="none"/><path d="M701 372.03h-2V371h2z"/><path d="M700 497.97V499M362 634.67h298.5" stroke="#000" stroke-width="2" fill="none"/><path d="M362.03 635.67H361v-2h1.03z"/><path d="M675.76 634.67l-14.26 4.63v-9.27z" stroke="#000" stroke-width="2"/><use xlink:href="#f" transform="matrix(1,0,0,1,417.175,609.0666666666668) translate(0 14.4)"/><use xlink:href="#g" transform="matrix(1,0,0,1,417.175,609.0666666666668) translate(39.9 14.4)"/><path d="M958 660h160v80H958z" stroke="#000" stroke-width="2" fill="#fff"/><use xlink:href="#h" transform="matrix(1,0,0,1,958,660) translate(38.55499999999999 44.4)"/><path d="M1018 791.2h40v500h-40z" stroke="#000" stroke-width="2" fill="#fff"/><path d="M722 702.67h9.83m9.82 0h19.66m9.84 0h19.65m9.82 0h19.65m9.83 0h8.9V700h8.08m9.83 0h19.67m9.82 0h19.65m9.82 0h19.66m9.82 0h9.83" stroke="#000" stroke-width="2" fill="none"/><path d="M722.03 703.67H721v-2h1.03z"/><path d="M937.82 710.18L955.04 700l-17.22-10.18" stroke="#000" stroke-width="2" fill="none"/><use xlink:href="#i" transform="matrix(1,0,0,1,797.9924368167125,674.4103452651202) translate(0 14.4)"/><path d="M1259 531.2h160v120h-160z" stroke="#000" stroke-width="2" fill="#fff"/><use xlink:href="#j" transform="matrix(1,0,0,1,1259,531.1999999999998) translate(56.529999999999994 63.15)"/><path d="M1319 752.8h40v218.4h-40z" stroke="#000" stroke-width="2" fill="#fff"/><path d="M1339 653.2v10.84m0 10.85v21.68m0 10.84v21.7m0 10.84v10.84" stroke="#000" stroke-width="2" fill="none"/><path d="M1340 653.23h-2v-1.03h2z"/><path d="M1339 750.77v1.03M1060 891.2h239.5" stroke="#000" stroke-width="2" fill="none"/><path d="M1060.03 892.2H1059v-2h1.03z"/><path d="M1314.76 891.2l-14.26 4.64v-9.28z" stroke="#000" stroke-width="2"/><use xlink:href="#k" transform="matrix(1,0,0,1,1101.225,865.6) translate(0 14.4)"/><path d="M780 980h100v20l-10 10h-90z" fill="#fff"/><path d="M880 980v20l-10 10h-90" stroke="#000" stroke-width="2" fill="none"/><path d="M780 980h960v360H780zM780 1165.3h20m15 0h20m15 0h20m15 0h20m15 0h20m15 0h20m15 0h20m15 0h20m15 0h20m15 0h20m15 0h20m15 0h20m15 0h20m15 0h20m15 0h20m15 0h20m15 0h20m15 0h20m15 0h20m15 0h20m15 0h20m15 0h20m15 0h20m15 0h20m15 0h20m15 0h20m15 0h20m15 0h15" stroke="#000" stroke-width="2" fill="none"/><use xlink:href="#l" transform="matrix(1,0,0,1,788,980) translate(0 18.6)"/><use xlink:href="#m" transform="matrix(1,0,0,1,792,1018) translate(0 18.6)"/><use xlink:href="#n" transform="matrix(1,0,0,1,792,1173.2941176470588) translate(0 18.6)"/><path d="M1339 973.2v11.13m0 11.14v10.63h1v10.63m0 11.14V1039" stroke="#000" stroke-width="2" fill="none"/><path d="M1340 973.23h-2v-1.03h2z"/><path d="M1340 1038.97v1.03M1317 947.2h-9.98m-9.98 0h-19.96m-9.98 0h-19.95m-9.98 0h-19.96m-9.97 0h-19.96m-9.98 0h-19.97m-9.97 0h-19.96m-9.98 0h-19.96m-9.98 0h-9.98" stroke="#000" stroke-width="2" fill="none"/><path d="M1318 948.2h-1.03v-2h1.03z"/><path d="M1062.24 947.2l14.26-4.64v9.27z" stroke="#000" stroke-width="2"/><use xlink:href="#o" transform="matrix(1,0,0,1,1114.15,951.19718111346) translate(0 14.4)"/><use xlink:href="#p" transform="matrix(1,0,0,1,1114.15,951.19718111346) translate(88.75000000000001 14.4)"/><path d="M1016 1048.75h-10.24m-10.24 0h-20.48m-10.24 0h-20.48m-10.25 0H913.6m-10.25 0h-20.48m-10.24 0h-20.48m-10.24 0h-20.47m-10.24 0h-20.5m-10.24 0h-20.48m-10.24 0H739.5" stroke="#000" stroke-width="2" fill="none"/><path d="M1017 1049.75h-1.03v-2h1.03z"/><path d="M724.24 1048.75l14.26-4.64v9.28z" stroke="#000" stroke-width="2"/><use xlink:href="#q" transform="matrix(1,0,0,1,850.875,1052.7475687103592) translate(0 14.4)"/><path d="M678 1120h-9.95m-9.95 0h-19.9m-9.95 0h-19.9m-9.95 0h-19.9m-9.95 0h-19.9m-9.95 0h-19.9m-9.95 0h-19.9m-9.95 0h-19.9m-9.95 0h-19.9m-9.95 0h-19.9m-9.95 0h-9.95" stroke="#000" stroke-width="2" fill="none"/><path d="M679 1121h-1.03v-2H679z"/><path d="M364.24 1120l14.26-4.64v9.28z" stroke="#000" stroke-width="2"/><use xlink:href="#r" transform="matrix(1,0,0,1,420.575,1124.0000000000002) translate(0 14.4)"/><use xlink:href="#s" transform="matrix(1,0,0,1,420.575,1124.0000000000002) translate(44.95 14.4)"/><use xlink:href="#t" transform="matrix(1,0,0,1,420.575,1124.0000000000002) translate(101.95 14.4)"/><path d="M1016 1231.07h-10.24m-10.24 0h-20.48m-10.24 0h-20.48m-10.25 0H913.6m-10.25 0h-20.48m-10.24 0h-20.48m-10.24 0h-20.47m-10.24 0h-20.5m-10.24 0h-20.48m-10.24 0H739.5" stroke="#000" stroke-width="2" fill="none"/><path d="M1017 1232.07h-1.03v-2h1.03z"/><path d="M724.24 1231.07l14.26-4.63v9.27z" stroke="#000" stroke-width="2"/><use xlink:href="#u" transform="matrix(1,0,0,1,847.05,1235.0731501057082) translate(0 14.4)"/><path d="M678 1280h-9.95m-9.95 0h-19.9m-9.95 0h-19.9m-9.95 0h-19.9m-9.95 0h-19.9m-9.95 0h-19.9m-9.95 0h-19.9m-9.95 0h-19.9m-9.95 0h-19.9m-9.95 0h-19.9m-9.95 0h-9.95" stroke="#000" stroke-width="2" fill="none"/><path d="M679 1281h-1.03v-2H679z"/><path d="M364.24 1280l14.26-4.64v9.28z" stroke="#000" stroke-width="2"/><g><use xlink:href="#v" transform="matrix(1,0,0,1,442.15,1284) translate(0 14.4)"/><use xlink:href="#w" transform="matrix(1,0,0,1,442.15,1284) translate(84.80000000000001 14.4)"/><use xlink:href="#x" transform="matrix(1,0,0,1,442.15,1284) translate(121.75000000000001 14.4)"/></g><path d="M1038 789.2v-7.87m0-7.86v-15.74m0-7.86V742" stroke="#000" stroke-width="2" fill="none"/><path d="M1039 790.2h-2v-1.03h2zM1039 742.03h-2V741h2z"/><defs><path d="M137-138c1-29-70-34-71-4 15 46 118 7 119 86 1 83-164 76-172 9l43-7c4 19 20 25 44 25 33 8 57-30 24-41C81-84 22-81 20-136c-2-80 154-74 161-7" id="y"/><path d="M88-194c31-1 46 15 58 34l-1-101h50l1 261h-48c-2-10 0-23-3-31C134-8 116 4 84 4 32 4 16-41 15-95c0-56 19-97 73-99zm17 164c33 0 40-30 41-66 1-37-9-64-41-64s-38 30-39 65c0 43 13 65 39 65" id="z"/><g id="a"><use transform="matrix(0.05,0,0,0.05,0,0)" xlink:href="#y"/><use transform="matrix(0.05,0,0,0.05,10,0)" xlink:href="#z"/><path d="M-.9.97h27.75v1.9H-.9z"/></g><path d="M205 0l-28-72H64L36 0H1l101-248h38L239 0h-34zm-38-99l-47-123c-12 45-31 82-46 123h93" id="A"/><path d="M85-194c31 0 48 13 60 33l-1-100h32l1 261h-30c-2-10 0-23-3-31C134-8 116 4 85 4 32 4 16-35 15-94c0-66 23-100 70-100zm9 24c-40 0-46 34-46 75 0 40 6 74 45 74 42 0 51-32 51-76 0-42-9-74-50-73" id="B"/><g id="b"><use transform="matrix(0.05,0,0,0.05,0,0)" xlink:href="#A"/><use transform="matrix(0.05,0,0,0.05,12,0)" xlink:href="#B"/><use transform="matrix(0.05,0,0,0.05,22,0)" xlink:href="#B"/></g><path d="M30-248c87 1 191-15 191 75 0 78-77 80-158 76V0H30v-248zm33 125c57 0 124 11 124-50 0-59-68-47-124-48v98" id="C"/><path d="M24-231v-30h32v30H24zM24 0v-190h32V0H24" id="D"/><path d="M59-47c-2 24 18 29 38 22v24C64 9 27 4 27-40v-127H5v-23h24l9-43h21v43h35v23H59v120" id="E"/><path d="M96-169c-40 0-48 33-48 73s9 75 48 75c24 0 41-14 43-38l32 2c-6 37-31 61-74 61-59 0-76-41-82-99-10-93 101-131 147-64 4 7 5 14 7 22l-32 3c-4-21-16-35-41-35" id="F"/><path d="M106-169C34-169 62-67 57 0H25v-261h32l-1 103c12-21 28-36 61-36 89 0 53 116 60 194h-32v-121c2-32-8-49-39-48" id="G"/><g id="c"><use transform="matrix(0.05,0,0,0.05,0,0)" xlink:href="#C"/><use transform="matrix(0.05,0,0,0.05,12,0)" xlink:href="#D"/><use transform="matrix(0.05,0,0,0.05,15.949999999999998,0)" xlink:href="#E"/><use transform="matrix(0.05,0,0,0.05,20.95,0)" xlink:href="#F"/><use transform="matrix(0.05,0,0,0.05,29.950000000000003,0)" xlink:href="#G"/></g><path d="M33 0v-248h34V0H33" id="H"/><path d="M117-194c89-4 53 116 60 194h-32v-121c0-31-8-49-39-48C34-167 62-67 57 0H25l-1-190h30c1 10-1 24 2 32 11-22 29-35 61-36" id="I"/><path d="M100-194c62-1 85 37 85 99 1 63-27 99-86 99S16-35 15-95c0-66 28-99 85-99zM99-20c44 1 53-31 53-75 0-43-8-75-51-75s-53 32-53 75 10 74 51 75" id="J"/><path d="M108 0H70L1-190h34L89-25l56-165h34" id="K"/><path d="M141-36C126-15 110 5 73 4 37 3 15-17 15-53c-1-64 63-63 125-63 3-35-9-54-41-54-24 1-41 7-42 31l-33-3c5-37 33-52 76-52 45 0 72 20 72 64v82c-1 20 7 32 28 27v20c-31 9-61-2-59-35zM48-53c0 20 12 33 32 33 41-3 63-29 60-74-43 2-92-5-92 41" id="L"/><path d="M114-163C36-179 61-72 57 0H25l-1-190h30c1 12-1 29 2 39 6-27 23-49 58-41v29" id="M"/><g id="d"><use transform="matrix(0.05,0,0,0.05,0,0)" xlink:href="#H"/><use transform="matrix(0.05,0,0,0.05,5,0)" xlink:href="#I"/><use transform="matrix(0.05,0,0,0.05,15,0)" xlink:href="#I"/><use transform="matrix(0.05,0,0,0.05,25,0)" xlink:href="#J"/><use transform="matrix(0.05,0,0,0.05,35,0)" xlink:href="#K"/><use transform="matrix(0.05,0,0,0.05,44,0)" xlink:href="#L"/><use transform="matrix(0.05,0,0,0.05,54,0)" xlink:href="#E"/><use transform="matrix(0.05,0,0,0.05,59,0)" xlink:href="#J"/><use transform="matrix(0.05,0,0,0.05,69,0)" xlink:href="#M"/></g><path d="M33-154v-36h34v36H33zM33 0v-36h34V0H33" id="N"/><path d="M115-194c55 1 70 41 70 98S169 2 115 4C84 4 66-9 55-30l1 105H24l-1-265h31l2 30c10-21 28-34 59-34zm-8 174c40 0 45-34 45-75s-6-73-45-74c-42 0-51 32-51 76 0 43 10 73 51 73" id="O"/><path d="M24 0v-261h32V0H24" id="P"/><path d="M179-190L93 31C79 59 56 82 12 73V49c39 6 53-20 64-50L1-190h34L92-34l54-156h33" id="Q"/><path d="M232-93c-1 65-40 97-104 97C67 4 28-28 28-90v-158h33c8 89-33 224 67 224 102 0 64-133 71-224h33v155" id="R"/><g id="e"><use transform="matrix(0.05,0,0,0.05,0,0)" xlink:href="#N"/><use transform="matrix(0.05,0,0,0.05,5,0)" xlink:href="#A"/><use transform="matrix(0.05,0,0,0.05,17,0)" xlink:href="#O"/><use transform="matrix(0.05,0,0,0.05,27,0)" xlink:href="#O"/><use transform="matrix(0.05,0,0,0.05,37,0)" xlink:href="#P"/><use transform="matrix(0.05,0,0,0.05,40.95,0)" xlink:href="#Q"/><use transform="matrix(0.05,0,0,0.05,49.95,0)" xlink:href="#R"/><use transform="matrix(0.05,0,0,0.05,62.900000000000006,0)" xlink:href="#H"/><path d="M-.9 1.25h69.7v1.32H-.9z"/></g><path d="M143 0L79-87 56-68V0H24v-261h32v163l83-92h37l-77 82L181 0h-38" id="S"/><g id="f"><use transform="matrix(0.05,0,0,0.05,0,0)" xlink:href="#F"/><use transform="matrix(0.05,0,0,0.05,9,0)" xlink:href="#P"/><use transform="matrix(0.05,0,0,0.05,12.949999999999998,0)" xlink:href="#D"/><use transform="matrix(0.05,0,0,0.05,16.9,0)" xlink:href="#F"/><use transform="matrix(0.05,0,0,0.05,25.899999999999995,0)" xlink:href="#S"/></g><path d="M135-143c-3-34-86-38-87 0 15 53 115 12 119 90S17 21 10-45l28-5c4 36 97 45 98 0-10-56-113-15-118-90-4-57 82-63 122-42 12 7 21 19 24 35" id="T"/><path d="M100-194c63 0 86 42 84 106H49c0 40 14 67 53 68 26 1 43-12 49-29l28 8c-11 28-37 45-77 45C44 4 14-33 15-96c1-61 26-98 85-98zm52 81c6-60-76-77-97-28-3 7-6 17-6 28h103" id="U"/><path d="M160-131c35 5 61 23 61 61C221 17 115-2 30 0v-248c76 3 177-17 177 60 0 33-19 50-47 57zm-97-11c50-1 110 9 110-42 0-47-63-36-110-37v79zm0 115c55-2 124 14 124-45 0-56-70-42-124-44v89" id="V"/><path d="M87 75C49 33 22-17 22-94c0-76 28-126 65-167h31c-38 41-64 92-64 168S80 34 118 75H87" id="W"/><path d="M33-261c38 41 65 92 65 168S71 34 33 75H2C39 34 66-17 66-93S39-220 2-261h31" id="X"/><g id="g"><use transform="matrix(0.05,0,0,0.05,0,0)" xlink:href="#T"/><use transform="matrix(0.05,0,0,0.05,9,0)" xlink:href="#U"/><use transform="matrix(0.05,0,0,0.05,19,0)" xlink:href="#I"/><use transform="matrix(0.05,0,0,0.05,29,0)" xlink:href="#B"/><use transform="matrix(0.05,0,0,0.05,39,0)" xlink:href="#A"/><use transform="matrix(0.05,0,0,0.05,51,0)" xlink:href="#O"/><use transform="matrix(0.05,0,0,0.05,61,0)" xlink:href="#O"/><use transform="matrix(0.05,0,0,0.05,71,0)" xlink:href="#P"/><use transform="matrix(0.05,0,0,0.05,74.95,0)" xlink:href="#D"/><use transform="matrix(0.05,0,0,0.05,78.9,0)" xlink:href="#F"/><use transform="matrix(0.05,0,0,0.05,87.9,0)" xlink:href="#L"/><use transform="matrix(0.05,0,0,0.05,97.9,0)" xlink:href="#E"/><use transform="matrix(0.05,0,0,0.05,102.9,0)" xlink:href="#D"/><use transform="matrix(0.05,0,0,0.05,106.85000000000001,0)" xlink:href="#J"/><use transform="matrix(0.05,0,0,0.05,116.85000000000001,0)" xlink:href="#I"/><use transform="matrix(0.05,0,0,0.05,126.85000000000001,0)" xlink:href="#V"/><use transform="matrix(0.05,0,0,0.05,138.85000000000002,0)" xlink:href="#E"/><use transform="matrix(0.05,0,0,0.05,143.85000000000002,0)" xlink:href="#I"/><use transform="matrix(0.05,0,0,0.05,153.85000000000002,0)" xlink:href="#W"/><use transform="matrix(0.05,0,0,0.05,159.8,0)" xlink:href="#X"/></g><g id="h"><use transform="matrix(0.05,0,0,0.05,0,0)" xlink:href="#O"/><use transform="matrix(0.05,0,0,0.05,10,0)" xlink:href="#D"/><use transform="matrix(0.05,0,0,0.05,13.949999999999998,0)" xlink:href="#E"/><use transform="matrix(0.05,0,0,0.05,18.95,0)" xlink:href="#F"/><use transform="matrix(0.05,0,0,0.05,27.950000000000003,0)" xlink:href="#G"/><use transform="matrix(0.05,0,0,0.05,37.95,0)" xlink:href="#N"/><use transform="matrix(0.05,0,0,0.05,42.95,0)" xlink:href="#C"/><use transform="matrix(0.05,0,0,0.05,54.95,0)" xlink:href="#D"/><use transform="matrix(0.05,0,0,0.05,58.900000000000006,0)" xlink:href="#E"/><use transform="matrix(0.05,0,0,0.05,63.900000000000006,0)" xlink:href="#F"/><use transform="matrix(0.05,0,0,0.05,72.9,0)" xlink:href="#G"/><path d="M-.9 1.25h84.7v1.32H-.9z"/></g><g id="i"><use transform="matrix(0.05,0,0,0.05,0,0)" xlink:href="#L"/><use transform="matrix(0.05,0,0,0.05,10,0)" xlink:href="#B"/><use transform="matrix(0.05,0,0,0.05,20,0)" xlink:href="#B"/><use transform="matrix(0.05,0,0,0.05,30,0)" xlink:href="#C"/><use transform="matrix(0.05,0,0,0.05,42,0)" xlink:href="#D"/><use transform="matrix(0.05,0,0,0.05,45.95,0)" xlink:href="#E"/><use transform="matrix(0.05,0,0,0.05,50.95,0)" xlink:href="#F"/><use transform="matrix(0.05,0,0,0.05,59.95,0)" xlink:href="#G"/><use transform="matrix(0.05,0,0,0.05,69.95,0)" xlink:href="#W"/><use transform="matrix(0.05,0,0,0.05,75.9,0)" xlink:href="#X"/></g><path d="M212-179c-10-28-35-45-73-45-59 0-87 40-87 99 0 60 29 101 89 101 43 0 62-24 78-52l27 14C228-24 195 4 139 4 59 4 22-46 18-125c-6-104 99-153 187-111 19 9 31 26 39 46" id="Y"/><g id="j"><use transform="matrix(0.05,0,0,0.05,0,0)" xlink:href="#N"/><use transform="matrix(0.05,0,0,0.05,5,0)" xlink:href="#Y"/><use transform="matrix(0.05,0,0,0.05,17.950000000000003,0)" xlink:href="#J"/><use transform="matrix(0.05,0,0,0.05,27.950000000000003,0)" xlink:href="#O"/><use transform="matrix(0.05,0,0,0.05,37.95,0)" xlink:href="#Q"/><path d="M-.9 1.25h48.75v1.32H-.9z"/></g><path d="M177-190C167-65 218 103 67 71c-23-6-38-20-44-43l32-5c15 47 100 32 89-28v-30C133-14 115 1 83 1 29 1 15-40 15-95c0-56 16-97 71-98 29-1 48 16 59 35 1-10 0-23 2-32h30zM94-22c36 0 50-32 50-73 0-42-14-75-50-75-39 0-46 34-46 75s6 73 46 73" id="Z"/><path d="M210-169c-67 3-38 105-44 169h-31v-121c0-29-5-50-35-48C34-165 62-65 56 0H25l-1-190h30c1 10-1 24 2 32 10-44 99-50 107 0 11-21 27-35 58-36 85-2 47 119 55 194h-31v-121c0-29-5-49-35-48" id="aa"/><g id="k"><use transform="matrix(0.05,0,0,0.05,0,0)" xlink:href="#Y"/><use transform="matrix(0.05,0,0,0.05,12.950000000000001,0)" xlink:href="#G"/><use transform="matrix(0.05,0,0,0.05,22.950000000000003,0)" xlink:href="#U"/><use transform="matrix(0.05,0,0,0.05,32.95,0)" xlink:href="#F"/><use transform="matrix(0.05,0,0,0.05,41.95,0)" xlink:href="#S"/><use transform="matrix(0.05,0,0,0.05,50.95,0)" xlink:href="#C"/><use transform="matrix(0.05,0,0,0.05,62.95,0)" xlink:href="#P"/><use transform="matrix(0.05,0,0,0.05,66.9,0)" xlink:href="#L"/><use transform="matrix(0.05,0,0,0.05,76.9,0)" xlink:href="#Z"/><use transform="matrix(0.05,0,0,0.05,86.9,0)" xlink:href="#D"/><use transform="matrix(0.05,0,0,0.05,90.85000000000001,0)" xlink:href="#M"/><use transform="matrix(0.05,0,0,0.05,96.80000000000001,0)" xlink:href="#D"/><use transform="matrix(0.05,0,0,0.05,100.75000000000001,0)" xlink:href="#T"/><use transform="matrix(0.05,0,0,0.05,109.75,0)" xlink:href="#aa"/><use transform="matrix(0.05,0,0,0.05,124.7,0)" xlink:href="#W"/><use transform="matrix(0.05,0,0,0.05,130.65,0)" xlink:href="#O"/><use transform="matrix(0.05,0,0,0.05,140.65,0)" xlink:href="#D"/><use transform="matrix(0.05,0,0,0.05,144.6,0)" xlink:href="#E"/><use transform="matrix(0.05,0,0,0.05,149.6,0)" xlink:href="#F"/><use transform="matrix(0.05,0,0,0.05,158.6,0)" xlink:href="#G"/><use transform="matrix(0.05,0,0,0.05,168.6,0)" xlink:href="#X"/></g><g id="l"><use transform="matrix(0.05,0,0,0.05,0,0)" xlink:href="#A"/><use transform="matrix(0.05,0,0,0.05,12,0)" xlink:href="#P"/><use transform="matrix(0.05,0,0,0.05,15.949999999999998,0)" xlink:href="#E"/><use transform="matrix(0.05,0,0,0.05,20.95,0)" xlink:href="#U"/><use transform="matrix(0.05,0,0,0.05,30.950000000000003,0)" xlink:href="#M"/><use transform="matrix(0.05,0,0,0.05,36.9,0)" xlink:href="#I"/><use transform="matrix(0.05,0,0,0.05,46.9,0)" xlink:href="#L"/><use transform="matrix(0.05,0,0,0.05,56.900000000000006,0)" xlink:href="#E"/><use transform="matrix(0.05,0,0,0.05,61.900000000000006,0)" xlink:href="#D"/><use transform="matrix(0.05,0,0,0.05,65.85,0)" xlink:href="#K"/><use transform="matrix(0.05,0,0,0.05,74.85,0)" xlink:href="#U"/></g><path d="M26 75v-336h71v23H56V52h41v23H26" id="ab"/><path d="M18-100v-36l175-74v27L42-118l151 64v27" id="ac"/><path d="M18-150v-26h174v26H18zm0 90v-26h174v26H18" id="ad"/><path d="M126-127c33 6 58 20 58 59 0 88-139 92-164 29-3-8-5-16-6-25l32-3c6 27 21 44 54 44 32 0 52-15 52-46 0-38-36-46-79-43v-28c39 1 72-4 72-42 0-27-17-43-46-43-28 0-47 15-49 41l-32-3c6-42 35-63 81-64 48-1 79 21 79 65 0 36-21 52-52 59" id="ae"/><path d="M101-251c68 0 85 55 85 127S166 4 100 4C33 4 14-52 14-124c0-73 17-127 87-127zm-1 229c47 0 54-49 54-102s-4-102-53-102c-51 0-55 48-55 102 0 53 5 102 54 102" id="af"/><path d="M252-156c43 0 55 33 55 80 0 46-13 78-56 78-42 0-55-33-55-78 0-48 12-80 56-80zM93 0H65l162-248h28zM13-171c-1-47 13-79 56-79s55 33 55 79-13 79-55 79c-43 0-56-33-56-79zM251-17c28 0 30-29 30-59 0-31-1-60-29-60-29 0-31 29-31 60 0 29 2 59 30 59zM69-112c27 0 28-30 29-59 0-31-1-60-29-60-29 0-30 30-30 60s2 59 30 59" id="ag"/><path d="M3 75V52h41v-290H3v-23h71V75H3" id="ah"/><g id="m"><use transform="matrix(0.05,0,0,0.05,0,0)" xlink:href="#ab"/><use transform="matrix(0.05,0,0,0.05,5,0)" xlink:href="#O"/><use transform="matrix(0.05,0,0,0.05,15,0)" xlink:href="#P"/><use transform="matrix(0.05,0,0,0.05,18.95,0)" xlink:href="#L"/><use transform="matrix(0.05,0,0,0.05,28.950000000000003,0)" xlink:href="#Z"/><use transform="matrix(0.05,0,0,0.05,38.95,0)" xlink:href="#D"/><use transform="matrix(0.05,0,0,0.05,42.900000000000006,0)" xlink:href="#M"/><use transform="matrix(0.05,0,0,0.05,48.85000000000001,0)" xlink:href="#D"/><use transform="matrix(0.05,0,0,0.05,52.80000000000001,0)" xlink:href="#T"/><use transform="matrix(0.05,0,0,0.05,61.80000000000001,0)" xlink:href="#aa"/><use transform="matrix(0.05,0,0,0.05,76.75000000000001,0)" xlink:href="#ac"/><use transform="matrix(0.05,0,0,0.05,87.25000000000001,0)" xlink:href="#ad"/><use transform="matrix(0.05,0,0,0.05,97.75000000000001,0)" xlink:href="#ae"/><use transform="matrix(0.05,0,0,0.05,107.75,0)" xlink:href="#af"/><use transform="matrix(0.05,0,0,0.05,117.75,0)" xlink:href="#ag"/><use transform="matrix(0.05,0,0,0.05,133.75,0)" xlink:href="#ah"/></g><path d="M30 0v-248h187v28H63v79h144v27H63v87h162V0H30" id="ai"/><g id="n"><use transform="matrix(0.05,0,0,0.05,0,0)" xlink:href="#ab"/><use transform="matrix(0.05,0,0,0.05,5,0)" xlink:href="#ai"/><use transform="matrix(0.05,0,0,0.05,17,0)" xlink:href="#P"/><use transform="matrix(0.05,0,0,0.05,20.95,0)" xlink:href="#T"/><use transform="matrix(0.05,0,0,0.05,29.950000000000003,0)" xlink:href="#U"/><use transform="matrix(0.05,0,0,0.05,39.95,0)" xlink:href="#ah"/></g><g id="o"><use transform="matrix(0.05,0,0,0.05,0,0)" xlink:href="#C"/><use transform="matrix(0.05,0,0,0.05,12,0)" xlink:href="#P"/><use transform="matrix(0.05,0,0,0.05,15.949999999999998,0)" xlink:href="#L"/><use transform="matrix(0.05,0,0,0.05,25.950000000000003,0)" xlink:href="#Z"/><use transform="matrix(0.05,0,0,0.05,35.95,0)" xlink:href="#U"/><use transform="matrix(0.05,0,0,0.05,45.95,0)" xlink:href="#M"/><use transform="matrix(0.05,0,0,0.05,51.900000000000006,0)" xlink:href="#D"/><use transform="matrix(0.05,0,0,0.05,55.85,0)" xlink:href="#T"/><use transform="matrix(0.05,0,0,0.05,64.85000000000001,0)" xlink:href="#D"/><use transform="matrix(0.05,0,0,0.05,68.80000000000001,0)" xlink:href="#aa"/></g><g id="p"><use transform="matrix(0.05,0,0,0.05,0,0)" xlink:href="#O"/><use transform="matrix(0.05,0,0,0.05,10,0)" xlink:href="#U"/><use transform="matrix(0.05,0,0,0.05,20,0)" xlink:href="#M"/><use transform="matrix(0.05,0,0,0.05,25.950000000000003,0)" xlink:href="#F"/><use transform="matrix(0.05,0,0,0.05,34.95,0)" xlink:href="#U"/><use transform="matrix(0.05,0,0,0.05,44.95,0)" xlink:href="#I"/><use transform="matrix(0.05,0,0,0.05,54.95,0)" xlink:href="#E"/></g><path d="M127-220V0H93v-220H8v-28h204v28h-85" id="aj"/><path d="M84 4C-5 8 30-112 23-190h32v120c0 31 7 50 39 49 72-2 45-101 50-169h31l1 190h-30c-1-10 1-25-2-33-11 22-28 36-60 37" id="ak"/><g id="q"><use transform="matrix(0.05,0,0,0.05,0,0)" xlink:href="#aj"/><use transform="matrix(0.05,0,0,0.05,10.3,0)" xlink:href="#M"/><use transform="matrix(0.05,0,0,0.05,16.25,0)" xlink:href="#ak"/><use transform="matrix(0.05,0,0,0.05,26.25,0)" xlink:href="#U"/></g><g id="r"><use transform="matrix(0.05,0,0,0.05,0,0)" xlink:href="#C"/><use transform="matrix(0.05,0,0,0.05,12,0)" xlink:href="#D"/><use transform="matrix(0.05,0,0,0.05,15.949999999999998,0)" xlink:href="#E"/><use transform="matrix(0.05,0,0,0.05,20.95,0)" xlink:href="#F"/><use transform="matrix(0.05,0,0,0.05,29.950000000000003,0)" xlink:href="#G"/></g><g id="s"><use transform="matrix(0.05,0,0,0.05,0,0)" xlink:href="#A"/><use transform="matrix(0.05,0,0,0.05,12,0)" xlink:href="#B"/><use transform="matrix(0.05,0,0,0.05,22,0)" xlink:href="#B"/><use transform="matrix(0.05,0,0,0.05,32,0)" xlink:href="#U"/><use transform="matrix(0.05,0,0,0.05,42,0)" xlink:href="#B"/></g><path d="M101-234c-31-9-42 10-38 44h38v23H63V0H32v-167H5v-23h27c-7-52 17-82 69-68v24" id="al"/><g id="t"><use transform="matrix(0.05,0,0,0.05,0,0)" xlink:href="#T"/><use transform="matrix(0.05,0,0,0.05,9,0)" xlink:href="#ak"/><use transform="matrix(0.05,0,0,0.05,19,0)" xlink:href="#F"/><use transform="matrix(0.05,0,0,0.05,28,0)" xlink:href="#F"/><use transform="matrix(0.05,0,0,0.05,37,0)" xlink:href="#U"/><use transform="matrix(0.05,0,0,0.05,47,0)" xlink:href="#T"/><use transform="matrix(0.05,0,0,0.05,56,0)" xlink:href="#T"/><use transform="matrix(0.05,0,0,0.05,65,0)" xlink:href="#al"/><use transform="matrix(0.05,0,0,0.05,70,0)" xlink:href="#ak"/><use transform="matrix(0.05,0,0,0.05,80,0)" xlink:href="#P"/><use transform="matrix(0.05,0,0,0.05,83.95,0)" xlink:href="#P"/><use transform="matrix(0.05,0,0,0.05,87.9,0)" xlink:href="#Q"/></g><path d="M63-220v92h138v28H63V0H30v-248h175v28H63" id="am"/><g id="u"><use transform="matrix(0.05,0,0,0.05,0,0)" xlink:href="#am"/><use transform="matrix(0.05,0,0,0.05,10.950000000000001,0)" xlink:href="#L"/><use transform="matrix(0.05,0,0,0.05,20.950000000000003,0)" xlink:href="#P"/><use transform="matrix(0.05,0,0,0.05,24.900000000000002,0)" xlink:href="#T"/><use transform="matrix(0.05,0,0,0.05,33.900000000000006,0)" xlink:href="#U"/></g><g id="v"><use transform="matrix(0.05,0,0,0.05,0,0)" xlink:href="#C"/><use transform="matrix(0.05,0,0,0.05,12,0)" xlink:href="#P"/><use transform="matrix(0.05,0,0,0.05,15.949999999999998,0)" xlink:href="#L"/><use transform="matrix(0.05,0,0,0.05,25.950000000000003,0)" xlink:href="#Z"/><use transform="matrix(0.05,0,0,0.05,35.95,0)" xlink:href="#U"/><use transform="matrix(0.05,0,0,0.05,45.95,0)" xlink:href="#M"/><use transform="matrix(0.05,0,0,0.05,51.900000000000006,0)" xlink:href="#D"/><use transform="matrix(0.05,0,0,0.05,55.85,0)" xlink:href="#T"/><use transform="matrix(0.05,0,0,0.05,64.85000000000001,0)" xlink:href="#aa"/></g><path d="M206 0h-36l-40-164L89 0H53L-1-190h32L70-26l43-164h34l41 164 42-164h31" id="an"/><g id="w"><use transform="matrix(0.05,0,0,0.05,0,0)" xlink:href="#an"/><use transform="matrix(0.05,0,0,0.05,12.950000000000001,0)" xlink:href="#L"/><use transform="matrix(0.05,0,0,0.05,22.950000000000003,0)" xlink:href="#T"/></g><g id="x"><use transform="matrix(0.05,0,0,0.05,0,0)" xlink:href="#G"/><use transform="matrix(0.05,0,0,0.05,10,0)" xlink:href="#D"/><use transform="matrix(0.05,0,0,0.05,13.949999999999998,0)" xlink:href="#Z"/><use transform="matrix(0.05,0,0,0.05,23.95,0)" xlink:href="#G"/></g></defs></g></svg>