<svg xmlns="http://www.w3.org/2000/svg" xmlns:xlink="http://www.w3.org/1999/xlink" xmlns:lucid="lucid" width="1356.68" height="1220"><g transform="translate(-223.32160756015662 -59.99999999999997)" lucid:page-tab-id="kzWN5GlmklKp"><path d="M0 0h1870.4v1323.2H0z" fill="#fff"/><path d="M732.8 110.1c0-2.76 2.23-5 5-5h379.75c2.76 0 5 2.24 5 5v90.43c0 2.76-2.24 5-5 5H737.8c-2.77 0-5-2.24-5-5z" fill="none"/><use xlink:href="#a" transform="matrix(1,0,0,1,732.7944416517913,105.10638297872339) translate(47.65432098765433 54.94444444444444)"/><use xlink:href="#b" transform="matrix(1,0,0,1,732.7944416517913,105.10638297872339) translate(141.35802469135803 54.94444444444444)"/><use xlink:href="#c" transform="matrix(1,0,0,1,732.7944416517913,105.10638297872339) translate(224.01234567901236 54.94444444444444)"/><path d="M243.32 270.64v-35c0-2.76 2.24-5 5-5H641.8v40z" fill="#fff"/><path d="M243.32 270.64V1255c0 2.76 2.24 5 5 5H641.8V270.64z" fill="none"/><path d="M641.8 270.64v-40h324.83v40z" fill="#fff"/><path d="M641.8 270.64V1260h324.83V270.64z" fill="none"/><path d="M641.8 230.64V1260" stroke="#666" fill="none"/><path d="M966.63 230.64H1555c2.76 0 5 2.24 5 5v35H966.63z" fill="#fff"/><path d="M1560 270.64V1255c0 2.76-2.24 5-5 5H966.63V270.64z" fill="none"/><path d="M966.63 230.64V1260M243.32 270.64H1560M243.32 270.64v-35c0-2.76 2.24-5 5-5H641.8m0 0h324.83m0 0H1555c2.76 0 5 2.24 5 5v35m0 0V1255c0 2.76-2.24 5-5 5H966.63m-324.83 0h324.83m-723.3-989.36V1255c0 2.76 2.23 5 5 5H641.8" stroke="#666" fill="none"/><use xlink:href="#d" transform="matrix(1,0,0,1,243.32160756015662,230.63829787234067) translate(160.025 23.6)"/><use xlink:href="#e" transform="matrix(1,0,0,1,641.7960824724355,230.63829787234067) translate(127.57499999999999 23.6)"/><use xlink:href="#f" transform="matrix(1,0,0,1,966.6269841069887,230.63829787234067) translate(271.05 23.6)"/><path d="M415 305.96c-11.08 0-20.08 9-20.08 20.08v60.26c0 11.1 9 20.08 20.1 20.08h167.7c11.1 0 20.1-9 20.1-20.08v-60.26c0-11.1-9-20.08-20.1-20.08z" stroke="#666" stroke-width="2" fill="#fff"/><use xlink:href="#g" transform="matrix(1,0,0,1,402.924597230175,313.9574468085107) translate(21.14999999999999 35.3)"/><use xlink:href="#h" transform="matrix(1,0,0,1,402.924597230175,313.9574468085107) translate(71.1 35.3)"/><use xlink:href="#i" transform="matrix(1,0,0,1,402.924597230175,313.9574468085107) translate(148.95 35.3)"/><use xlink:href="#j" transform="matrix(1,0,0,1,402.924597230175,313.9574468085107) translate(47.15 56.9)"/><path d="M1122.55 1084.26c0 13.86-11.64 25.1-26 25.1-14.34 0-25.98-11.24-25.98-25.1 0-13.87 11.64-25.1 26-25.1 14.34 0 25.98 11.23 25.98 25.1z" stroke="#000" stroke-width="2" fill="#fff"/><path d="M1112.15 1084.26c0 8.3-6.98 15.06-15.6 15.06-8.6 0-15.58-6.75-15.58-15.06 0-8.32 6.98-15.07 15.6-15.07 8.6 0 15.58 6.74 15.58 15.06z" stroke="#000" stroke-width="2"/><path d="M1226.5 80h294.47v122.53H1226.5z" stroke="#000" stroke-opacity="0" stroke-width="2" fill="#fff" fill-opacity="0"/><use xlink:href="#k" transform="matrix(1,0,0,1,1231.4917054146313,84.99999999999997) translate(88.20679012345678 40.69444444444444)"/><use xlink:href="#l" transform="matrix(1,0,0,1,1231.4917054146313,84.99999999999997) translate(50.20370370370371 59.361111111111114)"/><use xlink:href="#m" transform="matrix(1,0,0,1,1231.4917054146313,84.99999999999997) translate(102.01234567901236 59.361111111111114)"/><use xlink:href="#n" transform="matrix(1,0,0,1,1231.4917054146313,84.99999999999997) translate(160.73456790123458 59.361111111111114)"/><use xlink:href="#o" transform="matrix(1,0,0,1,1231.4917054146313,84.99999999999997) translate(221.01234567901236 59.361111111111114)"/><use xlink:href="#p" transform="matrix(1,0,0,1,1231.4917054146313,84.99999999999997) translate(26.524691358024697 78.02777777777779)"/><use xlink:href="#q" transform="matrix(1,0,0,1,1231.4917054146313,84.99999999999997) translate(114.4567901234568 78.02777777777779)"/><use xlink:href="#r" transform="matrix(1,0,0,1,1231.4917054146313,84.99999999999997) translate(145.5246913580247 78.02777777777779)"/><use xlink:href="#s" transform="matrix(1,0,0,1,1231.4917054146313,84.99999999999997) translate(204.98148148148147 78.02777777777779)"/><use xlink:href="#t" transform="matrix(1,0,0,1,1231.4917054146313,84.99999999999997) translate(227.4074074074074 78.02777777777779)"/><path d="M726.85 732.77c-11.1 0-20.1 9-20.1 20.08v60.26c0 11.1 9 20.1 20.1 20.1h167.72c11.1 0 20.08-9 20.08-20.1v-60.25c0-11.1-9-20.08-20.08-20.08z" stroke="#000" stroke-width="2" fill="#fff"/><use xlink:href="#u" transform="matrix(1,0,0,1,714.7622627993461,740.7659574468087) translate(21.14999999999999 35.3)"/><use xlink:href="#v" transform="matrix(1,0,0,1,714.7622627993461,740.7659574468087) translate(71.1 35.3)"/><use xlink:href="#w" transform="matrix(1,0,0,1,714.7622627993461,740.7659574468087) translate(148.95 35.3)"/><use xlink:href="#x" transform="matrix(1,0,0,1,714.7622627993461,740.7659574468087) translate(48.62499999999999 56.9)"/><path d="M1298.55 921.06c-11.1 0-20.1 9-20.1 20.1v60.24c0 11.1 9 20.1 20.1 20.1h167.72c11.1 0 20.1-9 20.1-20.1v-60.25c0-11.1-9-20.1-20.1-20.1z" stroke="#000" stroke-width="2" fill="#fff"/><use xlink:href="#y" transform="matrix(1,0,0,1,1286.46464967616,929.0638297872342) translate(17.674999999999997 35.3)"/><use xlink:href="#z" transform="matrix(1,0,0,1,1286.46464967616,929.0638297872342) translate(73.475 35.3)"/><use xlink:href="#A" transform="matrix(1,0,0,1,1286.46464967616,929.0638297872342) translate(157.425 35.3)"/><use xlink:href="#B" transform="matrix(1,0,0,1,1286.46464967616,929.0638297872342) translate(66.55 56.9)"/><path d="M968.97 972.28h-80.7v-2h80.7zm306.68 0h-132.23v-2h132.23z"/><path d="M888.3 972.28h-1l-.07-2h1.07zM1277.46 971.28l-18.67 11.04-1.02-1.72 15.76-9.32-15.76-9.32 1-1.73z"/><use xlink:href="#C" transform="matrix(1,0,0,1,968.9731402331739,960.4765957446809) translate(0 14.4)"/><use xlink:href="#D" transform="matrix(1,0,0,1,968.9731402331739,960.4765957446809) translate(70.80000000000001 14.4)"/><path d="M810.7 835.2v48.2l.05 24.14" stroke="#000" stroke-width="2" fill="none"/><path d="M811.7 835.22h-2v-1.03h2z"/><path d="M800.54 890.2l10.2 17.2 10.16-17.24" stroke="#000" stroke-width="2" fill="none"/><path d="M1067.75 1083.26v2H911.3v-2zm-256-49.06l-.03 39.26h-2l.03-39.26z"/><path d="M811.75 1034.23h-2v-1.17l.87.16 1.13-.17zM1069.57 1084.26l-18.67 11.04-1.02-1.72 15.76-9.32-15.76-9.32 1.02-1.73z"/><use xlink:href="#E" transform="matrix(1,0,0,1,742.8008040861894,1073.455319148936) translate(0 14.4)"/><use xlink:href="#D" transform="matrix(1,0,0,1,742.8008040861894,1073.455319148936) translate(64.85000000000001 14.4)"/><path d="M1382.4 1023.5v60.76h-257.04" stroke="#000" stroke-width="2" fill="none"/><path d="M1383.4 1023.52h-2v-1.03h2z"/><path d="M1142.73 1074.07l-17.22 10.2 17.23 10.17M498.87 408.38v72.35" stroke="#000" stroke-width="2" fill="none"/><path d="M499.87 408.4h-2v-1.02h2z"/><path d="M488.7 463.37l10.17 17.2 10.18-17.2" stroke="#000" stroke-width="2" fill="none"/><path d="M499.87 656.45h250.96v2H497.87V607.4h2zm593.87 0v2h-174.4v-2z"/><path d="M499.87 607.42h-2v-1.17l.87.16 1.13-.15zM1095.56 657.45l-18.67 11.04-1.03-1.73 15.76-9.32-15.76-9.32 1.02-1.72z"/><g><use xlink:href="#E" transform="matrix(1,0,0,1,750.8343745540401,646.6468085106385) translate(0 14.4)"/><use xlink:href="#D" transform="matrix(1,0,0,1,750.8343745540401,646.6468085106385) translate(64.85000000000001 14.4)"/></g><path d="M1357.42 604.42h-2v-58.95h-341.3v-2h343.3zM576.4 545.47v-2h263.27v2z"/><path d="M576.4 545.47h-.97l-.08-2h1.06zM1367.47 587.56l-11.05 18.67-11.04-18.67 1.72-1 9.32 15.75 9.32-15.75z"/><g><use xlink:href="#C" transform="matrix(1,0,0,1,839.6717975218274,533.668085106383) translate(0 14.4)"/><use xlink:href="#D" transform="matrix(1,0,0,1,839.6717975218274,533.668085106383) translate(70.80000000000001 14.4)"/></g><path d="M1368.94 709.66l.06 73.32H917.47" stroke="#000" stroke-width="2" fill="none"/><path d="M1369.94 709.68h-2v-1.02h2z"/><path d="M934.83 772.8l-17.2 10.18 17.2 10.18" stroke="#000" stroke-width="2" fill="none"/><path d="M1272.56 607.23c-11.1 0-20.08 9-20.08 20.1v60.24c0 11.1 9 20.1 20.08 20.1h167.72c11.1 0 20.1-9 20.1-20.1v-60.25c0-11.1-9-20.1-20.1-20.1z" stroke="#000" stroke-width="2" fill="#fff"/><g><use xlink:href="#F" transform="matrix(1,0,0,1,1260.4781775453953,615.2340425531917) translate(13.774999999999991 35.3)"/><use xlink:href="#G" transform="matrix(1,0,0,1,1260.4781775453953,615.2340425531917) translate(69.57499999999999 35.3)"/><use xlink:href="#H" transform="matrix(1,0,0,1,1260.4781775453953,615.2340425531917) translate(161.325 35.3)"/><use xlink:href="#I" transform="matrix(1,0,0,1,1260.4781775453953,615.2340425531917) translate(47.15 56.9)"/></g><path d="M295.66 356.17h96.45" stroke="#000" stroke-width="2" fill="none"/><path d="M296 356.17c0 8.28-6.72 15-15 15-8.3 0-15-6.72-15-15 0-8.28 6.7-15 15-15 8.28 0 15 6.72 15 15z" stroke="#000" stroke-width="2"/><path d="M374.75 366.35l17.2-10.18-17.2-10.18" stroke="#000" stroke-width="2" fill="none"/><path d="M494.98 484.84c2.15-1.73 5.63-1.73 7.8 0l70.16 56.5c2.15 1.72 2.15 4.53 0 6.26l-70.17 56.5c-2.16 1.73-5.64 1.73-7.8 0l-70.16-56.5c-2.15-1.73-2.15-4.54 0-6.27z" stroke="#666" stroke-width="2" fill="#fff"/><path d="M1148.53 657.45c0 13.86-11.63 25.1-25.98 25.1-14.36 0-26-11.24-26-25.1 0-13.87 11.64-25.1 26-25.1 14.35 0 25.98 11.23 25.98 25.1z" stroke="#000" stroke-width="2" fill="#fff"/><path d="M1138.14 657.45c0 8.32-6.98 15.06-15.6 15.06-8.6 0-15.6-6.73-15.6-15.05s7-15.07 15.6-15.07c8.62 0 15.6 6.75 15.6 15.07z" stroke="#000" stroke-width="2"/><path d="M806.86 911.65c2.15-1.74 5.64-1.74 7.8 0l70.16 56.5c2.15 1.72 2.15 4.53 0 6.26l-70.17 56.5c-2.15 1.74-5.64 1.74-7.8 0l-70.16-56.5c-2.16-1.72-2.16-4.53 0-6.26z" stroke="#666" stroke-width="2" fill="#fff"/><defs><path fill="#333" d="M24 0v-248h195v40H76v63h132v40H76v65h150V0H24" id="J"/><path fill="#333" d="M144 0l-44-69L55 0H2l70-98-66-92h53l41 62 40-62h54l-67 91 71 99h-54" id="K"/><path fill="#333" d="M115-3C79 11 28 4 28-45v-112H4v-33h27l15-45h31v45h36v33H77v99c-1 23 16 31 38 25v30" id="L"/><path fill="#333" d="M185-48c-13 30-37 53-82 52C43 2 14-33 14-96s30-98 90-98c62 0 83 45 84 108H66c0 31 8 55 39 56 18 0 30-7 34-22zm-45-69c5-46-57-63-70-21-2 6-4 13-4 21h74" id="M"/><path fill="#333" d="M135-150c-39-12-60 13-60 57V0H25l-1-190h47c2 13-1 29 3 40 6-28 27-53 61-41v41" id="N"/><path fill="#333" d="M135-194c87-1 58 113 63 194h-50c-7-57 23-157-34-157-59 0-34 97-39 157H25l-1-190h47c2 12-1 28 3 38 12-26 28-41 61-42" id="O"/><path fill="#333" d="M133-34C117-15 103 5 69 4 32 3 11-16 11-54c-1-60 55-63 116-61 1-26-3-47-28-47-18 1-26 9-28 27l-52-2c7-38 36-58 82-57s74 22 75 68l1 82c-1 14 12 18 25 15v27c-30 8-71 5-69-32zm-48 3c29 0 43-24 42-57-32 0-66-3-65 30 0 17 8 27 23 27" id="P"/><path fill="#333" d="M25 0v-261h50V0H25" id="Q"/><g id="a"><use transform="matrix(0.06172839506172839,0,0,0.06172839506172839,0,0)" xlink:href="#J"/><use transform="matrix(0.06172839506172839,0,0,0.06172839506172839,14.814814814814813,0)" xlink:href="#K"/><use transform="matrix(0.06172839506172839,0,0,0.06172839506172839,27.160493827160494,0)" xlink:href="#L"/><use transform="matrix(0.06172839506172839,0,0,0.06172839506172839,34.50617283950617,0)" xlink:href="#M"/><use transform="matrix(0.06172839506172839,0,0,0.06172839506172839,46.85185185185185,0)" xlink:href="#N"/><use transform="matrix(0.06172839506172839,0,0,0.06172839506172839,55.49382716049382,0)" xlink:href="#O"/><use transform="matrix(0.06172839506172839,0,0,0.06172839506172839,69.01234567901234,0)" xlink:href="#P"/><use transform="matrix(0.06172839506172839,0,0,0.06172839506172839,81.35802469135803,0)" xlink:href="#Q"/></g><path fill="#333" d="M240-174c0 40-23 61-54 70L253 0h-59l-57-94H76V0H24v-248c93 4 217-23 216 74zM76-134c48-2 112 12 112-38 0-48-66-32-112-35v73" id="R"/><path fill="#333" d="M128 0H69L1-190h53L99-40l48-150h52" id="S"/><path fill="#333" d="M25-224v-37h50v37H25zM25 0v-190h50V0H25" id="T"/><path fill="#333" d="M231 0h-52l-39-155L100 0H48L-1-190h46L77-45c9-52 24-97 36-145h53l37 145 32-145h46" id="U"/><g id="b"><use transform="matrix(0.06172839506172839,0,0,0.06172839506172839,0,0)" xlink:href="#R"/><use transform="matrix(0.06172839506172839,0,0,0.06172839506172839,15.987654320987653,0)" xlink:href="#M"/><use transform="matrix(0.06172839506172839,0,0,0.06172839506172839,28.333333333333332,0)" xlink:href="#S"/><use transform="matrix(0.06172839506172839,0,0,0.06172839506172839,40.67901234567901,0)" xlink:href="#T"/><use transform="matrix(0.06172839506172839,0,0,0.06172839506172839,46.851851851851855,0)" xlink:href="#M"/><use transform="matrix(0.06172839506172839,0,0,0.06172839506172839,59.19753086419753,0)" xlink:href="#U"/></g><path fill="#333" d="M169-182c-1-43-94-46-97-3 18 66 151 10 154 114 3 95-165 93-204 36-6-8-10-19-12-30l50-8c3 46 112 56 116 5-17-69-150-10-154-114-4-87 153-88 188-35 5 8 8 18 10 28" id="V"/><path fill="#333" d="M85 4C-2 5 27-109 22-190h50c7 57-23 150 33 157 60-5 35-97 40-157h50l1 190h-47c-2-12 1-28-3-38-12 25-28 42-61 42" id="W"/><path fill="#333" d="M135-194c52 0 70 43 70 98 0 56-19 99-73 100-30 1-46-15-58-35L72 0H24l1-261h50v104c11-23 29-37 60-37zM114-30c31 0 40-27 40-66 0-37-7-63-39-63s-41 28-41 65c0 36 8 64 40 64" id="X"/><path fill="#333" d="M137-138c1-29-70-34-71-4 15 46 118 7 119 86 1 83-164 76-172 9l43-7c4 19 20 25 44 25 33 8 57-30 24-41C81-84 22-81 20-136c-2-80 154-74 161-7" id="Y"/><path fill="#333" d="M123 10C108 53 80 86 19 72V37c35 8 53-11 59-39L3-190h52l48 148c12-52 28-100 44-148h51" id="Z"/><path fill="#333" d="M220-157c-53 9-28 100-34 157h-49v-107c1-27-5-49-29-50C55-147 81-57 75 0H25l-1-190h47c2 12-1 28 3 38 10-53 101-56 108 0 13-22 24-43 59-42 82 1 51 116 57 194h-49v-107c-1-25-5-48-29-50" id="aa"/><g id="c"><use transform="matrix(0.06172839506172839,0,0,0.06172839506172839,0,0)" xlink:href="#V"/><use transform="matrix(0.06172839506172839,0,0,0.06172839506172839,14.814814814814813,0)" xlink:href="#W"/><use transform="matrix(0.06172839506172839,0,0,0.06172839506172839,28.33333333333333,0)" xlink:href="#X"/><use transform="matrix(0.06172839506172839,0,0,0.06172839506172839,41.85185185185185,0)" xlink:href="#Y"/><use transform="matrix(0.06172839506172839,0,0,0.06172839506172839,54.197530864197525,0)" xlink:href="#Z"/><use transform="matrix(0.06172839506172839,0,0,0.06172839506172839,66.5432098765432,0)" xlink:href="#Y"/><use transform="matrix(0.06172839506172839,0,0,0.06172839506172839,78.88888888888889,0)" xlink:href="#L"/><use transform="matrix(0.06172839506172839,0,0,0.06172839506172839,86.23456790123457,0)" xlink:href="#M"/><use transform="matrix(0.06172839506172839,0,0,0.06172839506172839,98.58024691358025,0)" xlink:href="#aa"/></g><path fill="#666" d="M240-174c0 40-23 61-54 70L253 0h-59l-57-94H76V0H24v-248c93 4 217-23 216 74zM76-134c48-2 112 12 112-38 0-48-66-32-112-35v73" id="ab"/><path fill="#666" d="M185-48c-13 30-37 53-82 52C43 2 14-33 14-96s30-98 90-98c62 0 83 45 84 108H66c0 31 8 55 39 56 18 0 30-7 34-22zm-45-69c5-46-57-63-70-21-2 6-4 13-4 21h74" id="ac"/><path fill="#666" d="M128 0H69L1-190h53L99-40l48-150h52" id="ad"/><path fill="#666" d="M25-224v-37h50v37H25zM25 0v-190h50V0H25" id="ae"/><path fill="#666" d="M231 0h-52l-39-155L100 0H48L-1-190h46L77-45c9-52 24-97 36-145h53l37 145 32-145h46" id="af"/><path fill="#666" d="M135-150c-39-12-60 13-60 57V0H25l-1-190h47c2 13-1 29 3 40 6-28 27-53 61-41v41" id="ag"/><g id="d"><use transform="matrix(0.05,0,0,0.05,0,0)" xlink:href="#ab"/><use transform="matrix(0.05,0,0,0.05,12.950000000000001,0)" xlink:href="#ac"/><use transform="matrix(0.05,0,0,0.05,22.950000000000003,0)" xlink:href="#ad"/><use transform="matrix(0.05,0,0,0.05,32.95,0)" xlink:href="#ae"/><use transform="matrix(0.05,0,0,0.05,37.95,0)" xlink:href="#ac"/><use transform="matrix(0.05,0,0,0.05,47.95,0)" xlink:href="#af"/><use transform="matrix(0.05,0,0,0.05,61.95,0)" xlink:href="#ac"/><use transform="matrix(0.05,0,0,0.05,71.95,0)" xlink:href="#ag"/></g><path fill="#666" d="M24 0v-248h52V0H24" id="ah"/><path fill="#666" d="M135-194c87-1 58 113 63 194h-50c-7-57 23-157-34-157-59 0-34 97-39 157H25l-1-190h47c2 12-1 28 3 38 12-26 28-41 61-42" id="ai"/><path fill="#666" d="M137-138c1-29-70-34-71-4 15 46 118 7 119 86 1 83-164 76-172 9l43-7c4 19 20 25 44 25 33 8 57-30 24-41C81-84 22-81 20-136c-2-80 154-74 161-7" id="aj"/><path fill="#666" d="M115-3C79 11 28 4 28-45v-112H4v-33h27l15-45h31v45h36v33H77v99c-1 23 16 31 38 25v30" id="ak"/><path fill="#666" d="M110-194c64 0 96 36 96 99 0 64-35 99-97 99-61 0-95-36-95-99 0-62 34-99 96-99zm-1 164c35 0 45-28 45-65 0-40-10-65-43-65-34 0-45 26-45 65 0 36 10 65 43 65" id="al"/><g id="e"><use transform="matrix(0.05,0,0,0.05,0,0)" xlink:href="#ah"/><use transform="matrix(0.05,0,0,0.05,5,0)" xlink:href="#ai"/><use transform="matrix(0.05,0,0,0.05,15.950000000000001,0)" xlink:href="#ad"/><use transform="matrix(0.05,0,0,0.05,25.950000000000003,0)" xlink:href="#ac"/><use transform="matrix(0.05,0,0,0.05,35.95,0)" xlink:href="#aj"/><use transform="matrix(0.05,0,0,0.05,45.95,0)" xlink:href="#ak"/><use transform="matrix(0.05,0,0,0.05,51.900000000000006,0)" xlink:href="#al"/><use transform="matrix(0.05,0,0,0.05,62.85,0)" xlink:href="#ag"/></g><path fill="#666" d="M230 0l2-204L168 0h-37L68-204 70 0H24v-248h70l56 185 57-185h69V0h-46" id="am"/><path fill="#666" d="M24 0v-248h195v40H76v63h132v40H76v65h150V0H24" id="an"/><path fill="#666" d="M195 0l-88-114-31 24V0H24v-248h52v113l112-113h60L142-143 257 0h-62" id="ao"/><g id="f"><use transform="matrix(0.05,0,0,0.05,0,0)" xlink:href="#am"/><use transform="matrix(0.05,0,0,0.05,14.950000000000001,0)" xlink:href="#an"/><use transform="matrix(0.05,0,0,0.05,26.950000000000003,0)" xlink:href="#an"/><use transform="matrix(0.05,0,0,0.05,38.95,0)" xlink:href="#ao"/></g><path fill="#333" d="M230 0l2-204L168 0h-37L68-204 70 0H24v-248h70l56 185 57-185h69V0h-46" id="ap"/><path fill="#333" d="M147 0L96-86 75-71V0H25v-261h50v150l67-79h53l-66 74L201 0h-54" id="aq"/><g id="g"><use transform="matrix(0.05,0,0,0.05,0,0)" xlink:href="#ap"/><use transform="matrix(0.05,0,0,0.05,14.950000000000001,0)" xlink:href="#P"/><use transform="matrix(0.05,0,0,0.05,24.950000000000003,0)" xlink:href="#aq"/><use transform="matrix(0.05,0,0,0.05,34.95,0)" xlink:href="#M"/></g><path fill="#333" d="M88-194c31-1 46 15 58 34l-1-101h50l1 261h-48c-2-10 0-23-3-31C134-8 116 4 84 4 32 4 16-41 15-95c0-56 19-97 73-99zm17 164c33 0 40-30 41-66 1-37-9-64-41-64s-38 30-39 65c0 43 13 65 39 65" id="ar"/><path fill="#333" d="M190-63c-7 42-38 67-86 67-59 0-84-38-90-98-12-110 154-137 174-36l-49 2c-2-19-15-32-35-32-30 0-35 28-38 64-6 74 65 87 74 30" id="as"/><path fill="#333" d="M110-194c64 0 96 36 96 99 0 64-35 99-97 99-61 0-95-36-95-99 0-62 34-99 96-99zm-1 164c35 0 45-28 45-65 0-40-10-65-43-65-34 0-45 26-45 65 0 36 10 65 43 65" id="at"/><g id="h"><use transform="matrix(0.05,0,0,0.05,0,0)" xlink:href="#ar"/><use transform="matrix(0.05,0,0,0.05,10.950000000000001,0)" xlink:href="#M"/><use transform="matrix(0.05,0,0,0.05,20.950000000000003,0)" xlink:href="#as"/><use transform="matrix(0.05,0,0,0.05,30.950000000000003,0)" xlink:href="#T"/><use transform="matrix(0.05,0,0,0.05,35.95,0)" xlink:href="#Y"/><use transform="matrix(0.05,0,0,0.05,45.95,0)" xlink:href="#T"/><use transform="matrix(0.05,0,0,0.05,50.95,0)" xlink:href="#at"/><use transform="matrix(0.05,0,0,0.05,61.900000000000006,0)" xlink:href="#O"/></g><g id="i"><use transform="matrix(0.05,0,0,0.05,0,0)" xlink:href="#at"/><use transform="matrix(0.05,0,0,0.05,10.950000000000001,0)" xlink:href="#O"/></g><path fill="#333" d="M199 0l-22-63H83L61 0H9l90-248h61L250 0h-51zm-33-102l-36-108c-10 38-24 72-36 108h72" id="au"/><path fill="#333" d="M135-194c53 0 70 44 70 98 0 56-19 98-73 100-31 1-45-17-59-34 3 33 2 69 2 105H25l-1-265h48c2 10 0 23 3 31 11-24 29-35 60-35zM114-30c33 0 39-31 40-66 0-38-9-64-40-64-56 0-55 130 0 130" id="av"/><g id="j"><use transform="matrix(0.05,0,0,0.05,0,0)" xlink:href="#au"/><use transform="matrix(0.05,0,0,0.05,12.950000000000001,0)" xlink:href="#av"/><use transform="matrix(0.05,0,0,0.05,23.900000000000002,0)" xlink:href="#av"/><use transform="matrix(0.05,0,0,0.05,34.85,0)" xlink:href="#Q"/><use transform="matrix(0.05,0,0,0.05,39.85,0)" xlink:href="#T"/><use transform="matrix(0.05,0,0,0.05,44.85,0)" xlink:href="#as"/><use transform="matrix(0.05,0,0,0.05,54.85,0)" xlink:href="#P"/><use transform="matrix(0.05,0,0,0.05,64.85,0)" xlink:href="#L"/><use transform="matrix(0.05,0,0,0.05,70.8,0)" xlink:href="#T"/><use transform="matrix(0.05,0,0,0.05,75.8,0)" xlink:href="#at"/><use transform="matrix(0.05,0,0,0.05,86.75,0)" xlink:href="#O"/></g><path d="M24-248c93 1 206-16 204 79-1 75-69 88-152 82V0H24v-248zm52 121c47 0 100 7 100-41 0-47-54-39-100-39v80" id="aw"/><path d="M135-150c-39-12-60 13-60 57V0H25l-1-190h47c2 13-1 29 3 40 6-28 27-53 61-41v41" id="ax"/><path d="M185-48c-13 30-37 53-82 52C43 2 14-33 14-96s30-98 90-98c62 0 83 45 84 108H66c0 31 8 55 39 56 18 0 30-7 34-22zm-45-69c5-46-57-63-70-21-2 6-4 13-4 21h74" id="ay"/><path d="M190-63c-7 42-38 67-86 67-59 0-84-38-90-98-12-110 154-137 174-36l-49 2c-2-19-15-32-35-32-30 0-35 28-38 64-6 74 65 87 74 30" id="az"/><path d="M110-194c64 0 96 36 96 99 0 64-35 99-97 99-61 0-95-36-95-99 0-62 34-99 96-99zm-1 164c35 0 45-28 45-65 0-40-10-65-43-65-34 0-45 26-45 65 0 36 10 65 43 65" id="aA"/><path d="M135-194c87-1 58 113 63 194h-50c-7-57 23-157-34-157-59 0-34 97-39 157H25l-1-190h47c2 12-1 28 3 38 12-26 28-41 61-42" id="aB"/><path d="M88-194c31-1 46 15 58 34l-1-101h50l1 261h-48c-2-10 0-23-3-31C134-8 116 4 84 4 32 4 16-41 15-95c0-56 19-97 73-99zm17 164c33 0 40-30 41-66 1-37-9-64-41-64s-38 30-39 65c0 43 13 65 39 65" id="aC"/><path d="M25-224v-37h50v37H25zM25 0v-190h50V0H25" id="aD"/><path d="M115-3C79 11 28 4 28-45v-112H4v-33h27l15-45h31v45h36v33H77v99c-1 23 16 31 38 25v30" id="aE"/><path d="M137-138c1-29-70-34-71-4 15 46 118 7 119 86 1 83-164 76-172 9l43-7c4 19 20 25 44 25 33 8 57-30 24-41C81-84 22-81 20-136c-2-80 154-74 161-7" id="aF"/><path d="M35-132v-50h50v50H35zM35 0v-49h50V0H35" id="aG"/><g id="k"><use transform="matrix(0.04320987654320988,0,0,0.04320987654320988,0,0)" xlink:href="#aw"/><use transform="matrix(0.04320987654320988,0,0,0.04320987654320988,10.370370370370372,0)" xlink:href="#ax"/><use transform="matrix(0.04320987654320988,0,0,0.04320987654320988,16.419753086419753,0)" xlink:href="#ay"/><use transform="matrix(0.04320987654320988,0,0,0.04320987654320988,25.061728395061728,0)" xlink:href="#az"/><use transform="matrix(0.04320987654320988,0,0,0.04320987654320988,33.7037037037037,0)" xlink:href="#aA"/><use transform="matrix(0.04320987654320988,0,0,0.04320987654320988,43.166666666666664,0)" xlink:href="#aB"/><use transform="matrix(0.04320987654320988,0,0,0.04320987654320988,52.629629629629626,0)" xlink:href="#aC"/><use transform="matrix(0.04320987654320988,0,0,0.04320987654320988,62.09259259259259,0)" xlink:href="#aD"/><use transform="matrix(0.04320987654320988,0,0,0.04320987654320988,66.41358024691358,0)" xlink:href="#aE"/><use transform="matrix(0.04320987654320988,0,0,0.04320987654320988,71.55555555555556,0)" xlink:href="#aD"/><use transform="matrix(0.04320987654320988,0,0,0.04320987654320988,75.87654320987654,0)" xlink:href="#aA"/><use transform="matrix(0.04320987654320988,0,0,0.04320987654320988,85.3395061728395,0)" xlink:href="#aB"/><use transform="matrix(0.04320987654320988,0,0,0.04320987654320988,94.80246913580245,0)" xlink:href="#aF"/><use transform="matrix(0.04320987654320988,0,0,0.04320987654320988,103.44444444444443,0)" xlink:href="#aG"/></g><path d="M23 0v-37h61v-169l-59 37v-38l62-41h46v211h57V0H23" id="aH"/><path d="M24 0v-54h51V0H24" id="aI"/><path d="M238-95c0 69-44 99-111 99C63 4 22-25 22-93v-155h51v151c-1 38 19 59 55 60 90 1 49-130 58-211h52v153" id="aJ"/><g id="l"><use transform="matrix(0.04320987654320988,0,0,0.04320987654320988,0,0)" xlink:href="#aH"/><use transform="matrix(0.04320987654320988,0,0,0.04320987654320988,8.641975308641976,0)" xlink:href="#aI"/><use transform="matrix(0.04320987654320988,0,0,0.04320987654320988,12.962962962962964,0)" xlink:href="#aJ"/><use transform="matrix(0.04320987654320988,0,0,0.04320987654320988,24.154320987654323,0)" xlink:href="#aF"/><use transform="matrix(0.04320987654320988,0,0,0.04320987654320988,32.7962962962963,0)" xlink:href="#ay"/><use transform="matrix(0.04320987654320988,0,0,0.04320987654320988,41.43827160493827,0)" xlink:href="#ax"/></g><path d="M133-34C117-15 103 5 69 4 32 3 11-16 11-54c-1-60 55-63 116-61 1-26-3-47-28-47-18 1-26 9-28 27l-52-2c7-38 36-58 82-57s74 22 75 68l1 82c-1 14 12 18 25 15v27c-30 8-71 5-69-32zm-48 3c29 0 43-24 42-57-32 0-66-3-65 30 0 17 8 27 23 27" id="aK"/><path d="M25 0v-261h50V0H25" id="aL"/><path d="M123 10C108 53 80 86 19 72V37c35 8 53-11 59-39L3-190h52l48 148c12-52 28-100 44-148h51" id="aM"/><g id="m"><use transform="matrix(0.04320987654320988,0,0,0.04320987654320988,0,0)" xlink:href="#aK"/><use transform="matrix(0.04320987654320988,0,0,0.04320987654320988,8.641975308641976,0)" xlink:href="#aL"/><use transform="matrix(0.04320987654320988,0,0,0.04320987654320988,12.962962962962964,0)" xlink:href="#ax"/><use transform="matrix(0.04320987654320988,0,0,0.04320987654320988,19.01234567901235,0)" xlink:href="#ay"/><use transform="matrix(0.04320987654320988,0,0,0.04320987654320988,27.654320987654323,0)" xlink:href="#aK"/><use transform="matrix(0.04320987654320988,0,0,0.04320987654320988,36.2962962962963,0)" xlink:href="#aC"/><use transform="matrix(0.04320987654320988,0,0,0.04320987654320988,45.75925925925927,0)" xlink:href="#aM"/></g><path d="M24 0v-248h52v208h133V0H24" id="aN"/><path d="M195-6C206 82 75 100 31 46c-4-6-6-13-8-21l49-6c3 16 16 24 34 25 40 0 42-37 40-79-11 22-30 35-61 35-53 0-70-43-70-97 0-56 18-96 73-97 30 0 46 14 59 34l2-30h47zm-90-29c32 0 41-27 41-63 0-35-9-62-40-62-32 0-39 29-40 63 0 36 9 62 39 62" id="aO"/><g id="n"><use transform="matrix(0.04320987654320988,0,0,0.04320987654320988,0,0)" xlink:href="#aN"/><use transform="matrix(0.04320987654320988,0,0,0.04320987654320988,9.462962962962964,0)" xlink:href="#aA"/><use transform="matrix(0.04320987654320988,0,0,0.04320987654320988,18.925925925925927,0)" xlink:href="#aO"/><use transform="matrix(0.04320987654320988,0,0,0.04320987654320988,28.388888888888893,0)" xlink:href="#aO"/><use transform="matrix(0.04320987654320988,0,0,0.04320987654320988,37.851851851851855,0)" xlink:href="#ay"/><use transform="matrix(0.04320987654320988,0,0,0.04320987654320988,46.49382716049383,0)" xlink:href="#aC"/></g><g id="o"><use transform="matrix(0.04320987654320988,0,0,0.04320987654320988,0,0)" xlink:href="#aD"/><use transform="matrix(0.04320987654320988,0,0,0.04320987654320988,4.320987654320988,0)" xlink:href="#aB"/></g><path d="M182-182c0 78-84 86-111 141h115V0H12c-6-101 99-100 120-180 1-22-12-31-33-32-23 0-32 14-35 34l-49-3c5-45 32-70 84-70 51 0 83 22 83 69" id="aP"/><path d="M24 0v-248h52V0H24" id="aQ"/><path d="M128 0H69L1-190h53L99-40l48-150h52" id="aR"/><g id="p"><use transform="matrix(0.04320987654320988,0,0,0.04320987654320988,0,0)" xlink:href="#aP"/><use transform="matrix(0.04320987654320988,0,0,0.04320987654320988,8.641975308641976,0)" xlink:href="#aI"/><use transform="matrix(0.04320987654320988,0,0,0.04320987654320988,12.962962962962964,0)" xlink:href="#aQ"/><use transform="matrix(0.04320987654320988,0,0,0.04320987654320988,17.283950617283953,0)" xlink:href="#aB"/><use transform="matrix(0.04320987654320988,0,0,0.04320987654320988,26.746913580246915,0)" xlink:href="#aB"/><use transform="matrix(0.04320987654320988,0,0,0.04320987654320988,36.20987654320988,0)" xlink:href="#aA"/><use transform="matrix(0.04320987654320988,0,0,0.04320987654320988,45.67283950617284,0)" xlink:href="#aR"/><use transform="matrix(0.04320987654320988,0,0,0.04320987654320988,54.314814814814824,0)" xlink:href="#aK"/><use transform="matrix(0.04320987654320988,0,0,0.04320987654320988,62.956790123456784,0)" xlink:href="#aE"/><use transform="matrix(0.04320987654320988,0,0,0.04320987654320988,68.09876543209877,0)" xlink:href="#aA"/><use transform="matrix(0.04320987654320988,0,0,0.04320987654320988,77.56172839506173,0)" xlink:href="#ax"/></g><path d="M114-157C55-157 80-60 75 0H25v-261h50l-1 109c12-26 28-41 61-42 86-1 58 113 63 194h-50c-7-57 23-157-34-157" id="aS"/><g id="q"><use transform="matrix(0.04320987654320988,0,0,0.04320987654320988,0,0)" xlink:href="#aS"/><use transform="matrix(0.04320987654320988,0,0,0.04320987654320988,9.462962962962964,0)" xlink:href="#aK"/><use transform="matrix(0.04320987654320988,0,0,0.04320987654320988,18.10493827160494,0)" xlink:href="#aF"/></g><path d="M135-194c53 0 70 44 70 98 0 56-19 98-73 100-31 1-45-17-59-34 3 33 2 69 2 105H25l-1-265h48c2 10 0 23 3 31 11-24 29-35 60-35zM114-30c33 0 39-31 40-66 0-38-9-64-40-64-56 0-55 130 0 130" id="aT"/><g id="r"><use transform="matrix(0.04320987654320988,0,0,0.04320987654320988,0,0)" xlink:href="#aT"/><use transform="matrix(0.04320987654320988,0,0,0.04320987654320988,9.462962962962964,0)" xlink:href="#aD"/><use transform="matrix(0.04320987654320988,0,0,0.04320987654320988,13.783950617283953,0)" xlink:href="#aE"/><use transform="matrix(0.04320987654320988,0,0,0.04320987654320988,18.925925925925927,0)" xlink:href="#az"/><use transform="matrix(0.04320987654320988,0,0,0.04320987654320988,27.567901234567906,0)" xlink:href="#aS"/><use transform="matrix(0.04320987654320988,0,0,0.04320987654320988,37.03086419753087,0)" xlink:href="#ay"/><use transform="matrix(0.04320987654320988,0,0,0.04320987654320988,45.67283950617284,0)" xlink:href="#aC"/></g><g id="s"><use transform="matrix(0.04320987654320988,0,0,0.04320987654320988,0,0)" xlink:href="#aK"/><use transform="matrix(0.04320987654320988,0,0,0.04320987654320988,8.641975308641976,0)" xlink:href="#aB"/></g><g id="t"><use transform="matrix(0.04320987654320988,0,0,0.04320987654320988,0,0)" xlink:href="#aD"/><use transform="matrix(0.04320987654320988,0,0,0.04320987654320988,4.320987654320988,0)" xlink:href="#aC"/><use transform="matrix(0.04320987654320988,0,0,0.04320987654320988,13.783950617283953,0)" xlink:href="#ay"/><use transform="matrix(0.04320987654320988,0,0,0.04320987654320988,22.425925925925934,0)" xlink:href="#aK"/></g><path d="M230 0l2-204L168 0h-37L68-204 70 0H24v-248h70l56 185 57-185h69V0h-46" id="aU"/><path d="M147 0L96-86 75-71V0H25v-261h50v150l67-79h53l-66 74L201 0h-54" id="aV"/><g id="u"><use transform="matrix(0.05,0,0,0.05,0,0)" xlink:href="#aU"/><use transform="matrix(0.05,0,0,0.05,14.950000000000001,0)" xlink:href="#aK"/><use transform="matrix(0.05,0,0,0.05,24.950000000000003,0)" xlink:href="#aV"/><use transform="matrix(0.05,0,0,0.05,34.95,0)" xlink:href="#ay"/></g><g id="v"><use transform="matrix(0.05,0,0,0.05,0,0)" xlink:href="#aC"/><use transform="matrix(0.05,0,0,0.05,10.950000000000001,0)" xlink:href="#ay"/><use transform="matrix(0.05,0,0,0.05,20.950000000000003,0)" xlink:href="#az"/><use transform="matrix(0.05,0,0,0.05,30.950000000000003,0)" xlink:href="#aD"/><use transform="matrix(0.05,0,0,0.05,35.95,0)" xlink:href="#aF"/><use transform="matrix(0.05,0,0,0.05,45.95,0)" xlink:href="#aD"/><use transform="matrix(0.05,0,0,0.05,50.95,0)" xlink:href="#aA"/><use transform="matrix(0.05,0,0,0.05,61.900000000000006,0)" xlink:href="#aB"/></g><g id="w"><use transform="matrix(0.05,0,0,0.05,0,0)" xlink:href="#aA"/><use transform="matrix(0.05,0,0,0.05,10.950000000000001,0)" xlink:href="#aB"/></g><g id="x"><use transform="matrix(0.05,0,0,0.05,0,0)" xlink:href="#aK"/><use transform="matrix(0.05,0,0,0.05,10,0)" xlink:href="#aT"/><use transform="matrix(0.05,0,0,0.05,20.950000000000003,0)" xlink:href="#aT"/><use transform="matrix(0.05,0,0,0.05,31.900000000000006,0)" xlink:href="#aL"/><use transform="matrix(0.05,0,0,0.05,36.900000000000006,0)" xlink:href="#aD"/><use transform="matrix(0.05,0,0,0.05,41.900000000000006,0)" xlink:href="#az"/><use transform="matrix(0.05,0,0,0.05,51.900000000000006,0)" xlink:href="#aK"/><use transform="matrix(0.05,0,0,0.05,61.900000000000006,0)" xlink:href="#aE"/><use transform="matrix(0.05,0,0,0.05,67.85000000000001,0)" xlink:href="#aD"/><use transform="matrix(0.05,0,0,0.05,72.85000000000001,0)" xlink:href="#aA"/><use transform="matrix(0.05,0,0,0.05,83.80000000000001,0)" xlink:href="#aB"/></g><path fill="#333" d="M175 0L67-191c6 58 2 128 3 191H24v-248h59L193-55c-6-58-2-129-3-193h46V0h-61" id="aW"/><path fill="#333" d="M121-226c-27-7-43 5-38 36h38v33H83V0H34v-157H6v-33h28c-9-59 32-81 87-68v32" id="aX"/><g id="y"><use transform="matrix(0.05,0,0,0.05,0,0)" xlink:href="#aW"/><use transform="matrix(0.05,0,0,0.05,12.950000000000001,0)" xlink:href="#at"/><use transform="matrix(0.05,0,0,0.05,23.900000000000002,0)" xlink:href="#L"/><use transform="matrix(0.05,0,0,0.05,29.85,0)" xlink:href="#T"/><use transform="matrix(0.05,0,0,0.05,34.85,0)" xlink:href="#aX"/><use transform="matrix(0.05,0,0,0.05,40.800000000000004,0)" xlink:href="#Z"/></g><g id="z"><use transform="matrix(0.05,0,0,0.05,0,0)" xlink:href="#R"/><use transform="matrix(0.05,0,0,0.05,12.950000000000001,0)" xlink:href="#M"/><use transform="matrix(0.05,0,0,0.05,22.950000000000003,0)" xlink:href="#S"/><use transform="matrix(0.05,0,0,0.05,32.95,0)" xlink:href="#T"/><use transform="matrix(0.05,0,0,0.05,37.95,0)" xlink:href="#M"/><use transform="matrix(0.05,0,0,0.05,47.95,0)" xlink:href="#U"/><use transform="matrix(0.05,0,0,0.05,61.95,0)" xlink:href="#M"/><use transform="matrix(0.05,0,0,0.05,71.95,0)" xlink:href="#N"/></g><g id="A"><use transform="matrix(0.05,0,0,0.05,0,0)" xlink:href="#at"/><use transform="matrix(0.05,0,0,0.05,10.950000000000001,0)" xlink:href="#aX"/></g><g id="B"><use transform="matrix(0.05,0,0,0.05,0,0)" xlink:href="#S"/><use transform="matrix(0.05,0,0,0.05,10,0)" xlink:href="#M"/><use transform="matrix(0.05,0,0,0.05,20,0)" xlink:href="#N"/><use transform="matrix(0.05,0,0,0.05,27,0)" xlink:href="#ar"/><use transform="matrix(0.05,0,0,0.05,37.95,0)" xlink:href="#T"/><use transform="matrix(0.05,0,0,0.05,42.95,0)" xlink:href="#as"/><use transform="matrix(0.05,0,0,0.05,52.95,0)" xlink:href="#L"/></g><path d="M20 75v-336h95v34H67V41h48v34H20" id="aY"/><path d="M199 0l-22-63H83L61 0H9l90-248h61L250 0h-51zm-33-102l-36-108c-10 38-24 72-36 108h72" id="aZ"/><g id="C"><use transform="matrix(0.05,0,0,0.05,0,0)" xlink:href="#aY"/><use transform="matrix(0.05,0,0,0.05,5.95,0)" xlink:href="#aZ"/><use transform="matrix(0.05,0,0,0.05,18.900000000000002,0)" xlink:href="#az"/><use transform="matrix(0.05,0,0,0.05,28.900000000000002,0)" xlink:href="#az"/><use transform="matrix(0.05,0,0,0.05,38.900000000000006,0)" xlink:href="#ay"/><use transform="matrix(0.05,0,0,0.05,48.900000000000006,0)" xlink:href="#aT"/><use transform="matrix(0.05,0,0,0.05,59.85,0)" xlink:href="#aE"/></g><path d="M4 75V41h49v-268H4v-34h96V75H4" id="ba"/><g id="D"><use transform="matrix(0.05,0,0,0.05,0,0)" xlink:href="#aZ"/><use transform="matrix(0.05,0,0,0.05,12.950000000000001,0)" xlink:href="#aT"/><use transform="matrix(0.05,0,0,0.05,23.900000000000002,0)" xlink:href="#aT"/><use transform="matrix(0.05,0,0,0.05,34.85,0)" xlink:href="#aL"/><use transform="matrix(0.05,0,0,0.05,39.85,0)" xlink:href="#aD"/><use transform="matrix(0.05,0,0,0.05,44.85,0)" xlink:href="#az"/><use transform="matrix(0.05,0,0,0.05,54.85,0)" xlink:href="#aK"/><use transform="matrix(0.05,0,0,0.05,64.85,0)" xlink:href="#aE"/><use transform="matrix(0.05,0,0,0.05,70.8,0)" xlink:href="#aD"/><use transform="matrix(0.05,0,0,0.05,75.8,0)" xlink:href="#aA"/><use transform="matrix(0.05,0,0,0.05,86.75,0)" xlink:href="#aB"/><use transform="matrix(0.05,0,0,0.05,97.7,0)" xlink:href="#ba"/></g><path d="M240-174c0 40-23 61-54 70L253 0h-59l-57-94H76V0H24v-248c93 4 217-23 216 74zM76-134c48-2 112 12 112-38 0-48-66-32-112-35v73" id="bb"/><path d="M25-224v-37h50v37H25zM75 22c2 45-34 59-81 51V38c22 5 31-5 31-27v-201h50V22" id="bc"/><g id="E"><use transform="matrix(0.05,0,0,0.05,0,0)" xlink:href="#aY"/><use transform="matrix(0.05,0,0,0.05,5.95,0)" xlink:href="#bb"/><use transform="matrix(0.05,0,0,0.05,18.900000000000002,0)" xlink:href="#ay"/><use transform="matrix(0.05,0,0,0.05,28.900000000000002,0)" xlink:href="#bc"/><use transform="matrix(0.05,0,0,0.05,33.900000000000006,0)" xlink:href="#ay"/><use transform="matrix(0.05,0,0,0.05,43.900000000000006,0)" xlink:href="#az"/><use transform="matrix(0.05,0,0,0.05,53.900000000000006,0)" xlink:href="#aE"/></g><path d="M175 0L67-191c6 58 2 128 3 191H24v-248h59L193-55c-6-58-2-129-3-193h46V0h-61" id="bd"/><path d="M121-226c-27-7-43 5-38 36h38v33H83V0H34v-157H6v-33h28c-9-59 32-81 87-68v32" id="be"/><g id="F"><use transform="matrix(0.05,0,0,0.05,0,0)" xlink:href="#bd"/><use transform="matrix(0.05,0,0,0.05,12.950000000000001,0)" xlink:href="#aA"/><use transform="matrix(0.05,0,0,0.05,23.900000000000002,0)" xlink:href="#aE"/><use transform="matrix(0.05,0,0,0.05,29.85,0)" xlink:href="#aD"/><use transform="matrix(0.05,0,0,0.05,34.85,0)" xlink:href="#be"/><use transform="matrix(0.05,0,0,0.05,40.800000000000004,0)" xlink:href="#aM"/></g><g id="G"><use transform="matrix(0.05,0,0,0.05,0,0)" xlink:href="#aQ"/><use transform="matrix(0.05,0,0,0.05,5,0)" xlink:href="#aB"/><use transform="matrix(0.05,0,0,0.05,15.950000000000001,0)" xlink:href="#aB"/><use transform="matrix(0.05,0,0,0.05,26.900000000000002,0)" xlink:href="#aA"/><use transform="matrix(0.05,0,0,0.05,37.85,0)" xlink:href="#aR"/><use transform="matrix(0.05,0,0,0.05,47.85,0)" xlink:href="#aK"/><use transform="matrix(0.05,0,0,0.05,57.85,0)" xlink:href="#aE"/><use transform="matrix(0.05,0,0,0.05,63.800000000000004,0)" xlink:href="#aA"/><use transform="matrix(0.05,0,0,0.05,74.75,0)" xlink:href="#ax"/></g><g id="H"><use transform="matrix(0.05,0,0,0.05,0,0)" xlink:href="#aA"/><use transform="matrix(0.05,0,0,0.05,10.950000000000001,0)" xlink:href="#be"/></g><g id="I"><use transform="matrix(0.05,0,0,0.05,0,0)" xlink:href="#aZ"/><use transform="matrix(0.05,0,0,0.05,12.950000000000001,0)" xlink:href="#aT"/><use transform="matrix(0.05,0,0,0.05,23.900000000000002,0)" xlink:href="#aT"/><use transform="matrix(0.05,0,0,0.05,34.85,0)" xlink:href="#aL"/><use transform="matrix(0.05,0,0,0.05,39.85,0)" xlink:href="#aD"/><use transform="matrix(0.05,0,0,0.05,44.85,0)" xlink:href="#az"/><use transform="matrix(0.05,0,0,0.05,54.85,0)" xlink:href="#aK"/><use transform="matrix(0.05,0,0,0.05,64.85,0)" xlink:href="#aE"/><use transform="matrix(0.05,0,0,0.05,70.8,0)" xlink:href="#aD"/><use transform="matrix(0.05,0,0,0.05,75.8,0)" xlink:href="#aA"/><use transform="matrix(0.05,0,0,0.05,86.75,0)" xlink:href="#aB"/></g></defs></g></svg>