<svg xmlns="http://www.w3.org/2000/svg" xmlns:xlink="http://www.w3.org/1999/xlink" xmlns:lucid="lucid" width="2307.8" height="1442.46"><g transform="translate(0 0)" lucid:page-tab-id="9egH.MQE4cas"><path d="M0 0h2307.8v1442.46H0z" fill="#fff"/><path d="M402.9 125c0-2.76 2.24-5 5-5h581.22c2.76 0 5 2.24 5 5v83.7c0 2.78-2.24 5-5 5H407.9c-2.76 0-5-2.22-5-5z" fill="none"/><use xlink:href="#a" transform="matrix(1,0,0,1,402.8973600521599,120) translate(128.4494938254173 52.18531547155382)"/><use xlink:href="#b" transform="matrix(1,0,0,1,402.8973600521599,120) translate(229.05901762764898 52.18531547155382)"/><use xlink:href="#c" transform="matrix(1,0,0,1,402.8973600521599,120) translate(325.49148174446236 52.18531547155382)"/><path d="M240 274.34v-35c0-2.76 2.24-5 5-5h568.42v40z" fill="#fff"/><path d="M240 274.34v871.5c0 2.77 2.24 5 5 5h568.42v-876.5z" fill="none"/><path d="M813.42 234.34h741.3c2.75 0 5 2.24 5 5v35H813.4z" fill="#fff"/><path d="M1559.7 274.34v871.5c0 2.77-2.23 5-5 5H813.43v-876.5z" fill="none"/><path d="M813.42 234.34v916.5M240 274.34h1319.7M240 274.34v-35c0-2.76 2.24-5 5-5h568.42m0 0h741.3c2.75 0 5 2.24 5 5v35m0 0v871.5c0 2.77-2.25 5-5 5H813.4M240 274.35v871.5c0 2.77 2.24 5 5 5h568.42" stroke="#666" fill="none"/><use xlink:href="#d" transform="matrix(1,0,0,1,240.0000000000001,234.34226515154472) translate(247.525 23.6)"/><use xlink:href="#e" transform="matrix(1,0,0,1,813.4187622907313,234.34226515154472) translate(307.625 23.6)"/><path d="M522.8 342.57c0 6.47-5.28 11.7-11.8 11.7-6.5 0-11.77-5.23-11.77-11.7 0-6.47 5.27-11.7 11.78-11.7 6.52 0 11.8 5.23 11.8 11.7z" stroke="#666" stroke-width="2"/><path d="M511 356.3v65.45" stroke="#000" stroke-width="2" fill="none"/><path d="M511 355.3l1-.14v1.16h-2v-1.16z"/><path d="M500.83 404.4L511 421.6l10.2-17.2" stroke="#000" stroke-width="2" fill="none"/><path d="M435.5 424.57c-10.36 0-18.75 8.4-18.75 18.74v56.24c0 10.35 8.4 18.74 18.74 18.74h151.03c10.36 0 18.75-8.4 18.75-18.74V443.3c0-10.34-8.4-18.73-18.75-18.73z" stroke="#666" stroke-width="2" fill="#fff"/><use xlink:href="#f" transform="matrix(1,0,0,1,424.7471767223647,432.5694996784931) translate(11.649999999999991 31.799999999999997)"/><use xlink:href="#g" transform="matrix(1,0,0,1,424.7471767223647,432.5694996784931) translate(61.599999999999994 31.799999999999997)"/><use xlink:href="#h" transform="matrix(1,0,0,1,424.7471767223647,432.5694996784931) translate(139.45 31.799999999999997)"/><use xlink:href="#i" transform="matrix(1,0,0,1,424.7471767223647,432.5694996784931) translate(39.12499999999999 53.4)"/><path d="M507.16 615.2c2.13-1.77 5.58-1.77 7.7 0l63 52.18c2.13 1.76 2.13 4.62 0 6.38l-63 52.2c-2.12 1.75-5.57 1.75-7.7 0l-63-52.2c-2.12-1.76-2.12-4.62 0-6.38z" stroke="#666" stroke-width="2" fill="#fff"/><path d="M511 520.28v90.78" stroke="#000" stroke-width="2" fill="none"/><path d="M512 520.3h-2v-1.02h2z"/><path d="M500.83 593.7L511 610.92l10.2-17.22" stroke="#000" stroke-width="2" fill="none"/><path d="M440.72 671.57h-33.84l-2.5.8-1.46 2-.2 1.28V981.7l.8 2.5 2 1.45 1.28.2h161.16v2H406.64l-1.9-.3-2.9-2.13-1.12-3.4V675.48l.3-1.9 2.13-2.92 3.4-1.1h34.17zM920.6 985.85v2H734.56v-2z"/><path d="M441.77 671.57h-1.08v-2h.96zM922.42 986.85l-18.67 11.04-1.02-1.73 15.76-9.32-15.77-9.32 1.02-1.72z"/><use xlink:href="#j" transform="matrix(1,0,0,1,567.9643270879678,976.0516529310959) translate(0.0049999999999954525 14.4)"/><use xlink:href="#k" transform="matrix(1,0,0,1,567.9643270879678,976.0516529310959) translate(68.905 14.4)"/><path d="M658.28 671.57H581.3v-2h76.98zm333.02 0H820.83v-2H991.3z"/><path d="M581.33 671.57h-.97l-.1-2h1.07zM993.12 670.57l-18.67 11.04-1.02-1.7 15.76-9.33-15.77-9.32 1.02-1.72z"/><use xlink:href="#l" transform="matrix(1,0,0,1,658.2835637847143,659.7679417265068) translate(0.0049999999999954525 14.4)"/><use xlink:href="#k" transform="matrix(1,0,0,1,658.2835637847143,659.7679417265068) translate(64.855 14.4)"/><path d="M942.17 940c-10.36 0-18.75 8.4-18.75 18.74v56.23c0 10.35 8.4 18.74 18.75 18.74h151.04c10.36 0 18.75-8.38 18.75-18.73v-56.23c0-10.35-8.4-18.75-18.74-18.75z" stroke="#000" stroke-width="2" fill="#fff"/><use xlink:href="#m" transform="matrix(1,0,0,1,931.4224166598102,947.9948068267123) translate(6.7749999999999915 31.799999999999997)"/><use xlink:href="#n" transform="matrix(1,0,0,1,931.4224166598102,947.9948068267123) translate(62.574999999999996 31.799999999999997)"/><use xlink:href="#o" transform="matrix(1,0,0,1,931.4224166598102,947.9948068267123) translate(149.325 31.799999999999997)"/><use xlink:href="#p" transform="matrix(1,0,0,1,931.4224166598102,947.9948068267123) translate(59.55 53.4)"/><path d="M1012.86 623.7c-10.35 0-18.74 8.4-18.74 18.75v56.23c0 10.35 8.4 18.74 18.74 18.74h151.05c10.36 0 18.75-8.4 18.75-18.74v-56.23c0-10.35-8.4-18.74-18.74-18.74z" stroke="#000" stroke-width="2" fill="#fff"/><use xlink:href="#m" transform="matrix(1,0,0,1,1002.1212873487563,631.7110956221233) translate(6.7749999999999915 31.799999999999997)"/><use xlink:href="#n" transform="matrix(1,0,0,1,1002.1212873487563,631.7110956221233) translate(62.574999999999996 31.799999999999997)"/><use xlink:href="#o" transform="matrix(1,0,0,1,1002.1212873487563,631.7110956221233) translate(149.325 31.799999999999997)"/><use xlink:href="#q" transform="matrix(1,0,0,1,1002.1212873487563,631.7110956221233) translate(50.025 53.4)"/><path d="M1184.65 670.57h157.97c2.76 0 5 2.24 5 5v74.18" stroke="#000" stroke-width="2" fill="none"/><path d="M1184.68 671.57h-1.03v-2h1.03z"/><path d="M1337.43 732.4l10.2 17.2 10.17-17.2" stroke="#000" stroke-width="2" fill="none"/><path d="M1272.1 752.57c-10.36 0-18.75 8.4-18.75 18.74v56.24c0 10.35 8.4 18.74 18.74 18.74h151.04c10.35 0 18.74-8.4 18.74-18.74V771.3c0-10.34-8.4-18.73-18.74-18.73z" stroke="#000" stroke-width="2" fill="#fff"/><g><use xlink:href="#r" transform="matrix(1,0,0,1,1261.3504798748909,760.5674224091781) translate(3.2249999999999943 31.799999999999997)"/><use xlink:href="#s" transform="matrix(1,0,0,1,1261.3504798748909,760.5674224091781) translate(72.075 31.799999999999997)"/><use xlink:href="#t" transform="matrix(1,0,0,1,1261.3504798748909,760.5674224091781) translate(38.62499999999999 53.4)"/><use xlink:href="#u" transform="matrix(1,0,0,1,1261.3504798748909,760.5674224091781) translate(60.52499999999999 53.4)"/></g><path d="M1113.95 986.85h207.28" stroke="#000" stroke-width="2" fill="none"/><path d="M1113.98 987.85h-1.03v-2h1.03z"/><path d="M1303.87 997.03l17.2-10.18-17.2-10.18M1347.62 848.28V960.6" stroke="#000" stroke-width="2" fill="none"/><path d="M1348.62 848.3h-2v-1.02h2z"/><path d="M1337.43 943.24l10.2 17.22 10.17-17.22" stroke="#000" stroke-width="2" fill="none"/><path d="M1371.18 986.85c0 12.94-10.55 23.43-23.56 23.43-13.02 0-23.57-10.5-23.57-23.43 0-12.94 10.55-23.43 23.57-23.43 13 0 23.56 10.5 23.56 23.43z" stroke="#000" stroke-width="2" fill="#fff"/><path d="M1361.76 986.85c0 7.77-6.34 14.06-14.14 14.06-7.8 0-14.14-6.28-14.14-14.05 0-7.76 6.33-14.06 14.14-14.06 7.8 0 14.14 6.3 14.14 14.05z" stroke="#000" stroke-width="2"/><path d="M1182.65 125.6c0-2.78 2.24-5 5-5h343.5c2.76 0 5 2.22 5 5v82.53c0 2.76-2.24 5-5 5h-343.5c-2.76 0-5-2.24-5-5z" stroke="#000" stroke-opacity="0" stroke-width="2" fill="#fff" fill-opacity="0"/><g><use xlink:href="#v" transform="matrix(1,0,0,1,1187.6516091859448,125.58571057630478) translate(109.17499999999998 24.775)"/><use xlink:href="#w" transform="matrix(1,0,0,1,1187.6516091859448,125.58571057630478) translate(34.82499999999999 46.375)"/><use xlink:href="#x" transform="matrix(1,0,0,1,1187.6516091859448,125.58571057630478) translate(136.575 46.375)"/><use xlink:href="#y" transform="matrix(1,0,0,1,1187.6516091859448,125.58571057630478) translate(172.525 46.375)"/><use xlink:href="#z" transform="matrix(1,0,0,1,1187.6516091859448,125.58571057630478) translate(214.425 46.375)"/><use xlink:href="#A" transform="matrix(1,0,0,1,1187.6516091859448,125.58571057630478) translate(41.32499999999999 67.97500000000001)"/><use xlink:href="#x" transform="matrix(1,0,0,1,1187.6516091859448,125.58571057630478) translate(159.025 67.97500000000001)"/><use xlink:href="#B" transform="matrix(1,0,0,1,1187.6516091859448,125.58571057630478) translate(194.97500000000002 67.97500000000001)"/><use xlink:href="#C" transform="matrix(1,0,0,1,1187.6516091859448,125.58571057630478) translate(241.87500000000003 67.97500000000001)"/></g><defs><path fill="#333" d="M24 0v-248h52V0H24" id="D"/><path fill="#333" d="M135-194c87-1 58 113 63 194h-50c-7-57 23-157-34-157-59 0-34 97-39 157H25l-1-190h47c2 12-1 28 3 38 12-26 28-41 61-42" id="E"/><path fill="#333" d="M115-3C79 11 28 4 28-45v-112H4v-33h27l15-45h31v45h36v33H77v99c-1 23 16 31 38 25v30" id="F"/><path fill="#333" d="M185-48c-13 30-37 53-82 52C43 2 14-33 14-96s30-98 90-98c62 0 83 45 84 108H66c0 31 8 55 39 56 18 0 30-7 34-22zm-45-69c5-46-57-63-70-21-2 6-4 13-4 21h74" id="G"/><path fill="#333" d="M135-150c-39-12-60 13-60 57V0H25l-1-190h47c2 13-1 29 3 40 6-28 27-53 61-41v41" id="H"/><path fill="#333" d="M133-34C117-15 103 5 69 4 32 3 11-16 11-54c-1-60 55-63 116-61 1-26-3-47-28-47-18 1-26 9-28 27l-52-2c7-38 36-58 82-57s74 22 75 68l1 82c-1 14 12 18 25 15v27c-30 8-71 5-69-32zm-48 3c29 0 43-24 42-57-32 0-66-3-65 30 0 17 8 27 23 27" id="I"/><path fill="#333" d="M25 0v-261h50V0H25" id="J"/><g id="a"><use transform="matrix(0.07201827043824745,0,0,0.07201827043824745,0,0)" xlink:href="#D"/><use transform="matrix(0.07201827043824745,0,0,0.07201827043824745,7.2018270438247445,0)" xlink:href="#E"/><use transform="matrix(0.07201827043824745,0,0,0.07201827043824745,22.973828269800933,0)" xlink:href="#F"/><use transform="matrix(0.07201827043824745,0,0,0.07201827043824745,31.54400245195238,0)" xlink:href="#G"/><use transform="matrix(0.07201827043824745,0,0,0.07201827043824745,45.947656539601866,0)" xlink:href="#H"/><use transform="matrix(0.07201827043824745,0,0,0.07201827043824745,56.0302144009565,0)" xlink:href="#E"/><use transform="matrix(0.07201827043824745,0,0,0.07201827043824745,71.8022156269327,0)" xlink:href="#I"/><use transform="matrix(0.07201827043824745,0,0,0.07201827043824745,86.20586971458219,0)" xlink:href="#J"/></g><path fill="#333" d="M240-174c0 40-23 61-54 70L253 0h-59l-57-94H76V0H24v-248c93 4 217-23 216 74zM76-134c48-2 112 12 112-38 0-48-66-32-112-35v73" id="K"/><path fill="#333" d="M128 0H69L1-190h53L99-40l48-150h52" id="L"/><path fill="#333" d="M25-224v-37h50v37H25zM25 0v-190h50V0H25" id="M"/><path fill="#333" d="M231 0h-52l-39-155L100 0H48L-1-190h46L77-45c9-52 24-97 36-145h53l37 145 32-145h46" id="N"/><g id="b"><use transform="matrix(0.07201827043824745,0,0,0.07201827043824745,0,0)" xlink:href="#K"/><use transform="matrix(0.07201827043824745,0,0,0.07201827043824745,18.652732043506088,0)" xlink:href="#G"/><use transform="matrix(0.07201827043824745,0,0,0.07201827043824745,33.05638613115558,0)" xlink:href="#L"/><use transform="matrix(0.07201827043824745,0,0,0.07201827043824745,47.46004021880506,0)" xlink:href="#M"/><use transform="matrix(0.07201827043824745,0,0,0.07201827043824745,54.661867262629805,0)" xlink:href="#G"/><use transform="matrix(0.07201827043824745,0,0,0.07201827043824745,69.0655213502793,0)" xlink:href="#N"/></g><path fill="#333" d="M169-182c-1-43-94-46-97-3 18 66 151 10 154 114 3 95-165 93-204 36-6-8-10-19-12-30l50-8c3 46 112 56 116 5-17-69-150-10-154-114-4-87 153-88 188-35 5 8 8 18 10 28" id="O"/><path fill="#333" d="M85 4C-2 5 27-109 22-190h50c7 57-23 150 33 157 60-5 35-97 40-157h50l1 190h-47c-2-12 1-28-3-38-12 25-28 42-61 42" id="P"/><path fill="#333" d="M135-194c52 0 70 43 70 98 0 56-19 99-73 100-30 1-46-15-58-35L72 0H24l1-261h50v104c11-23 29-37 60-37zM114-30c31 0 40-27 40-66 0-37-7-63-39-63s-41 28-41 65c0 36 8 64 40 64" id="Q"/><path fill="#333" d="M137-138c1-29-70-34-71-4 15 46 118 7 119 86 1 83-164 76-172 9l43-7c4 19 20 25 44 25 33 8 57-30 24-41C81-84 22-81 20-136c-2-80 154-74 161-7" id="R"/><path fill="#333" d="M123 10C108 53 80 86 19 72V37c35 8 53-11 59-39L3-190h52l48 148c12-52 28-100 44-148h51" id="S"/><path fill="#333" d="M220-157c-53 9-28 100-34 157h-49v-107c1-27-5-49-29-50C55-147 81-57 75 0H25l-1-190h47c2 12-1 28 3 38 10-53 101-56 108 0 13-22 24-43 59-42 82 1 51 116 57 194h-49v-107c-1-25-5-48-29-50" id="T"/><g id="c"><use transform="matrix(0.07201827043824745,0,0,0.07201827043824745,0,0)" xlink:href="#O"/><use transform="matrix(0.07201827043824745,0,0,0.07201827043824745,17.284384905179387,0)" xlink:href="#P"/><use transform="matrix(0.07201827043824745,0,0,0.07201827043824745,33.05638613115558,0)" xlink:href="#Q"/><use transform="matrix(0.07201827043824745,0,0,0.07201827043824745,48.82838735713177,0)" xlink:href="#R"/><use transform="matrix(0.07201827043824745,0,0,0.07201827043824745,63.23204144478126,0)" xlink:href="#S"/><use transform="matrix(0.07201827043824745,0,0,0.07201827043824745,77.63569553243074,0)" xlink:href="#R"/><use transform="matrix(0.07201827043824745,0,0,0.07201827043824745,92.03934962008024,0)" xlink:href="#F"/><use transform="matrix(0.07201827043824745,0,0,0.07201827043824745,100.60952380223168,0)" xlink:href="#G"/><use transform="matrix(0.07201827043824745,0,0,0.07201827043824745,115.01317788988116,0)" xlink:href="#T"/></g><path fill="#666" d="M240-174c0 40-23 61-54 70L253 0h-59l-57-94H76V0H24v-248c93 4 217-23 216 74zM76-134c48-2 112 12 112-38 0-48-66-32-112-35v73" id="U"/><path fill="#666" d="M185-48c-13 30-37 53-82 52C43 2 14-33 14-96s30-98 90-98c62 0 83 45 84 108H66c0 31 8 55 39 56 18 0 30-7 34-22zm-45-69c5-46-57-63-70-21-2 6-4 13-4 21h74" id="V"/><path fill="#666" d="M128 0H69L1-190h53L99-40l48-150h52" id="W"/><path fill="#666" d="M25-224v-37h50v37H25zM25 0v-190h50V0H25" id="X"/><path fill="#666" d="M231 0h-52l-39-155L100 0H48L-1-190h46L77-45c9-52 24-97 36-145h53l37 145 32-145h46" id="Y"/><path fill="#666" d="M135-150c-39-12-60 13-60 57V0H25l-1-190h47c2 13-1 29 3 40 6-28 27-53 61-41v41" id="Z"/><g id="d"><use transform="matrix(0.05,0,0,0.05,0,0)" xlink:href="#U"/><use transform="matrix(0.05,0,0,0.05,12.950000000000001,0)" xlink:href="#V"/><use transform="matrix(0.05,0,0,0.05,22.950000000000003,0)" xlink:href="#W"/><use transform="matrix(0.05,0,0,0.05,32.95,0)" xlink:href="#X"/><use transform="matrix(0.05,0,0,0.05,37.95,0)" xlink:href="#V"/><use transform="matrix(0.05,0,0,0.05,47.95,0)" xlink:href="#Y"/><use transform="matrix(0.05,0,0,0.05,61.95,0)" xlink:href="#V"/><use transform="matrix(0.05,0,0,0.05,71.95,0)" xlink:href="#Z"/></g><path fill="#666" d="M230 0l2-204L168 0h-37L68-204 70 0H24v-248h70l56 185 57-185h69V0h-46" id="aa"/><path fill="#666" d="M24 0v-248h195v40H76v63h132v40H76v65h150V0H24" id="ab"/><path fill="#666" d="M195 0l-88-114-31 24V0H24v-248h52v113l112-113h60L142-143 257 0h-62" id="ac"/><path fill="#666" d="M14-72v-43h91v43H14" id="ad"/><path fill="#666" d="M169-182c-1-43-94-46-97-3 18 66 151 10 154 114 3 95-165 93-204 36-6-8-10-19-12-30l50-8c3 46 112 56 116 5-17-69-150-10-154-114-4-87 153-88 188-35 5 8 8 18 10 28" id="ae"/><path fill="#666" d="M146-102V0H94v-102L6-248h54l60 105 60-105h54" id="af"/><path fill="#666" d="M136-208V0H84v-208H4v-40h212v40h-80" id="ag"/><g id="e"><use transform="matrix(0.05,0,0,0.05,0,0)" xlink:href="#aa"/><use transform="matrix(0.05,0,0,0.05,14.950000000000001,0)" xlink:href="#ab"/><use transform="matrix(0.05,0,0,0.05,26.950000000000003,0)" xlink:href="#ab"/><use transform="matrix(0.05,0,0,0.05,38.95,0)" xlink:href="#ac"/><use transform="matrix(0.05,0,0,0.05,51.900000000000006,0)" xlink:href="#ad"/><use transform="matrix(0.05,0,0,0.05,57.85,0)" xlink:href="#ae"/><use transform="matrix(0.05,0,0,0.05,69.85000000000001,0)" xlink:href="#af"/><use transform="matrix(0.05,0,0,0.05,81.85000000000001,0)" xlink:href="#ae"/><use transform="matrix(0.05,0,0,0.05,93.85000000000001,0)" xlink:href="#ag"/><use transform="matrix(0.05,0,0,0.05,104.80000000000001,0)" xlink:href="#ab"/><use transform="matrix(0.05,0,0,0.05,116.80000000000001,0)" xlink:href="#aa"/></g><path fill="#333" d="M230 0l2-204L168 0h-37L68-204 70 0H24v-248h70l56 185 57-185h69V0h-46" id="ah"/><path fill="#333" d="M147 0L96-86 75-71V0H25v-261h50v150l67-79h53l-66 74L201 0h-54" id="ai"/><g id="f"><use transform="matrix(0.05,0,0,0.05,0,0)" xlink:href="#ah"/><use transform="matrix(0.05,0,0,0.05,14.950000000000001,0)" xlink:href="#I"/><use transform="matrix(0.05,0,0,0.05,24.950000000000003,0)" xlink:href="#ai"/><use transform="matrix(0.05,0,0,0.05,34.95,0)" xlink:href="#G"/></g><path fill="#333" d="M88-194c31-1 46 15 58 34l-1-101h50l1 261h-48c-2-10 0-23-3-31C134-8 116 4 84 4 32 4 16-41 15-95c0-56 19-97 73-99zm17 164c33 0 40-30 41-66 1-37-9-64-41-64s-38 30-39 65c0 43 13 65 39 65" id="aj"/><path fill="#333" d="M190-63c-7 42-38 67-86 67-59 0-84-38-90-98-12-110 154-137 174-36l-49 2c-2-19-15-32-35-32-30 0-35 28-38 64-6 74 65 87 74 30" id="ak"/><path fill="#333" d="M110-194c64 0 96 36 96 99 0 64-35 99-97 99-61 0-95-36-95-99 0-62 34-99 96-99zm-1 164c35 0 45-28 45-65 0-40-10-65-43-65-34 0-45 26-45 65 0 36 10 65 43 65" id="al"/><g id="g"><use transform="matrix(0.05,0,0,0.05,0,0)" xlink:href="#aj"/><use transform="matrix(0.05,0,0,0.05,10.950000000000001,0)" xlink:href="#G"/><use transform="matrix(0.05,0,0,0.05,20.950000000000003,0)" xlink:href="#ak"/><use transform="matrix(0.05,0,0,0.05,30.950000000000003,0)" xlink:href="#M"/><use transform="matrix(0.05,0,0,0.05,35.95,0)" xlink:href="#R"/><use transform="matrix(0.05,0,0,0.05,45.95,0)" xlink:href="#M"/><use transform="matrix(0.05,0,0,0.05,50.95,0)" xlink:href="#al"/><use transform="matrix(0.05,0,0,0.05,61.900000000000006,0)" xlink:href="#E"/></g><g id="h"><use transform="matrix(0.05,0,0,0.05,0,0)" xlink:href="#al"/><use transform="matrix(0.05,0,0,0.05,10.950000000000001,0)" xlink:href="#E"/></g><path fill="#333" d="M135-194c53 0 70 44 70 98 0 56-19 98-73 100-31 1-45-17-59-34 3 33 2 69 2 105H25l-1-265h48c2 10 0 23 3 31 11-24 29-35 60-35zM114-30c33 0 39-31 40-66 0-38-9-64-40-64-56 0-55 130 0 130" id="am"/><g id="i"><use transform="matrix(0.05,0,0,0.05,0,0)" xlink:href="#I"/><use transform="matrix(0.05,0,0,0.05,10,0)" xlink:href="#am"/><use transform="matrix(0.05,0,0,0.05,20.950000000000003,0)" xlink:href="#am"/><use transform="matrix(0.05,0,0,0.05,31.900000000000006,0)" xlink:href="#J"/><use transform="matrix(0.05,0,0,0.05,36.900000000000006,0)" xlink:href="#M"/><use transform="matrix(0.05,0,0,0.05,41.900000000000006,0)" xlink:href="#ak"/><use transform="matrix(0.05,0,0,0.05,51.900000000000006,0)" xlink:href="#I"/><use transform="matrix(0.05,0,0,0.05,61.900000000000006,0)" xlink:href="#F"/><use transform="matrix(0.05,0,0,0.05,67.85000000000001,0)" xlink:href="#M"/><use transform="matrix(0.05,0,0,0.05,72.85000000000001,0)" xlink:href="#al"/><use transform="matrix(0.05,0,0,0.05,83.80000000000001,0)" xlink:href="#E"/></g><path fill="#333" d="M24-248c120-7 223 5 221 122C244-46 201 0 124 0H24v-248zM76-40c74 7 117-18 117-86 0-67-45-88-117-82v168" id="an"/><g id="j"><use transform="matrix(0.05,0,0,0.05,0,0)" xlink:href="#an"/><use transform="matrix(0.05,0,0,0.05,12.950000000000001,0)" xlink:href="#G"/><use transform="matrix(0.05,0,0,0.05,22.950000000000003,0)" xlink:href="#ak"/><use transform="matrix(0.05,0,0,0.05,32.95,0)" xlink:href="#J"/><use transform="matrix(0.05,0,0,0.05,37.95,0)" xlink:href="#M"/><use transform="matrix(0.05,0,0,0.05,42.95,0)" xlink:href="#E"/><use transform="matrix(0.05,0,0,0.05,53.900000000000006,0)" xlink:href="#G"/></g><path fill="#333" d="M199 0l-22-63H83L61 0H9l90-248h61L250 0h-51zm-33-102l-36-108c-10 38-24 72-36 108h72" id="ao"/><g id="k"><use transform="matrix(0.05,0,0,0.05,0,0)" xlink:href="#ao"/><use transform="matrix(0.05,0,0,0.05,12.950000000000001,0)" xlink:href="#am"/><use transform="matrix(0.05,0,0,0.05,23.900000000000002,0)" xlink:href="#am"/><use transform="matrix(0.05,0,0,0.05,34.85,0)" xlink:href="#J"/><use transform="matrix(0.05,0,0,0.05,39.85,0)" xlink:href="#M"/><use transform="matrix(0.05,0,0,0.05,44.85,0)" xlink:href="#ak"/><use transform="matrix(0.05,0,0,0.05,54.85,0)" xlink:href="#I"/><use transform="matrix(0.05,0,0,0.05,64.85,0)" xlink:href="#F"/><use transform="matrix(0.05,0,0,0.05,70.8,0)" xlink:href="#M"/><use transform="matrix(0.05,0,0,0.05,75.8,0)" xlink:href="#al"/><use transform="matrix(0.05,0,0,0.05,86.75,0)" xlink:href="#E"/></g><g id="l"><use transform="matrix(0.05,0,0,0.05,0,0)" xlink:href="#ao"/><use transform="matrix(0.05,0,0,0.05,12.950000000000001,0)" xlink:href="#ak"/><use transform="matrix(0.05,0,0,0.05,22.950000000000003,0)" xlink:href="#ak"/><use transform="matrix(0.05,0,0,0.05,32.95,0)" xlink:href="#G"/><use transform="matrix(0.05,0,0,0.05,42.95,0)" xlink:href="#am"/><use transform="matrix(0.05,0,0,0.05,53.900000000000006,0)" xlink:href="#F"/></g><path fill="#333" d="M175 0L67-191c6 58 2 128 3 191H24v-248h59L193-55c-6-58-2-129-3-193h46V0h-61" id="ap"/><path fill="#333" d="M121-226c-27-7-43 5-38 36h38v33H83V0H34v-157H6v-33h28c-9-59 32-81 87-68v32" id="aq"/><g id="m"><use transform="matrix(0.05,0,0,0.05,0,0)" xlink:href="#ap"/><use transform="matrix(0.05,0,0,0.05,12.950000000000001,0)" xlink:href="#al"/><use transform="matrix(0.05,0,0,0.05,23.900000000000002,0)" xlink:href="#F"/><use transform="matrix(0.05,0,0,0.05,29.85,0)" xlink:href="#M"/><use transform="matrix(0.05,0,0,0.05,34.85,0)" xlink:href="#aq"/><use transform="matrix(0.05,0,0,0.05,40.800000000000004,0)" xlink:href="#S"/></g><g id="n"><use transform="matrix(0.05,0,0,0.05,0,0)" xlink:href="#D"/><use transform="matrix(0.05,0,0,0.05,5,0)" xlink:href="#E"/><use transform="matrix(0.05,0,0,0.05,15.950000000000001,0)" xlink:href="#E"/><use transform="matrix(0.05,0,0,0.05,26.900000000000002,0)" xlink:href="#al"/><use transform="matrix(0.05,0,0,0.05,37.85,0)" xlink:href="#L"/><use transform="matrix(0.05,0,0,0.05,47.85,0)" xlink:href="#I"/><use transform="matrix(0.05,0,0,0.05,57.85,0)" xlink:href="#F"/><use transform="matrix(0.05,0,0,0.05,63.800000000000004,0)" xlink:href="#al"/><use transform="matrix(0.05,0,0,0.05,74.75,0)" xlink:href="#H"/></g><g id="o"><use transform="matrix(0.05,0,0,0.05,0,0)" xlink:href="#al"/><use transform="matrix(0.05,0,0,0.05,10.950000000000001,0)" xlink:href="#aq"/></g><g id="p"><use transform="matrix(0.05,0,0,0.05,0,0)" xlink:href="#aq"/><use transform="matrix(0.05,0,0,0.05,5.95,0)" xlink:href="#I"/><use transform="matrix(0.05,0,0,0.05,15.949999999999998,0)" xlink:href="#M"/><use transform="matrix(0.05,0,0,0.05,20.95,0)" xlink:href="#J"/><use transform="matrix(0.05,0,0,0.05,25.950000000000003,0)" xlink:href="#P"/><use transform="matrix(0.05,0,0,0.05,36.9,0)" xlink:href="#H"/><use transform="matrix(0.05,0,0,0.05,43.9,0)" xlink:href="#G"/></g><g id="q"><use transform="matrix(0.05,0,0,0.05,0,0)" xlink:href="#O"/><use transform="matrix(0.05,0,0,0.05,12,0)" xlink:href="#P"/><use transform="matrix(0.05,0,0,0.05,22.950000000000003,0)" xlink:href="#ak"/><use transform="matrix(0.05,0,0,0.05,32.95,0)" xlink:href="#ak"/><use transform="matrix(0.05,0,0,0.05,42.95,0)" xlink:href="#G"/><use transform="matrix(0.05,0,0,0.05,52.95,0)" xlink:href="#R"/><use transform="matrix(0.05,0,0,0.05,62.95,0)" xlink:href="#R"/></g><path fill="#333" d="M76-208v77h127v40H76V0H24v-248h183v40H76" id="ar"/><g id="r"><use transform="matrix(0.05,0,0,0.05,0,0)" xlink:href="#ar"/><use transform="matrix(0.05,0,0,0.05,10.950000000000001,0)" xlink:href="#al"/><use transform="matrix(0.05,0,0,0.05,21.900000000000002,0)" xlink:href="#N"/><use transform="matrix(0.05,0,0,0.05,35.900000000000006,0)" xlink:href="#I"/><use transform="matrix(0.05,0,0,0.05,45.900000000000006,0)" xlink:href="#H"/><use transform="matrix(0.05,0,0,0.05,52.900000000000006,0)" xlink:href="#aj"/></g><g id="s"><use transform="matrix(0.05,0,0,0.05,0,0)" xlink:href="#ao"/><use transform="matrix(0.05,0,0,0.05,12.950000000000001,0)" xlink:href="#am"/><use transform="matrix(0.05,0,0,0.05,23.900000000000002,0)" xlink:href="#am"/><use transform="matrix(0.05,0,0,0.05,34.85,0)" xlink:href="#J"/><use transform="matrix(0.05,0,0,0.05,39.85,0)" xlink:href="#M"/><use transform="matrix(0.05,0,0,0.05,44.85,0)" xlink:href="#ak"/><use transform="matrix(0.05,0,0,0.05,54.85,0)" xlink:href="#I"/><use transform="matrix(0.05,0,0,0.05,64.85,0)" xlink:href="#F"/><use transform="matrix(0.05,0,0,0.05,70.8,0)" xlink:href="#M"/><use transform="matrix(0.05,0,0,0.05,75.8,0)" xlink:href="#al"/><use transform="matrix(0.05,0,0,0.05,86.75,0)" xlink:href="#E"/></g><g id="t"><use transform="matrix(0.05,0,0,0.05,0,0)" xlink:href="#F"/><use transform="matrix(0.05,0,0,0.05,5.95,0)" xlink:href="#al"/></g><path fill="#333" d="M24 0v-54h51V0H24" id="as"/><g id="u"><use transform="matrix(0.05,0,0,0.05,0,0)" xlink:href="#D"/><use transform="matrix(0.05,0,0,0.05,5,0)" xlink:href="#E"/><use transform="matrix(0.05,0,0,0.05,15.950000000000001,0)" xlink:href="#L"/><use transform="matrix(0.05,0,0,0.05,25.950000000000003,0)" xlink:href="#G"/><use transform="matrix(0.05,0,0,0.05,35.95,0)" xlink:href="#R"/><use transform="matrix(0.05,0,0,0.05,45.95,0)" xlink:href="#F"/><use transform="matrix(0.05,0,0,0.05,51.900000000000006,0)" xlink:href="#al"/><use transform="matrix(0.05,0,0,0.05,62.85,0)" xlink:href="#H"/><use transform="matrix(0.05,0,0,0.05,68.85000000000001,0)" xlink:href="#as"/></g><path fill="#333" d="M24-248c93 1 206-16 204 79-1 75-69 88-152 82V0H24v-248zm52 121c47 0 100 7 100-41 0-47-54-39-100-39v80" id="at"/><path fill="#333" d="M35-132v-50h50v50H35zM35 0v-49h50V0H35" id="au"/><g id="v"><use transform="matrix(0.05,0,0,0.05,0,0)" xlink:href="#at"/><use transform="matrix(0.05,0,0,0.05,12,0)" xlink:href="#H"/><use transform="matrix(0.05,0,0,0.05,19,0)" xlink:href="#G"/><use transform="matrix(0.05,0,0,0.05,29,0)" xlink:href="#ak"/><use transform="matrix(0.05,0,0,0.05,39,0)" xlink:href="#al"/><use transform="matrix(0.05,0,0,0.05,49.95,0)" xlink:href="#E"/><use transform="matrix(0.05,0,0,0.05,60.900000000000006,0)" xlink:href="#aj"/><use transform="matrix(0.05,0,0,0.05,71.85000000000001,0)" xlink:href="#M"/><use transform="matrix(0.05,0,0,0.05,76.85000000000001,0)" xlink:href="#F"/><use transform="matrix(0.05,0,0,0.05,82.80000000000001,0)" xlink:href="#M"/><use transform="matrix(0.05,0,0,0.05,87.80000000000001,0)" xlink:href="#al"/><use transform="matrix(0.05,0,0,0.05,98.75000000000001,0)" xlink:href="#E"/><use transform="matrix(0.05,0,0,0.05,109.7,0)" xlink:href="#R"/><use transform="matrix(0.05,0,0,0.05,119.7,0)" xlink:href="#au"/></g><path fill="#333" d="M23 0v-37h61v-169l-59 37v-38l62-41h46v211h57V0H23" id="av"/><g id="w"><use transform="matrix(0.05,0,0,0.05,0,0)" xlink:href="#av"/><use transform="matrix(0.05,0,0,0.05,10,0)" xlink:href="#as"/><use transform="matrix(0.05,0,0,0.05,15,0)" xlink:href="#D"/><use transform="matrix(0.05,0,0,0.05,20,0)" xlink:href="#E"/><use transform="matrix(0.05,0,0,0.05,30.950000000000003,0)" xlink:href="#E"/><use transform="matrix(0.05,0,0,0.05,41.900000000000006,0)" xlink:href="#al"/><use transform="matrix(0.05,0,0,0.05,52.85,0)" xlink:href="#L"/><use transform="matrix(0.05,0,0,0.05,62.85,0)" xlink:href="#I"/><use transform="matrix(0.05,0,0,0.05,72.85000000000001,0)" xlink:href="#F"/><use transform="matrix(0.05,0,0,0.05,78.80000000000001,0)" xlink:href="#al"/><use transform="matrix(0.05,0,0,0.05,89.75000000000001,0)" xlink:href="#H"/></g><path fill="#333" d="M114-157C55-157 80-60 75 0H25v-261h50l-1 109c12-26 28-41 61-42 86-1 58 113 63 194h-50c-7-57 23-157-34-157" id="aw"/><g id="x"><use transform="matrix(0.05,0,0,0.05,0,0)" xlink:href="#aw"/><use transform="matrix(0.05,0,0,0.05,10.950000000000001,0)" xlink:href="#I"/><use transform="matrix(0.05,0,0,0.05,20.950000000000003,0)" xlink:href="#R"/></g><g id="y"><use transform="matrix(0.05,0,0,0.05,0,0)" xlink:href="#R"/><use transform="matrix(0.05,0,0,0.05,10,0)" xlink:href="#G"/><use transform="matrix(0.05,0,0,0.05,20,0)" xlink:href="#E"/><use transform="matrix(0.05,0,0,0.05,30.950000000000003,0)" xlink:href="#F"/></g><g id="z"><use transform="matrix(0.05,0,0,0.05,0,0)" xlink:href="#I"/><use transform="matrix(0.05,0,0,0.05,10,0)" xlink:href="#am"/><use transform="matrix(0.05,0,0,0.05,20.950000000000003,0)" xlink:href="#am"/><use transform="matrix(0.05,0,0,0.05,31.900000000000006,0)" xlink:href="#J"/><use transform="matrix(0.05,0,0,0.05,36.900000000000006,0)" xlink:href="#M"/><use transform="matrix(0.05,0,0,0.05,41.900000000000006,0)" xlink:href="#ak"/><use transform="matrix(0.05,0,0,0.05,51.900000000000006,0)" xlink:href="#I"/><use transform="matrix(0.05,0,0,0.05,61.900000000000006,0)" xlink:href="#F"/><use transform="matrix(0.05,0,0,0.05,67.85000000000001,0)" xlink:href="#M"/><use transform="matrix(0.05,0,0,0.05,72.85000000000001,0)" xlink:href="#al"/><use transform="matrix(0.05,0,0,0.05,83.80000000000001,0)" xlink:href="#E"/></g><path fill="#333" d="M182-182c0 78-84 86-111 141h115V0H12c-6-101 99-100 120-180 1-22-12-31-33-32-23 0-32 14-35 34l-49-3c5-45 32-70 84-70 51 0 83 22 83 69" id="ax"/><g id="A"><use transform="matrix(0.05,0,0,0.05,0,0)" xlink:href="#ax"/><use transform="matrix(0.05,0,0,0.05,10,0)" xlink:href="#as"/><use transform="matrix(0.05,0,0,0.05,15,0)" xlink:href="#ao"/><use transform="matrix(0.05,0,0,0.05,27.950000000000003,0)" xlink:href="#am"/><use transform="matrix(0.05,0,0,0.05,38.900000000000006,0)" xlink:href="#am"/><use transform="matrix(0.05,0,0,0.05,49.85000000000001,0)" xlink:href="#J"/><use transform="matrix(0.05,0,0,0.05,54.85,0)" xlink:href="#M"/><use transform="matrix(0.05,0,0,0.05,59.85,0)" xlink:href="#ak"/><use transform="matrix(0.05,0,0,0.05,69.85000000000001,0)" xlink:href="#I"/><use transform="matrix(0.05,0,0,0.05,79.85000000000001,0)" xlink:href="#F"/><use transform="matrix(0.05,0,0,0.05,85.80000000000001,0)" xlink:href="#M"/><use transform="matrix(0.05,0,0,0.05,90.80000000000001,0)" xlink:href="#al"/><use transform="matrix(0.05,0,0,0.05,101.75000000000001,0)" xlink:href="#E"/></g><g id="B"><use transform="matrix(0.05,0,0,0.05,0,0)" xlink:href="#Q"/><use transform="matrix(0.05,0,0,0.05,10.950000000000001,0)" xlink:href="#G"/><use transform="matrix(0.05,0,0,0.05,20.950000000000003,0)" xlink:href="#G"/><use transform="matrix(0.05,0,0,0.05,30.950000000000003,0)" xlink:href="#E"/></g><g id="C"><use transform="matrix(0.05,0,0,0.05,0,0)" xlink:href="#am"/><use transform="matrix(0.05,0,0,0.05,10.950000000000001,0)" xlink:href="#H"/><use transform="matrix(0.05,0,0,0.05,17.950000000000003,0)" xlink:href="#P"/><use transform="matrix(0.05,0,0,0.05,28.900000000000006,0)" xlink:href="#E"/><use transform="matrix(0.05,0,0,0.05,39.85000000000001,0)" xlink:href="#G"/><use transform="matrix(0.05,0,0,0.05,49.85000000000001,0)" xlink:href="#aj"/></g></defs></g></svg>