<svg xmlns="http://www.w3.org/2000/svg" xmlns:xlink="http://www.w3.org/1999/xlink" xmlns:lucid="lucid" width="1640" height="1251.2"><g transform="translate(-220 -48.804934457954346)" lucid:page-tab-id="0_0"><path d="M0 0h1870.4v1323.2H0z" fill="#fff"/><path d="M840 105c0-2.76 2.24-5 5-5h230c2.76 0 5 2.24 5 5v87.6c0 2.77-2.24 5-5 5H845c-2.76 0-5-2.23-5-5z" fill="none"/><use xlink:href="#a" transform="matrix(1,0,0,1,840.0000000000001,100) translate(21.666666666666657 54.333333333333336)"/><use xlink:href="#b" transform="matrix(1,0,0,1,840.0000000000001,100) translate(144.4814814814815 54.333333333333336)"/><path d="M240 259.6v-37c0-2.75 2.24-5 5-5h395v42z" fill="#fff"/><path d="M240 259.6V1275c0 2.76 2.24 5 5 5h395V259.6z" fill="none"/><path d="M640 259.6v-42h340v42z" fill="#fff"/><path d="M640 259.6V1280h340V259.6z" fill="none"/><path d="M640 217.6V1280" stroke="#666" fill="none"/><path d="M980 259.6v-42h320v42z" fill="#fff"/><path d="M980 259.6V1280h320V259.6z" fill="none"/><path d="M980 217.6V1280" stroke="#666" fill="none"/><path d="M1300 217.6h535c2.76 0 5 2.25 5 5v37h-540z" fill="#fff"/><path d="M1840 259.6V1275c0 2.76-2.24 5-5 5h-535V259.6z" fill="none"/><path d="M1300 217.6V1280M240 259.6h1600M240 259.6v-37c0-2.75 2.24-5 5-5h395m0 0h340m0 0h320m0 0h535c2.76 0 5 2.25 5 5v37m0 0V1275c0 2.76-2.24 5-5 5h-535m-660 0h340m0 0h320M240 259.6V1275c0 2.76 2.24 5 5 5h395" stroke="#666" fill="none"/><use xlink:href="#c" transform="matrix(1,0,0,1,240,217.6098689159087) translate(156.8827160493827 25.444444444444443)"/><use xlink:href="#d" transform="matrix(1,0,0,1,640,217.6098689159087) translate(121.26543209876543 25.444444444444443)"/><use xlink:href="#e" transform="matrix(1,0,0,1,979.9999999999998,217.6098689159087) translate(110.03703703703704 25.444444444444443)"/><use xlink:href="#f" transform="matrix(1,0,0,1,1299.9999999999998,217.6098689159087) translate(192.3148148148148 25.444444444444443)"/><path d="M406 270c-8.84 0-16 7.16-16 16v48c0 8.84 7.16 16 16 16h128c8.84 0 16-7.16 16-16v-48c0-8.84-7.16-16-16-16z" stroke="#666" stroke-width="2" fill="#fff"/><use xlink:href="#g" transform="matrix(1,0,0,1,398,278) translate(10.599999999999994 14.4)"/><use xlink:href="#h" transform="matrix(1,0,0,1,398,278) translate(60.55 14.4)"/><use xlink:href="#i" transform="matrix(1,0,0,1,398,278) translate(32.599999999999994 36)"/><use xlink:href="#j" transform="matrix(1,0,0,1,398,278) translate(54.5 36)"/><use xlink:href="#k" transform="matrix(1,0,0,1,398,278) translate(24.624999999999993 57.6)"/><path d="M552 310h875.18" stroke="#000" stroke-width="2" fill="none"/><path d="M552.03 311H551v-2h1.03z"/><path d="M1409.82 320.18l17.22-10.18-17.22-10.18" stroke="#000" stroke-width="2" fill="none"/><path d="M1096 540c-8.84 0-16 7.16-16 16v48c0 8.84 7.16 16 16 16h128c8.84 0 16-7.16 16-16v-48c0-8.84-7.16-16-16-16z" stroke="#000" stroke-width="2" fill="#fff"/><use xlink:href="#l" transform="matrix(1,0,0,1,1088,548) translate(15.574999999999996 14.4)"/><use xlink:href="#m" transform="matrix(1,0,0,1,1088,548) translate(50.525 14.4)"/><use xlink:href="#n" transform="matrix(1,0,0,1,1088,548) translate(43.55 36)"/><use xlink:href="#o" transform="matrix(1,0,0,1,1088,548) translate(23.674999999999997 57.6)"/><path d="M1446 270c-8.84 0-16 7.16-16 16v48c0 8.84 7.16 16 16 16h158c8.84 0 16-7.16 16-16v-48c0-8.84-7.16-16-16-16z" stroke="#000" stroke-width="2" fill="#fff"/><use xlink:href="#p" transform="matrix(1,0,0,1,1438.0000000000002,278) translate(29.125 14.4)"/><use xlink:href="#q" transform="matrix(1,0,0,1,1438.0000000000002,278) translate(66.975 14.4)"/><use xlink:href="#r" transform="matrix(1,0,0,1,1438.0000000000002,278) translate(34.14999999999999 36)"/><use xlink:href="#s" transform="matrix(1,0,0,1,1438.0000000000002,278) translate(96.05 36)"/><use xlink:href="#t" transform="matrix(1,0,0,1,1438.0000000000002,278) translate(122.95 36)"/><use xlink:href="#u" transform="matrix(1,0,0,1,1438.0000000000002,278) translate(-4.824999999999989 57.6)"/><path d="M698 1100H542.82" stroke="#000" stroke-width="2" fill="none"/><path d="M699 1101h-1.03v-2H699z"/><path d="M560.18 1089.82L542.96 1100l17.22 10.18M780 442v63h635.74" stroke="#000" stroke-width="2" fill="none"/><path d="M781 442.03h-2V441h2z"/><path d="M1398.38 515.18l17.2-10.18-17.2-10.18M1160 622v55.18" stroke="#000" stroke-width="2" fill="none"/><path d="M1161 622.03h-2V621h2z"/><path d="M1149.82 659.82l10.18 17.22 10.18-17.22" stroke="#000" stroke-width="2" fill="none"/><path d="M1102.4 1101H862.82v-2h237.58v-33.05h2zm0-56.65h-2V891h2z"/><path d="M1102.4 887l-1.07 1.9.13 2.13h-1.06V887h2zM880.7 1090.68l-15.77 9.32 15.76 9.32-1.03 1.72L861 1100l18.67-11.04z"/><use xlink:href="#v" transform="matrix(1,0,0,1,951.2475931091426,1044.345134497606) translate(0 14.4)"/><use xlink:href="#w" transform="matrix(1,0,0,1,951.2475931091426,1044.345134497606) translate(81.75000000000001 14.4)"/><use xlink:href="#x" transform="matrix(1,0,0,1,951.2475931091426,1044.345134497606) translate(164.65000000000003 14.4)"/><use xlink:href="#y" transform="matrix(1,0,0,1,951.2475931091426,1044.345134497606) translate(228.55000000000004 14.4)"/><path d="M1340 68.8h440v160h-440z" stroke="#000" stroke-opacity="0" stroke-width="2" fill="#fff" fill-opacity="0"/><use xlink:href="#z" transform="matrix(1,0,0,1,1345,73.80493445795435) translate(152.17499999999998 47.2125)"/><use xlink:href="#A" transform="matrix(1,0,0,1,1345,73.80493445795435) translate(111.175 68.8125)"/><use xlink:href="#B" transform="matrix(1,0,0,1,1345,73.80493445795435) translate(171.125 68.8125)"/><use xlink:href="#C" transform="matrix(1,0,0,1,1345,73.80493445795435) translate(239.075 68.8125)"/><use xlink:href="#D" transform="matrix(1,0,0,1,1345,73.80493445795435) translate(302.875 68.8125)"/><use xlink:href="#E" transform="matrix(1,0,0,1,1345,73.80493445795435) translate(49.32499999999999 90.41250000000001)"/><use xlink:href="#F" transform="matrix(1,0,0,1,1345,73.80493445795435) translate(161.075 90.41250000000001)"/><use xlink:href="#G" transform="matrix(1,0,0,1,1345,73.80493445795435) translate(202.025 90.41250000000001)"/><use xlink:href="#H" transform="matrix(1,0,0,1,1345,73.80493445795435) translate(284.875 90.41250000000001)"/><use xlink:href="#I" transform="matrix(1,0,0,1,1345,73.80493445795435) translate(310.825 90.41250000000001)"/><use xlink:href="#J" transform="matrix(1,0,0,1,1345,73.80493445795435) translate(215 112.01250000000002)"/><path d="M1160 762v77.07" stroke="#000" stroke-width="2" fill="none"/><path d="M1161 762.03h-2V761h2z"/><path d="M1149.82 821.7l10.18 17.23 10.18-17.22" stroke="#000" stroke-width="2" fill="none"/><path d="M720 1050c-11.05 0-20 8.95-20 20v60c0 11.05 8.95 20 20 20h120c11.05 0 20-8.95 20-20v-60c0-11.05-8.95-20-20-20z" stroke="#000" stroke-width="2" fill="#fff"/><use xlink:href="#K" transform="matrix(1,0,0,1,708,1058) translate(28.575000000000003 14.4)"/><use xlink:href="#L" transform="matrix(1,0,0,1,708,1058) translate(79.525 14.4)"/><use xlink:href="#M" transform="matrix(1,0,0,1,708,1058) translate(5.174999999999983 36)"/><use xlink:href="#N" transform="matrix(1,0,0,1,708,1058) translate(96.925 36)"/><use xlink:href="#O" transform="matrix(1,0,0,1,708,1058) translate(13.674999999999997 57.6)"/><use xlink:href="#i" transform="matrix(1,0,0,1,708,1058) translate(45.575 57.6)"/><use xlink:href="#P" transform="matrix(1,0,0,1,708,1058) translate(67.475 57.6)"/><use xlink:href="#Q" transform="matrix(1,0,0,1,708,1058) translate(2.0999999999999943 79.20000000000002)"/><use xlink:href="#R" transform="matrix(1,0,0,1,708,1058) translate(85 79.20000000000002)"/><path d="M396 1060c-8.84 0-16 7.16-16 16v48c0 8.84 7.16 16 16 16h128c8.84 0 16-7.16 16-16v-48c0-8.84-7.16-16-16-16z" stroke="#000" stroke-width="2" fill="#fff"/><use xlink:href="#S" transform="matrix(1,0,0,1,388,1068) translate(39.099999999999994 24.799999999999997)"/><use xlink:href="#T" transform="matrix(1,0,0,1,388,1068) translate(2.0999999999999943 46.4)"/><use xlink:href="#U" transform="matrix(1,0,0,1,388,1068) translate(85 46.4)"/><path d="M460 1058v-75.18" stroke="#000" stroke-width="2" fill="none"/><path d="M461 1059h-2v-1.03h2z"/><path d="M470.18 1000.18L460 982.98l-10.18 17.2" stroke="#000" stroke-width="2" fill="none"/><path d="M716 360c-8.84 0-16 7.16-16 16v48c0 8.84 7.16 16 16 16h128c8.84 0 16-7.16 16-16v-48c0-8.84-7.16-16-16-16z" stroke="#000" stroke-width="2" fill="#fff"/><use xlink:href="#V" transform="matrix(1,0,0,1,708,368) translate(15.574999999999996 14.4)"/><use xlink:href="#q" transform="matrix(1,0,0,1,708,368) translate(50.525 14.4)"/><use xlink:href="#W" transform="matrix(1,0,0,1,708,368) translate(43.55 36)"/><use xlink:href="#X" transform="matrix(1,0,0,1,708,368) translate(23.674999999999997 57.6)"/><path d="M1525 352v48H862.82" stroke="#000" stroke-width="2" fill="none"/><path d="M1526 352.03h-2V351h2z"/><path d="M880.18 389.82L862.96 400l17.22 10.18" stroke="#000" stroke-width="2" fill="none"/><path d="M1434.56 465c-8.84 0-16 7.16-16 16v48c0 8.84 7.16 16 16 16h148c8.83 0 16-7.16 16-16v-48c0-8.84-7.17-16-16-16z" stroke="#000" stroke-width="2" fill="#fff"/><g><use xlink:href="#Y" transform="matrix(1,0,0,1,1426.5567848796873,473) translate(2.2749999999999915 24.799999999999997)"/><use xlink:href="#Z" transform="matrix(1,0,0,1,1426.5567848796873,473) translate(58.074999999999996 24.799999999999997)"/><use xlink:href="#aa" transform="matrix(1,0,0,1,1426.5567848796873,473) translate(144.825 24.799999999999997)"/><use xlink:href="#ab" transform="matrix(1,0,0,1,1426.5567848796873,473) translate(12.099999999999994 46.4)"/><use xlink:href="#U" transform="matrix(1,0,0,1,1426.5567848796873,473) translate(95 46.4)"/></g><path d="M1096 680c-8.84 0-16 7.16-16 16v48c0 8.84 7.16 16 16 16h128c8.84 0 16-7.16 16-16v-48c0-8.84-7.16-16-16-16z" stroke="#000" stroke-width="2" fill="#fff"/><g><use xlink:href="#ac" transform="matrix(1,0,0,1,1088,688) translate(10.599999999999994 24.799999999999997)"/><use xlink:href="#ad" transform="matrix(1,0,0,1,1088,688) translate(60.55 24.799999999999997)"/><use xlink:href="#s" transform="matrix(1,0,0,1,1088,688) translate(19.599999999999994 46.4)"/><use xlink:href="#ae" transform="matrix(1,0,0,1,1088,688) translate(46.5 46.4)"/></g><path d="M1156.16 843.2c2.12-1.77 5.56-1.77 7.68 0l52.32 43.6c2.12 1.77 2.12 4.63 0 6.4l-52.32 43.6c-2.12 1.77-5.56 1.77-7.68 0l-52.32-43.6c-2.12-1.77-2.12-4.63 0-6.4z" stroke="#666" stroke-width="2" fill="#fff"/><path d="M1508.56 547v33h-265.74" stroke="#000" stroke-width="2" fill="none"/><path d="M1509.56 547.03h-2V546h2z"/><path d="M1260.18 569.82L1242.96 580l17.22 10.18" stroke="#000" stroke-width="2" fill="none"/><path d="M1521 937.18h-2V891h-119.18v-2H1521zM1219.6 891v-2h27.48v2z"/><path d="M1219.63 891h-.97l-.12-2h1.1zM1531.04 920.33L1520 939l-11.04-18.67 1.72-1.02 9.32 15.77 9.32-15.76z"/><g><use xlink:href="#af" transform="matrix(1,0,0,1,1247.0768045903003,879.3333333333334) translate(0 14.222222222222223)"/><use xlink:href="#ag" transform="matrix(1,0,0,1,1247.0768045903003,879.3333333333334) translate(69.92592592592592 14.222222222222223)"/></g><path d="M1161 979h43.7v2H1159v-40.9h2zm276.18 0v2h-83.78v-2z"/><path d="M1161 940.13h-2v-1.15l.8.16 1.2-.17zM1439 980l-18.67 11.04-1.02-1.72 15.77-9.32-15.76-9.32 1.03-1.72z"/><g><use xlink:href="#ah" transform="matrix(1,0,0,1,1204.7041117840176,969.2) translate(0 14.4)"/><use xlink:href="#ai" transform="matrix(1,0,0,1,1204.7041117840176,969.2) translate(64.85000000000001 14.4)"/></g><path d="M310.67 307.04h76.5" stroke="#000" stroke-width="2" fill="none"/><path d="M311 307.04c0 8.28-6.72 15-15 15-8.28 0-15-6.72-15-15 0-8.3 6.72-15 15-15 8.28 0 15 6.7 15 15z" stroke="#000" stroke-width="2"/><path d="M369.82 317.22l17.22-10.18-17.22-10.18" stroke="#000" stroke-width="2" fill="none"/><path d="M1740 980c0 11.05-8.95 20-20 20s-20-8.95-20-20 8.95-20 20-20 20 8.95 20 20z" stroke="#000" stroke-width="2" fill="#fff"/><path d="M1732 980c0 6.63-5.37 12-12 12s-12-5.37-12-12 5.37-12 12-12 12 5.37 12 12z" stroke="#000" stroke-width="2"/><path d="M1456 940c-8.84 0-16 7.16-16 16v48c0 8.84 7.16 16 16 16h128c8.84 0 16-7.16 16-16v-48c0-8.84-7.16-16-16-16z" stroke="#000" stroke-width="2" fill="#fff"/><g><use xlink:href="#aj" transform="matrix(1,0,0,1,1448,948) translate(16.625 35.6)"/><use xlink:href="#ak" transform="matrix(1,0,0,1,1448,948) translate(67.525 35.6)"/></g><path d="M1602 980h95.18" stroke="#000" stroke-width="2" fill="none"/><path d="M1602.03 981H1601v-2h1.03z"/><path d="M1679.82 990.18l17.2-10.18-17.2-10.18" stroke="#000" stroke-width="2" fill="none"/><path d="M490 950c0 16.57-13.43 30-30 30s-30-13.43-30-30 13.43-30 30-30 30 13.43 30 30z" stroke="#000" stroke-width="2" fill="#fff"/><g><use xlink:href="#al" transform="matrix(1,0,0,1,435,925) translate(16.363024691358024 31.138888888888893)"/></g><path d="M1780 310c0 16.57-13.43 30-30 30s-30-13.43-30-30 13.43-30 30-30 30 13.43 30 30z" stroke="#000" stroke-width="2" fill="#fff"/><g><use xlink:href="#al" transform="matrix(1,0,0,1,1725,285) translate(16.363024691358024 31.138888888888893)"/></g><path d="M1718 310h-95.18" stroke="#000" stroke-width="2" fill="none"/><path d="M1719 309.98l.03 1.02h-1.06v-2h1.1z"/><path d="M1640.18 299.82L1622.96 310l17.22 10.18" stroke="#000" stroke-width="2" fill="none"/><defs><path fill="#333" d="M24 0v-248h52V0H24" id="am"/><path fill="#333" d="M135-194c87-1 58 113 63 194h-50c-7-57 23-157-34-157-59 0-34 97-39 157H25l-1-190h47c2 12-1 28 3 38 12-26 28-41 61-42" id="an"/><path fill="#333" d="M115-3C79 11 28 4 28-45v-112H4v-33h27l15-45h31v45h36v33H77v99c-1 23 16 31 38 25v30" id="ao"/><path fill="#333" d="M185-48c-13 30-37 53-82 52C43 2 14-33 14-96s30-98 90-98c62 0 83 45 84 108H66c0 31 8 55 39 56 18 0 30-7 34-22zm-45-69c5-46-57-63-70-21-2 6-4 13-4 21h74" id="ap"/><path fill="#333" d="M135-150c-39-12-60 13-60 57V0H25l-1-190h47c2 13-1 29 3 40 6-28 27-53 61-41v41" id="aq"/><path fill="#333" d="M128 0H69L1-190h53L99-40l48-150h52" id="ar"/><path fill="#333" d="M25-224v-37h50v37H25zM25 0v-190h50V0H25" id="as"/><path fill="#333" d="M231 0h-52l-39-155L100 0H48L-1-190h46L77-45c9-52 24-97 36-145h53l37 145 32-145h46" id="at"/><g id="a"><use transform="matrix(0.07407407407407408,0,0,0.07407407407407408,0,0)" xlink:href="#am"/><use transform="matrix(0.07407407407407408,0,0,0.07407407407407408,7.407407407407408,0)" xlink:href="#an"/><use transform="matrix(0.07407407407407408,0,0,0.07407407407407408,23.629629629629633,0)" xlink:href="#ao"/><use transform="matrix(0.07407407407407408,0,0,0.07407407407407408,32.44444444444445,0)" xlink:href="#ap"/><use transform="matrix(0.07407407407407408,0,0,0.07407407407407408,47.25925925925927,0)" xlink:href="#aq"/><use transform="matrix(0.07407407407407408,0,0,0.07407407407407408,57.62962962962964,0)" xlink:href="#ar"/><use transform="matrix(0.07407407407407408,0,0,0.07407407407407408,72.44444444444446,0)" xlink:href="#as"/><use transform="matrix(0.07407407407407408,0,0,0.07407407407407408,79.85185185185186,0)" xlink:href="#ap"/><use transform="matrix(0.07407407407407408,0,0,0.07407407407407408,94.66666666666669,0)" xlink:href="#at"/></g><path fill="#333" d="M169-182c-1-43-94-46-97-3 18 66 151 10 154 114 3 95-165 93-204 36-6-8-10-19-12-30l50-8c3 46 112 56 116 5-17-69-150-10-154-114-4-87 153-88 188-35 5 8 8 18 10 28" id="au"/><path fill="#333" d="M85 4C-2 5 27-109 22-190h50c7 57-23 150 33 157 60-5 35-97 40-157h50l1 190h-47c-2-12 1-28-3-38-12 25-28 42-61 42" id="av"/><path fill="#333" d="M135-194c53 0 70 44 70 98 0 56-19 98-73 100-31 1-45-17-59-34 3 33 2 69 2 105H25l-1-265h48c2 10 0 23 3 31 11-24 29-35 60-35zM114-30c33 0 39-31 40-66 0-38-9-64-40-64-56 0-55 130 0 130" id="aw"/><g id="b"><use transform="matrix(0.07407407407407408,0,0,0.07407407407407408,0,0)" xlink:href="#au"/><use transform="matrix(0.07407407407407408,0,0,0.07407407407407408,17.77777777777778,0)" xlink:href="#ap"/><use transform="matrix(0.07407407407407408,0,0,0.07407407407407408,32.592592592592595,0)" xlink:href="#ao"/><use transform="matrix(0.07407407407407408,0,0,0.07407407407407408,41.40740740740741,0)" xlink:href="#av"/><use transform="matrix(0.07407407407407408,0,0,0.07407407407407408,57.62962962962964,0)" xlink:href="#aw"/></g><path fill="#666" d="M24 0v-248h52V0H24" id="ax"/><path fill="#666" d="M135-194c87-1 58 113 63 194h-50c-7-57 23-157-34-157-59 0-34 97-39 157H25l-1-190h47c2 12-1 28 3 38 12-26 28-41 61-42" id="ay"/><path fill="#666" d="M128 0H69L1-190h53L99-40l48-150h52" id="az"/><path fill="#666" d="M185-48c-13 30-37 53-82 52C43 2 14-33 14-96s30-98 90-98c62 0 83 45 84 108H66c0 31 8 55 39 56 18 0 30-7 34-22zm-45-69c5-46-57-63-70-21-2 6-4 13-4 21h74" id="aA"/><path fill="#666" d="M137-138c1-29-70-34-71-4 15 46 118 7 119 86 1 83-164 76-172 9l43-7c4 19 20 25 44 25 33 8 57-30 24-41C81-84 22-81 20-136c-2-80 154-74 161-7" id="aB"/><path fill="#666" d="M115-3C79 11 28 4 28-45v-112H4v-33h27l15-45h31v45h36v33H77v99c-1 23 16 31 38 25v30" id="aC"/><path fill="#666" d="M110-194c64 0 96 36 96 99 0 64-35 99-97 99-61 0-95-36-95-99 0-62 34-99 96-99zm-1 164c35 0 45-28 45-65 0-40-10-65-43-65-34 0-45 26-45 65 0 36 10 65 43 65" id="aD"/><path fill="#666" d="M135-150c-39-12-60 13-60 57V0H25l-1-190h47c2 13-1 29 3 40 6-28 27-53 61-41v41" id="aE"/><g id="c"><use transform="matrix(0.06172839506172839,0,0,0.06172839506172839,0,0)" xlink:href="#ax"/><use transform="matrix(0.06172839506172839,0,0,0.06172839506172839,6.172839506172839,0)" xlink:href="#ay"/><use transform="matrix(0.06172839506172839,0,0,0.06172839506172839,19.691358024691358,0)" xlink:href="#az"/><use transform="matrix(0.06172839506172839,0,0,0.06172839506172839,32.03703703703704,0)" xlink:href="#aA"/><use transform="matrix(0.06172839506172839,0,0,0.06172839506172839,44.382716049382715,0)" xlink:href="#aB"/><use transform="matrix(0.06172839506172839,0,0,0.06172839506172839,56.72839506172839,0)" xlink:href="#aC"/><use transform="matrix(0.06172839506172839,0,0,0.06172839506172839,64.07407407407408,0)" xlink:href="#aD"/><use transform="matrix(0.06172839506172839,0,0,0.06172839506172839,77.5925925925926,0)" xlink:href="#aE"/></g><path fill="#666" d="M240-174c0 40-23 61-54 70L253 0h-59l-57-94H76V0H24v-248c93 4 217-23 216 74zM76-134c48-2 112 12 112-38 0-48-66-32-112-35v73" id="aF"/><path fill="#666" d="M25-224v-37h50v37H25zM25 0v-190h50V0H25" id="aG"/><path fill="#666" d="M231 0h-52l-39-155L100 0H48L-1-190h46L77-45c9-52 24-97 36-145h53l37 145 32-145h46" id="aH"/><g id="d"><use transform="matrix(0.06172839506172839,0,0,0.06172839506172839,0,0)" xlink:href="#aF"/><use transform="matrix(0.06172839506172839,0,0,0.06172839506172839,15.987654320987653,0)" xlink:href="#aA"/><use transform="matrix(0.06172839506172839,0,0,0.06172839506172839,28.333333333333332,0)" xlink:href="#az"/><use transform="matrix(0.06172839506172839,0,0,0.06172839506172839,40.67901234567901,0)" xlink:href="#aG"/><use transform="matrix(0.06172839506172839,0,0,0.06172839506172839,46.851851851851855,0)" xlink:href="#aA"/><use transform="matrix(0.06172839506172839,0,0,0.06172839506172839,59.19753086419753,0)" xlink:href="#aH"/><use transform="matrix(0.06172839506172839,0,0,0.06172839506172839,76.48148148148148,0)" xlink:href="#aA"/><use transform="matrix(0.06172839506172839,0,0,0.06172839506172839,88.82716049382717,0)" xlink:href="#aE"/></g><path fill="#666" d="M133-34C117-15 103 5 69 4 32 3 11-16 11-54c-1-60 55-63 116-61 1-26-3-47-28-47-18 1-26 9-28 27l-52-2c7-38 36-58 82-57s74 22 75 68l1 82c-1 14 12 18 25 15v27c-30 8-71 5-69-32zm-48 3c29 0 43-24 42-57-32 0-66-3-65 30 0 17 8 27 23 27" id="aI"/><g id="e"><use transform="matrix(0.06172839506172839,0,0,0.06172839506172839,0,0)" xlink:href="#ax"/><use transform="matrix(0.06172839506172839,0,0,0.06172839506172839,6.172839506172839,0)" xlink:href="#ay"/><use transform="matrix(0.06172839506172839,0,0,0.06172839506172839,19.691358024691358,0)" xlink:href="#ay"/><use transform="matrix(0.06172839506172839,0,0,0.06172839506172839,33.20987654320987,0)" xlink:href="#aD"/><use transform="matrix(0.06172839506172839,0,0,0.06172839506172839,46.72839506172839,0)" xlink:href="#az"/><use transform="matrix(0.06172839506172839,0,0,0.06172839506172839,59.07407407407407,0)" xlink:href="#aI"/><use transform="matrix(0.06172839506172839,0,0,0.06172839506172839,71.41975308641975,0)" xlink:href="#aC"/><use transform="matrix(0.06172839506172839,0,0,0.06172839506172839,78.76543209876543,0)" xlink:href="#aD"/><use transform="matrix(0.06172839506172839,0,0,0.06172839506172839,92.28395061728395,0)" xlink:href="#aE"/></g><path fill="#666" d="M230 0l2-204L168 0h-37L68-204 70 0H24v-248h70l56 185 57-185h69V0h-46" id="aJ"/><path fill="#666" d="M24 0v-248h195v40H76v63h132v40H76v65h150V0H24" id="aK"/><path fill="#666" d="M195 0l-88-114-31 24V0H24v-248h52v113l112-113h60L142-143 257 0h-62" id="aL"/><path fill="#666" d="M-4 44V30h207v14H-4" id="aM"/><path fill="#666" d="M169-182c-1-43-94-46-97-3 18 66 151 10 154 114 3 95-165 93-204 36-6-8-10-19-12-30l50-8c3 46 112 56 116 5-17-69-150-10-154-114-4-87 153-88 188-35 5 8 8 18 10 28" id="aN"/><path fill="#666" d="M123 10C108 53 80 86 19 72V37c35 8 53-11 59-39L3-190h52l48 148c12-52 28-100 44-148h51" id="aO"/><path fill="#666" d="M220-157c-53 9-28 100-34 157h-49v-107c1-27-5-49-29-50C55-147 81-57 75 0H25l-1-190h47c2 12-1 28 3 38 10-53 101-56 108 0 13-22 24-43 59-42 82 1 51 116 57 194h-49v-107c-1-25-5-48-29-50" id="aP"/><g id="f"><use transform="matrix(0.06172839506172839,0,0,0.06172839506172839,0,0)" xlink:href="#aJ"/><use transform="matrix(0.06172839506172839,0,0,0.06172839506172839,18.456790123456788,0)" xlink:href="#aK"/><use transform="matrix(0.06172839506172839,0,0,0.06172839506172839,33.2716049382716,0)" xlink:href="#aK"/><use transform="matrix(0.06172839506172839,0,0,0.06172839506172839,48.08641975308642,0)" xlink:href="#aL"/><use transform="matrix(0.06172839506172839,0,0,0.06172839506172839,64.07407407407408,0)" xlink:href="#aM"/><use transform="matrix(0.06172839506172839,0,0,0.06172839506172839,76.41975308641976,0)" xlink:href="#aN"/><use transform="matrix(0.06172839506172839,0,0,0.06172839506172839,91.23456790123457,0)" xlink:href="#aO"/><use transform="matrix(0.06172839506172839,0,0,0.06172839506172839,103.58024691358025,0)" xlink:href="#aB"/><use transform="matrix(0.06172839506172839,0,0,0.06172839506172839,115.92592592592594,0)" xlink:href="#aC"/><use transform="matrix(0.06172839506172839,0,0,0.06172839506172839,123.27160493827162,0)" xlink:href="#aA"/><use transform="matrix(0.06172839506172839,0,0,0.06172839506172839,135.6172839506173,0)" xlink:href="#aP"/></g><path fill="#333" d="M230 0l2-204L168 0h-37L68-204 70 0H24v-248h70l56 185 57-185h69V0h-46" id="aQ"/><path fill="#333" d="M133-34C117-15 103 5 69 4 32 3 11-16 11-54c-1-60 55-63 116-61 1-26-3-47-28-47-18 1-26 9-28 27l-52-2c7-38 36-58 82-57s74 22 75 68l1 82c-1 14 12 18 25 15v27c-30 8-71 5-69-32zm-48 3c29 0 43-24 42-57-32 0-66-3-65 30 0 17 8 27 23 27" id="aR"/><path fill="#333" d="M147 0L96-86 75-71V0H25v-261h50v150l67-79h53l-66 74L201 0h-54" id="aS"/><g id="g"><use transform="matrix(0.05,0,0,0.05,0,0)" xlink:href="#aQ"/><use transform="matrix(0.05,0,0,0.05,14.950000000000001,0)" xlink:href="#aR"/><use transform="matrix(0.05,0,0,0.05,24.950000000000003,0)" xlink:href="#aS"/><use transform="matrix(0.05,0,0,0.05,34.95,0)" xlink:href="#ap"/></g><path fill="#333" d="M88-194c31-1 46 15 58 34l-1-101h50l1 261h-48c-2-10 0-23-3-31C134-8 116 4 84 4 32 4 16-41 15-95c0-56 19-97 73-99zm17 164c33 0 40-30 41-66 1-37-9-64-41-64s-38 30-39 65c0 43 13 65 39 65" id="aT"/><path fill="#333" d="M190-63c-7 42-38 67-86 67-59 0-84-38-90-98-12-110 154-137 174-36l-49 2c-2-19-15-32-35-32-30 0-35 28-38 64-6 74 65 87 74 30" id="aU"/><path fill="#333" d="M137-138c1-29-70-34-71-4 15 46 118 7 119 86 1 83-164 76-172 9l43-7c4 19 20 25 44 25 33 8 57-30 24-41C81-84 22-81 20-136c-2-80 154-74 161-7" id="aV"/><path fill="#333" d="M110-194c64 0 96 36 96 99 0 64-35 99-97 99-61 0-95-36-95-99 0-62 34-99 96-99zm-1 164c35 0 45-28 45-65 0-40-10-65-43-65-34 0-45 26-45 65 0 36 10 65 43 65" id="aW"/><g id="h"><use transform="matrix(0.05,0,0,0.05,0,0)" xlink:href="#aT"/><use transform="matrix(0.05,0,0,0.05,10.950000000000001,0)" xlink:href="#ap"/><use transform="matrix(0.05,0,0,0.05,20.950000000000003,0)" xlink:href="#aU"/><use transform="matrix(0.05,0,0,0.05,30.950000000000003,0)" xlink:href="#as"/><use transform="matrix(0.05,0,0,0.05,35.95,0)" xlink:href="#aV"/><use transform="matrix(0.05,0,0,0.05,45.95,0)" xlink:href="#as"/><use transform="matrix(0.05,0,0,0.05,50.95,0)" xlink:href="#aW"/><use transform="matrix(0.05,0,0,0.05,61.900000000000006,0)" xlink:href="#an"/></g><g id="i"><use transform="matrix(0.05,0,0,0.05,0,0)" xlink:href="#ao"/><use transform="matrix(0.05,0,0,0.05,5.95,0)" xlink:href="#aW"/></g><g id="j"><use transform="matrix(0.05,0,0,0.05,0,0)" xlink:href="#aR"/><use transform="matrix(0.05,0,0,0.05,10,0)" xlink:href="#aU"/><use transform="matrix(0.05,0,0,0.05,20,0)" xlink:href="#aU"/><use transform="matrix(0.05,0,0,0.05,30,0)" xlink:href="#ap"/><use transform="matrix(0.05,0,0,0.05,40,0)" xlink:href="#aw"/><use transform="matrix(0.05,0,0,0.05,50.95,0)" xlink:href="#ao"/></g><path fill="#333" d="M25 0v-261h50V0H25" id="aX"/><g id="k"><use transform="matrix(0.05,0,0,0.05,0,0)" xlink:href="#aR"/><use transform="matrix(0.05,0,0,0.05,10,0)" xlink:href="#aw"/><use transform="matrix(0.05,0,0,0.05,20.950000000000003,0)" xlink:href="#aw"/><use transform="matrix(0.05,0,0,0.05,31.900000000000006,0)" xlink:href="#aX"/><use transform="matrix(0.05,0,0,0.05,36.900000000000006,0)" xlink:href="#as"/><use transform="matrix(0.05,0,0,0.05,41.900000000000006,0)" xlink:href="#aU"/><use transform="matrix(0.05,0,0,0.05,51.900000000000006,0)" xlink:href="#aR"/><use transform="matrix(0.05,0,0,0.05,61.900000000000006,0)" xlink:href="#ao"/><use transform="matrix(0.05,0,0,0.05,67.85000000000001,0)" xlink:href="#as"/><use transform="matrix(0.05,0,0,0.05,72.85000000000001,0)" xlink:href="#aW"/><use transform="matrix(0.05,0,0,0.05,83.80000000000001,0)" xlink:href="#an"/></g><path fill="#333" d="M67-125c0 54 23 88 75 88 28 0 53-7 68-21v-34h-60v-39h108v91C232-14 192 4 140 4 58 4 20-42 15-125 8-236 126-280 215-234c19 10 29 26 37 47l-47 15c-11-23-29-39-63-39-53 1-75 33-75 86" id="aY"/><g id="l"><use transform="matrix(0.05,0,0,0.05,0,0)" xlink:href="#aY"/><use transform="matrix(0.05,0,0,0.05,14,0)" xlink:href="#ap"/><use transform="matrix(0.05,0,0,0.05,24,0)" xlink:href="#ao"/></g><g id="m"><use transform="matrix(0.05,0,0,0.05,0,0)" xlink:href="#as"/><use transform="matrix(0.05,0,0,0.05,5,0)" xlink:href="#an"/><use transform="matrix(0.05,0,0,0.05,15.950000000000001,0)" xlink:href="#ao"/><use transform="matrix(0.05,0,0,0.05,21.900000000000002,0)" xlink:href="#ap"/><use transform="matrix(0.05,0,0,0.05,31.900000000000002,0)" xlink:href="#aq"/><use transform="matrix(0.05,0,0,0.05,38.900000000000006,0)" xlink:href="#ar"/><use transform="matrix(0.05,0,0,0.05,48.900000000000006,0)" xlink:href="#as"/><use transform="matrix(0.05,0,0,0.05,53.900000000000006,0)" xlink:href="#ap"/><use transform="matrix(0.05,0,0,0.05,63.900000000000006,0)" xlink:href="#at"/></g><g id="n"><use transform="matrix(0.05,0,0,0.05,0,0)" xlink:href="#aT"/><use transform="matrix(0.05,0,0,0.05,10.950000000000001,0)" xlink:href="#ap"/><use transform="matrix(0.05,0,0,0.05,20.950000000000003,0)" xlink:href="#ao"/><use transform="matrix(0.05,0,0,0.05,26.900000000000002,0)" xlink:href="#aR"/><use transform="matrix(0.05,0,0,0.05,36.900000000000006,0)" xlink:href="#as"/><use transform="matrix(0.05,0,0,0.05,41.900000000000006,0)" xlink:href="#aX"/><use transform="matrix(0.05,0,0,0.05,46.900000000000006,0)" xlink:href="#aV"/></g><path fill="#333" d="M121-226c-27-7-43 5-38 36h38v33H83V0H34v-157H6v-33h28c-9-59 32-81 87-68v32" id="aZ"/><g id="o"><use transform="matrix(0.05,0,0,0.05,0,0)" xlink:href="#an"/><use transform="matrix(0.05,0,0,0.05,10.950000000000001,0)" xlink:href="#aW"/><use transform="matrix(0.05,0,0,0.05,21.900000000000002,0)" xlink:href="#ao"/><use transform="matrix(0.05,0,0,0.05,27.85,0)" xlink:href="#as"/><use transform="matrix(0.05,0,0,0.05,32.85,0)" xlink:href="#aZ"/><use transform="matrix(0.05,0,0,0.05,38.800000000000004,0)" xlink:href="#as"/><use transform="matrix(0.05,0,0,0.05,43.800000000000004,0)" xlink:href="#aU"/><use transform="matrix(0.05,0,0,0.05,53.800000000000004,0)" xlink:href="#aR"/><use transform="matrix(0.05,0,0,0.05,63.800000000000004,0)" xlink:href="#ao"/><use transform="matrix(0.05,0,0,0.05,69.75,0)" xlink:href="#as"/><use transform="matrix(0.05,0,0,0.05,74.75,0)" xlink:href="#aW"/><use transform="matrix(0.05,0,0,0.05,85.7,0)" xlink:href="#an"/></g><path d="M24 0v-248h52v208h133V0H24" id="ba"/><path d="M110-194c64 0 96 36 96 99 0 64-35 99-97 99-61 0-95-36-95-99 0-62 34-99 96-99zm-1 164c35 0 45-28 45-65 0-40-10-65-43-65-34 0-45 26-45 65 0 36 10 65 43 65" id="bb"/><path d="M195-6C206 82 75 100 31 46c-4-6-6-13-8-21l49-6c3 16 16 24 34 25 40 0 42-37 40-79-11 22-30 35-61 35-53 0-70-43-70-97 0-56 18-96 73-97 30 0 46 14 59 34l2-30h47zm-90-29c32 0 41-27 41-63 0-35-9-62-40-62-32 0-39 29-40 63 0 36 9 62 39 62" id="bc"/><g id="p"><use transform="matrix(0.05,0,0,0.05,0,0)" xlink:href="#ba"/><use transform="matrix(0.05,0,0,0.05,10.950000000000001,0)" xlink:href="#bb"/><use transform="matrix(0.05,0,0,0.05,21.900000000000002,0)" xlink:href="#bc"/></g><path d="M25-224v-37h50v37H25zM25 0v-190h50V0H25" id="bd"/><path d="M135-194c87-1 58 113 63 194h-50c-7-57 23-157-34-157-59 0-34 97-39 157H25l-1-190h47c2 12-1 28 3 38 12-26 28-41 61-42" id="be"/><path d="M115-3C79 11 28 4 28-45v-112H4v-33h27l15-45h31v45h36v33H77v99c-1 23 16 31 38 25v30" id="bf"/><path d="M185-48c-13 30-37 53-82 52C43 2 14-33 14-96s30-98 90-98c62 0 83 45 84 108H66c0 31 8 55 39 56 18 0 30-7 34-22zm-45-69c5-46-57-63-70-21-2 6-4 13-4 21h74" id="bg"/><path d="M135-150c-39-12-60 13-60 57V0H25l-1-190h47c2 13-1 29 3 40 6-28 27-53 61-41v41" id="bh"/><path d="M128 0H69L1-190h53L99-40l48-150h52" id="bi"/><path d="M231 0h-52l-39-155L100 0H48L-1-190h46L77-45c9-52 24-97 36-145h53l37 145 32-145h46" id="bj"/><g id="q"><use transform="matrix(0.05,0,0,0.05,0,0)" xlink:href="#bd"/><use transform="matrix(0.05,0,0,0.05,5,0)" xlink:href="#be"/><use transform="matrix(0.05,0,0,0.05,15.950000000000001,0)" xlink:href="#bf"/><use transform="matrix(0.05,0,0,0.05,21.900000000000002,0)" xlink:href="#bg"/><use transform="matrix(0.05,0,0,0.05,31.900000000000002,0)" xlink:href="#bh"/><use transform="matrix(0.05,0,0,0.05,38.900000000000006,0)" xlink:href="#bi"/><use transform="matrix(0.05,0,0,0.05,48.900000000000006,0)" xlink:href="#bd"/><use transform="matrix(0.05,0,0,0.05,53.900000000000006,0)" xlink:href="#bg"/><use transform="matrix(0.05,0,0,0.05,63.900000000000006,0)" xlink:href="#bj"/></g><path d="M88-194c31-1 46 15 58 34l-1-101h50l1 261h-48c-2-10 0-23-3-31C134-8 116 4 84 4 32 4 16-41 15-95c0-56 19-97 73-99zm17 164c33 0 40-30 41-66 1-37-9-64-41-64s-38 30-39 65c0 43 13 65 39 65" id="bk"/><path d="M133-34C117-15 103 5 69 4 32 3 11-16 11-54c-1-60 55-63 116-61 1-26-3-47-28-47-18 1-26 9-28 27l-52-2c7-38 36-58 82-57s74 22 75 68l1 82c-1 14 12 18 25 15v27c-30 8-71 5-69-32zm-48 3c29 0 43-24 42-57-32 0-66-3-65 30 0 17 8 27 23 27" id="bl"/><path d="M25 0v-261h50V0H25" id="bm"/><path d="M137-138c1-29-70-34-71-4 15 46 118 7 119 86 1 83-164 76-172 9l43-7c4 19 20 25 44 25 33 8 57-30 24-41C81-84 22-81 20-136c-2-80 154-74 161-7" id="bn"/><g id="r"><use transform="matrix(0.05,0,0,0.05,0,0)" xlink:href="#bk"/><use transform="matrix(0.05,0,0,0.05,10.950000000000001,0)" xlink:href="#bg"/><use transform="matrix(0.05,0,0,0.05,20.950000000000003,0)" xlink:href="#bf"/><use transform="matrix(0.05,0,0,0.05,26.900000000000002,0)" xlink:href="#bl"/><use transform="matrix(0.05,0,0,0.05,36.900000000000006,0)" xlink:href="#bd"/><use transform="matrix(0.05,0,0,0.05,41.900000000000006,0)" xlink:href="#bm"/><use transform="matrix(0.05,0,0,0.05,46.900000000000006,0)" xlink:href="#bn"/></g><g id="s"><use transform="matrix(0.05,0,0,0.05,0,0)" xlink:href="#bb"/><use transform="matrix(0.05,0,0,0.05,10.950000000000001,0)" xlink:href="#be"/></g><g id="t"><use transform="matrix(0.05,0,0,0.05,0,0)" xlink:href="#bf"/><use transform="matrix(0.05,0,0,0.05,5.95,0)" xlink:href="#bb"/></g><path d="M123 10C108 53 80 86 19 72V37c35 8 53-11 59-39L3-190h52l48 148c12-52 28-100 44-148h51" id="bo"/><path d="M220-157c-53 9-28 100-34 157h-49v-107c1-27-5-49-29-50C55-147 81-57 75 0H25l-1-190h47c2 12-1 28 3 38 10-53 101-56 108 0 13-22 24-43 59-42 82 1 51 116 57 194h-49v-107c-1-25-5-48-29-50" id="bp"/><path d="M67-93c0 74 22 123 53 168H70C40 30 18-18 18-93s22-123 52-168h50c-32 44-53 94-53 168" id="bq"/><path d="M76-54c-1 42 2 86-19 110H24C36 42 46 24 48 0H25v-54h51" id="br"/><path d="M190-63c-7 42-38 67-86 67-59 0-84-38-90-98-12-110 154-137 174-36l-49 2c-2-19-15-32-35-32-30 0-35 28-38 64-6 74 65 87 74 30" id="bs"/><path d="M102-93c0 74-22 123-52 168H0C30 29 54-18 53-93c0-74-22-123-53-168h50c30 45 52 94 52 168" id="bt"/><g id="u"><use transform="matrix(0.05,0,0,0.05,0,0)" xlink:href="#bn"/><use transform="matrix(0.05,0,0,0.05,10,0)" xlink:href="#bo"/><use transform="matrix(0.05,0,0,0.05,20,0)" xlink:href="#bn"/><use transform="matrix(0.05,0,0,0.05,30,0)" xlink:href="#bf"/><use transform="matrix(0.05,0,0,0.05,35.95,0)" xlink:href="#bg"/><use transform="matrix(0.05,0,0,0.05,45.95,0)" xlink:href="#bp"/><use transform="matrix(0.05,0,0,0.05,61.95,0)" xlink:href="#bq"/><use transform="matrix(0.05,0,0,0.05,67.9,0)" xlink:href="#bk"/><use transform="matrix(0.05,0,0,0.05,78.85000000000001,0)" xlink:href="#bl"/><use transform="matrix(0.05,0,0,0.05,88.85000000000001,0)" xlink:href="#bf"/><use transform="matrix(0.05,0,0,0.05,94.80000000000001,0)" xlink:href="#bg"/><use transform="matrix(0.05,0,0,0.05,104.80000000000001,0)" xlink:href="#br"/><use transform="matrix(0.05,0,0,0.05,109.80000000000001,0)" xlink:href="#bf"/><use transform="matrix(0.05,0,0,0.05,115.75,0)" xlink:href="#bd"/><use transform="matrix(0.05,0,0,0.05,120.75,0)" xlink:href="#bp"/><use transform="matrix(0.05,0,0,0.05,136.75,0)" xlink:href="#bg"/><use transform="matrix(0.05,0,0,0.05,146.75,0)" xlink:href="#br"/><use transform="matrix(0.05,0,0,0.05,151.75,0)" xlink:href="#bg"/><use transform="matrix(0.05,0,0,0.05,161.75,0)" xlink:href="#bf"/><use transform="matrix(0.05,0,0,0.05,167.7,0)" xlink:href="#bs"/><use transform="matrix(0.05,0,0,0.05,177.7,0)" xlink:href="#bt"/></g><path d="M20 75v-336h95v34H67V41h48v34H20" id="bu"/><path d="M240-174c0 40-23 61-54 70L253 0h-59l-57-94H76V0H24v-248c93 4 217-23 216 74zM76-134c48-2 112 12 112-38 0-48-66-32-112-35v73" id="bv"/><path d="M84 4C32 4 15-41 15-95c0-55 18-99 73-99 29 0 47 12 58 34l2-30h48l-1 265h-49V-32C136-9 114 4 84 4zm21-34c32 0 41-29 41-66 0-36-9-64-40-64-33 0-39 30-40 65 0 43 13 65 39 65" id="bw"/><path d="M85 4C-2 5 27-109 22-190h50c7 57-23 150 33 157 60-5 35-97 40-157h50l1 190h-47c-2-12 1-28-3-38-12 25-28 42-61 42" id="bx"/><g id="v"><use transform="matrix(0.05,0,0,0.05,0,0)" xlink:href="#bu"/><use transform="matrix(0.05,0,0,0.05,5.95,0)" xlink:href="#bv"/><use transform="matrix(0.05,0,0,0.05,18.900000000000002,0)" xlink:href="#bg"/><use transform="matrix(0.05,0,0,0.05,28.900000000000002,0)" xlink:href="#bw"/><use transform="matrix(0.05,0,0,0.05,39.85,0)" xlink:href="#bx"/><use transform="matrix(0.05,0,0,0.05,50.800000000000004,0)" xlink:href="#bg"/><use transform="matrix(0.05,0,0,0.05,60.800000000000004,0)" xlink:href="#bn"/><use transform="matrix(0.05,0,0,0.05,70.80000000000001,0)" xlink:href="#bf"/></g><path d="M24 0v-248h52V0H24" id="by"/><g id="w"><use transform="matrix(0.05,0,0,0.05,0,0)" xlink:href="#by"/><use transform="matrix(0.05,0,0,0.05,5,0)" xlink:href="#be"/><use transform="matrix(0.05,0,0,0.05,15.950000000000001,0)" xlink:href="#bf"/><use transform="matrix(0.05,0,0,0.05,21.900000000000002,0)" xlink:href="#bg"/><use transform="matrix(0.05,0,0,0.05,31.900000000000002,0)" xlink:href="#bh"/><use transform="matrix(0.05,0,0,0.05,38.900000000000006,0)" xlink:href="#bi"/><use transform="matrix(0.05,0,0,0.05,48.900000000000006,0)" xlink:href="#bd"/><use transform="matrix(0.05,0,0,0.05,53.900000000000006,0)" xlink:href="#bg"/><use transform="matrix(0.05,0,0,0.05,63.900000000000006,0)" xlink:href="#bj"/></g><path d="M24-248c120-7 223 5 221 122C244-46 201 0 124 0H24v-248zM76-40c74 7 117-18 117-86 0-67-45-88-117-82v168" id="bz"/><g id="x"><use transform="matrix(0.05,0,0,0.05,0,0)" xlink:href="#bz"/><use transform="matrix(0.05,0,0,0.05,12.950000000000001,0)" xlink:href="#bg"/><use transform="matrix(0.05,0,0,0.05,22.950000000000003,0)" xlink:href="#bf"/><use transform="matrix(0.05,0,0,0.05,28.900000000000002,0)" xlink:href="#bl"/><use transform="matrix(0.05,0,0,0.05,38.900000000000006,0)" xlink:href="#bd"/><use transform="matrix(0.05,0,0,0.05,43.900000000000006,0)" xlink:href="#bm"/><use transform="matrix(0.05,0,0,0.05,48.900000000000006,0)" xlink:href="#bn"/></g><path d="M67-125c0 53 21 87 73 88 37 1 54-22 65-47l45 17C233-25 199 4 140 4 58 4 20-42 15-125 8-235 124-281 211-232c18 10 29 29 36 50l-46 12c-8-25-30-41-62-41-52 0-71 34-72 86" id="bA"/><path d="M114-157C55-157 80-60 75 0H25v-261h50l-1 109c12-26 28-41 61-42 86-1 58 113 63 194h-50c-7-57 23-157-34-157" id="bB"/><path d="M4 75V41h49v-268H4v-34h96V75H4" id="bC"/><g id="y"><use transform="matrix(0.05,0,0,0.05,0,0)" xlink:href="#bA"/><use transform="matrix(0.05,0,0,0.05,12.950000000000001,0)" xlink:href="#bB"/><use transform="matrix(0.05,0,0,0.05,23.900000000000002,0)" xlink:href="#bl"/><use transform="matrix(0.05,0,0,0.05,33.900000000000006,0)" xlink:href="#be"/><use transform="matrix(0.05,0,0,0.05,44.85000000000001,0)" xlink:href="#bc"/><use transform="matrix(0.05,0,0,0.05,55.80000000000001,0)" xlink:href="#bg"/><use transform="matrix(0.05,0,0,0.05,65.80000000000001,0)" xlink:href="#bC"/></g><path d="M24-248c93 1 206-16 204 79-1 75-69 88-152 82V0H24v-248zm52 121c47 0 100 7 100-41 0-47-54-39-100-39v80" id="bD"/><path d="M35-132v-50h50v50H35zM35 0v-49h50V0H35" id="bE"/><g id="z"><use transform="matrix(0.05,0,0,0.05,0,0)" xlink:href="#bD"/><use transform="matrix(0.05,0,0,0.05,12,0)" xlink:href="#bh"/><use transform="matrix(0.05,0,0,0.05,19,0)" xlink:href="#bg"/><use transform="matrix(0.05,0,0,0.05,29,0)" xlink:href="#bs"/><use transform="matrix(0.05,0,0,0.05,39,0)" xlink:href="#bb"/><use transform="matrix(0.05,0,0,0.05,49.95,0)" xlink:href="#be"/><use transform="matrix(0.05,0,0,0.05,60.900000000000006,0)" xlink:href="#bk"/><use transform="matrix(0.05,0,0,0.05,71.85000000000001,0)" xlink:href="#bd"/><use transform="matrix(0.05,0,0,0.05,76.85000000000001,0)" xlink:href="#bf"/><use transform="matrix(0.05,0,0,0.05,82.80000000000001,0)" xlink:href="#bd"/><use transform="matrix(0.05,0,0,0.05,87.80000000000001,0)" xlink:href="#bb"/><use transform="matrix(0.05,0,0,0.05,98.75000000000001,0)" xlink:href="#be"/><use transform="matrix(0.05,0,0,0.05,109.7,0)" xlink:href="#bn"/><use transform="matrix(0.05,0,0,0.05,119.7,0)" xlink:href="#bE"/></g><path d="M23 0v-37h61v-169l-59 37v-38l62-41h46v211h57V0H23" id="bF"/><path d="M24 0v-54h51V0H24" id="bG"/><path d="M238-95c0 69-44 99-111 99C63 4 22-25 22-93v-155h51v151c-1 38 19 59 55 60 90 1 49-130 58-211h52v153" id="bH"/><g id="A"><use transform="matrix(0.05,0,0,0.05,0,0)" xlink:href="#bF"/><use transform="matrix(0.05,0,0,0.05,10,0)" xlink:href="#bG"/><use transform="matrix(0.05,0,0,0.05,15,0)" xlink:href="#bH"/><use transform="matrix(0.05,0,0,0.05,27.950000000000003,0)" xlink:href="#bn"/><use transform="matrix(0.05,0,0,0.05,37.95,0)" xlink:href="#bg"/><use transform="matrix(0.05,0,0,0.05,47.95,0)" xlink:href="#bh"/></g><g id="B"><use transform="matrix(0.05,0,0,0.05,0,0)" xlink:href="#bl"/><use transform="matrix(0.05,0,0,0.05,10,0)" xlink:href="#bm"/><use transform="matrix(0.05,0,0,0.05,15,0)" xlink:href="#bh"/><use transform="matrix(0.05,0,0,0.05,22,0)" xlink:href="#bg"/><use transform="matrix(0.05,0,0,0.05,32,0)" xlink:href="#bl"/><use transform="matrix(0.05,0,0,0.05,42,0)" xlink:href="#bk"/><use transform="matrix(0.05,0,0,0.05,52.95,0)" xlink:href="#bo"/></g><g id="C"><use transform="matrix(0.05,0,0,0.05,0,0)" xlink:href="#bm"/><use transform="matrix(0.05,0,0,0.05,5,0)" xlink:href="#bb"/><use transform="matrix(0.05,0,0,0.05,15.950000000000001,0)" xlink:href="#bc"/><use transform="matrix(0.05,0,0,0.05,26.900000000000002,0)" xlink:href="#bc"/><use transform="matrix(0.05,0,0,0.05,37.85,0)" xlink:href="#bg"/><use transform="matrix(0.05,0,0,0.05,47.85,0)" xlink:href="#bk"/></g><g id="D"><use transform="matrix(0.05,0,0,0.05,0,0)" xlink:href="#bd"/><use transform="matrix(0.05,0,0,0.05,5,0)" xlink:href="#be"/></g><path d="M182-182c0 78-84 86-111 141h115V0H12c-6-101 99-100 120-180 1-22-12-31-33-32-23 0-32 14-35 34l-49-3c5-45 32-70 84-70 51 0 83 22 83 69" id="bI"/><g id="E"><use transform="matrix(0.05,0,0,0.05,0,0)" xlink:href="#bI"/><use transform="matrix(0.05,0,0,0.05,10,0)" xlink:href="#bG"/><use transform="matrix(0.05,0,0,0.05,15,0)" xlink:href="#by"/><use transform="matrix(0.05,0,0,0.05,20,0)" xlink:href="#be"/><use transform="matrix(0.05,0,0,0.05,30.950000000000003,0)" xlink:href="#be"/><use transform="matrix(0.05,0,0,0.05,41.900000000000006,0)" xlink:href="#bb"/><use transform="matrix(0.05,0,0,0.05,52.85,0)" xlink:href="#bi"/><use transform="matrix(0.05,0,0,0.05,62.85,0)" xlink:href="#bl"/><use transform="matrix(0.05,0,0,0.05,72.85000000000001,0)" xlink:href="#bf"/><use transform="matrix(0.05,0,0,0.05,78.80000000000001,0)" xlink:href="#bb"/><use transform="matrix(0.05,0,0,0.05,89.75000000000001,0)" xlink:href="#bh"/><use transform="matrix(0.05,0,0,0.05,96.75000000000001,0)" xlink:href="#bn"/></g><g id="F"><use transform="matrix(0.05,0,0,0.05,0,0)" xlink:href="#bd"/><use transform="matrix(0.05,0,0,0.05,5,0)" xlink:href="#bk"/><use transform="matrix(0.05,0,0,0.05,15.950000000000001,0)" xlink:href="#bg"/><use transform="matrix(0.05,0,0,0.05,25.950000000000003,0)" xlink:href="#bl"/></g><path d="M135-194c53 0 70 44 70 98 0 56-19 98-73 100-31 1-45-17-59-34 3 33 2 69 2 105H25l-1-265h48c2 10 0 23 3 31 11-24 29-35 60-35zM114-30c33 0 39-31 40-66 0-38-9-64-40-64-56 0-55 130 0 130" id="bJ"/><g id="G"><use transform="matrix(0.05,0,0,0.05,0,0)" xlink:href="#bl"/><use transform="matrix(0.05,0,0,0.05,10,0)" xlink:href="#bs"/><use transform="matrix(0.05,0,0,0.05,20,0)" xlink:href="#bs"/><use transform="matrix(0.05,0,0,0.05,30,0)" xlink:href="#bg"/><use transform="matrix(0.05,0,0,0.05,40,0)" xlink:href="#bJ"/><use transform="matrix(0.05,0,0,0.05,50.95,0)" xlink:href="#bf"/><use transform="matrix(0.05,0,0,0.05,56.900000000000006,0)" xlink:href="#bg"/><use transform="matrix(0.05,0,0,0.05,66.9,0)" xlink:href="#bk"/></g><path d="M135-194c52 0 70 43 70 98 0 56-19 99-73 100-30 1-46-15-58-35L72 0H24l1-261h50v104c11-23 29-37 60-37zM114-30c31 0 40-27 40-66 0-37-7-63-39-63s-41 28-41 65c0 36 8 64 40 64" id="bK"/><g id="H"><use transform="matrix(0.05,0,0,0.05,0,0)" xlink:href="#bK"/><use transform="matrix(0.05,0,0,0.05,10.950000000000001,0)" xlink:href="#bo"/></g><g id="I"><use transform="matrix(0.05,0,0,0.05,0,0)" xlink:href="#bd"/><use transform="matrix(0.05,0,0,0.05,5,0)" xlink:href="#be"/><use transform="matrix(0.05,0,0,0.05,15.950000000000001,0)" xlink:href="#bi"/><use transform="matrix(0.05,0,0,0.05,25.950000000000003,0)" xlink:href="#bg"/><use transform="matrix(0.05,0,0,0.05,35.95,0)" xlink:href="#bn"/><use transform="matrix(0.05,0,0,0.05,45.95,0)" xlink:href="#bf"/><use transform="matrix(0.05,0,0,0.05,51.900000000000006,0)" xlink:href="#bb"/><use transform="matrix(0.05,0,0,0.05,62.85,0)" xlink:href="#bh"/></g><path fill="#333" d="M24 0v-248h52v208h133V0H24" id="bL"/><g id="K"><use transform="matrix(0.05,0,0,0.05,0,0)" xlink:href="#bL"/><use transform="matrix(0.05,0,0,0.05,10.950000000000001,0)" xlink:href="#as"/><use transform="matrix(0.05,0,0,0.05,15.950000000000001,0)" xlink:href="#aR"/><use transform="matrix(0.05,0,0,0.05,25.950000000000003,0)" xlink:href="#aV"/><use transform="matrix(0.05,0,0,0.05,35.95,0)" xlink:href="#ap"/></g><path fill="#333" d="M114-157C55-157 80-60 75 0H25v-261h50l-1 109c12-26 28-41 61-42 86-1 58 113 63 194h-50c-7-57 23-157-34-157" id="bM"/><g id="L"><use transform="matrix(0.05,0,0,0.05,0,0)" xlink:href="#at"/><use transform="matrix(0.05,0,0,0.05,14,0)" xlink:href="#as"/><use transform="matrix(0.05,0,0,0.05,19,0)" xlink:href="#ao"/><use transform="matrix(0.05,0,0,0.05,24.95,0)" xlink:href="#bM"/></g><path fill="#333" d="M67-93c0 74 22 123 53 168H70C40 30 18-18 18-93s22-123 52-168h50c-32 44-53 94-53 168" id="bN"/><g id="M"><use transform="matrix(0.05,0,0,0.05,0,0)" xlink:href="#as"/><use transform="matrix(0.05,0,0,0.05,5,0)" xlink:href="#an"/><use transform="matrix(0.05,0,0,0.05,15.950000000000001,0)" xlink:href="#ar"/><use transform="matrix(0.05,0,0,0.05,25.950000000000003,0)" xlink:href="#ap"/><use transform="matrix(0.05,0,0,0.05,35.95,0)" xlink:href="#aV"/><use transform="matrix(0.05,0,0,0.05,45.95,0)" xlink:href="#ao"/><use transform="matrix(0.05,0,0,0.05,51.900000000000006,0)" xlink:href="#aW"/><use transform="matrix(0.05,0,0,0.05,62.85,0)" xlink:href="#aq"/><use transform="matrix(0.05,0,0,0.05,69.85000000000001,0)" xlink:href="#bN"/><use transform="matrix(0.05,0,0,0.05,75.80000000000001,0)" xlink:href="#as"/><use transform="matrix(0.05,0,0,0.05,80.80000000000001,0)" xlink:href="#aZ"/></g><g id="N"><use transform="matrix(0.05,0,0,0.05,0,0)" xlink:href="#an"/><use transform="matrix(0.05,0,0,0.05,10.950000000000001,0)" xlink:href="#ap"/><use transform="matrix(0.05,0,0,0.05,20.950000000000003,0)" xlink:href="#ap"/><use transform="matrix(0.05,0,0,0.05,30.950000000000003,0)" xlink:href="#aT"/></g><path fill="#333" d="M135-194c52 0 70 43 70 98 0 56-19 99-73 100-30 1-46-15-58-35L72 0H24l1-261h50v104c11-23 29-37 60-37zM114-30c31 0 40-27 40-66 0-37-7-63-39-63s-41 28-41 65c0 36 8 64 40 64" id="bO"/><path fill="#333" d="M102-93c0 74-22 123-52 168H0C30 29 54-18 53-93c0-74-22-123-53-168h50c30 45 52 94 52 168" id="bP"/><g id="O"><use transform="matrix(0.05,0,0,0.05,0,0)" xlink:href="#bO"/><use transform="matrix(0.05,0,0,0.05,10.950000000000001,0)" xlink:href="#ap"/><use transform="matrix(0.05,0,0,0.05,20.950000000000003,0)" xlink:href="#bP"/></g><path fill="#333" d="M195-6C206 82 75 100 31 46c-4-6-6-13-8-21l49-6c3 16 16 24 34 25 40 0 42-37 40-79-11 22-30 35-61 35-53 0-70-43-70-97 0-56 18-96 73-97 30 0 46 14 59 34l2-30h47zm-90-29c32 0 41-27 41-63 0-35-9-62-40-62-32 0-39 29-40 63 0 36 9 62 39 62" id="bQ"/><g id="P"><use transform="matrix(0.05,0,0,0.05,0,0)" xlink:href="#aU"/><use transform="matrix(0.05,0,0,0.05,10,0)" xlink:href="#bM"/><use transform="matrix(0.05,0,0,0.05,20.950000000000003,0)" xlink:href="#aR"/><use transform="matrix(0.05,0,0,0.05,30.950000000000003,0)" xlink:href="#an"/><use transform="matrix(0.05,0,0,0.05,41.900000000000006,0)" xlink:href="#bQ"/><use transform="matrix(0.05,0,0,0.05,52.85,0)" xlink:href="#ap"/></g><g id="Q"><use transform="matrix(0.05,0,0,0.05,0,0)" xlink:href="#as"/><use transform="matrix(0.05,0,0,0.05,5,0)" xlink:href="#an"/><use transform="matrix(0.05,0,0,0.05,15.950000000000001,0)" xlink:href="#ao"/><use transform="matrix(0.05,0,0,0.05,21.900000000000002,0)" xlink:href="#ap"/><use transform="matrix(0.05,0,0,0.05,31.900000000000002,0)" xlink:href="#aq"/><use transform="matrix(0.05,0,0,0.05,38.900000000000006,0)" xlink:href="#ar"/><use transform="matrix(0.05,0,0,0.05,48.900000000000006,0)" xlink:href="#as"/><use transform="matrix(0.05,0,0,0.05,53.900000000000006,0)" xlink:href="#ap"/><use transform="matrix(0.05,0,0,0.05,63.900000000000006,0)" xlink:href="#at"/></g><g id="R"><use transform="matrix(0.05,0,0,0.05,0,0)" xlink:href="#aT"/><use transform="matrix(0.05,0,0,0.05,10.950000000000001,0)" xlink:href="#ap"/><use transform="matrix(0.05,0,0,0.05,20.950000000000003,0)" xlink:href="#ao"/><use transform="matrix(0.05,0,0,0.05,26.900000000000002,0)" xlink:href="#aR"/><use transform="matrix(0.05,0,0,0.05,36.900000000000006,0)" xlink:href="#as"/><use transform="matrix(0.05,0,0,0.05,41.900000000000006,0)" xlink:href="#aX"/><use transform="matrix(0.05,0,0,0.05,46.900000000000006,0)" xlink:href="#aV"/></g><g id="S"><use transform="matrix(0.05,0,0,0.05,0,0)" xlink:href="#bA"/><use transform="matrix(0.05,0,0,0.05,12.950000000000001,0)" xlink:href="#bB"/><use transform="matrix(0.05,0,0,0.05,23.900000000000002,0)" xlink:href="#bl"/><use transform="matrix(0.05,0,0,0.05,33.900000000000006,0)" xlink:href="#be"/><use transform="matrix(0.05,0,0,0.05,44.85000000000001,0)" xlink:href="#bc"/><use transform="matrix(0.05,0,0,0.05,55.80000000000001,0)" xlink:href="#bg"/></g><g id="T"><use transform="matrix(0.05,0,0,0.05,0,0)" xlink:href="#bd"/><use transform="matrix(0.05,0,0,0.05,5,0)" xlink:href="#be"/><use transform="matrix(0.05,0,0,0.05,15.950000000000001,0)" xlink:href="#bf"/><use transform="matrix(0.05,0,0,0.05,21.900000000000002,0)" xlink:href="#bg"/><use transform="matrix(0.05,0,0,0.05,31.900000000000002,0)" xlink:href="#bh"/><use transform="matrix(0.05,0,0,0.05,38.900000000000006,0)" xlink:href="#bi"/><use transform="matrix(0.05,0,0,0.05,48.900000000000006,0)" xlink:href="#bd"/><use transform="matrix(0.05,0,0,0.05,53.900000000000006,0)" xlink:href="#bg"/><use transform="matrix(0.05,0,0,0.05,63.900000000000006,0)" xlink:href="#bj"/></g><g id="U"><use transform="matrix(0.05,0,0,0.05,0,0)" xlink:href="#bk"/><use transform="matrix(0.05,0,0,0.05,10.950000000000001,0)" xlink:href="#bg"/><use transform="matrix(0.05,0,0,0.05,20.950000000000003,0)" xlink:href="#bf"/><use transform="matrix(0.05,0,0,0.05,26.900000000000002,0)" xlink:href="#bl"/><use transform="matrix(0.05,0,0,0.05,36.900000000000006,0)" xlink:href="#bd"/><use transform="matrix(0.05,0,0,0.05,41.900000000000006,0)" xlink:href="#bm"/><use transform="matrix(0.05,0,0,0.05,46.900000000000006,0)" xlink:href="#bn"/></g><path d="M67-125c0 54 23 88 75 88 28 0 53-7 68-21v-34h-60v-39h108v91C232-14 192 4 140 4 58 4 20-42 15-125 8-236 126-280 215-234c19 10 29 26 37 47l-47 15c-11-23-29-39-63-39-53 1-75 33-75 86" id="bR"/><g id="V"><use transform="matrix(0.05,0,0,0.05,0,0)" xlink:href="#bR"/><use transform="matrix(0.05,0,0,0.05,14,0)" xlink:href="#bg"/><use transform="matrix(0.05,0,0,0.05,24,0)" xlink:href="#bf"/></g><g id="W"><use transform="matrix(0.05,0,0,0.05,0,0)" xlink:href="#bk"/><use transform="matrix(0.05,0,0,0.05,10.950000000000001,0)" xlink:href="#bg"/><use transform="matrix(0.05,0,0,0.05,20.950000000000003,0)" xlink:href="#bf"/><use transform="matrix(0.05,0,0,0.05,26.900000000000002,0)" xlink:href="#bl"/><use transform="matrix(0.05,0,0,0.05,36.900000000000006,0)" xlink:href="#bd"/><use transform="matrix(0.05,0,0,0.05,41.900000000000006,0)" xlink:href="#bm"/><use transform="matrix(0.05,0,0,0.05,46.900000000000006,0)" xlink:href="#bn"/></g><path d="M121-226c-27-7-43 5-38 36h38v33H83V0H34v-157H6v-33h28c-9-59 32-81 87-68v32" id="bS"/><g id="X"><use transform="matrix(0.05,0,0,0.05,0,0)" xlink:href="#be"/><use transform="matrix(0.05,0,0,0.05,10.950000000000001,0)" xlink:href="#bb"/><use transform="matrix(0.05,0,0,0.05,21.900000000000002,0)" xlink:href="#bf"/><use transform="matrix(0.05,0,0,0.05,27.85,0)" xlink:href="#bd"/><use transform="matrix(0.05,0,0,0.05,32.85,0)" xlink:href="#bS"/><use transform="matrix(0.05,0,0,0.05,38.800000000000004,0)" xlink:href="#bd"/><use transform="matrix(0.05,0,0,0.05,43.800000000000004,0)" xlink:href="#bs"/><use transform="matrix(0.05,0,0,0.05,53.800000000000004,0)" xlink:href="#bl"/><use transform="matrix(0.05,0,0,0.05,63.800000000000004,0)" xlink:href="#bf"/><use transform="matrix(0.05,0,0,0.05,69.75,0)" xlink:href="#bd"/><use transform="matrix(0.05,0,0,0.05,74.75,0)" xlink:href="#bb"/><use transform="matrix(0.05,0,0,0.05,85.7,0)" xlink:href="#be"/></g><path d="M175 0L67-191c6 58 2 128 3 191H24v-248h59L193-55c-6-58-2-129-3-193h46V0h-61" id="bT"/><g id="Y"><use transform="matrix(0.05,0,0,0.05,0,0)" xlink:href="#bT"/><use transform="matrix(0.05,0,0,0.05,12.950000000000001,0)" xlink:href="#bb"/><use transform="matrix(0.05,0,0,0.05,23.900000000000002,0)" xlink:href="#bf"/><use transform="matrix(0.05,0,0,0.05,29.85,0)" xlink:href="#bd"/><use transform="matrix(0.05,0,0,0.05,34.85,0)" xlink:href="#bS"/><use transform="matrix(0.05,0,0,0.05,40.800000000000004,0)" xlink:href="#bo"/></g><g id="Z"><use transform="matrix(0.05,0,0,0.05,0,0)" xlink:href="#bd"/><use transform="matrix(0.05,0,0,0.05,5,0)" xlink:href="#be"/><use transform="matrix(0.05,0,0,0.05,15.950000000000001,0)" xlink:href="#be"/><use transform="matrix(0.05,0,0,0.05,26.900000000000002,0)" xlink:href="#bb"/><use transform="matrix(0.05,0,0,0.05,37.85,0)" xlink:href="#bi"/><use transform="matrix(0.05,0,0,0.05,47.85,0)" xlink:href="#bl"/><use transform="matrix(0.05,0,0,0.05,57.85,0)" xlink:href="#bf"/><use transform="matrix(0.05,0,0,0.05,63.800000000000004,0)" xlink:href="#bb"/><use transform="matrix(0.05,0,0,0.05,74.75,0)" xlink:href="#bh"/></g><g id="aa"><use transform="matrix(0.05,0,0,0.05,0,0)" xlink:href="#bb"/><use transform="matrix(0.05,0,0,0.05,10.950000000000001,0)" xlink:href="#bS"/></g><g id="ab"><use transform="matrix(0.05,0,0,0.05,0,0)" xlink:href="#bd"/><use transform="matrix(0.05,0,0,0.05,5,0)" xlink:href="#be"/><use transform="matrix(0.05,0,0,0.05,15.950000000000001,0)" xlink:href="#bf"/><use transform="matrix(0.05,0,0,0.05,21.900000000000002,0)" xlink:href="#bg"/><use transform="matrix(0.05,0,0,0.05,31.900000000000002,0)" xlink:href="#bh"/><use transform="matrix(0.05,0,0,0.05,38.900000000000006,0)" xlink:href="#bi"/><use transform="matrix(0.05,0,0,0.05,48.900000000000006,0)" xlink:href="#bd"/><use transform="matrix(0.05,0,0,0.05,53.900000000000006,0)" xlink:href="#bg"/><use transform="matrix(0.05,0,0,0.05,63.900000000000006,0)" xlink:href="#bj"/></g><path d="M230 0l2-204L168 0h-37L68-204 70 0H24v-248h70l56 185 57-185h69V0h-46" id="bU"/><path d="M147 0L96-86 75-71V0H25v-261h50v150l67-79h53l-66 74L201 0h-54" id="bV"/><g id="ac"><use transform="matrix(0.05,0,0,0.05,0,0)" xlink:href="#bU"/><use transform="matrix(0.05,0,0,0.05,14.950000000000001,0)" xlink:href="#bl"/><use transform="matrix(0.05,0,0,0.05,24.950000000000003,0)" xlink:href="#bV"/><use transform="matrix(0.05,0,0,0.05,34.95,0)" xlink:href="#bg"/></g><g id="ad"><use transform="matrix(0.05,0,0,0.05,0,0)" xlink:href="#bk"/><use transform="matrix(0.05,0,0,0.05,10.950000000000001,0)" xlink:href="#bg"/><use transform="matrix(0.05,0,0,0.05,20.950000000000003,0)" xlink:href="#bs"/><use transform="matrix(0.05,0,0,0.05,30.950000000000003,0)" xlink:href="#bd"/><use transform="matrix(0.05,0,0,0.05,35.95,0)" xlink:href="#bn"/><use transform="matrix(0.05,0,0,0.05,45.95,0)" xlink:href="#bd"/><use transform="matrix(0.05,0,0,0.05,50.95,0)" xlink:href="#bb"/><use transform="matrix(0.05,0,0,0.05,61.900000000000006,0)" xlink:href="#be"/></g><g id="ae"><use transform="matrix(0.05,0,0,0.05,0,0)" xlink:href="#bd"/><use transform="matrix(0.05,0,0,0.05,5,0)" xlink:href="#be"/><use transform="matrix(0.05,0,0,0.05,15.950000000000001,0)" xlink:href="#bf"/><use transform="matrix(0.05,0,0,0.05,21.900000000000002,0)" xlink:href="#bg"/><use transform="matrix(0.05,0,0,0.05,31.900000000000002,0)" xlink:href="#bh"/><use transform="matrix(0.05,0,0,0.05,38.900000000000006,0)" xlink:href="#bi"/><use transform="matrix(0.05,0,0,0.05,48.900000000000006,0)" xlink:href="#bd"/><use transform="matrix(0.05,0,0,0.05,53.900000000000006,0)" xlink:href="#bg"/><use transform="matrix(0.05,0,0,0.05,63.900000000000006,0)" xlink:href="#bj"/></g><path d="M199 0l-22-63H83L61 0H9l90-248h61L250 0h-51zm-33-102l-36-108c-10 38-24 72-36 108h72" id="bW"/><g id="af"><use transform="matrix(0.04938271604938272,0,0,0.04938271604938272,0,0)" xlink:href="#bu"/><use transform="matrix(0.04938271604938272,0,0,0.04938271604938272,5.8765432098765435,0)" xlink:href="#bW"/><use transform="matrix(0.04938271604938272,0,0,0.04938271604938272,18.666666666666668,0)" xlink:href="#bs"/><use transform="matrix(0.04938271604938272,0,0,0.04938271604938272,28.543209876543212,0)" xlink:href="#bs"/><use transform="matrix(0.04938271604938272,0,0,0.04938271604938272,38.41975308641976,0)" xlink:href="#bg"/><use transform="matrix(0.04938271604938272,0,0,0.04938271604938272,48.296296296296305,0)" xlink:href="#bJ"/><use transform="matrix(0.04938271604938272,0,0,0.04938271604938272,59.111111111111114,0)" xlink:href="#bf"/></g><g id="ag"><use transform="matrix(0.04938271604938272,0,0,0.04938271604938272,0,0)" xlink:href="#by"/><use transform="matrix(0.04938271604938272,0,0,0.04938271604938272,4.938271604938272,0)" xlink:href="#be"/><use transform="matrix(0.04938271604938272,0,0,0.04938271604938272,15.753086419753087,0)" xlink:href="#bf"/><use transform="matrix(0.04938271604938272,0,0,0.04938271604938272,21.62962962962963,0)" xlink:href="#bg"/><use transform="matrix(0.04938271604938272,0,0,0.04938271604938272,31.506172839506174,0)" xlink:href="#bh"/><use transform="matrix(0.04938271604938272,0,0,0.04938271604938272,38.41975308641975,0)" xlink:href="#bi"/><use transform="matrix(0.04938271604938272,0,0,0.04938271604938272,48.2962962962963,0)" xlink:href="#bd"/><use transform="matrix(0.04938271604938272,0,0,0.04938271604938272,53.23456790123457,0)" xlink:href="#bg"/><use transform="matrix(0.04938271604938272,0,0,0.04938271604938272,63.111111111111114,0)" xlink:href="#bj"/><use transform="matrix(0.04938271604938272,0,0,0.04938271604938272,76.93827160493828,0)" xlink:href="#bC"/></g><path d="M25-224v-37h50v37H25zM75 22c2 45-34 59-81 51V38c22 5 31-5 31-27v-201h50V22" id="bX"/><g id="ah"><use transform="matrix(0.05,0,0,0.05,0,0)" xlink:href="#bu"/><use transform="matrix(0.05,0,0,0.05,5.95,0)" xlink:href="#bv"/><use transform="matrix(0.05,0,0,0.05,18.900000000000002,0)" xlink:href="#bg"/><use transform="matrix(0.05,0,0,0.05,28.900000000000002,0)" xlink:href="#bX"/><use transform="matrix(0.05,0,0,0.05,33.900000000000006,0)" xlink:href="#bg"/><use transform="matrix(0.05,0,0,0.05,43.900000000000006,0)" xlink:href="#bs"/><use transform="matrix(0.05,0,0,0.05,53.900000000000006,0)" xlink:href="#bf"/></g><g id="ai"><use transform="matrix(0.05,0,0,0.05,0,0)" xlink:href="#by"/><use transform="matrix(0.05,0,0,0.05,5,0)" xlink:href="#be"/><use transform="matrix(0.05,0,0,0.05,15.950000000000001,0)" xlink:href="#bf"/><use transform="matrix(0.05,0,0,0.05,21.900000000000002,0)" xlink:href="#bg"/><use transform="matrix(0.05,0,0,0.05,31.900000000000002,0)" xlink:href="#bh"/><use transform="matrix(0.05,0,0,0.05,38.900000000000006,0)" xlink:href="#bi"/><use transform="matrix(0.05,0,0,0.05,48.900000000000006,0)" xlink:href="#bd"/><use transform="matrix(0.05,0,0,0.05,53.900000000000006,0)" xlink:href="#bg"/><use transform="matrix(0.05,0,0,0.05,63.900000000000006,0)" xlink:href="#bj"/><use transform="matrix(0.05,0,0,0.05,77.9,0)" xlink:href="#bC"/></g><path d="M169-182c-1-43-94-46-97-3 18 66 151 10 154 114 3 95-165 93-204 36-6-8-10-19-12-30l50-8c3 46 112 56 116 5-17-69-150-10-154-114-4-87 153-88 188-35 5 8 8 18 10 28" id="bY"/><g id="aj"><use transform="matrix(0.05,0,0,0.05,0,0)" xlink:href="#bY"/><use transform="matrix(0.05,0,0,0.05,12,0)" xlink:href="#bf"/><use transform="matrix(0.05,0,0,0.05,17.95,0)" xlink:href="#bb"/><use transform="matrix(0.05,0,0,0.05,28.899999999999995,0)" xlink:href="#bh"/><use transform="matrix(0.05,0,0,0.05,35.9,0)" xlink:href="#bg"/></g><g id="ak"><use transform="matrix(0.05,0,0,0.05,0,0)" xlink:href="#bA"/><use transform="matrix(0.05,0,0,0.05,12.950000000000001,0)" xlink:href="#bB"/><use transform="matrix(0.05,0,0,0.05,23.900000000000002,0)" xlink:href="#bb"/><use transform="matrix(0.05,0,0,0.05,34.85,0)" xlink:href="#bd"/><use transform="matrix(0.05,0,0,0.05,39.85,0)" xlink:href="#bs"/><use transform="matrix(0.05,0,0,0.05,49.85,0)" xlink:href="#bg"/></g><use transform="matrix(0.08641975308641976,0,0,0.08641975308641976,0,0)" xlink:href="#bl" id="al"/></defs></g></svg>