<svg xmlns="http://www.w3.org/2000/svg" xmlns:xlink="http://www.w3.org/1999/xlink" xmlns:lucid="lucid" width="1528" height="1180"><g transform="translate(-160 -160)" lucid:page-tab-id="0_0"><path d="M0 0h1870.4v1323.2H0z" fill="#fff"/><path d="M1268 180h400v120h-400z" fill="none"/><use xlink:href="#a" transform="matrix(1,0,0,1,1268,180) translate(140.64999999999998 31.19999999999999)"/><use xlink:href="#b" transform="matrix(1,0,0,1,1268,180) translate(50.32499999999999 52.79999999999999)"/><use xlink:href="#c" transform="matrix(1,0,0,1,1268,180) translate(157.175 52.79999999999999)"/><use xlink:href="#d" transform="matrix(1,0,0,1,1268,180) translate(232.025 52.79999999999999)"/><use xlink:href="#e" transform="matrix(1,0,0,1,1268,180) translate(268.925 52.79999999999999)"/><use xlink:href="#f" transform="matrix(1,0,0,1,1268,180) translate(123.67499999999998 74.39999999999999)"/><use xlink:href="#g" transform="matrix(1,0,0,1,1268,180) translate(208.425 74.39999999999999)"/><use xlink:href="#h" transform="matrix(1,0,0,1,1268,180) translate(229.375 74.39999999999999)"/><use xlink:href="#i" transform="matrix(1,0,0,1,1268,180) translate(14.400000000000006 96)"/><use xlink:href="#c" transform="matrix(1,0,0,1,1268,180) translate(66.30000000000001 96)"/><use xlink:href="#j" transform="matrix(1,0,0,1,1268,180) translate(141.15000000000003 96)"/><use xlink:href="#k" transform="matrix(1,0,0,1,1268,180) translate(177.10000000000002 96)"/><use xlink:href="#l" transform="matrix(1,0,0,1,1268,180) translate(259.95000000000005 96)"/><use xlink:href="#m" transform="matrix(1,0,0,1,1268,180) translate(291.85 96)"/><path d="M788 220h320v58.16H788z" fill="none"/><use xlink:href="#n" transform="matrix(1,0,0,1,787.9999999999999,220) translate(30.580246913580197 34.388888888888886)"/><use xlink:href="#o" transform="matrix(1,0,0,1,787.9999999999999,220) translate(161.9691358024691 34.388888888888886)"/><path d="M180 340v-40h528v40z" fill="#fff"/><path d="M180 340v980h528V340z" fill="none"/><path d="M708 340v-40h320v40z" fill="#fff"/><path d="M708 340v980h320V340z" fill="none"/><path d="M708 300v1020" stroke="#000" stroke-width="2" fill="none"/><path d="M1028 340v-40h320v40z" fill="#fff"/><path d="M1028 340v980h320V340z" fill="none"/><path d="M1028 300v1020" stroke="#000" stroke-width="2" fill="none"/><path d="M1348 300h320v40h-320z" fill="#fff"/><path d="M1668 340v980h-320V340z" fill="none"/><path d="M1348 300v1020M180 340h1488M180 340v-40h528m0 0h320m0 0h320m0 0h320v40m0 0v980h-320m-640 0h320m0 0h320M180 340v980h528" stroke="#000" stroke-width="2" fill="none"/><use xlink:href="#p" transform="matrix(1,0,0,1,180,300) translate(229.075 23.6)"/><use xlink:href="#q" transform="matrix(1,0,0,1,708,300) translate(119.625 23.6)"/><use xlink:href="#r" transform="matrix(1,0,0,1,1028,300) translate(104.05 23.6)"/><use xlink:href="#s" transform="matrix(1,0,0,1,1028,300) translate(154 23.6)"/><use xlink:href="#t" transform="matrix(1,0,0,1,1348,300) translate(86.14999999999999 23.6)"/><use xlink:href="#u" transform="matrix(1,0,0,1,1348,300) translate(153 23.6)"/><use xlink:href="#v" transform="matrix(1,0,0,1,1348,300) translate(203.9 23.6)"/><path d="M276 440c-8.84 0-16 7.16-16 16v48c0 8.84 7.16 16 16 16h128c8.84 0 16-7.16 16-16v-48c0-8.84-7.16-16-16-16z" stroke="#000" stroke-width="2" fill="#fff"/><use xlink:href="#w" transform="matrix(1,0,0,1,268,448) translate(7.099999999999994 35.6)"/><use xlink:href="#x" transform="matrix(1,0,0,1,268,448) translate(65.05 35.6)"/><path d="M360 380c0 11.05-8.95 20-20 20s-20-8.95-20-20 8.95-20 20-20 20 8.95 20 20z" stroke="#000" stroke-width="2"/><path d="M340 402v35.18" stroke="#000" stroke-width="2" fill="none"/><path d="M339.96 401l1.04-.03v1.06h-2v-1.15z"/><path d="M329.82 419.82L340 437.04l10.18-17.22" stroke="#000" stroke-width="2" fill="none"/><path d="M340 580l60 40-60 40-60-40zM1140 440c-11.05 0-20 8.95-20 20v60c0 11.05 8.95 20 20 20h120c11.05 0 20-8.95 20-20v-60c0-11.05-8.95-20-20-20z" stroke="#000" stroke-width="2" fill="#fff"/><use xlink:href="#y" transform="matrix(1,0,0,1,1128,448) translate(15.049999999999997 45.6)"/><use xlink:href="#z" transform="matrix(1,0,0,1,1128,448) translate(60.05 45.6)"/><path d="M340 522v54.98" stroke="#000" stroke-width="2" fill="none"/><path d="M341 522.03h-2V521h2z"/><path d="M329.82 559.62l10.18 17.2 10.18-17.2M402.8 620H448V390h752v47.18" stroke="#000" stroke-width="2" fill="none"/><path d="M402.83 621h-2.53l1.5-1-1.5-1h2.53z"/><path d="M1189.82 419.82l10.18 17.22 10.18-17.22" stroke="#000" stroke-width="2" fill="none"/><use xlink:href="#A" transform="matrix(1,0,0,1,512.1285609787546,364.4) translate(0 14.4)"/><use xlink:href="#B" transform="matrix(1,0,0,1,512.1285609787546,364.4) translate(55.95 14.4)"/><use xlink:href="#C" transform="matrix(1,0,0,1,512.1285609787546,364.4) translate(82.85000000000001 14.4)"/><use xlink:href="#D" transform="matrix(1,0,0,1,512.1285609787546,364.4) translate(113.80000000000001 14.4)"/><use xlink:href="#E" transform="matrix(1,0,0,1,512.1285609787546,364.4) translate(135.70000000000002 14.4)"/><path d="M340 662.2v39h447V490h330.18" stroke="#000" stroke-width="2" fill="none"/><path d="M340 661.2l1-.66v1.7h-2v-1.7z"/><path d="M1099.82 500.18l17.22-10.18-17.22-10.18" stroke="#000" stroke-width="2" fill="none"/><use xlink:href="#F" transform="matrix(1,0,0,1,538.420177661543,675.6018504251547) translate(0 14.4)"/><use xlink:href="#G" transform="matrix(1,0,0,1,538.420177661543,675.6018504251547) translate(50.900000000000006 14.4)"/><use xlink:href="#H" transform="matrix(1,0,0,1,538.420177661543,675.6018504251547) translate(91.80000000000001 14.4)"/><path d="M1136 840c-8.84 0-16 7.16-16 16v48c0 8.84 7.16 16 16 16h128c8.84 0 16-7.16 16-16v-48c0-8.84-7.16-16-16-16z" stroke="#000" stroke-width="2" fill="#fff"/><use xlink:href="#I" transform="matrix(1,0,0,1,1128,848) translate(4.224999999999994 35.6)"/><use xlink:href="#J" transform="matrix(1,0,0,1,1128,848) translate(58.025 35.6)"/><path d="M804 820c-8.84 0-16 7.16-16 16v48c0 8.84 7.16 16 16 16h128c8.84 0 16-7.16 16-16v-48c0-8.84-7.16-16-16-16z" stroke="#000" stroke-width="2" fill="#fff"/><use xlink:href="#K" transform="matrix(1,0,0,1,795.9999999999999,828) translate(1.0749999999999886 24.799999999999997)"/><use xlink:href="#L" transform="matrix(1,0,0,1,795.9999999999999,828) translate(74.02499999999999 24.799999999999997)"/><use xlink:href="#M" transform="matrix(1,0,0,1,795.9999999999999,828) translate(43.55 46.4)"/><path d="M1476 840c-8.84 0-16 7.16-16 16v48c0 8.84 7.16 16 16 16h128c8.84 0 16-7.16 16-16v-48c0-8.84-7.16-16-16-16z" stroke="#000" stroke-width="2" fill="#fff"/><use xlink:href="#N" transform="matrix(1,0,0,1,1468,848) translate(13.149999999999991 35.6)"/><use xlink:href="#O" transform="matrix(1,0,0,1,1468,848) translate(45.05 35.6)"/><path d="M1416 440c-8.84 0-16 7.16-16 16v48c0 8.84 7.16 16 16 16h128c8.84 0 16-7.16 16-16v-48c0-8.84-7.16-16-16-16z" stroke="#000" stroke-width="2" fill="#fff"/><use xlink:href="#P" transform="matrix(1,0,0,1,1408,448) translate(13.224999999999994 24.799999999999997)"/><use xlink:href="#Q" transform="matrix(1,0,0,1,1408,448) translate(58.87499999999999 24.799999999999997)"/><use xlink:href="#R" transform="matrix(1,0,0,1,1408,448) translate(49.025 46.4)"/><path d="M1282 490h58v-10h57.18" stroke="#000" stroke-width="2" fill="none"/><path d="M1282.03 491H1281v-2h1.03z"/><path d="M1379.82 490.18l17.22-10.18-17.22-10.18" stroke="#000" stroke-width="2" fill="none"/><path d="M1200 600l80 40-80 40-80-40z" stroke="#000" stroke-width="2" fill="#fff"/><path d="M1480 522v37.94h-280v37.12" stroke="#000" stroke-width="2" fill="none"/><path d="M1481 522.03h-2V521h2z"/><path d="M1189.82 579.7l10.18 17.22 10.18-17.22" stroke="#000" stroke-width="2" fill="none"/><path d="M1201 837.18h-2V755.6h2zm0-103.18h-2v-51.88h2z"/><path d="M1201 682.14h-2v-1.52l1 .5 1-.5zM1211.04 820.33L1200 839l-11.04-18.67 1.72-1.02 9.32 15.77 9.32-15.76z"/><use xlink:href="#S" transform="matrix(1,0,0,1,1073.05,734.0028968135114) translate(0 14.4)"/><use xlink:href="#T" transform="matrix(1,0,0,1,1073.05,734.0028968135114) translate(44 14.4)"/><use xlink:href="#U" transform="matrix(1,0,0,1,1073.05,734.0028968135114) translate(74 14.4)"/><use xlink:href="#V" transform="matrix(1,0,0,1,1073.05,734.0028968135114) translate(116.95 14.4)"/><use xlink:href="#W" transform="matrix(1,0,0,1,1073.05,734.0028968135114) translate(136.95 14.4)"/><use xlink:href="#X" transform="matrix(1,0,0,1,1073.05,734.0028968135114) translate(185.89999999999998 14.4)"/><path d="M257.18 481H239.2v248h431.73v2H237.2V479h19.98zm859.58 160h-37.28v90h-280.6v-2h278.6v-90h39.28z"/><path d="M1117.76 640l2 1h-3.02v-2h3.02zM259 480l-18.67 11.04-1.02-1.72 15.77-9.32-15.76-9.32 1.03-1.72z"/><use xlink:href="#Y" transform="matrix(1,0,0,1,670.934347414248,719.2) translate(0 14.4)"/><use xlink:href="#Z" transform="matrix(1,0,0,1,670.934347414248,719.2) translate(64 14.4)"/><path d="M1118 880h-84v-20h-83.18" stroke="#000" stroke-width="2" fill="none"/><path d="M1119 881h-1.03v-2h1.03z"/><path d="M968.18 849.82L950.96 860l17.22 10.18" stroke="#000" stroke-width="2" fill="none"/><path d="M804 960c-8.84 0-16 7.16-16 16v48c0 8.84 7.16 16 16 16h128c8.84 0 16-7.16 16-16v-48c0-8.84-7.16-16-16-16z" stroke="#000" stroke-width="2" fill="#fff"/><g><use xlink:href="#aa" transform="matrix(1,0,0,1,796,968) translate(21.075000000000003 24.799999999999997)"/><use xlink:href="#ab" transform="matrix(1,0,0,1,796,968) translate(67.025 24.799999999999997)"/><use xlink:href="#ac" transform="matrix(1,0,0,1,796,968) translate(41.05 46.4)"/></g><path d="M1136 960c-8.84 0-16 7.16-16 16v48c0 8.84 7.16 16 16 16h128c8.84 0 16-7.16 16-16v-48c0-8.84-7.16-16-16-16z" stroke="#000" stroke-width="2" fill="#fff"/><g><use xlink:href="#ad" transform="matrix(1,0,0,1,1128,968) translate(19.549999999999997 35.6)"/><use xlink:href="#ac" transform="matrix(1,0,0,1,1128,968) translate(62.55 35.6)"/></g><path d="M868 902v55.18" stroke="#000" stroke-width="2" fill="none"/><path d="M869 902.03h-2V901h2z"/><path d="M857.82 939.82L868 957.04l10.18-17.22M950 1000h167.18" stroke="#000" stroke-width="2" fill="none"/><path d="M950.03 1001H949v-2h1.03z"/><path d="M1099.82 1010.18l17.22-10.18-17.22-10.18M1282 1000h258v-77.18" stroke="#000" stroke-width="2" fill="none"/><path d="M1282.03 1001H1281v-2h1.03z"/><path d="M1550.18 940.18L1540 922.96l-10.18 17.22" stroke="#000" stroke-width="2" fill="none"/><path d="M1622 880h39v240h-358.18" stroke="#000" stroke-width="2" fill="none"/><path d="M1622.03 881H1621v-2h1.03z"/><path d="M1320.18 1109.82l-17.22 10.18 17.22 10.18" stroke="#000" stroke-width="2" fill="none"/><path d="M1156 1080c-8.84 0-16 7.16-16 16v48c0 8.84 7.16 16 16 16h128c8.84 0 16-7.16 16-16v-48c0-8.84-7.16-16-16-16z" stroke="#000" stroke-width="2" fill="#fff"/><g><use xlink:href="#ae" transform="matrix(1,0,0,1,1148,1088) translate(2.125 35.6)"/><use xlink:href="#af" transform="matrix(1,0,0,1,1148,1088) translate(65.025 35.6)"/></g><path d="M1156 1200c-8.84 0-16 7.16-16 16v48c0 8.84 7.16 16 16 16h128c8.84 0 16-7.16 16-16v-48c0-8.84-7.16-16-16-16z" stroke="#000" stroke-width="2" fill="#fff"/><g><use xlink:href="#ag" transform="matrix(1,0,0,1,1148,1208) translate(3.125 35.6)"/><use xlink:href="#af" transform="matrix(1,0,0,1,1148,1208) translate(64.025 35.6)"/></g><path d="M816 1211.2c-8.84 0-16 7.16-16 16v48c0 8.84 7.16 16 16 16h128c8.84 0 16-7.16 16-16v-48c0-8.84-7.16-16-16-16z" stroke="#000" stroke-width="2" fill="#fff"/><g><use xlink:href="#ah" transform="matrix(1,0,0,1,808,1219.1999999999998) translate(13.125 35.6)"/><use xlink:href="#af" transform="matrix(1,0,0,1,808,1219.1999999999998) translate(54.025 35.6)"/></g><path d="M1220 1162v35.18" stroke="#000" stroke-width="2" fill="none"/><path d="M1221 1162.03h-2V1161h2z"/><path d="M1209.82 1179.82l10.18 17.22 10.18-17.22M1138 1240h-88v11.2h-87.18" stroke="#000" stroke-width="2" fill="none"/><path d="M1139 1241h-1.03v-2h1.03z"/><path d="M980.18 1241.02l-17.22 10.18 17.22 10.18" stroke="#000" stroke-width="2" fill="none"/><path d="M900 1120c0 11.05-8.95 20-20 20s-20-8.95-20-20 8.95-20 20-20 20 8.95 20 20z" stroke="#000" stroke-width="2" fill="#fff"/><path d="M892 1120c0 6.63-5.37 12-12 12s-12-5.37-12-12 5.37-12 12-12 12 5.37 12 12z" stroke="#000" stroke-width="2"/><path d="M880 1209.2v-66.38" stroke="#000" stroke-width="2" fill="none"/><path d="M881 1210.2h-2v-1.03h2z"/><path d="M890.18 1160.18l-10.18-17.2-10.18 17.2" stroke="#000" stroke-width="2" fill="none"/><defs><path d="M24-248c93 1 206-16 204 79-1 75-69 88-152 82V0H24v-248zm52 121c47 0 100 7 100-41 0-47-54-39-100-39v80" id="ai"/><path d="M135-150c-39-12-60 13-60 57V0H25l-1-190h47c2 13-1 29 3 40 6-28 27-53 61-41v41" id="aj"/><path d="M185-48c-13 30-37 53-82 52C43 2 14-33 14-96s30-98 90-98c62 0 83 45 84 108H66c0 31 8 55 39 56 18 0 30-7 34-22zm-45-69c5-46-57-63-70-21-2 6-4 13-4 21h74" id="ak"/><path d="M190-63c-7 42-38 67-86 67-59 0-84-38-90-98-12-110 154-137 174-36l-49 2c-2-19-15-32-35-32-30 0-35 28-38 64-6 74 65 87 74 30" id="al"/><path d="M110-194c64 0 96 36 96 99 0 64-35 99-97 99-61 0-95-36-95-99 0-62 34-99 96-99zm-1 164c35 0 45-28 45-65 0-40-10-65-43-65-34 0-45 26-45 65 0 36 10 65 43 65" id="am"/><path d="M135-194c87-1 58 113 63 194h-50c-7-57 23-157-34-157-59 0-34 97-39 157H25l-1-190h47c2 12-1 28 3 38 12-26 28-41 61-42" id="an"/><path d="M88-194c31-1 46 15 58 34l-1-101h50l1 261h-48c-2-10 0-23-3-31C134-8 116 4 84 4 32 4 16-41 15-95c0-56 19-97 73-99zm17 164c33 0 40-30 41-66 1-37-9-64-41-64s-38 30-39 65c0 43 13 65 39 65" id="ao"/><path d="M25-224v-37h50v37H25zM25 0v-190h50V0H25" id="ap"/><path d="M115-3C79 11 28 4 28-45v-112H4v-33h27l15-45h31v45h36v33H77v99c-1 23 16 31 38 25v30" id="aq"/><path d="M137-138c1-29-70-34-71-4 15 46 118 7 119 86 1 83-164 76-172 9l43-7c4 19 20 25 44 25 33 8 57-30 24-41C81-84 22-81 20-136c-2-80 154-74 161-7" id="ar"/><g id="a"><use transform="matrix(0.05,0,0,0.05,0,0)" xlink:href="#ai"/><use transform="matrix(0.05,0,0,0.05,12,0)" xlink:href="#aj"/><use transform="matrix(0.05,0,0,0.05,19,0)" xlink:href="#ak"/><use transform="matrix(0.05,0,0,0.05,29,0)" xlink:href="#al"/><use transform="matrix(0.05,0,0,0.05,39,0)" xlink:href="#am"/><use transform="matrix(0.05,0,0,0.05,49.95,0)" xlink:href="#an"/><use transform="matrix(0.05,0,0,0.05,60.900000000000006,0)" xlink:href="#ao"/><use transform="matrix(0.05,0,0,0.05,71.85000000000001,0)" xlink:href="#ap"/><use transform="matrix(0.05,0,0,0.05,76.85000000000001,0)" xlink:href="#aq"/><use transform="matrix(0.05,0,0,0.05,82.80000000000001,0)" xlink:href="#ap"/><use transform="matrix(0.05,0,0,0.05,87.80000000000001,0)" xlink:href="#am"/><use transform="matrix(0.05,0,0,0.05,98.75000000000001,0)" xlink:href="#an"/><use transform="matrix(0.05,0,0,0.05,109.7,0)" xlink:href="#ar"/></g><path d="M23 0v-37h61v-169l-59 37v-38l62-41h46v211h57V0H23" id="as"/><path d="M24 0v-54h51V0H24" id="at"/><path d="M195-6C206 82 75 100 31 46c-4-6-6-13-8-21l49-6c3 16 16 24 34 25 40 0 42-37 40-79-11 22-30 35-61 35-53 0-70-43-70-97 0-56 18-96 73-97 30 0 46 14 59 34l2-30h47zm-90-29c32 0 41-27 41-63 0-35-9-62-40-62-32 0-39 29-40 63 0 36 9 62 39 62" id="au"/><g id="b"><use transform="matrix(0.05,0,0,0.05,0,0)" xlink:href="#as"/><use transform="matrix(0.05,0,0,0.05,10,0)" xlink:href="#at"/><use transform="matrix(0.05,0,0,0.05,15,0)" xlink:href="#aj"/><use transform="matrix(0.05,0,0,0.05,22,0)" xlink:href="#ak"/><use transform="matrix(0.05,0,0,0.05,32,0)" xlink:href="#au"/><use transform="matrix(0.05,0,0,0.05,42.95,0)" xlink:href="#ap"/><use transform="matrix(0.05,0,0,0.05,47.95,0)" xlink:href="#ar"/><use transform="matrix(0.05,0,0,0.05,57.95,0)" xlink:href="#aq"/><use transform="matrix(0.05,0,0,0.05,63.900000000000006,0)" xlink:href="#ak"/><use transform="matrix(0.05,0,0,0.05,73.9,0)" xlink:href="#aj"/><use transform="matrix(0.05,0,0,0.05,80.9,0)" xlink:href="#ak"/><use transform="matrix(0.05,0,0,0.05,90.9,0)" xlink:href="#ao"/></g><path d="M128 0H69L1-190h53L99-40l48-150h52" id="av"/><g id="c"><use transform="matrix(0.05,0,0,0.05,0,0)" xlink:href="#ap"/><use transform="matrix(0.05,0,0,0.05,5,0)" xlink:href="#an"/><use transform="matrix(0.05,0,0,0.05,15.950000000000001,0)" xlink:href="#av"/><use transform="matrix(0.05,0,0,0.05,25.950000000000003,0)" xlink:href="#ak"/><use transform="matrix(0.05,0,0,0.05,35.95,0)" xlink:href="#ar"/><use transform="matrix(0.05,0,0,0.05,45.95,0)" xlink:href="#aq"/><use transform="matrix(0.05,0,0,0.05,51.900000000000006,0)" xlink:href="#am"/><use transform="matrix(0.05,0,0,0.05,62.85,0)" xlink:href="#aj"/></g><path d="M133-34C117-15 103 5 69 4 32 3 11-16 11-54c-1-60 55-63 116-61 1-26-3-47-28-47-18 1-26 9-28 27l-52-2c7-38 36-58 82-57s74 22 75 68l1 82c-1 14 12 18 25 15v27c-30 8-71 5-69-32zm-48 3c29 0 43-24 42-57-32 0-66-3-65 30 0 17 8 27 23 27" id="aw"/><g id="d"><use transform="matrix(0.05,0,0,0.05,0,0)" xlink:href="#aw"/><use transform="matrix(0.05,0,0,0.05,10,0)" xlink:href="#an"/><use transform="matrix(0.05,0,0,0.05,20.950000000000003,0)" xlink:href="#ao"/></g><g id="e"><use transform="matrix(0.05,0,0,0.05,0,0)" xlink:href="#ap"/><use transform="matrix(0.05,0,0,0.05,5,0)" xlink:href="#an"/><use transform="matrix(0.05,0,0,0.05,15.950000000000001,0)" xlink:href="#an"/><use transform="matrix(0.05,0,0,0.05,26.900000000000002,0)" xlink:href="#am"/><use transform="matrix(0.05,0,0,0.05,37.85,0)" xlink:href="#av"/><use transform="matrix(0.05,0,0,0.05,47.85,0)" xlink:href="#aw"/><use transform="matrix(0.05,0,0,0.05,57.85,0)" xlink:href="#aq"/><use transform="matrix(0.05,0,0,0.05,63.800000000000004,0)" xlink:href="#am"/><use transform="matrix(0.05,0,0,0.05,74.75,0)" xlink:href="#aj"/></g><path d="M182-182c0 78-84 86-111 141h115V0H12c-6-101 99-100 120-180 1-22-12-31-33-32-23 0-32 14-35 34l-49-3c5-45 32-70 84-70 51 0 83 22 83 69" id="ax"/><path d="M24 0v-248h52v208h133V0H24" id="ay"/><g id="f"><use transform="matrix(0.05,0,0,0.05,0,0)" xlink:href="#ax"/><use transform="matrix(0.05,0,0,0.05,10,0)" xlink:href="#at"/><use transform="matrix(0.05,0,0,0.05,15,0)" xlink:href="#ay"/><use transform="matrix(0.05,0,0,0.05,25.950000000000003,0)" xlink:href="#am"/><use transform="matrix(0.05,0,0,0.05,36.900000000000006,0)" xlink:href="#au"/><use transform="matrix(0.05,0,0,0.05,47.85000000000001,0)" xlink:href="#au"/><use transform="matrix(0.05,0,0,0.05,58.80000000000001,0)" xlink:href="#ak"/><use transform="matrix(0.05,0,0,0.05,68.80000000000001,0)" xlink:href="#ao"/></g><g id="g"><use transform="matrix(0.05,0,0,0.05,0,0)" xlink:href="#ap"/><use transform="matrix(0.05,0,0,0.05,5,0)" xlink:href="#an"/></g><path d="M85 4C-2 5 27-109 22-190h50c7 57-23 150 33 157 60-5 35-97 40-157h50l1 190h-47c-2-12 1-28-3-38-12 25-28 42-61 42" id="az"/><g id="h"><use transform="matrix(0.05,0,0,0.05,0,0)" xlink:href="#az"/><use transform="matrix(0.05,0,0,0.05,10.950000000000001,0)" xlink:href="#ar"/><use transform="matrix(0.05,0,0,0.05,20.950000000000003,0)" xlink:href="#ak"/><use transform="matrix(0.05,0,0,0.05,30.950000000000003,0)" xlink:href="#aj"/><use transform="matrix(0.05,0,0,0.05,37.95,0)" xlink:href="#ar"/></g><path d="M128-127c34 4 56 21 59 58 7 91-148 94-172 28-4-9-6-17-7-26l51-5c1 24 16 35 40 36 23 0 39-12 38-36-1-31-31-36-65-34v-40c32 2 59-3 59-33 0-20-13-33-34-33s-33 13-35 32l-50-3c6-44 37-68 86-68 50 0 83 20 83 66 0 35-22 52-53 58" id="aA"/><path d="M136-208V0H84v-208H4v-40h212v40h-80" id="aB"/><path d="M114-157C55-157 80-60 75 0H25v-261h50l-1 109c12-26 28-41 61-42 86-1 58 113 63 194h-50c-7-57 23-157-34-157" id="aC"/><g id="i"><use transform="matrix(0.05,0,0,0.05,0,0)" xlink:href="#aA"/><use transform="matrix(0.05,0,0,0.05,10,0)" xlink:href="#at"/><use transform="matrix(0.05,0,0,0.05,15,0)" xlink:href="#aB"/><use transform="matrix(0.05,0,0,0.05,25.950000000000003,0)" xlink:href="#aC"/><use transform="matrix(0.05,0,0,0.05,36.900000000000006,0)" xlink:href="#ak"/></g><g id="j"><use transform="matrix(0.05,0,0,0.05,0,0)" xlink:href="#aC"/><use transform="matrix(0.05,0,0,0.05,10.950000000000001,0)" xlink:href="#aw"/><use transform="matrix(0.05,0,0,0.05,20.950000000000003,0)" xlink:href="#ar"/></g><path d="M135-194c53 0 70 44 70 98 0 56-19 98-73 100-31 1-45-17-59-34 3 33 2 69 2 105H25l-1-265h48c2 10 0 23 3 31 11-24 29-35 60-35zM114-30c33 0 39-31 40-66 0-38-9-64-40-64-56 0-55 130 0 130" id="aD"/><g id="k"><use transform="matrix(0.05,0,0,0.05,0,0)" xlink:href="#aw"/><use transform="matrix(0.05,0,0,0.05,10,0)" xlink:href="#al"/><use transform="matrix(0.05,0,0,0.05,20,0)" xlink:href="#al"/><use transform="matrix(0.05,0,0,0.05,30,0)" xlink:href="#ak"/><use transform="matrix(0.05,0,0,0.05,40,0)" xlink:href="#aD"/><use transform="matrix(0.05,0,0,0.05,50.95,0)" xlink:href="#aq"/><use transform="matrix(0.05,0,0,0.05,56.900000000000006,0)" xlink:href="#ak"/><use transform="matrix(0.05,0,0,0.05,66.9,0)" xlink:href="#ao"/></g><g id="l"><use transform="matrix(0.05,0,0,0.05,0,0)" xlink:href="#aq"/><use transform="matrix(0.05,0,0,0.05,5.95,0)" xlink:href="#aC"/><use transform="matrix(0.05,0,0,0.05,16.900000000000002,0)" xlink:href="#ak"/></g><path d="M25 0v-261h50V0H25" id="aE"/><g id="m"><use transform="matrix(0.05,0,0,0.05,0,0)" xlink:href="#aw"/><use transform="matrix(0.05,0,0,0.05,10,0)" xlink:href="#aD"/><use transform="matrix(0.05,0,0,0.05,20.950000000000003,0)" xlink:href="#aD"/><use transform="matrix(0.05,0,0,0.05,31.900000000000006,0)" xlink:href="#aE"/><use transform="matrix(0.05,0,0,0.05,36.900000000000006,0)" xlink:href="#ap"/><use transform="matrix(0.05,0,0,0.05,41.900000000000006,0)" xlink:href="#al"/><use transform="matrix(0.05,0,0,0.05,51.900000000000006,0)" xlink:href="#aw"/><use transform="matrix(0.05,0,0,0.05,61.900000000000006,0)" xlink:href="#aq"/><use transform="matrix(0.05,0,0,0.05,67.85000000000001,0)" xlink:href="#ap"/><use transform="matrix(0.05,0,0,0.05,72.85000000000001,0)" xlink:href="#am"/><use transform="matrix(0.05,0,0,0.05,83.80000000000001,0)" xlink:href="#an"/></g><path d="M175 0L67-191c6 58 2 128 3 191H24v-248h59L193-55c-6-58-2-129-3-193h46V0h-61" id="aF"/><g id="n"><use transform="matrix(0.06790123456790124,0,0,0.06790123456790124,0,0)" xlink:href="#aF"/><use transform="matrix(0.06790123456790124,0,0,0.06790123456790124,17.58641975308642,0)" xlink:href="#aw"/><use transform="matrix(0.06790123456790124,0,0,0.06790123456790124,31.16666666666667,0)" xlink:href="#av"/><use transform="matrix(0.06790123456790124,0,0,0.06790123456790124,44.74691358024692,0)" xlink:href="#ap"/><use transform="matrix(0.06790123456790124,0,0,0.06790123456790124,51.537037037037045,0)" xlink:href="#au"/><use transform="matrix(0.06790123456790124,0,0,0.06790123456790124,66.40740740740742,0)" xlink:href="#aw"/><use transform="matrix(0.06790123456790124,0,0,0.06790123456790124,79.98765432098767,0)" xlink:href="#aq"/><use transform="matrix(0.06790123456790124,0,0,0.06790123456790124,88.06790123456793,0)" xlink:href="#ap"/><use transform="matrix(0.06790123456790124,0,0,0.06790123456790124,94.85802469135805,0)" xlink:href="#am"/><use transform="matrix(0.06790123456790124,0,0,0.06790123456790124,109.72839506172842,0)" xlink:href="#an"/></g><path d="M135-194c52 0 70 43 70 98 0 56-19 99-73 100-30 1-46-15-58-35L72 0H24l1-261h50v104c11-23 29-37 60-37zM114-30c31 0 40-27 40-66 0-37-7-63-39-63s-41 28-41 65c0 36 8 64 40 64" id="aG"/><path d="M123 10C108 53 80 86 19 72V37c35 8 53-11 59-39L3-190h52l48 148c12-52 28-100 44-148h51" id="aH"/><path d="M220-157c-53 9-28 100-34 157h-49v-107c1-27-5-49-29-50C55-147 81-57 75 0H25l-1-190h47c2 12-1 28 3 38 10-53 101-56 108 0 13-22 24-43 59-42 82 1 51 116 57 194h-49v-107c-1-25-5-48-29-50" id="aI"/><g id="o"><use transform="matrix(0.06790123456790124,0,0,0.06790123456790124,0,0)" xlink:href="#ar"/><use transform="matrix(0.06790123456790124,0,0,0.06790123456790124,13.580246913580249,0)" xlink:href="#az"/><use transform="matrix(0.06790123456790124,0,0,0.06790123456790124,28.45061728395062,0)" xlink:href="#aG"/><use transform="matrix(0.06790123456790124,0,0,0.06790123456790124,43.320987654320994,0)" xlink:href="#ar"/><use transform="matrix(0.06790123456790124,0,0,0.06790123456790124,56.90123456790124,0)" xlink:href="#aH"/><use transform="matrix(0.06790123456790124,0,0,0.06790123456790124,70.4814814814815,0)" xlink:href="#ar"/><use transform="matrix(0.06790123456790124,0,0,0.06790123456790124,84.06172839506176,0)" xlink:href="#aq"/><use transform="matrix(0.06790123456790124,0,0,0.06790123456790124,92.141975308642,0)" xlink:href="#ak"/><use transform="matrix(0.06790123456790124,0,0,0.06790123456790124,105.72222222222226,0)" xlink:href="#aI"/></g><path d="M24 0v-248h52V0H24" id="aJ"/><g id="p"><use transform="matrix(0.05,0,0,0.05,0,0)" xlink:href="#aJ"/><use transform="matrix(0.05,0,0,0.05,5,0)" xlink:href="#an"/><use transform="matrix(0.05,0,0,0.05,15.950000000000001,0)" xlink:href="#av"/><use transform="matrix(0.05,0,0,0.05,25.950000000000003,0)" xlink:href="#ak"/><use transform="matrix(0.05,0,0,0.05,35.95,0)" xlink:href="#ar"/><use transform="matrix(0.05,0,0,0.05,45.95,0)" xlink:href="#aq"/><use transform="matrix(0.05,0,0,0.05,51.900000000000006,0)" xlink:href="#am"/><use transform="matrix(0.05,0,0,0.05,62.85,0)" xlink:href="#aj"/></g><g id="q"><use transform="matrix(0.05,0,0,0.05,0,0)" xlink:href="#ap"/><use transform="matrix(0.05,0,0,0.05,5,0)" xlink:href="#an"/><use transform="matrix(0.05,0,0,0.05,15.950000000000001,0)" xlink:href="#an"/><use transform="matrix(0.05,0,0,0.05,26.900000000000002,0)" xlink:href="#am"/><use transform="matrix(0.05,0,0,0.05,37.85,0)" xlink:href="#av"/><use transform="matrix(0.05,0,0,0.05,47.85,0)" xlink:href="#aw"/><use transform="matrix(0.05,0,0,0.05,57.85,0)" xlink:href="#aq"/><use transform="matrix(0.05,0,0,0.05,63.800000000000004,0)" xlink:href="#am"/><use transform="matrix(0.05,0,0,0.05,74.75,0)" xlink:href="#aj"/></g><path d="M230 0l2-204L168 0h-37L68-204 70 0H24v-248h70l56 185 57-185h69V0h-46" id="aK"/><path d="M147 0L96-86 75-71V0H25v-261h50v150l67-79h53l-66 74L201 0h-54" id="aL"/><g id="r"><use transform="matrix(0.05,0,0,0.05,0,0)" xlink:href="#aK"/><use transform="matrix(0.05,0,0,0.05,14.950000000000001,0)" xlink:href="#ak"/><use transform="matrix(0.05,0,0,0.05,24.950000000000003,0)" xlink:href="#ak"/><use transform="matrix(0.05,0,0,0.05,34.95,0)" xlink:href="#aL"/></g><g id="s"><use transform="matrix(0.05,0,0,0.05,0,0)" xlink:href="#ar"/><use transform="matrix(0.05,0,0,0.05,10,0)" xlink:href="#aH"/><use transform="matrix(0.05,0,0,0.05,20,0)" xlink:href="#ar"/><use transform="matrix(0.05,0,0,0.05,30,0)" xlink:href="#aq"/><use transform="matrix(0.05,0,0,0.05,35.95,0)" xlink:href="#ak"/><use transform="matrix(0.05,0,0,0.05,45.95,0)" xlink:href="#aI"/></g><path d="M67-125c0 54 23 88 75 88 28 0 53-7 68-21v-34h-60v-39h108v91C232-14 192 4 140 4 58 4 20-42 15-125 8-236 126-280 215-234c19 10 29 26 37 47l-47 15c-11-23-29-39-63-39-53 1-75 33-75 86" id="aM"/><g id="t"><use transform="matrix(0.05,0,0,0.05,0,0)" xlink:href="#aM"/><use transform="matrix(0.05,0,0,0.05,14,0)" xlink:href="#am"/><use transform="matrix(0.05,0,0,0.05,24.950000000000003,0)" xlink:href="#am"/><use transform="matrix(0.05,0,0,0.05,35.900000000000006,0)" xlink:href="#au"/><use transform="matrix(0.05,0,0,0.05,46.85000000000001,0)" xlink:href="#aE"/><use transform="matrix(0.05,0,0,0.05,51.85,0)" xlink:href="#ak"/></g><g id="u"><use transform="matrix(0.05,0,0,0.05,0,0)" xlink:href="#aK"/><use transform="matrix(0.05,0,0,0.05,14.950000000000001,0)" xlink:href="#aw"/><use transform="matrix(0.05,0,0,0.05,24.950000000000003,0)" xlink:href="#aD"/><use transform="matrix(0.05,0,0,0.05,35.900000000000006,0)" xlink:href="#ar"/></g><path d="M199 0l-22-63H83L61 0H9l90-248h61L250 0h-51zm-33-102l-36-108c-10 38-24 72-36 108h72" id="aN"/><g id="v"><use transform="matrix(0.05,0,0,0.05,0,0)" xlink:href="#aN"/><use transform="matrix(0.05,0,0,0.05,12.950000000000001,0)" xlink:href="#ai"/><use transform="matrix(0.05,0,0,0.05,24.950000000000003,0)" xlink:href="#aJ"/></g><path d="M169-182c-1-43-94-46-97-3 18 66 151 10 154 114 3 95-165 93-204 36-6-8-10-19-12-30l50-8c3 46 112 56 116 5-17-69-150-10-154-114-4-87 153-88 188-35 5 8 8 18 10 28" id="aO"/><g id="w"><use transform="matrix(0.05,0,0,0.05,0,0)" xlink:href="#aO"/><use transform="matrix(0.05,0,0,0.05,12,0)" xlink:href="#ak"/><use transform="matrix(0.05,0,0,0.05,22,0)" xlink:href="#aE"/><use transform="matrix(0.05,0,0,0.05,27,0)" xlink:href="#ak"/><use transform="matrix(0.05,0,0,0.05,37,0)" xlink:href="#al"/><use transform="matrix(0.05,0,0,0.05,47,0)" xlink:href="#aq"/></g><g id="x"><use transform="matrix(0.05,0,0,0.05,0,0)" xlink:href="#aN"/><use transform="matrix(0.05,0,0,0.05,12.950000000000001,0)" xlink:href="#ao"/><use transform="matrix(0.05,0,0,0.05,23.900000000000002,0)" xlink:href="#ao"/><use transform="matrix(0.05,0,0,0.05,34.85,0)" xlink:href="#aj"/><use transform="matrix(0.05,0,0,0.05,41.85,0)" xlink:href="#ak"/><use transform="matrix(0.05,0,0,0.05,51.85,0)" xlink:href="#ar"/><use transform="matrix(0.05,0,0,0.05,61.85,0)" xlink:href="#ar"/></g><g id="y"><use transform="matrix(0.05,0,0,0.05,0,0)" xlink:href="#ar"/><use transform="matrix(0.05,0,0,0.05,10,0)" xlink:href="#aw"/><use transform="matrix(0.05,0,0,0.05,20,0)" xlink:href="#av"/><use transform="matrix(0.05,0,0,0.05,30,0)" xlink:href="#ak"/></g><g id="z"><use transform="matrix(0.05,0,0,0.05,0,0)" xlink:href="#aw"/><use transform="matrix(0.05,0,0,0.05,10,0)" xlink:href="#ao"/><use transform="matrix(0.05,0,0,0.05,20.950000000000003,0)" xlink:href="#ao"/><use transform="matrix(0.05,0,0,0.05,31.900000000000006,0)" xlink:href="#aj"/><use transform="matrix(0.05,0,0,0.05,38.900000000000006,0)" xlink:href="#ak"/><use transform="matrix(0.05,0,0,0.05,48.900000000000006,0)" xlink:href="#ar"/><use transform="matrix(0.05,0,0,0.05,58.900000000000006,0)" xlink:href="#ar"/></g><g id="A"><use transform="matrix(0.05,0,0,0.05,0,0)" xlink:href="#ar"/><use transform="matrix(0.05,0,0,0.05,10,0)" xlink:href="#ak"/><use transform="matrix(0.05,0,0,0.05,20,0)" xlink:href="#aE"/><use transform="matrix(0.05,0,0,0.05,25,0)" xlink:href="#ak"/><use transform="matrix(0.05,0,0,0.05,35,0)" xlink:href="#al"/><use transform="matrix(0.05,0,0,0.05,45,0)" xlink:href="#aq"/></g><g id="B"><use transform="matrix(0.05,0,0,0.05,0,0)" xlink:href="#am"/><use transform="matrix(0.05,0,0,0.05,10.950000000000001,0)" xlink:href="#an"/></g><g id="C"><use transform="matrix(0.05,0,0,0.05,0,0)" xlink:href="#aE"/><use transform="matrix(0.05,0,0,0.05,5,0)" xlink:href="#ap"/><use transform="matrix(0.05,0,0,0.05,10,0)" xlink:href="#ar"/><use transform="matrix(0.05,0,0,0.05,20,0)" xlink:href="#aq"/></g><path d="M121-226c-27-7-43 5-38 36h38v33H83V0H34v-157H6v-33h28c-9-59 32-81 87-68v32" id="aP"/><g id="D"><use transform="matrix(0.05,0,0,0.05,0,0)" xlink:href="#am"/><use transform="matrix(0.05,0,0,0.05,10.950000000000001,0)" xlink:href="#aP"/></g><g id="E"><use transform="matrix(0.05,0,0,0.05,0,0)" xlink:href="#aj"/><use transform="matrix(0.05,0,0,0.05,7,0)" xlink:href="#ak"/><use transform="matrix(0.05,0,0,0.05,17,0)" xlink:href="#al"/><use transform="matrix(0.05,0,0,0.05,27,0)" xlink:href="#am"/><use transform="matrix(0.05,0,0,0.05,37.95,0)" xlink:href="#aI"/><use transform="matrix(0.05,0,0,0.05,53.95,0)" xlink:href="#aI"/><use transform="matrix(0.05,0,0,0.05,69.95,0)" xlink:href="#ak"/><use transform="matrix(0.05,0,0,0.05,79.95,0)" xlink:href="#an"/><use transform="matrix(0.05,0,0,0.05,90.9,0)" xlink:href="#ao"/><use transform="matrix(0.05,0,0,0.05,101.85000000000001,0)" xlink:href="#ak"/><use transform="matrix(0.05,0,0,0.05,111.85000000000001,0)" xlink:href="#ao"/></g><path d="M24 0v-248h195v40H76v63h132v40H76v65h150V0H24" id="aQ"/><g id="F"><use transform="matrix(0.05,0,0,0.05,0,0)" xlink:href="#aQ"/><use transform="matrix(0.05,0,0,0.05,12,0)" xlink:href="#an"/><use transform="matrix(0.05,0,0,0.05,22.950000000000003,0)" xlink:href="#aq"/><use transform="matrix(0.05,0,0,0.05,28.900000000000002,0)" xlink:href="#ak"/><use transform="matrix(0.05,0,0,0.05,38.900000000000006,0)" xlink:href="#aj"/></g><path d="M231 0h-52l-39-155L100 0H48L-1-190h46L77-45c9-52 24-97 36-145h53l37 145 32-145h46" id="aR"/><g id="G"><use transform="matrix(0.05,0,0,0.05,0,0)" xlink:href="#am"/><use transform="matrix(0.05,0,0,0.05,10.950000000000001,0)" xlink:href="#aR"/><use transform="matrix(0.05,0,0,0.05,24.950000000000003,0)" xlink:href="#an"/></g><g id="H"><use transform="matrix(0.05,0,0,0.05,0,0)" xlink:href="#aw"/><use transform="matrix(0.05,0,0,0.05,10,0)" xlink:href="#ao"/><use transform="matrix(0.05,0,0,0.05,20.950000000000003,0)" xlink:href="#ao"/><use transform="matrix(0.05,0,0,0.05,31.900000000000006,0)" xlink:href="#aj"/><use transform="matrix(0.05,0,0,0.05,38.900000000000006,0)" xlink:href="#ak"/><use transform="matrix(0.05,0,0,0.05,48.900000000000006,0)" xlink:href="#ar"/><use transform="matrix(0.05,0,0,0.05,58.900000000000006,0)" xlink:href="#ar"/></g><g id="I"><use transform="matrix(0.05,0,0,0.05,0,0)" xlink:href="#an"/><use transform="matrix(0.05,0,0,0.05,10.950000000000001,0)" xlink:href="#am"/><use transform="matrix(0.05,0,0,0.05,21.900000000000002,0)" xlink:href="#aq"/><use transform="matrix(0.05,0,0,0.05,27.85,0)" xlink:href="#ap"/><use transform="matrix(0.05,0,0,0.05,32.85,0)" xlink:href="#aP"/><use transform="matrix(0.05,0,0,0.05,38.800000000000004,0)" xlink:href="#aH"/></g><g id="J"><use transform="matrix(0.05,0,0,0.05,0,0)" xlink:href="#ap"/><use transform="matrix(0.05,0,0,0.05,5,0)" xlink:href="#an"/><use transform="matrix(0.05,0,0,0.05,15.950000000000001,0)" xlink:href="#an"/><use transform="matrix(0.05,0,0,0.05,26.900000000000002,0)" xlink:href="#am"/><use transform="matrix(0.05,0,0,0.05,37.85,0)" xlink:href="#av"/><use transform="matrix(0.05,0,0,0.05,47.85,0)" xlink:href="#aw"/><use transform="matrix(0.05,0,0,0.05,57.85,0)" xlink:href="#aq"/><use transform="matrix(0.05,0,0,0.05,63.800000000000004,0)" xlink:href="#am"/><use transform="matrix(0.05,0,0,0.05,74.75,0)" xlink:href="#aj"/></g><path d="M240-174c0 40-23 61-54 70L253 0h-59l-57-94H76V0H24v-248c93 4 217-23 216 74zM76-134c48-2 112 12 112-38 0-48-66-32-112-35v73" id="aS"/><g id="K"><use transform="matrix(0.05,0,0,0.05,0,0)" xlink:href="#aS"/><use transform="matrix(0.05,0,0,0.05,12.950000000000001,0)" xlink:href="#ak"/><use transform="matrix(0.05,0,0,0.05,22.950000000000003,0)" xlink:href="#al"/><use transform="matrix(0.05,0,0,0.05,32.95,0)" xlink:href="#ap"/><use transform="matrix(0.05,0,0,0.05,37.95,0)" xlink:href="#ak"/><use transform="matrix(0.05,0,0,0.05,47.95,0)" xlink:href="#av"/><use transform="matrix(0.05,0,0,0.05,57.95,0)" xlink:href="#ak"/></g><g id="L"><use transform="matrix(0.05,0,0,0.05,0,0)" xlink:href="#aw"/><use transform="matrix(0.05,0,0,0.05,10,0)" xlink:href="#ao"/><use transform="matrix(0.05,0,0,0.05,20.950000000000003,0)" xlink:href="#ao"/><use transform="matrix(0.05,0,0,0.05,31.900000000000006,0)" xlink:href="#aj"/><use transform="matrix(0.05,0,0,0.05,38.900000000000006,0)" xlink:href="#ak"/><use transform="matrix(0.05,0,0,0.05,48.900000000000006,0)" xlink:href="#ar"/><use transform="matrix(0.05,0,0,0.05,58.900000000000006,0)" xlink:href="#ar"/></g><g id="M"><use transform="matrix(0.05,0,0,0.05,0,0)" xlink:href="#ao"/><use transform="matrix(0.05,0,0,0.05,10.950000000000001,0)" xlink:href="#ak"/><use transform="matrix(0.05,0,0,0.05,20.950000000000003,0)" xlink:href="#aq"/><use transform="matrix(0.05,0,0,0.05,26.900000000000002,0)" xlink:href="#aw"/><use transform="matrix(0.05,0,0,0.05,36.900000000000006,0)" xlink:href="#ap"/><use transform="matrix(0.05,0,0,0.05,41.900000000000006,0)" xlink:href="#aE"/><use transform="matrix(0.05,0,0,0.05,46.900000000000006,0)" xlink:href="#ar"/></g><g id="N"><use transform="matrix(0.05,0,0,0.05,0,0)" xlink:href="#au"/><use transform="matrix(0.05,0,0,0.05,10.950000000000001,0)" xlink:href="#ak"/><use transform="matrix(0.05,0,0,0.05,20.950000000000003,0)" xlink:href="#aq"/></g><g id="O"><use transform="matrix(0.05,0,0,0.05,0,0)" xlink:href="#ao"/><use transform="matrix(0.05,0,0,0.05,10.950000000000001,0)" xlink:href="#ap"/><use transform="matrix(0.05,0,0,0.05,15.950000000000001,0)" xlink:href="#aj"/><use transform="matrix(0.05,0,0,0.05,22.950000000000003,0)" xlink:href="#ak"/><use transform="matrix(0.05,0,0,0.05,32.95,0)" xlink:href="#al"/><use transform="matrix(0.05,0,0,0.05,42.95,0)" xlink:href="#aq"/><use transform="matrix(0.05,0,0,0.05,48.900000000000006,0)" xlink:href="#ap"/><use transform="matrix(0.05,0,0,0.05,53.900000000000006,0)" xlink:href="#am"/><use transform="matrix(0.05,0,0,0.05,64.85000000000001,0)" xlink:href="#an"/><use transform="matrix(0.05,0,0,0.05,75.80000000000001,0)" xlink:href="#ar"/></g><path d="M147 0H94L2-248h55l64 206c17-72 42-137 63-206h54" id="aT"/><g id="P"><use transform="matrix(0.05,0,0,0.05,0,0)" xlink:href="#aT"/><use transform="matrix(0.05,0,0,0.05,11.65,0)" xlink:href="#ap"/><use transform="matrix(0.05,0,0,0.05,16.65,0)" xlink:href="#ak"/><use transform="matrix(0.05,0,0,0.05,26.649999999999995,0)" xlink:href="#aR"/></g><g id="Q"><use transform="matrix(0.05,0,0,0.05,0,0)" xlink:href="#ar"/><use transform="matrix(0.05,0,0,0.05,10,0)" xlink:href="#ak"/><use transform="matrix(0.05,0,0,0.05,20,0)" xlink:href="#aE"/><use transform="matrix(0.05,0,0,0.05,25,0)" xlink:href="#ak"/><use transform="matrix(0.05,0,0,0.05,35,0)" xlink:href="#al"/><use transform="matrix(0.05,0,0,0.05,45,0)" xlink:href="#aq"/><use transform="matrix(0.05,0,0,0.05,50.95,0)" xlink:href="#ak"/><use transform="matrix(0.05,0,0,0.05,60.95,0)" xlink:href="#ao"/></g><g id="R"><use transform="matrix(0.05,0,0,0.05,0,0)" xlink:href="#aD"/><use transform="matrix(0.05,0,0,0.05,10.950000000000001,0)" xlink:href="#aE"/><use transform="matrix(0.05,0,0,0.05,15.950000000000001,0)" xlink:href="#aw"/><use transform="matrix(0.05,0,0,0.05,25.950000000000003,0)" xlink:href="#al"/><use transform="matrix(0.05,0,0,0.05,35.95,0)" xlink:href="#ak"/></g><path d="M85-194c31 0 48 13 60 33l-1-100h32l1 261h-30c-2-10 0-23-3-31C134-8 116 4 85 4 32 4 16-35 15-94c0-66 23-100 70-100zm9 24c-40 0-46 34-46 75 0 40 6 74 45 74 42 0 51-32 51-76 0-42-9-74-50-73" id="aU"/><path d="M100-194c62-1 85 37 85 99 1 63-27 99-86 99S16-35 15-95c0-66 28-99 85-99zM99-20c44 1 53-31 53-75 0-43-8-75-51-75s-53 32-53 75 10 74 51 75" id="aV"/><path d="M100-194c63 0 86 42 84 106H49c0 40 14 67 53 68 26 1 43-12 49-29l28 8c-11 28-37 45-77 45C44 4 14-33 15-96c1-61 26-98 85-98zm52 81c6-60-76-77-97-28-3 7-6 17-6 28h103" id="aW"/><path d="M135-143c-3-34-86-38-87 0 15 53 115 12 119 90S17 21 10-45l28-5c4 36 97 45 98 0-10-56-113-15-118-90-4-57 82-63 122-42 12 7 21 19 24 35" id="aX"/><g id="S"><use transform="matrix(0.05,0,0,0.05,0,0)" xlink:href="#aU"/><use transform="matrix(0.05,0,0,0.05,10,0)" xlink:href="#aV"/><use transform="matrix(0.05,0,0,0.05,20,0)" xlink:href="#aW"/><use transform="matrix(0.05,0,0,0.05,30,0)" xlink:href="#aX"/></g><path d="M117-194c89-4 53 116 60 194h-32v-121c0-31-8-49-39-48C34-167 62-67 57 0H25l-1-190h30c1 10-1 24 2 32 11-22 29-35 61-36" id="aY"/><path d="M59-47c-2 24 18 29 38 22v24C64 9 27 4 27-40v-127H5v-23h24l9-43h21v43h35v23H59v120" id="aZ"/><g id="T"><use transform="matrix(0.05,0,0,0.05,0,0)" xlink:href="#aY"/><use transform="matrix(0.05,0,0,0.05,10,0)" xlink:href="#aV"/><use transform="matrix(0.05,0,0,0.05,20,0)" xlink:href="#aZ"/></g><path d="M206 0h-36l-40-164L89 0H53L-1-190h32L70-26l43-164h34l41 164 42-164h31" id="ba"/><path d="M141-36C126-15 110 5 73 4 37 3 15-17 15-53c-1-64 63-63 125-63 3-35-9-54-41-54-24 1-41 7-42 31l-33-3c5-37 33-52 76-52 45 0 72 20 72 64v82c-1 20 7 32 28 27v20c-31 9-61-2-59-35zM48-53c0 20 12 33 32 33 41-3 63-29 60-74-43 2-92-5-92 41" id="bb"/><g id="U"><use transform="matrix(0.05,0,0,0.05,0,0)" xlink:href="#ba"/><use transform="matrix(0.05,0,0,0.05,12.950000000000001,0)" xlink:href="#bb"/><use transform="matrix(0.05,0,0,0.05,22.950000000000003,0)" xlink:href="#aY"/><use transform="matrix(0.05,0,0,0.05,32.95,0)" xlink:href="#aZ"/></g><g id="V"><use transform="matrix(0.05,0,0,0.05,0,0)" xlink:href="#aZ"/><use transform="matrix(0.05,0,0,0.05,5,0)" xlink:href="#aV"/></g><path d="M210-169c-67 3-38 105-44 169h-31v-121c0-29-5-50-35-48C34-165 62-65 56 0H25l-1-190h30c1 10-1 24 2 32 10-44 99-50 107 0 11-21 27-35 58-36 85-2 47 119 55 194h-31v-121c0-29-5-49-35-48" id="bc"/><path d="M143 0L79-87 56-68V0H24v-261h32v163l83-92h37l-77 82L181 0h-38" id="bd"/><g id="W"><use transform="matrix(0.05,0,0,0.05,0,0)" xlink:href="#bc"/><use transform="matrix(0.05,0,0,0.05,14.950000000000001,0)" xlink:href="#bb"/><use transform="matrix(0.05,0,0,0.05,24.950000000000003,0)" xlink:href="#bd"/><use transform="matrix(0.05,0,0,0.05,33.95,0)" xlink:href="#aW"/></g><path d="M96-169c-40 0-48 33-48 73s9 75 48 75c24 0 41-14 43-38l32 2c-6 37-31 61-74 61-59 0-76-41-82-99-10-93 101-131 147-64 4 7 5 14 7 22l-32 3c-4-21-16-35-41-35" id="be"/><path d="M106-169C34-169 62-67 57 0H25v-261h32l-1 103c12-21 28-36 61-36 89 0 53 116 60 194h-32v-121c2-32-8-49-39-48" id="bf"/><path d="M177-190C167-65 218 103 67 71c-23-6-38-20-44-43l32-5c15 47 100 32 89-28v-30C133-14 115 1 83 1 29 1 15-40 15-95c0-56 16-97 71-98 29-1 48 16 59 35 1-10 0-23 2-32h30zM94-22c36 0 50-32 50-73 0-42-14-75-50-75-39 0-46 34-46 75s6 73 46 73" id="bg"/><g id="X"><use transform="matrix(0.05,0,0,0.05,0,0)" xlink:href="#be"/><use transform="matrix(0.05,0,0,0.05,9,0)" xlink:href="#bf"/><use transform="matrix(0.05,0,0,0.05,19,0)" xlink:href="#bb"/><use transform="matrix(0.05,0,0,0.05,29,0)" xlink:href="#aY"/><use transform="matrix(0.05,0,0,0.05,39,0)" xlink:href="#bg"/><use transform="matrix(0.05,0,0,0.05,49,0)" xlink:href="#aW"/><use transform="matrix(0.05,0,0,0.05,59,0)" xlink:href="#aX"/></g><g id="Y"><use transform="matrix(0.05,0,0,0.05,0,0)" xlink:href="#be"/><use transform="matrix(0.05,0,0,0.05,9,0)" xlink:href="#bf"/><use transform="matrix(0.05,0,0,0.05,19,0)" xlink:href="#bb"/><use transform="matrix(0.05,0,0,0.05,29,0)" xlink:href="#aY"/><use transform="matrix(0.05,0,0,0.05,39,0)" xlink:href="#bg"/><use transform="matrix(0.05,0,0,0.05,49,0)" xlink:href="#aW"/></g><path d="M114-163C36-179 61-72 57 0H25l-1-190h30c1 12-1 29 2 39 6-27 23-49 58-41v29" id="bh"/><g id="Z"><use transform="matrix(0.05,0,0,0.05,0,0)" xlink:href="#bb"/><use transform="matrix(0.05,0,0,0.05,10,0)" xlink:href="#aU"/><use transform="matrix(0.05,0,0,0.05,20,0)" xlink:href="#aU"/><use transform="matrix(0.05,0,0,0.05,30,0)" xlink:href="#bh"/><use transform="matrix(0.05,0,0,0.05,35.95,0)" xlink:href="#aW"/><use transform="matrix(0.05,0,0,0.05,45.95,0)" xlink:href="#aX"/><use transform="matrix(0.05,0,0,0.05,54.95,0)" xlink:href="#aX"/></g><g id="aa"><use transform="matrix(0.05,0,0,0.05,0,0)" xlink:href="#aW"/><use transform="matrix(0.05,0,0,0.05,10,0)" xlink:href="#aY"/><use transform="matrix(0.05,0,0,0.05,20,0)" xlink:href="#aZ"/><use transform="matrix(0.05,0,0,0.05,25,0)" xlink:href="#aW"/><use transform="matrix(0.05,0,0,0.05,35,0)" xlink:href="#bh"/></g><path d="M84 4C-5 8 30-112 23-190h32v120c0 31 7 50 39 49 72-2 45-101 50-169h31l1 190h-30c-1-10 1-25-2-33-11 22-28 36-60 37" id="bi"/><g id="ab"><use transform="matrix(0.05,0,0,0.05,0,0)" xlink:href="#be"/><use transform="matrix(0.05,0,0,0.05,9,0)" xlink:href="#bi"/><use transform="matrix(0.05,0,0,0.05,19,0)" xlink:href="#bh"/><use transform="matrix(0.05,0,0,0.05,24.95,0)" xlink:href="#bh"/><use transform="matrix(0.05,0,0,0.05,30.899999999999995,0)" xlink:href="#aW"/><use transform="matrix(0.05,0,0,0.05,40.9,0)" xlink:href="#aY"/><use transform="matrix(0.05,0,0,0.05,50.9,0)" xlink:href="#aZ"/></g><path d="M24 0v-261h32V0H24" id="bj"/><path d="M24-231v-30h32v30H24zM24 0v-190h32V0H24" id="bk"/><g id="ac"><use transform="matrix(0.05,0,0,0.05,0,0)" xlink:href="#bj"/><use transform="matrix(0.05,0,0,0.05,3.95,0)" xlink:href="#aV"/><use transform="matrix(0.05,0,0,0.05,13.949999999999998,0)" xlink:href="#be"/><use transform="matrix(0.05,0,0,0.05,22.95,0)" xlink:href="#bb"/><use transform="matrix(0.05,0,0,0.05,32.95,0)" xlink:href="#aZ"/><use transform="matrix(0.05,0,0,0.05,37.95,0)" xlink:href="#bk"/><use transform="matrix(0.05,0,0,0.05,41.900000000000006,0)" xlink:href="#aV"/><use transform="matrix(0.05,0,0,0.05,51.900000000000006,0)" xlink:href="#aY"/></g><path d="M108 0H70L1-190h34L89-25l56-165h34" id="bl"/><g id="ad"><use transform="matrix(0.05,0,0,0.05,0,0)" xlink:href="#aX"/><use transform="matrix(0.05,0,0,0.05,9,0)" xlink:href="#bb"/><use transform="matrix(0.05,0,0,0.05,19,0)" xlink:href="#bl"/><use transform="matrix(0.05,0,0,0.05,28,0)" xlink:href="#aW"/></g><g id="ae"><use transform="matrix(0.05,0,0,0.05,0,0)" xlink:href="#bh"/><use transform="matrix(0.05,0,0,0.05,5.95,0)" xlink:href="#aW"/><use transform="matrix(0.05,0,0,0.05,15.949999999999998,0)" xlink:href="#be"/><use transform="matrix(0.05,0,0,0.05,24.95,0)" xlink:href="#aW"/><use transform="matrix(0.05,0,0,0.05,34.95,0)" xlink:href="#bk"/><use transform="matrix(0.05,0,0,0.05,38.900000000000006,0)" xlink:href="#bl"/><use transform="matrix(0.05,0,0,0.05,47.900000000000006,0)" xlink:href="#aW"/></g><g id="af"><use transform="matrix(0.05,0,0,0.05,0,0)" xlink:href="#aU"/><use transform="matrix(0.05,0,0,0.05,10,0)" xlink:href="#bk"/><use transform="matrix(0.05,0,0,0.05,13.949999999999998,0)" xlink:href="#bh"/><use transform="matrix(0.05,0,0,0.05,19.9,0)" xlink:href="#aW"/><use transform="matrix(0.05,0,0,0.05,29.899999999999995,0)" xlink:href="#be"/><use transform="matrix(0.05,0,0,0.05,38.9,0)" xlink:href="#aZ"/><use transform="matrix(0.05,0,0,0.05,43.9,0)" xlink:href="#bk"/><use transform="matrix(0.05,0,0,0.05,47.85,0)" xlink:href="#aV"/><use transform="matrix(0.05,0,0,0.05,57.85,0)" xlink:href="#aY"/><use transform="matrix(0.05,0,0,0.05,67.85,0)" xlink:href="#aX"/></g><path d="M115-194c55 1 70 41 70 98S169 2 115 4C84 4 66-9 55-30l1 105H24l-1-265h31l2 30c10-21 28-34 59-34zm-8 174c40 0 45-34 45-75s-6-73-45-74c-42 0-51 32-51 76 0 43 10 73 51 73" id="bm"/><path d="M179-190L93 31C79 59 56 82 12 73V49c39 6 53-20 64-50L1-190h34L92-34l54-156h33" id="bn"/><g id="ag"><use transform="matrix(0.05,0,0,0.05,0,0)" xlink:href="#aU"/><use transform="matrix(0.05,0,0,0.05,10,0)" xlink:href="#bk"/><use transform="matrix(0.05,0,0,0.05,13.949999999999998,0)" xlink:href="#aX"/><use transform="matrix(0.05,0,0,0.05,22.95,0)" xlink:href="#bm"/><use transform="matrix(0.05,0,0,0.05,32.95,0)" xlink:href="#bj"/><use transform="matrix(0.05,0,0,0.05,36.900000000000006,0)" xlink:href="#bb"/><use transform="matrix(0.05,0,0,0.05,46.900000000000006,0)" xlink:href="#bn"/></g><g id="ah"><use transform="matrix(0.05,0,0,0.05,0,0)" xlink:href="#bl"/><use transform="matrix(0.05,0,0,0.05,9,0)" xlink:href="#bk"/><use transform="matrix(0.05,0,0,0.05,12.949999999999998,0)" xlink:href="#aW"/><use transform="matrix(0.05,0,0,0.05,22.95,0)" xlink:href="#ba"/></g></defs></g></svg>