<svg xmlns="http://www.w3.org/2000/svg" xmlns:xlink="http://www.w3.org/1999/xlink" xmlns:lucid="lucid" width="1500" height="1277.33"><g transform="translate(-140 -22.43333333333328)" lucid:page-tab-id="0_0"><path d="M0 0h1870.4v1323.2H0z" fill="#fff"/><path d="M680 43.43h280V100H680z" fill="none"/><use xlink:href="#a" transform="matrix(1,0,0,1,680,43.43333333333328) translate(8.577160493827137 33.388888888888886)"/><use xlink:href="#b" transform="matrix(1,0,0,1,680,43.43333333333328) translate(157.55246913580248 33.388888888888886)"/><path d="M1280 43.43h260V100h-260z" fill="none"/><use xlink:href="#c" transform="matrix(1,0,0,1,1280,43.43333333333328) translate(52.43827160493829 17.77777777777778)"/><use xlink:href="#d" transform="matrix(1,0,0,1,1280,43.43333333333328) translate(14.740740740740733 40.88888888888889)"/><use xlink:href="#e" transform="matrix(1,0,0,1,1280,43.43333333333328) translate(94.54320987654322 40.88888888888889)"/><use xlink:href="#f" transform="matrix(1,0,0,1,1280,43.43333333333328) translate(126.98765432098766 40.88888888888889)"/><use xlink:href="#g" transform="matrix(1,0,0,1,1280,43.43333333333328) translate(152.6172839506173 40.88888888888889)"/><use xlink:href="#h" transform="matrix(1,0,0,1,1280,43.43333333333328) translate(178.2469135802469 40.88888888888889)"/><use xlink:href="#i" transform="matrix(1,0,0,1,1280,43.43333333333328) translate(111.25925925925925 62.22222222222222)"/><path d="M160 159.77v-40h320v40z" fill="#fff"/><path d="M160 159.77v1120h320v-1120z" fill="none"/><path d="M480 159.77v-40h320v40z" fill="#fff"/><path d="M480 159.77v1120h320v-1120z" fill="none"/><path d="M480 119.77v1160" stroke="#000" stroke-width="2" fill="none"/><path d="M800 159.77v-40h320v40z" fill="#fff"/><path d="M800 159.77v1120h320v-1120z" fill="none"/><path d="M800 119.77v1160" stroke="#000" stroke-width="2" fill="none"/><path d="M1120 119.77h500v40h-500z" fill="#fff"/><path d="M1620 159.77v1120h-500v-1120z" fill="none"/><path d="M1120 119.77v1160M160 159.77h1460M160 159.77v-40h320m0 0h320m0 0h320m0 0h500v40m0 0v1120h-500m-640 0h320m0 0h320m-960-1120v1120h320" stroke="#000" stroke-width="2" fill="none"/><use xlink:href="#j" transform="matrix(1,0,0,1,160,119.76666666666654) translate(125.07499999999999 23.6)"/><use xlink:href="#k" transform="matrix(1,0,0,1,480,119.76666666666654) translate(119.125 23.6)"/><use xlink:href="#l" transform="matrix(1,0,0,1,800,119.76666666666654) translate(120.525 23.6)"/><use xlink:href="#m" transform="matrix(1,0,0,1,1120,119.76666666666654) translate(192.05 23.6)"/><use xlink:href="#n" transform="matrix(1,0,0,1,1120,119.76666666666654) translate(246 23.6)"/><path d="M556 339.77c-8.84 0-16 7.16-16 16v48c0 8.83 7.16 16 16 16h128c8.84 0 16-7.17 16-16v-48c0-8.84-7.16-16-16-16z" stroke="#000" stroke-width="2" fill="#fff"/><use xlink:href="#o" transform="matrix(1,0,0,1,548,347.76666666666654) translate(28.574999999999996 24.799999999999997)"/><use xlink:href="#p" transform="matrix(1,0,0,1,548,347.76666666666654) translate(77.475 24.799999999999997)"/><use xlink:href="#q" transform="matrix(1,0,0,1,548,347.76666666666654) translate(43.55 46.4)"/><path d="M276 479.77c-8.84 0-16 7.16-16 16v48c0 8.83 7.16 16 16 16h128c8.84 0 16-7.17 16-16v-48c0-8.84-7.16-16-16-16z" stroke="#000" stroke-width="2" fill="#fff"/><use xlink:href="#o" transform="matrix(1,0,0,1,268,487.76666666666654) translate(28.574999999999996 24.799999999999997)"/><use xlink:href="#p" transform="matrix(1,0,0,1,268,487.76666666666654) translate(77.475 24.799999999999997)"/><use xlink:href="#q" transform="matrix(1,0,0,1,268,487.76666666666654) translate(43.55 46.4)"/><path d="M896 260c-8.84 0-16 7.16-16 16v48c0 8.84 7.16 16 16 16h128c8.84 0 16-7.16 16-16v-48c0-8.84-7.16-16-16-16z" stroke="#000" stroke-width="2" fill="#fff"/><use xlink:href="#o" transform="matrix(1,0,0,1,888,268) translate(28.574999999999996 24.799999999999997)"/><use xlink:href="#p" transform="matrix(1,0,0,1,888,268) translate(77.475 24.799999999999997)"/><use xlink:href="#q" transform="matrix(1,0,0,1,888,268) translate(43.55 46.4)"/><path d="M340 476.95V219.77h258" stroke="#000" stroke-width="2" fill="none"/><path d="M329.82 459.6L340 476.8l10.18-17.2" stroke="#000" stroke-width="2" fill="none"/><path d="M599 219.72l.03 1.05h-1.06v-2h1.15z"/><path d="M620 336.95v-95.18M609.82 319.6L620 336.8l10.18-17.2" stroke="#000" stroke-width="2" fill="none"/><path d="M619.96 240.77l1.04-.04v1.06h-2v-1.15z"/><path d="M966 257.18v-37.4H642" stroke="#000" stroke-width="2" fill="none"/><path d="M955.82 239.82L966 257.04l10.18-17.22" stroke="#000" stroke-width="2" fill="none"/><path d="M642.03 220.77h-1.15l.12-.96-.03-1.03h1.06z"/><path d="M1440 579.77l80 70-80 70-80-70zM1296 339.77c-8.84 0-16 7.16-16 16v48c0 8.83 7.16 16 16 16h128c8.84 0 16-7.17 16-16v-48c0-8.84-7.16-16-16-16z" stroke="#000" stroke-width="2" fill="#fff"/><use xlink:href="#r" transform="matrix(1,0,0,1,1288,347.76666666666654) translate(14.599999999999994 35.6)"/><use xlink:href="#s" transform="matrix(1,0,0,1,1288,347.76666666666654) translate(51.5 35.6)"/><use xlink:href="#t" transform="matrix(1,0,0,1,1288,347.76666666666654) translate(91.45 35.6)"/><path d="M1042 300h318v36.95" stroke="#000" stroke-width="2" fill="none"/><path d="M1042.03 301H1041v-2h1.03z"/><path d="M1349.82 319.6l10.18 17.2 10.18-17.2M702 379.77h575.18" stroke="#000" stroke-width="2" fill="none"/><path d="M702.03 380.77H701v-2h1.03z"/><path d="M1259.82 389.95l17.22-10.18-17.22-10.18M422 519.77h938v-97.2" stroke="#000" stroke-width="2" fill="none"/><path d="M422.03 520.77H421v-2h1.03z"/><path d="M1370.18 439.95L1360 422.73l-10.18 17.22M1442 379.77h39v158.67h-41v38.18" stroke="#000" stroke-width="2" fill="none"/><path d="M1442.03 380.77H1441v-2h1.03z"/><path d="M1429.82 559.26l10.18 17.2 10.18-17.2" stroke="#000" stroke-width="2" fill="none"/><path d="M276 659.77c-8.84 0-16 7.16-16 16v48c0 8.83 7.16 16 16 16h128c8.84 0 16-7.17 16-16v-48c0-8.84-7.16-16-16-16z" stroke="#000" stroke-width="2" fill="#fff"/><use xlink:href="#u" transform="matrix(1,0,0,1,268,667.7666666666665) translate(50.575 35.6)"/><path d="M938.6 650.77h-47.86v50H422.82v-2h465.92v-50h49.86zm418.88 0H1132.2v-2h225.28z"/><path d="M1358.48 649.77l1.14 1h-2.16v-2h2.16zM440.7 690.45l-15.77 9.32 15.76 9.32-1.03 1.7L421 699.78l18.67-11.04z"/><use xlink:href="#v" transform="matrix(1,0,0,1,938.5993902439025,638.9666666666666) translate(0 14.4)"/><use xlink:href="#w" transform="matrix(1,0,0,1,938.5993902439025,638.9666666666666) translate(42.85 14.4)"/><use xlink:href="#x" transform="matrix(1,0,0,1,938.5993902439025,638.9666666666666) translate(85.80000000000001 14.4)"/><use xlink:href="#y" transform="matrix(1,0,0,1,938.5993902439025,638.9666666666666) translate(110.80000000000001 14.4)"/><path d="M640 219.77c0 11.04-8.95 20-20 20s-20-8.96-20-20c0-11.05 8.95-20 20-20s20 8.95 20 20z" stroke="#000" stroke-width="2"/><path d="M620 1119.77c0 11.04-8.95 20-20 20s-20-8.96-20-20c0-11.05 8.95-20 20-20s20 8.95 20 20z" stroke="#000" stroke-width="2" fill="#fff"/><path d="M612 1119.77c0 6.62-5.37 12-12 12s-12-5.38-12-12c0-6.63 5.37-12 12-12s12 5.37 12 12z" stroke="#000" stroke-width="2"/><path d="M340 741.77v378h237.18" stroke="#000" stroke-width="2" fill="none"/><path d="M341 741.8h-2v-1.03h2z"/><path d="M559.82 1129.95l17.2-10.18-17.2-10.18" stroke="#000" stroke-width="2" fill="none"/><path d="M596 840c-8.84 0-16 7.16-16 16v48c0 8.84 7.16 16 16 16h128c8.84 0 16-7.16 16-16v-48c0-8.84-7.16-16-16-16z" stroke="#000" stroke-width="2" fill="#fff"/><g><use xlink:href="#u" transform="matrix(1,0,0,1,588,848) translate(50.575 35.6)"/></g><path d="M916 959.77c-8.84 0-16 7.16-16 16v48c0 8.83 7.16 16 16 16h128c8.84 0 16-7.17 16-16v-48c0-8.84-7.16-16-16-16z" stroke="#000" stroke-width="2" fill="#fff"/><g><use xlink:href="#u" transform="matrix(1,0,0,1,908,967.7666666666665) translate(50.575 35.6)"/></g><path d="M1562.52 1000.77h-499.7v-2h497.7v-348h-38v-2h40z"/><path d="M1522.54 650.77h-2.16l1.14-1-1.14-1h2.16zM1080.7 990.45l-15.77 9.32 15.76 9.32-1.03 1.7-18.67-11.03 18.67-11.04z"/><g><use xlink:href="#v" transform="matrix(1,0,0,1,1214.1264577307325,974.1666666666665) translate(0 14.4)"/><use xlink:href="#w" transform="matrix(1,0,0,1,1214.1264577307325,974.1666666666665) translate(42.85 14.4)"/><use xlink:href="#x" transform="matrix(1,0,0,1,1214.1264577307325,974.1666666666665) translate(85.80000000000001 14.4)"/><use xlink:href="#z" transform="matrix(1,0,0,1,1214.1264577307325,974.1666666666665) translate(110.80000000000001 14.4)"/></g><path d="M1440 722.1V880H742.82" stroke="#000" stroke-width="2" fill="none"/><path d="M1441 722.12h-2v-1.9l1 .88 1-.88z"/><path d="M760.18 869.82L742.96 880l17.22 10.18" stroke="#000" stroke-width="2" fill="none"/><g><use xlink:href="#v" transform="matrix(1,0,0,1,1013.4272825533708,854.4000000000001) translate(0 14.4)"/><use xlink:href="#w" transform="matrix(1,0,0,1,1013.4272825533708,854.4000000000001) translate(42.85 14.4)"/><use xlink:href="#A" transform="matrix(1,0,0,1,1013.4272825533708,854.4000000000001) translate(85.80000000000001 14.4)"/></g><path d="M660 922v197.77h-37.18" stroke="#000" stroke-width="2" fill="none"/><path d="M661 922.03h-2V921h2z"/><path d="M640.18 1109.6l-17.2 10.17 17.2 10.18M980 1041.77v139H600v-38.18" stroke="#000" stroke-width="2" fill="none"/><path d="M981 1041.8h-2v-1.03h2z"/><path d="M610.18 1159.95L600 1142.73l-10.18 17.22" stroke="#000" stroke-width="2" fill="none"/><defs><path d="M240-174c0 40-23 61-54 70L253 0h-59l-57-94H76V0H24v-248c93 4 217-23 216 74zM76-134c48-2 112 12 112-38 0-48-66-32-112-35v73" id="B"/><path d="M185-48c-13 30-37 53-82 52C43 2 14-33 14-96s30-98 90-98c62 0 83 45 84 108H66c0 31 8 55 39 56 18 0 30-7 34-22zm-45-69c5-46-57-63-70-21-2 6-4 13-4 21h74" id="C"/><path d="M195-6C206 82 75 100 31 46c-4-6-6-13-8-21l49-6c3 16 16 24 34 25 40 0 42-37 40-79-11 22-30 35-61 35-53 0-70-43-70-97 0-56 18-96 73-97 30 0 46 14 59 34l2-30h47zm-90-29c32 0 41-27 41-63 0-35-9-62-40-62-32 0-39 29-40 63 0 36 9 62 39 62" id="D"/><path d="M25-224v-37h50v37H25zM25 0v-190h50V0H25" id="E"/><path d="M137-138c1-29-70-34-71-4 15 46 118 7 119 86 1 83-164 76-172 9l43-7c4 19 20 25 44 25 33 8 57-30 24-41C81-84 22-81 20-136c-2-80 154-74 161-7" id="F"/><path d="M115-3C79 11 28 4 28-45v-112H4v-33h27l15-45h31v45h36v33H77v99c-1 23 16 31 38 25v30" id="G"/><path d="M135-150c-39-12-60 13-60 57V0H25l-1-190h47c2 13-1 29 3 40 6-28 27-53 61-41v41" id="H"/><path d="M133-34C117-15 103 5 69 4 32 3 11-16 11-54c-1-60 55-63 116-61 1-26-3-47-28-47-18 1-26 9-28 27l-52-2c7-38 36-58 82-57s74 22 75 68l1 82c-1 14 12 18 25 15v27c-30 8-71 5-69-32zm-48 3c29 0 43-24 42-57-32 0-66-3-65 30 0 17 8 27 23 27" id="I"/><path d="M110-194c64 0 96 36 96 99 0 64-35 99-97 99-61 0-95-36-95-99 0-62 34-99 96-99zm-1 164c35 0 45-28 45-65 0-40-10-65-43-65-34 0-45 26-45 65 0 36 10 65 43 65" id="J"/><path d="M135-194c87-1 58 113 63 194h-50c-7-57 23-157-34-157-59 0-34 97-39 157H25l-1-190h47c2 12-1 28 3 38 12-26 28-41 61-42" id="K"/><g id="a"><use transform="matrix(0.06790123456790124,0,0,0.06790123456790124,0,0)" xlink:href="#B"/><use transform="matrix(0.06790123456790124,0,0,0.06790123456790124,17.58641975308642,0)" xlink:href="#C"/><use transform="matrix(0.06790123456790124,0,0,0.06790123456790124,31.16666666666667,0)" xlink:href="#D"/><use transform="matrix(0.06790123456790124,0,0,0.06790123456790124,46.037037037037045,0)" xlink:href="#E"/><use transform="matrix(0.06790123456790124,0,0,0.06790123456790124,52.827160493827165,0)" xlink:href="#F"/><use transform="matrix(0.06790123456790124,0,0,0.06790123456790124,66.40740740740742,0)" xlink:href="#G"/><use transform="matrix(0.06790123456790124,0,0,0.06790123456790124,74.48765432098766,0)" xlink:href="#H"/><use transform="matrix(0.06790123456790124,0,0,0.06790123456790124,83.99382716049385,0)" xlink:href="#I"/><use transform="matrix(0.06790123456790124,0,0,0.06790123456790124,97.5740740740741,0)" xlink:href="#G"/><use transform="matrix(0.06790123456790124,0,0,0.06790123456790124,105.65432098765436,0)" xlink:href="#E"/><use transform="matrix(0.06790123456790124,0,0,0.06790123456790124,112.44444444444449,0)" xlink:href="#J"/><use transform="matrix(0.06790123456790124,0,0,0.06790123456790124,127.31481481481485,0)" xlink:href="#K"/></g><path d="M85 4C-2 5 27-109 22-190h50c7 57-23 150 33 157 60-5 35-97 40-157h50l1 190h-47c-2-12 1-28-3-38-12 25-28 42-61 42" id="L"/><path d="M135-194c52 0 70 43 70 98 0 56-19 99-73 100-30 1-46-15-58-35L72 0H24l1-261h50v104c11-23 29-37 60-37zM114-30c31 0 40-27 40-66 0-37-7-63-39-63s-41 28-41 65c0 36 8 64 40 64" id="M"/><path d="M123 10C108 53 80 86 19 72V37c35 8 53-11 59-39L3-190h52l48 148c12-52 28-100 44-148h51" id="N"/><path d="M220-157c-53 9-28 100-34 157h-49v-107c1-27-5-49-29-50C55-147 81-57 75 0H25l-1-190h47c2 12-1 28 3 38 10-53 101-56 108 0 13-22 24-43 59-42 82 1 51 116 57 194h-49v-107c-1-25-5-48-29-50" id="O"/><g id="b"><use transform="matrix(0.06790123456790124,0,0,0.06790123456790124,0,0)" xlink:href="#F"/><use transform="matrix(0.06790123456790124,0,0,0.06790123456790124,13.580246913580249,0)" xlink:href="#L"/><use transform="matrix(0.06790123456790124,0,0,0.06790123456790124,28.45061728395062,0)" xlink:href="#M"/><use transform="matrix(0.06790123456790124,0,0,0.06790123456790124,43.320987654320994,0)" xlink:href="#F"/><use transform="matrix(0.06790123456790124,0,0,0.06790123456790124,56.90123456790124,0)" xlink:href="#N"/><use transform="matrix(0.06790123456790124,0,0,0.06790123456790124,70.4814814814815,0)" xlink:href="#G"/><use transform="matrix(0.06790123456790124,0,0,0.06790123456790124,78.56172839506175,0)" xlink:href="#C"/><use transform="matrix(0.06790123456790124,0,0,0.06790123456790124,92.141975308642,0)" xlink:href="#O"/></g><path d="M24-248c93 1 206-16 204 79-1 75-69 88-152 82V0H24v-248zm52 121c47 0 100 7 100-41 0-47-54-39-100-39v80" id="P"/><path d="M190-63c-7 42-38 67-86 67-59 0-84-38-90-98-12-110 154-137 174-36l-49 2c-2-19-15-32-35-32-30 0-35 28-38 64-6 74 65 87 74 30" id="Q"/><path d="M88-194c31-1 46 15 58 34l-1-101h50l1 261h-48c-2-10 0-23-3-31C134-8 116 4 84 4 32 4 16-41 15-95c0-56 19-97 73-99zm17 164c33 0 40-30 41-66 1-37-9-64-41-64s-38 30-39 65c0 43 13 65 39 65" id="R"/><path d="M35-132v-50h50v50H35zM35 0v-49h50V0H35" id="S"/><g id="c"><use transform="matrix(0.06172839506172839,0,0,0.06172839506172839,0,0)" xlink:href="#P"/><use transform="matrix(0.06172839506172839,0,0,0.06172839506172839,14.814814814814813,0)" xlink:href="#H"/><use transform="matrix(0.06172839506172839,0,0,0.06172839506172839,23.456790123456788,0)" xlink:href="#C"/><use transform="matrix(0.06172839506172839,0,0,0.06172839506172839,35.80246913580247,0)" xlink:href="#Q"/><use transform="matrix(0.06172839506172839,0,0,0.06172839506172839,48.148148148148145,0)" xlink:href="#J"/><use transform="matrix(0.06172839506172839,0,0,0.06172839506172839,61.666666666666664,0)" xlink:href="#K"/><use transform="matrix(0.06172839506172839,0,0,0.06172839506172839,75.18518518518518,0)" xlink:href="#R"/><use transform="matrix(0.06172839506172839,0,0,0.06172839506172839,88.7037037037037,0)" xlink:href="#E"/><use transform="matrix(0.06172839506172839,0,0,0.06172839506172839,94.87654320987653,0)" xlink:href="#G"/><use transform="matrix(0.06172839506172839,0,0,0.06172839506172839,102.22222222222221,0)" xlink:href="#E"/><use transform="matrix(0.06172839506172839,0,0,0.06172839506172839,108.39506172839505,0)" xlink:href="#J"/><use transform="matrix(0.06172839506172839,0,0,0.06172839506172839,121.91358024691357,0)" xlink:href="#K"/><use transform="matrix(0.06172839506172839,0,0,0.06172839506172839,135.43209876543207,0)" xlink:href="#F"/><use transform="matrix(0.06172839506172839,0,0,0.06172839506172839,147.77777777777774,0)" xlink:href="#S"/></g><path d="M23 0v-37h61v-169l-59 37v-38l62-41h46v211h57V0H23" id="T"/><path d="M24 0v-54h51V0H24" id="U"/><path d="M169-182c-1-43-94-46-97-3 18 66 151 10 154 114 3 95-165 93-204 36-6-8-10-19-12-30l50-8c3 46 112 56 116 5-17-69-150-10-154-114-4-87 153-88 188-35 5 8 8 18 10 28" id="V"/><path d="M114-157C55-157 80-60 75 0H25v-261h50l-1 109c12-26 28-41 61-42 86-1 58 113 63 194h-50c-7-57 23-157-34-157" id="W"/><path d="M25 0v-261h50V0H25" id="X"/><g id="d"><use transform="matrix(0.04938271604938272,0,0,0.04938271604938272,0,0)" xlink:href="#T"/><use transform="matrix(0.04938271604938272,0,0,0.04938271604938272,9.876543209876544,0)" xlink:href="#U"/><use transform="matrix(0.04938271604938272,0,0,0.04938271604938272,14.814814814814817,0)" xlink:href="#V"/><use transform="matrix(0.04938271604938272,0,0,0.04938271604938272,26.666666666666668,0)" xlink:href="#W"/><use transform="matrix(0.04938271604938272,0,0,0.04938271604938272,37.48148148148149,0)" xlink:href="#J"/><use transform="matrix(0.04938271604938272,0,0,0.04938271604938272,48.296296296296305,0)" xlink:href="#L"/><use transform="matrix(0.04938271604938272,0,0,0.04938271604938272,59.111111111111114,0)" xlink:href="#X"/><use transform="matrix(0.04938271604938272,0,0,0.04938271604938272,64.0493827160494,0)" xlink:href="#R"/></g><g id="e"><use transform="matrix(0.04938271604938272,0,0,0.04938271604938272,0,0)" xlink:href="#K"/><use transform="matrix(0.04938271604938272,0,0,0.04938271604938272,10.814814814814815,0)" xlink:href="#J"/><use transform="matrix(0.04938271604938272,0,0,0.04938271604938272,21.62962962962963,0)" xlink:href="#G"/></g><g id="f"><use transform="matrix(0.04938271604938272,0,0,0.04938271604938272,0,0)" xlink:href="#M"/><use transform="matrix(0.04938271604938272,0,0,0.04938271604938272,10.814814814814815,0)" xlink:href="#C"/></g><g id="g"><use transform="matrix(0.04938271604938272,0,0,0.04938271604938272,0,0)" xlink:href="#I"/><use transform="matrix(0.04938271604938272,0,0,0.04938271604938272,9.876543209876544,0)" xlink:href="#K"/></g><path d="M144 0l-44-69L55 0H2l70-98-66-92h53l41 62 40-62h54l-67 91 71 99h-54" id="Y"/><g id="h"><use transform="matrix(0.04938271604938272,0,0,0.04938271604938272,0,0)" xlink:href="#C"/><use transform="matrix(0.04938271604938272,0,0,0.04938271604938272,9.876543209876544,0)" xlink:href="#Y"/><use transform="matrix(0.04938271604938272,0,0,0.04938271604938272,19.75308641975309,0)" xlink:href="#E"/><use transform="matrix(0.04938271604938272,0,0,0.04938271604938272,24.69135802469136,0)" xlink:href="#F"/><use transform="matrix(0.04938271604938272,0,0,0.04938271604938272,34.567901234567906,0)" xlink:href="#G"/><use transform="matrix(0.04938271604938272,0,0,0.04938271604938272,40.44444444444445,0)" xlink:href="#E"/><use transform="matrix(0.04938271604938272,0,0,0.04938271604938272,45.38271604938272,0)" xlink:href="#K"/><use transform="matrix(0.04938271604938272,0,0,0.04938271604938272,56.19753086419754,0)" xlink:href="#D"/></g><g id="i"><use transform="matrix(0.04938271604938272,0,0,0.04938271604938272,0,0)" xlink:href="#L"/><use transform="matrix(0.04938271604938272,0,0,0.04938271604938272,10.814814814814815,0)" xlink:href="#F"/><use transform="matrix(0.04938271604938272,0,0,0.04938271604938272,20.69135802469136,0)" xlink:href="#C"/><use transform="matrix(0.04938271604938272,0,0,0.04938271604938272,30.567901234567906,0)" xlink:href="#H"/></g><path d="M24 0v-248h52V0H24" id="Z"/><path d="M128 0H69L1-190h53L99-40l48-150h52" id="aa"/><g id="j"><use transform="matrix(0.05,0,0,0.05,0,0)" xlink:href="#Z"/><use transform="matrix(0.05,0,0,0.05,5,0)" xlink:href="#K"/><use transform="matrix(0.05,0,0,0.05,15.950000000000001,0)" xlink:href="#aa"/><use transform="matrix(0.05,0,0,0.05,25.950000000000003,0)" xlink:href="#C"/><use transform="matrix(0.05,0,0,0.05,35.95,0)" xlink:href="#F"/><use transform="matrix(0.05,0,0,0.05,45.95,0)" xlink:href="#G"/><use transform="matrix(0.05,0,0,0.05,51.900000000000006,0)" xlink:href="#J"/><use transform="matrix(0.05,0,0,0.05,62.85,0)" xlink:href="#H"/></g><g id="k"><use transform="matrix(0.05,0,0,0.05,0,0)" xlink:href="#Z"/><use transform="matrix(0.05,0,0,0.05,5,0)" xlink:href="#K"/><use transform="matrix(0.05,0,0,0.05,15.950000000000001,0)" xlink:href="#K"/><use transform="matrix(0.05,0,0,0.05,26.900000000000002,0)" xlink:href="#J"/><use transform="matrix(0.05,0,0,0.05,37.85,0)" xlink:href="#aa"/><use transform="matrix(0.05,0,0,0.05,47.85,0)" xlink:href="#I"/><use transform="matrix(0.05,0,0,0.05,57.85,0)" xlink:href="#G"/><use transform="matrix(0.05,0,0,0.05,63.800000000000004,0)" xlink:href="#J"/><use transform="matrix(0.05,0,0,0.05,74.75,0)" xlink:href="#H"/></g><path d="M231 0h-52l-39-155L100 0H48L-1-190h46L77-45c9-52 24-97 36-145h53l37 145 32-145h46" id="ab"/><g id="l"><use transform="matrix(0.05,0,0,0.05,0,0)" xlink:href="#B"/><use transform="matrix(0.05,0,0,0.05,12.950000000000001,0)" xlink:href="#C"/><use transform="matrix(0.05,0,0,0.05,22.950000000000003,0)" xlink:href="#aa"/><use transform="matrix(0.05,0,0,0.05,32.95,0)" xlink:href="#E"/><use transform="matrix(0.05,0,0,0.05,37.95,0)" xlink:href="#C"/><use transform="matrix(0.05,0,0,0.05,47.95,0)" xlink:href="#ab"/><use transform="matrix(0.05,0,0,0.05,61.95,0)" xlink:href="#C"/><use transform="matrix(0.05,0,0,0.05,71.95,0)" xlink:href="#H"/></g><path d="M230 0l2-204L168 0h-37L68-204 70 0H24v-248h70l56 185 57-185h69V0h-46" id="ac"/><path d="M24 0v-248h195v40H76v63h132v40H76v65h150V0H24" id="ad"/><path d="M147 0L96-86 75-71V0H25v-261h50v150l67-79h53l-66 74L201 0h-54" id="ae"/><g id="m"><use transform="matrix(0.05,0,0,0.05,0,0)" xlink:href="#ac"/><use transform="matrix(0.05,0,0,0.05,14.950000000000001,0)" xlink:href="#ad"/><use transform="matrix(0.05,0,0,0.05,26.950000000000003,0)" xlink:href="#ad"/><use transform="matrix(0.05,0,0,0.05,38.95,0)" xlink:href="#ae"/></g><g id="n"><use transform="matrix(0.05,0,0,0.05,0,0)" xlink:href="#F"/><use transform="matrix(0.05,0,0,0.05,10,0)" xlink:href="#N"/><use transform="matrix(0.05,0,0,0.05,20,0)" xlink:href="#F"/><use transform="matrix(0.05,0,0,0.05,30,0)" xlink:href="#G"/><use transform="matrix(0.05,0,0,0.05,35.95,0)" xlink:href="#C"/><use transform="matrix(0.05,0,0,0.05,45.95,0)" xlink:href="#O"/></g><g id="o"><use transform="matrix(0.05,0,0,0.05,0,0)" xlink:href="#C"/><use transform="matrix(0.05,0,0,0.05,10,0)" xlink:href="#K"/><use transform="matrix(0.05,0,0,0.05,20.950000000000003,0)" xlink:href="#G"/><use transform="matrix(0.05,0,0,0.05,26.900000000000002,0)" xlink:href="#C"/><use transform="matrix(0.05,0,0,0.05,36.900000000000006,0)" xlink:href="#H"/></g><g id="p"><use transform="matrix(0.05,0,0,0.05,0,0)" xlink:href="#L"/><use transform="matrix(0.05,0,0,0.05,10.950000000000001,0)" xlink:href="#F"/><use transform="matrix(0.05,0,0,0.05,20.950000000000003,0)" xlink:href="#C"/><use transform="matrix(0.05,0,0,0.05,30.950000000000003,0)" xlink:href="#H"/></g><g id="q"><use transform="matrix(0.05,0,0,0.05,0,0)" xlink:href="#R"/><use transform="matrix(0.05,0,0,0.05,10.950000000000001,0)" xlink:href="#C"/><use transform="matrix(0.05,0,0,0.05,20.950000000000003,0)" xlink:href="#G"/><use transform="matrix(0.05,0,0,0.05,26.900000000000002,0)" xlink:href="#I"/><use transform="matrix(0.05,0,0,0.05,36.900000000000006,0)" xlink:href="#E"/><use transform="matrix(0.05,0,0,0.05,41.900000000000006,0)" xlink:href="#X"/><use transform="matrix(0.05,0,0,0.05,46.900000000000006,0)" xlink:href="#F"/></g><g id="r"><use transform="matrix(0.05,0,0,0.05,0,0)" xlink:href="#I"/><use transform="matrix(0.05,0,0,0.05,10,0)" xlink:href="#R"/><use transform="matrix(0.05,0,0,0.05,20.950000000000003,0)" xlink:href="#R"/></g><g id="s"><use transform="matrix(0.05,0,0,0.05,0,0)" xlink:href="#K"/><use transform="matrix(0.05,0,0,0.05,10.950000000000001,0)" xlink:href="#C"/><use transform="matrix(0.05,0,0,0.05,20.950000000000003,0)" xlink:href="#ab"/></g><g id="t"><use transform="matrix(0.05,0,0,0.05,0,0)" xlink:href="#L"/><use transform="matrix(0.05,0,0,0.05,10.950000000000001,0)" xlink:href="#F"/><use transform="matrix(0.05,0,0,0.05,20.950000000000003,0)" xlink:href="#C"/><use transform="matrix(0.05,0,0,0.05,30.950000000000003,0)" xlink:href="#H"/></g><g id="u"><use transform="matrix(0.05,0,0,0.05,0,0)" xlink:href="#X"/><use transform="matrix(0.05,0,0,0.05,5,0)" xlink:href="#J"/><use transform="matrix(0.05,0,0,0.05,15.950000000000001,0)" xlink:href="#D"/><use transform="matrix(0.05,0,0,0.05,26.900000000000002,0)" xlink:href="#E"/><use transform="matrix(0.05,0,0,0.05,31.900000000000002,0)" xlink:href="#K"/></g><path d="M20 75v-336h95v34H67V41h48v34H20" id="af"/><g id="v"><use transform="matrix(0.05,0,0,0.05,0,0)" xlink:href="#af"/><use transform="matrix(0.05,0,0,0.05,5.95,0)" xlink:href="#I"/><use transform="matrix(0.05,0,0,0.05,15.949999999999998,0)" xlink:href="#R"/><use transform="matrix(0.05,0,0,0.05,26.899999999999995,0)" xlink:href="#R"/></g><g id="w"><use transform="matrix(0.05,0,0,0.05,0,0)" xlink:href="#L"/><use transform="matrix(0.05,0,0,0.05,10.950000000000001,0)" xlink:href="#F"/><use transform="matrix(0.05,0,0,0.05,20.950000000000003,0)" xlink:href="#C"/><use transform="matrix(0.05,0,0,0.05,30.950000000000003,0)" xlink:href="#H"/></g><g id="x"><use transform="matrix(0.05,0,0,0.05,0,0)" xlink:href="#I"/><use transform="matrix(0.05,0,0,0.05,10,0)" xlink:href="#F"/></g><path d="M4 75V41h49v-268H4v-34h96V75H4" id="ag"/><g id="y"><use transform="matrix(0.05,0,0,0.05,0,0)" xlink:href="#H"/><use transform="matrix(0.05,0,0,0.05,7,0)" xlink:href="#E"/><use transform="matrix(0.05,0,0,0.05,12,0)" xlink:href="#K"/><use transform="matrix(0.05,0,0,0.05,22.950000000000003,0)" xlink:href="#aa"/><use transform="matrix(0.05,0,0,0.05,32.95,0)" xlink:href="#C"/><use transform="matrix(0.05,0,0,0.05,42.95,0)" xlink:href="#F"/><use transform="matrix(0.05,0,0,0.05,52.95,0)" xlink:href="#G"/><use transform="matrix(0.05,0,0,0.05,58.900000000000006,0)" xlink:href="#J"/><use transform="matrix(0.05,0,0,0.05,69.85000000000001,0)" xlink:href="#H"/><use transform="matrix(0.05,0,0,0.05,76.85000000000001,0)" xlink:href="#ag"/></g><g id="z"><use transform="matrix(0.05,0,0,0.05,0,0)" xlink:href="#H"/><use transform="matrix(0.05,0,0,0.05,7,0)" xlink:href="#C"/><use transform="matrix(0.05,0,0,0.05,17,0)" xlink:href="#aa"/><use transform="matrix(0.05,0,0,0.05,27,0)" xlink:href="#E"/><use transform="matrix(0.05,0,0,0.05,32,0)" xlink:href="#C"/><use transform="matrix(0.05,0,0,0.05,42,0)" xlink:href="#ab"/><use transform="matrix(0.05,0,0,0.05,56,0)" xlink:href="#C"/><use transform="matrix(0.05,0,0,0.05,66,0)" xlink:href="#H"/><use transform="matrix(0.05,0,0,0.05,73,0)" xlink:href="#ag"/></g><g id="A"><use transform="matrix(0.05,0,0,0.05,0,0)" xlink:href="#I"/><use transform="matrix(0.05,0,0,0.05,10,0)" xlink:href="#F"/><use transform="matrix(0.05,0,0,0.05,20,0)" xlink:href="#E"/><use transform="matrix(0.05,0,0,0.05,25,0)" xlink:href="#K"/><use transform="matrix(0.05,0,0,0.05,35.95,0)" xlink:href="#K"/><use transform="matrix(0.05,0,0,0.05,46.900000000000006,0)" xlink:href="#J"/><use transform="matrix(0.05,0,0,0.05,57.85,0)" xlink:href="#aa"/><use transform="matrix(0.05,0,0,0.05,67.85000000000001,0)" xlink:href="#I"/><use transform="matrix(0.05,0,0,0.05,77.85000000000001,0)" xlink:href="#G"/><use transform="matrix(0.05,0,0,0.05,83.80000000000001,0)" xlink:href="#J"/><use transform="matrix(0.05,0,0,0.05,94.75000000000001,0)" xlink:href="#H"/><use transform="matrix(0.05,0,0,0.05,101.75000000000001,0)" xlink:href="#ag"/></g></defs></g></svg>