<svg xmlns="http://www.w3.org/2000/svg" xmlns:xlink="http://www.w3.org/1999/xlink" xmlns:lucid="lucid" width="2420" height="2439"><g transform="translate(-60 -20)" lucid:page-tab-id="5G7210PYPPGD"><path d="M0 0h3676.8v2582.4H0z" fill="#fff"/><path d="M80 104l76.8-64H1320v563.2l-64 76.8H80z" stroke="#000" stroke-width="2" fill="#fff"/><path d="M80 104l76.8-64H1320l-64 64z" stroke="#000" stroke-width="2" fill="#e6e6e6"/><path d="M1256 104l64-64v563.2l-64 76.8z" stroke="#000" stroke-width="2" fill="#ccc"/><use xlink:href="#a" transform="matrix(1,0,0,1,88,112) translate(0 16.6)"/><path d="M100 160h1120v480H100z" stroke="#000" stroke-width="2" fill-opacity="0"/><use xlink:href="#b" transform="matrix(1,0,0,1,108,168) translate(496.525 14.4)"/><use xlink:href="#c" transform="matrix(1,0,0,1,108,168) translate(475.6 36)"/><use xlink:href="#d" transform="matrix(1,0,0,1,108,168) translate(571.45 36)"/><path d="M200 260h260v100H200z" stroke="#000" stroke-width="2" fill="#fff"/><path d="M180 275h40v20h-40zM180 325h40v20h-40z" stroke="#000" stroke-width="2" fill="#fff"/><use xlink:href="#e" transform="matrix(1,0,0,1,236,270) translate(60.525 43.6)"/><path d="M185 520h260v100H185z" stroke="#000" stroke-width="2" fill="#fff"/><path d="M165 535h40v20h-40zM165 585h40v20h-40z" stroke="#000" stroke-width="2" fill="#fff"/><use xlink:href="#f" transform="matrix(1,0,0,1,221,530) translate(66.025 43.6)"/><path d="M620 520h260v100H620z" stroke="#000" stroke-width="2" fill="#fff"/><path d="M600 535h40v20h-40zM600 585h40v20h-40z" stroke="#000" stroke-width="2" fill="#fff"/><use xlink:href="#g" transform="matrix(1,0,0,1,656,530) translate(21.77499999999999 43.6)"/><use xlink:href="#h" transform="matrix(1,0,0,1,656,530) translate(85.675 43.6)"/><use xlink:href="#i" transform="matrix(1,0,0,1,656,530) translate(138.625 43.6)"/><path d="M580 260h260v100H580z" stroke="#000" stroke-width="2" fill="#fff"/><path d="M560 275h40v20h-40zM560 325h40v20h-40z" stroke="#000" stroke-width="2" fill="#fff"/><use xlink:href="#j" transform="matrix(1,0,0,1,616,270) translate(47.724999999999994 43.6)"/><use xlink:href="#i" transform="matrix(1,0,0,1,616,270) translate(112.675 43.6)"/><path d="M940 360h220v90H940z" stroke="#000" stroke-width="2" fill="#fff"/><path d="M920 372.5h40v20h-40zM920 417.5h40v20h-40z" stroke="#000" stroke-width="2" fill="#fff"/><use xlink:href="#k" transform="matrix(1,0,0,1,968,369) translate(4.574999999999989 39.6)"/><use xlink:href="#l" transform="matrix(1,0,0,1,968,369) translate(97.52499999999999 39.6)"/><path d="M460 310h11M505 310h5" stroke="#000" stroke-width="2" fill="none"/><path d="M485 296c7.73 0 14 6.27 14 14s-6.27 14-14 14-14-6.27-14-14 6.27-14 14-14z" stroke="#000" stroke-width="2" fill="#fff"/><path d="M485 330c11.05 0 20-8.95 20-20s-8.95-20-20-20" stroke="#000" stroke-width="2" fill="none"/><path d="M460 309.2h11v1.6h-11z" fill="none"/><path d="M511 310h24v-91h165v39" stroke="#000" stroke-width="2" fill="none"/><path d="M511.03 311H510v-2h-3 4.03zM701 259h-2v-1.03h2z"/><path d="M445 570h11M490 570h5" stroke="#000" stroke-width="2" fill="none"/><path d="M470 556c7.73 0 14 6.27 14 14s-6.27 14-14 14-14-6.27-14-14 6.27-14 14-14z" stroke="#000" stroke-width="2" fill="#fff"/><path d="M470 590c11.05 0 20-8.95 20-20s-8.95-20-20-20" stroke="#000" stroke-width="2" fill="none"/><path d="M445 569.2h11v1.6h-11z" fill="none"/><path d="M496 570h39v-91h205v39" stroke="#000" stroke-width="2" fill="none"/><path d="M496.03 571H495v-2h-3 4.03zM741 519h-2v-1.03h2z"/><path d="M880 570h11M925 570h5" stroke="#000" stroke-width="2" fill="none"/><path d="M905 556c7.73 0 14 6.27 14 14s-6.27 14-14 14-14-6.27-14-14 6.27-14 14-14z" stroke="#000" stroke-width="2" fill="#fff"/><path d="M905 590c11.05 0 20-8.95 20-20s-8.95-20-20-20" stroke="#000" stroke-width="2" fill="none"/><path d="M880 569.2h11v1.6h-11z" fill="none"/><path d="M840 310h11M885 310h5" stroke="#000" stroke-width="2" fill="none"/><path d="M865 296c7.73 0 14 6.27 14 14s-6.27 14-14 14-14-6.27-14-14 6.27-14 14-14z" stroke="#000" stroke-width="2" fill="#fff"/><path d="M865 330c11.05 0 20-8.95 20-20s-8.95-20-20-20" stroke="#000" stroke-width="2" fill="none"/><path d="M840 309.2h11v1.6h-11z" fill="none"/><path d="M891 310h87.67v48" stroke="#000" stroke-width="2" fill="none"/><path d="M891.03 311H890v-2h1.03zM979.67 359h-2v-1.03h2z"/><path d="M931 570h142.33V452" stroke="#000" stroke-width="2" fill="none"/><path d="M931.03 571H930v-2h-3 4.03zM1074.33 452.03h-2V451h2z"/><path d="M80 1048l81.6-68H1200v598.4l-68 81.6H80z" stroke="#000" stroke-width="2" fill="#fff"/><path d="M80 1048l81.6-68H1200l-68 68z" stroke="#000" stroke-width="2" fill="#e6e6e6"/><path d="M1132 1048l68-68v598.4l-68 81.6z" stroke="#000" stroke-width="2" fill="#ccc"/><use xlink:href="#m" transform="matrix(1,0,0,1,88,1056) translate(0 14.4)"/><use xlink:href="#n" transform="matrix(1,0,0,1,88,1056) translate(0 36)"/><path d="M100 1154l64.8-54H1120v475.2l-54 64.8H100z" stroke="#000" stroke-width="2" fill="#fff"/><path d="M100 1154l64.8-54H1120l-54 54z" stroke="#000" stroke-width="2" fill="#e6e6e6"/><path d="M1066 1154l54-54v475.2l-54 64.8z" stroke="#000" stroke-width="2" fill="#ccc"/><use xlink:href="#o" transform="matrix(1,0,0,1,108,1162) translate(0 14.4)"/><use xlink:href="#p" transform="matrix(1,0,0,1,108,1162) translate(0 36)"/><path d="M160 1260h880v360H160z" stroke="#000" stroke-width="2" fill-opacity="0"/><use xlink:href="#b" transform="matrix(1,0,0,1,168,1268) translate(377.025 14.4)"/><use xlink:href="#q" transform="matrix(1,0,0,1,168,1268) translate(287.2 36)"/><use xlink:href="#r" transform="matrix(1,0,0,1,168,1268) translate(355.1 36)"/><use xlink:href="#s" transform="matrix(1,0,0,1,168,1268) translate(412.95 36)"/><use xlink:href="#d" transform="matrix(1,0,0,1,168,1268) translate(520.85 36)"/><path d="M225 1420h220v100H225z" stroke="#000" stroke-width="2" fill="#fff"/><path d="M205 1435h40v20h-40zM205 1485h40v20h-40z" stroke="#000" stroke-width="2" fill="#fff"/><use xlink:href="#f" transform="matrix(1,0,0,1,253,1430) translate(52.025 43.6)"/><path d="M700 1420h220v100H700z" stroke="#000" stroke-width="2" fill="#fff"/><path d="M680 1435h40v20h-40zM680 1485h40v20h-40z" stroke="#000" stroke-width="2" fill="#fff"/><use xlink:href="#t" transform="matrix(1,0,0,1,728,1430) translate(38.724999999999994 43.6)"/><use xlink:href="#i" transform="matrix(1,0,0,1,728,1430) translate(93.675 43.6)"/><path d="M445 1480h11M490 1480h5" stroke="#000" stroke-width="2" fill="none"/><path d="M470 1466c7.73 0 14 6.27 14 14s-6.27 14-14 14-14-6.27-14-14 6.27-14 14-14z" stroke="#000" stroke-width="2" fill="#fff"/><path d="M470 1500c11.05 0 20-8.95 20-20s-8.95-20-20-20" stroke="#000" stroke-width="2" fill="none"/><path d="M445 1479.2h11v1.6h-11z" fill="none"/><path d="M496 1480h39v-101h290.33v39" stroke="#000" stroke-width="2" fill="none"/><path d="M496.03 1481H495v-2h-3 4.03zM826.33 1419h-2v-1.03h2z"/><path d="M600 1258V950h39.97V642" stroke="#000" stroke-width="2" fill="none"/><path d="M601 1259h-2v-1.03h2zM640.97 642.03h-2V641h2z"/><use xlink:href="#u" transform="matrix(1,0,0,1,466.0602037680069,928.0630230908179) translate(0 14.4)"/><use xlink:href="#v" transform="matrix(1,0,0,1,466.0602037680069,928.0630230908179) translate(63.85 14.4)"/><use xlink:href="#w" transform="matrix(1,0,0,1,466.0602037680069,928.0630230908179) translate(103.80000000000001 14.4)"/><path d="M1340 1067l81.6-68H2460v598.4l-68 81.6H1340z" stroke="#000" stroke-width="2" fill="#fff"/><path d="M1340 1067l81.6-68H2460l-68 68z" stroke="#000" stroke-width="2" fill="#e6e6e6"/><path d="M2392 1067l68-68v598.4l-68 81.6z" stroke="#000" stroke-width="2" fill="#ccc"/><use xlink:href="#m" transform="matrix(1,0,0,1,1348,1075) translate(0 14.4)"/><use xlink:href="#x" transform="matrix(1,0,0,1,1348,1075) translate(0 36)"/><path d="M1360 1173l64.8-54H2380v475.2l-54 64.8h-966z" stroke="#000" stroke-width="2" fill="#fff"/><path d="M1360 1173l64.8-54H2380l-54 54z" stroke="#000" stroke-width="2" fill="#e6e6e6"/><path d="M2326 1173l54-54v475.2l-54 64.8z" stroke="#000" stroke-width="2" fill="#ccc"/><use xlink:href="#o" transform="matrix(1,0,0,1,1368,1181) translate(0 14.4)"/><use xlink:href="#p" transform="matrix(1,0,0,1,1368,1181) translate(0 36)"/><path d="M1420 1279h880v360h-880z" stroke="#000" stroke-width="2" fill-opacity="0"/><use xlink:href="#b" transform="matrix(1,0,0,1,1428,1287) translate(377.025 14.4)"/><use xlink:href="#y" transform="matrix(1,0,0,1,1428,1287) translate(281.7 36)"/><use xlink:href="#r" transform="matrix(1,0,0,1,1428,1287) translate(360.6 36)"/><use xlink:href="#s" transform="matrix(1,0,0,1,1428,1287) translate(418.45 36)"/><use xlink:href="#d" transform="matrix(1,0,0,1,1428,1287) translate(526.35 36)"/><path d="M1980 1390h220v100h-220z" stroke="#000" stroke-width="2" fill="#fff"/><path d="M1960 1405h40v20h-40zM1960 1455h40v20h-40z" stroke="#000" stroke-width="2" fill="#fff"/><use xlink:href="#e" transform="matrix(1,0,0,1,2008,1400) translate(46.525 43.6)"/><path d="M1540 1390h220v100h-220z" stroke="#000" stroke-width="2" fill="#fff"/><path d="M1520 1405h40v20h-40zM1520 1455h40v20h-40z" stroke="#000" stroke-width="2" fill="#fff"/><use xlink:href="#z" transform="matrix(1,0,0,1,1568,1400) translate(36.224999999999994 43.6)"/><use xlink:href="#i" transform="matrix(1,0,0,1,1568,1400) translate(96.175 43.6)"/><path d="M1860 1277V844.28h-601.67" stroke="#000" stroke-width="2" fill="none"/><path d="M1861 1278h-2v-1.03h2z"/><path d="M1258.36 844.28h-1.03" stroke="#000" stroke-width="2" fill="none"/><use xlink:href="#u" transform="matrix(1,0,0,1,1610.483891144073,848.2769567597154) translate(0 14.4)"/><use xlink:href="#v" transform="matrix(1,0,0,1,1610.483891144073,848.2769567597154) translate(63.85 14.4)"/><use xlink:href="#w" transform="matrix(1,0,0,1,1610.483891144073,848.2769567597154) translate(103.80000000000001 14.4)"/><path d="M1800 1520h260v100h-260z" stroke="#000" stroke-width="2" fill="#fff"/><path d="M1780 1535h40v20h-40zM1780 1585h40v20h-40z" stroke="#000" stroke-width="2" fill="#fff"/><use xlink:href="#A" transform="matrix(1,0,0,1,1836,1530) translate(64.07499999999999 43.6)"/><path d="M1760 1440h11M1805 1440h5" stroke="#000" stroke-width="2" fill="none"/><path d="M1785 1426c7.73 0 14 6.27 14 14s-6.27 14-14 14-14-6.27-14-14 6.27-14 14-14z" stroke="#000" stroke-width="2" fill="#fff"/><path d="M1785 1460c11.05 0 20-8.95 20-20s-8.95-20-20-20" stroke="#000" stroke-width="2" fill="none"/><path d="M1760 1439.2h11v1.6h-11z" fill="none"/><path d="M1811 1440h39v-91h230v39" stroke="#000" stroke-width="2" fill="none"/><path d="M1811.03 1441H1810v-2h-3 4.03zM2081 1389h-2v-1.03h2z"/><path d="M2200 1440h11M2245 1440h5" stroke="#000" stroke-width="2" fill="none"/><path d="M2225 1426c7.73 0 14 6.27 14 14s-6.27 14-14 14-14-6.27-14-14 6.27-14 14-14z" stroke="#000" stroke-width="2" fill="#fff"/><path d="M2225 1460c11.05 0 20-8.95 20-20s-8.95-20-20-20" stroke="#000" stroke-width="2" fill="none"/><path d="M2200 1439.2h11v1.6h-11z" fill="none"/><path d="M2251 1440h39v130h-228" stroke="#000" stroke-width="2" fill="none"/><path d="M2251.03 1441H2250v-2h-3 4.03zM2062.03 1571H2061v-2h1.03z"/><path d="M720 1827l81.6-68H1840v598.4l-68 81.6H720z" stroke="#000" stroke-width="2" fill="#fff"/><path d="M720 1827l81.6-68H1840l-68 68z" stroke="#000" stroke-width="2" fill="#e6e6e6"/><path d="M1772 1827l68-68v598.4l-68 81.6z" stroke="#000" stroke-width="2" fill="#ccc"/><use xlink:href="#m" transform="matrix(1,0,0,1,728,1835) translate(0 14.4)"/><use xlink:href="#x" transform="matrix(1,0,0,1,728,1835) translate(0 36)"/><path d="M740 1933l64.8-54H1760v475.2l-54 64.8H740z" stroke="#000" stroke-width="2" fill="#fff"/><path d="M740 1933l64.8-54H1760l-54 54z" stroke="#000" stroke-width="2" fill="#e6e6e6"/><path d="M1706 1933l54-54v475.2l-54 64.8z" stroke="#000" stroke-width="2" fill="#ccc"/><use xlink:href="#B" transform="matrix(1,0,0,1,748,1941) translate(0 16.6)"/><use xlink:href="#C" transform="matrix(1,0,0,1,748,1941) translate(60.95 16.6)"/><path d="M800 2039h880v360H800z" stroke="#000" stroke-width="2" fill-opacity="0"/><use xlink:href="#b" transform="matrix(1,0,0,1,808,2047) translate(377.025 14.4)"/><use xlink:href="#y" transform="matrix(1,0,0,1,808,2047) translate(254.725 36)"/><use xlink:href="#D" transform="matrix(1,0,0,1,808,2047) translate(333.625 36)"/><use xlink:href="#E" transform="matrix(1,0,0,1,808,2047) translate(376.575 36)"/><use xlink:href="#s" transform="matrix(1,0,0,1,808,2047) translate(445.42499999999995 36)"/><use xlink:href="#d" transform="matrix(1,0,0,1,808,2047) translate(553.325 36)"/><path d="M1360 2150h220v100h-220z" stroke="#000" stroke-width="2" fill="#fff"/><path d="M1340 2165h40v20h-40zM1340 2215h40v20h-40z" stroke="#000" stroke-width="2" fill="#fff"/><use xlink:href="#e" transform="matrix(1,0,0,1,1388,2160) translate(46.525 43.6)"/><path d="M920 2150h220v100H920z" stroke="#000" stroke-width="2" fill="#fff"/><path d="M900 2165h40v20h-40zM900 2215h40v20h-40z" stroke="#000" stroke-width="2" fill="#fff"/><g><use xlink:href="#z" transform="matrix(1,0,0,1,948,2160) translate(36.224999999999994 43.6)"/><use xlink:href="#i" transform="matrix(1,0,0,1,948,2160) translate(96.175 43.6)"/></g><path d="M1240 2037v-607h17.33V823" stroke="#000" stroke-width="2" fill="none"/><path d="M1241 2038h-2v-1.03h2z"/><path d="M1257.33 823.03V822" stroke="#000" stroke-width="2" fill="none"/><g><use xlink:href="#u" transform="matrix(1,0,0,1,1265.3333333333332,975.3509149986428) translate(0 14.4)"/><use xlink:href="#v" transform="matrix(1,0,0,1,1265.3333333333332,975.3509149986428) translate(63.85 14.4)"/><use xlink:href="#w" transform="matrix(1,0,0,1,1265.3333333333332,975.3509149986428) translate(103.80000000000001 14.4)"/></g><path d="M1180 2280h260v100h-260z" stroke="#000" stroke-width="2" fill="#fff"/><path d="M1160 2295h40v20h-40zM1160 2345h40v20h-40z" stroke="#000" stroke-width="2" fill="#fff"/><g><use xlink:href="#A" transform="matrix(1,0,0,1,1216,2290) translate(64.07499999999999 43.6)"/></g><path d="M1140 2200h11M1185 2200h5" stroke="#000" stroke-width="2" fill="none"/><path d="M1165 2186c7.73 0 14 6.27 14 14s-6.27 14-14 14-14-6.27-14-14 6.27-14 14-14z" stroke="#000" stroke-width="2" fill="#fff"/><path d="M1165 2220c11.05 0 20-8.95 20-20s-8.95-20-20-20" stroke="#000" stroke-width="2" fill="none"/><path d="M1140 2199.2h11v1.6h-11z" fill="none"/><path d="M1191 2200h39v-91h230v39" stroke="#000" stroke-width="2" fill="none"/><path d="M1191.03 2201H1190v-2h-3 4.03zM1461 2149h-2v-1.03h2z"/><path d="M1580 2200h11M1625 2200h5" stroke="#000" stroke-width="2" fill="none"/><path d="M1605 2186c7.73 0 14 6.27 14 14s-6.27 14-14 14-14-6.27-14-14 6.27-14 14-14z" stroke="#000" stroke-width="2" fill="#fff"/><path d="M1605 2220c11.05 0 20-8.95 20-20s-8.95-20-20-20" stroke="#000" stroke-width="2" fill="none"/><path d="M1580 2199.2h11v1.6h-11z" fill="none"/><path d="M1631 2200h39v130h-228" stroke="#000" stroke-width="2" fill="none"/><path d="M1631.03 2201H1630v-2h-3 4.03zM1442.03 2331H1441v-2h1.03z"/><path d="M696 642v201.57h560.33" stroke="#000" stroke-width="2" fill="none"/><path d="M697 642.03h-2V641h2z"/><path d="M1256.3 843.57h1.03" stroke="#000" stroke-width="2" fill="none"/><defs><path d="M240 0l2-218c-23 76-54 145-80 218h-23L58-218 59 0H30v-248h44l77 211c21-75 51-140 76-211h43V0h-30" id="F"/><path d="M30 0v-248h187v28H63v79h144v27H63v87h162V0H30" id="G"/><path d="M194 0L95-120 63-95V0H30v-248h33v124l119-124h40L117-140 236 0h-42" id="H"/><path d="M185-189c-5-48-123-54-124 2 14 75 158 14 163 119 3 78-121 87-175 55-17-10-28-26-33-46l33-7c5 56 141 63 141-1 0-78-155-14-162-118-5-82 145-84 179-34 5 7 8 16 11 25" id="I"/><path d="M100-194c63 0 86 42 84 106H49c0 40 14 67 53 68 26 1 43-12 49-29l28 8c-11 28-37 45-77 45C44 4 14-33 15-96c1-61 26-98 85-98zm52 81c6-60-76-77-97-28-3 7-6 17-6 28h103" id="J"/><path d="M114-163C36-179 61-72 57 0H25l-1-190h30c1 12-1 29 2 39 6-27 23-49 58-41v29" id="K"/><path d="M108 0H70L1-190h34L89-25l56-165h34" id="L"/><g id="a"><use transform="matrix(0.05,0,0,0.05,0,0)" xlink:href="#F"/><use transform="matrix(0.05,0,0,0.05,14.950000000000001,0)" xlink:href="#G"/><use transform="matrix(0.05,0,0,0.05,26.950000000000003,0)" xlink:href="#G"/><use transform="matrix(0.05,0,0,0.05,38.95,0)" xlink:href="#H"/><use transform="matrix(0.05,0,0,0.05,50.95,0)" xlink:href="#I"/><use transform="matrix(0.05,0,0,0.05,62.95,0)" xlink:href="#J"/><use transform="matrix(0.05,0,0,0.05,72.95,0)" xlink:href="#K"/><use transform="matrix(0.05,0,0,0.05,78.9,0)" xlink:href="#L"/><use transform="matrix(0.05,0,0,0.05,87.9,0)" xlink:href="#J"/><use transform="matrix(0.05,0,0,0.05,97.9,0)" xlink:href="#K"/></g><path d="M18-100v-36l175-74v27L42-118l151 64v27" id="M"/><path d="M141-36C126-15 110 5 73 4 37 3 15-17 15-53c-1-64 63-63 125-63 3-35-9-54-41-54-24 1-41 7-42 31l-33-3c5-37 33-52 76-52 45 0 72 20 72 64v82c-1 20 7 32 28 27v20c-31 9-61-2-59-35zM48-53c0 20 12 33 32 33 41-3 63-29 60-74-43 2-92-5-92 41" id="N"/><path d="M59-47c-2 24 18 29 38 22v24C64 9 27 4 27-40v-127H5v-23h24l9-43h21v43h35v23H59v120" id="O"/><path d="M101-234c-31-9-42 10-38 44h38v23H63V0H32v-167H5v-23h27c-7-52 17-82 69-68v24" id="P"/><path d="M96-169c-40 0-48 33-48 73s9 75 48 75c24 0 41-14 43-38l32 2c-6 37-31 61-74 61-59 0-76-41-82-99-10-93 101-131 147-64 4 7 5 14 7 22l-32 3c-4-21-16-35-41-35" id="Q"/><path d="M135-143c-3-34-86-38-87 0 15 53 115 12 119 90S17 21 10-45l28-5c4 36 97 45 98 0-10-56-113-15-118-90-4-57 82-63 122-42 12 7 21 19 24 35" id="R"/><path d="M18-27v-27l151-64-151-65v-27l175 74v36" id="S"/><g id="b"><use transform="matrix(0.05,0,0,0.05,0,0)" xlink:href="#M"/><use transform="matrix(0.05,0,0,0.05,10.5,0)" xlink:href="#M"/><use transform="matrix(0.05,0,0,0.05,21,0)" xlink:href="#N"/><use transform="matrix(0.05,0,0,0.05,31,0)" xlink:href="#K"/><use transform="matrix(0.05,0,0,0.05,36.95,0)" xlink:href="#O"/><use transform="matrix(0.05,0,0,0.05,41.95,0)" xlink:href="#J"/><use transform="matrix(0.05,0,0,0.05,51.95,0)" xlink:href="#P"/><use transform="matrix(0.05,0,0,0.05,56.95,0)" xlink:href="#N"/><use transform="matrix(0.05,0,0,0.05,66.95,0)" xlink:href="#Q"/><use transform="matrix(0.05,0,0,0.05,75.95,0)" xlink:href="#O"/><use transform="matrix(0.05,0,0,0.05,80.95,0)" xlink:href="#R"/><use transform="matrix(0.05,0,0,0.05,89.95,0)" xlink:href="#S"/><use transform="matrix(0.05,0,0,0.05,100.45,0)" xlink:href="#S"/></g><path d="M190 0L58-211 59 0H30v-248h39L202-35l-2-213h31V0h-41" id="T"/><path d="M177-190C167-65 218 103 67 71c-23-6-38-20-44-43l32-5c15 47 100 32 89-28v-30C133-14 115 1 83 1 29 1 15-40 15-95c0-56 16-97 71-98 29-1 48 16 59 35 1-10 0-23 2-32h30zM94-22c36 0 50-32 50-73 0-42-14-75-50-75-39 0-46 34-46 75s6 73 46 73" id="U"/><path d="M100-194c62-1 85 37 85 99 1 63-27 99-86 99S16-35 15-95c0-66 28-99 85-99zM99-20c44 1 53-31 53-75 0-43-8-75-51-75s-53 32-53 75 10 74 51 75" id="V"/><path d="M24-231v-30h32v30H24zM24 0v-190h32V0H24" id="W"/><path d="M117-194c89-4 53 116 60 194h-32v-121c0-31-8-49-39-48C34-167 62-67 57 0H25l-1-190h30c1 10-1 24 2 32 11-22 29-35 61-36" id="X"/><g id="c"><use transform="matrix(0.05,0,0,0.05,0,0)" xlink:href="#T"/><use transform="matrix(0.05,0,0,0.05,12.950000000000001,0)" xlink:href="#J"/><use transform="matrix(0.05,0,0,0.05,22.950000000000003,0)" xlink:href="#U"/><use transform="matrix(0.05,0,0,0.05,32.95,0)" xlink:href="#V"/><use transform="matrix(0.05,0,0,0.05,42.95,0)" xlink:href="#O"/><use transform="matrix(0.05,0,0,0.05,47.95,0)" xlink:href="#W"/><use transform="matrix(0.05,0,0,0.05,51.900000000000006,0)" xlink:href="#N"/><use transform="matrix(0.05,0,0,0.05,61.900000000000006,0)" xlink:href="#O"/><use transform="matrix(0.05,0,0,0.05,66.9,0)" xlink:href="#W"/><use transform="matrix(0.05,0,0,0.05,70.85000000000001,0)" xlink:href="#V"/><use transform="matrix(0.05,0,0,0.05,80.85000000000001,0)" xlink:href="#X"/></g><path d="M179-190L93 31C79 59 56 82 12 73V49c39 6 53-20 64-50L1-190h34L92-34l54-156h33" id="Y"/><path d="M210-169c-67 3-38 105-44 169h-31v-121c0-29-5-50-35-48C34-165 62-65 56 0H25l-1-190h30c1 10-1 24 2 32 10-44 99-50 107 0 11-21 27-35 58-36 85-2 47 119 55 194h-31v-121c0-29-5-49-35-48" id="Z"/><g id="d"><use transform="matrix(0.05,0,0,0.05,0,0)" xlink:href="#R"/><use transform="matrix(0.05,0,0,0.05,9,0)" xlink:href="#Y"/><use transform="matrix(0.05,0,0,0.05,18,0)" xlink:href="#R"/><use transform="matrix(0.05,0,0,0.05,27,0)" xlink:href="#O"/><use transform="matrix(0.05,0,0,0.05,32,0)" xlink:href="#J"/><use transform="matrix(0.05,0,0,0.05,42,0)" xlink:href="#Z"/></g><path d="M33 0v-248h34V0H33" id="aa"/><g id="e"><use transform="matrix(0.05,0,0,0.05,0,0)" xlink:href="#aa"/><use transform="matrix(0.05,0,0,0.05,5,0)" xlink:href="#X"/><use transform="matrix(0.05,0,0,0.05,15,0)" xlink:href="#X"/><use transform="matrix(0.05,0,0,0.05,25,0)" xlink:href="#V"/><use transform="matrix(0.05,0,0,0.05,35,0)" xlink:href="#L"/><use transform="matrix(0.05,0,0,0.05,44,0)" xlink:href="#N"/><use transform="matrix(0.05,0,0,0.05,54,0)" xlink:href="#O"/><use transform="matrix(0.05,0,0,0.05,59,0)" xlink:href="#V"/><use transform="matrix(0.05,0,0,0.05,69,0)" xlink:href="#K"/></g><g id="f"><use transform="matrix(0.05,0,0,0.05,0,0)" xlink:href="#aa"/><use transform="matrix(0.05,0,0,0.05,5,0)" xlink:href="#X"/><use transform="matrix(0.05,0,0,0.05,15,0)" xlink:href="#L"/><use transform="matrix(0.05,0,0,0.05,24,0)" xlink:href="#J"/><use transform="matrix(0.05,0,0,0.05,34,0)" xlink:href="#R"/><use transform="matrix(0.05,0,0,0.05,43,0)" xlink:href="#O"/><use transform="matrix(0.05,0,0,0.05,48,0)" xlink:href="#V"/><use transform="matrix(0.05,0,0,0.05,58,0)" xlink:href="#K"/></g><path d="M30-248c87 1 191-15 191 75 0 78-77 80-158 76V0H30v-248zm33 125c57 0 124 11 124-50 0-59-68-47-124-48v98" id="ab"/><path d="M24 0v-261h32V0H24" id="ac"/><g id="g"><use transform="matrix(0.05,0,0,0.05,0,0)" xlink:href="#ab"/><use transform="matrix(0.05,0,0,0.05,12,0)" xlink:href="#ac"/><use transform="matrix(0.05,0,0,0.05,15.949999999999997,0)" xlink:href="#N"/><use transform="matrix(0.05,0,0,0.05,25.950000000000003,0)" xlink:href="#Q"/><use transform="matrix(0.05,0,0,0.05,34.95,0)" xlink:href="#W"/><use transform="matrix(0.05,0,0,0.05,38.900000000000006,0)" xlink:href="#X"/><use transform="matrix(0.05,0,0,0.05,48.900000000000006,0)" xlink:href="#U"/></g><path d="M145-31C134-9 116 4 85 4 32 4 16-35 15-94c0-59 17-99 70-100 32-1 48 14 60 33 0-11-1-24 2-32h30l-1 268h-32zM93-21c41 0 51-33 51-76s-8-73-50-73c-40 0-46 35-46 75s5 74 45 74" id="ad"/><path d="M84 4C-5 8 30-112 23-190h32v120c0 31 7 50 39 49 72-2 45-101 50-169h31l1 190h-30c-1-10 1-25-2-33-11 22-28 36-60 37" id="ae"/><g id="h"><use transform="matrix(0.05,0,0,0.05,0,0)" xlink:href="#J"/><use transform="matrix(0.05,0,0,0.05,10,0)" xlink:href="#ad"/><use transform="matrix(0.05,0,0,0.05,20,0)" xlink:href="#ae"/><use transform="matrix(0.05,0,0,0.05,30,0)" xlink:href="#W"/><use transform="matrix(0.05,0,0,0.05,33.95,0)" xlink:href="#O"/><use transform="matrix(0.05,0,0,0.05,38.95,0)" xlink:href="#Y"/></g><g id="i"><use transform="matrix(0.05,0,0,0.05,0,0)" xlink:href="#V"/><use transform="matrix(0.05,0,0,0.05,10,0)" xlink:href="#P"/><use transform="matrix(0.05,0,0,0.05,14.65,0)" xlink:href="#P"/><use transform="matrix(0.05,0,0,0.05,19.65,0)" xlink:href="#J"/><use transform="matrix(0.05,0,0,0.05,29.649999999999995,0)" xlink:href="#K"/></g><g id="j"><use transform="matrix(0.05,0,0,0.05,0,0)" xlink:href="#G"/><use transform="matrix(0.05,0,0,0.05,12,0)" xlink:href="#L"/><use transform="matrix(0.05,0,0,0.05,21,0)" xlink:href="#N"/><use transform="matrix(0.05,0,0,0.05,31,0)" xlink:href="#ac"/><use transform="matrix(0.05,0,0,0.05,34.95,0)" xlink:href="#ae"/><use transform="matrix(0.05,0,0,0.05,44.95,0)" xlink:href="#O"/><use transform="matrix(0.05,0,0,0.05,49.95,0)" xlink:href="#J"/></g><g id="k"><use transform="matrix(0.05,0,0,0.05,0,0)" xlink:href="#aa"/><use transform="matrix(0.05,0,0,0.05,5,0)" xlink:href="#X"/><use transform="matrix(0.05,0,0,0.05,15,0)" xlink:href="#L"/><use transform="matrix(0.05,0,0,0.05,24,0)" xlink:href="#J"/><use transform="matrix(0.05,0,0,0.05,34,0)" xlink:href="#R"/><use transform="matrix(0.05,0,0,0.05,43,0)" xlink:href="#O"/><use transform="matrix(0.05,0,0,0.05,48,0)" xlink:href="#Z"/><use transform="matrix(0.05,0,0,0.05,62.95,0)" xlink:href="#J"/><use transform="matrix(0.05,0,0,0.05,72.95,0)" xlink:href="#X"/><use transform="matrix(0.05,0,0,0.05,82.95,0)" xlink:href="#O"/></g><path d="M85-194c31 0 48 13 60 33l-1-100h32l1 261h-30c-2-10 0-23-3-31C134-8 116 4 85 4 32 4 16-35 15-94c0-66 23-100 70-100zm9 24c-40 0-46 34-46 75 0 40 6 74 45 74 42 0 51-32 51-76 0-42-9-74-50-73" id="af"/><g id="l"><use transform="matrix(0.05,0,0,0.05,0,0)" xlink:href="#af"/><use transform="matrix(0.05,0,0,0.05,10,0)" xlink:href="#J"/><use transform="matrix(0.05,0,0,0.05,20,0)" xlink:href="#Q"/><use transform="matrix(0.05,0,0,0.05,29,0)" xlink:href="#W"/><use transform="matrix(0.05,0,0,0.05,32.95,0)" xlink:href="#R"/><use transform="matrix(0.05,0,0,0.05,41.95,0)" xlink:href="#W"/><use transform="matrix(0.05,0,0,0.05,45.900000000000006,0)" xlink:href="#V"/><use transform="matrix(0.05,0,0,0.05,55.900000000000006,0)" xlink:href="#X"/></g><path d="M15-91v-56l181-69v40L49-119l147 57v40" id="ag"/><path d="M88-194c31-1 46 15 58 34l-1-101h50l1 261h-48c-2-10 0-23-3-31C134-8 116 4 84 4 32 4 16-41 15-95c0-56 19-97 73-99zm17 164c33 0 40-30 41-66 1-37-9-64-41-64s-38 30-39 65c0 43 13 65 39 65" id="ah"/><path d="M185-48c-13 30-37 53-82 52C43 2 14-33 14-96s30-98 90-98c62 0 83 45 84 108H66c0 31 8 55 39 56 18 0 30-7 34-22zm-45-69c5-46-57-63-70-21-2 6-4 13-4 21h74" id="ai"/><path d="M128 0H69L1-190h53L99-40l48-150h52" id="aj"/><path d="M25-224v-37h50v37H25zM25 0v-190h50V0H25" id="ak"/><path d="M190-63c-7 42-38 67-86 67-59 0-84-38-90-98-12-110 154-137 174-36l-49 2c-2-19-15-32-35-32-30 0-35 28-38 64-6 74 65 87 74 30" id="al"/><path d="M15-22v-40l146-57-146-57v-40l181 69v56" id="am"/><g id="m"><use transform="matrix(0.05,0,0,0.05,0,0)" xlink:href="#ag"/><use transform="matrix(0.05,0,0,0.05,10.5,0)" xlink:href="#ag"/><use transform="matrix(0.05,0,0,0.05,21,0)" xlink:href="#ah"/><use transform="matrix(0.05,0,0,0.05,31.950000000000003,0)" xlink:href="#ai"/><use transform="matrix(0.05,0,0,0.05,41.95,0)" xlink:href="#aj"/><use transform="matrix(0.05,0,0,0.05,51.95,0)" xlink:href="#ak"/><use transform="matrix(0.05,0,0,0.05,56.95,0)" xlink:href="#al"/><use transform="matrix(0.05,0,0,0.05,66.95,0)" xlink:href="#ai"/><use transform="matrix(0.05,0,0,0.05,76.95,0)" xlink:href="#am"/><use transform="matrix(0.05,0,0,0.05,87.45,0)" xlink:href="#am"/></g><path d="M24 0v-248h52V0H24" id="an"/><path d="M135-194c87-1 58 113 63 194h-50c-7-57 23-157-34-157-59 0-34 97-39 157H25l-1-190h47c2 12-1 28 3 38 12-26 28-41 61-42" id="ao"/><path d="M137-138c1-29-70-34-71-4 15 46 118 7 119 86 1 83-164 76-172 9l43-7c4 19 20 25 44 25 33 8 57-30 24-41C81-84 22-81 20-136c-2-80 154-74 161-7" id="ap"/><path d="M115-3C79 11 28 4 28-45v-112H4v-33h27l15-45h31v45h36v33H77v99c-1 23 16 31 38 25v30" id="aq"/><path d="M110-194c64 0 96 36 96 99 0 64-35 99-97 99-61 0-95-36-95-99 0-62 34-99 96-99zm-1 164c35 0 45-28 45-65 0-40-10-65-43-65-34 0-45 26-45 65 0 36 10 65 43 65" id="ar"/><path d="M135-150c-39-12-60 13-60 57V0H25l-1-190h47c2 13-1 29 3 40 6-28 27-53 61-41v41" id="as"/><g id="n"><use transform="matrix(0.05,0,0,0.05,0,0)" xlink:href="#an"/><use transform="matrix(0.05,0,0,0.05,5,0)" xlink:href="#ao"/><use transform="matrix(0.05,0,0,0.05,15.950000000000001,0)" xlink:href="#aj"/><use transform="matrix(0.05,0,0,0.05,25.950000000000003,0)" xlink:href="#ai"/><use transform="matrix(0.05,0,0,0.05,35.95,0)" xlink:href="#ap"/><use transform="matrix(0.05,0,0,0.05,45.95,0)" xlink:href="#aq"/><use transform="matrix(0.05,0,0,0.05,51.900000000000006,0)" xlink:href="#ar"/><use transform="matrix(0.05,0,0,0.05,62.85,0)" xlink:href="#as"/></g><path d="M140-251c80 0 125 45 125 126S219 4 139 4C58 4 15-44 15-125s44-126 125-126zm-1 214c52 0 73-35 73-88 0-50-21-86-72-86-52 0-73 35-73 86s22 88 72 88" id="at"/><path d="M169-182c-1-43-94-46-97-3 18 66 151 10 154 114 3 95-165 93-204 36-6-8-10-19-12-30l50-8c3 46 112 56 116 5-17-69-150-10-154-114-4-87 153-88 188-35 5 8 8 18 10 28" id="au"/><g id="o"><use transform="matrix(0.05,0,0,0.05,0,0)" xlink:href="#ag"/><use transform="matrix(0.05,0,0,0.05,10.5,0)" xlink:href="#ag"/><use transform="matrix(0.05,0,0,0.05,21,0)" xlink:href="#at"/><use transform="matrix(0.05,0,0,0.05,35,0)" xlink:href="#au"/><use transform="matrix(0.05,0,0,0.05,47,0)" xlink:href="#am"/><use transform="matrix(0.05,0,0,0.05,57.5,0)" xlink:href="#am"/></g><path d="M133-34C117-15 103 5 69 4 32 3 11-16 11-54c-1-60 55-63 116-61 1-26-3-47-28-47-18 1-26 9-28 27l-52-2c7-38 36-58 82-57s74 22 75 68l1 82c-1 14 12 18 25 15v27c-30 8-71 5-69-32zm-48 3c29 0 43-24 42-57-32 0-66-3-65 30 0 17 8 27 23 27" id="av"/><g id="p"><use transform="matrix(0.05,0,0,0.05,0,0)" xlink:href="#av"/><use transform="matrix(0.05,0,0,0.05,10,0)" xlink:href="#ao"/><use transform="matrix(0.05,0,0,0.05,20.950000000000003,0)" xlink:href="#ah"/><use transform="matrix(0.05,0,0,0.05,31.900000000000005,0)" xlink:href="#as"/><use transform="matrix(0.05,0,0,0.05,38.900000000000006,0)" xlink:href="#ar"/><use transform="matrix(0.05,0,0,0.05,49.85000000000001,0)" xlink:href="#ak"/><use transform="matrix(0.05,0,0,0.05,54.85,0)" xlink:href="#ah"/></g><g id="q"><use transform="matrix(0.05,0,0,0.05,0,0)" xlink:href="#W"/><use transform="matrix(0.05,0,0,0.05,3.95,0)" xlink:href="#X"/><use transform="matrix(0.05,0,0,0.05,13.949999999999997,0)" xlink:href="#L"/><use transform="matrix(0.05,0,0,0.05,22.95,0)" xlink:href="#J"/><use transform="matrix(0.05,0,0,0.05,32.95,0)" xlink:href="#R"/><use transform="matrix(0.05,0,0,0.05,41.95,0)" xlink:href="#O"/><use transform="matrix(0.05,0,0,0.05,46.95,0)" xlink:href="#V"/><use transform="matrix(0.05,0,0,0.05,56.95,0)" xlink:href="#K"/></g><path d="M115-194c53 0 69 39 70 98 0 66-23 100-70 100C84 3 66-7 56-30L54 0H23l1-261h32v101c10-23 28-34 59-34zm-8 174c40 0 45-34 45-75 0-40-5-75-45-74-42 0-51 32-51 76 0 43 10 73 51 73" id="aw"/><g id="r"><use transform="matrix(0.05,0,0,0.05,0,0)" xlink:href="#Z"/><use transform="matrix(0.05,0,0,0.05,14.950000000000001,0)" xlink:href="#V"/><use transform="matrix(0.05,0,0,0.05,24.950000000000003,0)" xlink:href="#aw"/><use transform="matrix(0.05,0,0,0.05,34.95,0)" xlink:href="#W"/><use transform="matrix(0.05,0,0,0.05,38.900000000000006,0)" xlink:href="#ac"/><use transform="matrix(0.05,0,0,0.05,42.85000000000001,0)" xlink:href="#J"/></g><g id="s"><use transform="matrix(0.05,0,0,0.05,0,0)" xlink:href="#X"/><use transform="matrix(0.05,0,0,0.05,10,0)" xlink:href="#J"/><use transform="matrix(0.05,0,0,0.05,20,0)" xlink:href="#U"/><use transform="matrix(0.05,0,0,0.05,30,0)" xlink:href="#V"/><use transform="matrix(0.05,0,0,0.05,40,0)" xlink:href="#O"/><use transform="matrix(0.05,0,0,0.05,45,0)" xlink:href="#W"/><use transform="matrix(0.05,0,0,0.05,48.95,0)" xlink:href="#V"/><use transform="matrix(0.05,0,0,0.05,58.95,0)" xlink:href="#N"/><use transform="matrix(0.05,0,0,0.05,68.95,0)" xlink:href="#O"/><use transform="matrix(0.05,0,0,0.05,73.95,0)" xlink:href="#W"/><use transform="matrix(0.05,0,0,0.05,77.9,0)" xlink:href="#V"/><use transform="matrix(0.05,0,0,0.05,87.9,0)" xlink:href="#X"/></g><g id="t"><use transform="matrix(0.05,0,0,0.05,0,0)" xlink:href="#G"/><use transform="matrix(0.05,0,0,0.05,12,0)" xlink:href="#ad"/><use transform="matrix(0.05,0,0,0.05,22,0)" xlink:href="#ae"/><use transform="matrix(0.05,0,0,0.05,32,0)" xlink:href="#W"/><use transform="matrix(0.05,0,0,0.05,35.95,0)" xlink:href="#O"/><use transform="matrix(0.05,0,0,0.05,40.95,0)" xlink:href="#Y"/></g><path d="M197 0v-115H63V0H30v-248h33v105h134v-105h34V0h-34" id="ax"/><path d="M127-220V0H93v-220H8v-28h204v28h-85" id="ay"/><g id="u"><use transform="matrix(0.05,0,0,0.05,0,0)" xlink:href="#ax"/><use transform="matrix(0.05,0,0,0.05,12.950000000000001,0)" xlink:href="#ay"/><use transform="matrix(0.05,0,0,0.05,23.900000000000002,0)" xlink:href="#ay"/><use transform="matrix(0.05,0,0,0.05,34.85,0)" xlink:href="#ab"/><use transform="matrix(0.05,0,0,0.05,46.85,0)" xlink:href="#I"/></g><g id="v"><use transform="matrix(0.05,0,0,0.05,0,0)" xlink:href="#V"/><use transform="matrix(0.05,0,0,0.05,10,0)" xlink:href="#L"/><use transform="matrix(0.05,0,0,0.05,19,0)" xlink:href="#J"/><use transform="matrix(0.05,0,0,0.05,29,0)" xlink:href="#K"/></g><path d="M212-179c-10-28-35-45-73-45-59 0-87 40-87 99 0 60 29 101 89 101 43 0 62-24 78-52l27 14C228-24 195 4 139 4 59 4 22-46 18-125c-6-104 99-153 187-111 19 9 31 26 39 46" id="az"/><path d="M0 4l72-265h28L28 4H0" id="aA"/><g id="w"><use transform="matrix(0.05,0,0,0.05,0,0)" xlink:href="#ay"/><use transform="matrix(0.05,0,0,0.05,10.950000000000001,0)" xlink:href="#az"/><use transform="matrix(0.05,0,0,0.05,23.900000000000002,0)" xlink:href="#ab"/><use transform="matrix(0.05,0,0,0.05,35.900000000000006,0)" xlink:href="#aA"/><use transform="matrix(0.05,0,0,0.05,40.900000000000006,0)" xlink:href="#aa"/><use transform="matrix(0.05,0,0,0.05,45.900000000000006,0)" xlink:href="#ab"/></g><g id="x"><use transform="matrix(0.05,0,0,0.05,0,0)" xlink:href="#an"/><use transform="matrix(0.05,0,0,0.05,5,0)" xlink:href="#ao"/><use transform="matrix(0.05,0,0,0.05,15.950000000000001,0)" xlink:href="#ao"/><use transform="matrix(0.05,0,0,0.05,26.900000000000002,0)" xlink:href="#ar"/><use transform="matrix(0.05,0,0,0.05,37.85,0)" xlink:href="#aj"/><use transform="matrix(0.05,0,0,0.05,47.85,0)" xlink:href="#av"/><use transform="matrix(0.05,0,0,0.05,57.85,0)" xlink:href="#aq"/><use transform="matrix(0.05,0,0,0.05,63.800000000000004,0)" xlink:href="#ar"/><use transform="matrix(0.05,0,0,0.05,74.75,0)" xlink:href="#as"/></g><g id="y"><use transform="matrix(0.05,0,0,0.05,0,0)" xlink:href="#W"/><use transform="matrix(0.05,0,0,0.05,3.95,0)" xlink:href="#X"/><use transform="matrix(0.05,0,0,0.05,13.949999999999997,0)" xlink:href="#X"/><use transform="matrix(0.05,0,0,0.05,23.95,0)" xlink:href="#V"/><use transform="matrix(0.05,0,0,0.05,33.95,0)" xlink:href="#L"/><use transform="matrix(0.05,0,0,0.05,42.95,0)" xlink:href="#N"/><use transform="matrix(0.05,0,0,0.05,52.95,0)" xlink:href="#O"/><use transform="matrix(0.05,0,0,0.05,57.95,0)" xlink:href="#V"/><use transform="matrix(0.05,0,0,0.05,67.95,0)" xlink:href="#K"/></g><g id="z"><use transform="matrix(0.05,0,0,0.05,0,0)" xlink:href="#G"/><use transform="matrix(0.05,0,0,0.05,12,0)" xlink:href="#ad"/><use transform="matrix(0.05,0,0,0.05,22,0)" xlink:href="#ae"/><use transform="matrix(0.05,0,0,0.05,32,0)" xlink:href="#W"/><use transform="matrix(0.05,0,0,0.05,35.95,0)" xlink:href="#O"/><use transform="matrix(0.05,0,0,0.05,40.95,0)" xlink:href="#Y"/></g><path d="M30-248c118-7 216 8 213 122C240-48 200 0 122 0H30v-248zM63-27c89 8 146-16 146-99s-60-101-146-95v194" id="aB"/><g id="A"><use transform="matrix(0.05,0,0,0.05,0,0)" xlink:href="#aB"/><use transform="matrix(0.05,0,0,0.05,12.950000000000001,0)" xlink:href="#J"/><use transform="matrix(0.05,0,0,0.05,22.950000000000003,0)" xlink:href="#Q"/><use transform="matrix(0.05,0,0,0.05,31.950000000000003,0)" xlink:href="#W"/><use transform="matrix(0.05,0,0,0.05,35.900000000000006,0)" xlink:href="#R"/><use transform="matrix(0.05,0,0,0.05,44.900000000000006,0)" xlink:href="#W"/><use transform="matrix(0.05,0,0,0.05,48.85000000000001,0)" xlink:href="#V"/><use transform="matrix(0.05,0,0,0.05,58.85,0)" xlink:href="#X"/></g><path d="M231 0h-52l-39-155L100 0H48L-1-190h46L77-45c9-52 24-97 36-145h53l37 145 32-145h46" id="aC"/><path d="M135-194c52 0 70 43 70 98 0 56-19 99-73 100-30 1-46-15-58-35L72 0H24l1-261h50v104c11-23 29-37 60-37zM114-30c31 0 40-27 40-66 0-37-7-63-39-63s-41 28-41 65c0 36 8 64 40 64" id="aD"/><g id="B"><use transform="matrix(0.05,0,0,0.05,0,0)" xlink:href="#ag"/><use transform="matrix(0.05,0,0,0.05,10.5,0)" xlink:href="#ag"/><use transform="matrix(0.05,0,0,0.05,21,0)" xlink:href="#aC"/><use transform="matrix(0.05,0,0,0.05,35,0)" xlink:href="#ai"/><use transform="matrix(0.05,0,0,0.05,45,0)" xlink:href="#aD"/></g><g id="C"><use transform="matrix(0.05,0,0,0.05,0,0)" xlink:href="#aD"/><use transform="matrix(0.05,0,0,0.05,10.950000000000001,0)" xlink:href="#as"/><use transform="matrix(0.05,0,0,0.05,17.950000000000003,0)" xlink:href="#ar"/><use transform="matrix(0.05,0,0,0.05,28.900000000000005,0)" xlink:href="#aC"/><use transform="matrix(0.05,0,0,0.05,42.900000000000006,0)" xlink:href="#ap"/><use transform="matrix(0.05,0,0,0.05,52.900000000000006,0)" xlink:href="#ai"/><use transform="matrix(0.05,0,0,0.05,62.900000000000006,0)" xlink:href="#as"/><use transform="matrix(0.05,0,0,0.05,69.9,0)" xlink:href="#am"/><use transform="matrix(0.05,0,0,0.05,80.4,0)" xlink:href="#am"/></g><path d="M206 0h-36l-40-164L89 0H53L-1-190h32L70-26l43-164h34l41 164 42-164h31" id="aE"/><g id="D"><use transform="matrix(0.05,0,0,0.05,0,0)" xlink:href="#aE"/><use transform="matrix(0.05,0,0,0.05,12.950000000000001,0)" xlink:href="#J"/><use transform="matrix(0.05,0,0,0.05,22.950000000000003,0)" xlink:href="#aw"/></g><g id="E"><use transform="matrix(0.05,0,0,0.05,0,0)" xlink:href="#aw"/><use transform="matrix(0.05,0,0,0.05,10,0)" xlink:href="#K"/><use transform="matrix(0.05,0,0,0.05,15.949999999999997,0)" xlink:href="#V"/><use transform="matrix(0.05,0,0,0.05,25.950000000000003,0)" xlink:href="#aE"/><use transform="matrix(0.05,0,0,0.05,38.9,0)" xlink:href="#R"/><use transform="matrix(0.05,0,0,0.05,47.9,0)" xlink:href="#J"/><use transform="matrix(0.05,0,0,0.05,57.900000000000006,0)" xlink:href="#K"/></g></defs></g></svg>