<svg xmlns="http://www.w3.org/2000/svg" xmlns:xlink="http://www.w3.org/1999/xlink" xmlns:lucid="lucid" width="3500" height="1580"><g transform="translate(-20 -60)" lucid:page-tab-id="a-12tmxwQFQ."><path d="M0 0h3676.8v2582.4H0z" fill="#fff"/><path d="M40 122l50.4-42H2300v369.6l-42 50.4H40z" stroke="#000" stroke-width="2" fill="#fff"/><path d="M40 122l50.4-42H2300l-42 42z" stroke="#000" stroke-width="2" fill="#e6e6e6"/><path d="M2258 122l42-42v369.6l-42 50.4z" stroke="#000" stroke-width="2" fill="#ccc"/><use xlink:href="#a" transform="matrix(1,0,0,1,48,130) translate(0 16.6)"/><path d="M60 180h1220v260H60z" stroke="#000" stroke-width="2" fill-opacity="0"/><use xlink:href="#b" transform="matrix(1,0,0,1,68,188) translate(546.525 14.4)"/><use xlink:href="#c" transform="matrix(1,0,0,1,68,188) translate(544.55 36)"/><use xlink:href="#d" transform="matrix(1,0,0,1,68,188) translate(599.5 36)"/><path d="M140 301h180v100H140z" stroke="#000" stroke-width="2" fill="#fff"/><path d="M120 316h40v20h-40zM120 366h40v20h-40z" stroke="#000" stroke-width="2" fill="#fff"/><use xlink:href="#e" transform="matrix(1,0,0,1,160,311) translate(38.025 43.6)"/><path d="M560 301h240v100H560z" stroke="#000" stroke-width="2" fill="#fff"/><path d="M540 316h40v20h-40zM540 366h40v20h-40z" stroke="#000" stroke-width="2" fill="#fff"/><use xlink:href="#f" transform="matrix(1,0,0,1,592,311) translate(11.249999999999985 43.6)"/><use xlink:href="#g" transform="matrix(1,0,0,1,592,311) translate(100.05 43.6)"/><use xlink:href="#h" transform="matrix(1,0,0,1,592,311) translate(121.95 43.6)"/><path d="M1000 311h240v80h-240z" stroke="#000" stroke-width="2" fill="#fff"/><path d="M980 321h40v20h-40zM980 361h40v20h-40z" stroke="#000" stroke-width="2" fill="#fff"/><use xlink:href="#i" transform="matrix(1,0,0,1,1032,319) translate(21.599999999999994 35.6)"/><use xlink:href="#j" transform="matrix(1,0,0,1,1032,319) translate(99.5 35.6)"/><path d="M320 351h11M365 351h5" stroke="#000" stroke-width="2" fill="none"/><path d="M345 337c7.73 0 14 6.27 14 14s-6.27 14-14 14-14-6.27-14-14 6.27-14 14-14z" stroke="#000" stroke-width="2" fill="#fff"/><path d="M345 371c11.05 0 20-8.95 20-20s-8.95-20-20-20" stroke="#000" stroke-width="2" fill="none"/><path d="M320 350.2h11v1.6h-11z" fill="none"/><path d="M371 351h39v-91h260v39" stroke="#000" stroke-width="2" fill="none"/><path d="M371.03 352H370v-2h-3 4.03zM671 300h-2v-1.03h2z"/><path d="M800 361h11M845 361h5" stroke="#000" stroke-width="2" fill="none"/><path d="M825 347c7.73 0 14 6.27 14 14s-6.27 14-14 14-14-6.27-14-14 6.27-14 14-14z" stroke="#000" stroke-width="2" fill="#fff"/><path d="M825 381c11.05 0 20-8.95 20-20s-8.95-20-20-20" stroke="#000" stroke-width="2" fill="none"/><path d="M800 360.2h11v1.6h-11z" fill="none"/><path d="M851 361h39v-91h240.67v39" stroke="#000" stroke-width="2" fill="none"/><path d="M851.03 362H850v-2h-3 4.03zM1131.67 310h-2v-1.03h2z"/><path d="M1360 180h840v240h-840z" stroke="#000" stroke-width="2" fill-opacity="0"/><use xlink:href="#k" transform="matrix(1,0,0,1,1368,188) translate(333.05 15.6)"/><use xlink:href="#l" transform="matrix(1,0,0,1,1368,188) translate(387.05 15.6)"/><path d="M1900 291h220v100h-220z" stroke="#000" stroke-width="2" fill="#fff"/><path d="M1880 306h40v20h-40zM1880 356h40v20h-40z" stroke="#000" stroke-width="2" fill="#fff"/><use xlink:href="#m" transform="matrix(1,0,0,1,1928,301) translate(59.599999999999994 32.8)"/><use xlink:href="#n" transform="matrix(1,0,0,1,1928,301) translate(28.599999999999994 54.4)"/><path d="M1460 301h240v80h-240z" stroke="#000" stroke-width="2" fill="#fff"/><path d="M1440 311h40v20h-40zM1440 351h40v20h-40z" stroke="#000" stroke-width="2" fill="#fff"/><use xlink:href="#o" transform="matrix(1,0,0,1,1492,309) translate(50.125 35.6)"/><path d="M1700 341h11M1745 341h5" stroke="#000" stroke-width="2" fill="none"/><path d="M1725 327c7.73 0 14 6.27 14 14s-6.27 14-14 14-14-6.27-14-14 6.27-14 14-14z" stroke="#000" stroke-width="2" fill="#fff"/><path d="M1725 361c11.05 0 20-8.95 20-20s-8.95-20-20-20" stroke="#000" stroke-width="2" fill="none"/><path d="M1700 340.2h11v1.6h-11z" fill="none"/><path d="M1751 341h39v-91h210v39" stroke="#000" stroke-width="2" fill="none"/><path d="M1751.03 342H1750v-2h-3 4.03zM2001 290h-2v-1.03h2z"/><path d="M140 936l91.2-76H1220v668.8l-76 91.2H140z" stroke="#000" stroke-width="2" fill="#fff"/><path d="M140 936l91.2-76H1220l-76 76z" stroke="#000" stroke-width="2" fill="#e6e6e6"/><path d="M1144 936l76-76v668.8l-76 91.2z" stroke="#000" stroke-width="2" fill="#ccc"/><use xlink:href="#p" transform="matrix(1,0,0,1,148,944) translate(0 14.4)"/><use xlink:href="#q" transform="matrix(1,0,0,1,148,944) translate(0 36)"/><path d="M200 1022l74.4-62H1100v545.6l-62 74.4H200z" stroke="#000" stroke-width="2" fill="#fff"/><path d="M200 1022l74.4-62H1100l-62 62z" stroke="#000" stroke-width="2" fill="#e6e6e6"/><path d="M1038 1022l62-62v545.6l-62 74.4z" stroke="#000" stroke-width="2" fill="#ccc"/><use xlink:href="#r" transform="matrix(1,0,0,1,208,1030) translate(0 16.6)"/><use xlink:href="#s" transform="matrix(1,0,0,1,208,1030) translate(58.95 16.6)"/><path d="M220 1080h760v480H220z" stroke="#000" stroke-width="2" fill-opacity="0"/><use xlink:href="#b" transform="matrix(1,0,0,1,228,1088) translate(316.525 14.4)"/><use xlink:href="#t" transform="matrix(1,0,0,1,228,1088) translate(228.65 36)"/><use xlink:href="#u" transform="matrix(1,0,0,1,228,1088) translate(297.6 36)"/><use xlink:href="#v" transform="matrix(1,0,0,1,228,1088) translate(340.55 36)"/><use xlink:href="#w" transform="matrix(1,0,0,1,228,1088) translate(409.4 36)"/><use xlink:href="#x" transform="matrix(1,0,0,1,228,1088) translate(458.4 36)"/><path d="M265 1260h180v100H265z" stroke="#000" stroke-width="2" fill="#fff"/><path d="M245 1275h40v20h-40zM245 1325h40v20h-40z" stroke="#000" stroke-width="2" fill="#fff"/><use xlink:href="#e" transform="matrix(1,0,0,1,285,1270) translate(38.025 43.6)"/><path d="M580 1360h200v100H580z" stroke="#000" stroke-width="2" fill="#fff"/><path d="M560 1375h40v20h-40zM560 1425h40v20h-40z" stroke="#000" stroke-width="2" fill="#fff"/><use xlink:href="#y" transform="matrix(1,0,0,1,604,1370) translate(47.025 43.6)"/><path d="M445 1310h11M490 1310h5" stroke="#000" stroke-width="2" fill="none"/><path d="M470 1296c7.73 0 14 6.27 14 14s-6.27 14-14 14-14-6.27-14-14 6.27-14 14-14z" stroke="#000" stroke-width="2" fill="#fff"/><path d="M470 1330c11.05 0 20-8.95 20-20s-8.95-20-20-20" stroke="#000" stroke-width="2" fill="none"/><path d="M445 1309.2h11v1.6h-11z" fill="none"/><path d="M496 1310h230.1v48" stroke="#000" stroke-width="2" fill="none"/><path d="M496.03 1311H495v-2h-3 4.03zM727.1 1359h-2v-1.03h2z"/><path d="M1260 936l91.2-76H2340v668.8l-76 91.2H1260z" stroke="#000" stroke-width="2" fill="#fff"/><path d="M1260 936l91.2-76H2340l-76 76z" stroke="#000" stroke-width="2" fill="#e6e6e6"/><path d="M2264 936l76-76v668.8l-76 91.2z" stroke="#000" stroke-width="2" fill="#ccc"/><use xlink:href="#p" transform="matrix(1,0,0,1,1268,944) translate(0 14.4)"/><use xlink:href="#z" transform="matrix(1,0,0,1,1268,944) translate(0 36)"/><path d="M1320 1022l74.4-62H2220v545.6l-62 74.4h-838z" stroke="#000" stroke-width="2" fill="#fff"/><path d="M1320 1022l74.4-62H2220l-62 62z" stroke="#000" stroke-width="2" fill="#e6e6e6"/><path d="M2158 1022l62-62v545.6l-62 74.4z" stroke="#000" stroke-width="2" fill="#ccc"/><use xlink:href="#r" transform="matrix(1,0,0,1,1328,1030) translate(0 16.6)"/><use xlink:href="#s" transform="matrix(1,0,0,1,1328,1030) translate(58.95 16.6)"/><path d="M1340 1080h760v480h-760z" stroke="#000" stroke-width="2" fill-opacity="0"/><use xlink:href="#b" transform="matrix(1,0,0,1,1348,1088) translate(316.525 14.4)"/><use xlink:href="#t" transform="matrix(1,0,0,1,1348,1088) translate(228.65 36)"/><use xlink:href="#u" transform="matrix(1,0,0,1,1348,1088) translate(297.6 36)"/><use xlink:href="#v" transform="matrix(1,0,0,1,1348,1088) translate(340.55 36)"/><use xlink:href="#w" transform="matrix(1,0,0,1,1348,1088) translate(409.4 36)"/><use xlink:href="#x" transform="matrix(1,0,0,1,1348,1088) translate(458.4 36)"/><path d="M1385 1260h180v100h-180z" stroke="#000" stroke-width="2" fill="#fff"/><path d="M1365 1275h40v20h-40zM1365 1325h40v20h-40z" stroke="#000" stroke-width="2" fill="#fff"/><use xlink:href="#A" transform="matrix(1,0,0,1,1405,1270) translate(32.525 43.6)"/><path d="M1700 1360h200v100h-200z" stroke="#000" stroke-width="2" fill="#fff"/><path d="M1680 1375h40v20h-40zM1680 1425h40v20h-40z" stroke="#000" stroke-width="2" fill="#fff"/><use xlink:href="#B" transform="matrix(1,0,0,1,1724,1370) translate(9.149999999999991 43.6)"/><use xlink:href="#C" transform="matrix(1,0,0,1,1724,1370) translate(83 43.6)"/><path d="M1565 1310h11M1610 1310h5" stroke="#000" stroke-width="2" fill="none"/><path d="M1590 1296c7.73 0 14 6.27 14 14s-6.27 14-14 14-14-6.27-14-14 6.27-14 14-14z" stroke="#000" stroke-width="2" fill="#fff"/><path d="M1590 1330c11.05 0 20-8.95 20-20s-8.95-20-20-20" stroke="#000" stroke-width="2" fill="none"/><path d="M1565 1309.2h11v1.6h-11z" fill="none"/><path d="M1616 1310h230.1v48" stroke="#000" stroke-width="2" fill="none"/><path d="M1616.03 1311H1615v-2h-3 4.03zM1847.1 1359h-2v-1.03h2z"/><path d="M2420 936l91.2-76H3500v668.8l-76 91.2H2420z" stroke="#000" stroke-width="2" fill="#fff"/><path d="M2420 936l91.2-76H3500l-76 76z" stroke="#000" stroke-width="2" fill="#e6e6e6"/><path d="M3424 936l76-76v668.8l-76 91.2z" stroke="#000" stroke-width="2" fill="#ccc"/><use xlink:href="#p" transform="matrix(1,0,0,1,2428,944) translate(0 14.4)"/><use xlink:href="#z" transform="matrix(1,0,0,1,2428,944) translate(0 36)"/><path d="M2480 1022l74.4-62H3380v545.6l-62 74.4h-838z" stroke="#000" stroke-width="2" fill="#fff"/><path d="M2480 1022l74.4-62H3380l-62 62z" stroke="#000" stroke-width="2" fill="#e6e6e6"/><path d="M3318 1022l62-62v545.6l-62 74.4z" stroke="#000" stroke-width="2" fill="#ccc"/><use xlink:href="#D" transform="matrix(1,0,0,1,2488,1030) translate(0 14.4)"/><use xlink:href="#E" transform="matrix(1,0,0,1,2488,1030) translate(0 36)"/><path d="M2500 1080h760v480h-760z" stroke="#000" stroke-width="2" fill-opacity="0"/><use xlink:href="#b" transform="matrix(1,0,0,1,2508,1088) translate(316.525 14.4)"/><use xlink:href="#t" transform="matrix(1,0,0,1,2508,1088) translate(228.65 36)"/><use xlink:href="#u" transform="matrix(1,0,0,1,2508,1088) translate(297.6 36)"/><use xlink:href="#v" transform="matrix(1,0,0,1,2508,1088) translate(340.55 36)"/><use xlink:href="#w" transform="matrix(1,0,0,1,2508,1088) translate(409.4 36)"/><use xlink:href="#x" transform="matrix(1,0,0,1,2508,1088) translate(458.4 36)"/><path d="M2545 1260h180v100h-180z" stroke="#000" stroke-width="2" fill="#fff"/><path d="M2525 1275h40v20h-40zM2525 1325h40v20h-40z" stroke="#000" stroke-width="2" fill="#fff"/><use xlink:href="#A" transform="matrix(1,0,0,1,2565,1270) translate(32.525 43.6)"/><path d="M2860 1360h200v100h-200z" stroke="#000" stroke-width="2" fill="#fff"/><path d="M2840 1375h40v20h-40zM2840 1425h40v20h-40z" stroke="#000" stroke-width="2" fill="#fff"/><use xlink:href="#B" transform="matrix(1,0,0,1,2884,1370) translate(9.149999999999991 43.6)"/><use xlink:href="#C" transform="matrix(1,0,0,1,2884,1370) translate(83 43.6)"/><path d="M2725 1310h11M2770 1310h5" stroke="#000" stroke-width="2" fill="none"/><path d="M2750 1296c7.73 0 14 6.27 14 14s-6.27 14-14 14-14-6.27-14-14 6.27-14 14-14z" stroke="#000" stroke-width="2" fill="#fff"/><path d="M2750 1330c11.05 0 20-8.95 20-20s-8.95-20-20-20" stroke="#000" stroke-width="2" fill="none"/><path d="M2725 1309.2h11v1.6h-11z" fill="none"/><path d="M2776 1310h230.1v48" stroke="#000" stroke-width="2" fill="none"/><path d="M2776.03 1311H2775v-2h-3 4.03zM3007.1 1359h-2v-1.03h2z"/><path d="M694.67 1078V760H670V442" stroke="#000" stroke-width="2" fill="none"/><path d="M695.67 1079h-2v-1.03h2zM671 442.03h-2V441h2z"/><g><use xlink:href="#F" transform="matrix(1,0,0,1,677.9999999999999,717.2265563387922) translate(0 14.4)"/><use xlink:href="#G" transform="matrix(1,0,0,1,677.9999999999999,717.2265563387922) translate(63.85 14.4)"/><use xlink:href="#H" transform="matrix(1,0,0,1,677.9999999999999,717.2265563387922) translate(103.80000000000001 14.4)"/></g><path d="M1837.33 1078V750H1780V422" stroke="#000" stroke-width="2" fill="none"/><path d="M1838.33 1079h-2v-1.03h2zM1781 422.03h-2V421h2z"/><g><use xlink:href="#F" transform="matrix(1,0,0,1,1845.3333333333334,753.9316697344345) translate(0 14.4)"/><use xlink:href="#G" transform="matrix(1,0,0,1,1845.3333333333334,753.9316697344345) translate(63.85 14.4)"/><use xlink:href="#H" transform="matrix(1,0,0,1,1845.3333333333334,753.9316697344345) translate(103.80000000000001 14.4)"/></g><path d="M2730.67 1078V787.92h-892.34" stroke="#000" stroke-width="2" fill="none"/><path d="M2731.67 1079h-2v-1.03h2z"/><path d="M1838.36 787.92h-1.03M1358 340.67h-76" stroke="#000" stroke-width="2" fill="none"/><path d="M1359 341.67h-1.03v-2h1.03zM1282.03 341.67H1281v-2h1.03z"/><path d="M2900 329c0 6.63-26.86 12-60 12s-60-5.37-60-12v-96c0-6.63 26.86-12 60-12s60 5.37 60 12z" stroke="#000" stroke-width="2" fill="#fff"/><path d="M2900 233c0 6.63-26.86 12-60 12s-60-5.37-60-12" stroke="#000" stroke-width="2" fill="none"/><g><use xlink:href="#I" transform="matrix(1,0,0,1,2785,250) translate(16.525 46.65)"/></g><path d="M2302 290h238v-9h238" stroke="#000" stroke-width="2" fill="none"/><path d="M2302.03 291H2301v-2h1.03zM2779 282h-1.03v-2h1.03z"/><g><use xlink:href="#J" transform="matrix(1,0,0,1,2509.9410804028666,255.5839804368976) translate(0 14.4)"/></g><defs><path d="M240 0l2-218c-23 76-54 145-80 218h-23L58-218 59 0H30v-248h44l77 211c21-75 51-140 76-211h43V0h-30" id="K"/><path d="M30 0v-248h187v28H63v79h144v27H63v87h162V0H30" id="L"/><path d="M194 0L95-120 63-95V0H30v-248h33v124l119-124h40L117-140 236 0h-42" id="M"/><path d="M185-189c-5-48-123-54-124 2 14 75 158 14 163 119 3 78-121 87-175 55-17-10-28-26-33-46l33-7c5 56 141 63 141-1 0-78-155-14-162-118-5-82 145-84 179-34 5 7 8 16 11 25" id="N"/><path d="M100-194c63 0 86 42 84 106H49c0 40 14 67 53 68 26 1 43-12 49-29l28 8c-11 28-37 45-77 45C44 4 14-33 15-96c1-61 26-98 85-98zm52 81c6-60-76-77-97-28-3 7-6 17-6 28h103" id="O"/><path d="M114-163C36-179 61-72 57 0H25l-1-190h30c1 12-1 29 2 39 6-27 23-49 58-41v29" id="P"/><path d="M108 0H70L1-190h34L89-25l56-165h34" id="Q"/><g id="a"><use transform="matrix(0.05,0,0,0.05,0,0)" xlink:href="#K"/><use transform="matrix(0.05,0,0,0.05,14.950000000000001,0)" xlink:href="#L"/><use transform="matrix(0.05,0,0,0.05,26.950000000000003,0)" xlink:href="#L"/><use transform="matrix(0.05,0,0,0.05,38.95,0)" xlink:href="#M"/><use transform="matrix(0.05,0,0,0.05,50.95,0)" xlink:href="#N"/><use transform="matrix(0.05,0,0,0.05,62.95,0)" xlink:href="#O"/><use transform="matrix(0.05,0,0,0.05,72.95,0)" xlink:href="#P"/><use transform="matrix(0.05,0,0,0.05,78.9,0)" xlink:href="#Q"/><use transform="matrix(0.05,0,0,0.05,87.9,0)" xlink:href="#O"/><use transform="matrix(0.05,0,0,0.05,97.9,0)" xlink:href="#P"/></g><path d="M18-100v-36l175-74v27L42-118l151 64v27" id="R"/><path d="M141-36C126-15 110 5 73 4 37 3 15-17 15-53c-1-64 63-63 125-63 3-35-9-54-41-54-24 1-41 7-42 31l-33-3c5-37 33-52 76-52 45 0 72 20 72 64v82c-1 20 7 32 28 27v20c-31 9-61-2-59-35zM48-53c0 20 12 33 32 33 41-3 63-29 60-74-43 2-92-5-92 41" id="S"/><path d="M59-47c-2 24 18 29 38 22v24C64 9 27 4 27-40v-127H5v-23h24l9-43h21v43h35v23H59v120" id="T"/><path d="M101-234c-31-9-42 10-38 44h38v23H63V0H32v-167H5v-23h27c-7-52 17-82 69-68v24" id="U"/><path d="M96-169c-40 0-48 33-48 73s9 75 48 75c24 0 41-14 43-38l32 2c-6 37-31 61-74 61-59 0-76-41-82-99-10-93 101-131 147-64 4 7 5 14 7 22l-32 3c-4-21-16-35-41-35" id="V"/><path d="M135-143c-3-34-86-38-87 0 15 53 115 12 119 90S17 21 10-45l28-5c4 36 97 45 98 0-10-56-113-15-118-90-4-57 82-63 122-42 12 7 21 19 24 35" id="W"/><path d="M18-27v-27l151-64-151-65v-27l175 74v36" id="X"/><g id="b"><use transform="matrix(0.05,0,0,0.05,0,0)" xlink:href="#R"/><use transform="matrix(0.05,0,0,0.05,10.5,0)" xlink:href="#R"/><use transform="matrix(0.05,0,0,0.05,21,0)" xlink:href="#S"/><use transform="matrix(0.05,0,0,0.05,31,0)" xlink:href="#P"/><use transform="matrix(0.05,0,0,0.05,36.95,0)" xlink:href="#T"/><use transform="matrix(0.05,0,0,0.05,41.95,0)" xlink:href="#O"/><use transform="matrix(0.05,0,0,0.05,51.95,0)" xlink:href="#U"/><use transform="matrix(0.05,0,0,0.05,56.95,0)" xlink:href="#S"/><use transform="matrix(0.05,0,0,0.05,66.95,0)" xlink:href="#V"/><use transform="matrix(0.05,0,0,0.05,75.95,0)" xlink:href="#T"/><use transform="matrix(0.05,0,0,0.05,80.95,0)" xlink:href="#W"/><use transform="matrix(0.05,0,0,0.05,89.95,0)" xlink:href="#X"/><use transform="matrix(0.05,0,0,0.05,100.45,0)" xlink:href="#X"/></g><path d="M63-220v92h138v28H63V0H30v-248h175v28H63" id="Y"/><path d="M84 4C-5 8 30-112 23-190h32v120c0 31 7 50 39 49 72-2 45-101 50-169h31l1 190h-30c-1-10 1-25-2-33-11 22-28 36-60 37" id="Z"/><path d="M117-194c89-4 53 116 60 194h-32v-121c0-31-8-49-39-48C34-167 62-67 57 0H25l-1-190h30c1 10-1 24 2 32 11-22 29-35 61-36" id="aa"/><path d="M85-194c31 0 48 13 60 33l-1-100h32l1 261h-30c-2-10 0-23-3-31C134-8 116 4 85 4 32 4 16-35 15-94c0-66 23-100 70-100zm9 24c-40 0-46 34-46 75 0 40 6 74 45 74 42 0 51-32 51-76 0-42-9-74-50-73" id="ab"/><g id="c"><use transform="matrix(0.05,0,0,0.05,0,0)" xlink:href="#Y"/><use transform="matrix(0.05,0,0,0.05,10.950000000000001,0)" xlink:href="#Z"/><use transform="matrix(0.05,0,0,0.05,20.950000000000003,0)" xlink:href="#aa"/><use transform="matrix(0.05,0,0,0.05,30.950000000000003,0)" xlink:href="#ab"/><use transform="matrix(0.05,0,0,0.05,40.95,0)" xlink:href="#W"/></g><path d="M179-190L93 31C79 59 56 82 12 73V49c39 6 53-20 64-50L1-190h34L92-34l54-156h33" id="ac"/><path d="M210-169c-67 3-38 105-44 169h-31v-121c0-29-5-50-35-48C34-165 62-65 56 0H25l-1-190h30c1 10-1 24 2 32 10-44 99-50 107 0 11-21 27-35 58-36 85-2 47 119 55 194h-31v-121c0-29-5-49-35-48" id="ad"/><g id="d"><use transform="matrix(0.05,0,0,0.05,0,0)" xlink:href="#N"/><use transform="matrix(0.05,0,0,0.05,12,0)" xlink:href="#ac"/><use transform="matrix(0.05,0,0,0.05,21,0)" xlink:href="#W"/><use transform="matrix(0.05,0,0,0.05,30,0)" xlink:href="#T"/><use transform="matrix(0.05,0,0,0.05,35,0)" xlink:href="#O"/><use transform="matrix(0.05,0,0,0.05,45,0)" xlink:href="#ad"/></g><path d="M33 0v-248h34V0H33" id="ae"/><path d="M100-194c62-1 85 37 85 99 1 63-27 99-86 99S16-35 15-95c0-66 28-99 85-99zM99-20c44 1 53-31 53-75 0-43-8-75-51-75s-53 32-53 75 10 74 51 75" id="af"/><g id="e"><use transform="matrix(0.05,0,0,0.05,0,0)" xlink:href="#ae"/><use transform="matrix(0.05,0,0,0.05,5,0)" xlink:href="#aa"/><use transform="matrix(0.05,0,0,0.05,15,0)" xlink:href="#Q"/><use transform="matrix(0.05,0,0,0.05,24,0)" xlink:href="#O"/><use transform="matrix(0.05,0,0,0.05,34,0)" xlink:href="#W"/><use transform="matrix(0.05,0,0,0.05,43,0)" xlink:href="#T"/><use transform="matrix(0.05,0,0,0.05,48,0)" xlink:href="#af"/><use transform="matrix(0.05,0,0,0.05,58,0)" xlink:href="#P"/></g><path d="M133-34C117-15 103 5 69 4 32 3 11-16 11-54c-1-60 55-63 116-61 1-26-3-47-28-47-18 1-26 9-28 27l-52-2c7-38 36-58 82-57s74 22 75 68l1 82c-1 14 12 18 25 15v27c-30 8-71 5-69-32zm-48 3c29 0 43-24 42-57-32 0-66-3-65 30 0 17 8 27 23 27" id="ag"/><path d="M25 0v-261h50V0H25" id="ah"/><path d="M110-194c64 0 96 36 96 99 0 64-35 99-97 99-61 0-95-36-95-99 0-62 34-99 96-99zm-1 164c35 0 45-28 45-65 0-40-10-65-43-65-34 0-45 26-45 65 0 36 10 65 43 65" id="ai"/><path d="M190-63c-7 42-38 67-86 67-59 0-84-38-90-98-12-110 154-137 174-36l-49 2c-2-19-15-32-35-32-30 0-35 28-38 64-6 74 65 87 74 30" id="aj"/><path d="M115-3C79 11 28 4 28-45v-112H4v-33h27l15-45h31v45h36v33H77v99c-1 23 16 31 38 25v30" id="ak"/><path d="M25-224v-37h50v37H25zM25 0v-190h50V0H25" id="al"/><path d="M135-194c87-1 58 113 63 194h-50c-7-57 23-157-34-157-59 0-34 97-39 157H25l-1-190h47c2 12-1 28 3 38 12-26 28-41 61-42" id="am"/><g id="f"><use transform="matrix(0.05,0,0,0.05,0,0)" xlink:href="#ag"/><use transform="matrix(0.05,0,0,0.05,10,0)" xlink:href="#ah"/><use transform="matrix(0.05,0,0,0.05,15,0)" xlink:href="#ah"/><use transform="matrix(0.05,0,0,0.05,20,0)" xlink:href="#ai"/><use transform="matrix(0.05,0,0,0.05,30.950000000000003,0)" xlink:href="#aj"/><use transform="matrix(0.05,0,0,0.05,40.95,0)" xlink:href="#ag"/><use transform="matrix(0.05,0,0,0.05,50.95,0)" xlink:href="#ak"/><use transform="matrix(0.05,0,0,0.05,56.900000000000006,0)" xlink:href="#al"/><use transform="matrix(0.05,0,0,0.05,61.900000000000006,0)" xlink:href="#ai"/><use transform="matrix(0.05,0,0,0.05,72.85000000000001,0)" xlink:href="#am"/></g><path d="M121-226c-27-7-43 5-38 36h38v33H83V0H34v-157H6v-33h28c-9-59 32-81 87-68v32" id="an"/><g id="g"><use transform="matrix(0.05,0,0,0.05,0,0)" xlink:href="#ai"/><use transform="matrix(0.05,0,0,0.05,10.950000000000001,0)" xlink:href="#an"/></g><path d="M85 4C-2 5 27-109 22-190h50c7 57-23 150 33 157 60-5 35-97 40-157h50l1 190h-47c-2-12 1-28-3-38-12 25-28 42-61 42" id="ao"/><path d="M88-194c31-1 46 15 58 34l-1-101h50l1 261h-48c-2-10 0-23-3-31C134-8 116 4 84 4 32 4 16-41 15-95c0-56 19-97 73-99zm17 164c33 0 40-30 41-66 1-37-9-64-41-64s-38 30-39 65c0 43 13 65 39 65" id="ap"/><path d="M137-138c1-29-70-34-71-4 15 46 118 7 119 86 1 83-164 76-172 9l43-7c4 19 20 25 44 25 33 8 57-30 24-41C81-84 22-81 20-136c-2-80 154-74 161-7" id="aq"/><g id="h"><use transform="matrix(0.05,0,0,0.05,0,0)" xlink:href="#an"/><use transform="matrix(0.05,0,0,0.05,5.95,0)" xlink:href="#ao"/><use transform="matrix(0.05,0,0,0.05,16.900000000000002,0)" xlink:href="#am"/><use transform="matrix(0.05,0,0,0.05,27.85,0)" xlink:href="#ap"/><use transform="matrix(0.05,0,0,0.05,38.800000000000004,0)" xlink:href="#aq"/></g><path d="M67-125c0 54 23 88 75 88 28 0 53-7 68-21v-34h-60v-39h108v91C232-14 192 4 140 4 58 4 20-42 15-125 8-236 126-280 215-234c19 10 29 26 37 47l-47 15c-11-23-29-39-63-39-53 1-75 33-75 86" id="ar"/><path d="M185-48c-13 30-37 53-82 52C43 2 14-33 14-96s30-98 90-98c62 0 83 45 84 108H66c0 31 8 55 39 56 18 0 30-7 34-22zm-45-69c5-46-57-63-70-21-2 6-4 13-4 21h74" id="as"/><path d="M135-150c-39-12-60 13-60 57V0H25l-1-190h47c2 13-1 29 3 40 6-28 27-53 61-41v41" id="at"/><g id="i"><use transform="matrix(0.05,0,0,0.05,0,0)" xlink:href="#ar"/><use transform="matrix(0.05,0,0,0.05,14,0)" xlink:href="#am"/><use transform="matrix(0.05,0,0,0.05,24.950000000000003,0)" xlink:href="#as"/><use transform="matrix(0.05,0,0,0.05,34.95,0)" xlink:href="#at"/><use transform="matrix(0.05,0,0,0.05,41.95,0)" xlink:href="#ag"/><use transform="matrix(0.05,0,0,0.05,51.95,0)" xlink:href="#ak"/><use transform="matrix(0.05,0,0,0.05,57.900000000000006,0)" xlink:href="#as"/></g><path d="M24 0v-248h52V0H24" id="au"/><path d="M128 0H69L1-190h53L99-40l48-150h52" id="av"/><g id="j"><use transform="matrix(0.05,0,0,0.05,0,0)" xlink:href="#au"/><use transform="matrix(0.05,0,0,0.05,5,0)" xlink:href="#am"/><use transform="matrix(0.05,0,0,0.05,15.950000000000001,0)" xlink:href="#av"/><use transform="matrix(0.05,0,0,0.05,25.950000000000003,0)" xlink:href="#ai"/><use transform="matrix(0.05,0,0,0.05,36.900000000000006,0)" xlink:href="#al"/><use transform="matrix(0.05,0,0,0.05,41.900000000000006,0)" xlink:href="#aj"/><use transform="matrix(0.05,0,0,0.05,51.900000000000006,0)" xlink:href="#as"/></g><g id="k"><use transform="matrix(0.05,0,0,0.05,0,0)" xlink:href="#U"/><use transform="matrix(0.05,0,0,0.05,5,0)" xlink:href="#Z"/><use transform="matrix(0.05,0,0,0.05,15,0)" xlink:href="#aa"/><use transform="matrix(0.05,0,0,0.05,25,0)" xlink:href="#ab"/><use transform="matrix(0.05,0,0,0.05,35,0)" xlink:href="#W"/></g><path d="M177-190C167-65 218 103 67 71c-23-6-38-20-44-43l32-5c15 47 100 32 89-28v-30C133-14 115 1 83 1 29 1 15-40 15-95c0-56 16-97 71-98 29-1 48 16 59 35 1-10 0-23 2-32h30zM94-22c36 0 50-32 50-73 0-42-14-75-50-75-39 0-46 34-46 75s6 73 46 73" id="aw"/><g id="l"><use transform="matrix(0.05,0,0,0.05,0,0)" xlink:href="#ad"/><use transform="matrix(0.05,0,0,0.05,14.950000000000001,0)" xlink:href="#S"/><use transform="matrix(0.05,0,0,0.05,24.950000000000003,0)" xlink:href="#aa"/><use transform="matrix(0.05,0,0,0.05,34.95,0)" xlink:href="#S"/><use transform="matrix(0.05,0,0,0.05,44.95,0)" xlink:href="#aw"/><use transform="matrix(0.05,0,0,0.05,54.95,0)" xlink:href="#O"/><use transform="matrix(0.05,0,0,0.05,64.95,0)" xlink:href="#ad"/><use transform="matrix(0.05,0,0,0.05,79.9,0)" xlink:href="#O"/><use transform="matrix(0.05,0,0,0.05,89.9,0)" xlink:href="#aa"/><use transform="matrix(0.05,0,0,0.05,99.9,0)" xlink:href="#T"/></g><g id="m"><use transform="matrix(0.05,0,0,0.05,0,0)" xlink:href="#an"/><use transform="matrix(0.05,0,0,0.05,5.95,0)" xlink:href="#ao"/><use transform="matrix(0.05,0,0,0.05,16.900000000000002,0)" xlink:href="#am"/><use transform="matrix(0.05,0,0,0.05,27.85,0)" xlink:href="#ap"/><use transform="matrix(0.05,0,0,0.05,38.800000000000004,0)" xlink:href="#aq"/></g><path d="M220-157c-53 9-28 100-34 157h-49v-107c1-27-5-49-29-50C55-147 81-57 75 0H25l-1-190h47c2 12-1 28 3 38 10-53 101-56 108 0 13-22 24-43 59-42 82 1 51 116 57 194h-49v-107c-1-25-5-48-29-50" id="ax"/><path d="M195-6C206 82 75 100 31 46c-4-6-6-13-8-21l49-6c3 16 16 24 34 25 40 0 42-37 40-79-11 22-30 35-61 35-53 0-70-43-70-97 0-56 18-96 73-97 30 0 46 14 59 34l2-30h47zm-90-29c32 0 41-27 41-63 0-35-9-62-40-62-32 0-39 29-40 63 0 36 9 62 39 62" id="ay"/><g id="n"><use transform="matrix(0.05,0,0,0.05,0,0)" xlink:href="#ax"/><use transform="matrix(0.05,0,0,0.05,16,0)" xlink:href="#ag"/><use transform="matrix(0.05,0,0,0.05,26,0)" xlink:href="#am"/><use transform="matrix(0.05,0,0,0.05,36.95,0)" xlink:href="#ag"/><use transform="matrix(0.05,0,0,0.05,46.95,0)" xlink:href="#ay"/><use transform="matrix(0.05,0,0,0.05,57.900000000000006,0)" xlink:href="#as"/><use transform="matrix(0.05,0,0,0.05,67.9,0)" xlink:href="#ax"/><use transform="matrix(0.05,0,0,0.05,83.9,0)" xlink:href="#as"/><use transform="matrix(0.05,0,0,0.05,93.9,0)" xlink:href="#am"/><use transform="matrix(0.05,0,0,0.05,104.85000000000001,0)" xlink:href="#ak"/></g><g id="o"><use transform="matrix(0.05,0,0,0.05,0,0)" xlink:href="#au"/><use transform="matrix(0.05,0,0,0.05,5,0)" xlink:href="#am"/><use transform="matrix(0.05,0,0,0.05,15.950000000000001,0)" xlink:href="#am"/><use transform="matrix(0.05,0,0,0.05,26.900000000000002,0)" xlink:href="#ai"/><use transform="matrix(0.05,0,0,0.05,37.85,0)" xlink:href="#av"/><use transform="matrix(0.05,0,0,0.05,47.85,0)" xlink:href="#ag"/><use transform="matrix(0.05,0,0,0.05,57.85,0)" xlink:href="#ak"/><use transform="matrix(0.05,0,0,0.05,63.800000000000004,0)" xlink:href="#ai"/><use transform="matrix(0.05,0,0,0.05,74.75,0)" xlink:href="#at"/></g><path d="M24-231v-30h32v30H24zM24 0v-190h32V0H24" id="az"/><g id="p"><use transform="matrix(0.05,0,0,0.05,0,0)" xlink:href="#R"/><use transform="matrix(0.05,0,0,0.05,10.5,0)" xlink:href="#R"/><use transform="matrix(0.05,0,0,0.05,21,0)" xlink:href="#ab"/><use transform="matrix(0.05,0,0,0.05,31,0)" xlink:href="#O"/><use transform="matrix(0.05,0,0,0.05,41,0)" xlink:href="#Q"/><use transform="matrix(0.05,0,0,0.05,50,0)" xlink:href="#az"/><use transform="matrix(0.05,0,0,0.05,53.95,0)" xlink:href="#V"/><use transform="matrix(0.05,0,0,0.05,62.95,0)" xlink:href="#O"/><use transform="matrix(0.05,0,0,0.05,72.95,0)" xlink:href="#X"/><use transform="matrix(0.05,0,0,0.05,83.45,0)" xlink:href="#X"/></g><g id="q"><use transform="matrix(0.05,0,0,0.05,0,0)" xlink:href="#ae"/><use transform="matrix(0.05,0,0,0.05,5,0)" xlink:href="#aa"/><use transform="matrix(0.05,0,0,0.05,15,0)" xlink:href="#Q"/><use transform="matrix(0.05,0,0,0.05,24,0)" xlink:href="#O"/><use transform="matrix(0.05,0,0,0.05,34,0)" xlink:href="#W"/><use transform="matrix(0.05,0,0,0.05,43,0)" xlink:href="#T"/><use transform="matrix(0.05,0,0,0.05,48,0)" xlink:href="#af"/><use transform="matrix(0.05,0,0,0.05,58,0)" xlink:href="#P"/></g><path d="M206 0h-36l-40-164L89 0H53L-1-190h32L70-26l43-164h34l41 164 42-164h31" id="aA"/><path d="M115-194c53 0 69 39 70 98 0 66-23 100-70 100C84 3 66-7 56-30L54 0H23l1-261h32v101c10-23 28-34 59-34zm-8 174c40 0 45-34 45-75 0-40-5-75-45-74-42 0-51 32-51 76 0 43 10 73 51 73" id="aB"/><g id="r"><use transform="matrix(0.05,0,0,0.05,0,0)" xlink:href="#R"/><use transform="matrix(0.05,0,0,0.05,10.5,0)" xlink:href="#R"/><use transform="matrix(0.05,0,0,0.05,21,0)" xlink:href="#aA"/><use transform="matrix(0.05,0,0,0.05,33.95,0)" xlink:href="#O"/><use transform="matrix(0.05,0,0,0.05,43.95,0)" xlink:href="#aB"/></g><g id="s"><use transform="matrix(0.05,0,0,0.05,0,0)" xlink:href="#aB"/><use transform="matrix(0.05,0,0,0.05,10,0)" xlink:href="#P"/><use transform="matrix(0.05,0,0,0.05,15.949999999999997,0)" xlink:href="#af"/><use transform="matrix(0.05,0,0,0.05,25.950000000000003,0)" xlink:href="#aA"/><use transform="matrix(0.05,0,0,0.05,38.9,0)" xlink:href="#W"/><use transform="matrix(0.05,0,0,0.05,47.9,0)" xlink:href="#O"/><use transform="matrix(0.05,0,0,0.05,57.900000000000006,0)" xlink:href="#P"/><use transform="matrix(0.05,0,0,0.05,63.85,0)" xlink:href="#X"/><use transform="matrix(0.05,0,0,0.05,74.35,0)" xlink:href="#X"/></g><g id="t"><use transform="matrix(0.05,0,0,0.05,0,0)" xlink:href="#ae"/><use transform="matrix(0.05,0,0,0.05,5,0)" xlink:href="#aa"/><use transform="matrix(0.05,0,0,0.05,15,0)" xlink:href="#Q"/><use transform="matrix(0.05,0,0,0.05,24,0)" xlink:href="#O"/><use transform="matrix(0.05,0,0,0.05,34,0)" xlink:href="#W"/><use transform="matrix(0.05,0,0,0.05,43,0)" xlink:href="#T"/><use transform="matrix(0.05,0,0,0.05,48,0)" xlink:href="#af"/><use transform="matrix(0.05,0,0,0.05,58,0)" xlink:href="#P"/></g><g id="u"><use transform="matrix(0.05,0,0,0.05,0,0)" xlink:href="#aA"/><use transform="matrix(0.05,0,0,0.05,12.950000000000001,0)" xlink:href="#O"/><use transform="matrix(0.05,0,0,0.05,22.950000000000003,0)" xlink:href="#aB"/></g><g id="v"><use transform="matrix(0.05,0,0,0.05,0,0)" xlink:href="#aB"/><use transform="matrix(0.05,0,0,0.05,10,0)" xlink:href="#P"/><use transform="matrix(0.05,0,0,0.05,15.949999999999997,0)" xlink:href="#af"/><use transform="matrix(0.05,0,0,0.05,25.950000000000003,0)" xlink:href="#aA"/><use transform="matrix(0.05,0,0,0.05,38.9,0)" xlink:href="#W"/><use transform="matrix(0.05,0,0,0.05,47.9,0)" xlink:href="#O"/><use transform="matrix(0.05,0,0,0.05,57.900000000000006,0)" xlink:href="#P"/></g><g id="w"><use transform="matrix(0.05,0,0,0.05,0,0)" xlink:href="#U"/><use transform="matrix(0.05,0,0,0.05,5,0)" xlink:href="#Z"/><use transform="matrix(0.05,0,0,0.05,15,0)" xlink:href="#aa"/><use transform="matrix(0.05,0,0,0.05,25,0)" xlink:href="#ab"/><use transform="matrix(0.05,0,0,0.05,35,0)" xlink:href="#W"/></g><g id="x"><use transform="matrix(0.05,0,0,0.05,0,0)" xlink:href="#W"/><use transform="matrix(0.05,0,0,0.05,9,0)" xlink:href="#ac"/><use transform="matrix(0.05,0,0,0.05,18,0)" xlink:href="#W"/><use transform="matrix(0.05,0,0,0.05,27,0)" xlink:href="#T"/><use transform="matrix(0.05,0,0,0.05,32,0)" xlink:href="#O"/><use transform="matrix(0.05,0,0,0.05,42,0)" xlink:href="#ad"/></g><g id="y"><use transform="matrix(0.05,0,0,0.05,0,0)" xlink:href="#S"/><use transform="matrix(0.05,0,0,0.05,10,0)" xlink:href="#ad"/><use transform="matrix(0.05,0,0,0.05,24.950000000000003,0)" xlink:href="#af"/><use transform="matrix(0.05,0,0,0.05,34.95,0)" xlink:href="#Z"/><use transform="matrix(0.05,0,0,0.05,44.95,0)" xlink:href="#aa"/><use transform="matrix(0.05,0,0,0.05,54.95,0)" xlink:href="#T"/></g><g id="z"><use transform="matrix(0.05,0,0,0.05,0,0)" xlink:href="#ae"/><use transform="matrix(0.05,0,0,0.05,5,0)" xlink:href="#aa"/><use transform="matrix(0.05,0,0,0.05,15,0)" xlink:href="#aa"/><use transform="matrix(0.05,0,0,0.05,25,0)" xlink:href="#af"/><use transform="matrix(0.05,0,0,0.05,35,0)" xlink:href="#Q"/><use transform="matrix(0.05,0,0,0.05,44,0)" xlink:href="#S"/><use transform="matrix(0.05,0,0,0.05,54,0)" xlink:href="#T"/><use transform="matrix(0.05,0,0,0.05,59,0)" xlink:href="#af"/><use transform="matrix(0.05,0,0,0.05,69,0)" xlink:href="#P"/></g><g id="A"><use transform="matrix(0.05,0,0,0.05,0,0)" xlink:href="#ae"/><use transform="matrix(0.05,0,0,0.05,5,0)" xlink:href="#aa"/><use transform="matrix(0.05,0,0,0.05,15,0)" xlink:href="#aa"/><use transform="matrix(0.05,0,0,0.05,25,0)" xlink:href="#af"/><use transform="matrix(0.05,0,0,0.05,35,0)" xlink:href="#Q"/><use transform="matrix(0.05,0,0,0.05,44,0)" xlink:href="#S"/><use transform="matrix(0.05,0,0,0.05,54,0)" xlink:href="#T"/><use transform="matrix(0.05,0,0,0.05,59,0)" xlink:href="#af"/><use transform="matrix(0.05,0,0,0.05,69,0)" xlink:href="#P"/></g><path d="M30-248c118-7 216 8 213 122C240-48 200 0 122 0H30v-248zM63-27c89 8 146-16 146-99s-60-101-146-95v194" id="aC"/><g id="B"><use transform="matrix(0.05,0,0,0.05,0,0)" xlink:href="#aC"/><use transform="matrix(0.05,0,0,0.05,12.950000000000001,0)" xlink:href="#O"/><use transform="matrix(0.05,0,0,0.05,22.950000000000003,0)" xlink:href="#V"/><use transform="matrix(0.05,0,0,0.05,31.950000000000003,0)" xlink:href="#az"/><use transform="matrix(0.05,0,0,0.05,35.900000000000006,0)" xlink:href="#W"/><use transform="matrix(0.05,0,0,0.05,44.900000000000006,0)" xlink:href="#az"/><use transform="matrix(0.05,0,0,0.05,48.85000000000001,0)" xlink:href="#af"/><use transform="matrix(0.05,0,0,0.05,58.85,0)" xlink:href="#aa"/></g><path d="M24 0v-261h32V0H24" id="aD"/><path d="M143 0L79-87 56-68V0H24v-261h32v163l83-92h37l-77 82L181 0h-38" id="aE"/><g id="C"><use transform="matrix(0.05,0,0,0.05,0,0)" xlink:href="#ad"/><use transform="matrix(0.05,0,0,0.05,14.950000000000001,0)" xlink:href="#S"/><use transform="matrix(0.05,0,0,0.05,24.950000000000003,0)" xlink:href="#aD"/><use transform="matrix(0.05,0,0,0.05,28.900000000000002,0)" xlink:href="#aE"/><use transform="matrix(0.05,0,0,0.05,37.900000000000006,0)" xlink:href="#az"/><use transform="matrix(0.05,0,0,0.05,41.85000000000001,0)" xlink:href="#aa"/><use transform="matrix(0.05,0,0,0.05,51.85,0)" xlink:href="#aw"/></g><path d="M140-251c81 0 123 46 123 126C263-46 219 4 140 4 59 4 17-45 17-125s42-126 123-126zm0 227c63 0 89-41 89-101s-29-99-89-99c-61 0-89 39-89 99S79-25 140-24" id="aF"/><g id="D"><use transform="matrix(0.05,0,0,0.05,0,0)" xlink:href="#R"/><use transform="matrix(0.05,0,0,0.05,10.5,0)" xlink:href="#R"/><use transform="matrix(0.05,0,0,0.05,21,0)" xlink:href="#aF"/><use transform="matrix(0.05,0,0,0.05,35,0)" xlink:href="#N"/><use transform="matrix(0.05,0,0,0.05,47,0)" xlink:href="#X"/><use transform="matrix(0.05,0,0,0.05,57.5,0)" xlink:href="#X"/></g><g id="E"><use transform="matrix(0.05,0,0,0.05,0,0)" xlink:href="#S"/><use transform="matrix(0.05,0,0,0.05,10,0)" xlink:href="#aa"/><use transform="matrix(0.05,0,0,0.05,20,0)" xlink:href="#ab"/><use transform="matrix(0.05,0,0,0.05,30,0)" xlink:href="#P"/><use transform="matrix(0.05,0,0,0.05,35.95,0)" xlink:href="#af"/><use transform="matrix(0.05,0,0,0.05,45.95,0)" xlink:href="#az"/><use transform="matrix(0.05,0,0,0.05,49.900000000000006,0)" xlink:href="#aa"/><use transform="matrix(0.05,0,0,0.05,59.900000000000006,0)" xlink:href="#ab"/></g><path d="M197 0v-115H63V0H30v-248h33v105h134v-105h34V0h-34" id="aG"/><path d="M127-220V0H93v-220H8v-28h204v28h-85" id="aH"/><path d="M30-248c87 1 191-15 191 75 0 78-77 80-158 76V0H30v-248zm33 125c57 0 124 11 124-50 0-59-68-47-124-48v98" id="aI"/><g id="F"><use transform="matrix(0.05,0,0,0.05,0,0)" xlink:href="#aG"/><use transform="matrix(0.05,0,0,0.05,12.950000000000001,0)" xlink:href="#aH"/><use transform="matrix(0.05,0,0,0.05,23.900000000000002,0)" xlink:href="#aH"/><use transform="matrix(0.05,0,0,0.05,34.85,0)" xlink:href="#aI"/><use transform="matrix(0.05,0,0,0.05,46.85,0)" xlink:href="#N"/></g><g id="G"><use transform="matrix(0.05,0,0,0.05,0,0)" xlink:href="#af"/><use transform="matrix(0.05,0,0,0.05,10,0)" xlink:href="#Q"/><use transform="matrix(0.05,0,0,0.05,19,0)" xlink:href="#O"/><use transform="matrix(0.05,0,0,0.05,29,0)" xlink:href="#P"/></g><path d="M212-179c-10-28-35-45-73-45-59 0-87 40-87 99 0 60 29 101 89 101 43 0 62-24 78-52l27 14C228-24 195 4 139 4 59 4 22-46 18-125c-6-104 99-153 187-111 19 9 31 26 39 46" id="aJ"/><path d="M0 4l72-265h28L28 4H0" id="aK"/><g id="H"><use transform="matrix(0.05,0,0,0.05,0,0)" xlink:href="#aH"/><use transform="matrix(0.05,0,0,0.05,10.950000000000001,0)" xlink:href="#aJ"/><use transform="matrix(0.05,0,0,0.05,23.900000000000002,0)" xlink:href="#aI"/><use transform="matrix(0.05,0,0,0.05,35.900000000000006,0)" xlink:href="#aK"/><use transform="matrix(0.05,0,0,0.05,40.900000000000006,0)" xlink:href="#ae"/><use transform="matrix(0.05,0,0,0.05,45.900000000000006,0)" xlink:href="#aI"/></g><g id="I"><use transform="matrix(0.05,0,0,0.05,0,0)" xlink:href="#aC"/><use transform="matrix(0.05,0,0,0.05,12.950000000000001,0)" xlink:href="#S"/><use transform="matrix(0.05,0,0,0.05,22.950000000000003,0)" xlink:href="#T"/><use transform="matrix(0.05,0,0,0.05,27.950000000000003,0)" xlink:href="#S"/><use transform="matrix(0.05,0,0,0.05,37.95,0)" xlink:href="#aB"/><use transform="matrix(0.05,0,0,0.05,47.95,0)" xlink:href="#S"/><use transform="matrix(0.05,0,0,0.05,57.95,0)" xlink:href="#W"/><use transform="matrix(0.05,0,0,0.05,66.95,0)" xlink:href="#O"/></g><g id="J"><use transform="matrix(0.05,0,0,0.05,0,0)" xlink:href="#aH"/><use transform="matrix(0.05,0,0,0.05,10.950000000000001,0)" xlink:href="#aJ"/><use transform="matrix(0.05,0,0,0.05,23.900000000000002,0)" xlink:href="#aI"/><use transform="matrix(0.05,0,0,0.05,35.900000000000006,0)" xlink:href="#aK"/><use transform="matrix(0.05,0,0,0.05,40.900000000000006,0)" xlink:href="#ae"/><use transform="matrix(0.05,0,0,0.05,45.900000000000006,0)" xlink:href="#aI"/></g></defs></g></svg>