<svg xmlns="http://www.w3.org/2000/svg" xmlns:xlink="http://www.w3.org/1999/xlink" xmlns:lucid="lucid" width="3500" height="1480"><g transform="translate(0 0)" lucid:page-tab-id="cUO2hQOdjuRE"><path d="M0 0h3676.8v2582.4H0z" fill="#fff"/><path d="M20 86l79.2-66H920v580.8L854 680H20z" stroke="#000" stroke-width="2" fill="#fff"/><path d="M20 86l79.2-66H920l-66 66z" stroke="#000" stroke-width="2" fill="#e6e6e6"/><path d="M854 86l66-66v580.8L854 680z" stroke="#000" stroke-width="2" fill="#ccc"/><use xlink:href="#a" transform="matrix(1,0,0,1,28,94) translate(0 16.6)"/><path d="M40 180h800v420H40z" stroke="#000" stroke-width="2" fill-opacity="0"/><use xlink:href="#b" transform="matrix(1,0,0,1,48,188) translate(336.525 14.4)"/><use xlink:href="#c" transform="matrix(1,0,0,1,48,188) translate(290.6 36)"/><use xlink:href="#d" transform="matrix(1,0,0,1,48,188) translate(367.45000000000004 36)"/><use xlink:href="#e" transform="matrix(1,0,0,1,48,188) translate(416.45000000000004 36)"/><path d="M100 290h160v70H100z" stroke="#000" stroke-width="2" fill="#fff"/><path d="M80 297.5h40v20H80zM80 332.5h40v20H80z" stroke="#000" stroke-width="2" fill="#fff"/><use xlink:href="#f" transform="matrix(1,0,0,1,116,297) translate(31.025 31.6)"/><path d="M100 480h160v70H100z" stroke="#000" stroke-width="2" fill="#fff"/><path d="M80 487.5h40v20H80zM80 522.5h40v20H80z" stroke="#000" stroke-width="2" fill="#fff"/><use xlink:href="#g" transform="matrix(1,0,0,1,116,487) translate(25.599999999999994 31.6)"/><path d="M480 280h260v70H480z" stroke="#000" stroke-width="2" fill="#fff"/><path d="M460 287.5h40v20h-40zM460 322.5h40v20h-40z" stroke="#000" stroke-width="2" fill="#fff"/><use xlink:href="#h" transform="matrix(1,0,0,1,516,287) translate(28.099999999999994 31.6)"/><use xlink:href="#i" transform="matrix(1,0,0,1,516,287) translate(104.95 31.6)"/><path d="M540 480h260v70H540z" stroke="#000" stroke-width="2" fill="#fff"/><path d="M520 487.5h40v20h-40zM520 522.5h40v20h-40z" stroke="#000" stroke-width="2" fill="#fff"/><use xlink:href="#j" transform="matrix(1,0,0,1,576,487) translate(67.575 31.6)"/><path d="M260 330h11M305 330h5" stroke="#000" stroke-width="2" fill="none"/><path d="M285 316c7.73 0 14 6.27 14 14s-6.27 14-14 14-14-6.27-14-14 6.27-14 14-14z" stroke="#000" stroke-width="2" fill="#fff"/><path d="M285 350c11.05 0 20-8.95 20-20s-8.95-20-20-20" stroke="#000" stroke-width="2" fill="none"/><path d="M260 329.2h11v1.6h-11z" fill="none"/><path d="M311 330h39v61h250v-39" stroke="#000" stroke-width="2" fill="none"/><path d="M311.03 331H310v-2h-3 4.03zM601 352.03h-2V351h2z"/><path d="M170 360v11M170 405v5" stroke="#000" stroke-width="2" fill="none"/><path d="M184 385c0 7.73-6.27 14-14 14s-14-6.27-14-14 6.27-14 14-14 14 6.27 14 14z" stroke="#000" stroke-width="2" fill="#fff"/><path d="M150 385c0 11.05 8.95 20 20 20s20-8.95 20-20" stroke="#000" stroke-width="2" fill="none"/><path d="M170.8 360v11h-1.6v-11z" fill="none"/><path d="M170 411v33.5h490V478" stroke="#000" stroke-width="2" fill="none"/><path d="M171 411.03h-2V410h2v-3zM661 479h-2v-1.03h2z"/><path d="M260 515h11M305 515h5" stroke="#000" stroke-width="2" fill="none"/><path d="M285 501c7.73 0 14 6.27 14 14s-6.27 14-14 14-14-6.27-14-14 6.27-14 14-14z" stroke="#000" stroke-width="2" fill="#fff"/><path d="M285 535c11.05 0 20-8.95 20-20s-8.95-20-20-20" stroke="#000" stroke-width="2" fill="none"/><path d="M260 514.2h11v1.6h-11z" fill="none"/><path d="M311 515h39v76h310v-39" stroke="#000" stroke-width="2" fill="none"/><path d="M311.03 516H310v-2h-3 4.03zM661 552.03h-2V551h2z"/><path d="M1500 388c0 6.63-26.86 12-60 12s-60-5.37-60-12v-96c0-6.63 26.86-12 60-12s60 5.37 60 12z" stroke="#000" stroke-width="2" fill="#fff"/><path d="M1500 292c0 6.63-26.86 12-60 12s-60-5.37-60-12" stroke="#000" stroke-width="2" fill="none"/><use xlink:href="#k" transform="matrix(1,0,0,1,1385,309) translate(16.525 46.65)"/><path d="M922 363.33h456" stroke="#000" stroke-width="2" fill="none"/><path d="M922.03 364.33H921v-2h1.03zM1379 364.33h-1.03v-2h1.03z"/><use xlink:href="#l" transform="matrix(1,0,0,1,1121.05,337.73333333333335) translate(0 14.4)"/><path d="M40 1028l57.6-48H1085v422.4l-48 57.6H40z" stroke="#000" stroke-width="2" fill="#fff"/><path d="M40 1028l57.6-48H1085l-48 48z" stroke="#000" stroke-width="2" fill="#e6e6e6"/><path d="M1037 1028l48-48v422.4l-48 57.6z" stroke="#000" stroke-width="2" fill="#ccc"/><use xlink:href="#m" transform="matrix(1,0,0,1,48,1036) translate(0 14.4)"/><use xlink:href="#n" transform="matrix(1,0,0,1,48,1036) translate(0 36)"/><path d="M65 1114l40.8-34H1025v299.2l-34 40.8H65z" stroke="#000" stroke-width="2" fill="#fff"/><path d="M65 1114l40.8-34H1025l-34 34z" stroke="#000" stroke-width="2" fill="#e6e6e6"/><path d="M991 1114l34-34v299.2l-34 40.8z" stroke="#000" stroke-width="2" fill="#ccc"/><use xlink:href="#o" transform="matrix(1,0,0,1,73,1122) translate(0 14.4)"/><use xlink:href="#p" transform="matrix(1,0,0,1,73,1122) translate(0 36)"/><path d="M1140 1028l57.6-48H2185v422.4l-48 57.6h-997z" stroke="#000" stroke-width="2" fill="#fff"/><path d="M1140 1028l57.6-48H2185l-48 48z" stroke="#000" stroke-width="2" fill="#e6e6e6"/><path d="M2137 1028l48-48v422.4l-48 57.6z" stroke="#000" stroke-width="2" fill="#ccc"/><use xlink:href="#m" transform="matrix(1,0,0,1,1148,1036) translate(0 14.4)"/><use xlink:href="#n" transform="matrix(1,0,0,1,1148,1036) translate(0 36)"/><path d="M1220 1114l40.8-34H2100v299.2l-34 40.8h-846z" stroke="#000" stroke-width="2" fill="#fff"/><path d="M1220 1114l40.8-34H2100l-34 34z" stroke="#000" stroke-width="2" fill="#e6e6e6"/><path d="M2066 1114l34-34v299.2l-34 40.8z" stroke="#000" stroke-width="2" fill="#ccc"/><use xlink:href="#q" transform="matrix(1,0,0,1,1228,1122) translate(0 14.4)"/><use xlink:href="#r" transform="matrix(1,0,0,1,1228,1122) translate(60.95 14.4)"/><use xlink:href="#s" transform="matrix(1,0,0,1,1228,1122) translate(0 36)"/><path d="M145 1140h835v260H145z" stroke="#000" stroke-width="2" fill-opacity="0"/><use xlink:href="#b" transform="matrix(1,0,0,1,153,1148) translate(354.025 14.4)"/><use xlink:href="#t" transform="matrix(1,0,0,1,153,1148) translate(249.725 36)"/><use xlink:href="#u" transform="matrix(1,0,0,1,153,1148) translate(329.675 36)"/><use xlink:href="#v" transform="matrix(1,0,0,1,153,1148) translate(387.525 36)"/><use xlink:href="#d" transform="matrix(1,0,0,1,153,1148) translate(463.32500000000004 36)"/><use xlink:href="#w" transform="matrix(1,0,0,1,153,1148) translate(512.325 36)"/><path d="M600 1260h140v120H600z" stroke="#000" stroke-width="2" fill="#fff"/><path d="M580 1280h40v20h-40zM580 1340h40v20h-40z" stroke="#000" stroke-width="2" fill="#fff"/><use xlink:href="#x" transform="matrix(1,0,0,1,612,1272) translate(15.125 51.6)"/><path d="M240 1180h140v120H240z" stroke="#000" stroke-width="2" fill="#fff"/><path d="M220 1200h40v20h-40zM220 1260h40v20h-40z" stroke="#000" stroke-width="2" fill="#fff"/><use xlink:href="#y" transform="matrix(1,0,0,1,252,1192) translate(18.574999999999995 51.6)"/><path d="M740 1320h11M785 1320h5" stroke="#000" stroke-width="2" fill="none"/><path d="M765 1306c7.73 0 14 6.27 14 14s-6.27 14-14 14-14-6.27-14-14 6.27-14 14-14z" stroke="#000" stroke-width="2" fill="#fff"/><path d="M765 1340c11.05 0 20-8.95 20-20s-8.95-20-20-20" stroke="#000" stroke-width="2" fill="none"/><path d="M740 1319.2h11v1.6h-11z" fill="none"/><path d="M791 1320h39v-80H382" stroke="#000" stroke-width="2" fill="none"/><path d="M791.03 1321H790v-2h-3 4.03zM382.03 1241H381v-2h1.03z"/><path d="M1280 1140h760v250h-760z" stroke="#000" stroke-width="2" fill-opacity="0"/><use xlink:href="#b" transform="matrix(1,0,0,1,1288,1148) translate(316.525 14.4)"/><use xlink:href="#t" transform="matrix(1,0,0,1,1288,1148) translate(165.75 36)"/><use xlink:href="#z" transform="matrix(1,0,0,1,1288,1148) translate(245.7 36)"/><use xlink:href="#A" transform="matrix(1,0,0,1,1288,1148) translate(288.65 36)"/><use xlink:href="#v" transform="matrix(1,0,0,1,1288,1148) translate(357.5 36)"/><use xlink:href="#B" transform="matrix(1,0,0,1,1288,1148) translate(433.3 36)"/><use xlink:href="#C" transform="matrix(1,0,0,1,1288,1148) translate(467.3 36)"/><use xlink:href="#D" transform="matrix(1,0,0,1,1288,1148) translate(492.3 36)"/><path d="M1740 1250h140v120h-140z" stroke="#000" stroke-width="2" fill="#fff"/><path d="M1720 1270h40v20h-40zM1720 1330h40v20h-40z" stroke="#000" stroke-width="2" fill="#fff"/><use xlink:href="#x" transform="matrix(1,0,0,1,1752,1262) translate(15.125 51.6)"/><path d="M1320 1200h140v120h-140z" stroke="#000" stroke-width="2" fill="#fff"/><path d="M1300 1220h40v20h-40zM1300 1280h40v20h-40z" stroke="#000" stroke-width="2" fill="#fff"/><use xlink:href="#y" transform="matrix(1,0,0,1,1332,1212) translate(18.574999999999995 51.6)"/><path d="M1880 1310h11M1925 1310h5" stroke="#000" stroke-width="2" fill="none"/><path d="M1905 1296c7.73 0 14 6.27 14 14s-6.27 14-14 14-14-6.27-14-14 6.27-14 14-14z" stroke="#000" stroke-width="2" fill="#fff"/><path d="M1905 1330c11.05 0 20-8.95 20-20s-8.95-20-20-20" stroke="#000" stroke-width="2" fill="none"/><path d="M1880 1309.2h11v1.6h-11z" fill="none"/><path d="M1931 1310h39v-80.38h-508" stroke="#000" stroke-width="2" fill="none"/><path d="M1931.03 1311H1930v-2h-3 4.03zM1462.03 1230.63H1461v-2h1.03z"/><path d="M2300 1028l57.6-48H3240v422.4l-48 57.6h-892z" stroke="#000" stroke-width="2" fill="#fff"/><path d="M2300 1028l57.6-48H3240l-48 48z" stroke="#000" stroke-width="2" fill="#e6e6e6"/><path d="M3192 1028l48-48v422.4l-48 57.6z" stroke="#000" stroke-width="2" fill="#ccc"/><use xlink:href="#E" transform="matrix(1,0,0,1,2308,1036) translate(0 14.4)"/><use xlink:href="#F" transform="matrix(1,0,0,1,2308,1036) translate(0 36)"/><path d="M2400 1078l45.6-38H3180v334.4l-38 45.6h-742z" stroke="#000" stroke-width="2" fill="#fff"/><path d="M2400 1078l45.6-38H3180l-38 38z" stroke="#000" stroke-width="2" fill="#e6e6e6"/><path d="M3142 1078l38-38v334.4l-38 45.6z" stroke="#000" stroke-width="2" fill="#ccc"/><use xlink:href="#G" transform="matrix(1,0,0,1,2408,1086) translate(0 16.6)"/><use xlink:href="#H" transform="matrix(1,0,0,1,2408,1086) translate(58.95 16.6)"/><path d="M2420 1120h680v280h-680z" stroke="#000" stroke-width="2" fill-opacity="0"/><use xlink:href="#b" transform="matrix(1,0,0,1,2428,1128) translate(276.525 14.4)"/><use xlink:href="#I" transform="matrix(1,0,0,1,2428,1128) translate(181.725 36)"/><use xlink:href="#v" transform="matrix(1,0,0,1,2428,1128) translate(261.525 36)"/><use xlink:href="#J" transform="matrix(1,0,0,1,2428,1128) translate(337.32500000000004 36)"/><use xlink:href="#C" transform="matrix(1,0,0,1,2428,1128) translate(366.32500000000004 36)"/><use xlink:href="#K" transform="matrix(1,0,0,1,2428,1128) translate(391.32500000000004 36)"/><use xlink:href="#w" transform="matrix(1,0,0,1,2428,1128) translate(425.32500000000004 36)"/><path d="M2480 1210h140v120h-140z" stroke="#000" stroke-width="2" fill="#fff"/><path d="M2460 1230h40v20h-40zM2460 1290h40v20h-40z" stroke="#000" stroke-width="2" fill="#fff"/><use xlink:href="#g" transform="matrix(1,0,0,1,2492,1222) translate(18.599999999999994 51.6)"/><path d="M2900 1210h140v120h-140z" stroke="#000" stroke-width="2" fill="#fff"/><path d="M2880 1230h40v20h-40zM2880 1290h40v20h-40z" stroke="#000" stroke-width="2" fill="#fff"/><use xlink:href="#L" transform="matrix(1,0,0,1,2912,1222) translate(25.575 51.6)"/><path d="M2620 1270h11M2665 1270h5" stroke="#000" stroke-width="2" fill="none"/><path d="M2645 1256c7.73 0 14 6.27 14 14s-6.27 14-14 14-14-6.27-14-14 6.27-14 14-14z" stroke="#000" stroke-width="2" fill="#fff"/><path d="M2645 1290c11.05 0 20-8.95 20-20s-8.95-20-20-20" stroke="#000" stroke-width="2" fill="none"/><path d="M2620 1269.2h11v1.6h-11z" fill="none"/><path d="M2671 1270h39v101h250v-39" stroke="#000" stroke-width="2" fill="none"/><path d="M2671.03 1271H2670v-2h-3 4.03zM2961 1332.03h-2V1331h2z"/><path d="M2380 190l84-70h1016v616l-70 84H2380z" stroke="#000" stroke-width="2" fill="#fff"/><path d="M2380 190l84-70h1016l-70 70z" stroke="#000" stroke-width="2" fill="#e6e6e6"/><path d="M3410 190l70-70v616l-70 84z" stroke="#000" stroke-width="2" fill="#ccc"/><use xlink:href="#E" transform="matrix(1,0,0,1,2388,198) translate(0 14.4)"/><use xlink:href="#M" transform="matrix(1,0,0,1,2388,198) translate(0 36)"/><path d="M2390 294l64.8-54H3400v475.2l-54 64.8h-956z" stroke="#000" stroke-width="2" fill="#fff"/><path d="M2390 294l64.8-54H3400l-54 54z" stroke="#000" stroke-width="2" fill="#e6e6e6"/><path d="M3346 294l54-54v475.2l-54 64.8z" stroke="#000" stroke-width="2" fill="#ccc"/><use xlink:href="#G" transform="matrix(1,0,0,1,2398,302) translate(0 16.6)"/><use xlink:href="#H" transform="matrix(1,0,0,1,2398,302) translate(58.95 16.6)"/><path d="M2420 360h860v400h-860z" stroke="#000" stroke-width="2" fill-opacity="0"/><use xlink:href="#b" transform="matrix(1,0,0,1,2428,368) translate(366.525 14.4)"/><use xlink:href="#N" transform="matrix(1,0,0,1,2428,368) translate(228.25 36)"/><use xlink:href="#z" transform="matrix(1,0,0,1,2428,368) translate(297.2 36)"/><use xlink:href="#A" transform="matrix(1,0,0,1,2428,368) translate(340.15 36)"/><use xlink:href="#v" transform="matrix(1,0,0,1,2428,368) translate(409 36)"/><use xlink:href="#J" transform="matrix(1,0,0,1,2428,368) translate(484.8 36)"/><use xlink:href="#C" transform="matrix(1,0,0,1,2428,368) translate(513.8 36)"/><use xlink:href="#e" transform="matrix(1,0,0,1,2428,368) translate(538.8 36)"/><path d="M2460 555h190v60h-190z" stroke="#000" stroke-width="2" fill="#fff"/><path d="M2440 560h40v20h-40zM2440 590h40v20h-40z" stroke="#000" stroke-width="2" fill="#fff"/><g><use xlink:href="#f" transform="matrix(1,0,0,1,2482,561) translate(41.525 27.6)"/></g><path d="M2880 475h200v80h-200z" stroke="#000" stroke-width="2" fill="#fff"/><path d="M2860 485h40v20h-40zM2860 525h40v20h-40z" stroke="#000" stroke-width="2" fill="#fff"/><g><use xlink:href="#O" transform="matrix(1,0,0,1,2904,483) translate(0.09999999999999431 35.6)"/><use xlink:href="#P" transform="matrix(1,0,0,1,2904,483) translate(81.95 35.6)"/></g><path d="M2880 660h200v80h-200z" stroke="#000" stroke-width="2" fill="#fff"/><path d="M2860 670h40v20h-40zM2860 710h40v20h-40z" stroke="#000" stroke-width="2" fill="#fff"/><g><use xlink:href="#L" transform="matrix(1,0,0,1,2904,668) translate(46.575 35.6)"/></g><path d="M2650 585h11M2695 585h5" stroke="#000" stroke-width="2" fill="none"/><path d="M2675 571c7.73 0 14 6.27 14 14s-6.27 14-14 14-14-6.27-14-14 6.27-14 14-14z" stroke="#000" stroke-width="2" fill="#fff"/><path d="M2675 605c11.05 0 20-8.95 20-20s-8.95-20-20-20" stroke="#000" stroke-width="2" fill="none"/><path d="M2650 584.2h11v1.6h-11z" fill="none"/><path d="M2701 585h269v-28" stroke="#000" stroke-width="2" fill="none"/><path d="M2701.03 586H2700v-2h-3 4.03zM2971 557.03h-2V556h2z"/><g><path d="M2545 615v11M2545 660v5" stroke="#000" stroke-width="2" fill="none"/><path d="M2559 640c0 7.73-6.27 14-14 14s-14-6.27-14-14 6.27-14 14-14 14 6.27 14 14z" stroke="#000" stroke-width="2" fill="#fff"/><path d="M2525 640c0 11.05 8.95 20 20 20s20-8.95 20-20" stroke="#000" stroke-width="2" fill="none"/><path d="M2545.8 615v11h-1.6v-11z" fill="none"/></g><path d="M2545 666v39h167.5v-86H2996v39" stroke="#000" stroke-width="2" fill="none"/><path d="M2546 666.03h-2V665h2v-3zM2997 659h-2v-1.03h2z"/><path d="M560 1139V870.5H440V602M560 1138.97v1.03" stroke="#000" stroke-width="2" fill="none"/><path d="M441 602.03h-2V601h2z"/><g><use xlink:href="#Q" transform="matrix(1,0,0,1,484.64073452475725,845.2788428055337) translate(0 14.4)"/><use xlink:href="#R" transform="matrix(1,0,0,1,484.64073452475725,845.2788428055337) translate(63.85 14.4)"/><use xlink:href="#S" transform="matrix(1,0,0,1,484.64073452475725,845.2788428055337) translate(103.80000000000001 14.4)"/></g><path d="M1660 1138V872.67H561" stroke="#000" stroke-width="2" fill="none"/><path d="M1661 1139h-2v-1.03h2z"/><path d="M561.03 872.67H560M2760 1118V884.92H1661" stroke="#000" stroke-width="2" fill="none"/><path d="M2761 1119h-2v-1.03h2z"/><path d="M1661.03 884.92H1660M2418 602h-760.67v269.67" stroke="#000" stroke-width="2" fill="none"/><path d="M2419 603h-1.03v-2h1.03z"/><path d="M1657.33 871.64v1.03" stroke="#000" stroke-width="2" fill="none"/><defs><path d="M230 0l2-204L168 0h-37L68-204 70 0H24v-248h70l56 185 57-185h69V0h-46" id="T"/><path d="M24 0v-248h195v40H76v63h132v40H76v65h150V0H24" id="U"/><path d="M195 0l-88-114-31 24V0H24v-248h52v113l112-113h60L142-143 257 0h-62" id="V"/><path d="M169-182c-1-43-94-46-97-3 18 66 151 10 154 114 3 95-165 93-204 36-6-8-10-19-12-30l50-8c3 46 112 56 116 5-17-69-150-10-154-114-4-87 153-88 188-35 5 8 8 18 10 28" id="W"/><path d="M185-48c-13 30-37 53-82 52C43 2 14-33 14-96s30-98 90-98c62 0 83 45 84 108H66c0 31 8 55 39 56 18 0 30-7 34-22zm-45-69c5-46-57-63-70-21-2 6-4 13-4 21h74" id="X"/><path d="M135-150c-39-12-60 13-60 57V0H25l-1-190h47c2 13-1 29 3 40 6-28 27-53 61-41v41" id="Y"/><path d="M128 0H69L1-190h53L99-40l48-150h52" id="Z"/><g id="a"><use transform="matrix(0.05,0,0,0.05,0,0)" xlink:href="#T"/><use transform="matrix(0.05,0,0,0.05,14.950000000000001,0)" xlink:href="#U"/><use transform="matrix(0.05,0,0,0.05,26.950000000000003,0)" xlink:href="#U"/><use transform="matrix(0.05,0,0,0.05,38.95,0)" xlink:href="#V"/><use transform="matrix(0.05,0,0,0.05,51.900000000000006,0)" xlink:href="#W"/><use transform="matrix(0.05,0,0,0.05,63.900000000000006,0)" xlink:href="#X"/><use transform="matrix(0.05,0,0,0.05,73.9,0)" xlink:href="#Y"/><use transform="matrix(0.05,0,0,0.05,80.9,0)" xlink:href="#Z"/><use transform="matrix(0.05,0,0,0.05,90.9,0)" xlink:href="#X"/><use transform="matrix(0.05,0,0,0.05,100.9,0)" xlink:href="#Y"/></g><path d="M18-100v-36l175-74v27L42-118l151 64v27" id="aa"/><path d="M141-36C126-15 110 5 73 4 37 3 15-17 15-53c-1-64 63-63 125-63 3-35-9-54-41-54-24 1-41 7-42 31l-33-3c5-37 33-52 76-52 45 0 72 20 72 64v82c-1 20 7 32 28 27v20c-31 9-61-2-59-35zM48-53c0 20 12 33 32 33 41-3 63-29 60-74-43 2-92-5-92 41" id="ab"/><path d="M114-163C36-179 61-72 57 0H25l-1-190h30c1 12-1 29 2 39 6-27 23-49 58-41v29" id="ac"/><path d="M59-47c-2 24 18 29 38 22v24C64 9 27 4 27-40v-127H5v-23h24l9-43h21v43h35v23H59v120" id="ad"/><path d="M100-194c63 0 86 42 84 106H49c0 40 14 67 53 68 26 1 43-12 49-29l28 8c-11 28-37 45-77 45C44 4 14-33 15-96c1-61 26-98 85-98zm52 81c6-60-76-77-97-28-3 7-6 17-6 28h103" id="ae"/><path d="M101-234c-31-9-42 10-38 44h38v23H63V0H32v-167H5v-23h27c-7-52 17-82 69-68v24" id="af"/><path d="M96-169c-40 0-48 33-48 73s9 75 48 75c24 0 41-14 43-38l32 2c-6 37-31 61-74 61-59 0-76-41-82-99-10-93 101-131 147-64 4 7 5 14 7 22l-32 3c-4-21-16-35-41-35" id="ag"/><path d="M135-143c-3-34-86-38-87 0 15 53 115 12 119 90S17 21 10-45l28-5c4 36 97 45 98 0-10-56-113-15-118-90-4-57 82-63 122-42 12 7 21 19 24 35" id="ah"/><path d="M18-27v-27l151-64-151-65v-27l175 74v36" id="ai"/><g id="b"><use transform="matrix(0.05,0,0,0.05,0,0)" xlink:href="#aa"/><use transform="matrix(0.05,0,0,0.05,10.5,0)" xlink:href="#aa"/><use transform="matrix(0.05,0,0,0.05,21,0)" xlink:href="#ab"/><use transform="matrix(0.05,0,0,0.05,31,0)" xlink:href="#ac"/><use transform="matrix(0.05,0,0,0.05,36.95,0)" xlink:href="#ad"/><use transform="matrix(0.05,0,0,0.05,41.95,0)" xlink:href="#ae"/><use transform="matrix(0.05,0,0,0.05,51.95,0)" xlink:href="#af"/><use transform="matrix(0.05,0,0,0.05,56.95,0)" xlink:href="#ab"/><use transform="matrix(0.05,0,0,0.05,66.95,0)" xlink:href="#ag"/><use transform="matrix(0.05,0,0,0.05,75.95,0)" xlink:href="#ad"/><use transform="matrix(0.05,0,0,0.05,80.95,0)" xlink:href="#ah"/><use transform="matrix(0.05,0,0,0.05,89.95,0)" xlink:href="#ai"/><use transform="matrix(0.05,0,0,0.05,100.45,0)" xlink:href="#ai"/></g><path d="M33 0v-248h34V0H33" id="aj"/><path d="M117-194c89-4 53 116 60 194h-32v-121c0-31-8-49-39-48C34-167 62-67 57 0H25l-1-190h30c1 10-1 24 2 32 11-22 29-35 61-36" id="ak"/><path d="M108 0H70L1-190h34L89-25l56-165h34" id="al"/><path d="M24-231v-30h32v30H24zM24 0v-190h32V0H24" id="am"/><path d="M206 0h-36l-40-164L89 0H53L-1-190h32L70-26l43-164h34l41 164 42-164h31" id="an"/><g id="c"><use transform="matrix(0.05,0,0,0.05,0,0)" xlink:href="#aj"/><use transform="matrix(0.05,0,0,0.05,5,0)" xlink:href="#ak"/><use transform="matrix(0.05,0,0,0.05,15,0)" xlink:href="#ad"/><use transform="matrix(0.05,0,0,0.05,20,0)" xlink:href="#ae"/><use transform="matrix(0.05,0,0,0.05,30,0)" xlink:href="#ac"/><use transform="matrix(0.05,0,0,0.05,35.95,0)" xlink:href="#al"/><use transform="matrix(0.05,0,0,0.05,44.95,0)" xlink:href="#am"/><use transform="matrix(0.05,0,0,0.05,48.900000000000006,0)" xlink:href="#ae"/><use transform="matrix(0.05,0,0,0.05,58.900000000000006,0)" xlink:href="#an"/></g><path d="M84 4C-5 8 30-112 23-190h32v120c0 31 7 50 39 49 72-2 45-101 50-169h31l1 190h-30c-1-10 1-25-2-33-11 22-28 36-60 37" id="ao"/><path d="M115-194c55 1 70 41 70 98S169 2 115 4C84 4 66-9 55-30l1 105H24l-1-265h31l2 30c10-21 28-34 59-34zm-8 174c40 0 45-34 45-75s-6-73-45-74c-42 0-51 32-51 76 0 43 10 73 51 73" id="ap"/><g id="d"><use transform="matrix(0.05,0,0,0.05,0,0)" xlink:href="#ah"/><use transform="matrix(0.05,0,0,0.05,9,0)" xlink:href="#ae"/><use transform="matrix(0.05,0,0,0.05,19,0)" xlink:href="#ad"/><use transform="matrix(0.05,0,0,0.05,24,0)" xlink:href="#ao"/><use transform="matrix(0.05,0,0,0.05,34,0)" xlink:href="#ap"/></g><path d="M115-194c53 0 69 39 70 98 0 66-23 100-70 100C84 3 66-7 56-30L54 0H23l1-261h32v101c10-23 28-34 59-34zm-8 174c40 0 45-34 45-75 0-40-5-75-45-74-42 0-51 32-51 76 0 43 10 73 51 73" id="aq"/><path d="M179-190L93 31C79 59 56 82 12 73V49c39 6 53-20 64-50L1-190h34L92-34l54-156h33" id="ar"/><path d="M210-169c-67 3-38 105-44 169h-31v-121c0-29-5-50-35-48C34-165 62-65 56 0H25l-1-190h30c1 10-1 24 2 32 10-44 99-50 107 0 11-21 27-35 58-36 85-2 47 119 55 194h-31v-121c0-29-5-49-35-48" id="as"/><g id="e"><use transform="matrix(0.05,0,0,0.05,0,0)" xlink:href="#ah"/><use transform="matrix(0.05,0,0,0.05,9,0)" xlink:href="#ao"/><use transform="matrix(0.05,0,0,0.05,19,0)" xlink:href="#aq"/><use transform="matrix(0.05,0,0,0.05,29,0)" xlink:href="#ah"/><use transform="matrix(0.05,0,0,0.05,38,0)" xlink:href="#ar"/><use transform="matrix(0.05,0,0,0.05,47,0)" xlink:href="#ad"/><use transform="matrix(0.05,0,0,0.05,52,0)" xlink:href="#ae"/><use transform="matrix(0.05,0,0,0.05,62,0)" xlink:href="#as"/></g><path d="M100-194c62-1 85 37 85 99 1 63-27 99-86 99S16-35 15-95c0-66 28-99 85-99zM99-20c44 1 53-31 53-75 0-43-8-75-51-75s-53 32-53 75 10 74 51 75" id="at"/><g id="f"><use transform="matrix(0.05,0,0,0.05,0,0)" xlink:href="#aj"/><use transform="matrix(0.05,0,0,0.05,5,0)" xlink:href="#ak"/><use transform="matrix(0.05,0,0,0.05,15,0)" xlink:href="#al"/><use transform="matrix(0.05,0,0,0.05,24,0)" xlink:href="#ae"/><use transform="matrix(0.05,0,0,0.05,34,0)" xlink:href="#ah"/><use transform="matrix(0.05,0,0,0.05,43,0)" xlink:href="#ad"/><use transform="matrix(0.05,0,0,0.05,48,0)" xlink:href="#at"/><use transform="matrix(0.05,0,0,0.05,58,0)" xlink:href="#ac"/></g><path d="M233-177c-1 41-23 64-60 70L243 0h-38l-65-103H63V0H30v-248c88 3 205-21 203 71zM63-129c60-2 137 13 137-47 0-61-80-42-137-45v92" id="au"/><g id="g"><use transform="matrix(0.05,0,0,0.05,0,0)" xlink:href="#au"/><use transform="matrix(0.05,0,0,0.05,12.950000000000001,0)" xlink:href="#ae"/><use transform="matrix(0.05,0,0,0.05,22.950000000000003,0)" xlink:href="#al"/><use transform="matrix(0.05,0,0,0.05,31.950000000000003,0)" xlink:href="#am"/><use transform="matrix(0.05,0,0,0.05,35.900000000000006,0)" xlink:href="#ae"/><use transform="matrix(0.05,0,0,0.05,45.900000000000006,0)" xlink:href="#an"/><use transform="matrix(0.05,0,0,0.05,58.85,0)" xlink:href="#ae"/><use transform="matrix(0.05,0,0,0.05,68.85000000000001,0)" xlink:href="#ac"/></g><g id="h"><use transform="matrix(0.05,0,0,0.05,0,0)" xlink:href="#aj"/><use transform="matrix(0.05,0,0,0.05,5,0)" xlink:href="#ak"/><use transform="matrix(0.05,0,0,0.05,15,0)" xlink:href="#ad"/><use transform="matrix(0.05,0,0,0.05,20,0)" xlink:href="#ae"/><use transform="matrix(0.05,0,0,0.05,30,0)" xlink:href="#ac"/><use transform="matrix(0.05,0,0,0.05,35.95,0)" xlink:href="#al"/><use transform="matrix(0.05,0,0,0.05,44.95,0)" xlink:href="#am"/><use transform="matrix(0.05,0,0,0.05,48.900000000000006,0)" xlink:href="#ae"/><use transform="matrix(0.05,0,0,0.05,58.900000000000006,0)" xlink:href="#an"/></g><g id="i"><use transform="matrix(0.05,0,0,0.05,0,0)" xlink:href="#ap"/><use transform="matrix(0.05,0,0,0.05,10,0)" xlink:href="#ac"/><use transform="matrix(0.05,0,0,0.05,15.949999999999997,0)" xlink:href="#at"/><use transform="matrix(0.05,0,0,0.05,25.950000000000003,0)" xlink:href="#ag"/><use transform="matrix(0.05,0,0,0.05,34.95,0)" xlink:href="#ae"/><use transform="matrix(0.05,0,0,0.05,44.95,0)" xlink:href="#ah"/><use transform="matrix(0.05,0,0,0.05,53.95,0)" xlink:href="#ah"/></g><path d="M205 0l-28-72H64L36 0H1l101-248h38L239 0h-34zm-38-99l-47-123c-12 45-31 82-46 123h93" id="av"/><path d="M24 0v-261h32V0H24" id="aw"/><path d="M177-190C167-65 218 103 67 71c-23-6-38-20-44-43l32-5c15 47 100 32 89-28v-30C133-14 115 1 83 1 29 1 15-40 15-95c0-56 16-97 71-98 29-1 48 16 59 35 1-10 0-23 2-32h30zM94-22c36 0 50-32 50-73 0-42-14-75-50-75-39 0-46 34-46 75s6 73 46 73" id="ax"/><g id="j"><use transform="matrix(0.05,0,0,0.05,0,0)" xlink:href="#av"/><use transform="matrix(0.05,0,0,0.05,12,0)" xlink:href="#aw"/><use transform="matrix(0.05,0,0,0.05,15.949999999999997,0)" xlink:href="#ae"/><use transform="matrix(0.05,0,0,0.05,25.950000000000003,0)" xlink:href="#ac"/><use transform="matrix(0.05,0,0,0.05,31.899999999999995,0)" xlink:href="#ad"/><use transform="matrix(0.05,0,0,0.05,36.9,0)" xlink:href="#am"/><use transform="matrix(0.05,0,0,0.05,40.85,0)" xlink:href="#ak"/><use transform="matrix(0.05,0,0,0.05,50.85,0)" xlink:href="#ax"/></g><path d="M30-248c118-7 216 8 213 122C240-48 200 0 122 0H30v-248zM63-27c89 8 146-16 146-99s-60-101-146-95v194" id="ay"/><g id="k"><use transform="matrix(0.05,0,0,0.05,0,0)" xlink:href="#ay"/><use transform="matrix(0.05,0,0,0.05,12.950000000000001,0)" xlink:href="#ab"/><use transform="matrix(0.05,0,0,0.05,22.950000000000003,0)" xlink:href="#ad"/><use transform="matrix(0.05,0,0,0.05,27.950000000000003,0)" xlink:href="#ab"/><use transform="matrix(0.05,0,0,0.05,37.95,0)" xlink:href="#aq"/><use transform="matrix(0.05,0,0,0.05,47.95,0)" xlink:href="#ab"/><use transform="matrix(0.05,0,0,0.05,57.95,0)" xlink:href="#ah"/><use transform="matrix(0.05,0,0,0.05,66.95,0)" xlink:href="#ae"/></g><path d="M127-220V0H93v-220H8v-28h204v28h-85" id="az"/><path d="M212-179c-10-28-35-45-73-45-59 0-87 40-87 99 0 60 29 101 89 101 43 0 62-24 78-52l27 14C228-24 195 4 139 4 59 4 22-46 18-125c-6-104 99-153 187-111 19 9 31 26 39 46" id="aA"/><path d="M30-248c87 1 191-15 191 75 0 78-77 80-158 76V0H30v-248zm33 125c57 0 124 11 124-50 0-59-68-47-124-48v98" id="aB"/><path d="M0 4l72-265h28L28 4H0" id="aC"/><g id="l"><use transform="matrix(0.05,0,0,0.05,0,0)" xlink:href="#az"/><use transform="matrix(0.05,0,0,0.05,10.950000000000001,0)" xlink:href="#aA"/><use transform="matrix(0.05,0,0,0.05,23.900000000000002,0)" xlink:href="#aB"/><use transform="matrix(0.05,0,0,0.05,35.900000000000006,0)" xlink:href="#aC"/><use transform="matrix(0.05,0,0,0.05,40.900000000000006,0)" xlink:href="#aj"/><use transform="matrix(0.05,0,0,0.05,45.900000000000006,0)" xlink:href="#aB"/></g><path d="M15-91v-56l181-69v40L49-119l147 57v40" id="aD"/><path d="M88-194c31-1 46 15 58 34l-1-101h50l1 261h-48c-2-10 0-23-3-31C134-8 116 4 84 4 32 4 16-41 15-95c0-56 19-97 73-99zm17 164c33 0 40-30 41-66 1-37-9-64-41-64s-38 30-39 65c0 43 13 65 39 65" id="aE"/><path d="M25-224v-37h50v37H25zM25 0v-190h50V0H25" id="aF"/><path d="M190-63c-7 42-38 67-86 67-59 0-84-38-90-98-12-110 154-137 174-36l-49 2c-2-19-15-32-35-32-30 0-35 28-38 64-6 74 65 87 74 30" id="aG"/><path d="M15-22v-40l146-57-146-57v-40l181 69v56" id="aH"/><g id="m"><use transform="matrix(0.05,0,0,0.05,0,0)" xlink:href="#aD"/><use transform="matrix(0.05,0,0,0.05,10.5,0)" xlink:href="#aD"/><use transform="matrix(0.05,0,0,0.05,21,0)" xlink:href="#aE"/><use transform="matrix(0.05,0,0,0.05,31.950000000000003,0)" xlink:href="#X"/><use transform="matrix(0.05,0,0,0.05,41.95,0)" xlink:href="#Z"/><use transform="matrix(0.05,0,0,0.05,51.95,0)" xlink:href="#aF"/><use transform="matrix(0.05,0,0,0.05,56.95,0)" xlink:href="#aG"/><use transform="matrix(0.05,0,0,0.05,66.95,0)" xlink:href="#X"/><use transform="matrix(0.05,0,0,0.05,76.95,0)" xlink:href="#aH"/><use transform="matrix(0.05,0,0,0.05,87.45,0)" xlink:href="#aH"/></g><path d="M24 0v-248h52V0H24" id="aI"/><path d="M135-194c87-1 58 113 63 194h-50c-7-57 23-157-34-157-59 0-34 97-39 157H25l-1-190h47c2 12-1 28 3 38 12-26 28-41 61-42" id="aJ"/><path d="M110-194c64 0 96 36 96 99 0 64-35 99-97 99-61 0-95-36-95-99 0-62 34-99 96-99zm-1 164c35 0 45-28 45-65 0-40-10-65-43-65-34 0-45 26-45 65 0 36 10 65 43 65" id="aK"/><path d="M133-34C117-15 103 5 69 4 32 3 11-16 11-54c-1-60 55-63 116-61 1-26-3-47-28-47-18 1-26 9-28 27l-52-2c7-38 36-58 82-57s74 22 75 68l1 82c-1 14 12 18 25 15v27c-30 8-71 5-69-32zm-48 3c29 0 43-24 42-57-32 0-66-3-65 30 0 17 8 27 23 27" id="aL"/><path d="M115-3C79 11 28 4 28-45v-112H4v-33h27l15-45h31v45h36v33H77v99c-1 23 16 31 38 25v30" id="aM"/><g id="n"><use transform="matrix(0.05,0,0,0.05,0,0)" xlink:href="#aI"/><use transform="matrix(0.05,0,0,0.05,5,0)" xlink:href="#aJ"/><use transform="matrix(0.05,0,0,0.05,15.950000000000001,0)" xlink:href="#aJ"/><use transform="matrix(0.05,0,0,0.05,26.900000000000002,0)" xlink:href="#aK"/><use transform="matrix(0.05,0,0,0.05,37.85,0)" xlink:href="#Z"/><use transform="matrix(0.05,0,0,0.05,47.85,0)" xlink:href="#aL"/><use transform="matrix(0.05,0,0,0.05,57.85,0)" xlink:href="#aM"/><use transform="matrix(0.05,0,0,0.05,63.800000000000004,0)" xlink:href="#aK"/><use transform="matrix(0.05,0,0,0.05,74.75,0)" xlink:href="#Y"/></g><path d="M140-251c80 0 125 45 125 126S219 4 139 4C58 4 15-44 15-125s44-126 125-126zm-1 214c52 0 73-35 73-88 0-50-21-86-72-86-52 0-73 35-73 86s22 88 72 88" id="aN"/><g id="o"><use transform="matrix(0.05,0,0,0.05,0,0)" xlink:href="#aD"/><use transform="matrix(0.05,0,0,0.05,10.5,0)" xlink:href="#aD"/><use transform="matrix(0.05,0,0,0.05,21,0)" xlink:href="#aN"/><use transform="matrix(0.05,0,0,0.05,35,0)" xlink:href="#W"/><use transform="matrix(0.05,0,0,0.05,47,0)" xlink:href="#aH"/><use transform="matrix(0.05,0,0,0.05,57.5,0)" xlink:href="#aH"/></g><g id="p"><use transform="matrix(0.05,0,0,0.05,0,0)" xlink:href="#aL"/><use transform="matrix(0.05,0,0,0.05,10,0)" xlink:href="#aJ"/><use transform="matrix(0.05,0,0,0.05,20.950000000000003,0)" xlink:href="#aE"/><use transform="matrix(0.05,0,0,0.05,31.900000000000005,0)" xlink:href="#Y"/><use transform="matrix(0.05,0,0,0.05,38.900000000000006,0)" xlink:href="#aK"/><use transform="matrix(0.05,0,0,0.05,49.85000000000001,0)" xlink:href="#aF"/><use transform="matrix(0.05,0,0,0.05,54.85,0)" xlink:href="#aE"/></g><path d="M231 0h-52l-39-155L100 0H48L-1-190h46L77-45c9-52 24-97 36-145h53l37 145 32-145h46" id="aO"/><path d="M135-194c52 0 70 43 70 98 0 56-19 99-73 100-30 1-46-15-58-35L72 0H24l1-261h50v104c11-23 29-37 60-37zM114-30c31 0 40-27 40-66 0-37-7-63-39-63s-41 28-41 65c0 36 8 64 40 64" id="aP"/><g id="q"><use transform="matrix(0.05,0,0,0.05,0,0)" xlink:href="#aD"/><use transform="matrix(0.05,0,0,0.05,10.5,0)" xlink:href="#aD"/><use transform="matrix(0.05,0,0,0.05,21,0)" xlink:href="#aO"/><use transform="matrix(0.05,0,0,0.05,35,0)" xlink:href="#X"/><use transform="matrix(0.05,0,0,0.05,45,0)" xlink:href="#aP"/></g><path d="M137-138c1-29-70-34-71-4 15 46 118 7 119 86 1 83-164 76-172 9l43-7c4 19 20 25 44 25 33 8 57-30 24-41C81-84 22-81 20-136c-2-80 154-74 161-7" id="aQ"/><g id="r"><use transform="matrix(0.05,0,0,0.05,0,0)" xlink:href="#aP"/><use transform="matrix(0.05,0,0,0.05,10.950000000000001,0)" xlink:href="#Y"/><use transform="matrix(0.05,0,0,0.05,17.950000000000003,0)" xlink:href="#aK"/><use transform="matrix(0.05,0,0,0.05,28.900000000000005,0)" xlink:href="#aO"/><use transform="matrix(0.05,0,0,0.05,42.900000000000006,0)" xlink:href="#aQ"/><use transform="matrix(0.05,0,0,0.05,52.900000000000006,0)" xlink:href="#X"/><use transform="matrix(0.05,0,0,0.05,62.900000000000006,0)" xlink:href="#Y"/><use transform="matrix(0.05,0,0,0.05,69.9,0)" xlink:href="#aH"/><use transform="matrix(0.05,0,0,0.05,80.4,0)" xlink:href="#aH"/></g><g id="t"><use transform="matrix(0.05,0,0,0.05,0,0)" xlink:href="#aj"/><use transform="matrix(0.05,0,0,0.05,5,0)" xlink:href="#ak"/><use transform="matrix(0.05,0,0,0.05,15,0)" xlink:href="#ak"/><use transform="matrix(0.05,0,0,0.05,25,0)" xlink:href="#at"/><use transform="matrix(0.05,0,0,0.05,35,0)" xlink:href="#al"/><use transform="matrix(0.05,0,0,0.05,44,0)" xlink:href="#ab"/><use transform="matrix(0.05,0,0,0.05,54,0)" xlink:href="#ad"/><use transform="matrix(0.05,0,0,0.05,59,0)" xlink:href="#at"/><use transform="matrix(0.05,0,0,0.05,69,0)" xlink:href="#ac"/></g><g id="u"><use transform="matrix(0.05,0,0,0.05,0,0)" xlink:href="#as"/><use transform="matrix(0.05,0,0,0.05,14.950000000000001,0)" xlink:href="#at"/><use transform="matrix(0.05,0,0,0.05,24.950000000000003,0)" xlink:href="#aq"/><use transform="matrix(0.05,0,0,0.05,34.95,0)" xlink:href="#am"/><use transform="matrix(0.05,0,0,0.05,38.900000000000006,0)" xlink:href="#aw"/><use transform="matrix(0.05,0,0,0.05,42.85000000000001,0)" xlink:href="#ae"/></g><g id="v"><use transform="matrix(0.05,0,0,0.05,0,0)" xlink:href="#am"/><use transform="matrix(0.05,0,0,0.05,3.95,0)" xlink:href="#ak"/><use transform="matrix(0.05,0,0,0.05,13.949999999999997,0)" xlink:href="#ad"/><use transform="matrix(0.05,0,0,0.05,18.95,0)" xlink:href="#ae"/><use transform="matrix(0.05,0,0,0.05,28.950000000000003,0)" xlink:href="#ac"/><use transform="matrix(0.05,0,0,0.05,34.9,0)" xlink:href="#al"/><use transform="matrix(0.05,0,0,0.05,43.9,0)" xlink:href="#am"/><use transform="matrix(0.05,0,0,0.05,47.85,0)" xlink:href="#ae"/><use transform="matrix(0.05,0,0,0.05,57.85,0)" xlink:href="#an"/></g><g id="w"><use transform="matrix(0.05,0,0,0.05,0,0)" xlink:href="#ah"/><use transform="matrix(0.05,0,0,0.05,9,0)" xlink:href="#ar"/><use transform="matrix(0.05,0,0,0.05,18,0)" xlink:href="#ah"/><use transform="matrix(0.05,0,0,0.05,27,0)" xlink:href="#ad"/><use transform="matrix(0.05,0,0,0.05,32,0)" xlink:href="#ae"/><use transform="matrix(0.05,0,0,0.05,42,0)" xlink:href="#as"/></g><g id="x"><use transform="matrix(0.05,0,0,0.05,0,0)" xlink:href="#aI"/><use transform="matrix(0.05,0,0,0.05,5,0)" xlink:href="#aJ"/><use transform="matrix(0.05,0,0,0.05,15.950000000000001,0)" xlink:href="#aJ"/><use transform="matrix(0.05,0,0,0.05,26.900000000000002,0)" xlink:href="#aK"/><use transform="matrix(0.05,0,0,0.05,37.85,0)" xlink:href="#Z"/><use transform="matrix(0.05,0,0,0.05,47.85,0)" xlink:href="#aL"/><use transform="matrix(0.05,0,0,0.05,57.85,0)" xlink:href="#aM"/><use transform="matrix(0.05,0,0,0.05,63.800000000000004,0)" xlink:href="#aK"/><use transform="matrix(0.05,0,0,0.05,74.75,0)" xlink:href="#Y"/></g><path d="M24-248c120-7 223 5 221 122C244-46 201 0 124 0H24v-248zM76-40c74 7 117-18 117-86 0-67-45-88-117-82v168" id="aR"/><g id="y"><use transform="matrix(0.05,0,0,0.05,0,0)" xlink:href="#aR"/><use transform="matrix(0.05,0,0,0.05,12.950000000000001,0)" xlink:href="#X"/><use transform="matrix(0.05,0,0,0.05,22.950000000000003,0)" xlink:href="#aG"/><use transform="matrix(0.05,0,0,0.05,32.95,0)" xlink:href="#aF"/><use transform="matrix(0.05,0,0,0.05,37.95,0)" xlink:href="#aQ"/><use transform="matrix(0.05,0,0,0.05,47.95,0)" xlink:href="#aF"/><use transform="matrix(0.05,0,0,0.05,52.95,0)" xlink:href="#aK"/><use transform="matrix(0.05,0,0,0.05,63.900000000000006,0)" xlink:href="#aJ"/></g><g id="z"><use transform="matrix(0.05,0,0,0.05,0,0)" xlink:href="#an"/><use transform="matrix(0.05,0,0,0.05,12.950000000000001,0)" xlink:href="#ae"/><use transform="matrix(0.05,0,0,0.05,22.950000000000003,0)" xlink:href="#aq"/></g><g id="A"><use transform="matrix(0.05,0,0,0.05,0,0)" xlink:href="#aq"/><use transform="matrix(0.05,0,0,0.05,10,0)" xlink:href="#ac"/><use transform="matrix(0.05,0,0,0.05,15.949999999999997,0)" xlink:href="#at"/><use transform="matrix(0.05,0,0,0.05,25.950000000000003,0)" xlink:href="#an"/><use transform="matrix(0.05,0,0,0.05,38.9,0)" xlink:href="#ah"/><use transform="matrix(0.05,0,0,0.05,47.9,0)" xlink:href="#ae"/><use transform="matrix(0.05,0,0,0.05,57.900000000000006,0)" xlink:href="#ac"/></g><g id="B"><use transform="matrix(0.05,0,0,0.05,0,0)" xlink:href="#ah"/><use transform="matrix(0.05,0,0,0.05,9,0)" xlink:href="#ae"/><use transform="matrix(0.05,0,0,0.05,19,0)" xlink:href="#ad"/></g><g id="C"><use transform="matrix(0.05,0,0,0.05,0,0)" xlink:href="#ao"/><use transform="matrix(0.05,0,0,0.05,10,0)" xlink:href="#ap"/></g><g id="D"><use transform="matrix(0.05,0,0,0.05,0,0)" xlink:href="#ah"/><use transform="matrix(0.05,0,0,0.05,9,0)" xlink:href="#ao"/><use transform="matrix(0.05,0,0,0.05,19,0)" xlink:href="#aq"/><use transform="matrix(0.05,0,0,0.05,29,0)" xlink:href="#ah"/><use transform="matrix(0.05,0,0,0.05,38,0)" xlink:href="#ar"/><use transform="matrix(0.05,0,0,0.05,47,0)" xlink:href="#ah"/><use transform="matrix(0.05,0,0,0.05,56,0)" xlink:href="#ad"/><use transform="matrix(0.05,0,0,0.05,61,0)" xlink:href="#ae"/><use transform="matrix(0.05,0,0,0.05,71,0)" xlink:href="#as"/></g><path d="M85-194c31 0 48 13 60 33l-1-100h32l1 261h-30c-2-10 0-23-3-31C134-8 116 4 85 4 32 4 16-35 15-94c0-66 23-100 70-100zm9 24c-40 0-46 34-46 75 0 40 6 74 45 74 42 0 51-32 51-76 0-42-9-74-50-73" id="aS"/><g id="E"><use transform="matrix(0.05,0,0,0.05,0,0)" xlink:href="#aa"/><use transform="matrix(0.05,0,0,0.05,10.5,0)" xlink:href="#aa"/><use transform="matrix(0.05,0,0,0.05,21,0)" xlink:href="#aS"/><use transform="matrix(0.05,0,0,0.05,31,0)" xlink:href="#ae"/><use transform="matrix(0.05,0,0,0.05,41,0)" xlink:href="#al"/><use transform="matrix(0.05,0,0,0.05,50,0)" xlink:href="#am"/><use transform="matrix(0.05,0,0,0.05,53.95,0)" xlink:href="#ag"/><use transform="matrix(0.05,0,0,0.05,62.95,0)" xlink:href="#ae"/><use transform="matrix(0.05,0,0,0.05,72.95,0)" xlink:href="#ai"/><use transform="matrix(0.05,0,0,0.05,83.45,0)" xlink:href="#ai"/></g><g id="F"><use transform="matrix(0.05,0,0,0.05,0,0)" xlink:href="#au"/><use transform="matrix(0.05,0,0,0.05,12.950000000000001,0)" xlink:href="#ae"/><use transform="matrix(0.05,0,0,0.05,22.950000000000003,0)" xlink:href="#al"/><use transform="matrix(0.05,0,0,0.05,31.950000000000003,0)" xlink:href="#am"/><use transform="matrix(0.05,0,0,0.05,35.900000000000006,0)" xlink:href="#ae"/><use transform="matrix(0.05,0,0,0.05,45.900000000000006,0)" xlink:href="#an"/><use transform="matrix(0.05,0,0,0.05,58.85,0)" xlink:href="#ae"/><use transform="matrix(0.05,0,0,0.05,68.85000000000001,0)" xlink:href="#ac"/></g><g id="G"><use transform="matrix(0.05,0,0,0.05,0,0)" xlink:href="#aa"/><use transform="matrix(0.05,0,0,0.05,10.5,0)" xlink:href="#aa"/><use transform="matrix(0.05,0,0,0.05,21,0)" xlink:href="#an"/><use transform="matrix(0.05,0,0,0.05,33.95,0)" xlink:href="#ae"/><use transform="matrix(0.05,0,0,0.05,43.95,0)" xlink:href="#aq"/></g><g id="H"><use transform="matrix(0.05,0,0,0.05,0,0)" xlink:href="#aq"/><use transform="matrix(0.05,0,0,0.05,10,0)" xlink:href="#ac"/><use transform="matrix(0.05,0,0,0.05,15.949999999999997,0)" xlink:href="#at"/><use transform="matrix(0.05,0,0,0.05,25.950000000000003,0)" xlink:href="#an"/><use transform="matrix(0.05,0,0,0.05,38.9,0)" xlink:href="#ah"/><use transform="matrix(0.05,0,0,0.05,47.9,0)" xlink:href="#ae"/><use transform="matrix(0.05,0,0,0.05,57.900000000000006,0)" xlink:href="#ac"/><use transform="matrix(0.05,0,0,0.05,63.85,0)" xlink:href="#ai"/><use transform="matrix(0.05,0,0,0.05,74.35,0)" xlink:href="#ai"/></g><g id="I"><use transform="matrix(0.05,0,0,0.05,0,0)" xlink:href="#au"/><use transform="matrix(0.05,0,0,0.05,12.950000000000001,0)" xlink:href="#ae"/><use transform="matrix(0.05,0,0,0.05,22.950000000000003,0)" xlink:href="#al"/><use transform="matrix(0.05,0,0,0.05,31.950000000000003,0)" xlink:href="#am"/><use transform="matrix(0.05,0,0,0.05,35.900000000000006,0)" xlink:href="#ae"/><use transform="matrix(0.05,0,0,0.05,45.900000000000006,0)" xlink:href="#an"/><use transform="matrix(0.05,0,0,0.05,58.85,0)" xlink:href="#ae"/><use transform="matrix(0.05,0,0,0.05,68.85000000000001,0)" xlink:href="#ac"/></g><g id="J"><use transform="matrix(0.05,0,0,0.05,0,0)" xlink:href="#ah"/><use transform="matrix(0.05,0,0,0.05,9,0)" xlink:href="#ae"/><use transform="matrix(0.05,0,0,0.05,19,0)" xlink:href="#ad"/></g><g id="K"><use transform="matrix(0.05,0,0,0.05,0,0)" xlink:href="#ah"/><use transform="matrix(0.05,0,0,0.05,9,0)" xlink:href="#ao"/><use transform="matrix(0.05,0,0,0.05,19,0)" xlink:href="#aq"/></g><g id="L"><use transform="matrix(0.05,0,0,0.05,0,0)" xlink:href="#av"/><use transform="matrix(0.05,0,0,0.05,12,0)" xlink:href="#aw"/><use transform="matrix(0.05,0,0,0.05,15.949999999999997,0)" xlink:href="#ae"/><use transform="matrix(0.05,0,0,0.05,25.950000000000003,0)" xlink:href="#ac"/><use transform="matrix(0.05,0,0,0.05,31.899999999999995,0)" xlink:href="#ad"/><use transform="matrix(0.05,0,0,0.05,36.9,0)" xlink:href="#am"/><use transform="matrix(0.05,0,0,0.05,40.85,0)" xlink:href="#ak"/><use transform="matrix(0.05,0,0,0.05,50.85,0)" xlink:href="#ax"/></g><g id="M"><use transform="matrix(0.05,0,0,0.05,0,0)" xlink:href="#aj"/><use transform="matrix(0.05,0,0,0.05,5,0)" xlink:href="#ak"/><use transform="matrix(0.05,0,0,0.05,15,0)" xlink:href="#al"/><use transform="matrix(0.05,0,0,0.05,24,0)" xlink:href="#ae"/><use transform="matrix(0.05,0,0,0.05,34,0)" xlink:href="#ah"/><use transform="matrix(0.05,0,0,0.05,43,0)" xlink:href="#ad"/><use transform="matrix(0.05,0,0,0.05,48,0)" xlink:href="#at"/><use transform="matrix(0.05,0,0,0.05,58,0)" xlink:href="#ac"/></g><g id="N"><use transform="matrix(0.05,0,0,0.05,0,0)" xlink:href="#aj"/><use transform="matrix(0.05,0,0,0.05,5,0)" xlink:href="#ak"/><use transform="matrix(0.05,0,0,0.05,15,0)" xlink:href="#al"/><use transform="matrix(0.05,0,0,0.05,24,0)" xlink:href="#ae"/><use transform="matrix(0.05,0,0,0.05,34,0)" xlink:href="#ah"/><use transform="matrix(0.05,0,0,0.05,43,0)" xlink:href="#ad"/><use transform="matrix(0.05,0,0,0.05,48,0)" xlink:href="#at"/><use transform="matrix(0.05,0,0,0.05,58,0)" xlink:href="#ac"/></g><g id="O"><use transform="matrix(0.05,0,0,0.05,0,0)" xlink:href="#aj"/><use transform="matrix(0.05,0,0,0.05,5,0)" xlink:href="#ak"/><use transform="matrix(0.05,0,0,0.05,15,0)" xlink:href="#ad"/><use transform="matrix(0.05,0,0,0.05,20,0)" xlink:href="#ae"/><use transform="matrix(0.05,0,0,0.05,30,0)" xlink:href="#ac"/><use transform="matrix(0.05,0,0,0.05,35.95,0)" xlink:href="#al"/><use transform="matrix(0.05,0,0,0.05,44.95,0)" xlink:href="#am"/><use transform="matrix(0.05,0,0,0.05,48.900000000000006,0)" xlink:href="#ae"/><use transform="matrix(0.05,0,0,0.05,58.900000000000006,0)" xlink:href="#an"/></g><g id="P"><use transform="matrix(0.05,0,0,0.05,0,0)" xlink:href="#ap"/><use transform="matrix(0.05,0,0,0.05,10,0)" xlink:href="#ac"/><use transform="matrix(0.05,0,0,0.05,15.949999999999997,0)" xlink:href="#at"/><use transform="matrix(0.05,0,0,0.05,25.950000000000003,0)" xlink:href="#ag"/><use transform="matrix(0.05,0,0,0.05,34.95,0)" xlink:href="#ag"/><use transform="matrix(0.05,0,0,0.05,43.95,0)" xlink:href="#ae"/><use transform="matrix(0.05,0,0,0.05,53.95,0)" xlink:href="#ah"/><use transform="matrix(0.05,0,0,0.05,62.95,0)" xlink:href="#ah"/></g><path d="M197 0v-115H63V0H30v-248h33v105h134v-105h34V0h-34" id="aT"/><path d="M185-189c-5-48-123-54-124 2 14 75 158 14 163 119 3 78-121 87-175 55-17-10-28-26-33-46l33-7c5 56 141 63 141-1 0-78-155-14-162-118-5-82 145-84 179-34 5 7 8 16 11 25" id="aU"/><g id="Q"><use transform="matrix(0.05,0,0,0.05,0,0)" xlink:href="#aT"/><use transform="matrix(0.05,0,0,0.05,12.950000000000001,0)" xlink:href="#az"/><use transform="matrix(0.05,0,0,0.05,23.900000000000002,0)" xlink:href="#az"/><use transform="matrix(0.05,0,0,0.05,34.85,0)" xlink:href="#aB"/><use transform="matrix(0.05,0,0,0.05,46.85,0)" xlink:href="#aU"/></g><g id="R"><use transform="matrix(0.05,0,0,0.05,0,0)" xlink:href="#at"/><use transform="matrix(0.05,0,0,0.05,10,0)" xlink:href="#al"/><use transform="matrix(0.05,0,0,0.05,19,0)" xlink:href="#ae"/><use transform="matrix(0.05,0,0,0.05,29,0)" xlink:href="#ac"/></g><g id="S"><use transform="matrix(0.05,0,0,0.05,0,0)" xlink:href="#az"/><use transform="matrix(0.05,0,0,0.05,10.950000000000001,0)" xlink:href="#aA"/><use transform="matrix(0.05,0,0,0.05,23.900000000000002,0)" xlink:href="#aB"/><use transform="matrix(0.05,0,0,0.05,35.900000000000006,0)" xlink:href="#aC"/><use transform="matrix(0.05,0,0,0.05,40.900000000000006,0)" xlink:href="#aj"/><use transform="matrix(0.05,0,0,0.05,45.900000000000006,0)" xlink:href="#aB"/></g></defs></g></svg>