<svg xmlns="http://www.w3.org/2000/svg" xmlns:xlink="http://www.w3.org/1999/xlink" xmlns:lucid="lucid" width="2140" height="1420"><g transform="translate(-39.999999999999886 -40)" lucid:page-tab-id="0_0"><path d="M0 0h3676.8v2582.4H0z" fill="#fff"/><path d="M60 122l74.4-62H1060v545.6L998 680H60z" stroke="#000" stroke-width="2" fill="#fff"/><path d="M60 122l74.4-62H1060l-62 62z" stroke="#000" stroke-width="2" fill="#e6e6e6"/><path d="M998 122l62-62v545.6L998 680z" stroke="#000" stroke-width="2" fill="#ccc"/><use xlink:href="#a" transform="matrix(1,0,0,1,67.99999999999988,130) translate(0 16.6)"/><path d="M120 180h780v440H120z" stroke="#000" stroke-width="2" fill-opacity="0"/><use xlink:href="#b" transform="matrix(1,0,0,1,128,188) translate(326.525 14.4)"/><use xlink:href="#c" transform="matrix(1,0,0,1,128,188) translate(293.125 36)"/><use xlink:href="#d" transform="matrix(1,0,0,1,128,188) translate(393.925 36)"/><path d="M160 260h260v80H160z" stroke="#000" stroke-width="2" fill="#fff"/><path d="M140 270h40v20h-40zM140 310h40v20h-40z" stroke="#000" stroke-width="2" fill="#fff"/><use xlink:href="#e" transform="matrix(1,0,0,1,196,268) translate(75.05 35.6)"/><path d="M390 420h260v80H390z" stroke="#000" stroke-width="2" fill="#fff"/><path d="M370 430h40v20h-40zM370 470h40v20h-40z" stroke="#000" stroke-width="2" fill="#fff"/><use xlink:href="#f" transform="matrix(1,0,0,1,426,428) translate(76.025 35.6)"/><path d="M620 260h260v80H620z" stroke="#000" stroke-width="2" fill="#fff"/><path d="M600 270h40v20h-40zM600 310h40v20h-40z" stroke="#000" stroke-width="2" fill="#fff"/><use xlink:href="#g" transform="matrix(1,0,0,1,656,268) translate(50.599999999999994 35.6)"/><path d="M460 300h11M505 300h5" stroke="#000" stroke-width="2" fill="none"/><path d="M485 286c7.73 0 14 6.27 14 14s-6.27 14-14 14-14-6.27-14-14 6.27-14 14-14z" stroke="#000" stroke-width="2" fill="#fff"/><path d="M485 320c11.05 0 20-8.95 20-20s-8.95-20-20-20" stroke="#000" stroke-width="2" fill="none"/><path d="M460 299.2h11v1.6h-11z" fill="none"/><path d="M511 300h43.5v20.14H598" stroke="#000" stroke-width="2" fill="none"/><path d="M511.03 301H510v-2h-3 4.03zM599 321.14h-1.03v-2H599z"/><path d="M459 300h-37" stroke="#000" stroke-width="2" fill="none"/><path d="M463 299h-3v2h-1.03v-2H463zM422.03 301H421v-2h1.03z"/><path d="M485 321v97" stroke="#000" stroke-width="2" fill="none"/><path/><path d="M486 419h-2v-1.03h2z"/><path d="M1420 368c0 6.63-26.86 12-60 12s-60-5.37-60-12v-96c0-6.63 26.86-12 60-12s60 5.37 60 12z" stroke="#000" stroke-width="2" fill="#fff"/><path d="M1420 272c0 6.63-26.86 12-60 12s-60-5.37-60-12" stroke="#000" stroke-width="2" fill="none"/><use xlink:href="#h" transform="matrix(1,0,0,1,1305,289) translate(16.525 46.65)"/><path d="M1062 318h236" stroke="#000" stroke-width="2" fill="none"/><path d="M1062.03 319H1061v-2h1.03zM1299 319h-1.03v-2h1.03z"/><use xlink:href="#i" transform="matrix(1,0,0,1,1151.05,292.4) translate(0 14.4)"/><path d="M60 882l74.4-62H1080v545.6l-62 74.4H60z" stroke="#000" stroke-width="2" fill="#fff"/><path d="M60 882l74.4-62H1080l-62 62z" stroke="#000" stroke-width="2" fill="#e6e6e6"/><path d="M1018 882l62-62v545.6l-62 74.4z" stroke="#000" stroke-width="2" fill="#ccc"/><use xlink:href="#j" transform="matrix(1,0,0,1,67.99999999999988,890) translate(0 14.4)"/><use xlink:href="#k" transform="matrix(1,0,0,1,67.99999999999988,890) translate(0 36)"/><path d="M160 952l62.4-52H980v457.6l-52 62.4H160z" stroke="#000" stroke-width="2" fill="#fff"/><path d="M160 952l62.4-52H980l-52 52z" stroke="#000" stroke-width="2" fill="#e6e6e6"/><path d="M928 952l52-52v457.6l-52 62.4z" stroke="#000" stroke-width="2" fill="#ccc"/><use xlink:href="#l" transform="matrix(1,0,0,1,168,960) translate(0 14.4)"/><use xlink:href="#m" transform="matrix(1,0,0,1,168,960) translate(0 36)"/><path d="M240 980h680v420H240z" stroke="#000" stroke-width="2" fill-opacity="0"/><use xlink:href="#b" transform="matrix(1,0,0,1,248,988) translate(276.525 14.4)"/><use xlink:href="#n" transform="matrix(1,0,0,1,248,988) translate(190.25 36)"/><use xlink:href="#o" transform="matrix(1,0,0,1,248,988) translate(233.15 36)"/><use xlink:href="#p" transform="matrix(1,0,0,1,248,988) translate(296 36)"/><use xlink:href="#d" transform="matrix(1,0,0,1,248,988) translate(396.8 36)"/><path d="M270 1125h240v70H270z" stroke="#000" stroke-width="2" fill="#fff"/><path d="M250 1132.5h40v20h-40zM250 1167.5h40v20h-40z" stroke="#000" stroke-width="2" fill="#fff"/><use xlink:href="#q" transform="matrix(1,0,0,1,301.99999999999994,1132) translate(54.025 31.6)"/><path d="M370 1300h240v70H370z" stroke="#000" stroke-width="2" fill="#fff"/><path d="M350 1307.5h40v20h-40zM350 1342.5h40v20h-40z" stroke="#000" stroke-width="2" fill="#fff"/><use xlink:href="#f" transform="matrix(1,0,0,1,401.99999999999994,1307) translate(69.525 31.6)"/><path d="M660 1140h240v70H660z" stroke="#000" stroke-width="2" fill="#fff"/><path d="M640 1147.5h40v20h-40zM640 1182.5h40v20h-40z" stroke="#000" stroke-width="2" fill="#fff"/><use xlink:href="#g" transform="matrix(1,0,0,1,692,1147) translate(43.599999999999994 31.6)"/><path d="M510 1160h11M555 1160h5" stroke="#000" stroke-width="2" fill="none"/><path d="M535 1146c7.73 0 14 6.27 14 14s-6.27 14-14 14-14-6.27-14-14 6.27-14 14-14z" stroke="#000" stroke-width="2" fill="#fff"/><path d="M535 1180c11.05 0 20-8.95 20-20s-8.95-20-20-20" stroke="#000" stroke-width="2" fill="none"/><path d="M510 1159.2h11v1.6h-11z" fill="none"/><path d="M561 1160h77" stroke="#000" stroke-width="2" fill="none"/><path d="M561.03 1161H560v-2h-3 4.03zM639 1161h-1.03v-2H639z"/><path d="M463.33 978V800h106.64V622" stroke="#000" stroke-width="2" fill="none"/><path d="M464.33 979h-2v-1.03h2zM570.97 622.03h-2V621h2z"/><use xlink:href="#r" transform="matrix(1,0,0,1,365.4249260633285,775.5769745630507) translate(0 14.4)"/><use xlink:href="#s" transform="matrix(1,0,0,1,365.4249260633285,775.5769745630507) translate(63.85 14.4)"/><use xlink:href="#t" transform="matrix(1,0,0,1,365.4249260633285,775.5769745630507) translate(103.80000000000001 14.4)"/><path d="M1140 862l74.4-62H2160v545.6l-62 74.4h-958z" stroke="#000" stroke-width="2" fill="#fff"/><path d="M1140 862l74.4-62H2160l-62 62z" stroke="#000" stroke-width="2" fill="#e6e6e6"/><path d="M2098 862l62-62v545.6l-62 74.4z" stroke="#000" stroke-width="2" fill="#ccc"/><use xlink:href="#j" transform="matrix(1,0,0,1,1148,870) translate(0 14.4)"/><use xlink:href="#u" transform="matrix(1,0,0,1,1148,870) translate(0 36)"/><path d="M1260 932l62.4-52H2080v457.6l-52 62.4h-768z" stroke="#000" stroke-width="2" fill="#fff"/><path d="M1260 932l62.4-52H2080l-52 52z" stroke="#000" stroke-width="2" fill="#e6e6e6"/><path d="M2028 932l52-52v457.6l-52 62.4z" stroke="#000" stroke-width="2" fill="#ccc"/><use xlink:href="#v" transform="matrix(1,0,0,1,1268.0000000000002,940) translate(0 16.6)"/><use xlink:href="#w" transform="matrix(1,0,0,1,1268.0000000000002,940) translate(60.95 16.6)"/><path d="M1385 960h635v420h-635z" stroke="#000" stroke-width="2" fill-opacity="0"/><use xlink:href="#b" transform="matrix(1,0,0,1,1393,968) translate(254.525 14.4)"/><use xlink:href="#x" transform="matrix(1,0,0,1,1393,968) translate(141.775 36)"/><use xlink:href="#y" transform="matrix(1,0,0,1,1393,968) translate(193.675 36)"/><use xlink:href="#z" transform="matrix(1,0,0,1,1393,968) translate(231.625 36)"/><use xlink:href="#p" transform="matrix(1,0,0,1,1393,968) translate(300.475 36)"/><use xlink:href="#d" transform="matrix(1,0,0,1,1393,968) translate(401.275 36)"/><path d="M1420 1100h160v70h-160z" stroke="#000" stroke-width="2" fill="#fff"/><path d="M1400 1107.5h40v20h-40zM1400 1142.5h40v20h-40z" stroke="#000" stroke-width="2" fill="#fff"/><use xlink:href="#e" transform="matrix(1,0,0,1,1436,1107) translate(40.05 31.6)"/><path d="M1520 1240h240v70h-240z" stroke="#000" stroke-width="2" fill="#fff"/><path d="M1500 1247.5h40v20h-40zM1500 1282.5h40v20h-40z" stroke="#000" stroke-width="2" fill="#fff"/><use xlink:href="#f" transform="matrix(1,0,0,1,1552,1247) translate(69.525 31.6)"/><path d="M1720 1120h160v70h-160z" stroke="#000" stroke-width="2" fill="#fff"/><path d="M1700 1127.5h40v20h-40zM1700 1162.5h40v20h-40z" stroke="#000" stroke-width="2" fill="#fff"/><use xlink:href="#g" transform="matrix(1,0,0,1,1736,1127) translate(15.599999999999994 31.6)"/><path d="M1580 1140h11M1625 1140h5" stroke="#000" stroke-width="2" fill="none"/><path d="M1605 1126c7.73 0 14 6.27 14 14s-6.27 14-14 14-14-6.27-14-14 6.27-14 14-14z" stroke="#000" stroke-width="2" fill="#fff"/><path d="M1605 1160c11.05 0 20-8.95 20-20s-8.95-20-20-20" stroke="#000" stroke-width="2" fill="none"/><path d="M1580 1139.2h11v1.6h-11z" fill="none"/><path d="M1631 1140h33.5v-.05h33.5" stroke="#000" stroke-width="2" fill="none"/><path d="M1631.03 1141H1630v-2h-3 4.03zM1699 1140.95h-1.03v-2h1.03z"/><path d="M1574 958V463.33H902" stroke="#000" stroke-width="2" fill="none"/><path d="M1575 959h-2v-1.03h2zM902.03 464.33H901v-2h1.03z"/><g><use xlink:href="#r" transform="matrix(1,0,0,1,1134.9316675254701,467.3333333333333) translate(0 14.4)"/><use xlink:href="#s" transform="matrix(1,0,0,1,1134.9316675254701,467.3333333333333) translate(63.85 14.4)"/><use xlink:href="#t" transform="matrix(1,0,0,1,1134.9316675254701,467.3333333333333) translate(103.80000000000001 14.4)"/></g><path d="M535 1181v117" stroke="#000" stroke-width="2" fill="none"/><path/><path d="M536 1299h-2v-1.03h2z"/><path d="M1605 1161v77" stroke="#000" stroke-width="2" fill="none"/><path/><path d="M1606 1239h-2v-1.03h2z"/><defs><path d="M240 0l2-218c-23 76-54 145-80 218h-23L58-218 59 0H30v-248h44l77 211c21-75 51-140 76-211h43V0h-30" id="A"/><path d="M30 0v-248h187v28H63v79h144v27H63v87h162V0H30" id="B"/><path d="M194 0L95-120 63-95V0H30v-248h33v124l119-124h40L117-140 236 0h-42" id="C"/><path d="M185-189c-5-48-123-54-124 2 14 75 158 14 163 119 3 78-121 87-175 55-17-10-28-26-33-46l33-7c5 56 141 63 141-1 0-78-155-14-162-118-5-82 145-84 179-34 5 7 8 16 11 25" id="D"/><path d="M100-194c63 0 86 42 84 106H49c0 40 14 67 53 68 26 1 43-12 49-29l28 8c-11 28-37 45-77 45C44 4 14-33 15-96c1-61 26-98 85-98zm52 81c6-60-76-77-97-28-3 7-6 17-6 28h103" id="E"/><path d="M114-163C36-179 61-72 57 0H25l-1-190h30c1 12-1 29 2 39 6-27 23-49 58-41v29" id="F"/><path d="M108 0H70L1-190h34L89-25l56-165h34" id="G"/><g id="a"><use transform="matrix(0.05,0,0,0.05,0,0)" xlink:href="#A"/><use transform="matrix(0.05,0,0,0.05,14.950000000000001,0)" xlink:href="#B"/><use transform="matrix(0.05,0,0,0.05,26.950000000000003,0)" xlink:href="#B"/><use transform="matrix(0.05,0,0,0.05,38.95,0)" xlink:href="#C"/><use transform="matrix(0.05,0,0,0.05,50.95,0)" xlink:href="#D"/><use transform="matrix(0.05,0,0,0.05,62.95,0)" xlink:href="#E"/><use transform="matrix(0.05,0,0,0.05,72.95,0)" xlink:href="#F"/><use transform="matrix(0.05,0,0,0.05,78.9,0)" xlink:href="#G"/><use transform="matrix(0.05,0,0,0.05,87.9,0)" xlink:href="#E"/><use transform="matrix(0.05,0,0,0.05,97.9,0)" xlink:href="#F"/></g><path d="M18-100v-36l175-74v27L42-118l151 64v27" id="H"/><path d="M141-36C126-15 110 5 73 4 37 3 15-17 15-53c-1-64 63-63 125-63 3-35-9-54-41-54-24 1-41 7-42 31l-33-3c5-37 33-52 76-52 45 0 72 20 72 64v82c-1 20 7 32 28 27v20c-31 9-61-2-59-35zM48-53c0 20 12 33 32 33 41-3 63-29 60-74-43 2-92-5-92 41" id="I"/><path d="M59-47c-2 24 18 29 38 22v24C64 9 27 4 27-40v-127H5v-23h24l9-43h21v43h35v23H59v120" id="J"/><path d="M101-234c-31-9-42 10-38 44h38v23H63V0H32v-167H5v-23h27c-7-52 17-82 69-68v24" id="K"/><path d="M96-169c-40 0-48 33-48 73s9 75 48 75c24 0 41-14 43-38l32 2c-6 37-31 61-74 61-59 0-76-41-82-99-10-93 101-131 147-64 4 7 5 14 7 22l-32 3c-4-21-16-35-41-35" id="L"/><path d="M135-143c-3-34-86-38-87 0 15 53 115 12 119 90S17 21 10-45l28-5c4 36 97 45 98 0-10-56-113-15-118-90-4-57 82-63 122-42 12 7 21 19 24 35" id="M"/><path d="M18-27v-27l151-64-151-65v-27l175 74v36" id="N"/><g id="b"><use transform="matrix(0.05,0,0,0.05,0,0)" xlink:href="#H"/><use transform="matrix(0.05,0,0,0.05,10.5,0)" xlink:href="#H"/><use transform="matrix(0.05,0,0,0.05,21,0)" xlink:href="#I"/><use transform="matrix(0.05,0,0,0.05,31,0)" xlink:href="#F"/><use transform="matrix(0.05,0,0,0.05,36.95,0)" xlink:href="#J"/><use transform="matrix(0.05,0,0,0.05,41.95,0)" xlink:href="#E"/><use transform="matrix(0.05,0,0,0.05,51.95,0)" xlink:href="#K"/><use transform="matrix(0.05,0,0,0.05,56.95,0)" xlink:href="#I"/><use transform="matrix(0.05,0,0,0.05,66.95,0)" xlink:href="#L"/><use transform="matrix(0.05,0,0,0.05,75.95,0)" xlink:href="#J"/><use transform="matrix(0.05,0,0,0.05,80.95,0)" xlink:href="#M"/><use transform="matrix(0.05,0,0,0.05,89.95,0)" xlink:href="#N"/><use transform="matrix(0.05,0,0,0.05,100.45,0)" xlink:href="#N"/></g><path d="M233-177c-1 41-23 64-60 70L243 0h-38l-65-103H63V0H30v-248c88 3 205-21 203 71zM63-129c60-2 137 13 137-47 0-61-80-42-137-45v92" id="O"/><path d="M177-190C167-65 218 103 67 71c-23-6-38-20-44-43l32-5c15 47 100 32 89-28v-30C133-14 115 1 83 1 29 1 15-40 15-95c0-56 16-97 71-98 29-1 48 16 59 35 1-10 0-23 2-32h30zM94-22c36 0 50-32 50-73 0-42-14-75-50-75-39 0-46 34-46 75s6 73 46 73" id="P"/><path d="M24-231v-30h32v30H24zM24 0v-190h32V0H24" id="Q"/><path d="M100-194c62-1 85 37 85 99 1 63-27 99-86 99S16-35 15-95c0-66 28-99 85-99zM99-20c44 1 53-31 53-75 0-43-8-75-51-75s-53 32-53 75 10 74 51 75" id="R"/><path d="M117-194c89-4 53 116 60 194h-32v-121c0-31-8-49-39-48C34-167 62-67 57 0H25l-1-190h30c1 10-1 24 2 32 11-22 29-35 61-36" id="S"/><g id="c"><use transform="matrix(0.05,0,0,0.05,0,0)" xlink:href="#O"/><use transform="matrix(0.05,0,0,0.05,12.950000000000001,0)" xlink:href="#E"/><use transform="matrix(0.05,0,0,0.05,22.950000000000003,0)" xlink:href="#P"/><use transform="matrix(0.05,0,0,0.05,32.95,0)" xlink:href="#Q"/><use transform="matrix(0.05,0,0,0.05,36.900000000000006,0)" xlink:href="#M"/><use transform="matrix(0.05,0,0,0.05,45.900000000000006,0)" xlink:href="#J"/><use transform="matrix(0.05,0,0,0.05,50.900000000000006,0)" xlink:href="#F"/><use transform="matrix(0.05,0,0,0.05,56.85,0)" xlink:href="#I"/><use transform="matrix(0.05,0,0,0.05,66.85000000000001,0)" xlink:href="#J"/><use transform="matrix(0.05,0,0,0.05,71.85000000000001,0)" xlink:href="#Q"/><use transform="matrix(0.05,0,0,0.05,75.80000000000001,0)" xlink:href="#R"/><use transform="matrix(0.05,0,0,0.05,85.80000000000001,0)" xlink:href="#S"/></g><path d="M84 4C-5 8 30-112 23-190h32v120c0 31 7 50 39 49 72-2 45-101 50-169h31l1 190h-30c-1-10 1-25-2-33-11 22-28 36-60 37" id="T"/><path d="M115-194c53 0 69 39 70 98 0 66-23 100-70 100C84 3 66-7 56-30L54 0H23l1-261h32v101c10-23 28-34 59-34zm-8 174c40 0 45-34 45-75 0-40-5-75-45-74-42 0-51 32-51 76 0 43 10 73 51 73" id="U"/><path d="M179-190L93 31C79 59 56 82 12 73V49c39 6 53-20 64-50L1-190h34L92-34l54-156h33" id="V"/><path d="M210-169c-67 3-38 105-44 169h-31v-121c0-29-5-50-35-48C34-165 62-65 56 0H25l-1-190h30c1 10-1 24 2 32 10-44 99-50 107 0 11-21 27-35 58-36 85-2 47 119 55 194h-31v-121c0-29-5-49-35-48" id="W"/><g id="d"><use transform="matrix(0.05,0,0,0.05,0,0)" xlink:href="#M"/><use transform="matrix(0.05,0,0,0.05,9,0)" xlink:href="#T"/><use transform="matrix(0.05,0,0,0.05,19,0)" xlink:href="#U"/><use transform="matrix(0.05,0,0,0.05,29,0)" xlink:href="#M"/><use transform="matrix(0.05,0,0,0.05,38,0)" xlink:href="#V"/><use transform="matrix(0.05,0,0,0.05,47,0)" xlink:href="#J"/><use transform="matrix(0.05,0,0,0.05,52,0)" xlink:href="#E"/><use transform="matrix(0.05,0,0,0.05,62,0)" xlink:href="#W"/></g><path d="M232-93c-1 65-40 97-104 97C67 4 28-28 28-90v-158h33c8 89-33 224 67 224 102 0 64-133 71-224h33v155" id="X"/><g id="e"><use transform="matrix(0.05,0,0,0.05,0,0)" xlink:href="#X"/><use transform="matrix(0.05,0,0,0.05,12.950000000000001,0)" xlink:href="#M"/><use transform="matrix(0.05,0,0,0.05,21.950000000000003,0)" xlink:href="#E"/><use transform="matrix(0.05,0,0,0.05,31.950000000000003,0)" xlink:href="#F"/><use transform="matrix(0.05,0,0,0.05,37.900000000000006,0)" xlink:href="#M"/></g><path d="M30 0v-248h33v221h125V0H30" id="Y"/><g id="f"><use transform="matrix(0.05,0,0,0.05,0,0)" xlink:href="#Y"/><use transform="matrix(0.05,0,0,0.05,10,0)" xlink:href="#R"/><use transform="matrix(0.05,0,0,0.05,20,0)" xlink:href="#P"/><use transform="matrix(0.05,0,0,0.05,30,0)" xlink:href="#Q"/><use transform="matrix(0.05,0,0,0.05,33.95,0)" xlink:href="#S"/></g><g id="g"><use transform="matrix(0.05,0,0,0.05,0,0)" xlink:href="#O"/><use transform="matrix(0.05,0,0,0.05,12.950000000000001,0)" xlink:href="#E"/><use transform="matrix(0.05,0,0,0.05,22.950000000000003,0)" xlink:href="#P"/><use transform="matrix(0.05,0,0,0.05,32.95,0)" xlink:href="#Q"/><use transform="matrix(0.05,0,0,0.05,36.900000000000006,0)" xlink:href="#M"/><use transform="matrix(0.05,0,0,0.05,45.900000000000006,0)" xlink:href="#J"/><use transform="matrix(0.05,0,0,0.05,50.900000000000006,0)" xlink:href="#F"/><use transform="matrix(0.05,0,0,0.05,56.85,0)" xlink:href="#I"/><use transform="matrix(0.05,0,0,0.05,66.85000000000001,0)" xlink:href="#J"/><use transform="matrix(0.05,0,0,0.05,71.85000000000001,0)" xlink:href="#Q"/><use transform="matrix(0.05,0,0,0.05,75.80000000000001,0)" xlink:href="#R"/><use transform="matrix(0.05,0,0,0.05,85.80000000000001,0)" xlink:href="#S"/></g><path d="M30-248c118-7 216 8 213 122C240-48 200 0 122 0H30v-248zM63-27c89 8 146-16 146-99s-60-101-146-95v194" id="Z"/><g id="h"><use transform="matrix(0.05,0,0,0.05,0,0)" xlink:href="#Z"/><use transform="matrix(0.05,0,0,0.05,12.950000000000001,0)" xlink:href="#I"/><use transform="matrix(0.05,0,0,0.05,22.950000000000003,0)" xlink:href="#J"/><use transform="matrix(0.05,0,0,0.05,27.950000000000003,0)" xlink:href="#I"/><use transform="matrix(0.05,0,0,0.05,37.95,0)" xlink:href="#U"/><use transform="matrix(0.05,0,0,0.05,47.95,0)" xlink:href="#I"/><use transform="matrix(0.05,0,0,0.05,57.95,0)" xlink:href="#M"/><use transform="matrix(0.05,0,0,0.05,66.95,0)" xlink:href="#E"/></g><path d="M127-220V0H93v-220H8v-28h204v28h-85" id="aa"/><path d="M212-179c-10-28-35-45-73-45-59 0-87 40-87 99 0 60 29 101 89 101 43 0 62-24 78-52l27 14C228-24 195 4 139 4 59 4 22-46 18-125c-6-104 99-153 187-111 19 9 31 26 39 46" id="ab"/><path d="M30-248c87 1 191-15 191 75 0 78-77 80-158 76V0H30v-248zm33 125c57 0 124 11 124-50 0-59-68-47-124-48v98" id="ac"/><path d="M0 4l72-265h28L28 4H0" id="ad"/><path d="M33 0v-248h34V0H33" id="ae"/><g id="i"><use transform="matrix(0.05,0,0,0.05,0,0)" xlink:href="#aa"/><use transform="matrix(0.05,0,0,0.05,10.950000000000001,0)" xlink:href="#ab"/><use transform="matrix(0.05,0,0,0.05,23.900000000000002,0)" xlink:href="#ac"/><use transform="matrix(0.05,0,0,0.05,35.900000000000006,0)" xlink:href="#ad"/><use transform="matrix(0.05,0,0,0.05,40.900000000000006,0)" xlink:href="#ae"/><use transform="matrix(0.05,0,0,0.05,45.900000000000006,0)" xlink:href="#ac"/></g><path d="M15-91v-56l181-69v40L49-119l147 57v40" id="af"/><path d="M88-194c31-1 46 15 58 34l-1-101h50l1 261h-48c-2-10 0-23-3-31C134-8 116 4 84 4 32 4 16-41 15-95c0-56 19-97 73-99zm17 164c33 0 40-30 41-66 1-37-9-64-41-64s-38 30-39 65c0 43 13 65 39 65" id="ag"/><path d="M185-48c-13 30-37 53-82 52C43 2 14-33 14-96s30-98 90-98c62 0 83 45 84 108H66c0 31 8 55 39 56 18 0 30-7 34-22zm-45-69c5-46-57-63-70-21-2 6-4 13-4 21h74" id="ah"/><path d="M128 0H69L1-190h53L99-40l48-150h52" id="ai"/><path d="M25-224v-37h50v37H25zM25 0v-190h50V0H25" id="aj"/><path d="M190-63c-7 42-38 67-86 67-59 0-84-38-90-98-12-110 154-137 174-36l-49 2c-2-19-15-32-35-32-30 0-35 28-38 64-6 74 65 87 74 30" id="ak"/><path d="M15-22v-40l146-57-146-57v-40l181 69v56" id="al"/><g id="j"><use transform="matrix(0.05,0,0,0.05,0,0)" xlink:href="#af"/><use transform="matrix(0.05,0,0,0.05,10.5,0)" xlink:href="#af"/><use transform="matrix(0.05,0,0,0.05,21,0)" xlink:href="#ag"/><use transform="matrix(0.05,0,0,0.05,31.950000000000003,0)" xlink:href="#ah"/><use transform="matrix(0.05,0,0,0.05,41.95,0)" xlink:href="#ai"/><use transform="matrix(0.05,0,0,0.05,51.95,0)" xlink:href="#aj"/><use transform="matrix(0.05,0,0,0.05,56.95,0)" xlink:href="#ak"/><use transform="matrix(0.05,0,0,0.05,66.95,0)" xlink:href="#ah"/><use transform="matrix(0.05,0,0,0.05,76.95,0)" xlink:href="#al"/><use transform="matrix(0.05,0,0,0.05,87.45,0)" xlink:href="#al"/></g><path d="M85 4C-2 5 27-109 22-190h50c7 57-23 150 33 157 60-5 35-97 40-157h50l1 190h-47c-2-12 1-28-3-38-12 25-28 42-61 42" id="am"/><path d="M137-138c1-29-70-34-71-4 15 46 118 7 119 86 1 83-164 76-172 9l43-7c4 19 20 25 44 25 33 8 57-30 24-41C81-84 22-81 20-136c-2-80 154-74 161-7" id="an"/><path d="M135-150c-39-12-60 13-60 57V0H25l-1-190h47c2 13-1 29 3 40 6-28 27-53 61-41v41" id="ao"/><g id="k"><use transform="matrix(0.05,0,0,0.05,0,0)" xlink:href="#am"/><use transform="matrix(0.05,0,0,0.05,10.950000000000001,0)" xlink:href="#an"/><use transform="matrix(0.05,0,0,0.05,20.950000000000003,0)" xlink:href="#ah"/><use transform="matrix(0.05,0,0,0.05,30.950000000000003,0)" xlink:href="#ao"/></g><path d="M140-251c80 0 125 45 125 126S219 4 139 4C58 4 15-44 15-125s44-126 125-126zm-1 214c52 0 73-35 73-88 0-50-21-86-72-86-52 0-73 35-73 86s22 88 72 88" id="ap"/><path d="M169-182c-1-43-94-46-97-3 18 66 151 10 154 114 3 95-165 93-204 36-6-8-10-19-12-30l50-8c3 46 112 56 116 5-17-69-150-10-154-114-4-87 153-88 188-35 5 8 8 18 10 28" id="aq"/><g id="l"><use transform="matrix(0.05,0,0,0.05,0,0)" xlink:href="#af"/><use transform="matrix(0.05,0,0,0.05,10.5,0)" xlink:href="#af"/><use transform="matrix(0.05,0,0,0.05,21,0)" xlink:href="#ap"/><use transform="matrix(0.05,0,0,0.05,35,0)" xlink:href="#aq"/><use transform="matrix(0.05,0,0,0.05,47,0)" xlink:href="#al"/><use transform="matrix(0.05,0,0,0.05,57.5,0)" xlink:href="#al"/></g><path d="M199 0l-22-63H83L61 0H9l90-248h61L250 0h-51zm-33-102l-36-108c-10 38-24 72-36 108h72" id="ar"/><path d="M135-194c87-1 58 113 63 194h-50c-7-57 23-157-34-157-59 0-34 97-39 157H25l-1-190h47c2 12-1 28 3 38 12-26 28-41 61-42" id="as"/><path d="M110-194c64 0 96 36 96 99 0 64-35 99-97 99-61 0-95-36-95-99 0-62 34-99 96-99zm-1 164c35 0 45-28 45-65 0-40-10-65-43-65-34 0-45 26-45 65 0 36 10 65 43 65" id="at"/><g id="m"><use transform="matrix(0.05,0,0,0.05,0,0)" xlink:href="#ar"/><use transform="matrix(0.05,0,0,0.05,12.950000000000001,0)" xlink:href="#as"/><use transform="matrix(0.05,0,0,0.05,23.900000000000002,0)" xlink:href="#ag"/><use transform="matrix(0.05,0,0,0.05,34.85,0)" xlink:href="#ao"/><use transform="matrix(0.05,0,0,0.05,41.85,0)" xlink:href="#at"/><use transform="matrix(0.05,0,0,0.05,52.800000000000004,0)" xlink:href="#aj"/><use transform="matrix(0.05,0,0,0.05,57.800000000000004,0)" xlink:href="#ag"/></g><g id="n"><use transform="matrix(0.05,0,0,0.05,0,0)" xlink:href="#X"/><use transform="matrix(0.05,0,0,0.05,12.950000000000001,0)" xlink:href="#M"/><use transform="matrix(0.05,0,0,0.05,21.950000000000003,0)" xlink:href="#E"/><use transform="matrix(0.05,0,0,0.05,31.950000000000003,0)" xlink:href="#F"/></g><path d="M24 0v-261h32V0H24" id="au"/><g id="o"><use transform="matrix(0.05,0,0,0.05,0,0)" xlink:href="#A"/><use transform="matrix(0.05,0,0,0.05,14.950000000000001,0)" xlink:href="#R"/><use transform="matrix(0.05,0,0,0.05,24.950000000000003,0)" xlink:href="#U"/><use transform="matrix(0.05,0,0,0.05,34.95,0)" xlink:href="#Q"/><use transform="matrix(0.05,0,0,0.05,38.900000000000006,0)" xlink:href="#au"/><use transform="matrix(0.05,0,0,0.05,42.85000000000001,0)" xlink:href="#E"/></g><g id="p"><use transform="matrix(0.05,0,0,0.05,0,0)" xlink:href="#O"/><use transform="matrix(0.05,0,0,0.05,12.950000000000001,0)" xlink:href="#E"/><use transform="matrix(0.05,0,0,0.05,22.950000000000003,0)" xlink:href="#P"/><use transform="matrix(0.05,0,0,0.05,32.95,0)" xlink:href="#Q"/><use transform="matrix(0.05,0,0,0.05,36.900000000000006,0)" xlink:href="#M"/><use transform="matrix(0.05,0,0,0.05,45.900000000000006,0)" xlink:href="#J"/><use transform="matrix(0.05,0,0,0.05,50.900000000000006,0)" xlink:href="#F"/><use transform="matrix(0.05,0,0,0.05,56.85,0)" xlink:href="#I"/><use transform="matrix(0.05,0,0,0.05,66.85000000000001,0)" xlink:href="#J"/><use transform="matrix(0.05,0,0,0.05,71.85000000000001,0)" xlink:href="#Q"/><use transform="matrix(0.05,0,0,0.05,75.80000000000001,0)" xlink:href="#R"/><use transform="matrix(0.05,0,0,0.05,85.80000000000001,0)" xlink:href="#S"/></g><g id="q"><use transform="matrix(0.05,0,0,0.05,0,0)" xlink:href="#ae"/><use transform="matrix(0.05,0,0,0.05,5,0)" xlink:href="#S"/><use transform="matrix(0.05,0,0,0.05,15,0)" xlink:href="#S"/><use transform="matrix(0.05,0,0,0.05,25,0)" xlink:href="#R"/><use transform="matrix(0.05,0,0,0.05,35,0)" xlink:href="#G"/><use transform="matrix(0.05,0,0,0.05,44,0)" xlink:href="#I"/><use transform="matrix(0.05,0,0,0.05,54,0)" xlink:href="#J"/><use transform="matrix(0.05,0,0,0.05,59,0)" xlink:href="#R"/><use transform="matrix(0.05,0,0,0.05,69,0)" xlink:href="#F"/></g><path d="M197 0v-115H63V0H30v-248h33v105h134v-105h34V0h-34" id="av"/><g id="r"><use transform="matrix(0.05,0,0,0.05,0,0)" xlink:href="#av"/><use transform="matrix(0.05,0,0,0.05,12.950000000000001,0)" xlink:href="#aa"/><use transform="matrix(0.05,0,0,0.05,23.900000000000002,0)" xlink:href="#aa"/><use transform="matrix(0.05,0,0,0.05,34.85,0)" xlink:href="#ac"/><use transform="matrix(0.05,0,0,0.05,46.85,0)" xlink:href="#D"/></g><g id="s"><use transform="matrix(0.05,0,0,0.05,0,0)" xlink:href="#R"/><use transform="matrix(0.05,0,0,0.05,10,0)" xlink:href="#G"/><use transform="matrix(0.05,0,0,0.05,19,0)" xlink:href="#E"/><use transform="matrix(0.05,0,0,0.05,29,0)" xlink:href="#F"/></g><g id="t"><use transform="matrix(0.05,0,0,0.05,0,0)" xlink:href="#aa"/><use transform="matrix(0.05,0,0,0.05,10.950000000000001,0)" xlink:href="#ab"/><use transform="matrix(0.05,0,0,0.05,23.900000000000002,0)" xlink:href="#ac"/><use transform="matrix(0.05,0,0,0.05,35.900000000000006,0)" xlink:href="#ad"/><use transform="matrix(0.05,0,0,0.05,40.900000000000006,0)" xlink:href="#ae"/><use transform="matrix(0.05,0,0,0.05,45.900000000000006,0)" xlink:href="#ac"/></g><path d="M238-95c0 69-44 99-111 99C63 4 22-25 22-93v-155h51v151c-1 38 19 59 55 60 90 1 49-130 58-211h52v153" id="aw"/><g id="u"><use transform="matrix(0.05,0,0,0.05,0,0)" xlink:href="#aw"/><use transform="matrix(0.05,0,0,0.05,12.950000000000001,0)" xlink:href="#an"/><use transform="matrix(0.05,0,0,0.05,22.950000000000003,0)" xlink:href="#ah"/><use transform="matrix(0.05,0,0,0.05,32.95,0)" xlink:href="#ao"/><use transform="matrix(0.05,0,0,0.05,39.95,0)" xlink:href="#an"/></g><path d="M231 0h-52l-39-155L100 0H48L-1-190h46L77-45c9-52 24-97 36-145h53l37 145 32-145h46" id="ax"/><path d="M135-194c52 0 70 43 70 98 0 56-19 99-73 100-30 1-46-15-58-35L72 0H24l1-261h50v104c11-23 29-37 60-37zM114-30c31 0 40-27 40-66 0-37-7-63-39-63s-41 28-41 65c0 36 8 64 40 64" id="ay"/><g id="v"><use transform="matrix(0.05,0,0,0.05,0,0)" xlink:href="#af"/><use transform="matrix(0.05,0,0,0.05,10.5,0)" xlink:href="#af"/><use transform="matrix(0.05,0,0,0.05,21,0)" xlink:href="#ax"/><use transform="matrix(0.05,0,0,0.05,35,0)" xlink:href="#ah"/><use transform="matrix(0.05,0,0,0.05,45,0)" xlink:href="#ay"/></g><g id="w"><use transform="matrix(0.05,0,0,0.05,0,0)" xlink:href="#ay"/><use transform="matrix(0.05,0,0,0.05,10.950000000000001,0)" xlink:href="#ao"/><use transform="matrix(0.05,0,0,0.05,17.950000000000003,0)" xlink:href="#at"/><use transform="matrix(0.05,0,0,0.05,28.900000000000005,0)" xlink:href="#ax"/><use transform="matrix(0.05,0,0,0.05,42.900000000000006,0)" xlink:href="#an"/><use transform="matrix(0.05,0,0,0.05,52.900000000000006,0)" xlink:href="#ah"/><use transform="matrix(0.05,0,0,0.05,62.900000000000006,0)" xlink:href="#ao"/><use transform="matrix(0.05,0,0,0.05,69.9,0)" xlink:href="#al"/><use transform="matrix(0.05,0,0,0.05,80.4,0)" xlink:href="#al"/></g><g id="x"><use transform="matrix(0.05,0,0,0.05,0,0)" xlink:href="#X"/><use transform="matrix(0.05,0,0,0.05,12.950000000000001,0)" xlink:href="#M"/><use transform="matrix(0.05,0,0,0.05,21.950000000000003,0)" xlink:href="#E"/><use transform="matrix(0.05,0,0,0.05,31.950000000000003,0)" xlink:href="#F"/><use transform="matrix(0.05,0,0,0.05,37.900000000000006,0)" xlink:href="#M"/></g><path d="M206 0h-36l-40-164L89 0H53L-1-190h32L70-26l43-164h34l41 164 42-164h31" id="az"/><g id="y"><use transform="matrix(0.05,0,0,0.05,0,0)" xlink:href="#az"/><use transform="matrix(0.05,0,0,0.05,12.950000000000001,0)" xlink:href="#E"/><use transform="matrix(0.05,0,0,0.05,22.950000000000003,0)" xlink:href="#U"/></g><g id="z"><use transform="matrix(0.05,0,0,0.05,0,0)" xlink:href="#U"/><use transform="matrix(0.05,0,0,0.05,10,0)" xlink:href="#F"/><use transform="matrix(0.05,0,0,0.05,15.949999999999997,0)" xlink:href="#R"/><use transform="matrix(0.05,0,0,0.05,25.950000000000003,0)" xlink:href="#az"/><use transform="matrix(0.05,0,0,0.05,38.9,0)" xlink:href="#M"/><use transform="matrix(0.05,0,0,0.05,47.9,0)" xlink:href="#E"/><use transform="matrix(0.05,0,0,0.05,57.900000000000006,0)" xlink:href="#F"/></g></defs></g></svg>