<svg xmlns="http://www.w3.org/2000/svg" xmlns:xlink="http://www.w3.org/1999/xlink" xmlns:lucid="lucid" width="1220" height="820"><g transform="translate(-80 0)" lucid:page-tab-id="Z47JmqMws1Hf"><path d="M0 0h1870.4v1323.2H0z" fill="#fff"/><path d="M340 20h940v780H340z" stroke="#000" stroke-width="2" fill-opacity="0"/><use xlink:href="#a" transform="matrix(1,0,0,1,348,28) translate(355.15 15.6)"/><use xlink:href="#b" transform="matrix(1,0,0,1,348,28) translate(426.04999999999995 15.6)"/><use xlink:href="#c" transform="matrix(1,0,0,1,348,28) translate(482.9 15.6)"/><path d="M179.75 119.75c0 10.9-8.84 19.75-19.75 19.75-10.9 0-19.75-8.84-19.75-19.75 0-10.9 8.84-19.75 19.75-19.75 10.9 0 19.75 8.84 19.75 19.75z" stroke="#000" stroke-width="2" fill="#fff"/><path d="M160 139.5v55.3l40 63.2m-40-63.2L120 258m0-98.75h80" stroke="#000" stroke-width="2" fill="none"/><path d="M120 100h80v180h-80z" fill="none"/><use xlink:href="#d" transform="matrix(1,0,0,1,40,258) translate(82.6 14.6)"/><path d="M920 180c0 33.14-35.82 60-80 60s-80-26.86-80-60 35.82-60 80-60 80 26.86 80 60z" stroke="#000" stroke-width="2" fill="#fff"/><use xlink:href="#e" transform="matrix(1,0,0,1,760,120) translate(27.605 40.65)"/><use xlink:href="#f" transform="matrix(1,0,0,1,760,120) translate(107.40500000000002 40.65)"/><use xlink:href="#g" transform="matrix(1,0,0,1,760,120) translate(12.079999999999993 62.25)"/><use xlink:href="#h" transform="matrix(1,0,0,1,760,120) translate(102.93 62.25)"/><use xlink:href="#f" transform="matrix(1,0,0,1,760,120) translate(122.93 62.25)"/><use xlink:href="#i" transform="matrix(1,0,0,1,760,120) translate(48.55499999999999 83.85000000000001)"/><path d="M160 189.98l598-9.96M160.03 189.98l-4.03.07" stroke="#000" stroke-width="2" fill="none"/><path d="M759 180v.4l.03.6-1.04.02-.04-2 1.07-.02z"/><path d="M980 360c0 44.18-44.77 80-100 80s-100-35.82-100-80 44.77-80 100-80 100 35.82 100 80zm-200 0h200" stroke="#000" stroke-width="2" fill="#fff"/><use xlink:href="#j" transform="matrix(1,0,0,1,810,296) translate(13.795370370370364 14.4)"/><use xlink:href="#k" transform="matrix(1,0,0,1,810,296) translate(62.74537037037037 14.4)"/><use xlink:href="#l" transform="matrix(1,0,0,1,810,296) translate(0.07500000000000284 36)"/><use xlink:href="#m" transform="matrix(1,0,0,1,810,296) translate(5.075000000000003 36)"/><use xlink:href="#n" transform="matrix(1,0,0,1,810,296) translate(30.075000000000003 36)"/><use xlink:href="#o" transform="matrix(1,0,0,1,810,296) translate(60.075 36)"/><use xlink:href="#p" transform="matrix(1,0,0,1,810,296) translate(27.074999999999996 57.6)"/><use xlink:href="#q" transform="matrix(1,0,0,1,810,384) translate(35.574999999999996 19.6)"/><use xlink:href="#r" transform="matrix(1,0,0,1,780,360) translate(27.174999999999983 15.6)"/><use xlink:href="#s" transform="matrix(1,0,0,1,780,360) translate(117.975 15.6)"/><path d="M816.13 424.38l-11.08 3.43m-11.1 3.44l-22.15 6.86m-11.08 3.42l-22.17 6.86m-11.08 3.43l-11.08 3.44M802.55 439.24l13.44-14.8-19.47-4.65" stroke="#000" stroke-width="2" fill="none"/><path d="M716.7 456.18l-.24.08-.42-.32-1.67-1.13 1.75-.53z"/><path d="M740 500c0 33.14-35.82 60-80 60s-80-26.86-80-60 35.82-60 80-60 80 26.86 80 60z" stroke="#000" stroke-width="2" fill="#fff"/><use xlink:href="#t" transform="matrix(1,0,0,1,580,440) translate(33.004999999999995 51.9)"/><use xlink:href="#f" transform="matrix(1,0,0,1,580,440) translate(102.005 51.9)"/><use xlink:href="#p" transform="matrix(1,0,0,1,580,440) translate(37.07999999999999 73.5)"/><path d="M937.74 428l10.77 3.84m10.78 3.85l21.54 7.7m10.78 3.85l21.54 7.7m10.77 3.86l10.8 3.86M957.5 424.25l-19.63 3.8 12.78 15.37" stroke="#000" stroke-width="2" fill="none"/><path d="M1036.4 462.2l-1.55 1.58-.53-.2.68-1.87z"/><path d="M1180 500c0 33.14-35.82 60-80 60s-80-26.86-80-60 35.82-60 80-60 80 26.86 80 60z" stroke="#000" stroke-width="2" fill="#fff"/><use xlink:href="#u" transform="matrix(1,0,0,1,1020,440) translate(35.05499999999999 51.9)"/><use xlink:href="#f" transform="matrix(1,0,0,1,1020,440) translate(99.95500000000001 51.9)"/><use xlink:href="#p" transform="matrix(1,0,0,1,1020,440) translate(37.07999999999999 73.5)"/><g><path d="M940 458.5l99-58.5 16.1 27.2-99.03 58.5z" fill="#fff" fill-opacity="0"/></g><g><use xlink:href="#v" transform="matrix(0.8609700225412263,-0.5086556991574559,0.5086556991574559,0.8609700225412263,946.8481286084934,460.25697702002634) translate(0 14.4)"/></g><g><path d="M723 387.16L812 460l-20 24.44-89-72.83z" fill="#fff" fill-opacity="0"/></g><g><use xlink:href="#v" transform="matrix(0.7739103795889353,0.6332951321181224,-0.6332951321181224,0.7739103795889353,723.7092924984568,394.19377346423806) translate(0 14.4)"/></g><path d="M600 720c0 33.14-35.82 60-80 60s-80-26.86-80-60 35.82-60 80-60 80 26.86 80 60z" stroke="#000" stroke-width="2" fill="#fff"/><g><use xlink:href="#w" transform="matrix(1,0,0,1,440,660) translate(70.01 18.87666666666667)"/><use xlink:href="#x" transform="matrix(1,0,0,1,440,660) translate(72.01 18.87666666666667)"/><use xlink:href="#y" transform="matrix(1,0,0,1,440,660) translate(36.01 39.67666666666667)"/><use xlink:href="#z" transform="matrix(1,0,0,1,440,660) translate(50.45444444444445 39.67666666666667)"/><use xlink:href="#A" transform="matrix(1,0,0,1,440,660) translate(9.01 60.476666666666674)"/><use xlink:href="#B" transform="matrix(1,0,0,1,440,660) translate(28.269259259259265 60.476666666666674)"/><use xlink:href="#C" transform="matrix(1,0,0,1,440,660) translate(105.11370370370372 60.476666666666674)"/><use xlink:href="#D" transform="matrix(1,0,0,1,440,660) translate(36.01 81.27666666666669)"/><use xlink:href="#E" transform="matrix(1,0,0,1,440,660) translate(53.01 102.07666666666668)"/></g><path d="M159.75 439.75c0 10.9-8.84 19.75-19.75 19.75-10.9 0-19.75-8.84-19.75-19.75 0-10.9 8.84-19.75 19.75-19.75 10.9 0 19.75 8.84 19.75 19.75z" stroke="#000" stroke-width="2" fill="#fff"/><path d="M140 459.5v55.3l40 63.2m-40-63.2L100 578m0-98.75h80" stroke="#000" stroke-width="2" fill="none"/><path d="M100 420h80v180h-80z" fill="none"/><g><use xlink:href="#F" transform="matrix(1,0,0,1,20,578) translate(88.025 14.6)"/></g><path d="M139.97 509.77l638.06-149.54M140 509.77l-3.92.9" stroke="#000" stroke-width="2" fill="none"/><path d="M779 360V361l-.77.2-.46-1.96 1.26-.3z"/><path d="M139.82 510.57l298.36 208.86M139.84 510.6l-3.3-2.32" stroke="#000" stroke-width="2" fill="none"/><path d="M439.04 718.8L439 720v.4l.03.85-1.44-1.02 1.13-1.64z"/><defs><path d="M30 0v-248h187v28H63v79h144v27H63v87h162V0H30" id="G"/><path d="M141 0L90-78 38 0H4l68-98-65-92h35l48 74 47-74h35l-64 92 68 98h-35" id="H"/><path d="M59-47c-2 24 18 29 38 22v24C64 9 27 4 27-40v-127H5v-23h24l9-43h21v43h35v23H59v120" id="I"/><path d="M100-194c63 0 86 42 84 106H49c0 40 14 67 53 68 26 1 43-12 49-29l28 8c-11 28-37 45-77 45C44 4 14-33 15-96c1-61 26-98 85-98zm52 81c6-60-76-77-97-28-3 7-6 17-6 28h103" id="J"/><path d="M114-163C36-179 61-72 57 0H25l-1-190h30c1 12-1 29 2 39 6-27 23-49 58-41v29" id="K"/><path d="M117-194c89-4 53 116 60 194h-32v-121c0-31-8-49-39-48C34-167 62-67 57 0H25l-1-190h30c1 10-1 24 2 32 11-22 29-35 61-36" id="L"/><path d="M141-36C126-15 110 5 73 4 37 3 15-17 15-53c-1-64 63-63 125-63 3-35-9-54-41-54-24 1-41 7-42 31l-33-3c5-37 33-52 76-52 45 0 72 20 72 64v82c-1 20 7 32 28 27v20c-31 9-61-2-59-35zM48-53c0 20 12 33 32 33 41-3 63-29 60-74-43 2-92-5-92 41" id="M"/><path d="M24 0v-261h32V0H24" id="N"/><g id="a"><use transform="matrix(0.05,0,0,0.05,0,0)" xlink:href="#G"/><use transform="matrix(0.05,0,0,0.05,12,0)" xlink:href="#H"/><use transform="matrix(0.05,0,0,0.05,21,0)" xlink:href="#I"/><use transform="matrix(0.05,0,0,0.05,26,0)" xlink:href="#J"/><use transform="matrix(0.05,0,0,0.05,36,0)" xlink:href="#K"/><use transform="matrix(0.05,0,0,0.05,41.95,0)" xlink:href="#L"/><use transform="matrix(0.05,0,0,0.05,51.95,0)" xlink:href="#M"/><use transform="matrix(0.05,0,0,0.05,61.95,0)" xlink:href="#N"/></g><path d="M108 0H70L1-190h34L89-25l56-165h34" id="O"/><path d="M24-231v-30h32v30H24zM24 0v-190h32V0H24" id="P"/><path d="M206 0h-36l-40-164L89 0H53L-1-190h32L70-26l43-164h34l41 164 42-164h31" id="Q"/><g id="b"><use transform="matrix(0.05,0,0,0.05,0,0)" xlink:href="#K"/><use transform="matrix(0.05,0,0,0.05,5.95,0)" xlink:href="#J"/><use transform="matrix(0.05,0,0,0.05,15.949999999999998,0)" xlink:href="#O"/><use transform="matrix(0.05,0,0,0.05,24.95,0)" xlink:href="#P"/><use transform="matrix(0.05,0,0,0.05,28.899999999999995,0)" xlink:href="#J"/><use transform="matrix(0.05,0,0,0.05,38.9,0)" xlink:href="#Q"/></g><path d="M135-143c-3-34-86-38-87 0 15 53 115 12 119 90S17 21 10-45l28-5c4 36 97 45 98 0-10-56-113-15-118-90-4-57 82-63 122-42 12 7 21 19 24 35" id="R"/><path d="M84 4C-5 8 30-112 23-190h32v120c0 31 7 50 39 49 72-2 45-101 50-169h31l1 190h-30c-1-10 1-25-2-33-11 22-28 36-60 37" id="S"/><path d="M115-194c53 0 69 39 70 98 0 66-23 100-70 100C84 3 66-7 56-30L54 0H23l1-261h32v101c10-23 28-34 59-34zm-8 174c40 0 45-34 45-75 0-40-5-75-45-74-42 0-51 32-51 76 0 43 10 73 51 73" id="T"/><path d="M179-190L93 31C79 59 56 82 12 73V49c39 6 53-20 64-50L1-190h34L92-34l54-156h33" id="U"/><path d="M210-169c-67 3-38 105-44 169h-31v-121c0-29-5-50-35-48C34-165 62-65 56 0H25l-1-190h30c1 10-1 24 2 32 10-44 99-50 107 0 11-21 27-35 58-36 85-2 47 119 55 194h-31v-121c0-29-5-49-35-48" id="V"/><g id="c"><use transform="matrix(0.05,0,0,0.05,0,0)" xlink:href="#R"/><use transform="matrix(0.05,0,0,0.05,9,0)" xlink:href="#S"/><use transform="matrix(0.05,0,0,0.05,19,0)" xlink:href="#T"/><use transform="matrix(0.05,0,0,0.05,29,0)" xlink:href="#R"/><use transform="matrix(0.05,0,0,0.05,38,0)" xlink:href="#U"/><use transform="matrix(0.05,0,0,0.05,47,0)" xlink:href="#R"/><use transform="matrix(0.05,0,0,0.05,56,0)" xlink:href="#I"/><use transform="matrix(0.05,0,0,0.05,61,0)" xlink:href="#J"/><use transform="matrix(0.05,0,0,0.05,71,0)" xlink:href="#V"/></g><path d="M233-177c-1 41-23 64-60 70L243 0h-38l-65-103H63V0H30v-248c88 3 205-21 203 71zM63-129c60-2 137 13 137-47 0-61-80-42-137-45v92" id="W"/><g id="d"><use transform="matrix(0.05,0,0,0.05,0,0)" xlink:href="#W"/><use transform="matrix(0.05,0,0,0.05,12.950000000000001,0)" xlink:href="#J"/><use transform="matrix(0.05,0,0,0.05,22.950000000000003,0)" xlink:href="#O"/><use transform="matrix(0.05,0,0,0.05,31.950000000000003,0)" xlink:href="#P"/><use transform="matrix(0.05,0,0,0.05,35.900000000000006,0)" xlink:href="#J"/><use transform="matrix(0.05,0,0,0.05,45.900000000000006,0)" xlink:href="#Q"/><use transform="matrix(0.05,0,0,0.05,58.85,0)" xlink:href="#J"/><use transform="matrix(0.05,0,0,0.05,68.85000000000001,0)" xlink:href="#K"/></g><path d="M63-220v92h138v28H63V0H30v-248h175v28H63" id="X"/><path d="M100-194c62-1 85 37 85 99 1 63-27 99-86 99S16-35 15-95c0-66 28-99 85-99zM99-20c44 1 53-31 53-75 0-43-8-75-51-75s-53 32-53 75 10 74 51 75" id="Y"/><path d="M85-194c31 0 48 13 60 33l-1-100h32l1 261h-30c-2-10 0-23-3-31C134-8 116 4 85 4 32 4 16-35 15-94c0-66 23-100 70-100zm9 24c-40 0-46 34-46 75 0 40 6 74 45 74 42 0 51-32 51-76 0-42-9-74-50-73" id="Z"/><g id="e"><use transform="matrix(0.05,0,0,0.05,0,0)" xlink:href="#X"/><use transform="matrix(0.05,0,0,0.05,10.950000000000001,0)" xlink:href="#Y"/><use transform="matrix(0.05,0,0,0.05,20.950000000000003,0)" xlink:href="#K"/><use transform="matrix(0.05,0,0,0.05,26.900000000000002,0)" xlink:href="#Q"/><use transform="matrix(0.05,0,0,0.05,39.85,0)" xlink:href="#M"/><use transform="matrix(0.05,0,0,0.05,49.85,0)" xlink:href="#K"/><use transform="matrix(0.05,0,0,0.05,55.800000000000004,0)" xlink:href="#Z"/><use transform="matrix(0.05,0,0,0.05,65.80000000000001,0)" xlink:href="#R"/></g><path d="M106-169C34-169 62-67 57 0H25v-261h32l-1 103c12-21 28-36 61-36 89 0 53 116 60 194h-32v-121c2-32-8-49-39-48" id="aa"/><g id="f"><use transform="matrix(0.05,0,0,0.05,0,0)" xlink:href="#I"/><use transform="matrix(0.05,0,0,0.05,5,0)" xlink:href="#aa"/><use transform="matrix(0.05,0,0,0.05,15,0)" xlink:href="#J"/></g><path d="M115-194c55 1 70 41 70 98S169 2 115 4C84 4 66-9 55-30l1 105H24l-1-265h31l2 30c10-21 28-34 59-34zm-8 174c40 0 45-34 45-75s-6-73-45-74c-42 0-51 32-51 76 0 43 10 73 51 73" id="ab"/><path d="M96-169c-40 0-48 33-48 73s9 75 48 75c24 0 41-14 43-38l32 2c-6 37-31 61-74 61-59 0-76-41-82-99-10-93 101-131 147-64 4 7 5 14 7 22l-32 3c-4-21-16-35-41-35" id="ac"/><g id="g"><use transform="matrix(0.05,0,0,0.05,0,0)" xlink:href="#M"/><use transform="matrix(0.05,0,0,0.05,10,0)" xlink:href="#ab"/><use transform="matrix(0.05,0,0,0.05,20,0)" xlink:href="#ab"/><use transform="matrix(0.05,0,0,0.05,30,0)" xlink:href="#N"/><use transform="matrix(0.05,0,0,0.05,33.95,0)" xlink:href="#P"/><use transform="matrix(0.05,0,0,0.05,37.900000000000006,0)" xlink:href="#ac"/><use transform="matrix(0.05,0,0,0.05,46.900000000000006,0)" xlink:href="#M"/><use transform="matrix(0.05,0,0,0.05,56.900000000000006,0)" xlink:href="#I"/><use transform="matrix(0.05,0,0,0.05,61.900000000000006,0)" xlink:href="#P"/><use transform="matrix(0.05,0,0,0.05,65.85000000000001,0)" xlink:href="#Y"/><use transform="matrix(0.05,0,0,0.05,75.85000000000001,0)" xlink:href="#L"/></g><g id="h"><use transform="matrix(0.05,0,0,0.05,0,0)" xlink:href="#I"/><use transform="matrix(0.05,0,0,0.05,5,0)" xlink:href="#Y"/></g><g id="i"><use transform="matrix(0.05,0,0,0.05,0,0)" xlink:href="#P"/><use transform="matrix(0.05,0,0,0.05,3.95,0)" xlink:href="#L"/><use transform="matrix(0.05,0,0,0.05,13.949999999999998,0)" xlink:href="#O"/><use transform="matrix(0.05,0,0,0.05,22.95,0)" xlink:href="#J"/><use transform="matrix(0.05,0,0,0.05,32.95,0)" xlink:href="#R"/><use transform="matrix(0.05,0,0,0.05,41.95,0)" xlink:href="#I"/><use transform="matrix(0.05,0,0,0.05,46.95,0)" xlink:href="#Y"/><use transform="matrix(0.05,0,0,0.05,56.95,0)" xlink:href="#K"/></g><path d="M240 0l2-218c-23 76-54 145-80 218h-23L58-218 59 0H30v-248h44l77 211c21-75 51-140 76-211h43V0h-30" id="ad"/><path d="M143 0L79-87 56-68V0H24v-261h32v163l83-92h37l-77 82L181 0h-38" id="ae"/><g id="j"><use transform="matrix(0.05,0,0,0.05,0,0)" xlink:href="#ad"/><use transform="matrix(0.05,0,0,0.05,14.950000000000001,0)" xlink:href="#M"/><use transform="matrix(0.05,0,0,0.05,24.950000000000003,0)" xlink:href="#ae"/><use transform="matrix(0.05,0,0,0.05,33.95,0)" xlink:href="#J"/></g><g id="k"><use transform="matrix(0.048148148148148155,0,0,0.048148148148148155,0,0)" xlink:href="#Z"/><use transform="matrix(0.048148148148148155,0,0,0.048148148148148155,9.629629629629632,0)" xlink:href="#J"/><use transform="matrix(0.048148148148148155,0,0,0.048148148148148155,19.259259259259263,0)" xlink:href="#ac"/><use transform="matrix(0.048148148148148155,0,0,0.048148148148148155,27.92592592592593,0)" xlink:href="#P"/><use transform="matrix(0.048148148148148155,0,0,0.048148148148148155,31.729629629629635,0)" xlink:href="#R"/><use transform="matrix(0.048148148148148155,0,0,0.048148148148148155,40.3962962962963,0)" xlink:href="#P"/><use transform="matrix(0.048148148148148155,0,0,0.048148148148148155,44.2,0)" xlink:href="#Y"/><use transform="matrix(0.048148148148148155,0,0,0.048148148148148155,53.829629629629636,0)" xlink:href="#L"/></g><g id="m"><use transform="matrix(0.05,0,0,0.05,0,0)" xlink:href="#Y"/><use transform="matrix(0.05,0,0,0.05,10,0)" xlink:href="#L"/></g><g id="n"><use transform="matrix(0.05,0,0,0.05,0,0)" xlink:href="#I"/><use transform="matrix(0.05,0,0,0.05,5,0)" xlink:href="#aa"/><use transform="matrix(0.05,0,0,0.05,15,0)" xlink:href="#J"/></g><path d="M101-234c-31-9-42 10-38 44h38v23H63V0H32v-167H5v-23h27c-7-52 17-82 69-68v24" id="af"/><g id="o"><use transform="matrix(0.05,0,0,0.05,0,0)" xlink:href="#af"/><use transform="matrix(0.05,0,0,0.05,5,0)" xlink:href="#Y"/><use transform="matrix(0.05,0,0,0.05,15,0)" xlink:href="#K"/><use transform="matrix(0.05,0,0,0.05,20.95,0)" xlink:href="#Q"/><use transform="matrix(0.05,0,0,0.05,33.9,0)" xlink:href="#M"/><use transform="matrix(0.05,0,0,0.05,43.9,0)" xlink:href="#K"/><use transform="matrix(0.05,0,0,0.05,49.85,0)" xlink:href="#Z"/><use transform="matrix(0.05,0,0,0.05,59.85,0)" xlink:href="#J"/><use transform="matrix(0.05,0,0,0.05,69.85,0)" xlink:href="#Z"/></g><g id="p"><use transform="matrix(0.05,0,0,0.05,0,0)" xlink:href="#M"/><use transform="matrix(0.05,0,0,0.05,10,0)" xlink:href="#ab"/><use transform="matrix(0.05,0,0,0.05,20,0)" xlink:href="#ab"/><use transform="matrix(0.05,0,0,0.05,30,0)" xlink:href="#N"/><use transform="matrix(0.05,0,0,0.05,33.95,0)" xlink:href="#P"/><use transform="matrix(0.05,0,0,0.05,37.900000000000006,0)" xlink:href="#ac"/><use transform="matrix(0.05,0,0,0.05,46.900000000000006,0)" xlink:href="#M"/><use transform="matrix(0.05,0,0,0.05,56.900000000000006,0)" xlink:href="#I"/><use transform="matrix(0.05,0,0,0.05,61.900000000000006,0)" xlink:href="#P"/><use transform="matrix(0.05,0,0,0.05,65.85000000000001,0)" xlink:href="#Y"/><use transform="matrix(0.05,0,0,0.05,75.85000000000001,0)" xlink:href="#L"/></g><path d="M30-248c118-7 216 8 213 122C240-48 200 0 122 0H30v-248zM63-27c89 8 146-16 146-99s-60-101-146-95v194" id="ag"/><g id="q"><use transform="matrix(0.05,0,0,0.05,0,0)" xlink:href="#ag"/><use transform="matrix(0.05,0,0,0.05,12.950000000000001,0)" xlink:href="#J"/><use transform="matrix(0.05,0,0,0.05,22.950000000000003,0)" xlink:href="#ac"/><use transform="matrix(0.05,0,0,0.05,31.950000000000003,0)" xlink:href="#P"/><use transform="matrix(0.05,0,0,0.05,35.900000000000006,0)" xlink:href="#R"/><use transform="matrix(0.05,0,0,0.05,44.900000000000006,0)" xlink:href="#P"/><use transform="matrix(0.05,0,0,0.05,48.85000000000001,0)" xlink:href="#Y"/><use transform="matrix(0.05,0,0,0.05,58.85,0)" xlink:href="#L"/></g><path d="M24 0v-248h195v40H76v63h132v40H76v65h150V0H24" id="ah"/><path d="M144 0l-44-69L55 0H2l70-98-66-92h53l41 62 40-62h54l-67 91 71 99h-54" id="ai"/><path d="M115-3C79 11 28 4 28-45v-112H4v-33h27l15-45h31v45h36v33H77v99c-1 23 16 31 38 25v30" id="aj"/><path d="M185-48c-13 30-37 53-82 52C43 2 14-33 14-96s30-98 90-98c62 0 83 45 84 108H66c0 31 8 55 39 56 18 0 30-7 34-22zm-45-69c5-46-57-63-70-21-2 6-4 13-4 21h74" id="ak"/><path d="M135-194c87-1 58 113 63 194h-50c-7-57 23-157-34-157-59 0-34 97-39 157H25l-1-190h47c2 12-1 28 3 38 12-26 28-41 61-42" id="al"/><path d="M137-138c1-29-70-34-71-4 15 46 118 7 119 86 1 83-164 76-172 9l43-7c4 19 20 25 44 25 33 8 57-30 24-41C81-84 22-81 20-136c-2-80 154-74 161-7" id="am"/><path d="M25-224v-37h50v37H25zM25 0v-190h50V0H25" id="an"/><path d="M110-194c64 0 96 36 96 99 0 64-35 99-97 99-61 0-95-36-95-99 0-62 34-99 96-99zm-1 164c35 0 45-28 45-65 0-40-10-65-43-65-34 0-45 26-45 65 0 36 10 65 43 65" id="ao"/><g id="r"><use transform="matrix(0.05,0,0,0.05,0,0)" xlink:href="#ah"/><use transform="matrix(0.05,0,0,0.05,12,0)" xlink:href="#ai"/><use transform="matrix(0.05,0,0,0.05,22,0)" xlink:href="#aj"/><use transform="matrix(0.05,0,0,0.05,27.950000000000003,0)" xlink:href="#ak"/><use transform="matrix(0.05,0,0,0.05,37.95,0)" xlink:href="#al"/><use transform="matrix(0.05,0,0,0.05,48.900000000000006,0)" xlink:href="#am"/><use transform="matrix(0.05,0,0,0.05,58.900000000000006,0)" xlink:href="#an"/><use transform="matrix(0.05,0,0,0.05,63.900000000000006,0)" xlink:href="#ao"/><use transform="matrix(0.05,0,0,0.05,74.85000000000001,0)" xlink:href="#al"/></g><path d="M24-248c93 1 206-16 204 79-1 75-69 88-152 82V0H24v-248zm52 121c47 0 100 7 100-41 0-47-54-39-100-39v80" id="ap"/><g id="s"><use transform="matrix(0.05,0,0,0.05,0,0)" xlink:href="#ap"/><use transform="matrix(0.05,0,0,0.05,12,0)" xlink:href="#ao"/><use transform="matrix(0.05,0,0,0.05,22.950000000000003,0)" xlink:href="#an"/><use transform="matrix(0.05,0,0,0.05,27.950000000000003,0)" xlink:href="#al"/><use transform="matrix(0.05,0,0,0.05,38.900000000000006,0)" xlink:href="#aj"/><use transform="matrix(0.05,0,0,0.05,44.85000000000001,0)" xlink:href="#am"/></g><path d="M205 0l-28-72H64L36 0H1l101-248h38L239 0h-34zm-38-99l-47-123c-12 45-31 82-46 123h93" id="aq"/><g id="t"><use transform="matrix(0.05,0,0,0.05,0,0)" xlink:href="#aq"/><use transform="matrix(0.05,0,0,0.05,12,0)" xlink:href="#ac"/><use transform="matrix(0.05,0,0,0.05,21,0)" xlink:href="#ac"/><use transform="matrix(0.05,0,0,0.05,30,0)" xlink:href="#J"/><use transform="matrix(0.05,0,0,0.05,40,0)" xlink:href="#ab"/><use transform="matrix(0.05,0,0,0.05,50,0)" xlink:href="#I"/><use transform="matrix(0.05,0,0,0.05,55,0)" xlink:href="#R"/></g><path d="M24-231v-30h32v30H24zM-9 49c24 4 33-6 33-30v-209h32V24c2 40-23 58-65 49V49" id="ar"/><g id="u"><use transform="matrix(0.05,0,0,0.05,0,0)" xlink:href="#W"/><use transform="matrix(0.05,0,0,0.05,12.950000000000001,0)" xlink:href="#J"/><use transform="matrix(0.05,0,0,0.05,22.950000000000003,0)" xlink:href="#ar"/><use transform="matrix(0.05,0,0,0.05,26.900000000000002,0)" xlink:href="#J"/><use transform="matrix(0.05,0,0,0.05,36.900000000000006,0)" xlink:href="#ac"/><use transform="matrix(0.05,0,0,0.05,45.900000000000006,0)" xlink:href="#I"/><use transform="matrix(0.05,0,0,0.05,50.900000000000006,0)" xlink:href="#R"/></g><path d="M18-100v-36l175-74v27L42-118l151 64v27" id="as"/><path d="M18-27v-27l151-64-151-65v-27l175 74v36" id="at"/><g id="v"><use transform="matrix(0.05,0,0,0.05,0,0)" xlink:href="#as"/><use transform="matrix(0.05,0,0,0.05,10.5,0)" xlink:href="#as"/><use transform="matrix(0.05,0,0,0.05,21,0)" xlink:href="#J"/><use transform="matrix(0.05,0,0,0.05,31,0)" xlink:href="#H"/><use transform="matrix(0.05,0,0,0.05,40,0)" xlink:href="#I"/><use transform="matrix(0.05,0,0,0.05,45,0)" xlink:href="#J"/><use transform="matrix(0.05,0,0,0.05,55,0)" xlink:href="#L"/><use transform="matrix(0.05,0,0,0.05,65,0)" xlink:href="#Z"/><use transform="matrix(0.05,0,0,0.05,75,0)" xlink:href="#R"/><use transform="matrix(0.05,0,0,0.05,84,0)" xlink:href="#at"/><use transform="matrix(0.05,0,0,0.05,94.5,0)" xlink:href="#at"/></g><path d="M190 0L58-211 59 0H30v-248h39L202-35l-2-213h31V0h-41" id="au"/><g id="z"><use transform="matrix(0.048148148148148155,0,0,0.048148148148148155,0,0)" xlink:href="#au"/><use transform="matrix(0.048148148148148155,0,0,0.048148148148148155,12.470370370370372,0)" xlink:href="#Y"/><use transform="matrix(0.048148148148148155,0,0,0.048148148148148155,22.1,0)" xlink:href="#I"/><use transform="matrix(0.048148148148148155,0,0,0.048148148148148155,26.914814814814818,0)" xlink:href="#P"/><use transform="matrix(0.048148148148148155,0,0,0.048148148148148155,30.718518518518522,0)" xlink:href="#af"/><use transform="matrix(0.048148148148148155,0,0,0.048148148148148155,35.53333333333334,0)" xlink:href="#U"/></g><g id="B"><use transform="matrix(0.048148148148148155,0,0,0.048148148148148155,0,0)" xlink:href="#W"/><use transform="matrix(0.048148148148148155,0,0,0.048148148148148155,12.470370370370372,0)" xlink:href="#J"/><use transform="matrix(0.048148148148148155,0,0,0.048148148148148155,22.1,0)" xlink:href="#O"/><use transform="matrix(0.048148148148148155,0,0,0.048148148148148155,30.766666666666673,0)" xlink:href="#P"/><use transform="matrix(0.048148148148148155,0,0,0.048148148148148155,34.57037037037038,0)" xlink:href="#J"/><use transform="matrix(0.048148148148148155,0,0,0.048148148148148155,44.20000000000001,0)" xlink:href="#Q"/><use transform="matrix(0.048148148148148155,0,0,0.048148148148148155,56.67037037037038,0)" xlink:href="#J"/><use transform="matrix(0.048148148148148155,0,0,0.048148148148148155,66.30000000000001,0)" xlink:href="#K"/></g><g id="C"><use transform="matrix(0.048148148148148155,0,0,0.048148148148148155,0,0)" xlink:href="#Y"/><use transform="matrix(0.048148148148148155,0,0,0.048148148148148155,9.629629629629632,0)" xlink:href="#af"/></g><g id="D"><use transform="matrix(0.048148148148148155,0,0,0.048148148148148155,0,0)" xlink:href="#O"/><use transform="matrix(0.048148148148148155,0,0,0.048148148148148155,8.666666666666668,0)" xlink:href="#J"/><use transform="matrix(0.048148148148148155,0,0,0.048148148148148155,18.296296296296298,0)" xlink:href="#K"/><use transform="matrix(0.048148148148148155,0,0,0.048148148148148155,24.02592592592593,0)" xlink:href="#Z"/><use transform="matrix(0.048148148148148155,0,0,0.048148148148148155,33.65555555555556,0)" xlink:href="#P"/><use transform="matrix(0.048148148148148155,0,0,0.048148148148148155,37.45925925925926,0)" xlink:href="#ac"/><use transform="matrix(0.048148148148148155,0,0,0.048148148148148155,46.12592592592593,0)" xlink:href="#I"/></g><path d="M33 0v-248h34V0H33" id="av"/><g id="F"><use transform="matrix(0.05,0,0,0.05,0,0)" xlink:href="#av"/><use transform="matrix(0.05,0,0,0.05,5,0)" xlink:href="#L"/><use transform="matrix(0.05,0,0,0.05,15,0)" xlink:href="#O"/><use transform="matrix(0.05,0,0,0.05,24,0)" xlink:href="#J"/><use transform="matrix(0.05,0,0,0.05,34,0)" xlink:href="#R"/><use transform="matrix(0.05,0,0,0.05,43,0)" xlink:href="#I"/><use transform="matrix(0.05,0,0,0.05,48,0)" xlink:href="#Y"/><use transform="matrix(0.05,0,0,0.05,58,0)" xlink:href="#K"/></g></defs></g></svg>