<svg xmlns="http://www.w3.org/2000/svg" xmlns:xlink="http://www.w3.org/1999/xlink" xmlns:lucid="lucid" width="1048" height="1240"><g transform="translate(-12 -40)" lucid:page-tab-id="X.pYIp268Pus"><path d="M0 0h1870.4v1323.2H0z" fill="#fff"/><path d="M180 60h860v1200H180z" stroke="#000" stroke-width="2" fill-opacity="0"/><use xlink:href="#a" transform="matrix(1,0,0,1,188,68) translate(36.01 13.866666666666669)"/><use xlink:href="#b" transform="matrix(1,0,0,1,188,68) translate(228.60259259259246 13.866666666666669)"/><use xlink:href="#c" transform="matrix(1,0,0,1,188,68) translate(302.60629629629614 13.866666666666669)"/><use xlink:href="#d" transform="matrix(1,0,0,1,188,68) translate(349.79148148148136 13.866666666666669)"/><use xlink:href="#e" transform="matrix(1,0,0,1,188,68) translate(0 34.66666666666667)"/><path d="M91.75 279.75c0 10.9-8.84 19.75-19.75 19.75-10.9 0-19.75-8.84-19.75-19.75C52.25 268.85 61.1 260 72 260c10.9 0 19.75 8.84 19.75 19.75z" stroke="#000" stroke-width="2" fill="#fff"/><path d="M72 299.5v55.3l40 63.2m-40-63.2L32 418m0-98.75h80" stroke="#000" stroke-width="2" fill="none"/><path d="M32 260h80v180H32z" fill="none"/><use xlink:href="#f" transform="matrix(1,0,0,1,-48,418) translate(88.025 14.6)"/><path d="M661 500c0 33.14-35.82 60-80 60s-80-26.86-80-60 35.82-60 80-60 80 26.86 80 60z" stroke="#000" stroke-width="2" fill="#fff"/><use xlink:href="#g" transform="matrix(1,0,0,1,501,440) translate(42.05500000000001 36.9)"/><use xlink:href="#h" transform="matrix(1,0,0,1,501,440) translate(92.955 36.9)"/><use xlink:href="#i" transform="matrix(1,0,0,1,501,440) translate(36.105 58.5)"/><use xlink:href="#j" transform="matrix(1,0,0,1,501,440) translate(108.905 58.5)"/><use xlink:href="#k" transform="matrix(1,0,0,1,501,440) translate(44.605000000000004 80.10000000000001)"/><use xlink:href="#l" transform="matrix(1,0,0,1,501,440) translate(54.055 101.70000000000002)"/><path d="M71.94 350.33l427.12 149.34M71.97 350.34l-3.8-1.33" stroke="#000" stroke-width="2" fill="none"/><path d="M500.03 498.95L500 500v.4l.03.67-1.33-.46.66-1.88z"/><path d="M661 661.6c0 33.14-35.82 60-80 60s-80-26.86-80-60 35.82-60 80-60 80 26.86 80 60z" stroke="#000" stroke-width="2" fill="#fff"/><use xlink:href="#g" transform="matrix(1,0,0,1,501,601.5999999999999) translate(42.05500000000001 36.9)"/><use xlink:href="#h" transform="matrix(1,0,0,1,501,601.5999999999999) translate(92.955 36.9)"/><use xlink:href="#m" transform="matrix(1,0,0,1,501,601.5999999999999) translate(33.05499999999999 58.5)"/><use xlink:href="#j" transform="matrix(1,0,0,1,501,601.5999999999999) translate(111.95500000000001 58.5)"/><use xlink:href="#k" transform="matrix(1,0,0,1,501,601.5999999999999) translate(44.605000000000004 80.10000000000001)"/><use xlink:href="#l" transform="matrix(1,0,0,1,501,601.5999999999999) translate(54.055 101.70000000000002)"/><path d="M119.75 549.75c0 10.9-8.84 19.75-19.75 19.75-10.9 0-19.75-8.84-19.75-19.75 0-10.9 8.84-19.75 19.75-19.75 10.9 0 19.75 8.84 19.75 19.75z" stroke="#000" stroke-width="2" fill="#fff"/><path d="M100 569.5v55.3l40 63.2m-40-63.2L60 688m0-98.75h80" stroke="#000" stroke-width="2" fill="none"/><path d="M60 530h80v180H60z" fill="none"/><use xlink:href="#n" transform="matrix(1,0,0,1,-20,688) translate(82.6 14.6)"/><path d="M100 620.1l399 41.4M100.02 620.1l-4-.4" stroke="#000" stroke-width="2" fill="none"/><path d="M500.03 660.6l-.03 1v.4l.03.6-1.15-.1.2-2z"/><path d="M119.75 849.75c0 10.9-8.84 19.75-19.75 19.75-10.9 0-19.75-8.84-19.75-19.75 0-10.9 8.84-19.75 19.75-19.75 10.9 0 19.75 8.84 19.75 19.75z" stroke="#000" stroke-width="2" fill="#fff"/><path d="M100 869.5v55.3l40 63.2m-40-63.2L60 988m0-98.75h80" stroke="#000" stroke-width="2" fill="none"/><path d="M60 830h80v180H60z" fill="none"/><use xlink:href="#o" transform="matrix(1,0,0,1,-20,988) translate(82.525 14.6)"/><path d="M681 880c0 44.18-44.77 80-100 80s-100-35.82-100-80 44.77-80 100-80 100 35.82 100 80zm-200 0h200" stroke="#000" stroke-width="2" fill="#fff"/><use xlink:href="#p" transform="matrix(1,0,0,1,511,816) translate(0.07499999999998863 24.799999999999997)"/><use xlink:href="#q" transform="matrix(1,0,0,1,511,816) translate(49.02499999999999 24.799999999999997)"/><use xlink:href="#r" transform="matrix(1,0,0,1,511,816) translate(119.925 24.799999999999997)"/><use xlink:href="#s" transform="matrix(1,0,0,1,511,816) translate(34.6 46.4)"/><use xlink:href="#t" transform="matrix(1,0,0,1,511,904) translate(35.574999999999996 19.6)"/><use xlink:href="#u" transform="matrix(1,0,0,1,481,880) translate(27.174999999999983 15.6)"/><use xlink:href="#v" transform="matrix(1,0,0,1,481,880) translate(117.975 15.6)"/><path d="M463.33 1040c0 33.14-35.8 60-80 60-44.18 0-80-26.86-80-60s35.82-60 80-60c44.2 0 80 26.86 80 60z" stroke="#000" stroke-width="2" fill="#fff"/><use xlink:href="#w" transform="matrix(1,0,0,1,303.33453646951307,980) translate(10.104999999999999 63.15)"/><use xlink:href="#s" transform="matrix(1,0,0,1,303.33453646951307,980) translate(79.105 63.15)"/><path d="M860 1060c0 33.14-35.82 60-80 60s-80-26.86-80-60 35.82-60 80-60 80 26.86 80 60z" stroke="#000" stroke-width="2" fill="#fff"/><use xlink:href="#x" transform="matrix(1,0,0,1,700,1000) translate(12.154999999999996 63.15)"/><use xlink:href="#s" transform="matrix(1,0,0,1,700,1000) translate(77.055 63.15)"/><path d="M393.75 974.8l-9.07 4.64-.9-1.8 9.06-4.62zm54.42-27.83l-3.62 1.85h-4.4l7.1-3.63zm27.22-13.92l-18.16 9.28-.9-1.78 18.13-9.28zm18.13-9.27l-9.07 4.64-.9-1.78 9.06-4.64z"/><path d="M384.5 979.04l-1.15-.04h-.94l-1.38.06 2.77-1.42zM494.7 922.06l-11.6 18.33-1.7-1.08 9.8-15.47-18.28-1.13.12-2z"/><use xlink:href="#y" transform="matrix(1,0,0,1,368.7335234652393,948.8207153146772) translate(0 14.4)"/><path d="M727.44 1012.46l-6.5-5.9m-6.5-5.87l-13.03-11.8m-6.5-5.87l-13-11.77m-6.52-5.9l-13-11.76m-6.52-5.9l-6.5-5.87" stroke="#000" stroke-width="2" fill="none"/><path d="M729.08 1012.6l-1.62.96-.17.1-.55-.48 1.34-1.48z"/><path d="M669.06 945.92l-19.6-4 5.94 19.1" stroke="#000" stroke-width="2" fill="none"/><path d="M626.67 1025.3L708 943.96l22.33 22.34-81.32 81.33z" fill="#fff" fill-opacity="0"/><use xlink:href="#y" transform="matrix(0.7071067811865476,-0.7071067811865475,0.7071067811865475,0.7071067811865476,633.7401407508917,1025.286352775479) translate(0 14.4)"/><path d="M100 919.9l379-39.8M100.02 919.9l-4 .4" stroke="#000" stroke-width="2" fill="none"/><path d="M480 880v1l-.92.1-.2-2 1.14-.1z"/><path d="M627.13 228.74l-16.24 5.37m-16.26 5.38l-32.48 10.75m-16.24 5.37l-32.5 10.74m-16.23 5.37l-16.25 5.4M613.84 243.86L627 228.78l-19.55-4.26" stroke="#000" stroke-width="2" fill="none"/><path d="M481.1 277.43l-1.1-.03h-.92l-2.2.1-.04-.1 3.82-1.27z"/><path d="M560 338.4c0 33.14-35.82 60-80 60s-80-26.86-80-60 35.82-60 80-60 80 26.86 80 60z" stroke="#000" stroke-width="2" fill="#fff"/><use xlink:href="#z" transform="matrix(1,0,0,1,400,278.4000000000001) translate(41.53 40.65)"/><use xlink:href="#A" transform="matrix(1,0,0,1,400,278.4000000000001) translate(103.48 40.65)"/><use xlink:href="#B" transform="matrix(1,0,0,1,400,278.4000000000001) translate(33.029999999999994 62.25)"/><use xlink:href="#C" transform="matrix(1,0,0,1,400,278.4000000000001) translate(92.98 62.25)"/><use xlink:href="#s" transform="matrix(1,0,0,1,400,278.4000000000001) translate(44.605000000000004 83.85000000000001)"/><path d="M735.03 225.58l18.23 8.1m18.23 8.12l36.45 16.23m18.22 8.1l36.46 16.24m18.23 8.1l18.23 8.12M755.04 223.33l-19.87 2.3 11.6 16.3" stroke="#000" stroke-width="2" fill="none"/><path d="M902.64 299.08L900 299h-1.12l.6-1.33z"/><path d="M980 360c0 33.14-35.82 60-80 60s-80-26.86-80-60 35.82-60 80-60 80 26.86 80 60z" stroke="#000" stroke-width="2" fill="#fff"/><g><use xlink:href="#D" transform="matrix(1,0,0,1,820,300) translate(49.55499999999999 51.9)"/><use xlink:href="#E" transform="matrix(1,0,0,1,820,300) translate(18.154999999999994 73.5)"/><use xlink:href="#F" transform="matrix(1,0,0,1,820,300) translate(93.955 73.5)"/></g><path d="M71.94 349.65l504.62-189.3M71.96 349.64l-3.77 1.4" stroke="#000" stroke-width="2" fill="none"/><path d="M577.5 160v1.06l-.6.24-.7-1.88 1.33-.5z"/><path d="M778.5 160c0 44.18-44.77 80-100 80s-100-35.82-100-80 44.77-80 100-80 100 35.82 100 80zm-200 0h200" stroke="#000" stroke-width="2" fill="#fff"/><g><use xlink:href="#G" transform="matrix(1,0,0,1,608.5,96) translate(1.125 24.799999999999997)"/><use xlink:href="#k" transform="matrix(1,0,0,1,608.5,96) translate(68.075 24.799999999999997)"/><use xlink:href="#H" transform="matrix(1,0,0,1,608.5,96) translate(38.525 46.4)"/></g><g><use xlink:href="#t" transform="matrix(1,0,0,1,608.5,184) translate(35.574999999999996 19.6)"/></g><g><use xlink:href="#u" transform="matrix(1,0,0,1,578.5,160) translate(27.174999999999983 15.6)"/><use xlink:href="#v" transform="matrix(1,0,0,1,578.5,160) translate(117.975 15.6)"/></g><g><path d="M756.34 299.68l81.32-81.32L860 240.7l-81.32 81.32z" fill="#fff" fill-opacity="0"/></g><g><use xlink:href="#y" transform="matrix(0.7071067811865476,-0.7071067811865475,0.7071067811865475,0.7071067811865476,763.4092136899176,299.68003121343526) translate(0 14.4)"/></g><g><path d="M521.37 269.87L632.42 240l8.2 30.52L529.6 300.4z" fill="#fff" fill-opacity="0"/></g><g><use xlink:href="#y" transform="matrix(0.9656740061347153,-0.2597570285396137,0.2597570285396137,0.9656740061347153,527.4967387696996,273.4016431700311) translate(0 14.4)"/></g><path d="M673.7 1175.27l-9.63 4.8-.9-1.78 9.63-4.82zm28.87-14.44l-19.25 9.63-.9-1.8 19.25-9.6zm9.62-4.8l-.9-1.8 3.28-1.64h4.48zm47.62-25.04h-2.04l1.63-.82zm19.73-8.66l-9.62 4.8-.9-1.78 9.63-4.8z"/><path d="M779.53 1122.35l-.7-1.4 1.16.05h.92l1.44-.06zM675.44 1162.86l-9.93 15.38 18.28 1.3-.14 2L662 1180l11.76-18.23z"/><g><use xlink:href="#y" transform="matrix(1,0,0,1,685.9204973875783,1130.989758357661) translate(0 14.4)"/></g><path d="M661 1180c0 33.14-35.82 60-80 60s-80-26.86-80-60 35.82-60 80-60 80 26.86 80 60z" stroke="#000" stroke-width="2" fill="#fff"/><g><use xlink:href="#I" transform="matrix(1,0,0,1,501,1120) translate(12.079999999999993 63.15)"/><use xlink:href="#J" transform="matrix(1,0,0,1,501,1120) translate(77.98 63.15)"/><use xlink:href="#K" transform="matrix(1,0,0,1,501,1120) translate(92.98 63.15)"/></g><defs><path d="M33 0v-248h34V0H33" id="L"/><path d="M117-194c89-4 53 116 60 194h-32v-121c0-31-8-49-39-48C34-167 62-67 57 0H25l-1-190h30c1 10-1 24 2 32 11-22 29-35 61-36" id="M"/><path d="M59-47c-2 24 18 29 38 22v24C64 9 27 4 27-40v-127H5v-23h24l9-43h21v43h35v23H59v120" id="N"/><path d="M100-194c63 0 86 42 84 106H49c0 40 14 67 53 68 26 1 43-12 49-29l28 8c-11 28-37 45-77 45C44 4 14-33 15-96c1-61 26-98 85-98zm52 81c6-60-76-77-97-28-3 7-6 17-6 28h103" id="O"/><path d="M114-163C36-179 61-72 57 0H25l-1-190h30c1 12-1 29 2 39 6-27 23-49 58-41v29" id="P"/><path d="M108 0H70L1-190h34L89-25l56-165h34" id="Q"/><path d="M24-231v-30h32v30H24zM24 0v-190h32V0H24" id="R"/><path d="M206 0h-36l-40-164L89 0H53L-1-190h32L70-26l43-164h34l41 164 42-164h31" id="S"/><g id="b"><use transform="matrix(0.048148148148148155,0,0,0.048148148148148155,0,0)" xlink:href="#L"/><use transform="matrix(0.048148148148148155,0,0,0.048148148148148155,4.814814814814816,0)" xlink:href="#M"/><use transform="matrix(0.048148148148148155,0,0,0.048148148148148155,14.444444444444446,0)" xlink:href="#N"/><use transform="matrix(0.048148148148148155,0,0,0.048148148148148155,19.259259259259263,0)" xlink:href="#O"/><use transform="matrix(0.048148148148148155,0,0,0.048148148148148155,28.888888888888893,0)" xlink:href="#P"/><use transform="matrix(0.048148148148148155,0,0,0.048148148148148155,34.61851851851852,0)" xlink:href="#Q"/><use transform="matrix(0.048148148148148155,0,0,0.048148148148148155,43.285185185185185,0)" xlink:href="#R"/><use transform="matrix(0.048148148148148155,0,0,0.048148148148148155,47.08888888888889,0)" xlink:href="#O"/><use transform="matrix(0.048148148148148155,0,0,0.048148148148148155,56.71851851851853,0)" xlink:href="#S"/></g><path d="M135-143c-3-34-86-38-87 0 15 53 115 12 119 90S17 21 10-45l28-5c4 36 97 45 98 0-10-56-113-15-118-90-4-57 82-63 122-42 12 7 21 19 24 35" id="T"/><path d="M84 4C-5 8 30-112 23-190h32v120c0 31 7 50 39 49 72-2 45-101 50-169h31l1 190h-30c-1-10 1-25-2-33-11 22-28 36-60 37" id="U"/><path d="M115-194c55 1 70 41 70 98S169 2 115 4C84 4 66-9 55-30l1 105H24l-1-265h31l2 30c10-21 28-34 59-34zm-8 174c40 0 45-34 45-75s-6-73-45-74c-42 0-51 32-51 76 0 43 10 73 51 73" id="V"/><g id="c"><use transform="matrix(0.048148148148148155,0,0,0.048148148148148155,0,0)" xlink:href="#T"/><use transform="matrix(0.048148148148148155,0,0,0.048148148148148155,8.666666666666668,0)" xlink:href="#O"/><use transform="matrix(0.048148148148148155,0,0,0.048148148148148155,18.296296296296298,0)" xlink:href="#N"/><use transform="matrix(0.048148148148148155,0,0,0.048148148148148155,23.111111111111114,0)" xlink:href="#U"/><use transform="matrix(0.048148148148148155,0,0,0.048148148148148155,32.74074074074075,0)" xlink:href="#V"/></g><path d="M115-194c53 0 69 39 70 98 0 66-23 100-70 100C84 3 66-7 56-30L54 0H23l1-261h32v101c10-23 28-34 59-34zm-8 174c40 0 45-34 45-75 0-40-5-75-45-74-42 0-51 32-51 76 0 43 10 73 51 73" id="W"/><path d="M179-190L93 31C79 59 56 82 12 73V49c39 6 53-20 64-50L1-190h34L92-34l54-156h33" id="X"/><path d="M210-169c-67 3-38 105-44 169h-31v-121c0-29-5-50-35-48C34-165 62-65 56 0H25l-1-190h30c1 10-1 24 2 32 10-44 99-50 107 0 11-21 27-35 58-36 85-2 47 119 55 194h-31v-121c0-29-5-49-35-48" id="Y"/><g id="d"><use transform="matrix(0.048148148148148155,0,0,0.048148148148148155,0,0)" xlink:href="#T"/><use transform="matrix(0.048148148148148155,0,0,0.048148148148148155,8.666666666666668,0)" xlink:href="#U"/><use transform="matrix(0.048148148148148155,0,0,0.048148148148148155,18.296296296296298,0)" xlink:href="#W"/><use transform="matrix(0.048148148148148155,0,0,0.048148148148148155,27.92592592592593,0)" xlink:href="#T"/><use transform="matrix(0.048148148148148155,0,0,0.048148148148148155,36.592592592592595,0)" xlink:href="#X"/><use transform="matrix(0.048148148148148155,0,0,0.048148148148148155,45.25925925925927,0)" xlink:href="#N"/><use transform="matrix(0.048148148148148155,0,0,0.048148148148148155,50.07407407407408,0)" xlink:href="#O"/><use transform="matrix(0.048148148148148155,0,0,0.048148148148148155,59.70370370370371,0)" xlink:href="#Y"/></g><path d="M100-194c62-1 85 37 85 99 1 63-27 99-86 99S16-35 15-95c0-66 28-99 85-99zM99-20c44 1 53-31 53-75 0-43-8-75-51-75s-53 32-53 75 10 74 51 75" id="Z"/><g id="f"><use transform="matrix(0.05,0,0,0.05,0,0)" xlink:href="#L"/><use transform="matrix(0.05,0,0,0.05,5,0)" xlink:href="#M"/><use transform="matrix(0.05,0,0,0.05,15,0)" xlink:href="#Q"/><use transform="matrix(0.05,0,0,0.05,24,0)" xlink:href="#O"/><use transform="matrix(0.05,0,0,0.05,34,0)" xlink:href="#T"/><use transform="matrix(0.05,0,0,0.05,43,0)" xlink:href="#N"/><use transform="matrix(0.05,0,0,0.05,48,0)" xlink:href="#Z"/><use transform="matrix(0.05,0,0,0.05,58,0)" xlink:href="#P"/></g><path d="M205 0l-28-72H64L36 0H1l101-248h38L239 0h-34zm-38-99l-47-123c-12 45-31 82-46 123h93" id="aa"/><path d="M24 0v-261h32V0H24" id="ab"/><g id="g"><use transform="matrix(0.05,0,0,0.05,0,0)" xlink:href="#aa"/><use transform="matrix(0.05,0,0,0.05,12,0)" xlink:href="#ab"/><use transform="matrix(0.05,0,0,0.05,15.949999999999998,0)" xlink:href="#O"/><use transform="matrix(0.05,0,0,0.05,25.950000000000003,0)" xlink:href="#P"/><use transform="matrix(0.05,0,0,0.05,31.899999999999995,0)" xlink:href="#N"/><use transform="matrix(0.05,0,0,0.05,36.9,0)" xlink:href="#T"/></g><path d="M106-169C34-169 62-67 57 0H25v-261h32l-1 103c12-21 28-36 61-36 89 0 53 116 60 194h-32v-121c2-32-8-49-39-48" id="ac"/><g id="h"><use transform="matrix(0.05,0,0,0.05,0,0)" xlink:href="#N"/><use transform="matrix(0.05,0,0,0.05,5,0)" xlink:href="#ac"/><use transform="matrix(0.05,0,0,0.05,15,0)" xlink:href="#O"/></g><g id="i"><use transform="matrix(0.05,0,0,0.05,0,0)" xlink:href="#P"/><use transform="matrix(0.05,0,0,0.05,5.95,0)" xlink:href="#O"/><use transform="matrix(0.05,0,0,0.05,15.949999999999998,0)" xlink:href="#Q"/><use transform="matrix(0.05,0,0,0.05,24.95,0)" xlink:href="#R"/><use transform="matrix(0.05,0,0,0.05,28.899999999999995,0)" xlink:href="#O"/><use transform="matrix(0.05,0,0,0.05,38.9,0)" xlink:href="#S"/><use transform="matrix(0.05,0,0,0.05,51.85,0)" xlink:href="#O"/><use transform="matrix(0.05,0,0,0.05,61.85,0)" xlink:href="#P"/></g><path d="M101-234c-31-9-42 10-38 44h38v23H63V0H32v-167H5v-23h27c-7-52 17-82 69-68v24" id="ad"/><g id="j"><use transform="matrix(0.05,0,0,0.05,0,0)" xlink:href="#Z"/><use transform="matrix(0.05,0,0,0.05,10,0)" xlink:href="#ad"/></g><g id="k"><use transform="matrix(0.05,0,0,0.05,0,0)" xlink:href="#R"/><use transform="matrix(0.05,0,0,0.05,3.95,0)" xlink:href="#M"/><use transform="matrix(0.05,0,0,0.05,13.949999999999998,0)" xlink:href="#N"/><use transform="matrix(0.05,0,0,0.05,18.95,0)" xlink:href="#O"/><use transform="matrix(0.05,0,0,0.05,28.950000000000003,0)" xlink:href="#P"/><use transform="matrix(0.05,0,0,0.05,34.9,0)" xlink:href="#Q"/><use transform="matrix(0.05,0,0,0.05,43.9,0)" xlink:href="#R"/><use transform="matrix(0.05,0,0,0.05,47.85,0)" xlink:href="#O"/><use transform="matrix(0.05,0,0,0.05,57.85,0)" xlink:href="#S"/></g><path d="M85-194c31 0 48 13 60 33l-1-100h32l1 261h-30c-2-10 0-23-3-31C134-8 116 4 85 4 32 4 16-35 15-94c0-66 23-100 70-100zm9 24c-40 0-46 34-46 75 0 40 6 74 45 74 42 0 51-32 51-76 0-42-9-74-50-73" id="ae"/><path d="M141-36C126-15 110 5 73 4 37 3 15-17 15-53c-1-64 63-63 125-63 3-35-9-54-41-54-24 1-41 7-42 31l-33-3c5-37 33-52 76-52 45 0 72 20 72 64v82c-1 20 7 32 28 27v20c-31 9-61-2-59-35zM48-53c0 20 12 33 32 33 41-3 63-29 60-74-43 2-92-5-92 41" id="af"/><g id="l"><use transform="matrix(0.05,0,0,0.05,0,0)" xlink:href="#ae"/><use transform="matrix(0.05,0,0,0.05,10,0)" xlink:href="#O"/><use transform="matrix(0.05,0,0,0.05,20,0)" xlink:href="#N"/><use transform="matrix(0.05,0,0,0.05,25,0)" xlink:href="#af"/><use transform="matrix(0.05,0,0,0.05,35,0)" xlink:href="#R"/><use transform="matrix(0.05,0,0,0.05,38.95,0)" xlink:href="#ab"/><use transform="matrix(0.05,0,0,0.05,42.900000000000006,0)" xlink:href="#T"/></g><g id="m"><use transform="matrix(0.05,0,0,0.05,0,0)" xlink:href="#R"/><use transform="matrix(0.05,0,0,0.05,3.95,0)" xlink:href="#M"/><use transform="matrix(0.05,0,0,0.05,13.949999999999998,0)" xlink:href="#M"/><use transform="matrix(0.05,0,0,0.05,23.95,0)" xlink:href="#Z"/><use transform="matrix(0.05,0,0,0.05,33.95,0)" xlink:href="#Q"/><use transform="matrix(0.05,0,0,0.05,42.95,0)" xlink:href="#af"/><use transform="matrix(0.05,0,0,0.05,52.95,0)" xlink:href="#N"/><use transform="matrix(0.05,0,0,0.05,57.95,0)" xlink:href="#Z"/><use transform="matrix(0.05,0,0,0.05,67.95,0)" xlink:href="#P"/></g><path d="M233-177c-1 41-23 64-60 70L243 0h-38l-65-103H63V0H30v-248c88 3 205-21 203 71zM63-129c60-2 137 13 137-47 0-61-80-42-137-45v92" id="ag"/><g id="n"><use transform="matrix(0.05,0,0,0.05,0,0)" xlink:href="#ag"/><use transform="matrix(0.05,0,0,0.05,12.950000000000001,0)" xlink:href="#O"/><use transform="matrix(0.05,0,0,0.05,22.950000000000003,0)" xlink:href="#Q"/><use transform="matrix(0.05,0,0,0.05,31.950000000000003,0)" xlink:href="#R"/><use transform="matrix(0.05,0,0,0.05,35.900000000000006,0)" xlink:href="#O"/><use transform="matrix(0.05,0,0,0.05,45.900000000000006,0)" xlink:href="#S"/><use transform="matrix(0.05,0,0,0.05,58.85,0)" xlink:href="#O"/><use transform="matrix(0.05,0,0,0.05,68.85000000000001,0)" xlink:href="#P"/></g><g id="o"><use transform="matrix(0.05,0,0,0.05,0,0)" xlink:href="#L"/><use transform="matrix(0.05,0,0,0.05,5,0)" xlink:href="#M"/><use transform="matrix(0.05,0,0,0.05,15,0)" xlink:href="#M"/><use transform="matrix(0.05,0,0,0.05,25,0)" xlink:href="#Z"/><use transform="matrix(0.05,0,0,0.05,35,0)" xlink:href="#Q"/><use transform="matrix(0.05,0,0,0.05,44,0)" xlink:href="#af"/><use transform="matrix(0.05,0,0,0.05,54,0)" xlink:href="#N"/><use transform="matrix(0.05,0,0,0.05,59,0)" xlink:href="#Z"/><use transform="matrix(0.05,0,0,0.05,69,0)" xlink:href="#P"/></g><path d="M240 0l2-218c-23 76-54 145-80 218h-23L58-218 59 0H30v-248h44l77 211c21-75 51-140 76-211h43V0h-30" id="ah"/><path d="M143 0L79-87 56-68V0H24v-261h32v163l83-92h37l-77 82L181 0h-38" id="ai"/><g id="p"><use transform="matrix(0.05,0,0,0.05,0,0)" xlink:href="#ah"/><use transform="matrix(0.05,0,0,0.05,14.950000000000001,0)" xlink:href="#af"/><use transform="matrix(0.05,0,0,0.05,24.950000000000003,0)" xlink:href="#ai"/><use transform="matrix(0.05,0,0,0.05,33.95,0)" xlink:href="#O"/></g><path d="M96-169c-40 0-48 33-48 73s9 75 48 75c24 0 41-14 43-38l32 2c-6 37-31 61-74 61-59 0-76-41-82-99-10-93 101-131 147-64 4 7 5 14 7 22l-32 3c-4-21-16-35-41-35" id="aj"/><g id="q"><use transform="matrix(0.05,0,0,0.05,0,0)" xlink:href="#ae"/><use transform="matrix(0.05,0,0,0.05,10,0)" xlink:href="#O"/><use transform="matrix(0.05,0,0,0.05,20,0)" xlink:href="#aj"/><use transform="matrix(0.05,0,0,0.05,29,0)" xlink:href="#R"/><use transform="matrix(0.05,0,0,0.05,32.95,0)" xlink:href="#T"/><use transform="matrix(0.05,0,0,0.05,41.95,0)" xlink:href="#R"/><use transform="matrix(0.05,0,0,0.05,45.900000000000006,0)" xlink:href="#Z"/><use transform="matrix(0.05,0,0,0.05,55.900000000000006,0)" xlink:href="#M"/></g><g id="r"><use transform="matrix(0.05,0,0,0.05,0,0)" xlink:href="#Z"/><use transform="matrix(0.05,0,0,0.05,10,0)" xlink:href="#M"/></g><g id="s"><use transform="matrix(0.05,0,0,0.05,0,0)" xlink:href="#R"/><use transform="matrix(0.05,0,0,0.05,3.95,0)" xlink:href="#M"/><use transform="matrix(0.05,0,0,0.05,13.949999999999998,0)" xlink:href="#N"/><use transform="matrix(0.05,0,0,0.05,18.95,0)" xlink:href="#O"/><use transform="matrix(0.05,0,0,0.05,28.950000000000003,0)" xlink:href="#P"/><use transform="matrix(0.05,0,0,0.05,34.9,0)" xlink:href="#Q"/><use transform="matrix(0.05,0,0,0.05,43.9,0)" xlink:href="#R"/><use transform="matrix(0.05,0,0,0.05,47.85,0)" xlink:href="#O"/><use transform="matrix(0.05,0,0,0.05,57.85,0)" xlink:href="#S"/></g><path d="M30-248c118-7 216 8 213 122C240-48 200 0 122 0H30v-248zM63-27c89 8 146-16 146-99s-60-101-146-95v194" id="ak"/><g id="t"><use transform="matrix(0.05,0,0,0.05,0,0)" xlink:href="#ak"/><use transform="matrix(0.05,0,0,0.05,12.950000000000001,0)" xlink:href="#O"/><use transform="matrix(0.05,0,0,0.05,22.950000000000003,0)" xlink:href="#aj"/><use transform="matrix(0.05,0,0,0.05,31.950000000000003,0)" xlink:href="#R"/><use transform="matrix(0.05,0,0,0.05,35.900000000000006,0)" xlink:href="#T"/><use transform="matrix(0.05,0,0,0.05,44.900000000000006,0)" xlink:href="#R"/><use transform="matrix(0.05,0,0,0.05,48.85000000000001,0)" xlink:href="#Z"/><use transform="matrix(0.05,0,0,0.05,58.85,0)" xlink:href="#M"/></g><path d="M24 0v-248h195v40H76v63h132v40H76v65h150V0H24" id="al"/><path d="M144 0l-44-69L55 0H2l70-98-66-92h53l41 62 40-62h54l-67 91 71 99h-54" id="am"/><path d="M115-3C79 11 28 4 28-45v-112H4v-33h27l15-45h31v45h36v33H77v99c-1 23 16 31 38 25v30" id="an"/><path d="M185-48c-13 30-37 53-82 52C43 2 14-33 14-96s30-98 90-98c62 0 83 45 84 108H66c0 31 8 55 39 56 18 0 30-7 34-22zm-45-69c5-46-57-63-70-21-2 6-4 13-4 21h74" id="ao"/><path d="M135-194c87-1 58 113 63 194h-50c-7-57 23-157-34-157-59 0-34 97-39 157H25l-1-190h47c2 12-1 28 3 38 12-26 28-41 61-42" id="ap"/><path d="M137-138c1-29-70-34-71-4 15 46 118 7 119 86 1 83-164 76-172 9l43-7c4 19 20 25 44 25 33 8 57-30 24-41C81-84 22-81 20-136c-2-80 154-74 161-7" id="aq"/><path d="M25-224v-37h50v37H25zM25 0v-190h50V0H25" id="ar"/><path d="M110-194c64 0 96 36 96 99 0 64-35 99-97 99-61 0-95-36-95-99 0-62 34-99 96-99zm-1 164c35 0 45-28 45-65 0-40-10-65-43-65-34 0-45 26-45 65 0 36 10 65 43 65" id="as"/><g id="u"><use transform="matrix(0.05,0,0,0.05,0,0)" xlink:href="#al"/><use transform="matrix(0.05,0,0,0.05,12,0)" xlink:href="#am"/><use transform="matrix(0.05,0,0,0.05,22,0)" xlink:href="#an"/><use transform="matrix(0.05,0,0,0.05,27.950000000000003,0)" xlink:href="#ao"/><use transform="matrix(0.05,0,0,0.05,37.95,0)" xlink:href="#ap"/><use transform="matrix(0.05,0,0,0.05,48.900000000000006,0)" xlink:href="#aq"/><use transform="matrix(0.05,0,0,0.05,58.900000000000006,0)" xlink:href="#ar"/><use transform="matrix(0.05,0,0,0.05,63.900000000000006,0)" xlink:href="#as"/><use transform="matrix(0.05,0,0,0.05,74.85000000000001,0)" xlink:href="#ap"/></g><path d="M24-248c93 1 206-16 204 79-1 75-69 88-152 82V0H24v-248zm52 121c47 0 100 7 100-41 0-47-54-39-100-39v80" id="at"/><g id="v"><use transform="matrix(0.05,0,0,0.05,0,0)" xlink:href="#at"/><use transform="matrix(0.05,0,0,0.05,12,0)" xlink:href="#as"/><use transform="matrix(0.05,0,0,0.05,22.950000000000003,0)" xlink:href="#ar"/><use transform="matrix(0.05,0,0,0.05,27.950000000000003,0)" xlink:href="#ap"/><use transform="matrix(0.05,0,0,0.05,38.900000000000006,0)" xlink:href="#an"/><use transform="matrix(0.05,0,0,0.05,44.85000000000001,0)" xlink:href="#aq"/></g><g id="w"><use transform="matrix(0.05,0,0,0.05,0,0)" xlink:href="#aa"/><use transform="matrix(0.05,0,0,0.05,12,0)" xlink:href="#aj"/><use transform="matrix(0.05,0,0,0.05,21,0)" xlink:href="#aj"/><use transform="matrix(0.05,0,0,0.05,30,0)" xlink:href="#O"/><use transform="matrix(0.05,0,0,0.05,40,0)" xlink:href="#V"/><use transform="matrix(0.05,0,0,0.05,50,0)" xlink:href="#N"/><use transform="matrix(0.05,0,0,0.05,55,0)" xlink:href="#T"/></g><path d="M24-231v-30h32v30H24zM-9 49c24 4 33-6 33-30v-209h32V24c2 40-23 58-65 49V49" id="au"/><g id="x"><use transform="matrix(0.05,0,0,0.05,0,0)" xlink:href="#ag"/><use transform="matrix(0.05,0,0,0.05,12.950000000000001,0)" xlink:href="#O"/><use transform="matrix(0.05,0,0,0.05,22.950000000000003,0)" xlink:href="#au"/><use transform="matrix(0.05,0,0,0.05,26.900000000000002,0)" xlink:href="#O"/><use transform="matrix(0.05,0,0,0.05,36.900000000000006,0)" xlink:href="#aj"/><use transform="matrix(0.05,0,0,0.05,45.900000000000006,0)" xlink:href="#N"/><use transform="matrix(0.05,0,0,0.05,50.900000000000006,0)" xlink:href="#T"/></g><path d="M18-100v-36l175-74v27L42-118l151 64v27" id="av"/><path d="M141 0L90-78 38 0H4l68-98-65-92h35l48 74 47-74h35l-64 92 68 98h-35" id="aw"/><path d="M18-27v-27l151-64-151-65v-27l175 74v36" id="ax"/><g id="y"><use transform="matrix(0.05,0,0,0.05,0,0)" xlink:href="#av"/><use transform="matrix(0.05,0,0,0.05,10.5,0)" xlink:href="#av"/><use transform="matrix(0.05,0,0,0.05,21,0)" xlink:href="#O"/><use transform="matrix(0.05,0,0,0.05,31,0)" xlink:href="#aw"/><use transform="matrix(0.05,0,0,0.05,40,0)" xlink:href="#N"/><use transform="matrix(0.05,0,0,0.05,45,0)" xlink:href="#O"/><use transform="matrix(0.05,0,0,0.05,55,0)" xlink:href="#M"/><use transform="matrix(0.05,0,0,0.05,65,0)" xlink:href="#ae"/><use transform="matrix(0.05,0,0,0.05,75,0)" xlink:href="#T"/><use transform="matrix(0.05,0,0,0.05,84,0)" xlink:href="#ax"/><use transform="matrix(0.05,0,0,0.05,94.5,0)" xlink:href="#ax"/></g><path d="M30-248c87 1 191-15 191 75 0 78-77 80-158 76V0H30v-248zm33 125c57 0 124 11 124-50 0-59-68-47-124-48v98" id="ay"/><g id="z"><use transform="matrix(0.05,0,0,0.05,0,0)" xlink:href="#ay"/><use transform="matrix(0.05,0,0,0.05,12,0)" xlink:href="#O"/><use transform="matrix(0.05,0,0,0.05,22,0)" xlink:href="#P"/><use transform="matrix(0.05,0,0,0.05,27.950000000000003,0)" xlink:href="#T"/><use transform="matrix(0.05,0,0,0.05,36.95,0)" xlink:href="#Z"/><use transform="matrix(0.05,0,0,0.05,46.95,0)" xlink:href="#M"/></g><g id="A"><use transform="matrix(0.05,0,0,0.05,0,0)" xlink:href="#N"/><use transform="matrix(0.05,0,0,0.05,5,0)" xlink:href="#Z"/></g><g id="B"><use transform="matrix(0.05,0,0,0.05,0,0)" xlink:href="#V"/><use transform="matrix(0.05,0,0,0.05,10,0)" xlink:href="#O"/><use transform="matrix(0.05,0,0,0.05,20,0)" xlink:href="#P"/><use transform="matrix(0.05,0,0,0.05,25.950000000000003,0)" xlink:href="#T"/><use transform="matrix(0.05,0,0,0.05,34.95,0)" xlink:href="#Z"/><use transform="matrix(0.05,0,0,0.05,44.95,0)" xlink:href="#M"/></g><g id="C"><use transform="matrix(0.05,0,0,0.05,0,0)" xlink:href="#N"/><use transform="matrix(0.05,0,0,0.05,5,0)" xlink:href="#X"/><use transform="matrix(0.05,0,0,0.05,14,0)" xlink:href="#V"/><use transform="matrix(0.05,0,0,0.05,24,0)" xlink:href="#O"/></g><path d="M197 0v-115H63V0H30v-248h33v105h134v-105h34V0h-34" id="az"/><path d="M177-190C167-65 218 103 67 71c-23-6-38-20-44-43l32-5c15 47 100 32 89-28v-30C133-14 115 1 83 1 29 1 15-40 15-95c0-56 16-97 71-98 29-1 48 16 59 35 1-10 0-23 2-32h30zM94-22c36 0 50-32 50-73 0-42-14-75-50-75-39 0-46 34-46 75s6 73 46 73" id="aA"/><g id="D"><use transform="matrix(0.05,0,0,0.05,0,0)" xlink:href="#az"/><use transform="matrix(0.05,0,0,0.05,12.950000000000001,0)" xlink:href="#Z"/><use transform="matrix(0.05,0,0,0.05,22.950000000000003,0)" xlink:href="#T"/><use transform="matrix(0.05,0,0,0.05,31.950000000000003,0)" xlink:href="#N"/><use transform="matrix(0.05,0,0,0.05,36.95,0)" xlink:href="#R"/><use transform="matrix(0.05,0,0,0.05,40.900000000000006,0)" xlink:href="#M"/><use transform="matrix(0.05,0,0,0.05,50.900000000000006,0)" xlink:href="#aA"/></g><g id="E"><use transform="matrix(0.05,0,0,0.05,0,0)" xlink:href="#R"/><use transform="matrix(0.05,0,0,0.05,3.95,0)" xlink:href="#M"/><use transform="matrix(0.05,0,0,0.05,13.949999999999998,0)" xlink:href="#N"/><use transform="matrix(0.05,0,0,0.05,18.95,0)" xlink:href="#O"/><use transform="matrix(0.05,0,0,0.05,28.950000000000003,0)" xlink:href="#P"/><use transform="matrix(0.05,0,0,0.05,34.9,0)" xlink:href="#Q"/><use transform="matrix(0.05,0,0,0.05,43.9,0)" xlink:href="#R"/><use transform="matrix(0.05,0,0,0.05,47.85,0)" xlink:href="#O"/><use transform="matrix(0.05,0,0,0.05,57.85,0)" xlink:href="#S"/></g><g id="F"><use transform="matrix(0.05,0,0,0.05,0,0)" xlink:href="#Z"/><use transform="matrix(0.05,0,0,0.05,10,0)" xlink:href="#M"/><use transform="matrix(0.05,0,0,0.05,20,0)" xlink:href="#ab"/><use transform="matrix(0.05,0,0,0.05,23.95,0)" xlink:href="#R"/><use transform="matrix(0.05,0,0,0.05,27.899999999999995,0)" xlink:href="#M"/><use transform="matrix(0.05,0,0,0.05,37.9,0)" xlink:href="#O"/></g><path d="M212-179c-10-28-35-45-73-45-59 0-87 40-87 99 0 60 29 101 89 101 43 0 62-24 78-52l27 14C228-24 195 4 139 4 59 4 22-46 18-125c-6-104 99-153 187-111 19 9 31 26 39 46" id="aB"/><g id="G"><use transform="matrix(0.05,0,0,0.05,0,0)" xlink:href="#aB"/><use transform="matrix(0.05,0,0,0.05,12.950000000000001,0)" xlink:href="#ac"/><use transform="matrix(0.05,0,0,0.05,22.950000000000003,0)" xlink:href="#Z"/><use transform="matrix(0.05,0,0,0.05,32.95,0)" xlink:href="#Z"/><use transform="matrix(0.05,0,0,0.05,42.95,0)" xlink:href="#T"/><use transform="matrix(0.05,0,0,0.05,51.95,0)" xlink:href="#O"/></g><g id="H"><use transform="matrix(0.05,0,0,0.05,0,0)" xlink:href="#V"/><use transform="matrix(0.05,0,0,0.05,10,0)" xlink:href="#P"/><use transform="matrix(0.05,0,0,0.05,15.949999999999998,0)" xlink:href="#Z"/><use transform="matrix(0.05,0,0,0.05,25.950000000000003,0)" xlink:href="#aj"/><use transform="matrix(0.05,0,0,0.05,34.95,0)" xlink:href="#O"/><use transform="matrix(0.05,0,0,0.05,44.95,0)" xlink:href="#T"/><use transform="matrix(0.05,0,0,0.05,53.95,0)" xlink:href="#T"/></g><g id="I"><use transform="matrix(0.05,0,0,0.05,0,0)" xlink:href="#ay"/><use transform="matrix(0.05,0,0,0.05,12,0)" xlink:href="#P"/><use transform="matrix(0.05,0,0,0.05,17.95,0)" xlink:href="#Z"/><use transform="matrix(0.05,0,0,0.05,27.950000000000003,0)" xlink:href="#Q"/><use transform="matrix(0.05,0,0,0.05,36.95,0)" xlink:href="#R"/><use transform="matrix(0.05,0,0,0.05,40.900000000000006,0)" xlink:href="#ae"/><use transform="matrix(0.05,0,0,0.05,50.900000000000006,0)" xlink:href="#O"/></g><use transform="matrix(0.05,0,0,0.05,0,0)" xlink:href="#af" id="J"/><g id="K"><use transform="matrix(0.05,0,0,0.05,0,0)" xlink:href="#P"/><use transform="matrix(0.05,0,0,0.05,5.95,0)" xlink:href="#O"/><use transform="matrix(0.05,0,0,0.05,15.949999999999998,0)" xlink:href="#af"/><use transform="matrix(0.05,0,0,0.05,25.950000000000003,0)" xlink:href="#T"/><use transform="matrix(0.05,0,0,0.05,34.95,0)" xlink:href="#Z"/><use transform="matrix(0.05,0,0,0.05,44.95,0)" xlink:href="#M"/></g></defs></g></svg>