<svg xmlns="http://www.w3.org/2000/svg" xmlns:xlink="http://www.w3.org/1999/xlink" xmlns:lucid="lucid" width="1400" height="1180"><g transform="translate(-300 -20)" lucid:page-tab-id="MfAV2uzJvdWI"><path d="M0 0h1870.4v1323.2H0z" fill="#fff"/><path d="M599.75 479.75c0 10.9-8.84 19.75-19.75 19.75-10.9 0-19.75-8.84-19.75-19.75 0-10.9 8.84-19.75 19.75-19.75 10.9 0 19.75 8.84 19.75 19.75z" stroke="#000" stroke-width="2" fill="#fff"/><path d="M580 499.5v55.3l40 63.2m-40-63.2L540 618m0-98.75h80" stroke="#000" stroke-width="2" fill="none"/><path d="M540 460h80v180h-80z" fill="none"/><use xlink:href="#a" transform="matrix(1,0,0,1,460,618) translate(88.025 14.6)"/><path d="M660 40h1020v1140H660z" stroke="#000" stroke-width="2" fill-opacity="0"/><use xlink:href="#b" transform="matrix(1,0,0,1,668,48) translate(426.6 15.6)"/><path d="M940 520c0 33.14-35.82 60-80 60s-80-26.86-80-60 35.82-60 80-60 80 26.86 80 60z" stroke="#000" stroke-width="2" fill="#fff"/><use xlink:href="#c" transform="matrix(1,0,0,1,780,460) translate(28.305 51.9)"/><use xlink:href="#d" transform="matrix(1,0,0,1,780,460) translate(71.855 51.9)"/><use xlink:href="#e" transform="matrix(1,0,0,1,780,460) translate(14.255000000000004 73.5)"/><use xlink:href="#f" transform="matrix(1,0,0,1,780,460) translate(57.205000000000005 73.5)"/><use xlink:href="#g" transform="matrix(1,0,0,1,780,460) translate(110.155 73.5)"/><path d="M980 140c0 33.14-35.82 60-80 60s-80-26.86-80-60 35.82-60 80-60 80 26.86 80 60z" stroke="#000" stroke-width="2" fill="#fff"/><use xlink:href="#h" transform="matrix(1,0,0,1,820,80) translate(20.054999999999986 51.9)"/><use xlink:href="#i" transform="matrix(1,0,0,1,820,80) translate(92.005 51.9)"/><use xlink:href="#j" transform="matrix(1,0,0,1,820,80) translate(26.779999999999994 73.5)"/><use xlink:href="#k" transform="matrix(1,0,0,1,820,80) translate(76.72999999999999 73.5)"/><path d="M1620 640c0 33.14-35.82 60-80 60s-80-26.86-80-60 35.82-60 80-60 80 26.86 80 60z" stroke="#000" stroke-width="2" fill="#fff"/><use xlink:href="#l" transform="matrix(1,0,0,1,1460,580) translate(27.754999999999992 40.65)"/><use xlink:href="#m" transform="matrix(1,0,0,1,1460,580) translate(96.655 40.65)"/><use xlink:href="#n" transform="matrix(1,0,0,1,1460,580) translate(16.054999999999986 62.25)"/><use xlink:href="#i" transform="matrix(1,0,0,1,1460,580) translate(96.005 62.25)"/><use xlink:href="#o" transform="matrix(1,0,0,1,1460,580) translate(53.03 83.85000000000001)"/><path d="M1114.8 930c0 49.7-43.6 90-97.4 90-53.8 0-97.4-40.3-97.4-90s43.6-90 97.4-90c53.8 0 97.4 40.3 97.4 90zM920 930h194.8" stroke="#000" stroke-width="2" fill="#fff"/><use xlink:href="#p" transform="matrix(1,0,0,1,949.22,858) translate(19.574999999999996 18)"/><use xlink:href="#q" transform="matrix(1,0,0,1,949.22,858) translate(68.525 18)"/><use xlink:href="#r" transform="matrix(1,0,0,1,949.22,858) translate(25.049999999999997 39.6)"/><use xlink:href="#s" transform="matrix(1,0,0,1,949.22,858) translate(35.55 61.2)"/><use xlink:href="#t" transform="matrix(1,0,0,1,949.22,954) translate(34.074999999999996 23.1)"/><use xlink:href="#u" transform="matrix(1,0,0,1,920,930) translate(24.674999999999983 15.6)"/><use xlink:href="#v" transform="matrix(1,0,0,1,920,930) translate(115.475 15.6)"/><path d="M582 538.77l196-18.68M582.02 538.77l-4 .38" stroke="#000" stroke-width="2" fill="none"/><path d="M779 520v.4l.03.6-.96.1-.2-2 1.16-.1z"/><path d="M379.75 449.75c0 10.9-8.84 19.75-19.75 19.75-10.9 0-19.75-8.84-19.75-19.75 0-10.9 8.84-19.75 19.75-19.75 10.9 0 19.75 8.84 19.75 19.75z" stroke="#000" stroke-width="2" fill="#fff"/><path d="M360 469.5v55.3l40 63.2m-40-63.2L320 588m0-98.75h80" stroke="#000" stroke-width="2" fill="none"/><path d="M320 430h80v180h-80z" fill="none"/><use xlink:href="#w" transform="matrix(1,0,0,1,240,588) translate(82.525 14.6)"/><path d="M359.77 519.36l458.46-378.72M359.8 519.35l-3.1 2.56" stroke="#000" stroke-width="2" fill="none"/><path d="M819 140v.4l.04.87-.2.15-1.27-1.54 1.47-1.2z"/><path d="M1320 198.4c0 32.25-31.34 58.4-70 58.4s-70-26.15-70-58.4 31.34-58.4 70-58.4 70 26.15 70 58.4z" stroke="#000" stroke-width="2" fill="#fff"/><use xlink:href="#x" transform="matrix(1,0,0,1,1180,140) translate(35.029999999999994 50.9625)"/><use xlink:href="#f" transform="matrix(1,0,0,1,1180,140) translate(25.729999999999997 72.5625)"/><use xlink:href="#m" transform="matrix(1,0,0,1,1180,140) translate(78.68 72.5625)"/><path d="M1178.86 206.12L360.3 520.57l-.73-1.86 818.57-314.45z"/><path d="M1179.5 205.54l.06.3-.73.28-.72-1.86 1.22-.47zM360.32 520.57l-3.76 1.44-.72-1.86 3.76-1.44z"/><path d="M860 1080c0 33.14-35.82 60-80 60s-80-26.86-80-60 35.82-60 80-60 80 26.86 80 60z" stroke="#000" stroke-width="2" fill="#fff"/><use xlink:href="#y" transform="matrix(1,0,0,1,700,1020) translate(35.004999999999995 51.9)"/><use xlink:href="#z" transform="matrix(1,0,0,1,700,1020) translate(95.005 51.9)"/><use xlink:href="#A" transform="matrix(1,0,0,1,700,1020) translate(39.555 73.5)"/><use xlink:href="#B" transform="matrix(1,0,0,1,700,1020) translate(86.505 73.5)"/><path d="M1380 1100c0 33.14-35.82 60-80 60s-80-26.86-80-60 35.82-60 80-60 80 26.86 80 60z" stroke="#000" stroke-width="2" fill="#fff"/><use xlink:href="#C" transform="matrix(1,0,0,1,1220,1040) translate(35.07999999999999 63.15)"/><use xlink:href="#B" transform="matrix(1,0,0,1,1220,1040) translate(90.97999999999999 63.15)"/><path d="M1272.6 1041.13l-1.18 1.63-8.6-6.16 1.17-1.63zm-17.2-12.32l-1.17 1.64-17.2-12.32 1.17-1.63zm-25.8-18.47l-1.16 1.63-17.2-12.32 1.17-1.63zm-25.78-18.48l-1.17 1.63-3.5-2.5h3.45zm-31.36-22.48h-3.44l-9.35-6.7 1.17-1.62zm-20.22-14.48l-1.16 1.6-17.2-12.3 1.17-1.63zm-25.78-18.5l-1.17 1.63-8.6-6.16 1.16-1.62z"/><path d="M1137.4 931.9l-.17 2-18.24-1.6 7.37 16.74-1.83.8-8.74-19.84zM1274.1 1042.2l-.94.23-1.56.46-.2-.16 1.16-1.62z"/><use xlink:href="#D" transform="matrix(1,0,0,1,1131.8603281320572,969.3738851706786) translate(0 14.4)"/><path d="M833.35 1020.8l-7.74 8.08-1.43-1.4 7.74-8.06zm23.2-24.2l-15.46 16.13-1.46-1.38 15.24-15.9h.5zm23.23-24.23l-1.43 1.48h-2.77l2.75-2.87zm23.2-24.22l-15.47 16.14-1.43-1.4 15.47-16.13zM918.47 932l-7.73 8.08-1.45-1.4 7.74-8.06z"/><path d="M914.05 951.12l-1.95-.46 4.18-17.82-17.63 4.92-.54-1.92L919 930zM825.63 1028.86l-.5.52-1.86-.95.92-.96z"/><use xlink:href="#E" transform="matrix(1,0,0,1,817.167291639634,973.8511897896994) translate(0 14.4)"/><path d="M927.14 891.43l-567.3-370.88" stroke="#000" stroke-width="2" fill="none"/><path d="M928.45 891.1l-.47.87-.43.92-.98-.65 1.1-1.67z"/><path d="M359.86 520.56l-3.37-2.2M944.96 867.04l-363.22-326.7" stroke="#000" stroke-width="2" fill="none"/><path d="M946.42 867l-1.43 1.4-.73-.63 1.34-1.5z"/><path d="M581.76 540.35l-3-2.7" stroke="#000" stroke-width="2" fill="none"/><path d="M1189.4 231.3L582.35 540.1l-.9-1.78 607.06-308.8z"/><path d="M1189.77 229.87l.72.9-1.12.55-.9-1.78.78-.4zM582.37 540.1l-3.6 1.8-.9-1.77 3.6-1.83zM1527.7 578.4l-1.7 1.07-5.2-8.2 1.7-1.07zm-10.4-16.4l-1.7 1.08-10.4-16.4 1.7-1.06zm-15.6-24.58l-1.7 1.08-10.4-16.4 1.7-1.06zm-15.6-24.58l-1.7 1.07-10.4-16.37 1.7-1.08zm-15.6-24.58l-1.7 1.07-10.4-16.4 1.7-1.06zm-15.6-24.58l-1.68 1.07-10.4-16.4 1.7-1.06zm-15.6-24.58l-1.68 1.07-10.4-16.4 1.7-1.06zm-31.2-49.17l-1.68 1.07-10.4-16.38 1.7-1.08zm-15.6-24.58l-1.67 1.07-10.4-16.4 1.7-1.06zm-15.58-24.58l-1.7 1.07-10.4-16.4 1.7-1.06zm-15.6-24.58l-1.7 1.06-10.4-16.4 1.7-1.06zm-15.6-24.6l-1.7 1.08-10.38-16.4 1.68-1.06zm-15.6-24.58l-1.68 1.07-10.4-16.4 1.7-1.07zm-15.6-24.58l-1.68 1.07-5.2-8.18 1.7-1.07z"/><path d="M1326.84 243.1l-.9 1.78-16.32-8.32.57 18.3-2 .07-.7-21.68zM1528.5 579.66l-2.23.23-.28-.46 1.68-1.07z"/><g><use xlink:href="#F" transform="matrix(1,0,0,1,1358.996902746276,395.71067537113305) translate(0 14.4)"/></g><path d="M1180 661.6c0 33.14-35.82 60-80 60s-80-26.86-80-60 35.82-60 80-60 80 26.86 80 60z" stroke="#000" stroke-width="2" fill="#fff"/><g><use xlink:href="#G" transform="matrix(1,0,0,1,1020,601.5999999999999) translate(52.504999999999995 40.65)"/><use xlink:href="#n" transform="matrix(1,0,0,1,1020,601.5999999999999) translate(16.054999999999986 62.25)"/><use xlink:href="#i" transform="matrix(1,0,0,1,1020,601.5999999999999) translate(96.005 62.25)"/><use xlink:href="#o" transform="matrix(1,0,0,1,1020,601.5999999999999) translate(53.03 83.85000000000001)"/></g><path d="M1103.92 589.9l-2.7 10-1.93-.53 2.7-9.98zm8.07-29.94l-5.4 19.97-1.92-.52 5.38-19.96zm8.07-29.95l-5.4 19.98-1.92-.52 5.4-19.97zm8.07-29.94l-5.38 19.97-1.93-.52 5.38-19.96zm8.08-29.95l-5.38 19.98-1.94-.53 5.4-19.96zm8.07-29.94l-5.4 19.96-1.92-.52 5.38-19.96zm8.07-29.95l-5.38 19.97-1.94-.52 5.38-19.96zm2.7-9.98l-1.94-.52 1.2-4.4h2.06zm13.45-49.9l-5.38 19.95-1.93-.52 5.4-19.96zm8.08-29.96l-5.4 19.96-1.92-.52 5.38-19.97zm8.07-29.96l-5.38 19.97-1.94-.52 5.38-19.97zm8.08-29.95l-5.4 19.97-1.92-.52 5.4-19.97zm5.38-19.96l-2.7 9.97-1.92-.52 2.7-9.98z"/><path d="M1203.44 259.37l-1.93.54-4.88-17.64-13.1 12.8-1.4-1.44 15.52-15.15zM1101.23 599.87l-.2.76-1.02-.03h-1.04l.34-1.25z"/><g><use xlink:href="#D" transform="matrix(1,0,0,1,1104.3182454041362,373.6891211672867) translate(0 14.4)"/></g><path d="M1400 661.6c0 33.14-35.82 60-80 60s-80-26.86-80-60 35.82-60 80-60 80 26.86 80 60z" stroke="#000" stroke-width="2" fill="#fff"/><g><use xlink:href="#H" transform="matrix(1,0,0,1,1240,601.5999999999999) translate(54.55499999999999 40.65)"/><use xlink:href="#n" transform="matrix(1,0,0,1,1240,601.5999999999999) translate(16.054999999999986 62.25)"/><use xlink:href="#i" transform="matrix(1,0,0,1,1240,601.5999999999999) translate(96.005 62.25)"/><use xlink:href="#o" transform="matrix(1,0,0,1,1240,601.5999999999999) translate(53.03 83.85000000000001)"/></g><path d="M1313.4 599.7l-1.96.36-1.73-9.46 1.98-.36zm-3.45-18.9l-1.96.35-3.46-18.9 1.96-.36zm-5.17-28.37l-1.97.36-3.44-18.9 1.97-.37zm-5.17-28.35l-1.96.36-3.45-18.9 1.96-.37zm-5.17-28.36l-1.97.36-3.45-18.9 1.98-.37zm-5.17-28.36l-1.97.36-3.46-18.9 1.97-.36zm-5.18-28.35l-1.97.36-3.44-18.9 1.97-.36zm-5.17-28.35l-1.96.36-3.45-18.9 1.96-.36zm-7.6-41.68h-2.03l-.95-5.22 1.96-.36zm-2.74-15.04l-1.97.36-3.46-18.9 1.97-.37zm-5.18-28.35l-1.96.36-3.45-18.9 1.96-.37zm-5.17-28.36l-1.96.36-3.45-18.9 1.96-.37zm-5.17-28.36l-1.96.36-1.73-9.45 1.97-.36z"/><path d="M1264.2 274.2l-1.5 1.3-12-13.83-6.33 17.17-1.88-.7 7.5-20.34zM1313.6 600.82l-1.3.05-.7.07-.17-.9 1.97-.37z"/><g><use xlink:href="#D" transform="matrix(1,0,0,1,1218.3061134523034,368.96790981828315) translate(0 14.4)"/></g><defs><path d="M33 0v-248h34V0H33" id="I"/><path d="M117-194c89-4 53 116 60 194h-32v-121c0-31-8-49-39-48C34-167 62-67 57 0H25l-1-190h30c1 10-1 24 2 32 11-22 29-35 61-36" id="J"/><path d="M108 0H70L1-190h34L89-25l56-165h34" id="K"/><path d="M100-194c63 0 86 42 84 106H49c0 40 14 67 53 68 26 1 43-12 49-29l28 8c-11 28-37 45-77 45C44 4 14-33 15-96c1-61 26-98 85-98zm52 81c6-60-76-77-97-28-3 7-6 17-6 28h103" id="L"/><path d="M135-143c-3-34-86-38-87 0 15 53 115 12 119 90S17 21 10-45l28-5c4 36 97 45 98 0-10-56-113-15-118-90-4-57 82-63 122-42 12 7 21 19 24 35" id="M"/><path d="M59-47c-2 24 18 29 38 22v24C64 9 27 4 27-40v-127H5v-23h24l9-43h21v43h35v23H59v120" id="N"/><path d="M100-194c62-1 85 37 85 99 1 63-27 99-86 99S16-35 15-95c0-66 28-99 85-99zM99-20c44 1 53-31 53-75 0-43-8-75-51-75s-53 32-53 75 10 74 51 75" id="O"/><path d="M114-163C36-179 61-72 57 0H25l-1-190h30c1 12-1 29 2 39 6-27 23-49 58-41v29" id="P"/><g id="a"><use transform="matrix(0.05,0,0,0.05,0,0)" xlink:href="#I"/><use transform="matrix(0.05,0,0,0.05,5,0)" xlink:href="#J"/><use transform="matrix(0.05,0,0,0.05,15,0)" xlink:href="#K"/><use transform="matrix(0.05,0,0,0.05,24,0)" xlink:href="#L"/><use transform="matrix(0.05,0,0,0.05,34,0)" xlink:href="#M"/><use transform="matrix(0.05,0,0,0.05,43,0)" xlink:href="#N"/><use transform="matrix(0.05,0,0,0.05,48,0)" xlink:href="#O"/><use transform="matrix(0.05,0,0,0.05,58,0)" xlink:href="#P"/></g><path d="M190 0L58-211 59 0H30v-248h39L202-35l-2-213h31V0h-41" id="Q"/><path d="M177-190C167-65 218 103 67 71c-23-6-38-20-44-43l32-5c15 47 100 32 89-28v-30C133-14 115 1 83 1 29 1 15-40 15-95c0-56 16-97 71-98 29-1 48 16 59 35 1-10 0-23 2-32h30zM94-22c36 0 50-32 50-73 0-42-14-75-50-75-39 0-46 34-46 75s6 73 46 73" id="R"/><path d="M24-231v-30h32v30H24zM24 0v-190h32V0H24" id="S"/><path d="M141-36C126-15 110 5 73 4 37 3 15-17 15-53c-1-64 63-63 125-63 3-35-9-54-41-54-24 1-41 7-42 31l-33-3c5-37 33-52 76-52 45 0 72 20 72 64v82c-1 20 7 32 28 27v20c-31 9-61-2-59-35zM48-53c0 20 12 33 32 33 41-3 63-29 60-74-43 2-92-5-92 41" id="T"/><path d="M185-189c-5-48-123-54-124 2 14 75 158 14 163 119 3 78-121 87-175 55-17-10-28-26-33-46l33-7c5 56 141 63 141-1 0-78-155-14-162-118-5-82 145-84 179-34 5 7 8 16 11 25" id="U"/><path d="M179-190L93 31C79 59 56 82 12 73V49c39 6 53-20 64-50L1-190h34L92-34l54-156h33" id="V"/><path d="M210-169c-67 3-38 105-44 169h-31v-121c0-29-5-50-35-48C34-165 62-65 56 0H25l-1-190h30c1 10-1 24 2 32 10-44 99-50 107 0 11-21 27-35 58-36 85-2 47 119 55 194h-31v-121c0-29-5-49-35-48" id="W"/><g id="b"><use transform="matrix(0.05,0,0,0.05,0,0)" xlink:href="#Q"/><use transform="matrix(0.05,0,0,0.05,12.950000000000001,0)" xlink:href="#L"/><use transform="matrix(0.05,0,0,0.05,22.950000000000003,0)" xlink:href="#R"/><use transform="matrix(0.05,0,0,0.05,32.95,0)" xlink:href="#O"/><use transform="matrix(0.05,0,0,0.05,42.95,0)" xlink:href="#N"/><use transform="matrix(0.05,0,0,0.05,47.95,0)" xlink:href="#S"/><use transform="matrix(0.05,0,0,0.05,51.900000000000006,0)" xlink:href="#T"/><use transform="matrix(0.05,0,0,0.05,61.900000000000006,0)" xlink:href="#N"/><use transform="matrix(0.05,0,0,0.05,66.9,0)" xlink:href="#S"/><use transform="matrix(0.05,0,0,0.05,70.85000000000001,0)" xlink:href="#O"/><use transform="matrix(0.05,0,0,0.05,80.85000000000001,0)" xlink:href="#J"/><use transform="matrix(0.05,0,0,0.05,90.85000000000001,0)" xlink:href="#U"/><use transform="matrix(0.05,0,0,0.05,102.85000000000001,0)" xlink:href="#V"/><use transform="matrix(0.05,0,0,0.05,111.85000000000001,0)" xlink:href="#M"/><use transform="matrix(0.05,0,0,0.05,120.85000000000001,0)" xlink:href="#N"/><use transform="matrix(0.05,0,0,0.05,125.85000000000001,0)" xlink:href="#L"/><use transform="matrix(0.05,0,0,0.05,135.85000000000002,0)" xlink:href="#W"/></g><path d="M137 0h-34L2-248h35l83 218 83-218h36" id="X"/><path d="M206 0h-36l-40-164L89 0H53L-1-190h32L70-26l43-164h34l41 164 42-164h31" id="Y"/><g id="c"><use transform="matrix(0.05,0,0,0.05,0,0)" xlink:href="#X"/><use transform="matrix(0.05,0,0,0.05,11.65,0)" xlink:href="#S"/><use transform="matrix(0.05,0,0,0.05,15.600000000000001,0)" xlink:href="#L"/><use transform="matrix(0.05,0,0,0.05,25.6,0)" xlink:href="#Y"/></g><path d="M212-179c-10-28-35-45-73-45-59 0-87 40-87 99 0 60 29 101 89 101 43 0 62-24 78-52l27 14C228-24 195 4 139 4 59 4 22-46 18-125c-6-104 99-153 187-111 19 9 31 26 39 46" id="Z"/><path d="M84 4C-5 8 30-112 23-190h32v120c0 31 7 50 39 49 72-2 45-101 50-169h31l1 190h-30c-1-10 1-25-2-33-11 22-28 36-60 37" id="aa"/><g id="d"><use transform="matrix(0.05,0,0,0.05,0,0)" xlink:href="#Z"/><use transform="matrix(0.05,0,0,0.05,12.950000000000001,0)" xlink:href="#aa"/><use transform="matrix(0.05,0,0,0.05,22.950000000000003,0)" xlink:href="#P"/><use transform="matrix(0.05,0,0,0.05,28.900000000000002,0)" xlink:href="#P"/><use transform="matrix(0.05,0,0,0.05,34.85,0)" xlink:href="#L"/><use transform="matrix(0.05,0,0,0.05,44.85,0)" xlink:href="#J"/><use transform="matrix(0.05,0,0,0.05,54.85,0)" xlink:href="#N"/></g><path d="M115-194c55 1 70 41 70 98S169 2 115 4C84 4 66-9 55-30l1 105H24l-1-265h31l2 30c10-21 28-34 59-34zm-8 174c40 0 45-34 45-75s-6-73-45-74c-42 0-51 32-51 76 0 43 10 73 51 73" id="ab"/><path d="M96-169c-40 0-48 33-48 73s9 75 48 75c24 0 41-14 43-38l32 2c-6 37-31 61-74 61-59 0-76-41-82-99-10-93 101-131 147-64 4 7 5 14 7 22l-32 3c-4-21-16-35-41-35" id="ac"/><path d="M106-169C34-169 62-67 57 0H25v-261h32l-1 103c12-21 28-36 61-36 89 0 53 116 60 194h-32v-121c2-32-8-49-39-48" id="ad"/><g id="e"><use transform="matrix(0.05,0,0,0.05,0,0)" xlink:href="#ab"/><use transform="matrix(0.05,0,0,0.05,10,0)" xlink:href="#S"/><use transform="matrix(0.05,0,0,0.05,13.949999999999998,0)" xlink:href="#N"/><use transform="matrix(0.05,0,0,0.05,18.95,0)" xlink:href="#ac"/><use transform="matrix(0.05,0,0,0.05,27.950000000000003,0)" xlink:href="#ad"/></g><path d="M145-31C134-9 116 4 85 4 32 4 16-35 15-94c0-59 17-99 70-100 32-1 48 14 60 33 0-11-1-24 2-32h30l-1 268h-32zM93-21c41 0 51-33 51-76s-8-73-50-73c-40 0-46 35-46 75s5 74 45 74" id="ae"/><g id="f"><use transform="matrix(0.05,0,0,0.05,0,0)" xlink:href="#L"/><use transform="matrix(0.05,0,0,0.05,10,0)" xlink:href="#ae"/><use transform="matrix(0.05,0,0,0.05,20,0)" xlink:href="#aa"/><use transform="matrix(0.05,0,0,0.05,30,0)" xlink:href="#S"/><use transform="matrix(0.05,0,0,0.05,33.95,0)" xlink:href="#N"/><use transform="matrix(0.05,0,0,0.05,38.95,0)" xlink:href="#V"/></g><path d="M101-234c-31-9-42 10-38 44h38v23H63V0H32v-167H5v-23h27c-7-52 17-82 69-68v24" id="af"/><g id="g"><use transform="matrix(0.05,0,0,0.05,0,0)" xlink:href="#O"/><use transform="matrix(0.05,0,0,0.05,10,0)" xlink:href="#af"/><use transform="matrix(0.05,0,0,0.05,14.65,0)" xlink:href="#af"/><use transform="matrix(0.05,0,0,0.05,19.65,0)" xlink:href="#L"/><use transform="matrix(0.05,0,0,0.05,29.649999999999995,0)" xlink:href="#P"/></g><path d="M30-248c87 1 191-15 191 75 0 78-77 80-158 76V0H30v-248zm33 125c57 0 124 11 124-50 0-59-68-47-124-48v98" id="ag"/><g id="h"><use transform="matrix(0.05,0,0,0.05,0,0)" xlink:href="#ag"/><use transform="matrix(0.05,0,0,0.05,12,0)" xlink:href="#P"/><use transform="matrix(0.05,0,0,0.05,17.95,0)" xlink:href="#O"/><use transform="matrix(0.05,0,0,0.05,27.950000000000003,0)" xlink:href="#ab"/><use transform="matrix(0.05,0,0,0.05,37.95,0)" xlink:href="#O"/><use transform="matrix(0.05,0,0,0.05,47.95,0)" xlink:href="#M"/><use transform="matrix(0.05,0,0,0.05,56.95,0)" xlink:href="#L"/></g><g id="i"><use transform="matrix(0.05,0,0,0.05,0,0)" xlink:href="#L"/><use transform="matrix(0.05,0,0,0.05,10,0)" xlink:href="#ae"/><use transform="matrix(0.05,0,0,0.05,20,0)" xlink:href="#aa"/><use transform="matrix(0.05,0,0,0.05,30,0)" xlink:href="#S"/><use transform="matrix(0.05,0,0,0.05,33.95,0)" xlink:href="#N"/><use transform="matrix(0.05,0,0,0.05,38.95,0)" xlink:href="#V"/></g><g id="j"><use transform="matrix(0.05,0,0,0.05,0,0)" xlink:href="#M"/><use transform="matrix(0.05,0,0,0.05,9,0)" xlink:href="#ad"/><use transform="matrix(0.05,0,0,0.05,19,0)" xlink:href="#T"/><use transform="matrix(0.05,0,0,0.05,29,0)" xlink:href="#P"/><use transform="matrix(0.05,0,0,0.05,34.95,0)" xlink:href="#L"/></g><path d="M87 75C49 33 22-17 22-94c0-76 28-126 65-167h31c-38 41-64 92-64 168S80 34 118 75H87" id="ah"/><path d="M33-261c38 41 65 92 65 168S71 34 33 75H2C39 34 66-17 66-93S39-220 2-261h31" id="ai"/><g id="k"><use transform="matrix(0.05,0,0,0.05,0,0)" xlink:href="#O"/><use transform="matrix(0.05,0,0,0.05,10,0)" xlink:href="#af"/><use transform="matrix(0.05,0,0,0.05,14.65,0)" xlink:href="#af"/><use transform="matrix(0.05,0,0,0.05,19.65,0)" xlink:href="#L"/><use transform="matrix(0.05,0,0,0.05,29.649999999999995,0)" xlink:href="#P"/><use transform="matrix(0.05,0,0,0.05,35.6,0)" xlink:href="#ah"/><use transform="matrix(0.05,0,0,0.05,41.550000000000004,0)" xlink:href="#M"/><use transform="matrix(0.05,0,0,0.05,50.550000000000004,0)" xlink:href="#ai"/></g><g id="l"><use transform="matrix(0.05,0,0,0.05,0,0)" xlink:href="#Z"/><use transform="matrix(0.05,0,0,0.05,12.950000000000001,0)" xlink:href="#O"/><use transform="matrix(0.05,0,0,0.05,22.950000000000003,0)" xlink:href="#aa"/><use transform="matrix(0.05,0,0,0.05,32.95,0)" xlink:href="#J"/><use transform="matrix(0.05,0,0,0.05,42.95,0)" xlink:href="#N"/><use transform="matrix(0.05,0,0,0.05,47.95,0)" xlink:href="#L"/><use transform="matrix(0.05,0,0,0.05,57.95,0)" xlink:href="#P"/></g><g id="m"><use transform="matrix(0.05,0,0,0.05,0,0)" xlink:href="#O"/><use transform="matrix(0.05,0,0,0.05,10,0)" xlink:href="#af"/><use transform="matrix(0.05,0,0,0.05,14.65,0)" xlink:href="#af"/><use transform="matrix(0.05,0,0,0.05,19.65,0)" xlink:href="#L"/><use transform="matrix(0.05,0,0,0.05,29.649999999999995,0)" xlink:href="#P"/></g><path d="M85-194c31 0 48 13 60 33l-1-100h32l1 261h-30c-2-10 0-23-3-31C134-8 116 4 85 4 32 4 16-35 15-94c0-66 23-100 70-100zm9 24c-40 0-46 34-46 75 0 40 6 74 45 74 42 0 51-32 51-76 0-42-9-74-50-73" id="aj"/><g id="n"><use transform="matrix(0.05,0,0,0.05,0,0)" xlink:href="#ab"/><use transform="matrix(0.05,0,0,0.05,10,0)" xlink:href="#P"/><use transform="matrix(0.05,0,0,0.05,15.949999999999998,0)" xlink:href="#O"/><use transform="matrix(0.05,0,0,0.05,25.950000000000003,0)" xlink:href="#ab"/><use transform="matrix(0.05,0,0,0.05,35.95,0)" xlink:href="#O"/><use transform="matrix(0.05,0,0,0.05,45.95,0)" xlink:href="#M"/><use transform="matrix(0.05,0,0,0.05,54.95,0)" xlink:href="#L"/><use transform="matrix(0.05,0,0,0.05,64.95,0)" xlink:href="#aj"/></g><g id="o"><use transform="matrix(0.05,0,0,0.05,0,0)" xlink:href="#M"/><use transform="matrix(0.05,0,0,0.05,9,0)" xlink:href="#ad"/><use transform="matrix(0.05,0,0,0.05,19,0)" xlink:href="#T"/><use transform="matrix(0.05,0,0,0.05,29,0)" xlink:href="#P"/><use transform="matrix(0.05,0,0,0.05,34.95,0)" xlink:href="#L"/><use transform="matrix(0.05,0,0,0.05,44.95,0)" xlink:href="#M"/></g><path d="M240 0l2-218c-23 76-54 145-80 218h-23L58-218 59 0H30v-248h44l77 211c21-75 51-140 76-211h43V0h-30" id="ak"/><path d="M143 0L79-87 56-68V0H24v-261h32v163l83-92h37l-77 82L181 0h-38" id="al"/><g id="p"><use transform="matrix(0.05,0,0,0.05,0,0)" xlink:href="#ak"/><use transform="matrix(0.05,0,0,0.05,14.950000000000001,0)" xlink:href="#T"/><use transform="matrix(0.05,0,0,0.05,24.950000000000003,0)" xlink:href="#al"/><use transform="matrix(0.05,0,0,0.05,33.95,0)" xlink:href="#L"/></g><path d="M24 0v-261h32V0H24" id="am"/><g id="q"><use transform="matrix(0.05,0,0,0.05,0,0)" xlink:href="#O"/><use transform="matrix(0.05,0,0,0.05,10,0)" xlink:href="#K"/><use transform="matrix(0.05,0,0,0.05,19,0)" xlink:href="#L"/><use transform="matrix(0.05,0,0,0.05,29,0)" xlink:href="#P"/><use transform="matrix(0.05,0,0,0.05,34.95,0)" xlink:href="#T"/><use transform="matrix(0.05,0,0,0.05,44.95,0)" xlink:href="#am"/></g><g id="r"><use transform="matrix(0.05,0,0,0.05,0,0)" xlink:href="#S"/><use transform="matrix(0.05,0,0,0.05,3.95,0)" xlink:href="#J"/><use transform="matrix(0.05,0,0,0.05,13.949999999999998,0)" xlink:href="#K"/><use transform="matrix(0.05,0,0,0.05,22.95,0)" xlink:href="#L"/><use transform="matrix(0.05,0,0,0.05,32.95,0)" xlink:href="#M"/><use transform="matrix(0.05,0,0,0.05,41.95,0)" xlink:href="#N"/><use transform="matrix(0.05,0,0,0.05,46.95,0)" xlink:href="#W"/><use transform="matrix(0.05,0,0,0.05,61.900000000000006,0)" xlink:href="#L"/><use transform="matrix(0.05,0,0,0.05,71.9,0)" xlink:href="#J"/><use transform="matrix(0.05,0,0,0.05,81.9,0)" xlink:href="#N"/></g><g id="s"><use transform="matrix(0.05,0,0,0.05,0,0)" xlink:href="#aj"/><use transform="matrix(0.05,0,0,0.05,10,0)" xlink:href="#L"/><use transform="matrix(0.05,0,0,0.05,20,0)" xlink:href="#ac"/><use transform="matrix(0.05,0,0,0.05,29,0)" xlink:href="#S"/><use transform="matrix(0.05,0,0,0.05,32.95,0)" xlink:href="#M"/><use transform="matrix(0.05,0,0,0.05,41.95,0)" xlink:href="#S"/><use transform="matrix(0.05,0,0,0.05,45.900000000000006,0)" xlink:href="#O"/><use transform="matrix(0.05,0,0,0.05,55.900000000000006,0)" xlink:href="#J"/></g><path d="M30-248c118-7 216 8 213 122C240-48 200 0 122 0H30v-248zM63-27c89 8 146-16 146-99s-60-101-146-95v194" id="an"/><g id="t"><use transform="matrix(0.05,0,0,0.05,0,0)" xlink:href="#an"/><use transform="matrix(0.05,0,0,0.05,12.950000000000001,0)" xlink:href="#L"/><use transform="matrix(0.05,0,0,0.05,22.950000000000003,0)" xlink:href="#ac"/><use transform="matrix(0.05,0,0,0.05,31.950000000000003,0)" xlink:href="#S"/><use transform="matrix(0.05,0,0,0.05,35.900000000000006,0)" xlink:href="#M"/><use transform="matrix(0.05,0,0,0.05,44.900000000000006,0)" xlink:href="#S"/><use transform="matrix(0.05,0,0,0.05,48.85000000000001,0)" xlink:href="#O"/><use transform="matrix(0.05,0,0,0.05,58.85,0)" xlink:href="#J"/></g><path d="M24 0v-248h195v40H76v63h132v40H76v65h150V0H24" id="ao"/><path d="M144 0l-44-69L55 0H2l70-98-66-92h53l41 62 40-62h54l-67 91 71 99h-54" id="ap"/><path d="M115-3C79 11 28 4 28-45v-112H4v-33h27l15-45h31v45h36v33H77v99c-1 23 16 31 38 25v30" id="aq"/><path d="M185-48c-13 30-37 53-82 52C43 2 14-33 14-96s30-98 90-98c62 0 83 45 84 108H66c0 31 8 55 39 56 18 0 30-7 34-22zm-45-69c5-46-57-63-70-21-2 6-4 13-4 21h74" id="ar"/><path d="M135-194c87-1 58 113 63 194h-50c-7-57 23-157-34-157-59 0-34 97-39 157H25l-1-190h47c2 12-1 28 3 38 12-26 28-41 61-42" id="as"/><path d="M137-138c1-29-70-34-71-4 15 46 118 7 119 86 1 83-164 76-172 9l43-7c4 19 20 25 44 25 33 8 57-30 24-41C81-84 22-81 20-136c-2-80 154-74 161-7" id="at"/><path d="M25-224v-37h50v37H25zM25 0v-190h50V0H25" id="au"/><path d="M110-194c64 0 96 36 96 99 0 64-35 99-97 99-61 0-95-36-95-99 0-62 34-99 96-99zm-1 164c35 0 45-28 45-65 0-40-10-65-43-65-34 0-45 26-45 65 0 36 10 65 43 65" id="av"/><g id="u"><use transform="matrix(0.05,0,0,0.05,0,0)" xlink:href="#ao"/><use transform="matrix(0.05,0,0,0.05,12,0)" xlink:href="#ap"/><use transform="matrix(0.05,0,0,0.05,22,0)" xlink:href="#aq"/><use transform="matrix(0.05,0,0,0.05,27.950000000000003,0)" xlink:href="#ar"/><use transform="matrix(0.05,0,0,0.05,37.95,0)" xlink:href="#as"/><use transform="matrix(0.05,0,0,0.05,48.900000000000006,0)" xlink:href="#at"/><use transform="matrix(0.05,0,0,0.05,58.900000000000006,0)" xlink:href="#au"/><use transform="matrix(0.05,0,0,0.05,63.900000000000006,0)" xlink:href="#av"/><use transform="matrix(0.05,0,0,0.05,74.85000000000001,0)" xlink:href="#as"/></g><path d="M24-248c93 1 206-16 204 79-1 75-69 88-152 82V0H24v-248zm52 121c47 0 100 7 100-41 0-47-54-39-100-39v80" id="aw"/><g id="v"><use transform="matrix(0.05,0,0,0.05,0,0)" xlink:href="#aw"/><use transform="matrix(0.05,0,0,0.05,12,0)" xlink:href="#av"/><use transform="matrix(0.05,0,0,0.05,22.950000000000003,0)" xlink:href="#au"/><use transform="matrix(0.05,0,0,0.05,27.950000000000003,0)" xlink:href="#as"/><use transform="matrix(0.05,0,0,0.05,38.900000000000006,0)" xlink:href="#aq"/><use transform="matrix(0.05,0,0,0.05,44.85000000000001,0)" xlink:href="#at"/></g><g id="w"><use transform="matrix(0.05,0,0,0.05,0,0)" xlink:href="#I"/><use transform="matrix(0.05,0,0,0.05,5,0)" xlink:href="#J"/><use transform="matrix(0.05,0,0,0.05,15,0)" xlink:href="#J"/><use transform="matrix(0.05,0,0,0.05,25,0)" xlink:href="#O"/><use transform="matrix(0.05,0,0,0.05,35,0)" xlink:href="#K"/><use transform="matrix(0.05,0,0,0.05,44,0)" xlink:href="#T"/><use transform="matrix(0.05,0,0,0.05,54,0)" xlink:href="#N"/><use transform="matrix(0.05,0,0,0.05,59,0)" xlink:href="#O"/><use transform="matrix(0.05,0,0,0.05,69,0)" xlink:href="#P"/></g><path d="M30 0v-248h187v28H63v79h144v27H63v87h162V0H30" id="ax"/><g id="x"><use transform="matrix(0.05,0,0,0.05,0,0)" xlink:href="#ax"/><use transform="matrix(0.05,0,0,0.05,12,0)" xlink:href="#K"/><use transform="matrix(0.05,0,0,0.05,21,0)" xlink:href="#T"/><use transform="matrix(0.05,0,0,0.05,31,0)" xlink:href="#am"/><use transform="matrix(0.05,0,0,0.05,34.95,0)" xlink:href="#aa"/><use transform="matrix(0.05,0,0,0.05,44.95,0)" xlink:href="#T"/><use transform="matrix(0.05,0,0,0.05,54.95,0)" xlink:href="#N"/><use transform="matrix(0.05,0,0,0.05,59.95,0)" xlink:href="#L"/></g><path d="M205 0l-28-72H64L36 0H1l101-248h38L239 0h-34zm-38-99l-47-123c-12 45-31 82-46 123h93" id="ay"/><g id="y"><use transform="matrix(0.05,0,0,0.05,0,0)" xlink:href="#ay"/><use transform="matrix(0.05,0,0,0.05,12,0)" xlink:href="#ac"/><use transform="matrix(0.05,0,0,0.05,21,0)" xlink:href="#ac"/><use transform="matrix(0.05,0,0,0.05,30,0)" xlink:href="#L"/><use transform="matrix(0.05,0,0,0.05,40,0)" xlink:href="#ab"/><use transform="matrix(0.05,0,0,0.05,50,0)" xlink:href="#N"/></g><g id="z"><use transform="matrix(0.05,0,0,0.05,0,0)" xlink:href="#T"/><use transform="matrix(0.05,0,0,0.05,10,0)" xlink:href="#J"/><use transform="matrix(0.05,0,0,0.05,20,0)" xlink:href="#aj"/></g><g id="A"><use transform="matrix(0.05,0,0,0.05,0,0)" xlink:href="#ac"/><use transform="matrix(0.05,0,0,0.05,9,0)" xlink:href="#am"/><use transform="matrix(0.05,0,0,0.05,12.949999999999998,0)" xlink:href="#O"/><use transform="matrix(0.05,0,0,0.05,22.95,0)" xlink:href="#M"/><use transform="matrix(0.05,0,0,0.05,31.950000000000003,0)" xlink:href="#L"/></g><g id="B"><use transform="matrix(0.05,0,0,0.05,0,0)" xlink:href="#aj"/><use transform="matrix(0.05,0,0,0.05,10,0)" xlink:href="#L"/><use transform="matrix(0.05,0,0,0.05,20,0)" xlink:href="#T"/><use transform="matrix(0.05,0,0,0.05,30,0)" xlink:href="#am"/></g><path d="M233-177c-1 41-23 64-60 70L243 0h-38l-65-103H63V0H30v-248c88 3 205-21 203 71zM63-129c60-2 137 13 137-47 0-61-80-42-137-45v92" id="az"/><path d="M24-231v-30h32v30H24zM-9 49c24 4 33-6 33-30v-209h32V24c2 40-23 58-65 49V49" id="aA"/><g id="C"><use transform="matrix(0.05,0,0,0.05,0,0)" xlink:href="#az"/><use transform="matrix(0.05,0,0,0.05,12.950000000000001,0)" xlink:href="#L"/><use transform="matrix(0.05,0,0,0.05,22.950000000000003,0)" xlink:href="#aA"/><use transform="matrix(0.05,0,0,0.05,26.900000000000002,0)" xlink:href="#L"/><use transform="matrix(0.05,0,0,0.05,36.900000000000006,0)" xlink:href="#ac"/><use transform="matrix(0.05,0,0,0.05,45.900000000000006,0)" xlink:href="#N"/></g><path d="M18-100v-36l175-74v27L42-118l151 64v27" id="aB"/><path d="M18-27v-27l151-64-151-65v-27l175 74v36" id="aC"/><g id="D"><use transform="matrix(0.05,0,0,0.05,0,0)" xlink:href="#aB"/><use transform="matrix(0.05,0,0,0.05,10.5,0)" xlink:href="#aB"/><use transform="matrix(0.05,0,0,0.05,21,0)" xlink:href="#S"/><use transform="matrix(0.05,0,0,0.05,24.95,0)" xlink:href="#J"/><use transform="matrix(0.05,0,0,0.05,34.95,0)" xlink:href="#ac"/><use transform="matrix(0.05,0,0,0.05,43.95,0)" xlink:href="#am"/><use transform="matrix(0.05,0,0,0.05,47.900000000000006,0)" xlink:href="#aa"/><use transform="matrix(0.05,0,0,0.05,57.900000000000006,0)" xlink:href="#aj"/><use transform="matrix(0.05,0,0,0.05,67.9,0)" xlink:href="#L"/><use transform="matrix(0.05,0,0,0.05,77.9,0)" xlink:href="#M"/><use transform="matrix(0.05,0,0,0.05,86.9,0)" xlink:href="#aC"/><use transform="matrix(0.05,0,0,0.05,97.4,0)" xlink:href="#aC"/></g><g id="E"><use transform="matrix(0.05,0,0,0.05,0,0)" xlink:href="#aB"/><use transform="matrix(0.05,0,0,0.05,10.5,0)" xlink:href="#aB"/><use transform="matrix(0.05,0,0,0.05,21,0)" xlink:href="#S"/><use transform="matrix(0.05,0,0,0.05,24.95,0)" xlink:href="#J"/><use transform="matrix(0.05,0,0,0.05,34.95,0)" xlink:href="#ac"/><use transform="matrix(0.05,0,0,0.05,43.95,0)" xlink:href="#am"/><use transform="matrix(0.05,0,0,0.05,47.900000000000006,0)" xlink:href="#aa"/><use transform="matrix(0.05,0,0,0.05,57.900000000000006,0)" xlink:href="#aj"/><use transform="matrix(0.05,0,0,0.05,67.9,0)" xlink:href="#L"/><use transform="matrix(0.05,0,0,0.05,77.9,0)" xlink:href="#aC"/><use transform="matrix(0.05,0,0,0.05,88.4,0)" xlink:href="#aC"/></g><g id="F"><use transform="matrix(0.05,0,0,0.05,0,0)" xlink:href="#aB"/><use transform="matrix(0.05,0,0,0.05,10.5,0)" xlink:href="#aB"/><use transform="matrix(0.05,0,0,0.05,21,0)" xlink:href="#S"/><use transform="matrix(0.05,0,0,0.05,24.95,0)" xlink:href="#J"/><use transform="matrix(0.05,0,0,0.05,34.95,0)" xlink:href="#ac"/><use transform="matrix(0.05,0,0,0.05,43.95,0)" xlink:href="#am"/><use transform="matrix(0.05,0,0,0.05,47.900000000000006,0)" xlink:href="#aa"/><use transform="matrix(0.05,0,0,0.05,57.900000000000006,0)" xlink:href="#aj"/><use transform="matrix(0.05,0,0,0.05,67.9,0)" xlink:href="#L"/><use transform="matrix(0.05,0,0,0.05,77.9,0)" xlink:href="#M"/><use transform="matrix(0.05,0,0,0.05,86.9,0)" xlink:href="#M"/><use transform="matrix(0.05,0,0,0.05,95.9,0)" xlink:href="#aC"/><use transform="matrix(0.05,0,0,0.05,106.4,0)" xlink:href="#aC"/></g><g id="G"><use transform="matrix(0.05,0,0,0.05,0,0)" xlink:href="#ay"/><use transform="matrix(0.05,0,0,0.05,12,0)" xlink:href="#ac"/><use transform="matrix(0.05,0,0,0.05,21,0)" xlink:href="#ac"/><use transform="matrix(0.05,0,0,0.05,30,0)" xlink:href="#L"/><use transform="matrix(0.05,0,0,0.05,40,0)" xlink:href="#ab"/><use transform="matrix(0.05,0,0,0.05,50,0)" xlink:href="#N"/></g><g id="H"><use transform="matrix(0.05,0,0,0.05,0,0)" xlink:href="#az"/><use transform="matrix(0.05,0,0,0.05,12.950000000000001,0)" xlink:href="#L"/><use transform="matrix(0.05,0,0,0.05,22.950000000000003,0)" xlink:href="#aA"/><use transform="matrix(0.05,0,0,0.05,26.900000000000002,0)" xlink:href="#L"/><use transform="matrix(0.05,0,0,0.05,36.900000000000006,0)" xlink:href="#ac"/><use transform="matrix(0.05,0,0,0.05,45.900000000000006,0)" xlink:href="#N"/></g></defs></g></svg>