<svg xmlns="http://www.w3.org/2000/svg" xmlns:xlink="http://www.w3.org/1999/xlink" xmlns:lucid="lucid" width="1379" height="1040"><g transform="translate(-160 -100)" lucid:page-tab-id="cUGUfo3dtSMl"><path d="M0 0h1870.4v1323.2H0z" fill="#fff"/><path d="M360 120h980v1000H360z" stroke="#000" stroke-width="2" fill-opacity="0"/><use xlink:href="#a" transform="matrix(1,0,0,1,368,128) translate(426.05 15.6)"/><use xlink:href="#b" transform="matrix(1,0,0,1,368,128) translate(481 15.6)"/><path d="M259.75 179.75c0 10.9-8.84 19.75-19.75 19.75-10.9 0-19.75-8.84-19.75-19.75 0-10.9 8.84-19.75 19.75-19.75 10.9 0 19.75 8.84 19.75 19.75z" stroke="#000" stroke-width="2" fill="#fff"/><path d="M240 199.5v55.3l40 63.2m-40-63.2L200 318m0-98.75h80" stroke="#000" stroke-width="2" fill="none"/><path d="M200 160h80v180h-80z" fill="none"/><use xlink:href="#c" transform="matrix(1,0,0,1,120,318) translate(88.025 14.6)"/><path d="M930 250c0 33.14-35.82 60-80 60s-80-26.86-80-60 35.82-60 80-60 80 26.86 80 60z" stroke="#000" stroke-width="2" fill="#fff"/><use xlink:href="#d" transform="matrix(1,0,0,1,770,190) translate(19.054999999999986 63.15)"/><use xlink:href="#e" transform="matrix(1,0,0,1,770,190) translate(96.955 63.15)"/><path d="M240 250h528M240.03 250H236" stroke="#000" stroke-width="2" fill="none"/><path d="M769 250v.4l.03.6h-1.06v-2h1.06z"/><path d="M239.75 499.75c0 10.9-8.84 19.75-19.75 19.75-10.9 0-19.75-8.84-19.75-19.75 0-10.9 8.84-19.75 19.75-19.75 10.9 0 19.75 8.84 19.75 19.75z" stroke="#000" stroke-width="2" fill="#fff"/><path d="M220 519.5v55.3l40 63.2m-40-63.2L180 638m0-98.75h80" stroke="#000" stroke-width="2" fill="none"/><path d="M180 480h80v180h-80z" fill="none"/><use xlink:href="#f" transform="matrix(1,0,0,1,100,638) translate(82.525 14.6)"/><path d="M800 791.6c0 33.14-35.82 60-80 60s-80-26.86-80-60 35.82-60 80-60 80 26.86 80 60z" stroke="#000" stroke-width="2" fill="#fff"/><use xlink:href="#g" transform="matrix(1,0,0,1,640,731.6) translate(23.504999999999995 63.15)"/><use xlink:href="#e" transform="matrix(1,0,0,1,640,731.6) translate(92.505 63.15)"/><path d="M719.22 854.24l-9.8 20.64m-9.8 20.65l-19.6 41.28m-9.8 20.65l-9.8 20.65M720.97 874.3l-1.8-19.93-16.6 11.2" stroke="#000" stroke-width="2" fill="none"/><path d="M661.34 978.5l-.25.53-1.1-.03h-1.12l.66-1.36z"/><path d="M740 1040c0 33.14-35.82 60-80 60s-80-26.86-80-60 35.82-60 80-60 80 26.86 80 60z" stroke="#000" stroke-width="2" fill="#fff"/><use xlink:href="#h" transform="matrix(1,0,0,1,580,980) translate(23.029999999999994 63.15)"/><use xlink:href="#e" transform="matrix(1,0,0,1,580,980) translate(92.98 63.15)"/><path d="M625 920h115v31.6H625z" fill="#fff" fill-opacity="0"/><use xlink:href="#i" transform="matrix(1,0,0,1,630,925) translate(0 14.4)"/><path d="M220 570.06l558 33.08M220.02 570.06l-4-.24" stroke="#000" stroke-width="2" fill="none"/><path d="M779.02 602.2l-.02 1v1l-1.08-.06.12-2z"/><path d="M851.67 311.73l17.9 7.8m17.9 7.82l35.8 15.63m17.9 7.8l17.9 7.82M871.65 309.34l-19.85 2.45 11.7 16.2" stroke="#000" stroke-width="2" fill="none"/><path d="M962.7 359.08L960 359h-1.12l.58-1.33z"/><path d="M1040 420c0 33.14-35.82 60-80 60s-80-26.86-80-60 35.82-60 80-60 80 26.86 80 60z" stroke="#000" stroke-width="2" fill="#fff"/><use xlink:href="#j" transform="matrix(1,0,0,1,880,360) translate(11.554999999999987 63.15)"/><use xlink:href="#k" transform="matrix(1,0,0,1,880,360) translate(91.505 63.15)"/><path d="M1041.98 419.8l416.04-89.6" stroke="#000" stroke-width="2" fill="none"/><path d="M1042.2 420.76l-1.23.27.03-1.02v-.4l-.03-.62.82-.17z"/><path d="M1458 330.22l3.93-.85" stroke="#000" stroke-width="2" fill="none"/><path d="M1479.75 259.75c0 10.9-8.84 19.75-19.75 19.75-10.9 0-19.75-8.84-19.75-19.75 0-10.9 8.84-19.75 19.75-19.75 10.9 0 19.75 8.84 19.75 19.75z" stroke="#000" stroke-width="2" fill="#fff"/><path d="M1460 279.5v55.3l40 63.2m-40-63.2l-40 63.2m0-98.75h80" stroke="#000" stroke-width="2" fill="none"/><path d="M1420 240h80v180h-80z" fill="none"/><use xlink:href="#l" transform="matrix(1,0,0,1,1340,398) translate(62.05 14.6)"/><use xlink:href="#m" transform="matrix(1,0,0,1,1340,398) translate(118 14.6)"/><path d="M840 320h115v31.6H840z" fill="#fff" fill-opacity="0"/><use xlink:href="#i" transform="matrix(1,0,0,1,845,325) translate(0 14.4)"/><path d="M980 603.2c0 44.18-44.77 80-100 80s-100-35.82-100-80 44.77-80 100-80 100 35.82 100 80zm-200 0h200" stroke="#000" stroke-width="2" fill="#fff"/><use xlink:href="#n" transform="matrix(1,0,0,1,810,539.2) translate(13.049999999999997 35.6)"/><use xlink:href="#e" transform="matrix(1,0,0,1,810,539.2) translate(82.95 35.6)"/><use xlink:href="#o" transform="matrix(1,0,0,1,810,627.2) translate(35.574999999999996 19.6)"/><use xlink:href="#p" transform="matrix(1,0,0,1,780,603.2) translate(27.174999999999983 15.6)"/><use xlink:href="#q" transform="matrix(1,0,0,1,780,603.2) translate(117.975 15.6)"/><path d="M1100 800c0 33.14-35.82 60-80 60s-80-26.86-80-60 35.82-60 80-60 80 26.86 80 60z" stroke="#000" stroke-width="2" fill="#fff"/><use xlink:href="#r" transform="matrix(1,0,0,1,940,740) translate(25.554999999999993 63.15)"/><use xlink:href="#e" transform="matrix(1,0,0,1,940,740) translate(90.45500000000001 63.15)"/><path d="M823.6 672.1l-17.13 9.67m-17.12 9.67l-34.24 19.33m-17.1 9.67l-17.13 9.67M813.48 689.5l9.98-17.33-20-.4" stroke="#000" stroke-width="2" fill="none"/><path d="M721.2 730.64l-1.2-.04h-.92l-1.2.05 2.52-1.43z"/><path d="M930.66 675.03l14.75 10.56m14.77 10.56l29.5 21.13m14.76 10.55l14.76 10.57M950.7 676.86l-19.92-1.75 8.07 18.3" stroke="#000" stroke-width="2" fill="none"/><path d="M1021.8 739.06l-1.8-.06h-.92l-.35.02 1.02-1.43z"/><path d="M930 694.8h115v31.6H930z" fill="#fff" fill-opacity="0"/><g><use xlink:href="#s" transform="matrix(1,0,0,1,935,699.8000000000001) translate(0 14.4)"/></g><path d="M700 691.6h115v31.6H700z" fill="#fff" fill-opacity="0"/><g><use xlink:href="#s" transform="matrix(1,0,0,1,705,696.6) translate(0 14.4)"/></g><defs><path d="M63-220v92h138v28H63V0H30v-248h175v28H63" id="t"/><path d="M84 4C-5 8 30-112 23-190h32v120c0 31 7 50 39 49 72-2 45-101 50-169h31l1 190h-30c-1-10 1-25-2-33-11 22-28 36-60 37" id="u"/><path d="M117-194c89-4 53 116 60 194h-32v-121c0-31-8-49-39-48C34-167 62-67 57 0H25l-1-190h30c1 10-1 24 2 32 11-22 29-35 61-36" id="v"/><path d="M85-194c31 0 48 13 60 33l-1-100h32l1 261h-30c-2-10 0-23-3-31C134-8 116 4 85 4 32 4 16-35 15-94c0-66 23-100 70-100zm9 24c-40 0-46 34-46 75 0 40 6 74 45 74 42 0 51-32 51-76 0-42-9-74-50-73" id="w"/><path d="M135-143c-3-34-86-38-87 0 15 53 115 12 119 90S17 21 10-45l28-5c4 36 97 45 98 0-10-56-113-15-118-90-4-57 82-63 122-42 12 7 21 19 24 35" id="x"/><g id="a"><use transform="matrix(0.05,0,0,0.05,0,0)" xlink:href="#t"/><use transform="matrix(0.05,0,0,0.05,10.950000000000001,0)" xlink:href="#u"/><use transform="matrix(0.05,0,0,0.05,20.950000000000003,0)" xlink:href="#v"/><use transform="matrix(0.05,0,0,0.05,30.950000000000003,0)" xlink:href="#w"/><use transform="matrix(0.05,0,0,0.05,40.95,0)" xlink:href="#x"/></g><path d="M179-190L93 31C79 59 56 82 12 73V49c39 6 53-20 64-50L1-190h34L92-34l54-156h33" id="y"/><path d="M59-47c-2 24 18 29 38 22v24C64 9 27 4 27-40v-127H5v-23h24l9-43h21v43h35v23H59v120" id="z"/><path d="M100-194c63 0 86 42 84 106H49c0 40 14 67 53 68 26 1 43-12 49-29l28 8c-11 28-37 45-77 45C44 4 14-33 15-96c1-61 26-98 85-98zm52 81c6-60-76-77-97-28-3 7-6 17-6 28h103" id="A"/><path d="M210-169c-67 3-38 105-44 169h-31v-121c0-29-5-50-35-48C34-165 62-65 56 0H25l-1-190h30c1 10-1 24 2 32 10-44 99-50 107 0 11-21 27-35 58-36 85-2 47 119 55 194h-31v-121c0-29-5-49-35-48" id="B"/><g id="b"><use transform="matrix(0.05,0,0,0.05,0,0)" xlink:href="#x"/><use transform="matrix(0.05,0,0,0.05,9,0)" xlink:href="#y"/><use transform="matrix(0.05,0,0,0.05,18,0)" xlink:href="#x"/><use transform="matrix(0.05,0,0,0.05,27,0)" xlink:href="#z"/><use transform="matrix(0.05,0,0,0.05,32,0)" xlink:href="#A"/><use transform="matrix(0.05,0,0,0.05,42,0)" xlink:href="#B"/></g><path d="M33 0v-248h34V0H33" id="C"/><path d="M108 0H70L1-190h34L89-25l56-165h34" id="D"/><path d="M100-194c62-1 85 37 85 99 1 63-27 99-86 99S16-35 15-95c0-66 28-99 85-99zM99-20c44 1 53-31 53-75 0-43-8-75-51-75s-53 32-53 75 10 74 51 75" id="E"/><path d="M114-163C36-179 61-72 57 0H25l-1-190h30c1 12-1 29 2 39 6-27 23-49 58-41v29" id="F"/><g id="c"><use transform="matrix(0.05,0,0,0.05,0,0)" xlink:href="#C"/><use transform="matrix(0.05,0,0,0.05,5,0)" xlink:href="#v"/><use transform="matrix(0.05,0,0,0.05,15,0)" xlink:href="#D"/><use transform="matrix(0.05,0,0,0.05,24,0)" xlink:href="#A"/><use transform="matrix(0.05,0,0,0.05,34,0)" xlink:href="#x"/><use transform="matrix(0.05,0,0,0.05,43,0)" xlink:href="#z"/><use transform="matrix(0.05,0,0,0.05,48,0)" xlink:href="#E"/><use transform="matrix(0.05,0,0,0.05,58,0)" xlink:href="#F"/></g><path d="M205 0l-28-72H64L36 0H1l101-248h38L239 0h-34zm-38-99l-47-123c-12 45-31 82-46 123h93" id="G"/><path d="M24 0v-261h32V0H24" id="H"/><path d="M96-169c-40 0-48 33-48 73s9 75 48 75c24 0 41-14 43-38l32 2c-6 37-31 61-74 61-59 0-76-41-82-99-10-93 101-131 147-64 4 7 5 14 7 22l-32 3c-4-21-16-35-41-35" id="I"/><path d="M141-36C126-15 110 5 73 4 37 3 15-17 15-53c-1-64 63-63 125-63 3-35-9-54-41-54-24 1-41 7-42 31l-33-3c5-37 33-52 76-52 45 0 72 20 72 64v82c-1 20 7 32 28 27v20c-31 9-61-2-59-35zM48-53c0 20 12 33 32 33 41-3 63-29 60-74-43 2-92-5-92 41" id="J"/><g id="d"><use transform="matrix(0.05,0,0,0.05,0,0)" xlink:href="#G"/><use transform="matrix(0.05,0,0,0.05,12,0)" xlink:href="#H"/><use transform="matrix(0.05,0,0,0.05,15.949999999999998,0)" xlink:href="#H"/><use transform="matrix(0.05,0,0,0.05,19.9,0)" xlink:href="#E"/><use transform="matrix(0.05,0,0,0.05,29.899999999999995,0)" xlink:href="#I"/><use transform="matrix(0.05,0,0,0.05,38.9,0)" xlink:href="#J"/><use transform="matrix(0.05,0,0,0.05,48.9,0)" xlink:href="#z"/><use transform="matrix(0.05,0,0,0.05,53.900000000000006,0)" xlink:href="#A"/><use transform="matrix(0.05,0,0,0.05,63.900000000000006,0)" xlink:href="#x"/></g><path d="M101-234c-31-9-42 10-38 44h38v23H63V0H32v-167H5v-23h27c-7-52 17-82 69-68v24" id="K"/><g id="e"><use transform="matrix(0.05,0,0,0.05,0,0)" xlink:href="#K"/><use transform="matrix(0.05,0,0,0.05,5,0)" xlink:href="#u"/><use transform="matrix(0.05,0,0,0.05,15,0)" xlink:href="#v"/><use transform="matrix(0.05,0,0,0.05,25,0)" xlink:href="#w"/><use transform="matrix(0.05,0,0,0.05,35,0)" xlink:href="#x"/></g><g id="f"><use transform="matrix(0.05,0,0,0.05,0,0)" xlink:href="#C"/><use transform="matrix(0.05,0,0,0.05,5,0)" xlink:href="#v"/><use transform="matrix(0.05,0,0,0.05,15,0)" xlink:href="#v"/><use transform="matrix(0.05,0,0,0.05,25,0)" xlink:href="#E"/><use transform="matrix(0.05,0,0,0.05,35,0)" xlink:href="#D"/><use transform="matrix(0.05,0,0,0.05,44,0)" xlink:href="#J"/><use transform="matrix(0.05,0,0,0.05,54,0)" xlink:href="#z"/><use transform="matrix(0.05,0,0,0.05,59,0)" xlink:href="#E"/><use transform="matrix(0.05,0,0,0.05,69,0)" xlink:href="#F"/></g><path d="M115-194c55 1 70 41 70 98S169 2 115 4C84 4 66-9 55-30l1 105H24l-1-265h31l2 30c10-21 28-34 59-34zm-8 174c40 0 45-34 45-75s-6-73-45-74c-42 0-51 32-51 76 0 43 10 73 51 73" id="L"/><g id="g"><use transform="matrix(0.05,0,0,0.05,0,0)" xlink:href="#G"/><use transform="matrix(0.05,0,0,0.05,12,0)" xlink:href="#I"/><use transform="matrix(0.05,0,0,0.05,21,0)" xlink:href="#I"/><use transform="matrix(0.05,0,0,0.05,30,0)" xlink:href="#A"/><use transform="matrix(0.05,0,0,0.05,40,0)" xlink:href="#L"/><use transform="matrix(0.05,0,0,0.05,50,0)" xlink:href="#z"/><use transform="matrix(0.05,0,0,0.05,55,0)" xlink:href="#x"/></g><path d="M240 0l2-218c-23 76-54 145-80 218h-23L58-218 59 0H30v-248h44l77 211c21-75 51-140 76-211h43V0h-30" id="M"/><path d="M177-190C167-65 218 103 67 71c-23-6-38-20-44-43l32-5c15 47 100 32 89-28v-30C133-14 115 1 83 1 29 1 15-40 15-95c0-56 16-97 71-98 29-1 48 16 59 35 1-10 0-23 2-32h30zM94-22c36 0 50-32 50-73 0-42-14-75-50-75-39 0-46 34-46 75s6 73 46 73" id="N"/><g id="h"><use transform="matrix(0.05,0,0,0.05,0,0)" xlink:href="#M"/><use transform="matrix(0.05,0,0,0.05,14.950000000000001,0)" xlink:href="#J"/><use transform="matrix(0.05,0,0,0.05,24.950000000000003,0)" xlink:href="#v"/><use transform="matrix(0.05,0,0,0.05,34.95,0)" xlink:href="#J"/><use transform="matrix(0.05,0,0,0.05,44.95,0)" xlink:href="#N"/><use transform="matrix(0.05,0,0,0.05,54.95,0)" xlink:href="#A"/></g><path d="M18-100v-36l175-74v27L42-118l151 64v27" id="O"/><path d="M24-231v-30h32v30H24zM24 0v-190h32V0H24" id="P"/><path d="M18-27v-27l151-64-151-65v-27l175 74v36" id="Q"/><g id="i"><use transform="matrix(0.05,0,0,0.05,0,0)" xlink:href="#O"/><use transform="matrix(0.05,0,0,0.05,10.5,0)" xlink:href="#O"/><use transform="matrix(0.05,0,0,0.05,21,0)" xlink:href="#P"/><use transform="matrix(0.05,0,0,0.05,24.95,0)" xlink:href="#v"/><use transform="matrix(0.05,0,0,0.05,34.95,0)" xlink:href="#I"/><use transform="matrix(0.05,0,0,0.05,43.95,0)" xlink:href="#H"/><use transform="matrix(0.05,0,0,0.05,47.900000000000006,0)" xlink:href="#u"/><use transform="matrix(0.05,0,0,0.05,57.900000000000006,0)" xlink:href="#w"/><use transform="matrix(0.05,0,0,0.05,67.9,0)" xlink:href="#A"/><use transform="matrix(0.05,0,0,0.05,77.9,0)" xlink:href="#x"/><use transform="matrix(0.05,0,0,0.05,86.9,0)" xlink:href="#Q"/><use transform="matrix(0.05,0,0,0.05,97.4,0)" xlink:href="#Q"/></g><path d="M143 4C61 4 22-44 18-125c-5-107 100-154 193-111 17 8 29 25 37 43l-32 9c-13-25-37-40-76-40-61 0-88 39-88 99 0 61 29 100 91 101 35 0 62-11 79-27v-45h-74v-28h105v86C228-13 192 4 143 4" id="R"/><g id="j"><use transform="matrix(0.05,0,0,0.05,0,0)" xlink:href="#R"/><use transform="matrix(0.05,0,0,0.05,14,0)" xlink:href="#A"/><use transform="matrix(0.05,0,0,0.05,24,0)" xlink:href="#v"/><use transform="matrix(0.05,0,0,0.05,34,0)" xlink:href="#A"/><use transform="matrix(0.05,0,0,0.05,44,0)" xlink:href="#F"/><use transform="matrix(0.05,0,0,0.05,49.95,0)" xlink:href="#J"/><use transform="matrix(0.05,0,0,0.05,59.95,0)" xlink:href="#z"/><use transform="matrix(0.05,0,0,0.05,64.95,0)" xlink:href="#A"/></g><g id="k"><use transform="matrix(0.05,0,0,0.05,0,0)" xlink:href="#C"/><use transform="matrix(0.05,0,0,0.05,5,0)" xlink:href="#v"/><use transform="matrix(0.05,0,0,0.05,15,0)" xlink:href="#D"/><use transform="matrix(0.05,0,0,0.05,24,0)" xlink:href="#E"/><use transform="matrix(0.05,0,0,0.05,34,0)" xlink:href="#P"/><use transform="matrix(0.05,0,0,0.05,37.95,0)" xlink:href="#I"/><use transform="matrix(0.05,0,0,0.05,46.95,0)" xlink:href="#A"/></g><path d="M30 0v-248h187v28H63v79h144v27H63v87h162V0H30" id="S"/><path d="M194 0L95-120 63-95V0H30v-248h33v124l119-124h40L117-140 236 0h-42" id="T"/><g id="l"><use transform="matrix(0.05,0,0,0.05,0,0)" xlink:href="#M"/><use transform="matrix(0.05,0,0,0.05,14.950000000000001,0)" xlink:href="#S"/><use transform="matrix(0.05,0,0,0.05,26.950000000000003,0)" xlink:href="#S"/><use transform="matrix(0.05,0,0,0.05,38.95,0)" xlink:href="#T"/></g><path d="M185-189c-5-48-123-54-124 2 14 75 158 14 163 119 3 78-121 87-175 55-17-10-28-26-33-46l33-7c5 56 141 63 141-1 0-78-155-14-162-118-5-82 145-84 179-34 5 7 8 16 11 25" id="U"/><g id="m"><use transform="matrix(0.05,0,0,0.05,0,0)" xlink:href="#U"/><use transform="matrix(0.05,0,0,0.05,12,0)" xlink:href="#y"/><use transform="matrix(0.05,0,0,0.05,21,0)" xlink:href="#x"/><use transform="matrix(0.05,0,0,0.05,30,0)" xlink:href="#z"/><use transform="matrix(0.05,0,0,0.05,35,0)" xlink:href="#A"/><use transform="matrix(0.05,0,0,0.05,45,0)" xlink:href="#B"/></g><path d="M233-177c-1 41-23 64-60 70L243 0h-38l-65-103H63V0H30v-248c88 3 205-21 203 71zM63-129c60-2 137 13 137-47 0-61-80-42-137-45v92" id="V"/><g id="n"><use transform="matrix(0.05,0,0,0.05,0,0)" xlink:href="#V"/><use transform="matrix(0.05,0,0,0.05,12.950000000000001,0)" xlink:href="#A"/><use transform="matrix(0.05,0,0,0.05,22.950000000000003,0)" xlink:href="#I"/><use transform="matrix(0.05,0,0,0.05,31.950000000000003,0)" xlink:href="#A"/><use transform="matrix(0.05,0,0,0.05,41.95,0)" xlink:href="#P"/><use transform="matrix(0.05,0,0,0.05,45.900000000000006,0)" xlink:href="#D"/><use transform="matrix(0.05,0,0,0.05,54.900000000000006,0)" xlink:href="#A"/></g><path d="M30-248c118-7 216 8 213 122C240-48 200 0 122 0H30v-248zM63-27c89 8 146-16 146-99s-60-101-146-95v194" id="W"/><g id="o"><use transform="matrix(0.05,0,0,0.05,0,0)" xlink:href="#W"/><use transform="matrix(0.05,0,0,0.05,12.950000000000001,0)" xlink:href="#A"/><use transform="matrix(0.05,0,0,0.05,22.950000000000003,0)" xlink:href="#I"/><use transform="matrix(0.05,0,0,0.05,31.950000000000003,0)" xlink:href="#P"/><use transform="matrix(0.05,0,0,0.05,35.900000000000006,0)" xlink:href="#x"/><use transform="matrix(0.05,0,0,0.05,44.900000000000006,0)" xlink:href="#P"/><use transform="matrix(0.05,0,0,0.05,48.85000000000001,0)" xlink:href="#E"/><use transform="matrix(0.05,0,0,0.05,58.85,0)" xlink:href="#v"/></g><path d="M24 0v-248h195v40H76v63h132v40H76v65h150V0H24" id="X"/><path d="M144 0l-44-69L55 0H2l70-98-66-92h53l41 62 40-62h54l-67 91 71 99h-54" id="Y"/><path d="M115-3C79 11 28 4 28-45v-112H4v-33h27l15-45h31v45h36v33H77v99c-1 23 16 31 38 25v30" id="Z"/><path d="M185-48c-13 30-37 53-82 52C43 2 14-33 14-96s30-98 90-98c62 0 83 45 84 108H66c0 31 8 55 39 56 18 0 30-7 34-22zm-45-69c5-46-57-63-70-21-2 6-4 13-4 21h74" id="aa"/><path d="M135-194c87-1 58 113 63 194h-50c-7-57 23-157-34-157-59 0-34 97-39 157H25l-1-190h47c2 12-1 28 3 38 12-26 28-41 61-42" id="ab"/><path d="M137-138c1-29-70-34-71-4 15 46 118 7 119 86 1 83-164 76-172 9l43-7c4 19 20 25 44 25 33 8 57-30 24-41C81-84 22-81 20-136c-2-80 154-74 161-7" id="ac"/><path d="M25-224v-37h50v37H25zM25 0v-190h50V0H25" id="ad"/><path d="M110-194c64 0 96 36 96 99 0 64-35 99-97 99-61 0-95-36-95-99 0-62 34-99 96-99zm-1 164c35 0 45-28 45-65 0-40-10-65-43-65-34 0-45 26-45 65 0 36 10 65 43 65" id="ae"/><g id="p"><use transform="matrix(0.05,0,0,0.05,0,0)" xlink:href="#X"/><use transform="matrix(0.05,0,0,0.05,12,0)" xlink:href="#Y"/><use transform="matrix(0.05,0,0,0.05,22,0)" xlink:href="#Z"/><use transform="matrix(0.05,0,0,0.05,27.950000000000003,0)" xlink:href="#aa"/><use transform="matrix(0.05,0,0,0.05,37.95,0)" xlink:href="#ab"/><use transform="matrix(0.05,0,0,0.05,48.900000000000006,0)" xlink:href="#ac"/><use transform="matrix(0.05,0,0,0.05,58.900000000000006,0)" xlink:href="#ad"/><use transform="matrix(0.05,0,0,0.05,63.900000000000006,0)" xlink:href="#ae"/><use transform="matrix(0.05,0,0,0.05,74.85000000000001,0)" xlink:href="#ab"/></g><path d="M24-248c93 1 206-16 204 79-1 75-69 88-152 82V0H24v-248zm52 121c47 0 100 7 100-41 0-47-54-39-100-39v80" id="af"/><g id="q"><use transform="matrix(0.05,0,0,0.05,0,0)" xlink:href="#af"/><use transform="matrix(0.05,0,0,0.05,12,0)" xlink:href="#ae"/><use transform="matrix(0.05,0,0,0.05,22.950000000000003,0)" xlink:href="#ad"/><use transform="matrix(0.05,0,0,0.05,27.950000000000003,0)" xlink:href="#ab"/><use transform="matrix(0.05,0,0,0.05,38.900000000000006,0)" xlink:href="#Z"/><use transform="matrix(0.05,0,0,0.05,44.85000000000001,0)" xlink:href="#ac"/></g><path d="M24-231v-30h32v30H24zM-9 49c24 4 33-6 33-30v-209h32V24c2 40-23 58-65 49V49" id="ag"/><g id="r"><use transform="matrix(0.05,0,0,0.05,0,0)" xlink:href="#V"/><use transform="matrix(0.05,0,0,0.05,12.950000000000001,0)" xlink:href="#A"/><use transform="matrix(0.05,0,0,0.05,22.950000000000003,0)" xlink:href="#ag"/><use transform="matrix(0.05,0,0,0.05,26.900000000000002,0)" xlink:href="#A"/><use transform="matrix(0.05,0,0,0.05,36.900000000000006,0)" xlink:href="#I"/><use transform="matrix(0.05,0,0,0.05,45.900000000000006,0)" xlink:href="#z"/><use transform="matrix(0.05,0,0,0.05,50.900000000000006,0)" xlink:href="#x"/></g><path d="M141 0L90-78 38 0H4l68-98-65-92h35l48 74 47-74h35l-64 92 68 98h-35" id="ah"/><g id="s"><use transform="matrix(0.05,0,0,0.05,0,0)" xlink:href="#O"/><use transform="matrix(0.05,0,0,0.05,10.5,0)" xlink:href="#O"/><use transform="matrix(0.05,0,0,0.05,21,0)" xlink:href="#A"/><use transform="matrix(0.05,0,0,0.05,31,0)" xlink:href="#ah"/><use transform="matrix(0.05,0,0,0.05,40,0)" xlink:href="#z"/><use transform="matrix(0.05,0,0,0.05,45,0)" xlink:href="#A"/><use transform="matrix(0.05,0,0,0.05,55,0)" xlink:href="#v"/><use transform="matrix(0.05,0,0,0.05,65,0)" xlink:href="#w"/><use transform="matrix(0.05,0,0,0.05,75,0)" xlink:href="#x"/><use transform="matrix(0.05,0,0,0.05,84,0)" xlink:href="#Q"/><use transform="matrix(0.05,0,0,0.05,94.5,0)" xlink:href="#Q"/></g></defs></g></svg>