<svg xmlns="http://www.w3.org/2000/svg" xmlns:xlink="http://www.w3.org/1999/xlink" xmlns:lucid="lucid" width="2772.98" height="2129.94"><g transform="translate(0 0)" lucid:page-tab-id="0_0"><path d="M0 0h2772.98v2129.94H0z" fill="#fff"/><path d="M680 368c0-4.42 3.58-8 8-8h151.98c4.42 0 8 3.58 8 8v35.48c0 4.42-3.58 8-8 8H688c-4.42 0-8-3.58-8-8z" fill="none"/><use xlink:href="#a" transform="matrix(1,0,0,1,680,360) translate(68.5679012345679 30.444444444444443)"/><path d="M380 708c0-4.42 3.58-8 8-8h104c4.42 0 8 3.58 8 8v44c0 4.42-3.58 8-8 8H388c-4.42 0-8-3.58-8-8z" fill="none"/><use xlink:href="#a" transform="matrix(1,0,0,1,380,700) translate(44.5679012345679 34.44444444444444)"/><path d="M1699.1 1648c0-4.42 3.58-8 8-8h224c4.42 0 8 3.58 8 8v44c0 4.42-3.58 8-8 8h-224c-4.42 0-8-3.58-8-8z" fill="none"/><use xlink:href="#b" transform="matrix(1,0,0,1,1699.0995907230558,1640) translate(98.2716049382716 34.888888888888886)"/><use xlink:href="#c" transform="matrix(1,0,0,1,1699.0995907230558,1640) translate(111.85185185185185 34.888888888888886)"/><path d="M1600 348c0-4.42 3.58-8 8-8h150.03c4.42 0 8 3.58 8 8v27.94c0 4.4-3.58 8-8 8H1608c-4.42 0-8-3.6-8-8z" fill="none"/><use xlink:href="#a" transform="matrix(1,0,0,1,1600,340) translate(68.0679012345679 26.444444444444443)"/><path d="M1957.63 585.14c0-4.42 3.58-8 8-8h224c4.4 0 8 3.58 8 8v44c0 4.42-3.6 8-8 8h-224c-4.42 0-8-3.58-8-8z" fill="none"/><use xlink:href="#b" transform="matrix(1,0,0,1,1957.6261937244203,577.1432469304228) translate(98.2716049382716 34.888888888888886)"/><use xlink:href="#c" transform="matrix(1,0,0,1,1957.6261937244203,577.1432469304228) translate(111.85185185185185 34.888888888888886)"/><path d="M1925.87 863.04c0-4.42 3.58-8 8-8h224c4.4 0 8 3.58 8 8v44c0 4.42-3.6 8-8 8h-224c-4.42 0-8-3.58-8-8z" fill="none"/><use xlink:href="#b" transform="matrix(1,0,0,1,1925.8663028649387,855.0422919508867) translate(98.2716049382716 34.888888888888886)"/><use xlink:href="#c" transform="matrix(1,0,0,1,1925.8663028649387,855.0422919508867) translate(111.85185185185185 34.888888888888886)"/><path d="M1059.54 709.54c0-4.42 3.58-8 8-8H1330c4.4 0 8 3.58 8 8v23.78c0 4.42-3.6 8-8 8h-262.46c-4.42 0-8-3.58-8-8z" fill="none"/><use xlink:href="#b" transform="matrix(1,0,0,1,1059.535205516833,701.5361527967258) translate(115.73456790123457 24.88888888888889)"/><use xlink:href="#d" transform="matrix(1,0,0,1,1059.535205516833,701.5361527967258) translate(129.3148148148148 24.88888888888889)"/><path d="M1939.1 1307.68c0-4.42 3.58-8 8-8h224c4.42 0 8 3.58 8 8v44c0 4.42-3.58 8-8 8h-224c-4.42 0-8-3.58-8-8z" fill="none"/><use xlink:href="#b" transform="matrix(1,0,0,1,1939.0995907230558,1299.6807639836288) translate(98.2716049382716 34.888888888888886)"/><use xlink:href="#c" transform="matrix(1,0,0,1,1939.0995907230558,1299.6807639836288) translate(111.85185185185185 34.888888888888886)"/><path d="M1059.54 820.7c0-4.42 3.58-8 8-8h224c4.4 0 8 3.58 8 8v44c0 4.42-3.6 8-8 8h-224c-4.42 0-8-3.58-8-8z" fill="none"/><use xlink:href="#e" transform="matrix(1,0,0,1,1059.535205516833,812.6980315747825) translate(99.25925925925925 34.266666666666666)"/><use xlink:href="#f" transform="matrix(1,0,0,1,1059.535205516833,812.6980315747825) translate(111.1111111111111 34.266666666666666)"/><path d="M1446.27 368c0-4.42 3.58-8 8-8H1572c4.42 0 8 3.58 8 8v27.94c0 4.4-3.58 8-8 8h-117.73c-4.42 0-8-3.6-8-8z" fill="none"/><use xlink:href="#a" transform="matrix(1,0,0,1,1446.2682928754034,360) translate(51.5679012345679 26.444444444444443)"/><path d="M314.58 1077.42c0-4.42 3.58-8 8-8h224c4.42 0 8 3.58 8 8v44c0 4.42-3.58 8-8 8h-224c-4.42 0-8-3.58-8-8z" fill="none"/><use xlink:href="#b" transform="matrix(1,0,0,1,314.5811732605731,1069.4215552523874) translate(98.2716049382716 34.888888888888886)"/><use xlink:href="#c" transform="matrix(1,0,0,1,314.5811732605731,1069.4215552523874) translate(111.85185185185185 34.888888888888886)"/><path d="M599.9 1822.72c0-4.42 3.57-8 8-8h224c4.4 0 8 3.58 8 8v44c0 4.42-3.6 8-8 8h-224c-4.43 0-8-3.58-8-8z" fill="none"/><use xlink:href="#b" transform="matrix(1,0,0,1,599.8908594815825,1814.7203274215553) translate(98.2716049382716 34.888888888888886)"/><use xlink:href="#c" transform="matrix(1,0,0,1,599.8908594815825,1814.7203274215553) translate(111.85185185185185 34.888888888888886)"/><path d="M320 1582.37c0-4.42 3.58-8 8-8h224c4.42 0 8 3.58 8 8v44c0 4.4-3.58 8-8 8H328c-4.42 0-8-3.6-8-8z" fill="none"/><use xlink:href="#b" transform="matrix(1,0,0,1,320,1574.3656207366985) translate(98.2716049382716 34.888888888888886)"/><use xlink:href="#c" transform="matrix(1,0,0,1,320,1574.3656207366985) translate(111.85185185185185 34.888888888888886)"/><path d="M298.7 1225.63c0-4.4 3.58-8 8-8h224c4.42 0 8 3.6 8 8v44c0 4.42-3.58 8-8 8h-224c-4.42 0-8-3.58-8-8z" fill="none"/><use xlink:href="#b" transform="matrix(1,0,0,1,298.70122783083235,1217.6343792633015) translate(98.2716049382716 34.888888888888886)"/><use xlink:href="#c" transform="matrix(1,0,0,1,298.70122783083235,1217.6343792633015) translate(111.85185185185185 34.888888888888886)"/><path d="M867.98 48c0-4.42 3.58-8 8-8h836.75c4.42 0 8 3.58 8 8v26.68c0 4.42-3.58 8-8 8H875.98c-4.42 0-8-3.58-8-8z" stroke="#000" stroke-opacity="0" stroke-width="2" fill="#fff" fill-opacity="0"/><use xlink:href="#g" transform="matrix(1,0,0,1,871.9781943665921,44) translate(323.847037037037 24.013333333333335)"/><use xlink:href="#h" transform="matrix(1,0,0,1,871.9781943665921,44) translate(368.2174074074074 24.013333333333335)"/><path d="M1282.3 83.12l78.94 38.93" stroke="#b2b2b2" stroke-width="2" fill="none"/><path d="M1281.88 84.03l-2.74-1.35h3.4z" fill="#b2b2b2"/><path d="M1361.2 122.04l.93.45" stroke="#b2b2b2" stroke-width="2" fill="none"/><path d="M847.98 90.68c0-4.42 3.58-8 8-8h850.85c4.42 0 8 3.58 8 8v24c0 4.42-3.58 8-8 8H855.98c-4.42 0-8-3.58-8-8z" stroke="#000" stroke-opacity="0" stroke-width="2" fill="#fff" fill-opacity="0"/><use xlink:href="#i" transform="matrix(1,0,0,1,851.978194366592,86.68) translate(307.36555555555555 26.075833333333335)"/><use xlink:href="#j" transform="matrix(1,0,0,1,851.978194366592,86.68) translate(314.77296296296294 26.075833333333335)"/><use xlink:href="#k" transform="matrix(1,0,0,1,851.978194366592,86.68) translate(402.847037037037 26.075833333333335)"/><use xlink:href="#l" transform="matrix(1,0,0,1,851.978194366592,86.68) translate(463.5137037037037 26.075833333333335)"/><path d="M820 188c0-4.42 3.58-8 8-8h624c4.42 0 8 3.58 8 8v488c0 4.42-3.58 8-8 8H828c-4.42 0-8-3.58-8-8z" fill="#fff"/><path d="M820 188c0-4.42 3.58-8 8-8h624c4.42 0 8 3.58 8 8v488c0 4.42-3.58 8-8 8H828c-4.42 0-8-3.58-8-8zM820 222h640M880 222v462M1170 222v462" stroke="#333" fill="none"/><use xlink:href="#m" transform="matrix(1,0,0,1,830,180) translate(0 31.333333333333336)"/><use xlink:href="#n" transform="matrix(1,0,0,1,825,224.5) translate(0 26.333333333333336)"/><use xlink:href="#o" transform="matrix(1,0,0,1,885,224.5) translate(0 26.333333333333336)"/><use xlink:href="#p" transform="matrix(1,0,0,1,885,224.5) translate(63.55555555555556 26.333333333333336)"/><use xlink:href="#q" transform="matrix(1,0,0,1,1175,224.5) translate(0 26.333333333333336)"/><use xlink:href="#r" transform="matrix(1,0,0,1,885,266.5) translate(0 26.333333333333336)"/><use xlink:href="#s" transform="matrix(1,0,0,1,885,266.5) translate(59.03703703703704 26.333333333333336)"/><use xlink:href="#t" transform="matrix(1,0,0,1,1175,266.5) translate(0 26.333333333333336)"/><use xlink:href="#u" transform="matrix(1,0,0,1,885,308.5) translate(0 26.333333333333336)"/><use xlink:href="#s" transform="matrix(1,0,0,1,885,308.5) translate(57.777777777777786 26.333333333333336)"/><use xlink:href="#t" transform="matrix(1,0,0,1,1175,308.5) translate(0 26.333333333333336)"/><use xlink:href="#v" transform="matrix(1,0,0,1,885,350.5) translate(0 26.333333333333336)"/><use xlink:href="#w" transform="matrix(1,0,0,1,1175,350.5) translate(0 26.333333333333336)"/><use xlink:href="#x" transform="matrix(1,0,0,1,885,392.5) translate(0 26.333333333333336)"/><use xlink:href="#y" transform="matrix(1,0,0,1,885,392.5) translate(73.85185185185186 26.333333333333336)"/><use xlink:href="#w" transform="matrix(1,0,0,1,1175,392.5) translate(0 26.333333333333336)"/><use xlink:href="#z" transform="matrix(1,0,0,1,885,434.5) translate(0 26.333333333333336)"/><use xlink:href="#A" transform="matrix(1,0,0,1,885,434.5) translate(100.44444444444446 26.333333333333336)"/><use xlink:href="#w" transform="matrix(1,0,0,1,1175,434.5) translate(0 26.333333333333336)"/><use xlink:href="#B" transform="matrix(1,0,0,1,885,476.5) translate(0 26.333333333333336)"/><use xlink:href="#w" transform="matrix(1,0,0,1,1175,476.5) translate(0 26.333333333333336)"/><use xlink:href="#C" transform="matrix(1,0,0,1,885,518.5) translate(0 26.333333333333336)"/><use xlink:href="#w" transform="matrix(1,0,0,1,1175,518.5) translate(0 26.333333333333336)"/><use xlink:href="#D" transform="matrix(1,0,0,1,885,560.5) translate(0 26.333333333333336)"/><use xlink:href="#E" transform="matrix(1,0,0,1,885,560.5) translate(44.296296296296305 26.333333333333336)"/><use xlink:href="#F" transform="matrix(1,0,0,1,1175,560.5) translate(0 26.333333333333336)"/><use xlink:href="#G" transform="matrix(1,0,0,1,885,602.5) translate(0 26.333333333333336)"/><use xlink:href="#H" transform="matrix(1,0,0,1,885,602.5) translate(84.44444444444444 26.333333333333336)"/><use xlink:href="#w" transform="matrix(1,0,0,1,1175,602.5) translate(0 26.333333333333336)"/><use xlink:href="#I" transform="matrix(1,0,0,1,885,644.5) translate(0 23.833333333333336)"/><use xlink:href="#w" transform="matrix(1,0,0,1,1175,644.5) translate(0 23.833333333333336)"/><path d="M840 908c0-4.42 3.58-8 8-8h584c4.42 0 8 3.58 8 8v152c0 4.42-3.58 8-8 8H848c-4.42 0-8-3.58-8-8z" fill="#fff"/><path d="M840 908c0-4.42 3.58-8 8-8h584c4.42 0 8 3.58 8 8v152c0 4.42-3.58 8-8 8H848c-4.42 0-8-3.58-8-8zM840 942h600M900 942v126M1170 942v126" stroke="#333" fill="none"/><use xlink:href="#J" transform="matrix(1,0,0,1,850,900) translate(0 31.333333333333336)"/><use xlink:href="#n" transform="matrix(1,0,0,1,845,944.5) translate(0 26.333333333333336)"/><use xlink:href="#K" transform="matrix(1,0,0,1,905,944.5) translate(0 26.333333333333336)"/><use xlink:href="#p" transform="matrix(1,0,0,1,905,944.5) translate(118.22222222222221 26.333333333333336)"/><use xlink:href="#q" transform="matrix(1,0,0,1,1175,944.5) translate(0 26.333333333333336)"/><use xlink:href="#L" transform="matrix(1,0,0,1,845,986.5) translate(0 26.333333333333336)"/><use xlink:href="#o" transform="matrix(1,0,0,1,905,986.5) translate(0 26.333333333333336)"/><use xlink:href="#p" transform="matrix(1,0,0,1,905,986.5) translate(63.55555555555556 26.333333333333336)"/><use xlink:href="#q" transform="matrix(1,0,0,1,1175,986.5) translate(0 26.333333333333336)"/><use xlink:href="#M" transform="matrix(1,0,0,1,905,1028.5) translate(0 26.333333333333336)"/><use xlink:href="#t" transform="matrix(1,0,0,1,1175,1028.5) translate(0 26.333333333333336)"/><path d="M60 768c0-4.42 3.58-8 8-8h604c4.42 0 8 3.58 8 8v278c0 4.42-3.58 8-8 8H68c-4.42 0-8-3.58-8-8z" fill="#fff"/><path d="M60 768c0-4.42 3.58-8 8-8h604c4.42 0 8 3.58 8 8v278c0 4.42-3.58 8-8 8H68c-4.42 0-8-3.58-8-8zM60 802h620M120 802v252M400 802v252" stroke="#333" fill="none"/><use xlink:href="#N" transform="matrix(1,0,0,1,70,760) translate(0 31.333333333333336)"/><use xlink:href="#n" transform="matrix(1,0,0,1,65,804.5) translate(0 26.333333333333336)"/><use xlink:href="#O" transform="matrix(1,0,0,1,125,804.5) translate(0 26.333333333333336)"/><use xlink:href="#p" transform="matrix(1,0,0,1,125,804.5) translate(118.44444444444444 26.333333333333336)"/><use xlink:href="#q" transform="matrix(1,0,0,1,405,804.5) translate(0 26.333333333333336)"/><use xlink:href="#L" transform="matrix(1,0,0,1,65,846.5) translate(0 26.333333333333336)"/><use xlink:href="#o" transform="matrix(1,0,0,1,125,846.5) translate(0 26.333333333333336)"/><use xlink:href="#p" transform="matrix(1,0,0,1,125,846.5) translate(63.55555555555556 26.333333333333336)"/><use xlink:href="#q" transform="matrix(1,0,0,1,405,846.5) translate(0 26.333333333333336)"/><use xlink:href="#P" transform="matrix(1,0,0,1,125,888.5) translate(0 26.333333333333336)"/><use xlink:href="#Q" transform="matrix(1,0,0,1,405,888.5) translate(0 26.333333333333336)"/><use xlink:href="#R" transform="matrix(1,0,0,1,125,930.5) translate(0 26.333333333333336)"/><use xlink:href="#t" transform="matrix(1,0,0,1,405,930.5) translate(0 26.333333333333336)"/><use xlink:href="#S" transform="matrix(1,0,0,1,125,972.5) translate(0 26.333333333333336)"/><use xlink:href="#T" transform="matrix(1,0,0,1,125,972.5) translate(155.33333333333337 26.333333333333336)"/><use xlink:href="#t" transform="matrix(1,0,0,1,405,972.5) translate(0 26.333333333333336)"/><use xlink:href="#U" transform="matrix(1,0,0,1,125,1014.5) translate(0 26.333333333333336)"/><use xlink:href="#t" transform="matrix(1,0,0,1,405,1014.5) translate(0 26.333333333333336)"/><path d="M1140 704.5v175" stroke="#333" stroke-width="3" fill="none"/><path d="M1130 694.5h20M1140 684.5v20M1130 704.5h20M1150 889.5h-20M1140 899.5v-20M1150 879.5h-20" stroke="#333" stroke-width="3" fill="#fff"/><path d="M370 739.5V423c0-6.63 5.37-12 12-12h417.5" stroke="#333" stroke-width="3" fill="none"/><path d="M380 749.5h-20M370 759.5v-20M380 739.5h-20M809.5 401v20M819.5 411h-20M799.5 401v20" stroke="#333" stroke-width="3" fill="#fff"/><path d="M1694.33 411H1480.5" stroke="#333" stroke-width="3" fill="none"/><path d="M1704.33 401v20M1714.33 411h-20M1694.33 401v20M1470.5 421v-20M1460.5 411h20M1480.5 421v-20" stroke="#333" stroke-width="3" fill="#fff"/><path d="M1714.83 272c0-4.42 3.58-8 8-8h584c4.42 0 8 3.58 8 8v278c0 4.42-3.58 8-8 8h-584c-4.42 0-8-3.58-8-8z" fill="#fff"/><path d="M1714.83 272c0-4.42 3.58-8 8-8h584c4.42 0 8 3.58 8 8v278c0 4.42-3.58 8-8 8h-584c-4.42 0-8-3.58-8-8zM1714.83 306h600M1774.83 306v252M2044.83 306v252" stroke="#333" fill="none"/><use xlink:href="#V" transform="matrix(1,0,0,1,1724.8316415812487,264) translate(0 31.333333333333336)"/><use xlink:href="#n" transform="matrix(1,0,0,1,1719.8316415812487,308.5) translate(0 26.333333333333336)"/><use xlink:href="#W" transform="matrix(1,0,0,1,1779.8316415812487,308.5) translate(0 26.333333333333336)"/><use xlink:href="#p" transform="matrix(1,0,0,1,1779.8316415812487,308.5) translate(102.14814814814814 26.333333333333336)"/><use xlink:href="#q" transform="matrix(1,0,0,1,2049.8316415812487,308.5) translate(0 26.333333333333336)"/><use xlink:href="#L" transform="matrix(1,0,0,1,1719.8316415812487,350.5) translate(0 26.333333333333336)"/><use xlink:href="#o" transform="matrix(1,0,0,1,1779.8316415812487,350.5) translate(0 26.333333333333336)"/><use xlink:href="#p" transform="matrix(1,0,0,1,1779.8316415812487,350.5) translate(63.55555555555556 26.333333333333336)"/><use xlink:href="#q" transform="matrix(1,0,0,1,2049.8316415812487,350.5) translate(0 26.333333333333336)"/><use xlink:href="#X" transform="matrix(1,0,0,1,1779.8316415812487,392.5) translate(0 26.333333333333336)"/><use xlink:href="#Y" transform="matrix(1,0,0,1,1779.8316415812487,392.5) translate(121.33333333333333 26.333333333333336)"/><use xlink:href="#t" transform="matrix(1,0,0,1,2049.8316415812487,392.5) translate(0 26.333333333333336)"/><use xlink:href="#Z" transform="matrix(1,0,0,1,1779.8316415812487,434.5) translate(0 26.333333333333336)"/><use xlink:href="#aa" transform="matrix(1,0,0,1,1779.8316415812487,434.5) translate(121.33333333333333 26.333333333333336)"/><use xlink:href="#w" transform="matrix(1,0,0,1,2049.8316415812487,434.5) translate(0 26.333333333333336)"/><use xlink:href="#ab" transform="matrix(1,0,0,1,1779.8316415812487,476.5) translate(0 26.333333333333336)"/><use xlink:href="#t" transform="matrix(1,0,0,1,2049.8316415812487,476.5) translate(0 26.333333333333336)"/><use xlink:href="#ac" transform="matrix(1,0,0,1,1779.8316415812487,518.5) translate(0 26.333333333333336)"/><use xlink:href="#ad" transform="matrix(1,0,0,1,1779.8316415812487,518.5) translate(90.29629629629629 26.333333333333336)"/><use xlink:href="#ae" transform="matrix(1,0,0,1,2049.8316415812487,518.5) translate(0 26.333333333333336)"/><path d="M60 1308c0-4.42 3.58-8 8-8h604c4.42 0 8 3.58 8 8v236c0 4.42-3.58 8-8 8H68c-4.42 0-8-3.58-8-8z" fill="#fff"/><path d="M60 1308c0-4.42 3.58-8 8-8h604c4.42 0 8 3.58 8 8v236c0 4.42-3.58 8-8 8H68c-4.42 0-8-3.58-8-8zM60 1342h620M120 1342v210M400 1342v210" stroke="#333" fill="none"/><use xlink:href="#af" transform="matrix(1,0,0,1,70,1300) translate(0 31.333333333333336)"/><use xlink:href="#n" transform="matrix(1,0,0,1,65,1344.5) translate(0 26.333333333333336)"/><use xlink:href="#ag" transform="matrix(1,0,0,1,125,1344.5) translate(0 26.333333333333336)"/><use xlink:href="#p" transform="matrix(1,0,0,1,125,1344.5) translate(66.59259259259261 26.333333333333336)"/><use xlink:href="#q" transform="matrix(1,0,0,1,405,1344.5) translate(0 26.333333333333336)"/><use xlink:href="#L" transform="matrix(1,0,0,1,65,1386.5) translate(0 26.333333333333336)"/><use xlink:href="#O" transform="matrix(1,0,0,1,125,1386.5) translate(0 26.333333333333336)"/><use xlink:href="#p" transform="matrix(1,0,0,1,125,1386.5) translate(118.44444444444444 26.333333333333336)"/><use xlink:href="#q" transform="matrix(1,0,0,1,405,1386.5) translate(0 26.333333333333336)"/><use xlink:href="#ah" transform="matrix(1,0,0,1,125,1428.5) translate(0 26.333333333333336)"/><use xlink:href="#aa" transform="matrix(1,0,0,1,125,1428.5) translate(66.59259259259261 26.333333333333336)"/><use xlink:href="#w" transform="matrix(1,0,0,1,405,1428.5) translate(0 26.333333333333336)"/><use xlink:href="#ah" transform="matrix(1,0,0,1,125,1470.5) translate(0 26.333333333333336)"/><use xlink:href="#ai" transform="matrix(1,0,0,1,125,1470.5) translate(66.59259259259261 26.333333333333336)"/><use xlink:href="#t" transform="matrix(1,0,0,1,405,1470.5) translate(0 26.333333333333336)"/><use xlink:href="#ah" transform="matrix(1,0,0,1,125,1512.5) translate(0 26.333333333333336)"/><use xlink:href="#aj" transform="matrix(1,0,0,1,125,1512.5) translate(66.59259259259261 26.333333333333336)"/><use xlink:href="#t" transform="matrix(1,0,0,1,405,1512.5) translate(0 26.333333333333336)"/><path d="M370 1074.5v205" stroke="#333" stroke-width="3" fill="none"/><path d="M380 1055.17l-10 20-10-20M370 1055.17v20M360 1075.17h20M360 1298.83l10-20 10 20M370 1298.83v-20M380 1278.83h-20" stroke="#333" stroke-width="3" fill="#fff"/><path d="M894.35 1608c0-4.42 3.58-8 8-8h784c4.42 0 8 3.58 8 8v278c0 4.42-3.58 8-8 8h-784c-4.42 0-8-3.58-8-8z" fill="#fff"/><path d="M894.35 1608c0-4.42 3.58-8 8-8h784c4.42 0 8 3.58 8 8v278c0 4.42-3.58 8-8 8h-784c-4.42 0-8-3.58-8-8zM894.35 1642h800M1066.45 1642v252M1324.35 1642v252" stroke="#333" fill="none"/><use xlink:href="#ak" transform="matrix(1,0,0,1,904.3529486006496,1600) translate(0 31.333333333333336)"/><use xlink:href="#al" transform="matrix(1,0,0,1,899.3529486006496,1644.5) translate(0 26.333333333333336)"/><use xlink:href="#am" transform="matrix(1,0,0,1,899.3529486006496,1644.5) translate(50.37037037037037 26.333333333333336)"/><use xlink:href="#ag" transform="matrix(1,0,0,1,1071.4504929389855,1644.5) translate(0 26.333333333333336)"/><use xlink:href="#an" transform="matrix(1,0,0,1,1071.4504929389855,1644.5) translate(66.59259259259261 26.333333333333336)"/><use xlink:href="#q" transform="matrix(1,0,0,1,1329.3529486006496,1644.5) translate(0 26.333333333333336)"/><use xlink:href="#al" transform="matrix(1,0,0,1,899.3529486006496,1686.5) translate(0 26.333333333333336)"/><use xlink:href="#ao" transform="matrix(1,0,0,1,899.3529486006496,1686.5) translate(50.37037037037037 26.333333333333336)"/><use xlink:href="#ap" transform="matrix(1,0,0,1,1071.4504929389855,1686.5) translate(0 26.333333333333336)"/><use xlink:href="#p" transform="matrix(1,0,0,1,1071.4504929389855,1686.5) translate(159.70370370370372 26.333333333333336)"/><use xlink:href="#t" transform="matrix(1,0,0,1,1329.3529486006496,1686.5) translate(0 26.333333333333336)"/><use xlink:href="#ag" transform="matrix(1,0,0,1,1071.4504929389855,1728.5) translate(0 26.333333333333336)"/><use xlink:href="#aq" transform="matrix(1,0,0,1,1071.4504929389855,1728.5) translate(66.59259259259261 26.333333333333336)"/><use xlink:href="#t" transform="matrix(1,0,0,1,1329.3529486006496,1728.5) translate(0 26.333333333333336)"/><use xlink:href="#ar" transform="matrix(1,0,0,1,1071.4504929389855,1770.5) translate(0 26.333333333333336)"/><use xlink:href="#ae" transform="matrix(1,0,0,1,1329.3529486006496,1770.5) translate(0 26.333333333333336)"/><use xlink:href="#B" transform="matrix(1,0,0,1,1071.4504929389855,1812.5) translate(0 26.333333333333336)"/><use xlink:href="#w" transform="matrix(1,0,0,1,1329.3529486006496,1812.5) translate(0 26.333333333333336)"/><use xlink:href="#as" transform="matrix(1,0,0,1,1071.4504929389855,1854.5) translate(0 26.333333333333336)"/><use xlink:href="#w" transform="matrix(1,0,0,1,1329.3529486006496,1854.5) translate(0 26.333333333333336)"/><path d="M1644.4 948c0-4.42 3.6-8 8-8h644c4.42 0 8 3.58 8 8v320c0 4.42-3.58 8-8 8h-644c-4.4 0-8-3.58-8-8z" fill="#fff"/><path d="M1644.4 948c0-4.42 3.6-8 8-8h644c4.42 0 8 3.58 8 8v320c0 4.42-3.58 8-8 8h-644c-4.4 0-8-3.58-8-8zM1644.4 982h660M1704.4 982v294M2004.4 982v294" stroke="#333" fill="none"/><g><use xlink:href="#at" transform="matrix(1,0,0,1,1654.4065484311054,940) translate(0 31.333333333333336)"/></g><g><use xlink:href="#n" transform="matrix(1,0,0,1,1649.4065484311054,984.5) translate(0 26.333333333333336)"/></g><g><use xlink:href="#ap" transform="matrix(1,0,0,1,1709.4065484311054,984.5) translate(0 26.333333333333336)"/><use xlink:href="#an" transform="matrix(1,0,0,1,1709.4065484311054,984.5) translate(159.70370370370372 26.333333333333336)"/></g><g><use xlink:href="#q" transform="matrix(1,0,0,1,2009.4065484311054,984.5) translate(0 26.333333333333336)"/></g><g><use xlink:href="#L" transform="matrix(1,0,0,1,1649.4065484311054,1026.5) translate(0 26.333333333333336)"/></g><g><use xlink:href="#W" transform="matrix(1,0,0,1,1709.4065484311054,1026.5) translate(0 26.333333333333336)"/><use xlink:href="#p" transform="matrix(1,0,0,1,1709.4065484311054,1026.5) translate(102.14814814814814 26.333333333333336)"/></g><g><use xlink:href="#q" transform="matrix(1,0,0,1,2009.4065484311054,1026.5) translate(0 26.333333333333336)"/></g><g><use xlink:href="#au" transform="matrix(1,0,0,1,1709.4065484311054,1068.5) translate(0 26.333333333333336)"/></g><g><use xlink:href="#w" transform="matrix(1,0,0,1,2009.4065484311054,1068.5) translate(0 26.333333333333336)"/></g><g><use xlink:href="#av" transform="matrix(1,0,0,1,1709.4065484311054,1110.5) translate(0 26.333333333333336)"/><use xlink:href="#aa" transform="matrix(1,0,0,1,1709.4065484311054,1110.5) translate(90.22222222222223 26.333333333333336)"/></g><g><use xlink:href="#t" transform="matrix(1,0,0,1,2009.4065484311054,1110.5) translate(0 26.333333333333336)"/></g><g><use xlink:href="#ar" transform="matrix(1,0,0,1,1709.4065484311054,1152.5) translate(0 26.333333333333336)"/></g><g><use xlink:href="#ae" transform="matrix(1,0,0,1,2009.4065484311054,1152.5) translate(0 26.333333333333336)"/></g><g><use xlink:href="#av" transform="matrix(1,0,0,1,1709.4065484311054,1194.5) translate(0 26.333333333333336)"/><use xlink:href="#aw" transform="matrix(1,0,0,1,1709.4065484311054,1194.5) translate(90.22222222222223 26.333333333333336)"/></g><g><use xlink:href="#w" transform="matrix(1,0,0,1,2009.4065484311054,1194.5) translate(0 26.333333333333336)"/></g><g><use xlink:href="#as" transform="matrix(1,0,0,1,1709.4065484311054,1236.5) translate(0 26.333333333333336)"/></g><g><use xlink:href="#w" transform="matrix(1,0,0,1,2009.4065484311054,1236.5) translate(0 26.333333333333336)"/></g><path d="M1974.4 578.5v341" stroke="#333" stroke-width="3" fill="none"/><path d="M1984.4 559.17l-10 20-10-20M1974.4 559.17v20M1964.4 579.17h20M1964.4 938.83l10-20 10 20M1974.4 938.83v-20M1984.4 918.83h-20" stroke="#333" stroke-width="3" fill="#fff"/><path d="M1974.4 1296.5V1735c0 6.63-5.37 12-12 12h-247.55" stroke="#333" stroke-width="3" fill="none"/><path d="M1984.4 1277.17l-10 20-10-20M1974.4 1277.17v20M1964.4 1297.17h20M1695.52 1737l20 10-20 10M1695.52 1747h20M1715.52 1757v-20" stroke="#333" stroke-width="3" fill="#fff"/><path d="M370 1572.5v204.55c0 6.63 5.37 12 12 12h491.85" stroke="#333" stroke-width="3" fill="none"/><path d="M380 1553.17l-10 20-10-20M370 1553.17v20M360 1573.17h20M893.18 1799.05l-20-10 20-10M893.18 1789.05h-20M873.18 1779.05v20" stroke="#333" stroke-width="3" fill="#fff"/><defs><path fill="#333" d="M27 0v-27h64v-190l-56 39v-29l58-41h29v221h61V0H27" id="ax"/><path fill="#333" d="M33-154v-36h34v36H33zM33 0v-36h34V0H33" id="ay"/><g id="a"><use transform="matrix(0.06172839506172839,0,0,0.06172839506172839,0,0)" xlink:href="#ax"/><use transform="matrix(0.06172839506172839,0,0,0.06172839506172839,12.345679012345679,0)" xlink:href="#ay"/><use transform="matrix(0.06172839506172839,0,0,0.06172839506172839,18.51851851851852,0)" xlink:href="#ax"/></g><path d="M27 0v-27h64v-190l-56 39v-29l58-41h29v221h61V0H27" id="az"/><path d="M33 0v-38h34V0H33" id="aA"/><path d="M80-196l47-18 7 23-49 13 32 44-20 13-27-46-27 45-21-12 33-44-49-13 8-23 47 19-2-53h23" id="aB"/><g id="c"><use transform="matrix(0.06790123456790124,0,0,0.06790123456790124,0,0)" xlink:href="#az"/><use transform="matrix(0.06790123456790124,0,0,0.06790123456790124,13.580246913580249,0)" xlink:href="#aA"/><use transform="matrix(0.06790123456790124,0,0,0.06790123456790124,20.370370370370374,0)" xlink:href="#aB"/></g><g id="d"><use transform="matrix(0.06790123456790124,0,0,0.06790123456790124,0,0)" xlink:href="#az"/><use transform="matrix(0.06790123456790124,0,0,0.06790123456790124,13.580246913580249,0)" xlink:href="#aA"/><use transform="matrix(0.06790123456790124,0,0,0.06790123456790124,20.370370370370374,0)" xlink:href="#az"/></g><g id="f"><use transform="matrix(0.05925925925925927,0,0,0.05925925925925927,0,0)" xlink:href="#az"/><use transform="matrix(0.05925925925925927,0,0,0.05925925925925927,11.851851851851853,0)" xlink:href="#aA"/><use transform="matrix(0.05925925925925927,0,0,0.05925925925925927,17.77777777777778,0)" xlink:href="#az"/></g><path fill="#b2b2b2" d="M24 0v-248h195v40H76v63h132v40H76v65h150V0H24" id="aC"/><path fill="#b2b2b2" d="M240-174c0 40-23 61-54 70L253 0h-59l-57-94H76V0H24v-248c93 4 217-23 216 74zM76-134c48-2 112 12 112-38 0-48-66-32-112-35v73" id="aD"/><g id="g"><use transform="matrix(0.07407407407407408,0,0,0.07407407407407408,0,0)" xlink:href="#aC"/><use transform="matrix(0.07407407407407408,0,0,0.07407407407407408,17.77777777777778,0)" xlink:href="#aD"/></g><path fill="#b2b2b2" d="M185-48c-13 30-37 53-82 52C43 2 14-33 14-96s30-98 90-98c62 0 83 45 84 108H66c0 31 8 55 39 56 18 0 30-7 34-22zm-45-69c5-46-57-63-70-21-2 6-4 13-4 21h74" id="aE"/><path fill="#b2b2b2" d="M25 0v-261h50V0H25" id="aF"/><path fill="#b2b2b2" d="M133-34C117-15 103 5 69 4 32 3 11-16 11-54c-1-60 55-63 116-61 1-26-3-47-28-47-18 1-26 9-28 27l-52-2c7-38 36-58 82-57s74 22 75 68l1 82c-1 14 12 18 25 15v27c-30 8-71 5-69-32zm-48 3c29 0 43-24 42-57-32 0-66-3-65 30 0 17 8 27 23 27" id="aG"/><path fill="#b2b2b2" d="M115-3C79 11 28 4 28-45v-112H4v-33h27l15-45h31v45h36v33H77v99c-1 23 16 31 38 25v30" id="aH"/><path fill="#b2b2b2" d="M25-224v-37h50v37H25zM25 0v-190h50V0H25" id="aI"/><path fill="#b2b2b2" d="M110-194c64 0 96 36 96 99 0 64-35 99-97 99-61 0-95-36-95-99 0-62 34-99 96-99zm-1 164c35 0 45-28 45-65 0-40-10-65-43-65-34 0-45 26-45 65 0 36 10 65 43 65" id="aJ"/><path fill="#b2b2b2" d="M135-194c87-1 58 113 63 194h-50c-7-57 23-157-34-157-59 0-34 97-39 157H25l-1-190h47c2 12-1 28 3 38 12-26 28-41 61-42" id="aK"/><path fill="#b2b2b2" d="M137-138c1-29-70-34-71-4 15 46 118 7 119 86 1 83-164 76-172 9l43-7c4 19 20 25 44 25 33 8 57-30 24-41C81-84 22-81 20-136c-2-80 154-74 161-7" id="aL"/><path fill="#b2b2b2" d="M114-157C55-157 80-60 75 0H25v-261h50l-1 109c12-26 28-41 61-42 86-1 58 113 63 194h-50c-7-57 23-157-34-157" id="aM"/><path fill="#b2b2b2" d="M135-194c53 0 70 44 70 98 0 56-19 98-73 100-31 1-45-17-59-34 3 33 2 69 2 105H25l-1-265h48c2 10 0 23 3 31 11-24 29-35 60-35zM114-30c33 0 39-31 40-66 0-38-9-64-40-64-56 0-55 130 0 130" id="aN"/><g id="h"><use transform="matrix(0.07407407407407408,0,0,0.07407407407407408,0,0)" xlink:href="#aD"/><use transform="matrix(0.07407407407407408,0,0,0.07407407407407408,19.185185185185187,0)" xlink:href="#aE"/><use transform="matrix(0.07407407407407408,0,0,0.07407407407407408,34,0)" xlink:href="#aF"/><use transform="matrix(0.07407407407407408,0,0,0.07407407407407408,41.407407407407405,0)" xlink:href="#aG"/><use transform="matrix(0.07407407407407408,0,0,0.07407407407407408,56.22222222222222,0)" xlink:href="#aH"/><use transform="matrix(0.07407407407407408,0,0,0.07407407407407408,65.03703703703704,0)" xlink:href="#aI"/><use transform="matrix(0.07407407407407408,0,0,0.07407407407407408,72.44444444444444,0)" xlink:href="#aJ"/><use transform="matrix(0.07407407407407408,0,0,0.07407407407407408,88.66666666666667,0)" xlink:href="#aK"/><use transform="matrix(0.07407407407407408,0,0,0.07407407407407408,104.8888888888889,0)" xlink:href="#aL"/><use transform="matrix(0.07407407407407408,0,0,0.07407407407407408,119.70370370370372,0)" xlink:href="#aM"/><use transform="matrix(0.07407407407407408,0,0,0.07407407407407408,135.92592592592595,0)" xlink:href="#aI"/><use transform="matrix(0.07407407407407408,0,0,0.07407407407407408,143.33333333333337,0)" xlink:href="#aN"/></g><path fill="#b2b2b2" d="M212-179c-10-28-35-45-73-45-59 0-87 40-87 99 0 60 29 101 89 101 43 0 62-24 78-52l27 14C228-24 195 4 139 4 59 4 22-46 18-125c-6-104 99-153 187-111 19 9 31 26 39 46" id="aO"/><path fill="#b2b2b2" d="M114-163C36-179 61-72 57 0H25l-1-190h30c1 12-1 29 2 39 6-27 23-49 58-41v29" id="aP"/><path fill="#b2b2b2" d="M100-194c62-1 85 37 85 99 1 63-27 99-86 99S16-35 15-95c0-66 28-99 85-99zM99-20c44 1 53-31 53-75 0-43-8-75-51-75s-53 32-53 75 10 74 51 75" id="aQ"/><path fill="#b2b2b2" d="M206 0h-36l-40-164L89 0H53L-1-190h32L70-26l43-164h34l41 164 42-164h31" id="aR"/><path fill="#b2b2b2" d="M58-248c1 32-1 62-14 81H22c9-13 17-27 17-46H23v-35h35" id="aS"/><path fill="#b2b2b2" d="M135-143c-3-34-86-38-87 0 15 53 115 12 119 90S17 21 10-45l28-5c4 36 97 45 98 0-10-56-113-15-118-90-4-57 82-63 122-42 12 7 21 19 24 35" id="aT"/><g id="j"><use transform="matrix(0.07407407407407408,0,0,0.07407407407407408,0,0)" xlink:href="#aO"/><use transform="matrix(0.07407407407407408,0,0,0.07407407407407408,19.185185185185187,0)" xlink:href="#aP"/><use transform="matrix(0.07407407407407408,0,0,0.07407407407407408,28.000000000000004,0)" xlink:href="#aQ"/><use transform="matrix(0.07407407407407408,0,0,0.07407407407407408,42.814814814814824,0)" xlink:href="#aR"/><use transform="matrix(0.07407407407407408,0,0,0.07407407407407408,62.000000000000014,0)" xlink:href="#aS"/><use transform="matrix(0.07407407407407408,0,0,0.07407407407407408,67.33333333333334,0)" xlink:href="#aT"/></g><path fill="#b2b2b2" d="M63-220v92h138v28H63V0H30v-248h175v28H63" id="aU"/><path fill="#b2b2b2" d="M59-47c-2 24 18 29 38 22v24C64 9 27 4 27-40v-127H5v-23h24l9-43h21v43h35v23H59v120" id="aV"/><g id="k"><use transform="matrix(0.07407407407407408,0,0,0.07407407407407408,0,0)" xlink:href="#aU"/><use transform="matrix(0.07407407407407408,0,0,0.07407407407407408,16.222222222222225,0)" xlink:href="#aQ"/><use transform="matrix(0.07407407407407408,0,0,0.07407407407407408,31.03703703703704,0)" xlink:href="#aQ"/><use transform="matrix(0.07407407407407408,0,0,0.07407407407407408,45.851851851851855,0)" xlink:href="#aV"/></g><path fill="#b2b2b2" d="M117-194c89-4 53 116 60 194h-32v-121c0-31-8-49-39-48C34-167 62-67 57 0H25l-1-190h30c1 10-1 24 2 32 11-22 29-35 61-36" id="aW"/><path fill="#b2b2b2" d="M141-36C126-15 110 5 73 4 37 3 15-17 15-53c-1-64 63-63 125-63 3-35-9-54-41-54-24 1-41 7-42 31l-33-3c5-37 33-52 76-52 45 0 72 20 72 64v82c-1 20 7 32 28 27v20c-31 9-61-2-59-35zM48-53c0 20 12 33 32 33 41-3 63-29 60-74-43 2-92-5-92 41" id="aX"/><path fill="#b2b2b2" d="M24-231v-30h32v30H24zM24 0v-190h32V0H24" id="aY"/><g id="l"><use transform="matrix(0.07407407407407408,0,0,0.07407407407407408,0,0)" xlink:href="#aW"/><use transform="matrix(0.07407407407407408,0,0,0.07407407407407408,14.814814814814817,0)" xlink:href="#aQ"/><use transform="matrix(0.07407407407407408,0,0,0.07407407407407408,29.629629629629633,0)" xlink:href="#aV"/><use transform="matrix(0.07407407407407408,0,0,0.07407407407407408,37.03703703703704,0)" xlink:href="#aX"/><use transform="matrix(0.07407407407407408,0,0,0.07407407407407408,51.85185185185186,0)" xlink:href="#aV"/><use transform="matrix(0.07407407407407408,0,0,0.07407407407407408,59.25925925925927,0)" xlink:href="#aY"/><use transform="matrix(0.07407407407407408,0,0,0.07407407407407408,65.11111111111111,0)" xlink:href="#aQ"/><use transform="matrix(0.07407407407407408,0,0,0.07407407407407408,79.92592592592592,0)" xlink:href="#aW"/></g><path fill="#333" d="M233-177c-1 41-23 64-60 70L243 0h-38l-65-103H63V0H30v-248c88 3 205-21 203 71zM63-129c60-2 137 13 137-47 0-61-80-42-137-45v92" id="aZ"/><path fill="#333" d="M100-194c63 0 86 42 84 106H49c0 40 14 67 53 68 26 1 43-12 49-29l28 8c-11 28-37 45-77 45C44 4 14-33 15-96c1-61 26-98 85-98zm52 81c6-60-76-77-97-28-3 7-6 17-6 28h103" id="ba"/><path fill="#333" d="M177-190C167-65 218 103 67 71c-23-6-38-20-44-43l32-5c15 47 100 32 89-28v-30C133-14 115 1 83 1 29 1 15-40 15-95c0-56 16-97 71-98 29-1 48 16 59 35 1-10 0-23 2-32h30zM94-22c36 0 50-32 50-73 0-42-14-75-50-75-39 0-46 34-46 75s6 73 46 73" id="bb"/><path fill="#333" d="M30-248c118-7 216 8 213 122C240-48 200 0 122 0H30v-248zM63-27c89 8 146-16 146-99s-60-101-146-95v194" id="bc"/><path fill="#333" d="M59-47c-2 24 18 29 38 22v24C64 9 27 4 27-40v-127H5v-23h24l9-43h21v43h35v23H59v120" id="bd"/><path fill="#333" d="M141-36C126-15 110 5 73 4 37 3 15-17 15-53c-1-64 63-63 125-63 3-35-9-54-41-54-24 1-41 7-42 31l-33-3c5-37 33-52 76-52 45 0 72 20 72 64v82c-1 20 7 32 28 27v20c-31 9-61-2-59-35zM48-53c0 20 12 33 32 33 41-3 63-29 60-74-43 2-92-5-92 41" id="be"/><path fill="#333" d="M24-231v-30h32v30H24zM24 0v-190h32V0H24" id="bf"/><path fill="#333" d="M24 0v-261h32V0H24" id="bg"/><path fill="#333" d="M135-143c-3-34-86-38-87 0 15 53 115 12 119 90S17 21 10-45l28-5c4 36 97 45 98 0-10-56-113-15-118-90-4-57 82-63 122-42 12 7 21 19 24 35" id="bh"/><g id="m"><use transform="matrix(0.07407407407407408,0,0,0.07407407407407408,0,0)" xlink:href="#aZ"/><use transform="matrix(0.07407407407407408,0,0,0.07407407407407408,19.185185185185187,0)" xlink:href="#ba"/><use transform="matrix(0.07407407407407408,0,0,0.07407407407407408,34,0)" xlink:href="#bb"/><use transform="matrix(0.07407407407407408,0,0,0.07407407407407408,48.81481481481481,0)" xlink:href="#bc"/><use transform="matrix(0.07407407407407408,0,0,0.07407407407407408,68,0)" xlink:href="#ba"/><use transform="matrix(0.07407407407407408,0,0,0.07407407407407408,82.81481481481481,0)" xlink:href="#bd"/><use transform="matrix(0.07407407407407408,0,0,0.07407407407407408,90.22222222222221,0)" xlink:href="#be"/><use transform="matrix(0.07407407407407408,0,0,0.07407407407407408,105.03703703703704,0)" xlink:href="#bf"/><use transform="matrix(0.07407407407407408,0,0,0.07407407407407408,110.88888888888889,0)" xlink:href="#bg"/><use transform="matrix(0.07407407407407408,0,0,0.07407407407407408,116.74074074074073,0)" xlink:href="#bh"/></g><path fill="#333" d="M30-248c87 1 191-15 191 75 0 78-77 80-158 76V0H30v-248zm33 125c57 0 124 11 124-50 0-59-68-47-124-48v98" id="bi"/><path fill="#333" d="M194 0L95-120 63-95V0H30v-248h33v124l119-124h40L117-140 236 0h-42" id="bj"/><g id="n"><use transform="matrix(0.07407407407407408,0,0,0.07407407407407408,0,0)" xlink:href="#bi"/><use transform="matrix(0.07407407407407408,0,0,0.07407407407407408,17.77777777777778,0)" xlink:href="#bj"/></g><path fill="#333" d="M232-93c-1 65-40 97-104 97C67 4 28-28 28-90v-158h33c8 89-33 224 67 224 102 0 64-133 71-224h33v155" id="bk"/><path fill="#333" d="M114-163C36-179 61-72 57 0H25l-1-190h30c1 12-1 29 2 39 6-27 23-49 58-41v29" id="bl"/><g id="o"><use transform="matrix(0.07407407407407408,0,0,0.07407407407407408,0,0)" xlink:href="#bk"/><use transform="matrix(0.07407407407407408,0,0,0.07407407407407408,19.185185185185187,0)" xlink:href="#bh"/><use transform="matrix(0.07407407407407408,0,0,0.07407407407407408,32.51851851851852,0)" xlink:href="#ba"/><use transform="matrix(0.07407407407407408,0,0,0.07407407407407408,47.33333333333334,0)" xlink:href="#bl"/></g><path fill="#333" d="M33 0v-248h34V0H33" id="bm"/><g id="p"><use transform="matrix(0.07407407407407408,0,0,0.07407407407407408,0,0)" xlink:href="#bm"/><use transform="matrix(0.07407407407407408,0,0,0.07407407407407408,7.407407407407408,0)" xlink:href="#bc"/></g><path fill="#333" d="M117-194c89-4 53 116 60 194h-32v-121c0-31-8-49-39-48C34-167 62-67 57 0H25l-1-190h30c1 10-1 24 2 32 11-22 29-35 61-36" id="bn"/><g id="q"><use transform="matrix(0.07407407407407408,0,0,0.07407407407407408,0,0)" xlink:href="#bf"/><use transform="matrix(0.07407407407407408,0,0,0.07407407407407408,5.851851851851853,0)" xlink:href="#bn"/><use transform="matrix(0.07407407407407408,0,0,0.07407407407407408,20.666666666666668,0)" xlink:href="#bd"/></g><path fill="#333" d="M63-220v92h138v28H63V0H30v-248h175v28H63" id="bo"/><g id="r"><use transform="matrix(0.07407407407407408,0,0,0.07407407407407408,0,0)" xlink:href="#bo"/><use transform="matrix(0.07407407407407408,0,0,0.07407407407407408,16.222222222222225,0)" xlink:href="#bf"/><use transform="matrix(0.07407407407407408,0,0,0.07407407407407408,22.074074074074076,0)" xlink:href="#bl"/><use transform="matrix(0.07407407407407408,0,0,0.07407407407407408,30.888888888888893,0)" xlink:href="#bh"/><use transform="matrix(0.07407407407407408,0,0,0.07407407407407408,44.22222222222223,0)" xlink:href="#bd"/></g><path fill="#333" d="M190 0L58-211 59 0H30v-248h39L202-35l-2-213h31V0h-41" id="bp"/><path fill="#333" d="M210-169c-67 3-38 105-44 169h-31v-121c0-29-5-50-35-48C34-165 62-65 56 0H25l-1-190h30c1 10-1 24 2 32 10-44 99-50 107 0 11-21 27-35 58-36 85-2 47 119 55 194h-31v-121c0-29-5-49-35-48" id="bq"/><g id="s"><use transform="matrix(0.07407407407407408,0,0,0.07407407407407408,0,0)" xlink:href="#bp"/><use transform="matrix(0.07407407407407408,0,0,0.07407407407407408,19.185185185185187,0)" xlink:href="#be"/><use transform="matrix(0.07407407407407408,0,0,0.07407407407407408,34,0)" xlink:href="#bq"/><use transform="matrix(0.07407407407407408,0,0,0.07407407407407408,56.14814814814815,0)" xlink:href="#ba"/></g><path fill="#333" d="M108 0H70L1-190h34L89-25l56-165h34" id="br"/><path fill="#333" d="M96-169c-40 0-48 33-48 73s9 75 48 75c24 0 41-14 43-38l32 2c-6 37-31 61-74 61-59 0-76-41-82-99-10-93 101-131 147-64 4 7 5 14 7 22l-32 3c-4-21-16-35-41-35" id="bs"/><path fill="#333" d="M106-169C34-169 62-67 57 0H25v-261h32l-1 103c12-21 28-36 61-36 89 0 53 116 60 194h-32v-121c2-32-8-49-39-48" id="bt"/><g id="t"><use transform="matrix(0.07407407407407408,0,0,0.07407407407407408,0,0)" xlink:href="#br"/><use transform="matrix(0.07407407407407408,0,0,0.07407407407407408,13.333333333333336,0)" xlink:href="#be"/><use transform="matrix(0.07407407407407408,0,0,0.07407407407407408,28.148148148148152,0)" xlink:href="#bl"/><use transform="matrix(0.07407407407407408,0,0,0.07407407407407408,36.96296296296297,0)" xlink:href="#bs"/><use transform="matrix(0.07407407407407408,0,0,0.07407407407407408,50.296296296296305,0)" xlink:href="#bt"/><use transform="matrix(0.07407407407407408,0,0,0.07407407407407408,65.11111111111111,0)" xlink:href="#be"/><use transform="matrix(0.07407407407407408,0,0,0.07407407407407408,79.92592592592592,0)" xlink:href="#bl"/></g><path fill="#333" d="M30 0v-248h33v221h125V0H30" id="bu"/><g id="u"><use transform="matrix(0.07407407407407408,0,0,0.07407407407407408,0,0)" xlink:href="#bu"/><use transform="matrix(0.07407407407407408,0,0,0.07407407407407408,14.814814814814817,0)" xlink:href="#be"/><use transform="matrix(0.07407407407407408,0,0,0.07407407407407408,29.629629629629633,0)" xlink:href="#bh"/><use transform="matrix(0.07407407407407408,0,0,0.07407407407407408,42.96296296296297,0)" xlink:href="#bd"/></g><path d="M30-248c87 1 191-15 191 75 0 78-77 80-158 76V0H30v-248zm33 125c57 0 124 11 124-50 0-59-68-47-124-48v98" id="bv"/><path d="M141-36C126-15 110 5 73 4 37 3 15-17 15-53c-1-64 63-63 125-63 3-35-9-54-41-54-24 1-41 7-42 31l-33-3c5-37 33-52 76-52 45 0 72 20 72 64v82c-1 20 7 32 28 27v20c-31 9-61-2-59-35zM48-53c0 20 12 33 32 33 41-3 63-29 60-74-43 2-92-5-92 41" id="bw"/><path d="M135-143c-3-34-86-38-87 0 15 53 115 12 119 90S17 21 10-45l28-5c4 36 97 45 98 0-10-56-113-15-118-90-4-57 82-63 122-42 12 7 21 19 24 35" id="bx"/><path d="M206 0h-36l-40-164L89 0H53L-1-190h32L70-26l43-164h34l41 164 42-164h31" id="by"/><path d="M100-194c62-1 85 37 85 99 1 63-27 99-86 99S16-35 15-95c0-66 28-99 85-99zM99-20c44 1 53-31 53-75 0-43-8-75-51-75s-53 32-53 75 10 74 51 75" id="bz"/><path d="M114-163C36-179 61-72 57 0H25l-1-190h30c1 12-1 29 2 39 6-27 23-49 58-41v29" id="bA"/><path d="M85-194c31 0 48 13 60 33l-1-100h32l1 261h-30c-2-10 0-23-3-31C134-8 116 4 85 4 32 4 16-35 15-94c0-66 23-100 70-100zm9 24c-40 0-46 34-46 75 0 40 6 74 45 74 42 0 51-32 51-76 0-42-9-74-50-73" id="bB"/><g id="v"><use transform="matrix(0.07407407407407408,0,0,0.07407407407407408,0,0)" xlink:href="#bv"/><use transform="matrix(0.07407407407407408,0,0,0.07407407407407408,17.77777777777778,0)" xlink:href="#bw"/><use transform="matrix(0.07407407407407408,0,0,0.07407407407407408,32.592592592592595,0)" xlink:href="#bx"/><use transform="matrix(0.07407407407407408,0,0,0.07407407407407408,45.92592592592593,0)" xlink:href="#bx"/><use transform="matrix(0.07407407407407408,0,0,0.07407407407407408,59.25925925925927,0)" xlink:href="#by"/><use transform="matrix(0.07407407407407408,0,0,0.07407407407407408,78.44444444444446,0)" xlink:href="#bz"/><use transform="matrix(0.07407407407407408,0,0,0.07407407407407408,93.25925925925927,0)" xlink:href="#bA"/><use transform="matrix(0.07407407407407408,0,0,0.07407407407407408,102.07407407407408,0)" xlink:href="#bB"/></g><path d="M108 0H70L1-190h34L89-25l56-165h34" id="bC"/><path d="M96-169c-40 0-48 33-48 73s9 75 48 75c24 0 41-14 43-38l32 2c-6 37-31 61-74 61-59 0-76-41-82-99-10-93 101-131 147-64 4 7 5 14 7 22l-32 3c-4-21-16-35-41-35" id="bD"/><path d="M106-169C34-169 62-67 57 0H25v-261h32l-1 103c12-21 28-36 61-36 89 0 53 116 60 194h-32v-121c2-32-8-49-39-48" id="bE"/><g id="w"><use transform="matrix(0.07407407407407408,0,0,0.07407407407407408,0,0)" xlink:href="#bC"/><use transform="matrix(0.07407407407407408,0,0,0.07407407407407408,13.333333333333336,0)" xlink:href="#bw"/><use transform="matrix(0.07407407407407408,0,0,0.07407407407407408,28.148148148148152,0)" xlink:href="#bA"/><use transform="matrix(0.07407407407407408,0,0,0.07407407407407408,36.96296296296297,0)" xlink:href="#bD"/><use transform="matrix(0.07407407407407408,0,0,0.07407407407407408,50.296296296296305,0)" xlink:href="#bE"/><use transform="matrix(0.07407407407407408,0,0,0.07407407407407408,65.11111111111111,0)" xlink:href="#bw"/><use transform="matrix(0.07407407407407408,0,0,0.07407407407407408,79.92592592592592,0)" xlink:href="#bA"/></g><path d="M30 0v-248h187v28H63v79h144v27H63v87h162V0H30" id="bF"/><path d="M210-169c-67 3-38 105-44 169h-31v-121c0-29-5-50-35-48C34-165 62-65 56 0H25l-1-190h30c1 10-1 24 2 32 10-44 99-50 107 0 11-21 27-35 58-36 85-2 47 119 55 194h-31v-121c0-29-5-49-35-48" id="bG"/><path d="M24-231v-30h32v30H24zM24 0v-190h32V0H24" id="bH"/><path d="M24 0v-261h32V0H24" id="bI"/><g id="x"><use transform="matrix(0.07407407407407408,0,0,0.07407407407407408,0,0)" xlink:href="#bF"/><use transform="matrix(0.07407407407407408,0,0,0.07407407407407408,17.77777777777778,0)" xlink:href="#bG"/><use transform="matrix(0.07407407407407408,0,0,0.07407407407407408,39.92592592592593,0)" xlink:href="#bw"/><use transform="matrix(0.07407407407407408,0,0,0.07407407407407408,54.74074074074075,0)" xlink:href="#bH"/><use transform="matrix(0.07407407407407408,0,0,0.07407407407407408,60.5925925925926,0)" xlink:href="#bI"/></g><path d="M205 0l-28-72H64L36 0H1l101-248h38L239 0h-34zm-38-99l-47-123c-12 45-31 82-46 123h93" id="bJ"/><path d="M100-194c63 0 86 42 84 106H49c0 40 14 67 53 68 26 1 43-12 49-29l28 8c-11 28-37 45-77 45C44 4 14-33 15-96c1-61 26-98 85-98zm52 81c6-60-76-77-97-28-3 7-6 17-6 28h103" id="bK"/><g id="y"><use transform="matrix(0.07407407407407408,0,0,0.07407407407407408,0,0)" xlink:href="#bJ"/><use transform="matrix(0.07407407407407408,0,0,0.07407407407407408,17.77777777777778,0)" xlink:href="#bB"/><use transform="matrix(0.07407407407407408,0,0,0.07407407407407408,32.592592592592595,0)" xlink:href="#bB"/><use transform="matrix(0.07407407407407408,0,0,0.07407407407407408,47.40740740740741,0)" xlink:href="#bA"/><use transform="matrix(0.07407407407407408,0,0,0.07407407407407408,56.22222222222223,0)" xlink:href="#bK"/><use transform="matrix(0.07407407407407408,0,0,0.07407407407407408,71.03703703703704,0)" xlink:href="#bx"/><use transform="matrix(0.07407407407407408,0,0,0.07407407407407408,84.37037037037038,0)" xlink:href="#bx"/></g><path d="M212-179c-10-28-35-45-73-45-59 0-87 40-87 99 0 60 29 101 89 101 43 0 62-24 78-52l27 14C228-24 195 4 139 4 59 4 22-46 18-125c-6-104 99-153 187-111 19 9 31 26 39 46" id="bL"/><path d="M117-194c89-4 53 116 60 194h-32v-121c0-31-8-49-39-48C34-167 62-67 57 0H25l-1-190h30c1 10-1 24 2 32 11-22 29-35 61-36" id="bM"/><path d="M101-234c-31-9-42 10-38 44h38v23H63V0H32v-167H5v-23h27c-7-52 17-82 69-68v24" id="bN"/><g id="z"><use transform="matrix(0.07407407407407408,0,0,0.07407407407407408,0,0)" xlink:href="#bL"/><use transform="matrix(0.07407407407407408,0,0,0.07407407407407408,19.185185185185187,0)" xlink:href="#bz"/><use transform="matrix(0.07407407407407408,0,0,0.07407407407407408,34,0)" xlink:href="#bM"/><use transform="matrix(0.07407407407407408,0,0,0.07407407407407408,48.81481481481481,0)" xlink:href="#bN"/><use transform="matrix(0.07407407407407408,0,0,0.07407407407407408,56.22222222222223,0)" xlink:href="#bH"/><use transform="matrix(0.07407407407407408,0,0,0.07407407407407408,62.07407407407408,0)" xlink:href="#bA"/><use transform="matrix(0.07407407407407408,0,0,0.07407407407407408,70.8888888888889,0)" xlink:href="#bG"/></g><g id="A"><use transform="matrix(0.07407407407407408,0,0,0.07407407407407408,0,0)" xlink:href="#bv"/><use transform="matrix(0.07407407407407408,0,0,0.07407407407407408,17.77777777777778,0)" xlink:href="#bw"/><use transform="matrix(0.07407407407407408,0,0,0.07407407407407408,32.592592592592595,0)" xlink:href="#bx"/><use transform="matrix(0.07407407407407408,0,0,0.07407407407407408,45.92592592592593,0)" xlink:href="#bx"/><use transform="matrix(0.07407407407407408,0,0,0.07407407407407408,59.25925925925927,0)" xlink:href="#by"/><use transform="matrix(0.07407407407407408,0,0,0.07407407407407408,78.44444444444446,0)" xlink:href="#bz"/><use transform="matrix(0.07407407407407408,0,0,0.07407407407407408,93.25925925925927,0)" xlink:href="#bA"/><use transform="matrix(0.07407407407407408,0,0,0.07407407407407408,102.07407407407408,0)" xlink:href="#bB"/></g><path d="M127-220V0H93v-220H8v-28h204v28h-85" id="bO"/><path d="M179-190L93 31C79 59 56 82 12 73V49c39 6 53-20 64-50L1-190h34L92-34l54-156h33" id="bP"/><path d="M115-194c55 1 70 41 70 98S169 2 115 4C84 4 66-9 55-30l1 105H24l-1-265h31l2 30c10-21 28-34 59-34zm-8 174c40 0 45-34 45-75s-6-73-45-74c-42 0-51 32-51 76 0 43 10 73 51 73" id="bQ"/><g id="B"><use transform="matrix(0.07407407407407408,0,0,0.07407407407407408,0,0)" xlink:href="#bO"/><use transform="matrix(0.07407407407407408,0,0,0.07407407407407408,14.740740740740744,0)" xlink:href="#bP"/><use transform="matrix(0.07407407407407408,0,0,0.07407407407407408,28.074074074074076,0)" xlink:href="#bQ"/><use transform="matrix(0.07407407407407408,0,0,0.07407407407407408,42.8888888888889,0)" xlink:href="#bK"/></g><g id="C"><use transform="matrix(0.07407407407407408,0,0,0.07407407407407408,0,0)" xlink:href="#bJ"/><use transform="matrix(0.07407407407407408,0,0,0.07407407407407408,17.77777777777778,0)" xlink:href="#bB"/><use transform="matrix(0.07407407407407408,0,0,0.07407407407407408,32.592592592592595,0)" xlink:href="#bB"/><use transform="matrix(0.07407407407407408,0,0,0.07407407407407408,47.40740740740741,0)" xlink:href="#bA"/><use transform="matrix(0.07407407407407408,0,0,0.07407407407407408,56.22222222222223,0)" xlink:href="#bK"/><use transform="matrix(0.07407407407407408,0,0,0.07407407407407408,71.03703703703704,0)" xlink:href="#bx"/><use transform="matrix(0.07407407407407408,0,0,0.07407407407407408,84.37037037037038,0)" xlink:href="#bx"/></g><path d="M209 0H11v-25l151-195H24v-28h176v25L50-27h159V0" id="bR"/><g id="D"><use transform="matrix(0.07407407407407408,0,0,0.07407407407407408,0,0)" xlink:href="#bR"/><use transform="matrix(0.07407407407407408,0,0,0.07407407407407408,16.222222222222225,0)" xlink:href="#bH"/><use transform="matrix(0.07407407407407408,0,0,0.07407407407407408,22.074074074074076,0)" xlink:href="#bQ"/></g><g id="E"><use transform="matrix(0.07407407407407408,0,0,0.07407407407407408,0,0)" xlink:href="#bL"/><use transform="matrix(0.07407407407407408,0,0,0.07407407407407408,19.185185185185187,0)" xlink:href="#bz"/><use transform="matrix(0.07407407407407408,0,0,0.07407407407407408,34,0)" xlink:href="#bB"/><use transform="matrix(0.07407407407407408,0,0,0.07407407407407408,48.81481481481481,0)" xlink:href="#bK"/></g><path d="M59-47c-2 24 18 29 38 22v24C64 9 27 4 27-40v-127H5v-23h24l9-43h21v43h35v23H59v120" id="bS"/><g id="F"><use transform="matrix(0.07407407407407408,0,0,0.07407407407407408,0,0)" xlink:href="#bH"/><use transform="matrix(0.07407407407407408,0,0,0.07407407407407408,5.851851851851853,0)" xlink:href="#bM"/><use transform="matrix(0.07407407407407408,0,0,0.07407407407407408,20.666666666666668,0)" xlink:href="#bS"/></g><g id="G"><use transform="matrix(0.07407407407407408,0,0,0.07407407407407408,0,0)" xlink:href="#bv"/><use transform="matrix(0.07407407407407408,0,0,0.07407407407407408,17.77777777777778,0)" xlink:href="#bE"/><use transform="matrix(0.07407407407407408,0,0,0.07407407407407408,32.592592592592595,0)" xlink:href="#bz"/><use transform="matrix(0.07407407407407408,0,0,0.07407407407407408,47.40740740740741,0)" xlink:href="#bM"/><use transform="matrix(0.07407407407407408,0,0,0.07407407407407408,62.22222222222223,0)" xlink:href="#bK"/></g><path d="M190 0L58-211 59 0H30v-248h39L202-35l-2-213h31V0h-41" id="bT"/><path d="M84 4C-5 8 30-112 23-190h32v120c0 31 7 50 39 49 72-2 45-101 50-169h31l1 190h-30c-1-10 1-25-2-33-11 22-28 36-60 37" id="bU"/><path d="M115-194c53 0 69 39 70 98 0 66-23 100-70 100C84 3 66-7 56-30L54 0H23l1-261h32v101c10-23 28-34 59-34zm-8 174c40 0 45-34 45-75 0-40-5-75-45-74-42 0-51 32-51 76 0 43 10 73 51 73" id="bV"/><g id="H"><use transform="matrix(0.07407407407407408,0,0,0.07407407407407408,0,0)" xlink:href="#bT"/><use transform="matrix(0.07407407407407408,0,0,0.07407407407407408,19.185185185185187,0)" xlink:href="#bU"/><use transform="matrix(0.07407407407407408,0,0,0.07407407407407408,34,0)" xlink:href="#bG"/><use transform="matrix(0.07407407407407408,0,0,0.07407407407407408,56.14814814814815,0)" xlink:href="#bV"/><use transform="matrix(0.07407407407407408,0,0,0.07407407407407408,70.96296296296296,0)" xlink:href="#bK"/><use transform="matrix(0.07407407407407408,0,0,0.07407407407407408,85.77777777777777,0)" xlink:href="#bA"/></g><g id="I"><use transform="matrix(0.07407407407407408,0,0,0.07407407407407408,0,0)" xlink:href="#bv"/><use transform="matrix(0.07407407407407408,0,0,0.07407407407407408,17.77777777777778,0)" xlink:href="#bA"/><use transform="matrix(0.07407407407407408,0,0,0.07407407407407408,26.592592592592595,0)" xlink:href="#bz"/><use transform="matrix(0.07407407407407408,0,0,0.07407407407407408,41.40740740740741,0)" xlink:href="#bC"/><use transform="matrix(0.07407407407407408,0,0,0.07407407407407408,54.74074074074075,0)" xlink:href="#bH"/><use transform="matrix(0.07407407407407408,0,0,0.07407407407407408,60.5925925925926,0)" xlink:href="#bM"/><use transform="matrix(0.07407407407407408,0,0,0.07407407407407408,75.40740740740742,0)" xlink:href="#bD"/><use transform="matrix(0.07407407407407408,0,0,0.07407407407407408,88.74074074074078,0)" xlink:href="#bK"/></g><path fill="#333" d="M206 0h-36l-40-164L89 0H53L-1-190h32L70-26l43-164h34l41 164 42-164h31" id="bW"/><path fill="#333" d="M100-194c62-1 85 37 85 99 1 63-27 99-86 99S16-35 15-95c0-66 28-99 85-99zM99-20c44 1 53-31 53-75 0-43-8-75-51-75s-53 32-53 75 10 74 51 75" id="bX"/><g id="J"><use transform="matrix(0.07407407407407408,0,0,0.07407407407407408,0,0)" xlink:href="#aZ"/><use transform="matrix(0.07407407407407408,0,0,0.07407407407407408,19.185185185185187,0)" xlink:href="#ba"/><use transform="matrix(0.07407407407407408,0,0,0.07407407407407408,34,0)" xlink:href="#br"/><use transform="matrix(0.07407407407407408,0,0,0.07407407407407408,47.33333333333334,0)" xlink:href="#bf"/><use transform="matrix(0.07407407407407408,0,0,0.07407407407407408,53.18518518518519,0)" xlink:href="#ba"/><use transform="matrix(0.07407407407407408,0,0,0.07407407407407408,68,0)" xlink:href="#bW"/><use transform="matrix(0.07407407407407408,0,0,0.07407407407407408,87.18518518518519,0)" xlink:href="#ba"/><use transform="matrix(0.07407407407407408,0,0,0.07407407407407408,102,0)" xlink:href="#bl"/><use transform="matrix(0.07407407407407408,0,0,0.07407407407407408,110.81481481481481,0)" xlink:href="#bc"/><use transform="matrix(0.07407407407407408,0,0,0.07407407407407408,130,0)" xlink:href="#ba"/><use transform="matrix(0.07407407407407408,0,0,0.07407407407407408,144.8148148148148,0)" xlink:href="#bq"/><use transform="matrix(0.07407407407407408,0,0,0.07407407407407408,166.96296296296296,0)" xlink:href="#bX"/></g><g id="K"><use transform="matrix(0.07407407407407408,0,0,0.07407407407407408,0,0)" xlink:href="#aZ"/><use transform="matrix(0.07407407407407408,0,0,0.07407407407407408,19.185185185185187,0)" xlink:href="#ba"/><use transform="matrix(0.07407407407407408,0,0,0.07407407407407408,34,0)" xlink:href="#br"/><use transform="matrix(0.07407407407407408,0,0,0.07407407407407408,47.33333333333334,0)" xlink:href="#bf"/><use transform="matrix(0.07407407407407408,0,0,0.07407407407407408,53.18518518518519,0)" xlink:href="#ba"/><use transform="matrix(0.07407407407407408,0,0,0.07407407407407408,68,0)" xlink:href="#bW"/><use transform="matrix(0.07407407407407408,0,0,0.07407407407407408,87.18518518518519,0)" xlink:href="#ba"/><use transform="matrix(0.07407407407407408,0,0,0.07407407407407408,102,0)" xlink:href="#bl"/></g><g id="L"><use transform="matrix(0.07407407407407408,0,0,0.07407407407407408,0,0)" xlink:href="#bo"/><use transform="matrix(0.07407407407407408,0,0,0.07407407407407408,16.222222222222225,0)" xlink:href="#bj"/></g><path fill="#333" d="M212-179c-10-28-35-45-73-45-59 0-87 40-87 99 0 60 29 101 89 101 43 0 62-24 78-52l27 14C228-24 195 4 139 4 59 4 22-46 18-125c-6-104 99-153 187-111 19 9 31 26 39 46" id="bY"/><path fill="#333" d="M179-190L93 31C79 59 56 82 12 73V49c39 6 53-20 64-50L1-190h34L92-34l54-156h33" id="bZ"/><g id="M"><use transform="matrix(0.07407407407407408,0,0,0.07407407407407408,0,0)" xlink:href="#bY"/><use transform="matrix(0.07407407407407408,0,0,0.07407407407407408,19.185185185185187,0)" xlink:href="#be"/><use transform="matrix(0.07407407407407408,0,0,0.07407407407407408,34,0)" xlink:href="#bd"/><use transform="matrix(0.07407407407407408,0,0,0.07407407407407408,41.407407407407405,0)" xlink:href="#ba"/><use transform="matrix(0.07407407407407408,0,0,0.07407407407407408,56.22222222222222,0)" xlink:href="#bb"/><use transform="matrix(0.07407407407407408,0,0,0.07407407407407408,71.03703703703704,0)" xlink:href="#bX"/><use transform="matrix(0.07407407407407408,0,0,0.07407407407407408,85.85185185185185,0)" xlink:href="#bl"/><use transform="matrix(0.07407407407407408,0,0,0.07407407407407408,94.66666666666666,0)" xlink:href="#bZ"/></g><g id="N"><use transform="matrix(0.07407407407407408,0,0,0.07407407407407408,0,0)" xlink:href="#bm"/><use transform="matrix(0.07407407407407408,0,0,0.07407407407407408,7.407407407407408,0)" xlink:href="#bn"/><use transform="matrix(0.07407407407407408,0,0,0.07407407407407408,22.222222222222225,0)" xlink:href="#bn"/><use transform="matrix(0.07407407407407408,0,0,0.07407407407407408,37.03703703703704,0)" xlink:href="#bX"/><use transform="matrix(0.07407407407407408,0,0,0.07407407407407408,51.85185185185186,0)" xlink:href="#br"/><use transform="matrix(0.07407407407407408,0,0,0.07407407407407408,65.18518518518519,0)" xlink:href="#be"/><use transform="matrix(0.07407407407407408,0,0,0.07407407407407408,80,0)" xlink:href="#bd"/><use transform="matrix(0.07407407407407408,0,0,0.07407407407407408,87.4074074074074,0)" xlink:href="#bX"/><use transform="matrix(0.07407407407407408,0,0,0.07407407407407408,102.22222222222224,0)" xlink:href="#bl"/><use transform="matrix(0.07407407407407408,0,0,0.07407407407407408,111.03703703703704,0)" xlink:href="#bc"/><use transform="matrix(0.07407407407407408,0,0,0.07407407407407408,130.22222222222223,0)" xlink:href="#ba"/><use transform="matrix(0.07407407407407408,0,0,0.07407407407407408,145.03703703703704,0)" xlink:href="#bq"/><use transform="matrix(0.07407407407407408,0,0,0.07407407407407408,167.18518518518522,0)" xlink:href="#bX"/></g><g id="O"><use transform="matrix(0.07407407407407408,0,0,0.07407407407407408,0,0)" xlink:href="#bm"/><use transform="matrix(0.07407407407407408,0,0,0.07407407407407408,7.407407407407408,0)" xlink:href="#bn"/><use transform="matrix(0.07407407407407408,0,0,0.07407407407407408,22.222222222222225,0)" xlink:href="#bn"/><use transform="matrix(0.07407407407407408,0,0,0.07407407407407408,37.03703703703704,0)" xlink:href="#bX"/><use transform="matrix(0.07407407407407408,0,0,0.07407407407407408,51.85185185185186,0)" xlink:href="#br"/><use transform="matrix(0.07407407407407408,0,0,0.07407407407407408,65.18518518518519,0)" xlink:href="#be"/><use transform="matrix(0.07407407407407408,0,0,0.07407407407407408,80,0)" xlink:href="#bd"/><use transform="matrix(0.07407407407407408,0,0,0.07407407407407408,87.4074074074074,0)" xlink:href="#bX"/><use transform="matrix(0.07407407407407408,0,0,0.07407407407407408,102.22222222222224,0)" xlink:href="#bl"/></g><path d="M30-248c118-7 216 8 213 122C240-48 200 0 122 0H30v-248zM63-27c89 8 146-16 146-99s-60-101-146-95v194" id="ca"/><path d="M140-251c81 0 123 46 123 126C263-46 219 4 140 4 59 4 17-45 17-125s42-126 123-126zm0 227c63 0 89-41 89-101s-29-99-89-99c-61 0-89 39-89 99S79-25 140-24" id="cb"/><path d="M160-131c35 5 61 23 61 61C221 17 115-2 30 0v-248c76 3 177-17 177 60 0 33-19 50-47 57zm-97-11c50-1 110 9 110-42 0-47-63-36-110-37v79zm0 115c55-2 124 14 124-45 0-56-70-42-124-44v89" id="cc"/><g id="P"><use transform="matrix(0.07407407407407408,0,0,0.07407407407407408,0,0)" xlink:href="#ca"/><use transform="matrix(0.07407407407407408,0,0,0.07407407407407408,19.185185185185187,0)" xlink:href="#cb"/><use transform="matrix(0.07407407407407408,0,0,0.07407407407407408,39.92592592592593,0)" xlink:href="#cc"/></g><g id="Q"><use transform="matrix(0.07407407407407408,0,0,0.07407407407407408,0,0)" xlink:href="#bB"/><use transform="matrix(0.07407407407407408,0,0,0.07407407407407408,14.814814814814817,0)" xlink:href="#bw"/><use transform="matrix(0.07407407407407408,0,0,0.07407407407407408,29.629629629629633,0)" xlink:href="#bS"/><use transform="matrix(0.07407407407407408,0,0,0.07407407407407408,37.03703703703704,0)" xlink:href="#bK"/></g><path d="M33 0v-248h34V0H33" id="cd"/><path d="M-5 72V49h209v23H-5" id="ce"/><g id="R"><use transform="matrix(0.07407407407407408,0,0,0.07407407407407408,0,0)" xlink:href="#cd"/><use transform="matrix(0.07407407407407408,0,0,0.07407407407407408,7.407407407407408,0)" xlink:href="#ca"/><use transform="matrix(0.07407407407407408,0,0,0.07407407407407408,26.592592592592595,0)" xlink:href="#ce"/><use transform="matrix(0.07407407407407408,0,0,0.07407407407407408,41.40740740740741,0)" xlink:href="#bv"/><use transform="matrix(0.07407407407407408,0,0,0.07407407407407408,59.18518518518519,0)" xlink:href="#bw"/><use transform="matrix(0.07407407407407408,0,0,0.07407407407407408,74,0)" xlink:href="#bx"/><use transform="matrix(0.07407407407407408,0,0,0.07407407407407408,87.33333333333334,0)" xlink:href="#bx"/><use transform="matrix(0.07407407407407408,0,0,0.07407407407407408,100.66666666666669,0)" xlink:href="#bQ"/><use transform="matrix(0.07407407407407408,0,0,0.07407407407407408,115.4814814814815,0)" xlink:href="#bz"/><use transform="matrix(0.07407407407407408,0,0,0.07407407407407408,130.2962962962963,0)" xlink:href="#bA"/><use transform="matrix(0.07407407407407408,0,0,0.07407407407407408,139.11111111111111,0)" xlink:href="#bS"/></g><g id="S"><use transform="matrix(0.07407407407407408,0,0,0.07407407407407408,0,0)" xlink:href="#bF"/><use transform="matrix(0.07407407407407408,0,0,0.07407407407407408,17.77777777777778,0)" xlink:href="#bG"/><use transform="matrix(0.07407407407407408,0,0,0.07407407407407408,39.92592592592593,0)" xlink:href="#bQ"/><use transform="matrix(0.07407407407407408,0,0,0.07407407407407408,54.74074074074075,0)" xlink:href="#bI"/><use transform="matrix(0.07407407407407408,0,0,0.07407407407407408,60.5925925925926,0)" xlink:href="#bz"/><use transform="matrix(0.07407407407407408,0,0,0.07407407407407408,75.40740740740742,0)" xlink:href="#bP"/><use transform="matrix(0.07407407407407408,0,0,0.07407407407407408,88.74074074074078,0)" xlink:href="#bG"/><use transform="matrix(0.07407407407407408,0,0,0.07407407407407408,110.88888888888891,0)" xlink:href="#bK"/><use transform="matrix(0.07407407407407408,0,0,0.07407407407407408,125.70370370370372,0)" xlink:href="#bM"/><use transform="matrix(0.07407407407407408,0,0,0.07407407407407408,140.51851851851853,0)" xlink:href="#bS"/></g><g id="T"><use transform="matrix(0.07407407407407408,0,0,0.07407407407407408,0,0)" xlink:href="#bx"/><use transform="matrix(0.07407407407407408,0,0,0.07407407407407408,13.333333333333336,0)" xlink:href="#bS"/><use transform="matrix(0.07407407407407408,0,0,0.07407407407407408,20.740740740740744,0)" xlink:href="#bw"/><use transform="matrix(0.07407407407407408,0,0,0.07407407407407408,35.55555555555556,0)" xlink:href="#bS"/><use transform="matrix(0.07407407407407408,0,0,0.07407407407407408,42.96296296296296,0)" xlink:href="#bU"/><use transform="matrix(0.07407407407407408,0,0,0.07407407407407408,57.77777777777778,0)" xlink:href="#bx"/></g><g id="U"><use transform="matrix(0.07407407407407408,0,0,0.07407407407407408,0,0)" xlink:href="#bT"/><use transform="matrix(0.07407407407407408,0,0,0.07407407407407408,19.185185185185187,0)" xlink:href="#bw"/><use transform="matrix(0.07407407407407408,0,0,0.07407407407407408,34,0)" xlink:href="#bS"/><use transform="matrix(0.07407407407407408,0,0,0.07407407407407408,41.407407407407405,0)" xlink:href="#bH"/><use transform="matrix(0.07407407407407408,0,0,0.07407407407407408,47.25925925925926,0)" xlink:href="#bz"/><use transform="matrix(0.07407407407407408,0,0,0.07407407407407408,62.074074074074076,0)" xlink:href="#bM"/><use transform="matrix(0.07407407407407408,0,0,0.07407407407407408,76.88888888888889,0)" xlink:href="#bw"/><use transform="matrix(0.07407407407407408,0,0,0.07407407407407408,91.7037037037037,0)" xlink:href="#bI"/><use transform="matrix(0.07407407407407408,0,0,0.07407407407407408,97.55555555555553,0)" xlink:href="#bH"/><use transform="matrix(0.07407407407407408,0,0,0.07407407407407408,103.40740740740739,0)" xlink:href="#bS"/><use transform="matrix(0.07407407407407408,0,0,0.07407407407407408,110.8148148148148,0)" xlink:href="#bP"/></g><g id="V"><use transform="matrix(0.07407407407407408,0,0,0.07407407407407408,0,0)" xlink:href="#bm"/><use transform="matrix(0.07407407407407408,0,0,0.07407407407407408,7.407407407407408,0)" xlink:href="#bn"/><use transform="matrix(0.07407407407407408,0,0,0.07407407407407408,22.222222222222225,0)" xlink:href="#br"/><use transform="matrix(0.07407407407407408,0,0,0.07407407407407408,35.55555555555556,0)" xlink:href="#ba"/><use transform="matrix(0.07407407407407408,0,0,0.07407407407407408,50.370370370370374,0)" xlink:href="#bh"/><use transform="matrix(0.07407407407407408,0,0,0.07407407407407408,63.70370370370371,0)" xlink:href="#bd"/><use transform="matrix(0.07407407407407408,0,0,0.07407407407407408,71.11111111111111,0)" xlink:href="#bX"/><use transform="matrix(0.07407407407407408,0,0,0.07407407407407408,85.92592592592592,0)" xlink:href="#bl"/><use transform="matrix(0.07407407407407408,0,0,0.07407407407407408,94.74074074074073,0)" xlink:href="#bc"/><use transform="matrix(0.07407407407407408,0,0,0.07407407407407408,113.92592592592592,0)" xlink:href="#ba"/><use transform="matrix(0.07407407407407408,0,0,0.07407407407407408,128.74074074074073,0)" xlink:href="#bq"/><use transform="matrix(0.07407407407407408,0,0,0.07407407407407408,150.88888888888889,0)" xlink:href="#bX"/></g><g id="W"><use transform="matrix(0.07407407407407408,0,0,0.07407407407407408,0,0)" xlink:href="#bm"/><use transform="matrix(0.07407407407407408,0,0,0.07407407407407408,7.407407407407408,0)" xlink:href="#bn"/><use transform="matrix(0.07407407407407408,0,0,0.07407407407407408,22.222222222222225,0)" xlink:href="#br"/><use transform="matrix(0.07407407407407408,0,0,0.07407407407407408,35.55555555555556,0)" xlink:href="#ba"/><use transform="matrix(0.07407407407407408,0,0,0.07407407407407408,50.370370370370374,0)" xlink:href="#bh"/><use transform="matrix(0.07407407407407408,0,0,0.07407407407407408,63.70370370370371,0)" xlink:href="#bd"/><use transform="matrix(0.07407407407407408,0,0,0.07407407407407408,71.11111111111111,0)" xlink:href="#bX"/><use transform="matrix(0.07407407407407408,0,0,0.07407407407407408,85.92592592592592,0)" xlink:href="#bl"/></g><path fill="#333" d="M115-194c55 1 70 41 70 98S169 2 115 4C84 4 66-9 55-30l1 105H24l-1-265h31l2 30c10-21 28-34 59-34zm-8 174c40 0 45-34 45-75s-6-73-45-74c-42 0-51 32-51 76 0 43 10 73 51 73" id="cf"/><g id="X"><use transform="matrix(0.07407407407407408,0,0,0.07407407407407408,0,0)" xlink:href="#bY"/><use transform="matrix(0.07407407407407408,0,0,0.07407407407407408,19.185185185185187,0)" xlink:href="#bX"/><use transform="matrix(0.07407407407407408,0,0,0.07407407407407408,34,0)" xlink:href="#bq"/><use transform="matrix(0.07407407407407408,0,0,0.07407407407407408,56.14814814814815,0)" xlink:href="#cf"/><use transform="matrix(0.07407407407407408,0,0,0.07407407407407408,70.96296296296296,0)" xlink:href="#be"/><use transform="matrix(0.07407407407407408,0,0,0.07407407407407408,85.77777777777777,0)" xlink:href="#bn"/><use transform="matrix(0.07407407407407408,0,0,0.07407407407407408,100.5925925925926,0)" xlink:href="#bZ"/></g><g id="Y"><use transform="matrix(0.07407407407407408,0,0,0.07407407407407408,0,0)" xlink:href="#bp"/><use transform="matrix(0.07407407407407408,0,0,0.07407407407407408,19.185185185185187,0)" xlink:href="#be"/><use transform="matrix(0.07407407407407408,0,0,0.07407407407407408,34,0)" xlink:href="#bq"/><use transform="matrix(0.07407407407407408,0,0,0.07407407407407408,56.14814814814815,0)" xlink:href="#ba"/></g><g id="Z"><use transform="matrix(0.07407407407407408,0,0,0.07407407407407408,0,0)" xlink:href="#bL"/><use transform="matrix(0.07407407407407408,0,0,0.07407407407407408,19.185185185185187,0)" xlink:href="#bz"/><use transform="matrix(0.07407407407407408,0,0,0.07407407407407408,34,0)" xlink:href="#bG"/><use transform="matrix(0.07407407407407408,0,0,0.07407407407407408,56.14814814814815,0)" xlink:href="#bQ"/><use transform="matrix(0.07407407407407408,0,0,0.07407407407407408,70.96296296296296,0)" xlink:href="#bw"/><use transform="matrix(0.07407407407407408,0,0,0.07407407407407408,85.77777777777777,0)" xlink:href="#bM"/><use transform="matrix(0.07407407407407408,0,0,0.07407407407407408,100.5925925925926,0)" xlink:href="#bP"/></g><path d="M177-190C167-65 218 103 67 71c-23-6-38-20-44-43l32-5c15 47 100 32 89-28v-30C133-14 115 1 83 1 29 1 15-40 15-95c0-56 16-97 71-98 29-1 48 16 59 35 1-10 0-23 2-32h30zM94-22c36 0 50-32 50-73 0-42-14-75-50-75-39 0-46 34-46 75s6 73 46 73" id="cg"/><g id="aa"><use transform="matrix(0.07407407407407408,0,0,0.07407407407407408,0,0)" xlink:href="#bL"/><use transform="matrix(0.07407407407407408,0,0,0.07407407407407408,19.185185185185187,0)" xlink:href="#bw"/><use transform="matrix(0.07407407407407408,0,0,0.07407407407407408,34,0)" xlink:href="#bS"/><use transform="matrix(0.07407407407407408,0,0,0.07407407407407408,41.407407407407405,0)" xlink:href="#bK"/><use transform="matrix(0.07407407407407408,0,0,0.07407407407407408,56.22222222222222,0)" xlink:href="#cg"/><use transform="matrix(0.07407407407407408,0,0,0.07407407407407408,71.03703703703704,0)" xlink:href="#bz"/><use transform="matrix(0.07407407407407408,0,0,0.07407407407407408,85.85185185185185,0)" xlink:href="#bA"/><use transform="matrix(0.07407407407407408,0,0,0.07407407407407408,94.66666666666666,0)" xlink:href="#bP"/></g><g id="ab"><use transform="matrix(0.07407407407407408,0,0,0.07407407407407408,0,0)" xlink:href="#bL"/><use transform="matrix(0.07407407407407408,0,0,0.07407407407407408,19.185185185185187,0)" xlink:href="#cd"/><use transform="matrix(0.07407407407407408,0,0,0.07407407407407408,26.592592592592595,0)" xlink:href="#bT"/></g><g id="ac"><use transform="matrix(0.07407407407407408,0,0,0.07407407407407408,0,0)" xlink:href="#bJ"/><use transform="matrix(0.07407407407407408,0,0,0.07407407407407408,17.77777777777778,0)" xlink:href="#bM"/><use transform="matrix(0.07407407407407408,0,0,0.07407407407407408,32.592592592592595,0)" xlink:href="#bM"/><use transform="matrix(0.07407407407407408,0,0,0.07407407407407408,47.40740740740741,0)" xlink:href="#bU"/><use transform="matrix(0.07407407407407408,0,0,0.07407407407407408,62.22222222222223,0)" xlink:href="#bw"/><use transform="matrix(0.07407407407407408,0,0,0.07407407407407408,77.03703703703702,0)" xlink:href="#bI"/></g><path d="M233-177c-1 41-23 64-60 70L243 0h-38l-65-103H63V0H30v-248c88 3 205-21 203 71zM63-129c60-2 137 13 137-47 0-61-80-42-137-45v92" id="ch"/><g id="ad"><use transform="matrix(0.07407407407407408,0,0,0.07407407407407408,0,0)" xlink:href="#ch"/><use transform="matrix(0.07407407407407408,0,0,0.07407407407407408,19.185185185185187,0)" xlink:href="#bK"/><use transform="matrix(0.07407407407407408,0,0,0.07407407407407408,34,0)" xlink:href="#bC"/><use transform="matrix(0.07407407407407408,0,0,0.07407407407407408,47.33333333333334,0)" xlink:href="#bK"/><use transform="matrix(0.07407407407407408,0,0,0.07407407407407408,62.14814814814816,0)" xlink:href="#bM"/><use transform="matrix(0.07407407407407408,0,0,0.07407407407407408,76.96296296296296,0)" xlink:href="#bU"/><use transform="matrix(0.07407407407407408,0,0,0.07407407407407408,91.77777777777777,0)" xlink:href="#bK"/></g><g id="ae"><use transform="matrix(0.07407407407407408,0,0,0.07407407407407408,0,0)" xlink:href="#bG"/><use transform="matrix(0.07407407407407408,0,0,0.07407407407407408,22.148148148148152,0)" xlink:href="#bz"/><use transform="matrix(0.07407407407407408,0,0,0.07407407407407408,36.96296296296297,0)" xlink:href="#bM"/><use transform="matrix(0.07407407407407408,0,0,0.07407407407407408,51.777777777777786,0)" xlink:href="#bK"/><use transform="matrix(0.07407407407407408,0,0,0.07407407407407408,66.59259259259261,0)" xlink:href="#bP"/></g><g id="af"><use transform="matrix(0.07407407407407408,0,0,0.07407407407407408,0,0)" xlink:href="#bm"/><use transform="matrix(0.07407407407407408,0,0,0.07407407407407408,7.407407407407408,0)" xlink:href="#bn"/><use transform="matrix(0.07407407407407408,0,0,0.07407407407407408,22.222222222222225,0)" xlink:href="#bn"/><use transform="matrix(0.07407407407407408,0,0,0.07407407407407408,37.03703703703704,0)" xlink:href="#bX"/><use transform="matrix(0.07407407407407408,0,0,0.07407407407407408,51.85185185185186,0)" xlink:href="#br"/><use transform="matrix(0.07407407407407408,0,0,0.07407407407407408,65.18518518518519,0)" xlink:href="#be"/><use transform="matrix(0.07407407407407408,0,0,0.07407407407407408,80,0)" xlink:href="#bd"/><use transform="matrix(0.07407407407407408,0,0,0.07407407407407408,87.4074074074074,0)" xlink:href="#bX"/><use transform="matrix(0.07407407407407408,0,0,0.07407407407407408,102.22222222222224,0)" xlink:href="#bl"/><use transform="matrix(0.07407407407407408,0,0,0.07407407407407408,111.03703703703704,0)" xlink:href="#bi"/><use transform="matrix(0.07407407407407408,0,0,0.07407407407407408,128.8148148148148,0)" xlink:href="#bf"/><use transform="matrix(0.07407407407407408,0,0,0.07407407407407408,134.66666666666666,0)" xlink:href="#bd"/><use transform="matrix(0.07407407407407408,0,0,0.07407407407407408,142.07407407407408,0)" xlink:href="#bs"/><use transform="matrix(0.07407407407407408,0,0,0.07407407407407408,155.40740740740742,0)" xlink:href="#bt"/></g><g id="ag"><use transform="matrix(0.07407407407407408,0,0,0.07407407407407408,0,0)" xlink:href="#bi"/><use transform="matrix(0.07407407407407408,0,0,0.07407407407407408,17.77777777777778,0)" xlink:href="#bf"/><use transform="matrix(0.07407407407407408,0,0,0.07407407407407408,23.629629629629633,0)" xlink:href="#bd"/><use transform="matrix(0.07407407407407408,0,0,0.07407407407407408,31.03703703703704,0)" xlink:href="#bs"/><use transform="matrix(0.07407407407407408,0,0,0.07407407407407408,44.37037037037039,0)" xlink:href="#bt"/></g><g id="ah"><use transform="matrix(0.07407407407407408,0,0,0.07407407407407408,0,0)" xlink:href="#bv"/><use transform="matrix(0.07407407407407408,0,0,0.07407407407407408,17.77777777777778,0)" xlink:href="#bH"/><use transform="matrix(0.07407407407407408,0,0,0.07407407407407408,23.629629629629633,0)" xlink:href="#bS"/><use transform="matrix(0.07407407407407408,0,0,0.07407407407407408,31.03703703703704,0)" xlink:href="#bD"/><use transform="matrix(0.07407407407407408,0,0,0.07407407407407408,44.37037037037039,0)" xlink:href="#bE"/></g><g id="ai"><use transform="matrix(0.07407407407407408,0,0,0.07407407407407408,0,0)" xlink:href="#bO"/><use transform="matrix(0.07407407407407408,0,0,0.07407407407407408,15.259259259259261,0)" xlink:href="#bH"/><use transform="matrix(0.07407407407407408,0,0,0.07407407407407408,21.111111111111114,0)" xlink:href="#bS"/><use transform="matrix(0.07407407407407408,0,0,0.07407407407407408,28.518518518518523,0)" xlink:href="#bI"/><use transform="matrix(0.07407407407407408,0,0,0.07407407407407408,34.370370370370374,0)" xlink:href="#bK"/></g><g id="aj"><use transform="matrix(0.07407407407407408,0,0,0.07407407407407408,0,0)" xlink:href="#cc"/><use transform="matrix(0.07407407407407408,0,0,0.07407407407407408,17.77777777777778,0)" xlink:href="#bz"/><use transform="matrix(0.07407407407407408,0,0,0.07407407407407408,32.592592592592595,0)" xlink:href="#bB"/><use transform="matrix(0.07407407407407408,0,0,0.07407407407407408,47.40740740740741,0)" xlink:href="#bP"/></g><path fill="#333" d="M205 0l-28-72H64L36 0H1l101-248h38L239 0h-34zm-38-99l-47-123c-12 45-31 82-46 123h93" id="ci"/><path fill="#333" d="M127-220V0H93v-220H8v-28h204v28h-85" id="cj"/><path fill="#333" d="M115-194c53 0 69 39 70 98 0 66-23 100-70 100C84 3 66-7 56-30L54 0H23l1-261h32v101c10-23 28-34 59-34zm-8 174c40 0 45-34 45-75 0-40-5-75-45-74-42 0-51 32-51 76 0 43 10 73 51 73" id="ck"/><g id="ak"><use transform="matrix(0.07407407407407408,0,0,0.07407407407407408,0,0)" xlink:href="#ci"/><use transform="matrix(0.07407407407407408,0,0,0.07407407407407408,17.77777777777778,0)" xlink:href="#cf"/><use transform="matrix(0.07407407407407408,0,0,0.07407407407407408,32.592592592592595,0)" xlink:href="#cf"/><use transform="matrix(0.07407407407407408,0,0,0.07407407407407408,47.40740740740741,0)" xlink:href="#bg"/><use transform="matrix(0.07407407407407408,0,0,0.07407407407407408,53.25925925925927,0)" xlink:href="#bf"/><use transform="matrix(0.07407407407407408,0,0,0.07407407407407408,59.11111111111112,0)" xlink:href="#bs"/><use transform="matrix(0.07407407407407408,0,0,0.07407407407407408,72.44444444444446,0)" xlink:href="#be"/><use transform="matrix(0.07407407407407408,0,0,0.07407407407407408,87.25925925925927,0)" xlink:href="#bd"/><use transform="matrix(0.07407407407407408,0,0,0.07407407407407408,94.66666666666669,0)" xlink:href="#bf"/><use transform="matrix(0.07407407407407408,0,0,0.07407407407407408,100.51851851851852,0)" xlink:href="#bX"/><use transform="matrix(0.07407407407407408,0,0,0.07407407407407408,115.33333333333334,0)" xlink:href="#bn"/><use transform="matrix(0.07407407407407408,0,0,0.07407407407407408,130.14814814814815,0)" xlink:href="#cj"/><use transform="matrix(0.07407407407407408,0,0,0.07407407407407408,143.40740740740742,0)" xlink:href="#be"/><use transform="matrix(0.07407407407407408,0,0,0.07407407407407408,158.22222222222226,0)" xlink:href="#ck"/><use transform="matrix(0.07407407407407408,0,0,0.07407407407407408,173.03703703703704,0)" xlink:href="#bg"/><use transform="matrix(0.07407407407407408,0,0,0.07407407407407408,178.88888888888889,0)" xlink:href="#ba"/></g><path fill="#333" d="M68-38c1 34 0 65-14 84H32c9-13 17-26 17-46H33v-38h35" id="cl"/><g id="al"><use transform="matrix(0.07407407407407408,0,0,0.07407407407407408,0,0)" xlink:href="#bi"/><use transform="matrix(0.07407407407407408,0,0,0.07407407407407408,17.77777777777778,0)" xlink:href="#bj"/><use transform="matrix(0.07407407407407408,0,0,0.07407407407407408,35.55555555555556,0)" xlink:href="#cl"/></g><g id="am"><use transform="matrix(0.07407407407407408,0,0,0.07407407407407408,0,0)" xlink:href="#bo"/><use transform="matrix(0.07407407407407408,0,0,0.07407407407407408,16.222222222222225,0)" xlink:href="#bj"/></g><g id="an"><use transform="matrix(0.07407407407407408,0,0,0.07407407407407408,0,0)" xlink:href="#bm"/><use transform="matrix(0.07407407407407408,0,0,0.07407407407407408,7.407407407407408,0)" xlink:href="#bc"/></g><g id="ao"><use transform="matrix(0.07407407407407408,0,0,0.07407407407407408,0,0)" xlink:href="#bo"/><use transform="matrix(0.07407407407407408,0,0,0.07407407407407408,16.222222222222225,0)" xlink:href="#bj"/></g><path fill="#333" d="M145-31C134-9 116 4 85 4 32 4 16-35 15-94c0-59 17-99 70-100 32-1 48 14 60 33 0-11-1-24 2-32h30l-1 268h-32zM93-21c41 0 51-33 51-76s-8-73-50-73c-40 0-46 35-46 75s5 74 45 74" id="cm"/><path fill="#333" d="M84 4C-5 8 30-112 23-190h32v120c0 31 7 50 39 49 72-2 45-101 50-169h31l1 190h-30c-1-10 1-25-2-33-11 22-28 36-60 37" id="cn"/><g id="ap"><use transform="matrix(0.07407407407407408,0,0,0.07407407407407408,0,0)" xlink:href="#aZ"/><use transform="matrix(0.07407407407407408,0,0,0.07407407407407408,19.185185185185187,0)" xlink:href="#ba"/><use transform="matrix(0.07407407407407408,0,0,0.07407407407407408,34,0)" xlink:href="#cm"/><use transform="matrix(0.07407407407407408,0,0,0.07407407407407408,48.81481481481481,0)" xlink:href="#cn"/><use transform="matrix(0.07407407407407408,0,0,0.07407407407407408,63.629629629629626,0)" xlink:href="#bf"/><use transform="matrix(0.07407407407407408,0,0,0.07407407407407408,69.48148148148148,0)" xlink:href="#bl"/><use transform="matrix(0.07407407407407408,0,0,0.07407407407407408,78.2962962962963,0)" xlink:href="#ba"/><use transform="matrix(0.07407407407407408,0,0,0.07407407407407408,93.1111111111111,0)" xlink:href="#bq"/><use transform="matrix(0.07407407407407408,0,0,0.07407407407407408,115.25925925925928,0)" xlink:href="#ba"/><use transform="matrix(0.07407407407407408,0,0,0.07407407407407408,130.07407407407408,0)" xlink:href="#bn"/><use transform="matrix(0.07407407407407408,0,0,0.07407407407407408,144.88888888888889,0)" xlink:href="#bd"/></g><g id="aq"><use transform="matrix(0.07407407407407408,0,0,0.07407407407407408,0,0)" xlink:href="#bY"/><use transform="matrix(0.07407407407407408,0,0,0.07407407407407408,19.185185185185187,0)" xlink:href="#be"/><use transform="matrix(0.07407407407407408,0,0,0.07407407407407408,34,0)" xlink:href="#bd"/><use transform="matrix(0.07407407407407408,0,0,0.07407407407407408,41.407407407407405,0)" xlink:href="#ba"/><use transform="matrix(0.07407407407407408,0,0,0.07407407407407408,56.22222222222222,0)" xlink:href="#bb"/><use transform="matrix(0.07407407407407408,0,0,0.07407407407407408,71.03703703703704,0)" xlink:href="#bX"/><use transform="matrix(0.07407407407407408,0,0,0.07407407407407408,85.85185185185185,0)" xlink:href="#bl"/><use transform="matrix(0.07407407407407408,0,0,0.07407407407407408,94.66666666666666,0)" xlink:href="#bZ"/></g><g id="ar"><use transform="matrix(0.07407407407407408,0,0,0.07407407407407408,0,0)" xlink:href="#cc"/><use transform="matrix(0.07407407407407408,0,0,0.07407407407407408,17.77777777777778,0)" xlink:href="#bU"/><use transform="matrix(0.07407407407407408,0,0,0.07407407407407408,32.592592592592595,0)" xlink:href="#bB"/><use transform="matrix(0.07407407407407408,0,0,0.07407407407407408,47.40740740740741,0)" xlink:href="#cg"/><use transform="matrix(0.07407407407407408,0,0,0.07407407407407408,62.22222222222223,0)" xlink:href="#bK"/><use transform="matrix(0.07407407407407408,0,0,0.07407407407407408,77.03703703703702,0)" xlink:href="#bS"/></g><g id="as"><use transform="matrix(0.07407407407407408,0,0,0.07407407407407408,0,0)" xlink:href="#bL"/><use transform="matrix(0.07407407407407408,0,0,0.07407407407407408,19.185185185185187,0)" xlink:href="#bH"/><use transform="matrix(0.07407407407407408,0,0,0.07407407407407408,25.037037037037035,0)" xlink:href="#bS"/><use transform="matrix(0.07407407407407408,0,0,0.07407407407407408,32.44444444444444,0)" xlink:href="#bP"/></g><g id="at"><use transform="matrix(0.07407407407407408,0,0,0.07407407407407408,0,0)" xlink:href="#bm"/><use transform="matrix(0.07407407407407408,0,0,0.07407407407407408,7.407407407407408,0)" xlink:href="#bn"/><use transform="matrix(0.07407407407407408,0,0,0.07407407407407408,22.222222222222225,0)" xlink:href="#br"/><use transform="matrix(0.07407407407407408,0,0,0.07407407407407408,35.55555555555556,0)" xlink:href="#ba"/><use transform="matrix(0.07407407407407408,0,0,0.07407407407407408,50.370370370370374,0)" xlink:href="#bh"/><use transform="matrix(0.07407407407407408,0,0,0.07407407407407408,63.70370370370371,0)" xlink:href="#bd"/><use transform="matrix(0.07407407407407408,0,0,0.07407407407407408,71.11111111111111,0)" xlink:href="#bX"/><use transform="matrix(0.07407407407407408,0,0,0.07407407407407408,85.92592592592592,0)" xlink:href="#bl"/><use transform="matrix(0.07407407407407408,0,0,0.07407407407407408,94.74074074074073,0)" xlink:href="#aZ"/><use transform="matrix(0.07407407407407408,0,0,0.07407407407407408,113.92592592592592,0)" xlink:href="#ba"/><use transform="matrix(0.07407407407407408,0,0,0.07407407407407408,128.74074074074073,0)" xlink:href="#cm"/></g><g id="au"><use transform="matrix(0.07407407407407408,0,0,0.07407407407407408,0,0)" xlink:href="#bL"/><use transform="matrix(0.07407407407407408,0,0,0.07407407407407408,19.185185185185187,0)" xlink:href="#bw"/><use transform="matrix(0.07407407407407408,0,0,0.07407407407407408,34,0)" xlink:href="#bS"/><use transform="matrix(0.07407407407407408,0,0,0.07407407407407408,41.407407407407405,0)" xlink:href="#bK"/><use transform="matrix(0.07407407407407408,0,0,0.07407407407407408,56.22222222222222,0)" xlink:href="#cg"/><use transform="matrix(0.07407407407407408,0,0,0.07407407407407408,71.03703703703704,0)" xlink:href="#bz"/><use transform="matrix(0.07407407407407408,0,0,0.07407407407407408,85.85185185185185,0)" xlink:href="#bA"/><use transform="matrix(0.07407407407407408,0,0,0.07407407407407408,94.66666666666666,0)" xlink:href="#bP"/></g><path d="M24-231v-30h32v30H24zM-9 49c24 4 33-6 33-30v-209h32V24c2 40-23 58-65 49V49" id="co"/><g id="av"><use transform="matrix(0.07407407407407408,0,0,0.07407407407407408,0,0)" xlink:href="#bv"/><use transform="matrix(0.07407407407407408,0,0,0.07407407407407408,17.77777777777778,0)" xlink:href="#bA"/><use transform="matrix(0.07407407407407408,0,0,0.07407407407407408,26.592592592592595,0)" xlink:href="#bz"/><use transform="matrix(0.07407407407407408,0,0,0.07407407407407408,41.40740740740741,0)" xlink:href="#co"/><use transform="matrix(0.07407407407407408,0,0,0.07407407407407408,47.25925925925927,0)" xlink:href="#bK"/><use transform="matrix(0.07407407407407408,0,0,0.07407407407407408,62.07407407407408,0)" xlink:href="#bD"/><use transform="matrix(0.07407407407407408,0,0,0.07407407407407408,75.40740740740742,0)" xlink:href="#bS"/></g><g id="aw"><use transform="matrix(0.07407407407407408,0,0,0.07407407407407408,0,0)" xlink:href="#bO"/><use transform="matrix(0.07407407407407408,0,0,0.07407407407407408,14.740740740740744,0)" xlink:href="#bP"/><use transform="matrix(0.07407407407407408,0,0,0.07407407407407408,28.074074074074076,0)" xlink:href="#bQ"/><use transform="matrix(0.07407407407407408,0,0,0.07407407407407408,42.8888888888889,0)" xlink:href="#bK"/></g></defs></g></svg>