<svg xmlns="http://www.w3.org/2000/svg" xmlns:xlink="http://www.w3.org/1999/xlink" xmlns:lucid="lucid" width="1940.3" height="1070"><g transform="translate(-20 -20)" lucid:page-tab-id="-UI2L8c-KI36"><path d="M0 0h1870.4v1323.2H0z" fill="#fff"/><path d="M40 40h110v42H40zM150 40h365v42H150z" fill="#b2d6ef"/><path d="M515 40h202v42H515zM717 40h390v42H717zM1107 40h622v42h-622z" fill="#c1e4f7"/><path d="M40 82h110v104H40zM150 82h365v104H150zM515 82h202v104H515zM717 82h390v104H717zM1107 82h622v104h-622zM40 186h110v104H40zM150 186h365v104H150zM515 186h202v104H515zM717 186h390v104H717zM1107 186h622v104h-622zM40 290h110v104H40zM150 290h365v104H150zM515 290h202v104H515zM717 290h390v104H717zM1107 290h622v104h-622z" fill="#fff"/><path d="M40 40v42M150 40v42M515 40v42M717 40v42M1107 40v42M1729 40v42M40 82v104M150 82v104M515 82v104M717 82v104M1107 82v104M1729 82v104M40 186v104M150 186v104M515 186v104M717 186v104M1107 186v104M1729 186v104M40 290v104M150 290v104M515 290v104M717 290v104M1107 290v104M1729 290v104M40 40h110M150 40h365M515 40h202M717 40h390M1107 40h622M40 82h110M150 82h365M515 82h202M717 82h390M1107 82h622M40 186h110M150 186h365M515 186h202M717 186h390M1107 186h622M40 290h110M40 394h110M150 290h365M150 394h365M515 290h202M515 394h202M717 290h390M717 394h390M1107 290h622M1107 394h622" stroke="#000" stroke-width="2" fill="none"/><use xlink:href="#a" transform="matrix(1,0,0,1,45,45) translate(42.592592592592595 21.333333333333332)"/><use xlink:href="#b" transform="matrix(1,0,0,1,155,45) translate(113.90740740740742 21.333333333333332)"/><use xlink:href="#c" transform="matrix(1,0,0,1,155,45) translate(170.12962962962962 21.333333333333332)"/><use xlink:href="#d" transform="matrix(1,0,0,1,520,45) translate(66.37037037037038 21.333333333333332)"/><use xlink:href="#e" transform="matrix(1,0,0,1,722,45) translate(99.03703703703704 21.333333333333332)"/><use xlink:href="#f" transform="matrix(1,0,0,1,1112,45) translate(206.74074074074076 21.333333333333332)"/><use xlink:href="#g" transform="matrix(1,0,0,1,1112,45) translate(325.25925925925923 21.333333333333332)"/><use xlink:href="#h" transform="matrix(1,0,0,1,45,87) translate(43.82716049382716 51.44444444444444)"/><use xlink:href="#i" transform="matrix(1,0,0,1,155,87) translate(2.7222222222222285 52.33333333333333)"/><use xlink:href="#j" transform="matrix(1,0,0,1,155,87) translate(67.24074074074075 52.33333333333333)"/><use xlink:href="#k" transform="matrix(1,0,0,1,155,87) translate(157.46296296296296 52.33333333333333)"/><use xlink:href="#l" transform="matrix(1,0,0,1,155,87) translate(221.09259259259258 52.33333333333333)"/><use xlink:href="#m" transform="matrix(1,0,0,1,155,87) translate(299.537037037037 52.33333333333333)"/><use xlink:href="#n" transform="matrix(1,0,0,1,520,87) translate(53.111111111111114 52.33333333333333)"/><use xlink:href="#o" transform="matrix(1,0,0,1,722,87) translate(26 52.33333333333333)"/><use xlink:href="#p" transform="matrix(1,0,0,1,722,87) translate(92.59259259259258 52.33333333333333)"/><use xlink:href="#q" transform="matrix(1,0,0,1,722,87) translate(154.7407407407407 52.33333333333333)"/><use xlink:href="#r" transform="matrix(1,0,0,1,722,87) translate(206.59259259259255 52.33333333333333)"/><use xlink:href="#s" transform="matrix(1,0,0,1,722,87) translate(266.7407407407407 52.33333333333333)"/><use xlink:href="#t" transform="matrix(1,0,0,1,722,87) translate(293.3333333333333 52.33333333333333)"/><use xlink:href="#u" transform="matrix(1,0,0,1,1112,87) translate(102.81481481481486 36.333333333333336)"/><use xlink:href="#v" transform="matrix(1,0,0,1,1112,87) translate(197.40740740740745 36.333333333333336)"/><use xlink:href="#w" transform="matrix(1,0,0,1,1112,87) translate(278.8148148148148 36.333333333333336)"/><use xlink:href="#r" transform="matrix(1,0,0,1,1112,87) translate(360.2222222222222 36.333333333333336)"/><use xlink:href="#x" transform="matrix(1,0,0,1,1112,87) translate(420.3703703703703 36.333333333333336)"/><use xlink:href="#y" transform="matrix(1,0,0,1,1112,87) translate(450 36.333333333333336)"/><use xlink:href="#z" transform="matrix(1,0,0,1,1112,87) translate(191.22222222222223 68.33333333333333)"/><use xlink:href="#A" transform="matrix(1,0,0,1,1112,87) translate(251.96296296296296 68.33333333333333)"/><use xlink:href="#B" transform="matrix(1,0,0,1,1112,87) translate(289 68.33333333333333)"/><use xlink:href="#C" transform="matrix(1,0,0,1,1112,87) translate(361.5185185185185 68.33333333333333)"/><use xlink:href="#D" transform="matrix(1,0,0,1,45,191) translate(43.82716049382716 51.44444444444444)"/><use xlink:href="#n" transform="matrix(1,0,0,1,520,191) translate(53.111111111111114 52.33333333333333)"/><use xlink:href="#o" transform="matrix(1,0,0,1,722,191) translate(25.925925925925952 36.333333333333336)"/><use xlink:href="#p" transform="matrix(1,0,0,1,722,191) translate(92.51851851851853 36.333333333333336)"/><use xlink:href="#q" transform="matrix(1,0,0,1,722,191) translate(154.66666666666666 36.333333333333336)"/><use xlink:href="#r" transform="matrix(1,0,0,1,722,191) translate(206.5185185185185 36.333333333333336)"/><use xlink:href="#E" transform="matrix(1,0,0,1,722,191) translate(266.66666666666663 36.333333333333336)"/><use xlink:href="#F" transform="matrix(1,0,0,1,722,191) translate(317.03703703703706 36.333333333333336)"/><use xlink:href="#G" transform="matrix(1,0,0,1,722,191) translate(101.14814814814816 68.33333333333333)"/><use xlink:href="#H" transform="matrix(1,0,0,1,722,191) translate(167.81481481481484 68.33333333333333)"/><use xlink:href="#u" transform="matrix(1,0,0,1,1112,191) translate(14.666666666666742 36.333333333333336)"/><use xlink:href="#v" transform="matrix(1,0,0,1,1112,191) translate(109.25925925925931 36.333333333333336)"/><use xlink:href="#I" transform="matrix(1,0,0,1,1112,191) translate(190.66666666666668 36.333333333333336)"/><use xlink:href="#r" transform="matrix(1,0,0,1,1112,191) translate(264.6666666666667 36.333333333333336)"/><use xlink:href="#E" transform="matrix(1,0,0,1,1112,191) translate(324.81481481481483 36.333333333333336)"/><use xlink:href="#J" transform="matrix(1,0,0,1,1112,191) translate(375.1851851851852 36.333333333333336)"/><use xlink:href="#G" transform="matrix(1,0,0,1,1112,191) translate(419.6296296296297 36.333333333333336)"/><use xlink:href="#K" transform="matrix(1,0,0,1,1112,191) translate(486.2962962962963 36.333333333333336)"/><use xlink:href="#z" transform="matrix(1,0,0,1,1112,191) translate(191.22222222222223 68.33333333333333)"/><use xlink:href="#A" transform="matrix(1,0,0,1,1112,191) translate(251.96296296296296 68.33333333333333)"/><use xlink:href="#B" transform="matrix(1,0,0,1,1112,191) translate(289 68.33333333333333)"/><use xlink:href="#C" transform="matrix(1,0,0,1,1112,191) translate(361.5185185185185 68.33333333333333)"/><use xlink:href="#L" transform="matrix(1,0,0,1,45,295) translate(43.82716049382716 51.44444444444444)"/><use xlink:href="#n" transform="matrix(1,0,0,1,520,295) translate(53.111111111111114 52.33333333333333)"/><use xlink:href="#o" transform="matrix(1,0,0,1,722,295) translate(74.51851851851853 52.33333333333333)"/><use xlink:href="#M" transform="matrix(1,0,0,1,722,295) translate(141.11111111111111 52.33333333333333)"/><use xlink:href="#J" transform="matrix(1,0,0,1,722,295) translate(206.2962962962963 52.33333333333333)"/><use xlink:href="#N" transform="matrix(1,0,0,1,722,295) translate(250.74074074074073 52.33333333333333)"/><use xlink:href="#u" transform="matrix(1,0,0,1,1112,295) translate(143.22222222222223 52.33333333333333)"/><use xlink:href="#O" transform="matrix(1,0,0,1,1112,295) translate(237.81481481481478 52.33333333333333)"/><use xlink:href="#M" transform="matrix(1,0,0,1,1112,295) translate(304.4074074074074 52.33333333333333)"/><use xlink:href="#J" transform="matrix(1,0,0,1,1112,295) translate(369.59259259259255 52.33333333333333)"/><use xlink:href="#P" transform="matrix(1,0,0,1,1112,295) translate(414.037037037037 52.33333333333333)"/><path d="M40 420h110v42H40zM150 420h365v42H150z" fill="#b2d6ef"/><path d="M515 420h202v42H515zM717 420h390v42H717zM1107 420h622v42h-622z" fill="#c1e4f7"/><path d="M40 462h110v104H40zM150 462h365v104H150zM515 462h202v104H515zM717 462h390v104H717zM1107 462h622v104h-622zM40 566h110v104H40zM150 566h365v104H150zM515 566h202v104H515zM717 566h390v104H717zM1107 566h622v104h-622zM40 670h110v104H40zM150 670h365v104H150zM515 670h202v104H515zM717 670h390v104H717zM1107 670h622v104h-622z" fill="#fff"/><path d="M40 420v42M150 420v42M515 420v42M717 420v42M1107 420v42M1729 420v42M40 462v104M150 462v104M515 462v104M717 462v104M1107 462v104M1729 462v104M40 566v104M150 566v104M515 566v104M717 566v104M1107 566v104M1729 566v104M40 670v104M150 670v104M515 670v104M717 670v104M1107 670v104M1729 670v104M40 420h110M150 420h365M515 420h202M717 420h390M1107 420h622M40 462h110M150 462h365M515 462h202M717 462h390M1107 462h622M40 566h110M150 566h365M515 566h202M717 566h390M1107 566h622M40 670h110M40 774h110M150 670h365M150 774h365M515 670h202M515 774h202M717 670h390M717 774h390M1107 670h622M1107 774h622" stroke="#000" stroke-width="2" fill="none"/><use xlink:href="#a" transform="matrix(1,0,0,1,45,425) translate(42.592592592592595 21.333333333333332)"/><use xlink:href="#b" transform="matrix(1,0,0,1,155,425) translate(113.90740740740742 21.333333333333332)"/><use xlink:href="#c" transform="matrix(1,0,0,1,155,425) translate(170.12962962962962 21.333333333333332)"/><use xlink:href="#d" transform="matrix(1,0,0,1,520,425) translate(66.37037037037038 21.333333333333332)"/><use xlink:href="#e" transform="matrix(1,0,0,1,722,425) translate(99.03703703703704 21.333333333333332)"/><use xlink:href="#f" transform="matrix(1,0,0,1,1112,425) translate(206.74074074074076 21.333333333333332)"/><use xlink:href="#g" transform="matrix(1,0,0,1,1112,425) translate(325.25925925925923 21.333333333333332)"/><use xlink:href="#h" transform="matrix(1,0,0,1,45,467) translate(43.82716049382716 51.44444444444444)"/><use xlink:href="#Q" transform="matrix(1,0,0,1,155,467) translate(51.94444444444447 52.33333333333333)"/><use xlink:href="#v" transform="matrix(1,0,0,1,155,467) translate(162.98148148148147 52.33333333333333)"/><use xlink:href="#R" transform="matrix(1,0,0,1,155,467) translate(244.38888888888886 52.33333333333333)"/><use xlink:href="#S" transform="matrix(1,0,0,1,520,467) translate(27.18518518518519 36.333333333333336)"/><use xlink:href="#T" transform="matrix(1,0,0,1,520,467) translate(120.37037037037036 36.333333333333336)"/><use xlink:href="#U" transform="matrix(1,0,0,1,520,467) translate(45.000000000000014 68.33333333333333)"/><use xlink:href="#o" transform="matrix(1,0,0,1,722,467) translate(35.40740740740745 36.333333333333336)"/><use xlink:href="#p" transform="matrix(1,0,0,1,722,467) translate(102.00000000000003 36.333333333333336)"/><use xlink:href="#q" transform="matrix(1,0,0,1,722,467) translate(164.14814814814815 36.333333333333336)"/><use xlink:href="#V" transform="matrix(1,0,0,1,722,467) translate(216 36.333333333333336)"/><use xlink:href="#W" transform="matrix(1,0,0,1,722,467) translate(325.4074074074074 36.333333333333336)"/><use xlink:href="#X" transform="matrix(1,0,0,1,722,467) translate(150.74074074074076 68.33333333333333)"/><use xlink:href="#u" transform="matrix(1,0,0,1,1112,467) translate(9.185185185185275 36.333333333333336)"/><use xlink:href="#Y" transform="matrix(1,0,0,1,1112,467) translate(103.77777777777784 36.333333333333336)"/><use xlink:href="#Z" transform="matrix(1,0,0,1,1112,467) translate(156.1481481481482 36.333333333333336)"/><use xlink:href="#aa" transform="matrix(1,0,0,1,1112,467) translate(221.33333333333337 36.333333333333336)"/><use xlink:href="#ab" transform="matrix(1,0,0,1,1112,467) translate(339.85185185185184 36.333333333333336)"/><use xlink:href="#v" transform="matrix(1,0,0,1,1112,467) translate(384.2962962962963 36.333333333333336)"/><use xlink:href="#ac" transform="matrix(1,0,0,1,1112,467) translate(465.7037037037037 36.333333333333336)"/><use xlink:href="#ad" transform="matrix(1,0,0,1,1112,467) translate(544.148148148148 36.333333333333336)"/><use xlink:href="#z" transform="matrix(1,0,0,1,1112,467) translate(191.22222222222223 68.33333333333333)"/><use xlink:href="#A" transform="matrix(1,0,0,1,1112,467) translate(251.96296296296296 68.33333333333333)"/><use xlink:href="#B" transform="matrix(1,0,0,1,1112,467) translate(289 68.33333333333333)"/><use xlink:href="#C" transform="matrix(1,0,0,1,1112,467) translate(361.5185185185185 68.33333333333333)"/><use xlink:href="#D" transform="matrix(1,0,0,1,45,571) translate(43.82716049382716 51.44444444444444)"/><use xlink:href="#S" transform="matrix(1,0,0,1,520,571) translate(27.18518518518519 36.333333333333336)"/><use xlink:href="#T" transform="matrix(1,0,0,1,520,571) translate(120.37037037037036 36.333333333333336)"/><use xlink:href="#U" transform="matrix(1,0,0,1,520,571) translate(45.000000000000014 68.33333333333333)"/><use xlink:href="#o" transform="matrix(1,0,0,1,722,571) translate(35.40740740740745 36.333333333333336)"/><use xlink:href="#p" transform="matrix(1,0,0,1,722,571) translate(102.00000000000003 36.333333333333336)"/><use xlink:href="#q" transform="matrix(1,0,0,1,722,571) translate(164.14814814814815 36.333333333333336)"/><use xlink:href="#V" transform="matrix(1,0,0,1,722,571) translate(216 36.333333333333336)"/><use xlink:href="#W" transform="matrix(1,0,0,1,722,571) translate(325.4074074074074 36.333333333333336)"/><use xlink:href="#ae" transform="matrix(1,0,0,1,722,571) translate(157.4814814814815 68.33333333333333)"/><g><use xlink:href="#u" transform="matrix(1,0,0,1,1112,571) translate(12.222222222222285 36.333333333333336)"/><use xlink:href="#Y" transform="matrix(1,0,0,1,1112,571) translate(106.81481481481485 36.333333333333336)"/><use xlink:href="#Z" transform="matrix(1,0,0,1,1112,571) translate(159.18518518518522 36.333333333333336)"/><use xlink:href="#af" transform="matrix(1,0,0,1,1112,571) translate(224.37037037037038 36.333333333333336)"/><use xlink:href="#ab" transform="matrix(1,0,0,1,1112,571) translate(336.8148148148148 36.333333333333336)"/><use xlink:href="#v" transform="matrix(1,0,0,1,1112,571) translate(381.25925925925923 36.333333333333336)"/><use xlink:href="#ac" transform="matrix(1,0,0,1,1112,571) translate(462.66666666666663 36.333333333333336)"/><use xlink:href="#ad" transform="matrix(1,0,0,1,1112,571) translate(541.1111111111111 36.333333333333336)"/><use xlink:href="#z" transform="matrix(1,0,0,1,1112,571) translate(191.22222222222223 68.33333333333333)"/><use xlink:href="#A" transform="matrix(1,0,0,1,1112,571) translate(251.96296296296296 68.33333333333333)"/><use xlink:href="#B" transform="matrix(1,0,0,1,1112,571) translate(289 68.33333333333333)"/><use xlink:href="#C" transform="matrix(1,0,0,1,1112,571) translate(361.5185185185185 68.33333333333333)"/></g><g><use xlink:href="#L" transform="matrix(1,0,0,1,45,675) translate(43.82716049382716 51.44444444444444)"/></g><g><use xlink:href="#S" transform="matrix(1,0,0,1,520,675) translate(27.18518518518519 36.333333333333336)"/><use xlink:href="#T" transform="matrix(1,0,0,1,520,675) translate(120.37037037037036 36.333333333333336)"/><use xlink:href="#U" transform="matrix(1,0,0,1,520,675) translate(45.000000000000014 68.33333333333333)"/></g><g><use xlink:href="#o" transform="matrix(1,0,0,1,722,675) translate(74.51851851851853 52.33333333333333)"/><use xlink:href="#M" transform="matrix(1,0,0,1,722,675) translate(141.11111111111111 52.33333333333333)"/><use xlink:href="#J" transform="matrix(1,0,0,1,722,675) translate(206.2962962962963 52.33333333333333)"/><use xlink:href="#N" transform="matrix(1,0,0,1,722,675) translate(250.74074074074073 52.33333333333333)"/></g><g><use xlink:href="#u" transform="matrix(1,0,0,1,1112,675) translate(143.22222222222223 52.33333333333333)"/><use xlink:href="#O" transform="matrix(1,0,0,1,1112,675) translate(237.81481481481478 52.33333333333333)"/><use xlink:href="#M" transform="matrix(1,0,0,1,1112,675) translate(304.4074074074074 52.33333333333333)"/><use xlink:href="#J" transform="matrix(1,0,0,1,1112,675) translate(369.59259259259255 52.33333333333333)"/><use xlink:href="#P" transform="matrix(1,0,0,1,1112,675) translate(414.037037037037 52.33333333333333)"/></g><path d="M40 820h110v42H40zM150 820h409v42H150z" fill="#b2d6ef"/><path d="M559 820h182v42H559zM741 820h366v42H741zM1107 820h622v42h-622z" fill="#c1e4f7"/><path d="M40 862h110v104H40zM150 862h409v104H150zM559 862h182v104H559zM741 862h366v104H741zM1107 862h622v104h-622zM40 966h110v104H40zM150 966h409v104H150zM559 966h182v104H559zM741 966h366v104H741zM1107 966h622v104h-622z" fill="#fff"/><path d="M40 820v42M150 820v42M559 820v42M741 820v42M1107 820v42M1729 820v42M40 862v104M150 862v104M559 862v104M741 862v104M1107 862v104M1729 862v104M40 966v104M150 966v104M559 966v104M741 966v104M1107 966v104M1729 966v104M40 820h110M150 820h409M559 820h182M741 820h366M1107 820h622M40 862h110M150 862h409M559 862h182M741 862h366M1107 862h622M40 966h110M40 1070h110M150 966h409M150 1070h409M559 966h182M559 1070h182M741 966h366M741 1070h366M1107 966h622M1107 1070h622" stroke="#000" stroke-width="2" fill="none"/><g><use xlink:href="#a" transform="matrix(1,0,0,1,45,825) translate(42.592592592592595 21.333333333333332)"/></g><g><use xlink:href="#b" transform="matrix(1,0,0,1,155,825) translate(135.90740740740742 21.333333333333332)"/><use xlink:href="#c" transform="matrix(1,0,0,1,155,825) translate(192.12962962962962 21.333333333333332)"/></g><g><use xlink:href="#d" transform="matrix(1,0,0,1,564,825) translate(56.370370370370374 21.333333333333332)"/></g><g><use xlink:href="#e" transform="matrix(1,0,0,1,746,825) translate(87.03703703703704 21.333333333333332)"/></g><g><use xlink:href="#f" transform="matrix(1,0,0,1,1112,825) translate(206.74074074074076 21.333333333333332)"/><use xlink:href="#g" transform="matrix(1,0,0,1,1112,825) translate(325.25925925925923 21.333333333333332)"/></g><g><use xlink:href="#h" transform="matrix(1,0,0,1,45,867) translate(43.82716049382716 51.44444444444444)"/></g><g><use xlink:href="#ag" transform="matrix(1,0,0,1,155,867) translate(0.5 52.33333333333333)"/><use xlink:href="#ah" transform="matrix(1,0,0,1,155,867) translate(73.0185185185185 52.33333333333333)"/><use xlink:href="#ai" transform="matrix(1,0,0,1,155,867) translate(158.79629629629628 52.33333333333333)"/><use xlink:href="#U" transform="matrix(1,0,0,1,155,867) translate(296.5 52.33333333333333)"/></g><g><use xlink:href="#aj" transform="matrix(1,0,0,1,564,867) translate(31.296296296296312 52.33333333333333)"/><use xlink:href="#U" transform="matrix(1,0,0,1,564,867) translate(38.70370370370372 52.33333333333333)"/></g><g><use xlink:href="#ak" transform="matrix(1,0,0,1,746,867) translate(70.74074074074076 52.33333333333333)"/><use xlink:href="#s" transform="matrix(1,0,0,1,746,867) translate(180.14814814814815 52.33333333333333)"/><use xlink:href="#X" transform="matrix(1,0,0,1,746,867) translate(206.74074074074073 52.33333333333333)"/></g><g><use xlink:href="#u" transform="matrix(1,0,0,1,1112,867) translate(46.96296296296299 36.333333333333336)"/><use xlink:href="#al" transform="matrix(1,0,0,1,1112,867) translate(141.55555555555554 36.333333333333336)"/><use xlink:href="#E" transform="matrix(1,0,0,1,1112,867) translate(203.62962962962962 36.333333333333336)"/><use xlink:href="#G" transform="matrix(1,0,0,1,1112,867) translate(254 36.333333333333336)"/><use xlink:href="#am" transform="matrix(1,0,0,1,1112,867) translate(320.6666666666667 36.333333333333336)"/><use xlink:href="#q" transform="matrix(1,0,0,1,1112,867) translate(405.037037037037 36.333333333333336)"/><use xlink:href="#an" transform="matrix(1,0,0,1,1112,867) translate(456.88888888888885 36.333333333333336)"/><use xlink:href="#z" transform="matrix(1,0,0,1,1112,867) translate(191.22222222222223 68.33333333333333)"/><use xlink:href="#A" transform="matrix(1,0,0,1,1112,867) translate(251.96296296296296 68.33333333333333)"/><use xlink:href="#B" transform="matrix(1,0,0,1,1112,867) translate(289 68.33333333333333)"/><use xlink:href="#C" transform="matrix(1,0,0,1,1112,867) translate(361.5185185185185 68.33333333333333)"/></g><g><use xlink:href="#D" transform="matrix(1,0,0,1,45,971) translate(43.82716049382716 51.44444444444444)"/></g><g><use xlink:href="#aj" transform="matrix(1,0,0,1,564,971) translate(31.296296296296312 52.33333333333333)"/><use xlink:href="#U" transform="matrix(1,0,0,1,564,971) translate(38.70370370370372 52.33333333333333)"/></g><g><use xlink:href="#ak" transform="matrix(1,0,0,1,746,971) translate(77.4814814814815 52.33333333333333)"/><use xlink:href="#s" transform="matrix(1,0,0,1,746,971) translate(186.88888888888886 52.33333333333333)"/><use xlink:href="#ae" transform="matrix(1,0,0,1,746,971) translate(213.48148148148147 52.33333333333333)"/></g><g><use xlink:href="#u" transform="matrix(1,0,0,1,1112,971) translate(87.00000000000005 36.333333333333336)"/><use xlink:href="#ao" transform="matrix(1,0,0,1,1112,971) translate(181.5925925925926 36.333333333333336)"/><use xlink:href="#E" transform="matrix(1,0,0,1,1112,971) translate(313.2962962962963 36.333333333333336)"/><use xlink:href="#G" transform="matrix(1,0,0,1,1112,971) translate(363.6666666666667 36.333333333333336)"/><use xlink:href="#ap" transform="matrix(1,0,0,1,1112,971) translate(430.3333333333333 36.333333333333336)"/><use xlink:href="#z" transform="matrix(1,0,0,1,1112,971) translate(191.22222222222223 68.33333333333333)"/><use xlink:href="#A" transform="matrix(1,0,0,1,1112,971) translate(251.96296296296296 68.33333333333333)"/><use xlink:href="#B" transform="matrix(1,0,0,1,1112,971) translate(289 68.33333333333333)"/><use xlink:href="#C" transform="matrix(1,0,0,1,1112,971) translate(361.5185185185185 68.33333333333333)"/></g><defs><path d="M160-152l-12 59h37v26h-43L128 0h-28l14-67H60L46 0H20l13-67H6v-26h33l13-59H15v-26h42l15-67h27l-15 67h54l15-67h27l-14 67h28v26h-34zm-81 0L66-93h55l12-59H79" id="aq"/><use transform="matrix(0.07407407407407407,0,0,0.07407407407407407,0,0)" xlink:href="#aq" id="a"/><path d="M127-220V0H93v-220H8v-28h204v28h-85" id="ar"/><path d="M100-194c63 0 86 42 84 106H49c0 40 14 67 53 68 26 1 43-12 49-29l28 8c-11 28-37 45-77 45C44 4 14-33 15-96c1-61 26-98 85-98zm52 81c6-60-76-77-97-28-3 7-6 17-6 28h103" id="as"/><path d="M135-143c-3-34-86-38-87 0 15 53 115 12 119 90S17 21 10-45l28-5c4 36 97 45 98 0-10-56-113-15-118-90-4-57 82-63 122-42 12 7 21 19 24 35" id="at"/><path d="M59-47c-2 24 18 29 38 22v24C64 9 27 4 27-40v-127H5v-23h24l9-43h21v43h35v23H59v120" id="au"/><g id="b"><use transform="matrix(0.07407407407407407,0,0,0.07407407407407407,0,0)" xlink:href="#ar"/><use transform="matrix(0.07407407407407407,0,0,0.07407407407407407,13.259259259259257,0)" xlink:href="#as"/><use transform="matrix(0.07407407407407407,0,0,0.07407407407407407,28.074074074074072,0)" xlink:href="#at"/><use transform="matrix(0.07407407407407407,0,0,0.07407407407407407,41.407407407407405,0)" xlink:href="#au"/></g><path d="M190 0L58-211 59 0H30v-248h39L202-35l-2-213h31V0h-41" id="av"/><path d="M141-36C126-15 110 5 73 4 37 3 15-17 15-53c-1-64 63-63 125-63 3-35-9-54-41-54-24 1-41 7-42 31l-33-3c5-37 33-52 76-52 45 0 72 20 72 64v82c-1 20 7 32 28 27v20c-31 9-61-2-59-35zM48-53c0 20 12 33 32 33 41-3 63-29 60-74-43 2-92-5-92 41" id="aw"/><path d="M210-169c-67 3-38 105-44 169h-31v-121c0-29-5-50-35-48C34-165 62-65 56 0H25l-1-190h30c1 10-1 24 2 32 10-44 99-50 107 0 11-21 27-35 58-36 85-2 47 119 55 194h-31v-121c0-29-5-49-35-48" id="ax"/><g id="c"><use transform="matrix(0.07407407407407407,0,0,0.07407407407407407,0,0)" xlink:href="#av"/><use transform="matrix(0.07407407407407407,0,0,0.07407407407407407,19.185185185185183,0)" xlink:href="#aw"/><use transform="matrix(0.07407407407407407,0,0,0.07407407407407407,34,0)" xlink:href="#ax"/><use transform="matrix(0.07407407407407407,0,0,0.07407407407407407,56.148148148148145,0)" xlink:href="#as"/></g><path d="M33 0v-248h34V0H33" id="ay"/><path d="M117-194c89-4 53 116 60 194h-32v-121c0-31-8-49-39-48C34-167 62-67 57 0H25l-1-190h30c1 10-1 24 2 32 11-22 29-35 61-36" id="az"/><path d="M115-194c55 1 70 41 70 98S169 2 115 4C84 4 66-9 55-30l1 105H24l-1-265h31l2 30c10-21 28-34 59-34zm-8 174c40 0 45-34 45-75s-6-73-45-74c-42 0-51 32-51 76 0 43 10 73 51 73" id="aA"/><path d="M84 4C-5 8 30-112 23-190h32v120c0 31 7 50 39 49 72-2 45-101 50-169h31l1 190h-30c-1-10 1-25-2-33-11 22-28 36-60 37" id="aB"/><g id="d"><use transform="matrix(0.07407407407407407,0,0,0.07407407407407407,0,0)" xlink:href="#ay"/><use transform="matrix(0.07407407407407407,0,0,0.07407407407407407,7.4074074074074065,0)" xlink:href="#az"/><use transform="matrix(0.07407407407407407,0,0,0.07407407407407407,22.22222222222222,0)" xlink:href="#aA"/><use transform="matrix(0.07407407407407407,0,0,0.07407407407407407,37.03703703703704,0)" xlink:href="#aB"/><use transform="matrix(0.07407407407407407,0,0,0.07407407407407407,51.85185185185185,0)" xlink:href="#au"/></g><path d="M212-179c-10-28-35-45-73-45-59 0-87 40-87 99 0 60 29 101 89 101 43 0 62-24 78-52l27 14C228-24 195 4 139 4 59 4 22-46 18-125c-6-104 99-153 187-111 19 9 31 26 39 46" id="aC"/><path d="M100-194c62-1 85 37 85 99 1 63-27 99-86 99S16-35 15-95c0-66 28-99 85-99zM99-20c44 1 53-31 53-75 0-43-8-75-51-75s-53 32-53 75 10 74 51 75" id="aD"/><path d="M85-194c31 0 48 13 60 33l-1-100h32l1 261h-30c-2-10 0-23-3-31C134-8 116 4 85 4 32 4 16-35 15-94c0-66 23-100 70-100zm9 24c-40 0-46 34-46 75 0 40 6 74 45 74 42 0 51-32 51-76 0-42-9-74-50-73" id="aE"/><path d="M24-231v-30h32v30H24zM24 0v-190h32V0H24" id="aF"/><path d="M0 4l72-265h28L28 4H0" id="aG"/><g id="e"><use transform="matrix(0.07407407407407407,0,0,0.07407407407407407,0,0)" xlink:href="#aC"/><use transform="matrix(0.07407407407407407,0,0,0.07407407407407407,19.185185185185183,0)" xlink:href="#aD"/><use transform="matrix(0.07407407407407407,0,0,0.07407407407407407,34,0)" xlink:href="#az"/><use transform="matrix(0.07407407407407407,0,0,0.07407407407407407,48.81481481481481,0)" xlink:href="#aE"/><use transform="matrix(0.07407407407407407,0,0,0.07407407407407407,63.62962962962962,0)" xlink:href="#aF"/><use transform="matrix(0.07407407407407407,0,0,0.07407407407407407,69.48148148148146,0)" xlink:href="#au"/><use transform="matrix(0.07407407407407407,0,0,0.07407407407407407,76.88888888888887,0)" xlink:href="#aF"/><use transform="matrix(0.07407407407407407,0,0,0.07407407407407407,82.74074074074072,0)" xlink:href="#aD"/><use transform="matrix(0.07407407407407407,0,0,0.07407407407407407,97.55555555555553,0)" xlink:href="#az"/><use transform="matrix(0.07407407407407407,0,0,0.07407407407407407,112.37037037037032,0)" xlink:href="#at"/><use transform="matrix(0.07407407407407407,0,0,0.07407407407407407,125.70370370370366,0)" xlink:href="#aG"/><use transform="matrix(0.07407407407407407,0,0,0.07407407407407407,133.1111111111111,0)" xlink:href="#ar"/><use transform="matrix(0.07407407407407407,0,0,0.07407407407407407,146.37037037037035,0)" xlink:href="#as"/><use transform="matrix(0.07407407407407407,0,0,0.07407407407407407,161.18518518518516,0)" xlink:href="#at"/><use transform="matrix(0.07407407407407407,0,0,0.07407407407407407,174.5185185185185,0)" xlink:href="#au"/></g><path d="M30 0v-248h187v28H63v79h144v27H63v87h162V0H30" id="aH"/><path d="M141 0L90-78 38 0H4l68-98-65-92h35l48 74 47-74h35l-64 92 68 98h-35" id="aI"/><path d="M96-169c-40 0-48 33-48 73s9 75 48 75c24 0 41-14 43-38l32 2c-6 37-31 61-74 61-59 0-76-41-82-99-10-93 101-131 147-64 4 7 5 14 7 22l-32 3c-4-21-16-35-41-35" id="aJ"/><g id="f"><use transform="matrix(0.07407407407407407,0,0,0.07407407407407407,0,0)" xlink:href="#aH"/><use transform="matrix(0.07407407407407407,0,0,0.07407407407407407,17.77777777777778,0)" xlink:href="#aI"/><use transform="matrix(0.07407407407407407,0,0,0.07407407407407407,31.11111111111111,0)" xlink:href="#aA"/><use transform="matrix(0.07407407407407407,0,0,0.07407407407407407,45.925925925925924,0)" xlink:href="#as"/><use transform="matrix(0.07407407407407407,0,0,0.07407407407407407,60.74074074074074,0)" xlink:href="#aJ"/><use transform="matrix(0.07407407407407407,0,0,0.07407407407407407,74.07407407407406,0)" xlink:href="#au"/><use transform="matrix(0.07407407407407407,0,0,0.07407407407407407,81.48148148148146,0)" xlink:href="#as"/><use transform="matrix(0.07407407407407407,0,0,0.07407407407407407,96.29629629629627,0)" xlink:href="#aE"/></g><path d="M140-251c81 0 123 46 123 126C263-46 219 4 140 4 59 4 17-45 17-125s42-126 123-126zm0 227c63 0 89-41 89-101s-29-99-89-99c-61 0-89 39-89 99S79-25 140-24" id="aK"/><g id="g"><use transform="matrix(0.07407407407407407,0,0,0.07407407407407407,0,0)" xlink:href="#aK"/><use transform="matrix(0.07407407407407407,0,0,0.07407407407407407,20.74074074074074,0)" xlink:href="#aB"/><use transform="matrix(0.07407407407407407,0,0,0.07407407407407407,35.55555555555556,0)" xlink:href="#au"/><use transform="matrix(0.07407407407407407,0,0,0.07407407407407407,42.96296296296296,0)" xlink:href="#aA"/><use transform="matrix(0.07407407407407407,0,0,0.07407407407407407,57.77777777777777,0)" xlink:href="#aB"/><use transform="matrix(0.07407407407407407,0,0,0.07407407407407407,72.59259259259258,0)" xlink:href="#au"/></g><path d="M23 0v-37h61v-169l-59 37v-38l62-41h46v211h57V0H23" id="aL"/><use transform="matrix(0.06172839506172839,0,0,0.06172839506172839,0,0)" xlink:href="#aL" id="h"/><path d="M137 0h-34L2-248h35l83 218 83-218h36" id="aM"/><path d="M206 0h-36l-40-164L89 0H53L-1-190h32L70-26l43-164h34l41 164 42-164h31" id="aN"/><g id="i"><use transform="matrix(0.07407407407407407,0,0,0.07407407407407407,0,0)" xlink:href="#aM"/><use transform="matrix(0.07407407407407407,0,0,0.07407407407407407,17.25925925925926,0)" xlink:href="#aF"/><use transform="matrix(0.07407407407407407,0,0,0.07407407407407407,23.11111111111111,0)" xlink:href="#as"/><use transform="matrix(0.07407407407407407,0,0,0.07407407407407407,37.925925925925924,0)" xlink:href="#aN"/></g><path d="M114-163C36-179 61-72 57 0H25l-1-190h30c1 12-1 29 2 39 6-27 23-49 58-41v29" id="aO"/><g id="j"><use transform="matrix(0.07407407407407407,0,0,0.07407407407407407,0,0)" xlink:href="#aJ"/><use transform="matrix(0.07407407407407407,0,0,0.07407407407407407,13.333333333333332,0)" xlink:href="#aB"/><use transform="matrix(0.07407407407407407,0,0,0.07407407407407407,28.148148148148145,0)" xlink:href="#aO"/><use transform="matrix(0.07407407407407407,0,0,0.07407407407407407,36.96296296296296,0)" xlink:href="#aO"/><use transform="matrix(0.07407407407407407,0,0,0.07407407407407407,45.77777777777778,0)" xlink:href="#as"/><use transform="matrix(0.07407407407407407,0,0,0.07407407407407407,60.592592592592595,0)" xlink:href="#az"/><use transform="matrix(0.07407407407407407,0,0,0.07407407407407407,75.4074074074074,0)" xlink:href="#au"/></g><path d="M106-169C34-169 62-67 57 0H25v-261h32l-1 103c12-21 28-36 61-36 89 0 53 116 60 194h-32v-121c2-32-8-49-39-48" id="aP"/><g id="k"><use transform="matrix(0.07407407407407407,0,0,0.07407407407407407,0,0)" xlink:href="#aA"/><use transform="matrix(0.07407407407407407,0,0,0.07407407407407407,14.814814814814813,0)" xlink:href="#aF"/><use transform="matrix(0.07407407407407407,0,0,0.07407407407407407,20.666666666666664,0)" xlink:href="#au"/><use transform="matrix(0.07407407407407407,0,0,0.07407407407407407,28.07407407407407,0)" xlink:href="#aJ"/><use transform="matrix(0.07407407407407407,0,0,0.07407407407407407,41.407407407407405,0)" xlink:href="#aP"/></g><path d="M145-31C134-9 116 4 85 4 32 4 16-35 15-94c0-59 17-99 70-100 32-1 48 14 60 33 0-11-1-24 2-32h30l-1 268h-32zM93-21c41 0 51-33 51-76s-8-73-50-73c-40 0-46 35-46 75s5 74 45 74" id="aQ"/><path d="M179-190L93 31C79 59 56 82 12 73V49c39 6 53-20 64-50L1-190h34L92-34l54-156h33" id="aR"/><g id="l"><use transform="matrix(0.07407407407407407,0,0,0.07407407407407407,0,0)" xlink:href="#as"/><use transform="matrix(0.07407407407407407,0,0,0.07407407407407407,14.814814814814813,0)" xlink:href="#aQ"/><use transform="matrix(0.07407407407407407,0,0,0.07407407407407407,29.629629629629626,0)" xlink:href="#aB"/><use transform="matrix(0.07407407407407407,0,0,0.07407407407407407,44.44444444444444,0)" xlink:href="#aF"/><use transform="matrix(0.07407407407407407,0,0,0.07407407407407407,50.29629629629629,0)" xlink:href="#au"/><use transform="matrix(0.07407407407407407,0,0,0.07407407407407407,57.703703703703695,0)" xlink:href="#aR"/></g><path d="M101-234c-31-9-42 10-38 44h38v23H63V0H32v-167H5v-23h27c-7-52 17-82 69-68v24" id="aS"/><g id="m"><use transform="matrix(0.07407407407407407,0,0,0.07407407407407407,0,0)" xlink:href="#aD"/><use transform="matrix(0.07407407407407407,0,0,0.07407407407407407,14.814814814814813,0)" xlink:href="#aS"/><use transform="matrix(0.07407407407407407,0,0,0.07407407407407407,21.703703703703702,0)" xlink:href="#aS"/><use transform="matrix(0.07407407407407407,0,0,0.07407407407407407,29.111111111111103,0)" xlink:href="#as"/><use transform="matrix(0.07407407407407407,0,0,0.07407407407407407,43.925925925925924,0)" xlink:href="#aO"/></g><path d="M30-248c87 1 191-15 191 75 0 78-77 80-158 76V0H30v-248zm33 125c57 0 124 11 124-50 0-59-68-47-124-48v98" id="aT"/><path d="M30-248c118-7 216 8 213 122C240-48 200 0 122 0H30v-248zM63-27c89 8 146-16 146-99s-60-101-146-95v194" id="aU"/><g id="n"><use transform="matrix(0.07407407407407407,0,0,0.07407407407407407,0,0)" xlink:href="#aT"/><use transform="matrix(0.07407407407407407,0,0,0.07407407407407407,17.77777777777778,0)" xlink:href="#aF"/><use transform="matrix(0.07407407407407407,0,0,0.07407407407407407,23.62962962962963,0)" xlink:href="#au"/><use transform="matrix(0.07407407407407407,0,0,0.07407407407407407,31.037037037037038,0)" xlink:href="#aJ"/><use transform="matrix(0.07407407407407407,0,0,0.07407407407407407,44.37037037037037,0)" xlink:href="#aP"/><use transform="matrix(0.07407407407407407,0,0,0.07407407407407407,59.185185185185176,0)" xlink:href="#ay"/><use transform="matrix(0.07407407407407407,0,0,0.07407407407407407,66.59259259259258,0)" xlink:href="#aU"/></g><g id="o"><use transform="matrix(0.07407407407407407,0,0,0.07407407407407407,0,0)" xlink:href="#aT"/><use transform="matrix(0.07407407407407407,0,0,0.07407407407407407,17.77777777777778,0)" xlink:href="#aF"/><use transform="matrix(0.07407407407407407,0,0,0.07407407407407407,23.62962962962963,0)" xlink:href="#au"/><use transform="matrix(0.07407407407407407,0,0,0.07407407407407407,31.037037037037038,0)" xlink:href="#aJ"/><use transform="matrix(0.07407407407407407,0,0,0.07407407407407407,44.37037037037037,0)" xlink:href="#aP"/></g><g id="p"><use transform="matrix(0.07407407407407407,0,0,0.07407407407407407,0,0)" xlink:href="#as"/><use transform="matrix(0.07407407407407407,0,0,0.07407407407407407,14.814814814814813,0)" xlink:href="#aI"/><use transform="matrix(0.07407407407407407,0,0,0.07407407407407407,28.148148148148145,0)" xlink:href="#aF"/><use transform="matrix(0.07407407407407407,0,0,0.07407407407407407,34,0)" xlink:href="#at"/><use transform="matrix(0.07407407407407407,0,0,0.07407407407407407,47.33333333333333,0)" xlink:href="#au"/></g><g id="q"><use transform="matrix(0.07407407407407407,0,0,0.07407407407407407,0,0)" xlink:href="#aw"/><use transform="matrix(0.07407407407407407,0,0,0.07407407407407407,14.814814814814813,0)" xlink:href="#az"/><use transform="matrix(0.07407407407407407,0,0,0.07407407407407407,29.629629629629626,0)" xlink:href="#aE"/></g><g id="r"><use transform="matrix(0.07407407407407407,0,0,0.07407407407407407,0,0)" xlink:href="#aD"/><use transform="matrix(0.07407407407407407,0,0,0.07407407407407407,14.814814814814813,0)" xlink:href="#aS"/><use transform="matrix(0.07407407407407407,0,0,0.07407407407407407,21.703703703703702,0)" xlink:href="#aS"/><use transform="matrix(0.07407407407407407,0,0,0.07407407407407407,29.111111111111103,0)" xlink:href="#as"/><use transform="matrix(0.07407407407407407,0,0,0.07407407407407407,43.925925925925924,0)" xlink:href="#aO"/></g><g id="s"><use transform="matrix(0.07407407407407407,0,0,0.07407407407407407,0,0)" xlink:href="#aF"/><use transform="matrix(0.07407407407407407,0,0,0.07407407407407407,5.851851851851851,0)" xlink:href="#at"/></g><g id="t"><use transform="matrix(0.07407407407407407,0,0,0.07407407407407407,0,0)" xlink:href="#au"/><use transform="matrix(0.07407407407407407,0,0,0.07407407407407407,7.4074074074074065,0)" xlink:href="#aP"/><use transform="matrix(0.07407407407407407,0,0,0.07407407407407407,22.22222222222222,0)" xlink:href="#as"/><use transform="matrix(0.07407407407407407,0,0,0.07407407407407407,37.03703703703704,0)" xlink:href="#aO"/><use transform="matrix(0.07407407407407407,0,0,0.07407407407407407,45.851851851851855,0)" xlink:href="#as"/></g><path d="M24 0v-261h32V0H24" id="aV"/><g id="u"><use transform="matrix(0.07407407407407407,0,0,0.07407407407407407,0,0)" xlink:href="#aU"/><use transform="matrix(0.07407407407407407,0,0,0.07407407407407407,19.185185185185183,0)" xlink:href="#aF"/><use transform="matrix(0.07407407407407407,0,0,0.07407407407407407,25.037037037037034,0)" xlink:href="#at"/><use transform="matrix(0.07407407407407407,0,0,0.07407407407407407,38.37037037037037,0)" xlink:href="#aA"/><use transform="matrix(0.07407407407407407,0,0,0.07407407407407407,53.185185185185176,0)" xlink:href="#aV"/><use transform="matrix(0.07407407407407407,0,0,0.07407407407407407,59.037037037037024,0)" xlink:href="#aw"/><use transform="matrix(0.07407407407407407,0,0,0.07407407407407407,73.85185185185183,0)" xlink:href="#aR"/></g><g id="v"><use transform="matrix(0.07407407407407407,0,0,0.07407407407407407,0,0)" xlink:href="#aH"/><use transform="matrix(0.07407407407407407,0,0,0.07407407407407407,17.77777777777778,0)" xlink:href="#aQ"/><use transform="matrix(0.07407407407407407,0,0,0.07407407407407407,32.592592592592595,0)" xlink:href="#aB"/><use transform="matrix(0.07407407407407407,0,0,0.07407407407407407,47.407407407407405,0)" xlink:href="#aF"/><use transform="matrix(0.07407407407407407,0,0,0.07407407407407407,53.25925925925926,0)" xlink:href="#au"/><use transform="matrix(0.07407407407407407,0,0,0.07407407407407407,60.66666666666666,0)" xlink:href="#aR"/></g><g id="w"><use transform="matrix(0.07407407407407407,0,0,0.07407407407407407,0,0)" xlink:href="#at"/><use transform="matrix(0.07407407407407407,0,0,0.07407407407407407,13.333333333333332,0)" xlink:href="#aP"/><use transform="matrix(0.07407407407407407,0,0,0.07407407407407407,28.148148148148145,0)" xlink:href="#aw"/><use transform="matrix(0.07407407407407407,0,0,0.07407407407407407,42.96296296296296,0)" xlink:href="#aO"/><use transform="matrix(0.07407407407407407,0,0,0.07407407407407407,51.77777777777777,0)" xlink:href="#as"/></g><g id="x"><use transform="matrix(0.07407407407407407,0,0,0.07407407407407407,0,0)" xlink:href="#aD"/><use transform="matrix(0.07407407407407407,0,0,0.07407407407407407,14.814814814814813,0)" xlink:href="#aS"/></g><g id="y"><use transform="matrix(0.07407407407407407,0,0,0.07407407407407407,0,0)" xlink:href="#aT"/><use transform="matrix(0.07407407407407407,0,0,0.07407407407407407,17.77777777777778,0)" xlink:href="#aF"/><use transform="matrix(0.07407407407407407,0,0,0.07407407407407407,23.62962962962963,0)" xlink:href="#au"/><use transform="matrix(0.07407407407407407,0,0,0.07407407407407407,31.037037037037038,0)" xlink:href="#aJ"/><use transform="matrix(0.07407407407407407,0,0,0.07407407407407407,44.37037037037037,0)" xlink:href="#aP"/></g><path d="M185-189c-5-48-123-54-124 2 14 75 158 14 163 119 3 78-121 87-175 55-17-10-28-26-33-46l33-7c5 56 141 63 141-1 0-78-155-14-162-118-5-82 145-84 179-34 5 7 8 16 11 25" id="aW"/><g id="z"><use transform="matrix(0.07407407407407407,0,0,0.07407407407407407,0,0)" xlink:href="#aW"/><use transform="matrix(0.07407407407407407,0,0,0.07407407407407407,17.77777777777778,0)" xlink:href="#au"/><use transform="matrix(0.07407407407407407,0,0,0.07407407407407407,25.185185185185183,0)" xlink:href="#aw"/><use transform="matrix(0.07407407407407407,0,0,0.07407407407407407,40,0)" xlink:href="#aR"/></g><g id="A"><use transform="matrix(0.07407407407407407,0,0,0.07407407407407407,0,0)" xlink:href="#aD"/><use transform="matrix(0.07407407407407407,0,0,0.07407407407407407,14.814814814814813,0)" xlink:href="#az"/></g><g id="B"><use transform="matrix(0.07407407407407407,0,0,0.07407407407407407,0,0)" xlink:href="#at"/><use transform="matrix(0.07407407407407407,0,0,0.07407407407407407,13.333333333333332,0)" xlink:href="#aw"/><use transform="matrix(0.07407407407407407,0,0,0.07407407407407407,28.148148148148145,0)" xlink:href="#ax"/><use transform="matrix(0.07407407407407407,0,0,0.07407407407407407,50.29629629629629,0)" xlink:href="#as"/></g><path d="M177-190C167-65 218 103 67 71c-23-6-38-20-44-43l32-5c15 47 100 32 89-28v-30C133-14 115 1 83 1 29 1 15-40 15-95c0-56 16-97 71-98 29-1 48 16 59 35 1-10 0-23 2-32h30zM94-22c36 0 50-32 50-73 0-42-14-75-50-75-39 0-46 34-46 75s6 73 46 73" id="aX"/><g id="C"><use transform="matrix(0.07407407407407407,0,0,0.07407407407407407,0,0)" xlink:href="#aA"/><use transform="matrix(0.07407407407407407,0,0,0.07407407407407407,14.814814814814813,0)" xlink:href="#aw"/><use transform="matrix(0.07407407407407407,0,0,0.07407407407407407,29.629629629629626,0)" xlink:href="#aX"/><use transform="matrix(0.07407407407407407,0,0,0.07407407407407407,44.44444444444444,0)" xlink:href="#as"/></g><path d="M182-182c0 78-84 86-111 141h115V0H12c-6-101 99-100 120-180 1-22-12-31-33-32-23 0-32 14-35 34l-49-3c5-45 32-70 84-70 51 0 83 22 83 69" id="aY"/><use transform="matrix(0.06172839506172839,0,0,0.06172839506172839,0,0)" xlink:href="#aY" id="D"/><g id="E"><use transform="matrix(0.07407407407407407,0,0,0.07407407407407407,0,0)" xlink:href="#aP"/><use transform="matrix(0.07407407407407407,0,0,0.07407407407407407,14.814814814814813,0)" xlink:href="#aw"/><use transform="matrix(0.07407407407407407,0,0,0.07407407407407407,29.629629629629626,0)" xlink:href="#at"/></g><g id="F"><use transform="matrix(0.07407407407407407,0,0,0.07407407407407407,0,0)" xlink:href="#az"/><use transform="matrix(0.07407407407407407,0,0,0.07407407407407407,14.814814814814813,0)" xlink:href="#aD"/><use transform="matrix(0.07407407407407407,0,0,0.07407407407407407,29.629629629629626,0)" xlink:href="#au"/></g><path d="M115-194c53 0 69 39 70 98 0 66-23 100-70 100C84 3 66-7 56-30L54 0H23l1-261h32v101c10-23 28-34 59-34zm-8 174c40 0 45-34 45-75 0-40-5-75-45-74-42 0-51 32-51 76 0 43 10 73 51 73" id="aZ"/><g id="G"><use transform="matrix(0.07407407407407407,0,0,0.07407407407407407,0,0)" xlink:href="#aZ"/><use transform="matrix(0.07407407407407407,0,0,0.07407407407407407,14.814814814814813,0)" xlink:href="#as"/><use transform="matrix(0.07407407407407407,0,0,0.07407407407407407,29.629629629629626,0)" xlink:href="#as"/><use transform="matrix(0.07407407407407407,0,0,0.07407407407407407,44.44444444444444,0)" xlink:href="#az"/></g><g id="H"><use transform="matrix(0.07407407407407407,0,0,0.07407407407407407,0,0)" xlink:href="#aA"/><use transform="matrix(0.07407407407407407,0,0,0.07407407407407407,14.814814814814813,0)" xlink:href="#aO"/><use transform="matrix(0.07407407407407407,0,0,0.07407407407407407,23.629629629629622,0)" xlink:href="#aD"/><use transform="matrix(0.07407407407407407,0,0,0.07407407407407407,38.44444444444444,0)" xlink:href="#aA"/><use transform="matrix(0.07407407407407407,0,0,0.07407407407407407,53.25925925925926,0)" xlink:href="#aD"/><use transform="matrix(0.07407407407407407,0,0,0.07407407407407407,68.07407407407406,0)" xlink:href="#at"/><use transform="matrix(0.07407407407407407,0,0,0.07407407407407407,81.40740740740739,0)" xlink:href="#as"/><use transform="matrix(0.07407407407407407,0,0,0.07407407407407407,96.2222222222222,0)" xlink:href="#aE"/></g><g id="I"><use transform="matrix(0.07407407407407407,0,0,0.07407407407407407,0,0)" xlink:href="#at"/><use transform="matrix(0.07407407407407407,0,0,0.07407407407407407,13.333333333333332,0)" xlink:href="#aP"/><use transform="matrix(0.07407407407407407,0,0,0.07407407407407407,28.148148148148145,0)" xlink:href="#aw"/><use transform="matrix(0.07407407407407407,0,0,0.07407407407407407,42.96296296296296,0)" xlink:href="#aO"/><use transform="matrix(0.07407407407407407,0,0,0.07407407407407407,51.77777777777777,0)" xlink:href="#as"/></g><g id="J"><use transform="matrix(0.07407407407407407,0,0,0.07407407407407407,0,0)" xlink:href="#az"/><use transform="matrix(0.07407407407407407,0,0,0.07407407407407407,14.814814814814813,0)" xlink:href="#aD"/><use transform="matrix(0.07407407407407407,0,0,0.07407407407407407,29.629629629629626,0)" xlink:href="#au"/></g><g id="K"><use transform="matrix(0.07407407407407407,0,0,0.07407407407407407,0,0)" xlink:href="#aA"/><use transform="matrix(0.07407407407407407,0,0,0.07407407407407407,14.814814814814813,0)" xlink:href="#aO"/><use transform="matrix(0.07407407407407407,0,0,0.07407407407407407,23.629629629629622,0)" xlink:href="#aD"/><use transform="matrix(0.07407407407407407,0,0,0.07407407407407407,38.44444444444444,0)" xlink:href="#aA"/><use transform="matrix(0.07407407407407407,0,0,0.07407407407407407,53.25925925925926,0)" xlink:href="#aD"/><use transform="matrix(0.07407407407407407,0,0,0.07407407407407407,68.07407407407406,0)" xlink:href="#at"/><use transform="matrix(0.07407407407407407,0,0,0.07407407407407407,81.40740740740739,0)" xlink:href="#as"/><use transform="matrix(0.07407407407407407,0,0,0.07407407407407407,96.2222222222222,0)" xlink:href="#aE"/></g><path d="M128-127c34 4 56 21 59 58 7 91-148 94-172 28-4-9-6-17-7-26l51-5c1 24 16 35 40 36 23 0 39-12 38-36-1-31-31-36-65-34v-40c32 2 59-3 59-33 0-20-13-33-34-33s-33 13-35 32l-50-3c6-44 37-68 86-68 50 0 83 20 83 66 0 35-22 52-53 58" id="ba"/><use transform="matrix(0.06172839506172839,0,0,0.06172839506172839,0,0)" xlink:href="#ba" id="L"/><g id="M"><use transform="matrix(0.07407407407407407,0,0,0.07407407407407407,0,0)" xlink:href="#aE"/><use transform="matrix(0.07407407407407407,0,0,0.07407407407407407,14.814814814814813,0)" xlink:href="#aD"/><use transform="matrix(0.07407407407407407,0,0,0.07407407407407407,29.629629629629626,0)" xlink:href="#as"/><use transform="matrix(0.07407407407407407,0,0,0.07407407407407407,44.44444444444444,0)" xlink:href="#at"/></g><g id="N"><use transform="matrix(0.07407407407407407,0,0,0.07407407407407407,0,0)" xlink:href="#as"/><use transform="matrix(0.07407407407407407,0,0,0.07407407407407407,14.814814814814813,0)" xlink:href="#aI"/><use transform="matrix(0.07407407407407407,0,0,0.07407407407407407,28.148148148148145,0)" xlink:href="#aF"/><use transform="matrix(0.07407407407407407,0,0,0.07407407407407407,34,0)" xlink:href="#at"/><use transform="matrix(0.07407407407407407,0,0,0.07407407407407407,47.33333333333333,0)" xlink:href="#au"/></g><g id="O"><use transform="matrix(0.07407407407407407,0,0,0.07407407407407407,0,0)" xlink:href="#aT"/><use transform="matrix(0.07407407407407407,0,0,0.07407407407407407,17.77777777777778,0)" xlink:href="#aF"/><use transform="matrix(0.07407407407407407,0,0,0.07407407407407407,23.62962962962963,0)" xlink:href="#au"/><use transform="matrix(0.07407407407407407,0,0,0.07407407407407407,31.037037037037038,0)" xlink:href="#aJ"/><use transform="matrix(0.07407407407407407,0,0,0.07407407407407407,44.37037037037037,0)" xlink:href="#aP"/></g><g id="P"><use transform="matrix(0.07407407407407407,0,0,0.07407407407407407,0,0)" xlink:href="#as"/><use transform="matrix(0.07407407407407407,0,0,0.07407407407407407,14.814814814814813,0)" xlink:href="#aI"/><use transform="matrix(0.07407407407407407,0,0,0.07407407407407407,28.148148148148145,0)" xlink:href="#aF"/><use transform="matrix(0.07407407407407407,0,0,0.07407407407407407,34,0)" xlink:href="#at"/><use transform="matrix(0.07407407407407407,0,0,0.07407407407407407,47.33333333333333,0)" xlink:href="#au"/></g><path d="M108 0H70L1-190h34L89-25l56-165h34" id="bb"/><g id="Q"><use transform="matrix(0.07407407407407407,0,0,0.07407407407407407,0,0)" xlink:href="#aH"/><use transform="matrix(0.07407407407407407,0,0,0.07407407407407407,17.77777777777778,0)" xlink:href="#bb"/><use transform="matrix(0.07407407407407407,0,0,0.07407407407407407,31.11111111111111,0)" xlink:href="#aw"/><use transform="matrix(0.07407407407407407,0,0,0.07407407407407407,45.925925925925924,0)" xlink:href="#aV"/><use transform="matrix(0.07407407407407407,0,0,0.07407407407407407,51.77777777777777,0)" xlink:href="#aB"/><use transform="matrix(0.07407407407407407,0,0,0.07407407407407407,66.59259259259258,0)" xlink:href="#aw"/><use transform="matrix(0.07407407407407407,0,0,0.07407407407407407,81.40740740740739,0)" xlink:href="#au"/><use transform="matrix(0.07407407407407407,0,0,0.07407407407407407,88.8148148148148,0)" xlink:href="#as"/></g><g id="R"><use transform="matrix(0.07407407407407407,0,0,0.07407407407407407,0,0)" xlink:href="#aK"/><use transform="matrix(0.07407407407407407,0,0,0.07407407407407407,20.74074074074074,0)" xlink:href="#aS"/><use transform="matrix(0.07407407407407407,0,0,0.07407407407407407,27.62962962962963,0)" xlink:href="#aS"/><use transform="matrix(0.07407407407407407,0,0,0.07407407407407407,35.03703703703703,0)" xlink:href="#as"/><use transform="matrix(0.07407407407407407,0,0,0.07407407407407407,49.85185185185185,0)" xlink:href="#aO"/></g><g id="S"><use transform="matrix(0.07407407407407407,0,0,0.07407407407407407,0,0)" xlink:href="#aT"/><use transform="matrix(0.07407407407407407,0,0,0.07407407407407407,17.77777777777778,0)" xlink:href="#aF"/><use transform="matrix(0.07407407407407407,0,0,0.07407407407407407,23.62962962962963,0)" xlink:href="#au"/><use transform="matrix(0.07407407407407407,0,0,0.07407407407407407,31.037037037037038,0)" xlink:href="#aJ"/><use transform="matrix(0.07407407407407407,0,0,0.07407407407407407,44.37037037037037,0)" xlink:href="#aP"/><use transform="matrix(0.07407407407407407,0,0,0.07407407407407407,59.185185185185176,0)" xlink:href="#ay"/><use transform="matrix(0.07407407407407407,0,0,0.07407407407407407,66.59259259259258,0)" xlink:href="#aU"/></g><g id="T"><use transform="matrix(0.07407407407407407,0,0,0.07407407407407407,0,0)" xlink:href="#aw"/><use transform="matrix(0.07407407407407407,0,0,0.07407407407407407,14.814814814814813,0)" xlink:href="#az"/><use transform="matrix(0.07407407407407407,0,0,0.07407407407407407,29.629629629629626,0)" xlink:href="#aE"/></g><g id="U"><use transform="matrix(0.07407407407407407,0,0,0.07407407407407407,0,0)" xlink:href="#aU"/><use transform="matrix(0.07407407407407407,0,0,0.07407407407407407,19.185185185185183,0)" xlink:href="#as"/><use transform="matrix(0.07407407407407407,0,0,0.07407407407407407,34,0)" xlink:href="#aJ"/><use transform="matrix(0.07407407407407407,0,0,0.07407407407407407,47.33333333333333,0)" xlink:href="#aF"/><use transform="matrix(0.07407407407407407,0,0,0.07407407407407407,53.185185185185176,0)" xlink:href="#at"/><use transform="matrix(0.07407407407407407,0,0,0.07407407407407407,66.5185185185185,0)" xlink:href="#aF"/><use transform="matrix(0.07407407407407407,0,0,0.07407407407407407,72.37037037037035,0)" xlink:href="#aD"/><use transform="matrix(0.07407407407407407,0,0,0.07407407407407407,87.18518518518516,0)" xlink:href="#az"/></g><g id="V"><use transform="matrix(0.07407407407407407,0,0,0.07407407407407407,0,0)" xlink:href="#aU"/><use transform="matrix(0.07407407407407407,0,0,0.07407407407407407,19.185185185185183,0)" xlink:href="#as"/><use transform="matrix(0.07407407407407407,0,0,0.07407407407407407,34,0)" xlink:href="#aJ"/><use transform="matrix(0.07407407407407407,0,0,0.07407407407407407,47.33333333333333,0)" xlink:href="#aF"/><use transform="matrix(0.07407407407407407,0,0,0.07407407407407407,53.185185185185176,0)" xlink:href="#at"/><use transform="matrix(0.07407407407407407,0,0,0.07407407407407407,66.5185185185185,0)" xlink:href="#aF"/><use transform="matrix(0.07407407407407407,0,0,0.07407407407407407,72.37037037037035,0)" xlink:href="#aD"/><use transform="matrix(0.07407407407407407,0,0,0.07407407407407407,87.18518518518516,0)" xlink:href="#az"/></g><g id="W"><use transform="matrix(0.07407407407407407,0,0,0.07407407407407407,0,0)" xlink:href="#aF"/><use transform="matrix(0.07407407407407407,0,0,0.07407407407407407,5.851851851851851,0)" xlink:href="#at"/></g><g id="X"><use transform="matrix(0.07407407407407407,0,0,0.07407407407407407,0,0)" xlink:href="#aw"/><use transform="matrix(0.07407407407407407,0,0,0.07407407407407407,14.814814814814813,0)" xlink:href="#aJ"/><use transform="matrix(0.07407407407407407,0,0,0.07407407407407407,28.148148148148145,0)" xlink:href="#aJ"/><use transform="matrix(0.07407407407407407,0,0,0.07407407407407407,41.48148148148148,0)" xlink:href="#as"/><use transform="matrix(0.07407407407407407,0,0,0.07407407407407407,56.29629629629629,0)" xlink:href="#aA"/><use transform="matrix(0.07407407407407407,0,0,0.07407407407407407,71.1111111111111,0)" xlink:href="#au"/></g><path d="M137-103V0h-34v-103L8-248h37l75 118 75-118h37" id="bc"/><g id="Y"><use transform="matrix(0.07407407407407407,0,0,0.07407407407407407,0,0)" xlink:href="#bc"/><use transform="matrix(0.07407407407407407,0,0,0.07407407407407407,15.333333333333334,0)" xlink:href="#aD"/><use transform="matrix(0.07407407407407407,0,0,0.07407407407407407,30.148148148148145,0)" xlink:href="#aB"/></g><g id="Z"><use transform="matrix(0.07407407407407407,0,0,0.07407407407407407,0,0)" xlink:href="#aP"/><use transform="matrix(0.07407407407407407,0,0,0.07407407407407407,14.814814814814813,0)" xlink:href="#aw"/><use transform="matrix(0.07407407407407407,0,0,0.07407407407407407,29.629629629629626,0)" xlink:href="#bb"/><use transform="matrix(0.07407407407407407,0,0,0.07407407407407407,42.96296296296296,0)" xlink:href="#as"/></g><path d="M205 0l-28-72H64L36 0H1l101-248h38L239 0h-34zm-38-99l-47-123c-12 45-31 82-46 123h93" id="bd"/><g id="aa"><use transform="matrix(0.07407407407407407,0,0,0.07407407407407407,0,0)" xlink:href="#bd"/><use transform="matrix(0.07407407407407407,0,0,0.07407407407407407,17.77777777777778,0)" xlink:href="#aJ"/><use transform="matrix(0.07407407407407407,0,0,0.07407407407407407,31.11111111111111,0)" xlink:href="#aJ"/><use transform="matrix(0.07407407407407407,0,0,0.07407407407407407,44.44444444444444,0)" xlink:href="#as"/><use transform="matrix(0.07407407407407407,0,0,0.07407407407407407,59.25925925925925,0)" xlink:href="#aA"/><use transform="matrix(0.07407407407407407,0,0,0.07407407407407407,74.07407407407406,0)" xlink:href="#au"/><use transform="matrix(0.07407407407407407,0,0,0.07407407407407407,81.48148148148146,0)" xlink:href="#as"/><use transform="matrix(0.07407407407407407,0,0,0.07407407407407407,96.29629629629627,0)" xlink:href="#aE"/></g><g id="ab"><use transform="matrix(0.07407407407407407,0,0,0.07407407407407407,0,0)" xlink:href="#au"/><use transform="matrix(0.07407407407407407,0,0,0.07407407407407407,7.4074074074074065,0)" xlink:href="#aP"/><use transform="matrix(0.07407407407407407,0,0,0.07407407407407407,22.22222222222222,0)" xlink:href="#as"/></g><g id="ac"><use transform="matrix(0.07407407407407407,0,0,0.07407407407407407,0,0)" xlink:href="#aW"/><use transform="matrix(0.07407407407407407,0,0,0.07407407407407407,17.77777777777778,0)" xlink:href="#aP"/><use transform="matrix(0.07407407407407407,0,0,0.07407407407407407,32.592592592592595,0)" xlink:href="#aw"/><use transform="matrix(0.07407407407407407,0,0,0.07407407407407407,47.407407407407405,0)" xlink:href="#aO"/><use transform="matrix(0.07407407407407407,0,0,0.07407407407407407,56.22222222222222,0)" xlink:href="#as"/></g><g id="ad"><use transform="matrix(0.07407407407407407,0,0,0.07407407407407407,0,0)" xlink:href="#aK"/><use transform="matrix(0.07407407407407407,0,0,0.07407407407407407,20.74074074074074,0)" xlink:href="#aS"/><use transform="matrix(0.07407407407407407,0,0,0.07407407407407407,27.62962962962963,0)" xlink:href="#aS"/><use transform="matrix(0.07407407407407407,0,0,0.07407407407407407,35.03703703703703,0)" xlink:href="#as"/><use transform="matrix(0.07407407407407407,0,0,0.07407407407407407,49.85185185185185,0)" xlink:href="#aO"/></g><path d="M24-231v-30h32v30H24zM-9 49c24 4 33-6 33-30v-209h32V24c2 40-23 58-65 49V49" id="be"/><g id="ae"><use transform="matrix(0.07407407407407407,0,0,0.07407407407407407,0,0)" xlink:href="#aO"/><use transform="matrix(0.07407407407407407,0,0,0.07407407407407407,8.814814814814814,0)" xlink:href="#as"/><use transform="matrix(0.07407407407407407,0,0,0.07407407407407407,23.629629629629622,0)" xlink:href="#be"/><use transform="matrix(0.07407407407407407,0,0,0.07407407407407407,29.481481481481477,0)" xlink:href="#as"/><use transform="matrix(0.07407407407407407,0,0,0.07407407407407407,44.29629629629629,0)" xlink:href="#aJ"/><use transform="matrix(0.07407407407407407,0,0,0.07407407407407407,57.62962962962962,0)" xlink:href="#au"/></g><path d="M233-177c-1 41-23 64-60 70L243 0h-38l-65-103H63V0H30v-248c88 3 205-21 203 71zM63-129c60-2 137 13 137-47 0-61-80-42-137-45v92" id="bf"/><g id="af"><use transform="matrix(0.07407407407407407,0,0,0.07407407407407407,0,0)" xlink:href="#bf"/><use transform="matrix(0.07407407407407407,0,0,0.07407407407407407,19.185185185185183,0)" xlink:href="#as"/><use transform="matrix(0.07407407407407407,0,0,0.07407407407407407,34,0)" xlink:href="#be"/><use transform="matrix(0.07407407407407407,0,0,0.07407407407407407,39.85185185185185,0)" xlink:href="#as"/><use transform="matrix(0.07407407407407407,0,0,0.07407407407407407,54.66666666666666,0)" xlink:href="#aJ"/><use transform="matrix(0.07407407407407407,0,0,0.07407407407407407,67.99999999999998,0)" xlink:href="#au"/><use transform="matrix(0.07407407407407407,0,0,0.07407407407407407,75.40740740740739,0)" xlink:href="#as"/><use transform="matrix(0.07407407407407407,0,0,0.07407407407407407,90.2222222222222,0)" xlink:href="#aE"/></g><path d="M240 0l2-218c-23 76-54 145-80 218h-23L58-218 59 0H30v-248h44l77 211c21-75 51-140 76-211h43V0h-30" id="bg"/><path d="M143 0L79-87 56-68V0H24v-261h32v163l83-92h37l-77 82L181 0h-38" id="bh"/><g id="ag"><use transform="matrix(0.07407407407407407,0,0,0.07407407407407407,0,0)" xlink:href="#bg"/><use transform="matrix(0.07407407407407407,0,0,0.07407407407407407,22.148148148148145,0)" xlink:href="#aw"/><use transform="matrix(0.07407407407407407,0,0,0.07407407407407407,36.96296296296296,0)" xlink:href="#bh"/><use transform="matrix(0.07407407407407407,0,0,0.07407407407407407,50.29629629629629,0)" xlink:href="#as"/></g><g id="ah"><use transform="matrix(0.07407407407407407,0,0,0.07407407407407407,0,0)" xlink:href="#aK"/><use transform="matrix(0.07407407407407407,0,0,0.07407407407407407,20.74074074074074,0)" xlink:href="#bb"/><use transform="matrix(0.07407407407407407,0,0,0.07407407407407407,34.074074074074076,0)" xlink:href="#as"/><use transform="matrix(0.07407407407407407,0,0,0.07407407407407407,48.888888888888886,0)" xlink:href="#aO"/><use transform="matrix(0.07407407407407407,0,0,0.07407407407407407,57.7037037037037,0)" xlink:href="#aw"/><use transform="matrix(0.07407407407407407,0,0,0.07407407407407407,72.51851851851852,0)" xlink:href="#aV"/></g><g id="ai"><use transform="matrix(0.07407407407407407,0,0,0.07407407407407407,0,0)" xlink:href="#ay"/><use transform="matrix(0.07407407407407407,0,0,0.07407407407407407,7.4074074074074065,0)" xlink:href="#az"/><use transform="matrix(0.07407407407407407,0,0,0.07407407407407407,22.22222222222222,0)" xlink:href="#bb"/><use transform="matrix(0.07407407407407407,0,0,0.07407407407407407,35.55555555555556,0)" xlink:href="#as"/><use transform="matrix(0.07407407407407407,0,0,0.07407407407407407,50.37037037037037,0)" xlink:href="#at"/><use transform="matrix(0.07407407407407407,0,0,0.07407407407407407,63.703703703703695,0)" xlink:href="#au"/><use transform="matrix(0.07407407407407407,0,0,0.07407407407407407,71.1111111111111,0)" xlink:href="#ax"/><use transform="matrix(0.07407407407407407,0,0,0.07407407407407407,93.25925925925924,0)" xlink:href="#as"/><use transform="matrix(0.07407407407407407,0,0,0.07407407407407407,108.07407407407405,0)" xlink:href="#az"/><use transform="matrix(0.07407407407407407,0,0,0.07407407407407407,122.88888888888887,0)" xlink:href="#au"/></g><g id="ak"><use transform="matrix(0.07407407407407407,0,0,0.07407407407407407,0,0)" xlink:href="#aU"/><use transform="matrix(0.07407407407407407,0,0,0.07407407407407407,19.185185185185183,0)" xlink:href="#as"/><use transform="matrix(0.07407407407407407,0,0,0.07407407407407407,34,0)" xlink:href="#aJ"/><use transform="matrix(0.07407407407407407,0,0,0.07407407407407407,47.33333333333333,0)" xlink:href="#aF"/><use transform="matrix(0.07407407407407407,0,0,0.07407407407407407,53.185185185185176,0)" xlink:href="#at"/><use transform="matrix(0.07407407407407407,0,0,0.07407407407407407,66.5185185185185,0)" xlink:href="#aF"/><use transform="matrix(0.07407407407407407,0,0,0.07407407407407407,72.37037037037035,0)" xlink:href="#aD"/><use transform="matrix(0.07407407407407407,0,0,0.07407407407407407,87.18518518518516,0)" xlink:href="#az"/></g><g id="al"><use transform="matrix(0.07407407407407407,0,0,0.07407407407407407,0,0)" xlink:href="#aU"/><use transform="matrix(0.07407407407407407,0,0,0.07407407407407407,19.185185185185183,0)" xlink:href="#as"/><use transform="matrix(0.07407407407407407,0,0,0.07407407407407407,34,0)" xlink:href="#aw"/><use transform="matrix(0.07407407407407407,0,0,0.07407407407407407,48.81481481481481,0)" xlink:href="#aV"/></g><g id="am"><use transform="matrix(0.07407407407407407,0,0,0.07407407407407407,0,0)" xlink:href="#aJ"/><use transform="matrix(0.07407407407407407,0,0,0.07407407407407407,13.333333333333332,0)" xlink:href="#aV"/><use transform="matrix(0.07407407407407407,0,0,0.07407407407407407,19.185185185185183,0)" xlink:href="#aD"/><use transform="matrix(0.07407407407407407,0,0,0.07407407407407407,34,0)" xlink:href="#at"/><use transform="matrix(0.07407407407407407,0,0,0.07407407407407407,47.33333333333333,0)" xlink:href="#as"/><use transform="matrix(0.07407407407407407,0,0,0.07407407407407407,62.14814814814814,0)" xlink:href="#aE"/></g><g id="an"><use transform="matrix(0.07407407407407407,0,0,0.07407407407407407,0,0)" xlink:href="#aw"/><use transform="matrix(0.07407407407407407,0,0,0.07407407407407407,14.814814814814813,0)" xlink:href="#aJ"/><use transform="matrix(0.07407407407407407,0,0,0.07407407407407407,28.148148148148145,0)" xlink:href="#aJ"/><use transform="matrix(0.07407407407407407,0,0,0.07407407407407407,41.48148148148148,0)" xlink:href="#as"/><use transform="matrix(0.07407407407407407,0,0,0.07407407407407407,56.29629629629629,0)" xlink:href="#aA"/><use transform="matrix(0.07407407407407407,0,0,0.07407407407407407,71.1111111111111,0)" xlink:href="#au"/><use transform="matrix(0.07407407407407407,0,0,0.07407407407407407,78.51851851851849,0)" xlink:href="#as"/><use transform="matrix(0.07407407407407407,0,0,0.07407407407407407,93.33333333333331,0)" xlink:href="#aE"/></g><g id="ao"><use transform="matrix(0.07407407407407407,0,0,0.07407407407407407,0,0)" xlink:href="#bd"/><use transform="matrix(0.07407407407407407,0,0,0.07407407407407407,17.77777777777778,0)" xlink:href="#aA"/><use transform="matrix(0.07407407407407407,0,0,0.07407407407407407,32.592592592592595,0)" xlink:href="#aA"/><use transform="matrix(0.07407407407407407,0,0,0.07407407407407407,47.407407407407405,0)" xlink:href="#aV"/><use transform="matrix(0.07407407407407407,0,0,0.07407407407407407,53.25925925925926,0)" xlink:href="#aF"/><use transform="matrix(0.07407407407407407,0,0,0.07407407407407407,59.1111111111111,0)" xlink:href="#aJ"/><use transform="matrix(0.07407407407407407,0,0,0.07407407407407407,72.44444444444443,0)" xlink:href="#aw"/><use transform="matrix(0.07407407407407407,0,0,0.07407407407407407,87.25925925925924,0)" xlink:href="#au"/><use transform="matrix(0.07407407407407407,0,0,0.07407407407407407,94.66666666666664,0)" xlink:href="#aD"/><use transform="matrix(0.07407407407407407,0,0,0.07407407407407407,109.48148148148145,0)" xlink:href="#az"/></g><g id="ap"><use transform="matrix(0.07407407407407407,0,0,0.07407407407407407,0,0)" xlink:href="#aO"/><use transform="matrix(0.07407407407407407,0,0,0.07407407407407407,8.814814814814814,0)" xlink:href="#as"/><use transform="matrix(0.07407407407407407,0,0,0.07407407407407407,23.629629629629622,0)" xlink:href="#be"/><use transform="matrix(0.07407407407407407,0,0,0.07407407407407407,29.481481481481477,0)" xlink:href="#as"/><use transform="matrix(0.07407407407407407,0,0,0.07407407407407407,44.29629629629629,0)" xlink:href="#aJ"/><use transform="matrix(0.07407407407407407,0,0,0.07407407407407407,57.62962962962962,0)" xlink:href="#au"/><use transform="matrix(0.07407407407407407,0,0,0.07407407407407407,65.03703703703702,0)" xlink:href="#as"/><use transform="matrix(0.07407407407407407,0,0,0.07407407407407407,79.85185185185183,0)" xlink:href="#aE"/></g></defs></g></svg>