<svg xmlns="http://www.w3.org/2000/svg" xmlns:xlink="http://www.w3.org/1999/xlink" xmlns:lucid="lucid" width="1588.86" height="1006"><g transform="translate(-40 0)" lucid:page-tab-id="0_0"><path d="M0 0h1870.4v1323.2H0z" fill="#fff"/><path d="M60 20h110v42H60zM170 20h314v42H170z" fill="#b2d6ef"/><path d="M484 20h306v42H484zM790 20h243.4v42H790zM1033.4 20h409v42h-409z" fill="#c1e4f7"/><path d="M60 62h110v106H60zM170 62h314v106H170zM484 62h306v106H484zM790 62h243.4v106H790zM1033.4 62h409v106h-409zM60 168h110v106H60zM170 168h314v106H170zM484 168h306v106H484zM790 168h243.4v106H790zM1033.4 168h409v106h-409zM60 274h110v106H60zM170 274h314v106H170zM484 274h306v106H484zM790 274h243.4v106H790zM1033.4 274h409v106h-409zM60 380h110v106H60zM170 380h314v106H170zM484 380h306v106H484zM790 380h243.4v106H790zM1033.4 380h409v106h-409z" fill="#fff"/><path d="M60 20v42M170 20v42M484 20v42M790 20v42M1033.4 20v42M1442.4 20v42M60 62v106M170 62v106M484 62v106M790 62v106M1033.4 62v106M1442.4 62v106M60 168v106M170 168v106M484 168v106M790 168v106M1033.4 168v106M1442.4 168v106M60 274v106M170 274v106M484 274v106M790 274v106M1033.4 274v106M1442.4 274v106M60 380v106M170 380v106M484 380v106M790 380v106M1033.4 380v106M1442.4 380v106M60 20h110M170 20h314M484 20h306M790 20h243.4M1033.4 20h409M60 62h110M170 62h314M484 62h306M790 62h243.4M1033.4 62h409M60 168h110M170 168h314M484 168h306M790 168h243.4M1033.4 168h409M60 274h110M170 274h314M484 274h306M790 274h243.4M1033.4 274h409M60 380h110M60 486h110M170 380h314M170 486h314M484 380h306M484 486h306M790 380h243.4M790 486h243.4M1033.4 380h409M1033.4 486h409" stroke="#000" stroke-width="2" fill="none"/><use xlink:href="#a" transform="matrix(1,0,0,1,65,25) translate(42.592592592592595 21.333333333333332)"/><use xlink:href="#b" transform="matrix(1,0,0,1,175,25) translate(88.40740740740742 21.333333333333332)"/><use xlink:href="#c" transform="matrix(1,0,0,1,175,25) translate(144.62962962962962 21.333333333333332)"/><use xlink:href="#d" transform="matrix(1,0,0,1,489,25) translate(118.37037037037038 21.333333333333332)"/><use xlink:href="#e" transform="matrix(1,0,0,1,795,25) translate(26.037037037037038 21.333333333333332)"/><use xlink:href="#f" transform="matrix(1,0,0,1,1038.4,25) translate(100.24074074074076 21.333333333333332)"/><use xlink:href="#g" transform="matrix(1,0,0,1,1038.4,25) translate(218.75925925925924 21.333333333333332)"/><use xlink:href="#h" transform="matrix(1,0,0,1,65,67) translate(43.82716049382716 52.44444444444444)"/><use xlink:href="#i" transform="matrix(1,0,0,1,175,67) translate(102.4814814814815 53.33333333333333)"/><use xlink:href="#j" transform="matrix(1,0,0,1,489,67) translate(34.96296296296299 37.333333333333336)"/><use xlink:href="#k" transform="matrix(1,0,0,1,489,67) translate(108.81481481481482 37.333333333333336)"/><use xlink:href="#l" transform="matrix(1,0,0,1,489,67) translate(179.77777777777777 37.333333333333336)"/><use xlink:href="#m" transform="matrix(1,0,0,1,489,67) translate(85.85185185185186 69.33333333333333)"/><use xlink:href="#n" transform="matrix(1,0,0,1,795,67) translate(83.77777777777778 21.333333333333332)"/><use xlink:href="#o" transform="matrix(1,0,0,1,795,67) translate(22.29629629629632 53.33333333333333)"/><use xlink:href="#p" transform="matrix(1,0,0,1,795,67) translate(66.66666666666668 85.33333333333333)"/><use xlink:href="#q" transform="matrix(1,0,0,1,1038.4,67) translate(12.42592592592598 37.333333333333336)"/><use xlink:href="#r" transform="matrix(1,0,0,1,1038.4,67) translate(107.01851851851855 37.333333333333336)"/><use xlink:href="#s" transform="matrix(1,0,0,1,1038.4,67) translate(256.35185185185184 37.333333333333336)"/><use xlink:href="#t" transform="matrix(1,0,0,1,1038.4,67) translate(65.5740740740741 69.33333333333333)"/><use xlink:href="#u" transform="matrix(1,0,0,1,1038.4,67) translate(172.01851851851853 69.33333333333333)"/><use xlink:href="#v" transform="matrix(1,0,0,1,1038.4,67) translate(201.64814814814815 69.33333333333333)"/><use xlink:href="#w" transform="matrix(1,0,0,1,1038.4,67) translate(274.16666666666663 69.33333333333333)"/><use xlink:href="#x" transform="matrix(1,0,0,1,65,173) translate(43.82716049382716 52.44444444444444)"/><use xlink:href="#j" transform="matrix(1,0,0,1,489,173) translate(34.96296296296299 37.333333333333336)"/><use xlink:href="#k" transform="matrix(1,0,0,1,489,173) translate(108.81481481481482 37.333333333333336)"/><use xlink:href="#l" transform="matrix(1,0,0,1,489,173) translate(179.77777777777777 37.333333333333336)"/><use xlink:href="#y" transform="matrix(1,0,0,1,489,173) translate(85.85185185185186 69.33333333333333)"/><use xlink:href="#j" transform="matrix(1,0,0,1,795,173) translate(49.000000000000014 21.333333333333332)"/><use xlink:href="#z" transform="matrix(1,0,0,1,795,173) translate(122.85185185185185 21.333333333333332)"/><use xlink:href="#A" transform="matrix(1,0,0,1,795,173) translate(12.629629629629647 53.33333333333333)"/><use xlink:href="#B" transform="matrix(1,0,0,1,795,173) translate(147.29629629629628 53.33333333333333)"/><use xlink:href="#C" transform="matrix(1,0,0,1,795,173) translate(184.33333333333331 53.33333333333333)"/><use xlink:href="#D" transform="matrix(1,0,0,1,795,173) translate(80.74074074074075 85.33333333333333)"/><use xlink:href="#q" transform="matrix(1,0,0,1,1038.4,173) translate(0.5370370370370665 37.333333333333336)"/><use xlink:href="#r" transform="matrix(1,0,0,1,1038.4,173) translate(95.12962962962963 37.333333333333336)"/><use xlink:href="#E" transform="matrix(1,0,0,1,1038.4,173) translate(244.46296296296293 37.333333333333336)"/><use xlink:href="#F" transform="matrix(1,0,0,1,1038.4,173) translate(67.7592592592593 69.33333333333333)"/><use xlink:href="#G" transform="matrix(1,0,0,1,1038.4,173) translate(128.50000000000003 69.33333333333333)"/><use xlink:href="#H" transform="matrix(1,0,0,1,1038.4,173) translate(165.53703703703707 69.33333333333333)"/><use xlink:href="#w" transform="matrix(1,0,0,1,1038.4,173) translate(271.98148148148146 69.33333333333333)"/><use xlink:href="#I" transform="matrix(1,0,0,1,65,279) translate(43.82716049382716 52.44444444444444)"/><use xlink:href="#j" transform="matrix(1,0,0,1,489,279) translate(34.96296296296299 37.333333333333336)"/><use xlink:href="#k" transform="matrix(1,0,0,1,489,279) translate(108.81481481481482 37.333333333333336)"/><use xlink:href="#l" transform="matrix(1,0,0,1,489,279) translate(179.77777777777777 37.333333333333336)"/><use xlink:href="#y" transform="matrix(1,0,0,1,489,279) translate(85.85185185185186 69.33333333333333)"/><use xlink:href="#j" transform="matrix(1,0,0,1,795,279) translate(28.962962962962976 21.333333333333332)"/><use xlink:href="#J" transform="matrix(1,0,0,1,795,279) translate(102.81481481481481 21.333333333333332)"/><use xlink:href="#C" transform="matrix(1,0,0,1,795,279) translate(168 21.333333333333332)"/><use xlink:href="#K" transform="matrix(1,0,0,1,795,279) translate(18.59259259259261 53.33333333333333)"/><use xlink:href="#L" transform="matrix(1,0,0,1,795,279) translate(88.14814814814815 53.33333333333333)"/><use xlink:href="#D" transform="matrix(1,0,0,1,795,279) translate(80.74074074074075 85.33333333333333)"/><use xlink:href="#q" transform="matrix(1,0,0,1,1038.4,279) translate(0.5370370370370665 37.333333333333336)"/><use xlink:href="#r" transform="matrix(1,0,0,1,1038.4,279) translate(95.12962962962963 37.333333333333336)"/><use xlink:href="#M" transform="matrix(1,0,0,1,1038.4,279) translate(244.46296296296293 37.333333333333336)"/><use xlink:href="#F" transform="matrix(1,0,0,1,1038.4,279) translate(67.7592592592593 69.33333333333333)"/><use xlink:href="#G" transform="matrix(1,0,0,1,1038.4,279) translate(128.50000000000003 69.33333333333333)"/><use xlink:href="#H" transform="matrix(1,0,0,1,1038.4,279) translate(165.53703703703707 69.33333333333333)"/><use xlink:href="#w" transform="matrix(1,0,0,1,1038.4,279) translate(271.98148148148146 69.33333333333333)"/><use xlink:href="#N" transform="matrix(1,0,0,1,65,385) translate(43.82716049382716 52.44444444444444)"/><use xlink:href="#j" transform="matrix(1,0,0,1,489,385) translate(34.96296296296299 37.333333333333336)"/><use xlink:href="#k" transform="matrix(1,0,0,1,489,385) translate(108.81481481481482 37.333333333333336)"/><use xlink:href="#l" transform="matrix(1,0,0,1,489,385) translate(179.77777777777777 37.333333333333336)"/><use xlink:href="#y" transform="matrix(1,0,0,1,489,385) translate(85.85185185185186 69.33333333333333)"/><use xlink:href="#j" transform="matrix(1,0,0,1,795,385) translate(28.962962962962976 21.333333333333332)"/><use xlink:href="#J" transform="matrix(1,0,0,1,795,385) translate(102.81481481481481 21.333333333333332)"/><use xlink:href="#C" transform="matrix(1,0,0,1,795,385) translate(168 21.333333333333332)"/><use xlink:href="#K" transform="matrix(1,0,0,1,795,385) translate(0.0740740740741046 53.33333333333333)"/><use xlink:href="#A" transform="matrix(1,0,0,1,795,385) translate(69.62962962962965 53.33333333333333)"/><use xlink:href="#O" transform="matrix(1,0,0,1,795,385) translate(204.29629629629628 53.33333333333333)"/><use xlink:href="#P" transform="matrix(1,0,0,1,795,385) translate(54.814814814814824 85.33333333333333)"/><use xlink:href="#D" transform="matrix(1,0,0,1,795,385) translate(106.66666666666666 85.33333333333333)"/><use xlink:href="#q" transform="matrix(1,0,0,1,1038.4,385) translate(0.5370370370370665 37.333333333333336)"/><use xlink:href="#r" transform="matrix(1,0,0,1,1038.4,385) translate(95.12962962962963 37.333333333333336)"/><use xlink:href="#Q" transform="matrix(1,0,0,1,1038.4,385) translate(244.46296296296293 37.333333333333336)"/><use xlink:href="#F" transform="matrix(1,0,0,1,1038.4,385) translate(67.7592592592593 69.33333333333333)"/><use xlink:href="#G" transform="matrix(1,0,0,1,1038.4,385) translate(128.50000000000003 69.33333333333333)"/><use xlink:href="#H" transform="matrix(1,0,0,1,1038.4,385) translate(165.53703703703707 69.33333333333333)"/><use xlink:href="#w" transform="matrix(1,0,0,1,1038.4,385) translate(271.98148148148146 69.33333333333333)"/><path d="M60 520h110v42H60zM170 520h314v42H170z" fill="#b2d6ef"/><path d="M484 520h306v42H484zM790 520h243.4v42H790zM1033.4 520h417v42h-417z" fill="#c1e4f7"/><path d="M60 562h110v106H60zM170 562h314v106H170zM484 562h306v106H484zM790 562h243.4v106H790zM1033.4 562h417v106h-417zM60 668h110v106H60zM170 668h314v106H170zM484 668h306v106H484zM790 668h243.4v106H790zM1033.4 668h417v106h-417zM60 774h110v106H60zM170 774h314v106H170zM484 774h306v106H484zM790 774h243.4v106H790zM1033.4 774h417v106h-417zM60 880h110v106H60zM170 880h314v106H170zM484 880h306v106H484zM790 880h243.4v106H790zM1033.4 880h417v106h-417z" fill="#fff"/><path d="M60 520v42M170 520v42M484 520v42M790 520v42M1033.4 520v42M1450.4 520v42M60 562v106M170 562v106M484 562v106M790 562v106M1033.4 562v106M1450.4 562v106M60 668v106M170 668v106M484 668v106M790 668v106M1033.4 668v106M1450.4 668v106M60 774v106M170 774v106M484 774v106M790 774v106M1033.4 774v106M1450.4 774v106M60 880v106M170 880v106M484 880v106M790 880v106M1033.4 880v106M1450.4 880v106M60 520h110M170 520h314M484 520h306M790 520h243.4M1033.4 520h417M60 562h110M170 562h314M484 562h306M790 562h243.4M1033.4 562h417M60 668h110M170 668h314M484 668h306M790 668h243.4M1033.4 668h417M60 774h110M170 774h314M484 774h306M790 774h243.4M1033.4 774h417M60 880h110M60 986h110M170 880h314M170 986h314M484 880h306M484 986h306M790 880h243.4M790 986h243.4M1033.4 880h417M1033.4 986h417" stroke="#000" stroke-width="2" fill="none"/><use xlink:href="#a" transform="matrix(1,0,0,1,65,525) translate(42.592592592592595 21.333333333333332)"/><use xlink:href="#b" transform="matrix(1,0,0,1,175,525) translate(88.40740740740742 21.333333333333332)"/><use xlink:href="#c" transform="matrix(1,0,0,1,175,525) translate(144.62962962962962 21.333333333333332)"/><use xlink:href="#d" transform="matrix(1,0,0,1,489,525) translate(118.37037037037038 21.333333333333332)"/><use xlink:href="#e" transform="matrix(1,0,0,1,795,525) translate(26.037037037037038 21.333333333333332)"/><use xlink:href="#f" transform="matrix(1,0,0,1,1038.4,525) translate(104.24074074074076 21.333333333333332)"/><use xlink:href="#g" transform="matrix(1,0,0,1,1038.4,525) translate(222.75925925925924 21.333333333333332)"/><use xlink:href="#h" transform="matrix(1,0,0,1,65,567) translate(43.82716049382716 52.44444444444444)"/><use xlink:href="#R" transform="matrix(1,0,0,1,175,567) translate(119.44444444444445 53.33333333333333)"/><use xlink:href="#S" transform="matrix(1,0,0,1,489,567) translate(23.00000000000003 53.33333333333333)"/><use xlink:href="#T" transform="matrix(1,0,0,1,489,567) translate(104.25925925925926 53.33333333333333)"/><use xlink:href="#U" transform="matrix(1,0,0,1,489,567) translate(156.11111111111111 53.33333333333333)"/><use xlink:href="#n" transform="matrix(1,0,0,1,795,567) translate(83.77777777777778 21.333333333333332)"/><use xlink:href="#o" transform="matrix(1,0,0,1,795,567) translate(22.29629629629632 53.33333333333333)"/><use xlink:href="#V" transform="matrix(1,0,0,1,795,567) translate(89.62962962962963 85.33333333333333)"/><use xlink:href="#q" transform="matrix(1,0,0,1,1038.4,567) translate(54.83333333333337 37.333333333333336)"/><use xlink:href="#v" transform="matrix(1,0,0,1,1038.4,567) translate(149.42592592592592 37.333333333333336)"/><use xlink:href="#W" transform="matrix(1,0,0,1,1038.4,567) translate(221.94444444444446 37.333333333333336)"/><use xlink:href="#t" transform="matrix(1,0,0,1,1038.4,567) translate(66.64814814814818 69.33333333333333)"/><use xlink:href="#u" transform="matrix(1,0,0,1,1038.4,567) translate(173.0925925925926 69.33333333333333)"/><use xlink:href="#X" transform="matrix(1,0,0,1,1038.4,567) translate(202.72222222222223 69.33333333333333)"/><use xlink:href="#w" transform="matrix(1,0,0,1,1038.4,567) translate(281.0925925925926 69.33333333333333)"/><use xlink:href="#x" transform="matrix(1,0,0,1,65,673) translate(43.82716049382716 52.44444444444444)"/><use xlink:href="#S" transform="matrix(1,0,0,1,489,673) translate(23.00000000000003 53.33333333333333)"/><use xlink:href="#T" transform="matrix(1,0,0,1,489,673) translate(104.25925925925926 53.33333333333333)"/><use xlink:href="#Y" transform="matrix(1,0,0,1,489,673) translate(156.11111111111111 53.33333333333333)"/><use xlink:href="#j" transform="matrix(1,0,0,1,795,673) translate(49.000000000000014 21.333333333333332)"/><use xlink:href="#z" transform="matrix(1,0,0,1,795,673) translate(122.85185185185185 21.333333333333332)"/><use xlink:href="#A" transform="matrix(1,0,0,1,795,673) translate(12.629629629629647 53.33333333333333)"/><use xlink:href="#B" transform="matrix(1,0,0,1,795,673) translate(147.29629629629628 53.33333333333333)"/><use xlink:href="#C" transform="matrix(1,0,0,1,795,673) translate(184.33333333333331 53.33333333333333)"/><use xlink:href="#V" transform="matrix(1,0,0,1,795,673) translate(89.62962962962963 85.33333333333333)"/><use xlink:href="#q" transform="matrix(1,0,0,1,1038.4,673) translate(0.2037037037037237 37.333333333333336)"/><use xlink:href="#Z" transform="matrix(1,0,0,1,1038.4,673) translate(94.79629629629629 37.333333333333336)"/><use xlink:href="#aa" transform="matrix(1,0,0,1,1038.4,673) translate(179.09259259259258 37.333333333333336)"/><use xlink:href="#ab" transform="matrix(1,0,0,1,1038.4,673) translate(252.94444444444443 37.333333333333336)"/><use xlink:href="#ac" transform="matrix(1,0,0,1,1038.4,673) translate(289.9074074074074 37.333333333333336)"/><use xlink:href="#F" transform="matrix(1,0,0,1,1038.4,673) translate(88.72222222222223 69.33333333333333)"/><use xlink:href="#G" transform="matrix(1,0,0,1,1038.4,673) translate(149.46296296296296 69.33333333333333)"/><use xlink:href="#v" transform="matrix(1,0,0,1,1038.4,673) translate(186.5 69.33333333333333)"/><use xlink:href="#w" transform="matrix(1,0,0,1,1038.4,673) translate(259.0185185185185 69.33333333333333)"/><use xlink:href="#I" transform="matrix(1,0,0,1,65,779) translate(43.82716049382716 52.44444444444444)"/><use xlink:href="#S" transform="matrix(1,0,0,1,489,779) translate(23.00000000000003 53.33333333333333)"/><use xlink:href="#T" transform="matrix(1,0,0,1,489,779) translate(104.25925925925926 53.33333333333333)"/><use xlink:href="#Y" transform="matrix(1,0,0,1,489,779) translate(156.11111111111111 53.33333333333333)"/><use xlink:href="#j" transform="matrix(1,0,0,1,795,779) translate(28.962962962962976 21.333333333333332)"/><use xlink:href="#J" transform="matrix(1,0,0,1,795,779) translate(102.81481481481481 21.333333333333332)"/><use xlink:href="#C" transform="matrix(1,0,0,1,795,779) translate(168 21.333333333333332)"/><use xlink:href="#K" transform="matrix(1,0,0,1,795,779) translate(18.59259259259261 53.33333333333333)"/><use xlink:href="#L" transform="matrix(1,0,0,1,795,779) translate(88.14814814814815 53.33333333333333)"/><use xlink:href="#V" transform="matrix(1,0,0,1,795,779) translate(89.62962962962963 85.33333333333333)"/><use xlink:href="#q" transform="matrix(1,0,0,1,1038.4,779) translate(0.2037037037037237 37.333333333333336)"/><use xlink:href="#Z" transform="matrix(1,0,0,1,1038.4,779) translate(94.79629629629629 37.333333333333336)"/><use xlink:href="#aa" transform="matrix(1,0,0,1,1038.4,779) translate(179.09259259259258 37.333333333333336)"/><use xlink:href="#ab" transform="matrix(1,0,0,1,1038.4,779) translate(252.94444444444443 37.333333333333336)"/><use xlink:href="#ac" transform="matrix(1,0,0,1,1038.4,779) translate(289.9074074074074 37.333333333333336)"/><use xlink:href="#F" transform="matrix(1,0,0,1,1038.4,779) translate(88.72222222222223 69.33333333333333)"/><use xlink:href="#G" transform="matrix(1,0,0,1,1038.4,779) translate(149.46296296296296 69.33333333333333)"/><use xlink:href="#v" transform="matrix(1,0,0,1,1038.4,779) translate(186.5 69.33333333333333)"/><use xlink:href="#w" transform="matrix(1,0,0,1,1038.4,779) translate(259.0185185185185 69.33333333333333)"/><use xlink:href="#N" transform="matrix(1,0,0,1,65,885) translate(43.82716049382716 52.44444444444444)"/><use xlink:href="#S" transform="matrix(1,0,0,1,489,885) translate(23.00000000000003 53.33333333333333)"/><use xlink:href="#T" transform="matrix(1,0,0,1,489,885) translate(104.25925925925926 53.33333333333333)"/><use xlink:href="#Y" transform="matrix(1,0,0,1,489,885) translate(156.11111111111111 53.33333333333333)"/><use xlink:href="#j" transform="matrix(1,0,0,1,795,885) translate(28.962962962962976 21.333333333333332)"/><use xlink:href="#J" transform="matrix(1,0,0,1,795,885) translate(102.81481481481481 21.333333333333332)"/><use xlink:href="#C" transform="matrix(1,0,0,1,795,885) translate(168 21.333333333333332)"/><use xlink:href="#K" transform="matrix(1,0,0,1,795,885) translate(0.0740740740741046 53.33333333333333)"/><use xlink:href="#A" transform="matrix(1,0,0,1,795,885) translate(69.62962962962965 53.33333333333333)"/><use xlink:href="#O" transform="matrix(1,0,0,1,795,885) translate(204.29629629629628 53.33333333333333)"/><use xlink:href="#P" transform="matrix(1,0,0,1,795,885) translate(63.70370370370371 85.33333333333333)"/><use xlink:href="#V" transform="matrix(1,0,0,1,795,885) translate(115.55555555555554 85.33333333333333)"/><use xlink:href="#q" transform="matrix(1,0,0,1,1038.4,885) translate(0.2037037037037237 37.333333333333336)"/><use xlink:href="#Z" transform="matrix(1,0,0,1,1038.4,885) translate(94.79629629629629 37.333333333333336)"/><use xlink:href="#aa" transform="matrix(1,0,0,1,1038.4,885) translate(179.09259259259258 37.333333333333336)"/><use xlink:href="#ab" transform="matrix(1,0,0,1,1038.4,885) translate(252.94444444444443 37.333333333333336)"/><use xlink:href="#ad" transform="matrix(1,0,0,1,1038.4,885) translate(289.9074074074074 37.333333333333336)"/><use xlink:href="#F" transform="matrix(1,0,0,1,1038.4,885) translate(88.72222222222223 69.33333333333333)"/><use xlink:href="#G" transform="matrix(1,0,0,1,1038.4,885) translate(149.46296296296296 69.33333333333333)"/><use xlink:href="#v" transform="matrix(1,0,0,1,1038.4,885) translate(186.5 69.33333333333333)"/><use xlink:href="#w" transform="matrix(1,0,0,1,1038.4,885) translate(259.0185185185185 69.33333333333333)"/><path d="M60 20h110v42H60zM170 20h314v42H170z" fill="#b2d6ef"/><path d="M484 20h306v42H484zM790 20h243.4v42H790zM1033.4 20h409v42h-409z" fill="#c1e4f7"/><path d="M60 62h110v106H60zM170 62h314v106H170zM484 62h306v106H484zM790 62h243.4v106H790zM1033.4 62h409v106h-409zM60 168h110v106H60zM170 168h314v106H170zM484 168h306v106H484zM790 168h243.4v106H790zM1033.4 168h409v106h-409zM60 274h110v106H60zM170 274h314v106H170zM484 274h306v106H484zM790 274h243.4v106H790zM1033.4 274h409v106h-409zM60 380h110v106H60zM170 380h314v106H170zM484 380h306v106H484zM790 380h243.4v106H790zM1033.4 380h409v106h-409z" fill="#fff"/><path d="M60 20v42M170 20v42M484 20v42M790 20v42M1033.4 20v42M1442.4 20v42M60 62v106M170 62v106M484 62v106M790 62v106M1033.4 62v106M1442.4 62v106M60 168v106M170 168v106M484 168v106M790 168v106M1033.4 168v106M1442.4 168v106M60 274v106M170 274v106M484 274v106M790 274v106M1033.4 274v106M1442.4 274v106M60 380v106M170 380v106M484 380v106M790 380v106M1033.4 380v106M1442.4 380v106M60 20h110M170 20h314M484 20h306M790 20h243.4M1033.4 20h409M60 62h110M170 62h314M484 62h306M790 62h243.4M1033.4 62h409M60 168h110M170 168h314M484 168h306M790 168h243.4M1033.4 168h409M60 274h110M170 274h314M484 274h306M790 274h243.4M1033.4 274h409M60 380h110M60 486h110M170 380h314M170 486h314M484 380h306M484 486h306M790 380h243.4M790 486h243.4M1033.4 380h409M1033.4 486h409" stroke="#000" stroke-width="2" fill="none"/><g><use xlink:href="#a" transform="matrix(1,0,0,1,65,25) translate(42.592592592592595 21.333333333333332)"/></g><g><use xlink:href="#b" transform="matrix(1,0,0,1,175,25) translate(88.40740740740742 21.333333333333332)"/><use xlink:href="#c" transform="matrix(1,0,0,1,175,25) translate(144.62962962962962 21.333333333333332)"/></g><g><use xlink:href="#d" transform="matrix(1,0,0,1,489,25) translate(118.37037037037038 21.333333333333332)"/></g><g><use xlink:href="#e" transform="matrix(1,0,0,1,795,25) translate(26.037037037037038 21.333333333333332)"/></g><g><use xlink:href="#f" transform="matrix(1,0,0,1,1038.4,25) translate(100.24074074074076 21.333333333333332)"/><use xlink:href="#g" transform="matrix(1,0,0,1,1038.4,25) translate(218.75925925925924 21.333333333333332)"/></g><g><use xlink:href="#h" transform="matrix(1,0,0,1,65,67) translate(43.82716049382716 52.44444444444444)"/></g><g><use xlink:href="#i" transform="matrix(1,0,0,1,175,67) translate(102.4814814814815 53.33333333333333)"/></g><g><use xlink:href="#j" transform="matrix(1,0,0,1,489,67) translate(34.96296296296299 37.333333333333336)"/><use xlink:href="#k" transform="matrix(1,0,0,1,489,67) translate(108.81481481481482 37.333333333333336)"/><use xlink:href="#l" transform="matrix(1,0,0,1,489,67) translate(179.77777777777777 37.333333333333336)"/><use xlink:href="#m" transform="matrix(1,0,0,1,489,67) translate(85.85185185185186 69.33333333333333)"/></g><g><use xlink:href="#n" transform="matrix(1,0,0,1,795,67) translate(83.77777777777778 21.333333333333332)"/><use xlink:href="#o" transform="matrix(1,0,0,1,795,67) translate(22.29629629629632 53.33333333333333)"/><use xlink:href="#p" transform="matrix(1,0,0,1,795,67) translate(66.66666666666668 85.33333333333333)"/></g><g><use xlink:href="#q" transform="matrix(1,0,0,1,1038.4,67) translate(12.42592592592598 37.333333333333336)"/><use xlink:href="#r" transform="matrix(1,0,0,1,1038.4,67) translate(107.01851851851855 37.333333333333336)"/><use xlink:href="#s" transform="matrix(1,0,0,1,1038.4,67) translate(256.35185185185184 37.333333333333336)"/><use xlink:href="#t" transform="matrix(1,0,0,1,1038.4,67) translate(65.5740740740741 69.33333333333333)"/><use xlink:href="#u" transform="matrix(1,0,0,1,1038.4,67) translate(172.01851851851853 69.33333333333333)"/><use xlink:href="#v" transform="matrix(1,0,0,1,1038.4,67) translate(201.64814814814815 69.33333333333333)"/><use xlink:href="#w" transform="matrix(1,0,0,1,1038.4,67) translate(274.16666666666663 69.33333333333333)"/></g><g><use xlink:href="#x" transform="matrix(1,0,0,1,65,173) translate(43.82716049382716 52.44444444444444)"/></g><g><use xlink:href="#j" transform="matrix(1,0,0,1,489,173) translate(34.96296296296299 37.333333333333336)"/><use xlink:href="#k" transform="matrix(1,0,0,1,489,173) translate(108.81481481481482 37.333333333333336)"/><use xlink:href="#l" transform="matrix(1,0,0,1,489,173) translate(179.77777777777777 37.333333333333336)"/><use xlink:href="#y" transform="matrix(1,0,0,1,489,173) translate(85.85185185185186 69.33333333333333)"/></g><g><use xlink:href="#j" transform="matrix(1,0,0,1,795,173) translate(49.000000000000014 21.333333333333332)"/><use xlink:href="#z" transform="matrix(1,0,0,1,795,173) translate(122.85185185185185 21.333333333333332)"/><use xlink:href="#A" transform="matrix(1,0,0,1,795,173) translate(12.629629629629647 53.33333333333333)"/><use xlink:href="#B" transform="matrix(1,0,0,1,795,173) translate(147.29629629629628 53.33333333333333)"/><use xlink:href="#C" transform="matrix(1,0,0,1,795,173) translate(184.33333333333331 53.33333333333333)"/><use xlink:href="#D" transform="matrix(1,0,0,1,795,173) translate(80.74074074074075 85.33333333333333)"/></g><g><use xlink:href="#q" transform="matrix(1,0,0,1,1038.4,173) translate(0.5370370370370665 37.333333333333336)"/><use xlink:href="#r" transform="matrix(1,0,0,1,1038.4,173) translate(95.12962962962963 37.333333333333336)"/><use xlink:href="#E" transform="matrix(1,0,0,1,1038.4,173) translate(244.46296296296293 37.333333333333336)"/><use xlink:href="#F" transform="matrix(1,0,0,1,1038.4,173) translate(67.7592592592593 69.33333333333333)"/><use xlink:href="#G" transform="matrix(1,0,0,1,1038.4,173) translate(128.50000000000003 69.33333333333333)"/><use xlink:href="#H" transform="matrix(1,0,0,1,1038.4,173) translate(165.53703703703707 69.33333333333333)"/><use xlink:href="#w" transform="matrix(1,0,0,1,1038.4,173) translate(271.98148148148146 69.33333333333333)"/></g><g><use xlink:href="#I" transform="matrix(1,0,0,1,65,279) translate(43.82716049382716 52.44444444444444)"/></g><g><use xlink:href="#j" transform="matrix(1,0,0,1,489,279) translate(34.96296296296299 37.333333333333336)"/><use xlink:href="#k" transform="matrix(1,0,0,1,489,279) translate(108.81481481481482 37.333333333333336)"/><use xlink:href="#l" transform="matrix(1,0,0,1,489,279) translate(179.77777777777777 37.333333333333336)"/><use xlink:href="#y" transform="matrix(1,0,0,1,489,279) translate(85.85185185185186 69.33333333333333)"/></g><g><use xlink:href="#j" transform="matrix(1,0,0,1,795,279) translate(28.962962962962976 21.333333333333332)"/><use xlink:href="#J" transform="matrix(1,0,0,1,795,279) translate(102.81481481481481 21.333333333333332)"/><use xlink:href="#C" transform="matrix(1,0,0,1,795,279) translate(168 21.333333333333332)"/><use xlink:href="#K" transform="matrix(1,0,0,1,795,279) translate(18.59259259259261 53.33333333333333)"/><use xlink:href="#L" transform="matrix(1,0,0,1,795,279) translate(88.14814814814815 53.33333333333333)"/><use xlink:href="#D" transform="matrix(1,0,0,1,795,279) translate(80.74074074074075 85.33333333333333)"/></g><g><use xlink:href="#q" transform="matrix(1,0,0,1,1038.4,279) translate(0.5370370370370665 37.333333333333336)"/><use xlink:href="#r" transform="matrix(1,0,0,1,1038.4,279) translate(95.12962962962963 37.333333333333336)"/><use xlink:href="#M" transform="matrix(1,0,0,1,1038.4,279) translate(244.46296296296293 37.333333333333336)"/><use xlink:href="#F" transform="matrix(1,0,0,1,1038.4,279) translate(67.7592592592593 69.33333333333333)"/><use xlink:href="#G" transform="matrix(1,0,0,1,1038.4,279) translate(128.50000000000003 69.33333333333333)"/><use xlink:href="#H" transform="matrix(1,0,0,1,1038.4,279) translate(165.53703703703707 69.33333333333333)"/><use xlink:href="#w" transform="matrix(1,0,0,1,1038.4,279) translate(271.98148148148146 69.33333333333333)"/></g><g><use xlink:href="#N" transform="matrix(1,0,0,1,65,385) translate(43.82716049382716 52.44444444444444)"/></g><g><use xlink:href="#j" transform="matrix(1,0,0,1,489,385) translate(34.96296296296299 37.333333333333336)"/><use xlink:href="#k" transform="matrix(1,0,0,1,489,385) translate(108.81481481481482 37.333333333333336)"/><use xlink:href="#l" transform="matrix(1,0,0,1,489,385) translate(179.77777777777777 37.333333333333336)"/><use xlink:href="#y" transform="matrix(1,0,0,1,489,385) translate(85.85185185185186 69.33333333333333)"/></g><g><use xlink:href="#j" transform="matrix(1,0,0,1,795,385) translate(28.962962962962976 21.333333333333332)"/><use xlink:href="#J" transform="matrix(1,0,0,1,795,385) translate(102.81481481481481 21.333333333333332)"/><use xlink:href="#C" transform="matrix(1,0,0,1,795,385) translate(168 21.333333333333332)"/><use xlink:href="#K" transform="matrix(1,0,0,1,795,385) translate(0.0740740740741046 53.33333333333333)"/><use xlink:href="#A" transform="matrix(1,0,0,1,795,385) translate(69.62962962962965 53.33333333333333)"/><use xlink:href="#O" transform="matrix(1,0,0,1,795,385) translate(204.29629629629628 53.33333333333333)"/><use xlink:href="#P" transform="matrix(1,0,0,1,795,385) translate(54.814814814814824 85.33333333333333)"/><use xlink:href="#D" transform="matrix(1,0,0,1,795,385) translate(106.66666666666666 85.33333333333333)"/></g><g><use xlink:href="#q" transform="matrix(1,0,0,1,1038.4,385) translate(0.5370370370370665 37.333333333333336)"/><use xlink:href="#r" transform="matrix(1,0,0,1,1038.4,385) translate(95.12962962962963 37.333333333333336)"/><use xlink:href="#Q" transform="matrix(1,0,0,1,1038.4,385) translate(244.46296296296293 37.333333333333336)"/><use xlink:href="#F" transform="matrix(1,0,0,1,1038.4,385) translate(67.7592592592593 69.33333333333333)"/><use xlink:href="#G" transform="matrix(1,0,0,1,1038.4,385) translate(128.50000000000003 69.33333333333333)"/><use xlink:href="#H" transform="matrix(1,0,0,1,1038.4,385) translate(165.53703703703707 69.33333333333333)"/><use xlink:href="#w" transform="matrix(1,0,0,1,1038.4,385) translate(271.98148148148146 69.33333333333333)"/></g><defs><path d="M160-152l-12 59h37v26h-43L128 0h-28l14-67H60L46 0H20l13-67H6v-26h33l13-59H15v-26h42l15-67h27l-15 67h54l15-67h27l-14 67h28v26h-34zm-81 0L66-93h55l12-59H79" id="ae"/><use transform="matrix(0.07407407407407407,0,0,0.07407407407407407,0,0)" xlink:href="#ae" id="a"/><path d="M127-220V0H93v-220H8v-28h204v28h-85" id="af"/><path d="M100-194c63 0 86 42 84 106H49c0 40 14 67 53 68 26 1 43-12 49-29l28 8c-11 28-37 45-77 45C44 4 14-33 15-96c1-61 26-98 85-98zm52 81c6-60-76-77-97-28-3 7-6 17-6 28h103" id="ag"/><path d="M135-143c-3-34-86-38-87 0 15 53 115 12 119 90S17 21 10-45l28-5c4 36 97 45 98 0-10-56-113-15-118-90-4-57 82-63 122-42 12 7 21 19 24 35" id="ah"/><path d="M59-47c-2 24 18 29 38 22v24C64 9 27 4 27-40v-127H5v-23h24l9-43h21v43h35v23H59v120" id="ai"/><g id="b"><use transform="matrix(0.07407407407407407,0,0,0.07407407407407407,0,0)" xlink:href="#af"/><use transform="matrix(0.07407407407407407,0,0,0.07407407407407407,13.259259259259257,0)" xlink:href="#ag"/><use transform="matrix(0.07407407407407407,0,0,0.07407407407407407,28.074074074074072,0)" xlink:href="#ah"/><use transform="matrix(0.07407407407407407,0,0,0.07407407407407407,41.407407407407405,0)" xlink:href="#ai"/></g><path d="M190 0L58-211 59 0H30v-248h39L202-35l-2-213h31V0h-41" id="aj"/><path d="M141-36C126-15 110 5 73 4 37 3 15-17 15-53c-1-64 63-63 125-63 3-35-9-54-41-54-24 1-41 7-42 31l-33-3c5-37 33-52 76-52 45 0 72 20 72 64v82c-1 20 7 32 28 27v20c-31 9-61-2-59-35zM48-53c0 20 12 33 32 33 41-3 63-29 60-74-43 2-92-5-92 41" id="ak"/><path d="M210-169c-67 3-38 105-44 169h-31v-121c0-29-5-50-35-48C34-165 62-65 56 0H25l-1-190h30c1 10-1 24 2 32 10-44 99-50 107 0 11-21 27-35 58-36 85-2 47 119 55 194h-31v-121c0-29-5-49-35-48" id="al"/><g id="c"><use transform="matrix(0.07407407407407407,0,0,0.07407407407407407,0,0)" xlink:href="#aj"/><use transform="matrix(0.07407407407407407,0,0,0.07407407407407407,19.185185185185183,0)" xlink:href="#ak"/><use transform="matrix(0.07407407407407407,0,0,0.07407407407407407,34,0)" xlink:href="#al"/><use transform="matrix(0.07407407407407407,0,0,0.07407407407407407,56.148148148148145,0)" xlink:href="#ag"/></g><path d="M33 0v-248h34V0H33" id="am"/><path d="M117-194c89-4 53 116 60 194h-32v-121c0-31-8-49-39-48C34-167 62-67 57 0H25l-1-190h30c1 10-1 24 2 32 11-22 29-35 61-36" id="an"/><path d="M115-194c55 1 70 41 70 98S169 2 115 4C84 4 66-9 55-30l1 105H24l-1-265h31l2 30c10-21 28-34 59-34zm-8 174c40 0 45-34 45-75s-6-73-45-74c-42 0-51 32-51 76 0 43 10 73 51 73" id="ao"/><path d="M84 4C-5 8 30-112 23-190h32v120c0 31 7 50 39 49 72-2 45-101 50-169h31l1 190h-30c-1-10 1-25-2-33-11 22-28 36-60 37" id="ap"/><g id="d"><use transform="matrix(0.07407407407407407,0,0,0.07407407407407407,0,0)" xlink:href="#am"/><use transform="matrix(0.07407407407407407,0,0,0.07407407407407407,7.4074074074074065,0)" xlink:href="#an"/><use transform="matrix(0.07407407407407407,0,0,0.07407407407407407,22.22222222222222,0)" xlink:href="#ao"/><use transform="matrix(0.07407407407407407,0,0,0.07407407407407407,37.03703703703704,0)" xlink:href="#ap"/><use transform="matrix(0.07407407407407407,0,0,0.07407407407407407,51.85185185185185,0)" xlink:href="#ai"/></g><path d="M212-179c-10-28-35-45-73-45-59 0-87 40-87 99 0 60 29 101 89 101 43 0 62-24 78-52l27 14C228-24 195 4 139 4 59 4 22-46 18-125c-6-104 99-153 187-111 19 9 31 26 39 46" id="aq"/><path d="M100-194c62-1 85 37 85 99 1 63-27 99-86 99S16-35 15-95c0-66 28-99 85-99zM99-20c44 1 53-31 53-75 0-43-8-75-51-75s-53 32-53 75 10 74 51 75" id="ar"/><path d="M85-194c31 0 48 13 60 33l-1-100h32l1 261h-30c-2-10 0-23-3-31C134-8 116 4 85 4 32 4 16-35 15-94c0-66 23-100 70-100zm9 24c-40 0-46 34-46 75 0 40 6 74 45 74 42 0 51-32 51-76 0-42-9-74-50-73" id="as"/><path d="M24-231v-30h32v30H24zM24 0v-190h32V0H24" id="at"/><path d="M0 4l72-265h28L28 4H0" id="au"/><g id="e"><use transform="matrix(0.07407407407407407,0,0,0.07407407407407407,0,0)" xlink:href="#aq"/><use transform="matrix(0.07407407407407407,0,0,0.07407407407407407,19.185185185185183,0)" xlink:href="#ar"/><use transform="matrix(0.07407407407407407,0,0,0.07407407407407407,34,0)" xlink:href="#an"/><use transform="matrix(0.07407407407407407,0,0,0.07407407407407407,48.81481481481481,0)" xlink:href="#as"/><use transform="matrix(0.07407407407407407,0,0,0.07407407407407407,63.62962962962962,0)" xlink:href="#at"/><use transform="matrix(0.07407407407407407,0,0,0.07407407407407407,69.48148148148146,0)" xlink:href="#ai"/><use transform="matrix(0.07407407407407407,0,0,0.07407407407407407,76.88888888888887,0)" xlink:href="#at"/><use transform="matrix(0.07407407407407407,0,0,0.07407407407407407,82.74074074074072,0)" xlink:href="#ar"/><use transform="matrix(0.07407407407407407,0,0,0.07407407407407407,97.55555555555553,0)" xlink:href="#an"/><use transform="matrix(0.07407407407407407,0,0,0.07407407407407407,112.37037037037032,0)" xlink:href="#ah"/><use transform="matrix(0.07407407407407407,0,0,0.07407407407407407,125.70370370370366,0)" xlink:href="#au"/><use transform="matrix(0.07407407407407407,0,0,0.07407407407407407,133.1111111111111,0)" xlink:href="#af"/><use transform="matrix(0.07407407407407407,0,0,0.07407407407407407,146.37037037037035,0)" xlink:href="#ag"/><use transform="matrix(0.07407407407407407,0,0,0.07407407407407407,161.18518518518516,0)" xlink:href="#ah"/><use transform="matrix(0.07407407407407407,0,0,0.07407407407407407,174.5185185185185,0)" xlink:href="#ai"/></g><path d="M30 0v-248h187v28H63v79h144v27H63v87h162V0H30" id="av"/><path d="M141 0L90-78 38 0H4l68-98-65-92h35l48 74 47-74h35l-64 92 68 98h-35" id="aw"/><path d="M96-169c-40 0-48 33-48 73s9 75 48 75c24 0 41-14 43-38l32 2c-6 37-31 61-74 61-59 0-76-41-82-99-10-93 101-131 147-64 4 7 5 14 7 22l-32 3c-4-21-16-35-41-35" id="ax"/><g id="f"><use transform="matrix(0.07407407407407407,0,0,0.07407407407407407,0,0)" xlink:href="#av"/><use transform="matrix(0.07407407407407407,0,0,0.07407407407407407,17.77777777777778,0)" xlink:href="#aw"/><use transform="matrix(0.07407407407407407,0,0,0.07407407407407407,31.11111111111111,0)" xlink:href="#ao"/><use transform="matrix(0.07407407407407407,0,0,0.07407407407407407,45.925925925925924,0)" xlink:href="#ag"/><use transform="matrix(0.07407407407407407,0,0,0.07407407407407407,60.74074074074074,0)" xlink:href="#ax"/><use transform="matrix(0.07407407407407407,0,0,0.07407407407407407,74.07407407407406,0)" xlink:href="#ai"/><use transform="matrix(0.07407407407407407,0,0,0.07407407407407407,81.48148148148146,0)" xlink:href="#ag"/><use transform="matrix(0.07407407407407407,0,0,0.07407407407407407,96.29629629629627,0)" xlink:href="#as"/></g><path d="M140-251c81 0 123 46 123 126C263-46 219 4 140 4 59 4 17-45 17-125s42-126 123-126zm0 227c63 0 89-41 89-101s-29-99-89-99c-61 0-89 39-89 99S79-25 140-24" id="ay"/><g id="g"><use transform="matrix(0.07407407407407407,0,0,0.07407407407407407,0,0)" xlink:href="#ay"/><use transform="matrix(0.07407407407407407,0,0,0.07407407407407407,20.74074074074074,0)" xlink:href="#ap"/><use transform="matrix(0.07407407407407407,0,0,0.07407407407407407,35.55555555555556,0)" xlink:href="#ai"/><use transform="matrix(0.07407407407407407,0,0,0.07407407407407407,42.96296296296296,0)" xlink:href="#ao"/><use transform="matrix(0.07407407407407407,0,0,0.07407407407407407,57.77777777777777,0)" xlink:href="#ap"/><use transform="matrix(0.07407407407407407,0,0,0.07407407407407407,72.59259259259258,0)" xlink:href="#ai"/></g><path d="M23 0v-37h61v-169l-59 37v-38l62-41h46v211h57V0H23" id="az"/><use transform="matrix(0.06172839506172839,0,0,0.06172839506172839,0,0)" xlink:href="#az" id="h"/><path d="M233-177c-1 41-23 64-60 70L243 0h-38l-65-103H63V0H30v-248c88 3 205-21 203 71zM63-129c60-2 137 13 137-47 0-61-80-42-137-45v92" id="aA"/><path d="M177-190C167-65 218 103 67 71c-23-6-38-20-44-43l32-5c15 47 100 32 89-28v-30C133-14 115 1 83 1 29 1 15-40 15-95c0-56 16-97 71-98 29-1 48 16 59 35 1-10 0-23 2-32h30zM94-22c36 0 50-32 50-73 0-42-14-75-50-75-39 0-46 34-46 75s6 73 46 73" id="aB"/><path d="M114-163C36-179 61-72 57 0H25l-1-190h30c1 12-1 29 2 39 6-27 23-49 58-41v29" id="aC"/><g id="i"><use transform="matrix(0.07407407407407407,0,0,0.07407407407407407,0,0)" xlink:href="#aA"/><use transform="matrix(0.07407407407407407,0,0,0.07407407407407407,19.185185185185183,0)" xlink:href="#ag"/><use transform="matrix(0.07407407407407407,0,0,0.07407407407407407,34,0)" xlink:href="#aB"/><use transform="matrix(0.07407407407407407,0,0,0.07407407407407407,48.81481481481481,0)" xlink:href="#at"/><use transform="matrix(0.07407407407407407,0,0,0.07407407407407407,54.66666666666666,0)" xlink:href="#ah"/><use transform="matrix(0.07407407407407407,0,0,0.07407407407407407,67.99999999999998,0)" xlink:href="#ai"/><use transform="matrix(0.07407407407407407,0,0,0.07407407407407407,75.40740740740739,0)" xlink:href="#ag"/><use transform="matrix(0.07407407407407407,0,0,0.07407407407407407,90.2222222222222,0)" xlink:href="#aC"/></g><path d="M24 0v-261h32V0H24" id="aD"/><g id="j"><use transform="matrix(0.07407407407407407,0,0,0.07407407407407407,0,0)" xlink:href="#av"/><use transform="matrix(0.07407407407407407,0,0,0.07407407407407407,17.77777777777778,0)" xlink:href="#al"/><use transform="matrix(0.07407407407407407,0,0,0.07407407407407407,39.925925925925924,0)" xlink:href="#ak"/><use transform="matrix(0.07407407407407407,0,0,0.07407407407407407,54.740740740740726,0)" xlink:href="#at"/><use transform="matrix(0.07407407407407407,0,0,0.07407407407407407,60.59259259259258,0)" xlink:href="#aD"/></g><path d="M68-38c1 34 0 65-14 84H32c9-13 17-26 17-46H33v-38h35" id="aE"/><path d="M232-93c-1 65-40 97-104 97C67 4 28-28 28-90v-158h33c8 89-33 224 67 224 102 0 64-133 71-224h33v155" id="aF"/><g id="k"><use transform="matrix(0.07407407407407407,0,0,0.07407407407407407,0,0)" xlink:href="#aE"/><use transform="matrix(0.07407407407407407,0,0,0.07407407407407407,7.4074074074074065,0)" xlink:href="#aF"/><use transform="matrix(0.07407407407407407,0,0,0.07407407407407407,26.592592592592588,0)" xlink:href="#ah"/><use transform="matrix(0.07407407407407407,0,0,0.07407407407407407,39.925925925925924,0)" xlink:href="#ag"/><use transform="matrix(0.07407407407407407,0,0,0.07407407407407407,54.740740740740726,0)" xlink:href="#aC"/></g><path d="M30-248c118-7 216 8 213 122C240-48 200 0 122 0H30v-248zM63-27c89 8 146-16 146-99s-60-101-146-95v194" id="aG"/><g id="l"><use transform="matrix(0.07407407407407407,0,0,0.07407407407407407,0,0)" xlink:href="#aG"/><use transform="matrix(0.07407407407407407,0,0,0.07407407407407407,19.185185185185183,0)" xlink:href="#ag"/><use transform="matrix(0.07407407407407407,0,0,0.07407407407407407,34,0)" xlink:href="#ai"/><use transform="matrix(0.07407407407407407,0,0,0.07407407407407407,41.407407407407405,0)" xlink:href="#ak"/><use transform="matrix(0.07407407407407407,0,0,0.07407407407407407,56.22222222222221,0)" xlink:href="#at"/><use transform="matrix(0.07407407407407407,0,0,0.07407407407407407,62.07407407407406,0)" xlink:href="#aD"/><use transform="matrix(0.07407407407407407,0,0,0.07407407407407407,67.92592592592591,0)" xlink:href="#ah"/></g><path d="M30-248c87 1 191-15 191 75 0 78-77 80-158 76V0H30v-248zm33 125c57 0 124 11 124-50 0-59-68-47-124-48v98" id="aH"/><path d="M206 0h-36l-40-164L89 0H53L-1-190h32L70-26l43-164h34l41 164 42-164h31" id="aI"/><g id="m"><use transform="matrix(0.07407407407407407,0,0,0.07407407407407407,0,0)" xlink:href="#aE"/><use transform="matrix(0.07407407407407407,0,0,0.07407407407407407,7.4074074074074065,0)" xlink:href="#aH"/><use transform="matrix(0.07407407407407407,0,0,0.07407407407407407,25.185185185185183,0)" xlink:href="#ak"/><use transform="matrix(0.07407407407407407,0,0,0.07407407407407407,40,0)" xlink:href="#ah"/><use transform="matrix(0.07407407407407407,0,0,0.07407407407407407,53.33333333333333,0)" xlink:href="#ah"/><use transform="matrix(0.07407407407407407,0,0,0.07407407407407407,66.66666666666666,0)" xlink:href="#aI"/><use transform="matrix(0.07407407407407407,0,0,0.07407407407407407,85.85185185185185,0)" xlink:href="#ar"/><use transform="matrix(0.07407407407407407,0,0,0.07407407407407407,100.66666666666666,0)" xlink:href="#aC"/><use transform="matrix(0.07407407407407407,0,0,0.07407407407407407,109.48148148148145,0)" xlink:href="#as"/></g><g id="n"><use transform="matrix(0.07407407407407407,0,0,0.07407407407407407,0,0)" xlink:href="#av"/><use transform="matrix(0.07407407407407407,0,0,0.07407407407407407,17.77777777777778,0)" xlink:href="#al"/><use transform="matrix(0.07407407407407407,0,0,0.07407407407407407,39.925925925925924,0)" xlink:href="#ak"/><use transform="matrix(0.07407407407407407,0,0,0.07407407407407407,54.740740740740726,0)" xlink:href="#at"/><use transform="matrix(0.07407407407407407,0,0,0.07407407407407407,60.59259259259258,0)" xlink:href="#aD"/></g><g id="o"><use transform="matrix(0.07407407407407407,0,0,0.07407407407407407,0,0)" xlink:href="#ag"/><use transform="matrix(0.07407407407407407,0,0,0.07407407407407407,14.814814814814813,0)" xlink:href="#aw"/><use transform="matrix(0.07407407407407407,0,0,0.07407407407407407,28.148148148148145,0)" xlink:href="#at"/><use transform="matrix(0.07407407407407407,0,0,0.07407407407407407,34,0)" xlink:href="#ah"/><use transform="matrix(0.07407407407407407,0,0,0.07407407407407407,47.33333333333333,0)" xlink:href="#ai"/><use transform="matrix(0.07407407407407407,0,0,0.07407407407407407,54.740740740740726,0)" xlink:href="#aE"/><use transform="matrix(0.07407407407407407,0,0,0.07407407407407407,62.14814814814814,0)" xlink:href="#ao"/><use transform="matrix(0.07407407407407407,0,0,0.07407407407407407,76.96296296296295,0)" xlink:href="#ak"/><use transform="matrix(0.07407407407407407,0,0,0.07407407407407407,91.77777777777776,0)" xlink:href="#ah"/><use transform="matrix(0.07407407407407407,0,0,0.07407407407407407,105.11111111111108,0)" xlink:href="#ah"/><use transform="matrix(0.07407407407407407,0,0,0.07407407407407407,118.44444444444441,0)" xlink:href="#aI"/><use transform="matrix(0.07407407407407407,0,0,0.07407407407407407,137.6296296296296,0)" xlink:href="#ar"/><use transform="matrix(0.07407407407407407,0,0,0.07407407407407407,152.4444444444444,0)" xlink:href="#aC"/><use transform="matrix(0.07407407407407407,0,0,0.07407407407407407,161.2592592592592,0)" xlink:href="#as"/><use transform="matrix(0.07407407407407407,0,0,0.07407407407407407,176.07407407407402,0)" xlink:href="#ah"/></g><path d="M106-169C34-169 62-67 57 0H25v-261h32l-1 103c12-21 28-36 61-36 89 0 53 116 60 194h-32v-121c2-32-8-49-39-48" id="aJ"/><g id="p"><use transform="matrix(0.07407407407407407,0,0,0.07407407407407407,0,0)" xlink:href="#al"/><use transform="matrix(0.07407407407407407,0,0,0.07407407407407407,22.148148148148145,0)" xlink:href="#ak"/><use transform="matrix(0.07407407407407407,0,0,0.07407407407407407,36.96296296296296,0)" xlink:href="#ai"/><use transform="matrix(0.07407407407407407,0,0,0.07407407407407407,44.37037037037037,0)" xlink:href="#ax"/><use transform="matrix(0.07407407407407407,0,0,0.07407407407407407,57.703703703703695,0)" xlink:href="#aJ"/><use transform="matrix(0.07407407407407407,0,0,0.07407407407407407,72.5185185185185,0)" xlink:href="#ag"/><use transform="matrix(0.07407407407407407,0,0,0.07407407407407407,87.33333333333331,0)" xlink:href="#ah"/></g><path d="M179-190L93 31C79 59 56 82 12 73V49c39 6 53-20 64-50L1-190h34L92-34l54-156h33" id="aK"/><g id="q"><use transform="matrix(0.07407407407407407,0,0,0.07407407407407407,0,0)" xlink:href="#aG"/><use transform="matrix(0.07407407407407407,0,0,0.07407407407407407,19.185185185185183,0)" xlink:href="#at"/><use transform="matrix(0.07407407407407407,0,0,0.07407407407407407,25.037037037037034,0)" xlink:href="#ah"/><use transform="matrix(0.07407407407407407,0,0,0.07407407407407407,38.37037037037037,0)" xlink:href="#ao"/><use transform="matrix(0.07407407407407407,0,0,0.07407407407407407,53.185185185185176,0)" xlink:href="#aD"/><use transform="matrix(0.07407407407407407,0,0,0.07407407407407407,59.037037037037024,0)" xlink:href="#ak"/><use transform="matrix(0.07407407407407407,0,0,0.07407407407407407,73.85185185185183,0)" xlink:href="#aK"/></g><g id="r"><use transform="matrix(0.07407407407407407,0,0,0.07407407407407407,0,0)" xlink:href="#aA"/><use transform="matrix(0.07407407407407407,0,0,0.07407407407407407,19.185185185185183,0)" xlink:href="#ag"/><use transform="matrix(0.07407407407407407,0,0,0.07407407407407407,34,0)" xlink:href="#aB"/><use transform="matrix(0.07407407407407407,0,0,0.07407407407407407,48.81481481481481,0)" xlink:href="#at"/><use transform="matrix(0.07407407407407407,0,0,0.07407407407407407,54.66666666666666,0)" xlink:href="#ah"/><use transform="matrix(0.07407407407407407,0,0,0.07407407407407407,67.99999999999998,0)" xlink:href="#ai"/><use transform="matrix(0.07407407407407407,0,0,0.07407407407407407,75.40740740740739,0)" xlink:href="#aC"/><use transform="matrix(0.07407407407407407,0,0,0.07407407407407407,84.2222222222222,0)" xlink:href="#ak"/><use transform="matrix(0.07407407407407407,0,0,0.07407407407407407,99.03703703703701,0)" xlink:href="#ai"/><use transform="matrix(0.07407407407407407,0,0,0.07407407407407407,106.44444444444443,0)" xlink:href="#at"/><use transform="matrix(0.07407407407407407,0,0,0.07407407407407407,112.29629629629626,0)" xlink:href="#ar"/><use transform="matrix(0.07407407407407407,0,0,0.07407407407407407,127.11111111111107,0)" xlink:href="#an"/></g><path d="M101-234c-31-9-42 10-38 44h38v23H63V0H32v-167H5v-23h27c-7-52 17-82 69-68v24" id="aL"/><g id="s"><use transform="matrix(0.07407407407407407,0,0,0.07407407407407407,0,0)" xlink:href="#ah"/><use transform="matrix(0.07407407407407407,0,0,0.07407407407407407,13.333333333333332,0)" xlink:href="#ap"/><use transform="matrix(0.07407407407407407,0,0,0.07407407407407407,28.148148148148145,0)" xlink:href="#ax"/><use transform="matrix(0.07407407407407407,0,0,0.07407407407407407,41.48148148148148,0)" xlink:href="#ax"/><use transform="matrix(0.07407407407407407,0,0,0.07407407407407407,54.81481481481481,0)" xlink:href="#ag"/><use transform="matrix(0.07407407407407407,0,0,0.07407407407407407,69.62962962962962,0)" xlink:href="#ah"/><use transform="matrix(0.07407407407407407,0,0,0.07407407407407407,82.96296296296295,0)" xlink:href="#ah"/><use transform="matrix(0.07407407407407407,0,0,0.07407407407407407,96.29629629629627,0)" xlink:href="#aL"/><use transform="matrix(0.07407407407407407,0,0,0.07407407407407407,103.70370370370368,0)" xlink:href="#ap"/><use transform="matrix(0.07407407407407407,0,0,0.07407407407407407,118.51851851851849,0)" xlink:href="#aD"/><use transform="matrix(0.07407407407407407,0,0,0.07407407407407407,124.37037037037035,0)" xlink:href="#aD"/></g><g id="t"><use transform="matrix(0.07407407407407407,0,0,0.07407407407407407,0,0)" xlink:href="#aA"/><use transform="matrix(0.07407407407407407,0,0,0.07407407407407407,19.185185185185183,0)" xlink:href="#ag"/><use transform="matrix(0.07407407407407407,0,0,0.07407407407407407,34,0)" xlink:href="#as"/><use transform="matrix(0.07407407407407407,0,0,0.07407407407407407,48.81481481481481,0)" xlink:href="#at"/><use transform="matrix(0.07407407407407407,0,0,0.07407407407407407,54.66666666666666,0)" xlink:href="#aC"/><use transform="matrix(0.07407407407407407,0,0,0.07407407407407407,63.48148148148148,0)" xlink:href="#ag"/><use transform="matrix(0.07407407407407407,0,0,0.07407407407407407,78.29629629629629,0)" xlink:href="#ax"/><use transform="matrix(0.07407407407407407,0,0,0.07407407407407407,91.62962962962962,0)" xlink:href="#ai"/></g><g id="u"><use transform="matrix(0.07407407407407407,0,0,0.07407407407407407,0,0)" xlink:href="#ai"/><use transform="matrix(0.07407407407407407,0,0,0.07407407407407407,7.4074074074074065,0)" xlink:href="#ar"/></g><path d="M30 0v-248h33v221h125V0H30" id="aM"/><g id="v"><use transform="matrix(0.07407407407407407,0,0,0.07407407407407407,0,0)" xlink:href="#aM"/><use transform="matrix(0.07407407407407407,0,0,0.07407407407407407,14.814814814814813,0)" xlink:href="#ar"/><use transform="matrix(0.07407407407407407,0,0,0.07407407407407407,29.629629629629626,0)" xlink:href="#aB"/><use transform="matrix(0.07407407407407407,0,0,0.07407407407407407,44.44444444444444,0)" xlink:href="#at"/><use transform="matrix(0.07407407407407407,0,0,0.07407407407407407,50.29629629629629,0)" xlink:href="#an"/></g><g id="w"><use transform="matrix(0.07407407407407407,0,0,0.07407407407407407,0,0)" xlink:href="#ao"/><use transform="matrix(0.07407407407407407,0,0,0.07407407407407407,14.814814814814813,0)" xlink:href="#ak"/><use transform="matrix(0.07407407407407407,0,0,0.07407407407407407,29.629629629629626,0)" xlink:href="#aB"/><use transform="matrix(0.07407407407407407,0,0,0.07407407407407407,44.44444444444444,0)" xlink:href="#ag"/></g><path d="M182-182c0 78-84 86-111 141h115V0H12c-6-101 99-100 120-180 1-22-12-31-33-32-23 0-32 14-35 34l-49-3c5-45 32-70 84-70 51 0 83 22 83 69" id="aN"/><use transform="matrix(0.06172839506172839,0,0,0.06172839506172839,0,0)" xlink:href="#aN" id="x"/><g id="y"><use transform="matrix(0.07407407407407407,0,0,0.07407407407407407,0,0)" xlink:href="#aE"/><use transform="matrix(0.07407407407407407,0,0,0.07407407407407407,7.4074074074074065,0)" xlink:href="#aH"/><use transform="matrix(0.07407407407407407,0,0,0.07407407407407407,25.185185185185183,0)" xlink:href="#ak"/><use transform="matrix(0.07407407407407407,0,0,0.07407407407407407,40,0)" xlink:href="#ah"/><use transform="matrix(0.07407407407407407,0,0,0.07407407407407407,53.33333333333333,0)" xlink:href="#ah"/><use transform="matrix(0.07407407407407407,0,0,0.07407407407407407,66.66666666666666,0)" xlink:href="#aI"/><use transform="matrix(0.07407407407407407,0,0,0.07407407407407407,85.85185185185185,0)" xlink:href="#ar"/><use transform="matrix(0.07407407407407407,0,0,0.07407407407407407,100.66666666666666,0)" xlink:href="#aC"/><use transform="matrix(0.07407407407407407,0,0,0.07407407407407407,109.48148148148145,0)" xlink:href="#as"/></g><g id="z"><use transform="matrix(0.07407407407407407,0,0,0.07407407407407407,0,0)" xlink:href="#ag"/><use transform="matrix(0.07407407407407407,0,0,0.07407407407407407,14.814814814814813,0)" xlink:href="#aw"/><use transform="matrix(0.07407407407407407,0,0,0.07407407407407407,28.148148148148145,0)" xlink:href="#at"/><use transform="matrix(0.07407407407407407,0,0,0.07407407407407407,34,0)" xlink:href="#ah"/><use transform="matrix(0.07407407407407407,0,0,0.07407407407407407,47.33333333333333,0)" xlink:href="#ai"/><use transform="matrix(0.07407407407407407,0,0,0.07407407407407407,54.740740740740726,0)" xlink:href="#aE"/></g><g id="A"><use transform="matrix(0.07407407407407407,0,0,0.07407407407407407,0,0)" xlink:href="#ao"/><use transform="matrix(0.07407407407407407,0,0,0.07407407407407407,14.814814814814813,0)" xlink:href="#ak"/><use transform="matrix(0.07407407407407407,0,0,0.07407407407407407,29.629629629629626,0)" xlink:href="#ah"/><use transform="matrix(0.07407407407407407,0,0,0.07407407407407407,42.96296296296296,0)" xlink:href="#ah"/><use transform="matrix(0.07407407407407407,0,0,0.07407407407407407,56.29629629629629,0)" xlink:href="#aI"/><use transform="matrix(0.07407407407407407,0,0,0.07407407407407407,75.48148148148146,0)" xlink:href="#ar"/><use transform="matrix(0.07407407407407407,0,0,0.07407407407407407,90.29629629629627,0)" xlink:href="#aC"/><use transform="matrix(0.07407407407407407,0,0,0.07407407407407407,99.11111111111108,0)" xlink:href="#as"/><use transform="matrix(0.07407407407407407,0,0,0.07407407407407407,113.92592592592591,0)" xlink:href="#ah"/></g><g id="B"><use transform="matrix(0.07407407407407407,0,0,0.07407407407407407,0,0)" xlink:href="#as"/><use transform="matrix(0.07407407407407407,0,0,0.07407407407407407,14.814814814814813,0)" xlink:href="#ar"/></g><g id="C"><use transform="matrix(0.07407407407407407,0,0,0.07407407407407407,0,0)" xlink:href="#an"/><use transform="matrix(0.07407407407407407,0,0,0.07407407407407407,14.814814814814813,0)" xlink:href="#ar"/><use transform="matrix(0.07407407407407407,0,0,0.07407407407407407,29.629629629629626,0)" xlink:href="#ai"/></g><g id="D"><use transform="matrix(0.07407407407407407,0,0,0.07407407407407407,0,0)" xlink:href="#al"/><use transform="matrix(0.07407407407407407,0,0,0.07407407407407407,22.148148148148145,0)" xlink:href="#ak"/><use transform="matrix(0.07407407407407407,0,0,0.07407407407407407,36.96296296296296,0)" xlink:href="#ai"/><use transform="matrix(0.07407407407407407,0,0,0.07407407407407407,44.37037037037037,0)" xlink:href="#ax"/><use transform="matrix(0.07407407407407407,0,0,0.07407407407407407,57.703703703703695,0)" xlink:href="#aJ"/></g><g id="E"><use transform="matrix(0.07407407407407407,0,0,0.07407407407407407,0,0)" xlink:href="#ap"/><use transform="matrix(0.07407407407407407,0,0,0.07407407407407407,14.814814814814813,0)" xlink:href="#an"/><use transform="matrix(0.07407407407407407,0,0,0.07407407407407407,29.629629629629626,0)" xlink:href="#ah"/><use transform="matrix(0.07407407407407407,0,0,0.07407407407407407,42.96296296296296,0)" xlink:href="#ag"/><use transform="matrix(0.07407407407407407,0,0,0.07407407407407407,57.77777777777777,0)" xlink:href="#ax"/><use transform="matrix(0.07407407407407407,0,0,0.07407407407407407,71.1111111111111,0)" xlink:href="#ax"/><use transform="matrix(0.07407407407407407,0,0,0.07407407407407407,84.44444444444443,0)" xlink:href="#ag"/><use transform="matrix(0.07407407407407407,0,0,0.07407407407407407,99.25925925925924,0)" xlink:href="#ah"/><use transform="matrix(0.07407407407407407,0,0,0.07407407407407407,112.59259259259256,0)" xlink:href="#ah"/><use transform="matrix(0.07407407407407407,0,0,0.07407407407407407,125.9259259259259,0)" xlink:href="#aL"/><use transform="matrix(0.07407407407407407,0,0,0.07407407407407407,133.33333333333331,0)" xlink:href="#ap"/><use transform="matrix(0.07407407407407407,0,0,0.07407407407407407,148.14814814814812,0)" xlink:href="#aD"/></g><path d="M185-189c-5-48-123-54-124 2 14 75 158 14 163 119 3 78-121 87-175 55-17-10-28-26-33-46l33-7c5 56 141 63 141-1 0-78-155-14-162-118-5-82 145-84 179-34 5 7 8 16 11 25" id="aO"/><g id="F"><use transform="matrix(0.07407407407407407,0,0,0.07407407407407407,0,0)" xlink:href="#aO"/><use transform="matrix(0.07407407407407407,0,0,0.07407407407407407,17.77777777777778,0)" xlink:href="#ai"/><use transform="matrix(0.07407407407407407,0,0,0.07407407407407407,25.185185185185183,0)" xlink:href="#ak"/><use transform="matrix(0.07407407407407407,0,0,0.07407407407407407,40,0)" xlink:href="#aK"/></g><g id="G"><use transform="matrix(0.07407407407407407,0,0,0.07407407407407407,0,0)" xlink:href="#ar"/><use transform="matrix(0.07407407407407407,0,0,0.07407407407407407,14.814814814814813,0)" xlink:href="#an"/></g><g id="H"><use transform="matrix(0.07407407407407407,0,0,0.07407407407407407,0,0)" xlink:href="#aA"/><use transform="matrix(0.07407407407407407,0,0,0.07407407407407407,19.185185185185183,0)" xlink:href="#ag"/><use transform="matrix(0.07407407407407407,0,0,0.07407407407407407,34,0)" xlink:href="#aB"/><use transform="matrix(0.07407407407407407,0,0,0.07407407407407407,48.81481481481481,0)" xlink:href="#at"/><use transform="matrix(0.07407407407407407,0,0,0.07407407407407407,54.66666666666666,0)" xlink:href="#ah"/><use transform="matrix(0.07407407407407407,0,0,0.07407407407407407,67.99999999999998,0)" xlink:href="#ai"/><use transform="matrix(0.07407407407407407,0,0,0.07407407407407407,75.40740740740739,0)" xlink:href="#ag"/><use transform="matrix(0.07407407407407407,0,0,0.07407407407407407,90.2222222222222,0)" xlink:href="#aC"/></g><path d="M128-127c34 4 56 21 59 58 7 91-148 94-172 28-4-9-6-17-7-26l51-5c1 24 16 35 40 36 23 0 39-12 38-36-1-31-31-36-65-34v-40c32 2 59-3 59-33 0-20-13-33-34-33s-33 13-35 32l-50-3c6-44 37-68 86-68 50 0 83 20 83 66 0 35-22 52-53 58" id="aP"/><use transform="matrix(0.06172839506172839,0,0,0.06172839506172839,0,0)" xlink:href="#aP" id="I"/><g id="J"><use transform="matrix(0.07407407407407407,0,0,0.07407407407407407,0,0)" xlink:href="#as"/><use transform="matrix(0.07407407407407407,0,0,0.07407407407407407,14.814814814814813,0)" xlink:href="#ar"/><use transform="matrix(0.07407407407407407,0,0,0.07407407407407407,29.629629629629626,0)" xlink:href="#ag"/><use transform="matrix(0.07407407407407407,0,0,0.07407407407407407,44.44444444444444,0)" xlink:href="#ah"/></g><g id="K"><use transform="matrix(0.07407407407407407,0,0,0.07407407407407407,0,0)" xlink:href="#ag"/><use transform="matrix(0.07407407407407407,0,0,0.07407407407407407,14.814814814814813,0)" xlink:href="#aw"/><use transform="matrix(0.07407407407407407,0,0,0.07407407407407407,28.148148148148145,0)" xlink:href="#at"/><use transform="matrix(0.07407407407407407,0,0,0.07407407407407407,34,0)" xlink:href="#ah"/><use transform="matrix(0.07407407407407407,0,0,0.07407407407407407,47.33333333333333,0)" xlink:href="#ai"/><use transform="matrix(0.07407407407407407,0,0,0.07407407407407407,54.740740740740726,0)" xlink:href="#aE"/></g><g id="L"><use transform="matrix(0.07407407407407407,0,0,0.07407407407407407,0,0)" xlink:href="#ao"/><use transform="matrix(0.07407407407407407,0,0,0.07407407407407407,14.814814814814813,0)" xlink:href="#ak"/><use transform="matrix(0.07407407407407407,0,0,0.07407407407407407,29.629629629629626,0)" xlink:href="#ah"/><use transform="matrix(0.07407407407407407,0,0,0.07407407407407407,42.96296296296296,0)" xlink:href="#ah"/><use transform="matrix(0.07407407407407407,0,0,0.07407407407407407,56.29629629629629,0)" xlink:href="#aI"/><use transform="matrix(0.07407407407407407,0,0,0.07407407407407407,75.48148148148146,0)" xlink:href="#ar"/><use transform="matrix(0.07407407407407407,0,0,0.07407407407407407,90.29629629629627,0)" xlink:href="#aC"/><use transform="matrix(0.07407407407407407,0,0,0.07407407407407407,99.11111111111108,0)" xlink:href="#as"/><use transform="matrix(0.07407407407407407,0,0,0.07407407407407407,113.92592592592591,0)" xlink:href="#ah"/></g><g id="M"><use transform="matrix(0.07407407407407407,0,0,0.07407407407407407,0,0)" xlink:href="#ap"/><use transform="matrix(0.07407407407407407,0,0,0.07407407407407407,14.814814814814813,0)" xlink:href="#an"/><use transform="matrix(0.07407407407407407,0,0,0.07407407407407407,29.629629629629626,0)" xlink:href="#ah"/><use transform="matrix(0.07407407407407407,0,0,0.07407407407407407,42.96296296296296,0)" xlink:href="#ag"/><use transform="matrix(0.07407407407407407,0,0,0.07407407407407407,57.77777777777777,0)" xlink:href="#ax"/><use transform="matrix(0.07407407407407407,0,0,0.07407407407407407,71.1111111111111,0)" xlink:href="#ax"/><use transform="matrix(0.07407407407407407,0,0,0.07407407407407407,84.44444444444443,0)" xlink:href="#ag"/><use transform="matrix(0.07407407407407407,0,0,0.07407407407407407,99.25925925925924,0)" xlink:href="#ah"/><use transform="matrix(0.07407407407407407,0,0,0.07407407407407407,112.59259259259256,0)" xlink:href="#ah"/><use transform="matrix(0.07407407407407407,0,0,0.07407407407407407,125.9259259259259,0)" xlink:href="#aL"/><use transform="matrix(0.07407407407407407,0,0,0.07407407407407407,133.33333333333331,0)" xlink:href="#ap"/><use transform="matrix(0.07407407407407407,0,0,0.07407407407407407,148.14814814814812,0)" xlink:href="#aD"/></g><path d="M165-50V0h-47v-50H5v-38l105-160h55v161h33v37h-33zm-47-37l2-116L46-87h72" id="aQ"/><use transform="matrix(0.06172839506172839,0,0,0.06172839506172839,0,0)" xlink:href="#aQ" id="N"/><g id="O"><use transform="matrix(0.07407407407407407,0,0,0.07407407407407407,0,0)" xlink:href="#as"/><use transform="matrix(0.07407407407407407,0,0,0.07407407407407407,14.814814814814813,0)" xlink:href="#ar"/></g><g id="P"><use transform="matrix(0.07407407407407407,0,0,0.07407407407407407,0,0)" xlink:href="#an"/><use transform="matrix(0.07407407407407407,0,0,0.07407407407407407,14.814814814814813,0)" xlink:href="#ar"/><use transform="matrix(0.07407407407407407,0,0,0.07407407407407407,29.629629629629626,0)" xlink:href="#ai"/></g><g id="Q"><use transform="matrix(0.07407407407407407,0,0,0.07407407407407407,0,0)" xlink:href="#ap"/><use transform="matrix(0.07407407407407407,0,0,0.07407407407407407,14.814814814814813,0)" xlink:href="#an"/><use transform="matrix(0.07407407407407407,0,0,0.07407407407407407,29.629629629629626,0)" xlink:href="#ah"/><use transform="matrix(0.07407407407407407,0,0,0.07407407407407407,42.96296296296296,0)" xlink:href="#ag"/><use transform="matrix(0.07407407407407407,0,0,0.07407407407407407,57.77777777777777,0)" xlink:href="#ax"/><use transform="matrix(0.07407407407407407,0,0,0.07407407407407407,71.1111111111111,0)" xlink:href="#ax"/><use transform="matrix(0.07407407407407407,0,0,0.07407407407407407,84.44444444444443,0)" xlink:href="#ag"/><use transform="matrix(0.07407407407407407,0,0,0.07407407407407407,99.25925925925924,0)" xlink:href="#ah"/><use transform="matrix(0.07407407407407407,0,0,0.07407407407407407,112.59259259259256,0)" xlink:href="#ah"/><use transform="matrix(0.07407407407407407,0,0,0.07407407407407407,125.9259259259259,0)" xlink:href="#aL"/><use transform="matrix(0.07407407407407407,0,0,0.07407407407407407,133.33333333333331,0)" xlink:href="#ap"/><use transform="matrix(0.07407407407407407,0,0,0.07407407407407407,148.14814814814812,0)" xlink:href="#aD"/></g><g id="R"><use transform="matrix(0.07407407407407407,0,0,0.07407407407407407,0,0)" xlink:href="#aM"/><use transform="matrix(0.07407407407407407,0,0,0.07407407407407407,14.814814814814813,0)" xlink:href="#ar"/><use transform="matrix(0.07407407407407407,0,0,0.07407407407407407,29.629629629629626,0)" xlink:href="#aB"/><use transform="matrix(0.07407407407407407,0,0,0.07407407407407407,44.44444444444444,0)" xlink:href="#at"/><use transform="matrix(0.07407407407407407,0,0,0.07407407407407407,50.29629629629629,0)" xlink:href="#an"/></g><g id="S"><use transform="matrix(0.07407407407407407,0,0,0.07407407407407407,0,0)" xlink:href="#av"/><use transform="matrix(0.07407407407407407,0,0,0.07407407407407407,17.77777777777778,0)" xlink:href="#al"/><use transform="matrix(0.07407407407407407,0,0,0.07407407407407407,39.925925925925924,0)" xlink:href="#ak"/><use transform="matrix(0.07407407407407407,0,0,0.07407407407407407,54.740740740740726,0)" xlink:href="#at"/><use transform="matrix(0.07407407407407407,0,0,0.07407407407407407,60.59259259259258,0)" xlink:href="#aD"/></g><g id="T"><use transform="matrix(0.07407407407407407,0,0,0.07407407407407407,0,0)" xlink:href="#ak"/><use transform="matrix(0.07407407407407407,0,0,0.07407407407407407,14.814814814814813,0)" xlink:href="#an"/><use transform="matrix(0.07407407407407407,0,0,0.07407407407407407,29.629629629629626,0)" xlink:href="#as"/></g><g id="U"><use transform="matrix(0.07407407407407407,0,0,0.07407407407407407,0,0)" xlink:href="#aH"/><use transform="matrix(0.07407407407407407,0,0,0.07407407407407407,17.77777777777778,0)" xlink:href="#ak"/><use transform="matrix(0.07407407407407407,0,0,0.07407407407407407,32.592592592592595,0)" xlink:href="#ah"/><use transform="matrix(0.07407407407407407,0,0,0.07407407407407407,45.925925925925924,0)" xlink:href="#ah"/><use transform="matrix(0.07407407407407407,0,0,0.07407407407407407,59.25925925925925,0)" xlink:href="#aI"/><use transform="matrix(0.07407407407407407,0,0,0.07407407407407407,78.44444444444443,0)" xlink:href="#ar"/><use transform="matrix(0.07407407407407407,0,0,0.07407407407407407,93.25925925925924,0)" xlink:href="#aC"/><use transform="matrix(0.07407407407407407,0,0,0.07407407407407407,102.07407407407405,0)" xlink:href="#as"/></g><g id="V"><use transform="matrix(0.07407407407407407,0,0,0.07407407407407407,0,0)" xlink:href="#ag"/><use transform="matrix(0.07407407407407407,0,0,0.07407407407407407,14.814814814814813,0)" xlink:href="#aw"/><use transform="matrix(0.07407407407407407,0,0,0.07407407407407407,28.148148148148145,0)" xlink:href="#at"/><use transform="matrix(0.07407407407407407,0,0,0.07407407407407407,34,0)" xlink:href="#ah"/><use transform="matrix(0.07407407407407407,0,0,0.07407407407407407,47.33333333333333,0)" xlink:href="#ai"/></g><g id="W"><use transform="matrix(0.07407407407407407,0,0,0.07407407407407407,0,0)" xlink:href="#ah"/><use transform="matrix(0.07407407407407407,0,0,0.07407407407407407,13.333333333333332,0)" xlink:href="#ap"/><use transform="matrix(0.07407407407407407,0,0,0.07407407407407407,28.148148148148145,0)" xlink:href="#ax"/><use transform="matrix(0.07407407407407407,0,0,0.07407407407407407,41.48148148148148,0)" xlink:href="#ax"/><use transform="matrix(0.07407407407407407,0,0,0.07407407407407407,54.81481481481481,0)" xlink:href="#ag"/><use transform="matrix(0.07407407407407407,0,0,0.07407407407407407,69.62962962962962,0)" xlink:href="#ah"/><use transform="matrix(0.07407407407407407,0,0,0.07407407407407407,82.96296296296295,0)" xlink:href="#ah"/><use transform="matrix(0.07407407407407407,0,0,0.07407407407407407,96.29629629629627,0)" xlink:href="#aL"/><use transform="matrix(0.07407407407407407,0,0,0.07407407407407407,103.70370370370368,0)" xlink:href="#ap"/><use transform="matrix(0.07407407407407407,0,0,0.07407407407407407,118.51851851851849,0)" xlink:href="#aD"/><use transform="matrix(0.07407407407407407,0,0,0.07407407407407407,124.37037037037035,0)" xlink:href="#aD"/></g><path d="M197 0v-115H63V0H30v-248h33v105h134v-105h34V0h-34" id="aR"/><g id="X"><use transform="matrix(0.07407407407407407,0,0,0.07407407407407407,0,0)" xlink:href="#aR"/><use transform="matrix(0.07407407407407407,0,0,0.07407407407407407,19.185185185185183,0)" xlink:href="#ar"/><use transform="matrix(0.07407407407407407,0,0,0.07407407407407407,34,0)" xlink:href="#al"/><use transform="matrix(0.07407407407407407,0,0,0.07407407407407407,56.148148148148145,0)" xlink:href="#ag"/></g><g id="Y"><use transform="matrix(0.07407407407407407,0,0,0.07407407407407407,0,0)" xlink:href="#aH"/><use transform="matrix(0.07407407407407407,0,0,0.07407407407407407,17.77777777777778,0)" xlink:href="#ak"/><use transform="matrix(0.07407407407407407,0,0,0.07407407407407407,32.592592592592595,0)" xlink:href="#ah"/><use transform="matrix(0.07407407407407407,0,0,0.07407407407407407,45.925925925925924,0)" xlink:href="#ah"/><use transform="matrix(0.07407407407407407,0,0,0.07407407407407407,59.25925925925925,0)" xlink:href="#aI"/><use transform="matrix(0.07407407407407407,0,0,0.07407407407407407,78.44444444444443,0)" xlink:href="#ar"/><use transform="matrix(0.07407407407407407,0,0,0.07407407407407407,93.25925925925924,0)" xlink:href="#aC"/><use transform="matrix(0.07407407407407407,0,0,0.07407407407407407,102.07407407407405,0)" xlink:href="#as"/></g><path d="M108 0H70L1-190h34L89-25l56-165h34" id="aS"/><g id="Z"><use transform="matrix(0.07407407407407407,0,0,0.07407407407407407,0,0)" xlink:href="#am"/><use transform="matrix(0.07407407407407407,0,0,0.07407407407407407,7.4074074074074065,0)" xlink:href="#an"/><use transform="matrix(0.07407407407407407,0,0,0.07407407407407407,22.22222222222222,0)" xlink:href="#aS"/><use transform="matrix(0.07407407407407407,0,0,0.07407407407407407,35.55555555555556,0)" xlink:href="#ak"/><use transform="matrix(0.07407407407407407,0,0,0.07407407407407407,50.37037037037037,0)" xlink:href="#aD"/><use transform="matrix(0.07407407407407407,0,0,0.07407407407407407,56.22222222222221,0)" xlink:href="#at"/><use transform="matrix(0.07407407407407407,0,0,0.07407407407407407,62.07407407407406,0)" xlink:href="#as"/></g><g id="aa"><use transform="matrix(0.07407407407407407,0,0,0.07407407407407407,0,0)" xlink:href="#av"/><use transform="matrix(0.07407407407407407,0,0,0.07407407407407407,17.77777777777778,0)" xlink:href="#al"/><use transform="matrix(0.07407407407407407,0,0,0.07407407407407407,39.925925925925924,0)" xlink:href="#ak"/><use transform="matrix(0.07407407407407407,0,0,0.07407407407407407,54.740740740740726,0)" xlink:href="#at"/><use transform="matrix(0.07407407407407407,0,0,0.07407407407407407,60.59259259259258,0)" xlink:href="#aD"/></g><g id="ab"><use transform="matrix(0.07407407407407407,0,0,0.07407407407407407,0,0)" xlink:href="#ay"/><use transform="matrix(0.07407407407407407,0,0,0.07407407407407407,20.74074074074074,0)" xlink:href="#aC"/></g><g id="ac"><use transform="matrix(0.07407407407407407,0,0,0.07407407407407407,0,0)" xlink:href="#aH"/><use transform="matrix(0.07407407407407407,0,0,0.07407407407407407,17.77777777777778,0)" xlink:href="#ak"/><use transform="matrix(0.07407407407407407,0,0,0.07407407407407407,32.592592592592595,0)" xlink:href="#ah"/><use transform="matrix(0.07407407407407407,0,0,0.07407407407407407,45.925925925925924,0)" xlink:href="#ah"/><use transform="matrix(0.07407407407407407,0,0,0.07407407407407407,59.25925925925925,0)" xlink:href="#aI"/><use transform="matrix(0.07407407407407407,0,0,0.07407407407407407,78.44444444444443,0)" xlink:href="#ar"/><use transform="matrix(0.07407407407407407,0,0,0.07407407407407407,93.25925925925924,0)" xlink:href="#aC"/><use transform="matrix(0.07407407407407407,0,0,0.07407407407407407,102.07407407407405,0)" xlink:href="#as"/></g><g id="ad"><use transform="matrix(0.07407407407407407,0,0,0.07407407407407407,0,0)" xlink:href="#aH"/><use transform="matrix(0.07407407407407407,0,0,0.07407407407407407,17.77777777777778,0)" xlink:href="#ak"/><use transform="matrix(0.07407407407407407,0,0,0.07407407407407407,32.592592592592595,0)" xlink:href="#ah"/><use transform="matrix(0.07407407407407407,0,0,0.07407407407407407,45.925925925925924,0)" xlink:href="#ah"/><use transform="matrix(0.07407407407407407,0,0,0.07407407407407407,59.25925925925925,0)" xlink:href="#aI"/><use transform="matrix(0.07407407407407407,0,0,0.07407407407407407,78.44444444444443,0)" xlink:href="#ar"/><use transform="matrix(0.07407407407407407,0,0,0.07407407407407407,93.25925925925924,0)" xlink:href="#aC"/><use transform="matrix(0.07407407407407407,0,0,0.07407407407407407,102.07407407407405,0)" xlink:href="#as"/></g></defs></g></svg>