<svg xmlns="http://www.w3.org/2000/svg" xmlns:xlink="http://www.w3.org/1999/xlink" xmlns:lucid="lucid" width="1944.63" height="1194"><g transform="translate(-40 0)" lucid:page-tab-id="ytw2m99jV~-T"><path d="M0 0h1870.4v1323.2H0z" fill="#fff"/><path d="M60 20h110v42H60zM170 20h314v42H170z" fill="#b2d6ef"/><path d="M484 20h306v42H484zM790 20h310v42H790zM1100 20h676v42h-676z" fill="#c1e4f7"/><path d="M60 62h110v106H60zM170 62h314v106H170zM484 62h306v106H484zM790 62h310v106H790zM1100 62h676v106h-676zM60 168h110v106H60zM170 168h314v106H170zM484 168h306v106H484zM790 168h310v106H790zM1100 168h676v106h-676z" fill="#fff"/><path d="M60 20v42M170 20v42M484 20v42M790 20v42M1100 20v42M1776 20v42M60 62v106M170 62v106M484 62v106M790 62v106M1100 62v106M1776 62v106M60 168v106M170 168v106M484 168v106M790 168v106M1100 168v106M1776 168v106M60 20h110M170 20h314M484 20h306M790 20h310M1100 20h676M60 62h110M170 62h314M484 62h306M790 62h310M1100 62h676M60 168h110M60 274h110M170 168h314M170 274h314M484 168h306M484 274h306M790 168h310M790 274h310M1100 168h676M1100 274h676" stroke="#000" stroke-width="2" fill="none"/><use xlink:href="#a" transform="matrix(1,0,0,1,65,25) translate(42.592592592592595 21.333333333333332)"/><use xlink:href="#b" transform="matrix(1,0,0,1,175,25) translate(88.40740740740742 21.333333333333332)"/><use xlink:href="#c" transform="matrix(1,0,0,1,175,25) translate(144.62962962962962 21.333333333333332)"/><use xlink:href="#d" transform="matrix(1,0,0,1,489,25) translate(118.37037037037038 21.333333333333332)"/><use xlink:href="#e" transform="matrix(1,0,0,1,795,25) translate(59.03703703703704 21.333333333333332)"/><use xlink:href="#f" transform="matrix(1,0,0,1,1105,25) translate(233.74074074074076 21.333333333333332)"/><use xlink:href="#g" transform="matrix(1,0,0,1,1105,25) translate(352.25925925925923 21.333333333333332)"/><use xlink:href="#h" transform="matrix(1,0,0,1,65,67) translate(43.82716049382716 52.44444444444444)"/><use xlink:href="#i" transform="matrix(1,0,0,1,175,67) translate(6.370370370370381 53.33333333333333)"/><use xlink:href="#j" transform="matrix(1,0,0,1,175,67) translate(81.77777777777777 53.33333333333333)"/><use xlink:href="#k" transform="matrix(1,0,0,1,175,67) translate(189.62962962962962 53.33333333333333)"/><use xlink:href="#l" transform="matrix(1,0,0,1,175,67) translate(219.25925925925924 53.33333333333333)"/><use xlink:href="#m" transform="matrix(1,0,0,1,489,67) translate(13.370370370370381 53.33333333333333)"/><use xlink:href="#n" transform="matrix(1,0,0,1,489,67) translate(122.77777777777776 53.33333333333333)"/><use xlink:href="#o" transform="matrix(1,0,0,1,489,67) translate(174.62962962962962 53.33333333333333)"/><use xlink:href="#p" transform="matrix(1,0,0,1,795,67) translate(61.22222222222224 53.33333333333333)"/><use xlink:href="#q" transform="matrix(1,0,0,1,795,67) translate(68.62962962962965 53.33333333333333)"/><use xlink:href="#r" transform="matrix(1,0,0,1,795,67) translate(184.037037037037 53.33333333333333)"/><use xlink:href="#s" transform="matrix(1,0,0,1,1105,67) translate(127.29629629629633 37.333333333333336)"/><use xlink:href="#t" transform="matrix(1,0,0,1,1105,67) translate(221.8888888888889 37.333333333333336)"/><use xlink:href="#u" transform="matrix(1,0,0,1,1105,67) translate(337.3703703703703 37.333333333333336)"/><use xlink:href="#v" transform="matrix(1,0,0,1,1105,67) translate(395.14814814814815 37.333333333333336)"/><use xlink:href="#w" transform="matrix(1,0,0,1,1105,67) translate(218.22222222222223 69.33333333333333)"/><use xlink:href="#x" transform="matrix(1,0,0,1,1105,67) translate(278.96296296296293 69.33333333333333)"/><use xlink:href="#y" transform="matrix(1,0,0,1,1105,67) translate(316 69.33333333333333)"/><use xlink:href="#z" transform="matrix(1,0,0,1,1105,67) translate(388.5185185185185 69.33333333333333)"/><use xlink:href="#A" transform="matrix(1,0,0,1,65,173) translate(43.82716049382716 52.44444444444444)"/><use xlink:href="#m" transform="matrix(1,0,0,1,489,173) translate(13.370370370370381 53.33333333333333)"/><use xlink:href="#n" transform="matrix(1,0,0,1,489,173) translate(122.77777777777776 53.33333333333333)"/><use xlink:href="#o" transform="matrix(1,0,0,1,489,173) translate(174.62962962962962 53.33333333333333)"/><use xlink:href="#B" transform="matrix(1,0,0,1,795,173) translate(10.111111111111142 53.33333333333333)"/><use xlink:href="#C" transform="matrix(1,0,0,1,795,173) translate(125.51851851851852 53.33333333333333)"/><use xlink:href="#D" transform="matrix(1,0,0,1,795,173) translate(190.7037037037037 53.33333333333333)"/><use xlink:href="#r" transform="matrix(1,0,0,1,795,173) translate(235.14814814814812 53.33333333333333)"/><use xlink:href="#s" transform="matrix(1,0,0,1,1105,173) translate(5.111111111111086 37.333333333333336)"/><use xlink:href="#t" transform="matrix(1,0,0,1,1105,173) translate(99.70370370370365 37.333333333333336)"/><use xlink:href="#E" transform="matrix(1,0,0,1,1105,173) translate(215.1851851851851 37.333333333333336)"/><use xlink:href="#D" transform="matrix(1,0,0,1,1105,173) translate(269.92592592592586 37.333333333333336)"/><use xlink:href="#u" transform="matrix(1,0,0,1,1105,173) translate(314.3703703703703 37.333333333333336)"/><use xlink:href="#F" transform="matrix(1,0,0,1,1105,173) translate(372.1481481481481 37.333333333333336)"/><use xlink:href="#G" transform="matrix(1,0,0,1,1105,173) translate(386.96296296296293 37.333333333333336)"/><use xlink:href="#C" transform="matrix(1,0,0,1,1105,173) translate(496.5185185185185 37.333333333333336)"/><use xlink:href="#D" transform="matrix(1,0,0,1,1105,173) translate(561.7037037037037 37.333333333333336)"/><use xlink:href="#H" transform="matrix(1,0,0,1,1105,173) translate(606.1481481481481 37.333333333333336)"/><use xlink:href="#w" transform="matrix(1,0,0,1,1105,173) translate(218.22222222222223 69.33333333333333)"/><use xlink:href="#x" transform="matrix(1,0,0,1,1105,173) translate(278.96296296296293 69.33333333333333)"/><use xlink:href="#y" transform="matrix(1,0,0,1,1105,173) translate(316 69.33333333333333)"/><use xlink:href="#z" transform="matrix(1,0,0,1,1105,173) translate(388.5185185185185 69.33333333333333)"/><path d="M60 320h110v42H60zM170 320h314v42H170z" fill="#b2d6ef"/><path d="M484 320h306v42H484zM790 320h310v42H790zM1100 320h676v42h-676z" fill="#c1e4f7"/><path d="M60 362h110v106H60zM170 362h314v106H170zM484 362h306v106H484zM790 362h310v106H790zM1100 362h676v106h-676zM60 468h110v106H60zM170 468h314v106H170zM484 468h306v106H484zM790 468h310v106H790zM1100 468h676v106h-676z" fill="#fff"/><path d="M60 320v42M170 320v42M484 320v42M790 320v42M1100 320v42M1776 320v42M60 362v106M170 362v106M484 362v106M790 362v106M1100 362v106M1776 362v106M60 468v106M170 468v106M484 468v106M790 468v106M1100 468v106M1776 468v106M60 320h110M170 320h314M484 320h306M790 320h310M1100 320h676M60 362h110M170 362h314M484 362h306M790 362h310M1100 362h676M60 468h110M60 574h110M170 468h314M170 574h314M484 468h306M484 574h306M790 468h310M790 574h310M1100 468h676M1100 574h676" stroke="#000" stroke-width="2" fill="none"/><use xlink:href="#a" transform="matrix(1,0,0,1,65,325) translate(42.592592592592595 21.333333333333332)"/><use xlink:href="#b" transform="matrix(1,0,0,1,175,325) translate(88.40740740740742 21.333333333333332)"/><use xlink:href="#c" transform="matrix(1,0,0,1,175,325) translate(144.62962962962962 21.333333333333332)"/><use xlink:href="#d" transform="matrix(1,0,0,1,489,325) translate(118.37037037037038 21.333333333333332)"/><use xlink:href="#e" transform="matrix(1,0,0,1,795,325) translate(59.03703703703704 21.333333333333332)"/><use xlink:href="#f" transform="matrix(1,0,0,1,1105,325) translate(233.74074074074076 21.333333333333332)"/><use xlink:href="#g" transform="matrix(1,0,0,1,1105,325) translate(352.25925925925923 21.333333333333332)"/><use xlink:href="#h" transform="matrix(1,0,0,1,65,367) translate(43.82716049382716 52.44444444444444)"/><use xlink:href="#I" transform="matrix(1,0,0,1,175,367) translate(48.40740740740743 37.333333333333336)"/><use xlink:href="#J" transform="matrix(1,0,0,1,175,367) translate(120.92592592592594 37.333333333333336)"/><use xlink:href="#K" transform="matrix(1,0,0,1,175,367) translate(225.96296296296293 37.333333333333336)"/><use xlink:href="#L" transform="matrix(1,0,0,1,175,367) translate(29.96296296296299 69.33333333333333)"/><use xlink:href="#M" transform="matrix(1,0,0,1,175,367) translate(146.85185185185185 69.33333333333333)"/><use xlink:href="#N" transform="matrix(1,0,0,1,489,367) translate(97.00000000000001 53.33333333333333)"/><use xlink:href="#m" transform="matrix(1,0,0,1,795,367) translate(42.74074074074076 53.33333333333333)"/><use xlink:href="#O" transform="matrix(1,0,0,1,795,367) translate(152.14814814814815 53.33333333333333)"/><use xlink:href="#P" transform="matrix(1,0,0,1,795,367) translate(178.74074074074073 53.33333333333333)"/><use xlink:href="#s" transform="matrix(1,0,0,1,1105,367) translate(16.29629629629636 37.333333333333336)"/><use xlink:href="#Q" transform="matrix(1,0,0,1,1105,367) translate(110.88888888888893 37.333333333333336)"/><use xlink:href="#E" transform="matrix(1,0,0,1,1105,367) translate(248.44444444444446 37.333333333333336)"/><use xlink:href="#R" transform="matrix(1,0,0,1,1105,367) translate(303.18518518518516 37.333333333333336)"/><use xlink:href="#n" transform="matrix(1,0,0,1,1105,367) translate(418.7407407407407 37.333333333333336)"/><use xlink:href="#J" transform="matrix(1,0,0,1,1105,367) translate(470.59259259259255 37.333333333333336)"/><use xlink:href="#S" transform="matrix(1,0,0,1,1105,367) translate(575.6296296296296 37.333333333333336)"/><use xlink:href="#w" transform="matrix(1,0,0,1,1105,367) translate(218.22222222222223 69.33333333333333)"/><use xlink:href="#x" transform="matrix(1,0,0,1,1105,367) translate(278.96296296296293 69.33333333333333)"/><use xlink:href="#y" transform="matrix(1,0,0,1,1105,367) translate(316 69.33333333333333)"/><use xlink:href="#z" transform="matrix(1,0,0,1,1105,367) translate(388.5185185185185 69.33333333333333)"/><use xlink:href="#A" transform="matrix(1,0,0,1,65,473) translate(43.82716049382716 52.44444444444444)"/><use xlink:href="#N" transform="matrix(1,0,0,1,489,473) translate(97.00000000000001 53.33333333333333)"/><use xlink:href="#m" transform="matrix(1,0,0,1,795,473) translate(49.481481481481495 53.33333333333333)"/><use xlink:href="#O" transform="matrix(1,0,0,1,795,473) translate(158.88888888888886 53.33333333333333)"/><use xlink:href="#T" transform="matrix(1,0,0,1,795,473) translate(185.48148148148147 53.33333333333333)"/><use xlink:href="#s" transform="matrix(1,0,0,1,1105,473) translate(23.037037037037123 37.333333333333336)"/><use xlink:href="#Q" transform="matrix(1,0,0,1,1105,473) translate(117.62962962962969 37.333333333333336)"/><use xlink:href="#E" transform="matrix(1,0,0,1,1105,473) translate(255.18518518518522 37.333333333333336)"/><use xlink:href="#U" transform="matrix(1,0,0,1,1105,473) translate(309.9259259259259 37.333333333333336)"/><use xlink:href="#n" transform="matrix(1,0,0,1,1105,473) translate(411.99999999999994 37.333333333333336)"/><use xlink:href="#J" transform="matrix(1,0,0,1,1105,473) translate(463.8518518518518 37.333333333333336)"/><use xlink:href="#S" transform="matrix(1,0,0,1,1105,473) translate(568.8888888888889 37.333333333333336)"/><use xlink:href="#w" transform="matrix(1,0,0,1,1105,473) translate(218.22222222222223 69.33333333333333)"/><use xlink:href="#x" transform="matrix(1,0,0,1,1105,473) translate(278.96296296296293 69.33333333333333)"/><use xlink:href="#y" transform="matrix(1,0,0,1,1105,473) translate(316 69.33333333333333)"/><use xlink:href="#z" transform="matrix(1,0,0,1,1105,473) translate(388.5185185185185 69.33333333333333)"/><path d="M60 620h110v42H60zM170 620h314v42H170z" fill="#b2d6ef"/><path d="M484 620h306v42H484zM790 620h310v42H790zM1100 620h676v42h-676z" fill="#c1e4f7"/><path d="M60 662h110v106H60zM170 662h314v106H170zM484 662h306v106H484zM790 662h310v106H790zM1100 662h676v106h-676zM60 768h110v106H60zM170 768h314v106H170zM484 768h306v106H484zM790 768h310v106H790zM1100 768h676v106h-676z" fill="#fff"/><path d="M60 620v42M170 620v42M484 620v42M790 620v42M1100 620v42M1776 620v42M60 662v106M170 662v106M484 662v106M790 662v106M1100 662v106M1776 662v106M60 768v106M170 768v106M484 768v106M790 768v106M1100 768v106M1776 768v106M60 620h110M170 620h314M484 620h306M790 620h310M1100 620h676M60 662h110M170 662h314M484 662h306M790 662h310M1100 662h676M60 768h110M60 874h110M170 768h314M170 874h314M484 768h306M484 874h306M790 768h310M790 874h310M1100 768h676M1100 874h676" stroke="#000" stroke-width="2" fill="none"/><use xlink:href="#a" transform="matrix(1,0,0,1,65,625) translate(42.592592592592595 21.333333333333332)"/><use xlink:href="#b" transform="matrix(1,0,0,1,175,625) translate(88.40740740740742 21.333333333333332)"/><use xlink:href="#c" transform="matrix(1,0,0,1,175,625) translate(144.62962962962962 21.333333333333332)"/><use xlink:href="#d" transform="matrix(1,0,0,1,489,625) translate(118.37037037037038 21.333333333333332)"/><use xlink:href="#e" transform="matrix(1,0,0,1,795,625) translate(59.03703703703704 21.333333333333332)"/><use xlink:href="#f" transform="matrix(1,0,0,1,1105,625) translate(233.74074074074076 21.333333333333332)"/><use xlink:href="#g" transform="matrix(1,0,0,1,1105,625) translate(352.25925925925923 21.333333333333332)"/><use xlink:href="#h" transform="matrix(1,0,0,1,65,667) translate(43.82716049382716 52.44444444444444)"/><use xlink:href="#V" transform="matrix(1,0,0,1,175,667) translate(62.44444444444446 53.33333333333333)"/><use xlink:href="#W" transform="matrix(1,0,0,1,175,667) translate(143.85185185185185 53.33333333333333)"/><use xlink:href="#X" transform="matrix(1,0,0,1,489,667) translate(99.14814814814815 53.33333333333333)"/><use xlink:href="#Y" transform="matrix(1,0,0,1,795,667) translate(63.40740740740742 53.33333333333333)"/><use xlink:href="#Z" transform="matrix(1,0,0,1,795,667) translate(168.51851851851853 53.33333333333333)"/><use xlink:href="#s" transform="matrix(1,0,0,1,1105,667) translate(139.07407407407413 37.333333333333336)"/><use xlink:href="#aa" transform="matrix(1,0,0,1,1105,667) translate(233.66666666666668 37.333333333333336)"/><use xlink:href="#ab" transform="matrix(1,0,0,1,1105,667) translate(338.7777777777778 37.333333333333336)"/><use xlink:href="#ac" transform="matrix(1,0,0,1,1105,667) translate(389.14814814814815 37.333333333333336)"/><use xlink:href="#ad" transform="matrix(1,0,0,1,1105,667) translate(455.8148148148148 37.333333333333336)"/><use xlink:href="#w" transform="matrix(1,0,0,1,1105,667) translate(218.22222222222223 69.33333333333333)"/><use xlink:href="#x" transform="matrix(1,0,0,1,1105,667) translate(278.96296296296293 69.33333333333333)"/><use xlink:href="#y" transform="matrix(1,0,0,1,1105,667) translate(316 69.33333333333333)"/><use xlink:href="#z" transform="matrix(1,0,0,1,1105,667) translate(388.5185185185185 69.33333333333333)"/><g><use xlink:href="#A" transform="matrix(1,0,0,1,65,773) translate(43.82716049382716 52.44444444444444)"/></g><g><use xlink:href="#X" transform="matrix(1,0,0,1,489,773) translate(99.14814814814815 53.33333333333333)"/></g><g><use xlink:href="#Y" transform="matrix(1,0,0,1,795,773) translate(15.259259259259295 53.33333333333333)"/><use xlink:href="#C" transform="matrix(1,0,0,1,795,773) translate(120.3703703703704 53.33333333333333)"/><use xlink:href="#D" transform="matrix(1,0,0,1,795,773) translate(185.55555555555557 53.33333333333333)"/><use xlink:href="#r" transform="matrix(1,0,0,1,795,773) translate(230 53.33333333333333)"/></g><g><use xlink:href="#s" transform="matrix(1,0,0,1,1105,773) translate(27.40740740740739 37.333333333333336)"/><use xlink:href="#aa" transform="matrix(1,0,0,1,1105,773) translate(121.99999999999996 37.333333333333336)"/><use xlink:href="#C" transform="matrix(1,0,0,1,1105,773) translate(227.11111111111106 37.333333333333336)"/><use xlink:href="#D" transform="matrix(1,0,0,1,1105,773) translate(292.29629629629624 37.333333333333336)"/><use xlink:href="#ae" transform="matrix(1,0,0,1,1105,773) translate(336.7407407407407 37.333333333333336)"/><use xlink:href="#F" transform="matrix(1,0,0,1,1105,773) translate(398.88888888888885 37.333333333333336)"/><use xlink:href="#af" transform="matrix(1,0,0,1,1105,773) translate(413.7037037037037 37.333333333333336)"/><use xlink:href="#ag" transform="matrix(1,0,0,1,1105,773) translate(481.77777777777777 37.333333333333336)"/><use xlink:href="#ah" transform="matrix(1,0,0,1,1105,773) translate(543.8518518518518 37.333333333333336)"/><use xlink:href="#w" transform="matrix(1,0,0,1,1105,773) translate(218.22222222222223 69.33333333333333)"/><use xlink:href="#x" transform="matrix(1,0,0,1,1105,773) translate(278.96296296296293 69.33333333333333)"/><use xlink:href="#y" transform="matrix(1,0,0,1,1105,773) translate(316 69.33333333333333)"/><use xlink:href="#z" transform="matrix(1,0,0,1,1105,773) translate(388.5185185185185 69.33333333333333)"/></g><path d="M60 920h110v42H60zM170 920h314v42H170z" fill="#b2d6ef"/><path d="M484 920h306v42H484zM790 920h310v42H790zM1100 920h676v42h-676z" fill="#c1e4f7"/><path d="M60 962h110v106H60zM170 962h314v106H170zM484 962h306v106H484zM790 962h310v106H790zM1100 962h676v106h-676zM60 1068h110v106H60zM170 1068h314v106H170zM484 1068h306v106H484zM790 1068h310v106H790zM1100 1068h676v106h-676z" fill="#fff"/><path d="M60 920v42M170 920v42M484 920v42M790 920v42M1100 920v42M1776 920v42M60 962v106M170 962v106M484 962v106M790 962v106M1100 962v106M1776 962v106M60 1068v106M170 1068v106M484 1068v106M790 1068v106M1100 1068v106M1776 1068v106M60 920h110M170 920h314M484 920h306M790 920h310M1100 920h676M60 962h110M170 962h314M484 962h306M790 962h310M1100 962h676M60 1068h110M60 1174h110M170 1068h314M170 1174h314M484 1068h306M484 1174h306M790 1068h310M790 1174h310M1100 1068h676M1100 1174h676" stroke="#000" stroke-width="2" fill="none"/><g><use xlink:href="#a" transform="matrix(1,0,0,1,65,925) translate(42.592592592592595 21.333333333333332)"/></g><g><use xlink:href="#b" transform="matrix(1,0,0,1,175,925) translate(88.40740740740742 21.333333333333332)"/><use xlink:href="#c" transform="matrix(1,0,0,1,175,925) translate(144.62962962962962 21.333333333333332)"/></g><g><use xlink:href="#d" transform="matrix(1,0,0,1,489,925) translate(118.37037037037038 21.333333333333332)"/></g><g><use xlink:href="#e" transform="matrix(1,0,0,1,795,925) translate(59.03703703703704 21.333333333333332)"/></g><g><use xlink:href="#f" transform="matrix(1,0,0,1,1105,925) translate(233.74074074074076 21.333333333333332)"/><use xlink:href="#g" transform="matrix(1,0,0,1,1105,925) translate(352.25925925925923 21.333333333333332)"/></g><g><use xlink:href="#h" transform="matrix(1,0,0,1,65,967) translate(43.82716049382716 52.44444444444444)"/></g><g><use xlink:href="#ai" transform="matrix(1,0,0,1,175,967) translate(69.88888888888891 53.33333333333333)"/><use xlink:href="#aj" transform="matrix(1,0,0,1,175,967) translate(120.25925925925928 53.33333333333333)"/></g><g><use xlink:href="#X" transform="matrix(1,0,0,1,489,967) translate(99.14814814814815 53.33333333333333)"/></g><g><use xlink:href="#Y" transform="matrix(1,0,0,1,795,967) translate(63.40740740740742 53.33333333333333)"/><use xlink:href="#Z" transform="matrix(1,0,0,1,795,967) translate(168.51851851851853 53.33333333333333)"/></g><g><use xlink:href="#s" transform="matrix(1,0,0,1,1105,967) translate(82.2592592592593 37.333333333333336)"/><use xlink:href="#ak" transform="matrix(1,0,0,1,1105,967) translate(176.85185185185185 37.333333333333336)"/><use xlink:href="#al" transform="matrix(1,0,0,1,1105,967) translate(302.48148148148146 37.333333333333336)"/><use xlink:href="#am" transform="matrix(1,0,0,1,1105,967) translate(332.1111111111111 37.333333333333336)"/><use xlink:href="#an" transform="matrix(1,0,0,1,1105,967) translate(376.55555555555554 37.333333333333336)"/><use xlink:href="#ao" transform="matrix(1,0,0,1,1105,967) translate(488.99999999999994 37.333333333333336)"/><use xlink:href="#w" transform="matrix(1,0,0,1,1105,967) translate(218.22222222222223 69.33333333333333)"/><use xlink:href="#x" transform="matrix(1,0,0,1,1105,967) translate(278.96296296296293 69.33333333333333)"/><use xlink:href="#y" transform="matrix(1,0,0,1,1105,967) translate(316 69.33333333333333)"/><use xlink:href="#z" transform="matrix(1,0,0,1,1105,967) translate(388.5185185185185 69.33333333333333)"/></g><g><use xlink:href="#A" transform="matrix(1,0,0,1,65,1073) translate(43.82716049382716 52.44444444444444)"/></g><g><use xlink:href="#X" transform="matrix(1,0,0,1,489,1073) translate(99.14814814814815 53.33333333333333)"/></g><g><use xlink:href="#Y" transform="matrix(1,0,0,1,795,1073) translate(15.259259259259295 53.33333333333333)"/><use xlink:href="#C" transform="matrix(1,0,0,1,795,1073) translate(120.3703703703704 53.33333333333333)"/><use xlink:href="#D" transform="matrix(1,0,0,1,795,1073) translate(185.55555555555557 53.33333333333333)"/><use xlink:href="#r" transform="matrix(1,0,0,1,795,1073) translate(230 53.33333333333333)"/></g><g><use xlink:href="#s" transform="matrix(1,0,0,1,1105,1073) translate(27.40740740740739 37.333333333333336)"/><use xlink:href="#aa" transform="matrix(1,0,0,1,1105,1073) translate(121.99999999999996 37.333333333333336)"/><use xlink:href="#C" transform="matrix(1,0,0,1,1105,1073) translate(227.11111111111106 37.333333333333336)"/><use xlink:href="#D" transform="matrix(1,0,0,1,1105,1073) translate(292.29629629629624 37.333333333333336)"/><use xlink:href="#ae" transform="matrix(1,0,0,1,1105,1073) translate(336.7407407407407 37.333333333333336)"/><use xlink:href="#F" transform="matrix(1,0,0,1,1105,1073) translate(398.88888888888885 37.333333333333336)"/><use xlink:href="#af" transform="matrix(1,0,0,1,1105,1073) translate(413.7037037037037 37.333333333333336)"/><use xlink:href="#ag" transform="matrix(1,0,0,1,1105,1073) translate(481.77777777777777 37.333333333333336)"/><use xlink:href="#ah" transform="matrix(1,0,0,1,1105,1073) translate(543.8518518518518 37.333333333333336)"/><use xlink:href="#w" transform="matrix(1,0,0,1,1105,1073) translate(218.22222222222223 69.33333333333333)"/><use xlink:href="#x" transform="matrix(1,0,0,1,1105,1073) translate(278.96296296296293 69.33333333333333)"/><use xlink:href="#y" transform="matrix(1,0,0,1,1105,1073) translate(316 69.33333333333333)"/><use xlink:href="#z" transform="matrix(1,0,0,1,1105,1073) translate(388.5185185185185 69.33333333333333)"/></g><defs><path d="M160-152l-12 59h37v26h-43L128 0h-28l14-67H60L46 0H20l13-67H6v-26h33l13-59H15v-26h42l15-67h27l-15 67h54l15-67h27l-14 67h28v26h-34zm-81 0L66-93h55l12-59H79" id="ap"/><use transform="matrix(0.07407407407407407,0,0,0.07407407407407407,0,0)" xlink:href="#ap" id="a"/><path d="M127-220V0H93v-220H8v-28h204v28h-85" id="aq"/><path d="M100-194c63 0 86 42 84 106H49c0 40 14 67 53 68 26 1 43-12 49-29l28 8c-11 28-37 45-77 45C44 4 14-33 15-96c1-61 26-98 85-98zm52 81c6-60-76-77-97-28-3 7-6 17-6 28h103" id="ar"/><path d="M135-143c-3-34-86-38-87 0 15 53 115 12 119 90S17 21 10-45l28-5c4 36 97 45 98 0-10-56-113-15-118-90-4-57 82-63 122-42 12 7 21 19 24 35" id="as"/><path d="M59-47c-2 24 18 29 38 22v24C64 9 27 4 27-40v-127H5v-23h24l9-43h21v43h35v23H59v120" id="at"/><g id="b"><use transform="matrix(0.07407407407407407,0,0,0.07407407407407407,0,0)" xlink:href="#aq"/><use transform="matrix(0.07407407407407407,0,0,0.07407407407407407,13.259259259259257,0)" xlink:href="#ar"/><use transform="matrix(0.07407407407407407,0,0,0.07407407407407407,28.074074074074072,0)" xlink:href="#as"/><use transform="matrix(0.07407407407407407,0,0,0.07407407407407407,41.407407407407405,0)" xlink:href="#at"/></g><path d="M190 0L58-211 59 0H30v-248h39L202-35l-2-213h31V0h-41" id="au"/><path d="M141-36C126-15 110 5 73 4 37 3 15-17 15-53c-1-64 63-63 125-63 3-35-9-54-41-54-24 1-41 7-42 31l-33-3c5-37 33-52 76-52 45 0 72 20 72 64v82c-1 20 7 32 28 27v20c-31 9-61-2-59-35zM48-53c0 20 12 33 32 33 41-3 63-29 60-74-43 2-92-5-92 41" id="av"/><path d="M210-169c-67 3-38 105-44 169h-31v-121c0-29-5-50-35-48C34-165 62-65 56 0H25l-1-190h30c1 10-1 24 2 32 10-44 99-50 107 0 11-21 27-35 58-36 85-2 47 119 55 194h-31v-121c0-29-5-49-35-48" id="aw"/><g id="c"><use transform="matrix(0.07407407407407407,0,0,0.07407407407407407,0,0)" xlink:href="#au"/><use transform="matrix(0.07407407407407407,0,0,0.07407407407407407,19.185185185185183,0)" xlink:href="#av"/><use transform="matrix(0.07407407407407407,0,0,0.07407407407407407,34,0)" xlink:href="#aw"/><use transform="matrix(0.07407407407407407,0,0,0.07407407407407407,56.148148148148145,0)" xlink:href="#ar"/></g><path d="M33 0v-248h34V0H33" id="ax"/><path d="M117-194c89-4 53 116 60 194h-32v-121c0-31-8-49-39-48C34-167 62-67 57 0H25l-1-190h30c1 10-1 24 2 32 11-22 29-35 61-36" id="ay"/><path d="M115-194c55 1 70 41 70 98S169 2 115 4C84 4 66-9 55-30l1 105H24l-1-265h31l2 30c10-21 28-34 59-34zm-8 174c40 0 45-34 45-75s-6-73-45-74c-42 0-51 32-51 76 0 43 10 73 51 73" id="az"/><path d="M84 4C-5 8 30-112 23-190h32v120c0 31 7 50 39 49 72-2 45-101 50-169h31l1 190h-30c-1-10 1-25-2-33-11 22-28 36-60 37" id="aA"/><g id="d"><use transform="matrix(0.07407407407407407,0,0,0.07407407407407407,0,0)" xlink:href="#ax"/><use transform="matrix(0.07407407407407407,0,0,0.07407407407407407,7.4074074074074065,0)" xlink:href="#ay"/><use transform="matrix(0.07407407407407407,0,0,0.07407407407407407,22.22222222222222,0)" xlink:href="#az"/><use transform="matrix(0.07407407407407407,0,0,0.07407407407407407,37.03703703703704,0)" xlink:href="#aA"/><use transform="matrix(0.07407407407407407,0,0,0.07407407407407407,51.85185185185185,0)" xlink:href="#at"/></g><path d="M212-179c-10-28-35-45-73-45-59 0-87 40-87 99 0 60 29 101 89 101 43 0 62-24 78-52l27 14C228-24 195 4 139 4 59 4 22-46 18-125c-6-104 99-153 187-111 19 9 31 26 39 46" id="aB"/><path d="M100-194c62-1 85 37 85 99 1 63-27 99-86 99S16-35 15-95c0-66 28-99 85-99zM99-20c44 1 53-31 53-75 0-43-8-75-51-75s-53 32-53 75 10 74 51 75" id="aC"/><path d="M85-194c31 0 48 13 60 33l-1-100h32l1 261h-30c-2-10 0-23-3-31C134-8 116 4 85 4 32 4 16-35 15-94c0-66 23-100 70-100zm9 24c-40 0-46 34-46 75 0 40 6 74 45 74 42 0 51-32 51-76 0-42-9-74-50-73" id="aD"/><path d="M24-231v-30h32v30H24zM24 0v-190h32V0H24" id="aE"/><path d="M0 4l72-265h28L28 4H0" id="aF"/><g id="e"><use transform="matrix(0.07407407407407407,0,0,0.07407407407407407,0,0)" xlink:href="#aB"/><use transform="matrix(0.07407407407407407,0,0,0.07407407407407407,19.185185185185183,0)" xlink:href="#aC"/><use transform="matrix(0.07407407407407407,0,0,0.07407407407407407,34,0)" xlink:href="#ay"/><use transform="matrix(0.07407407407407407,0,0,0.07407407407407407,48.81481481481481,0)" xlink:href="#aD"/><use transform="matrix(0.07407407407407407,0,0,0.07407407407407407,63.62962962962962,0)" xlink:href="#aE"/><use transform="matrix(0.07407407407407407,0,0,0.07407407407407407,69.48148148148146,0)" xlink:href="#at"/><use transform="matrix(0.07407407407407407,0,0,0.07407407407407407,76.88888888888887,0)" xlink:href="#aE"/><use transform="matrix(0.07407407407407407,0,0,0.07407407407407407,82.74074074074072,0)" xlink:href="#aC"/><use transform="matrix(0.07407407407407407,0,0,0.07407407407407407,97.55555555555553,0)" xlink:href="#ay"/><use transform="matrix(0.07407407407407407,0,0,0.07407407407407407,112.37037037037032,0)" xlink:href="#as"/><use transform="matrix(0.07407407407407407,0,0,0.07407407407407407,125.70370370370366,0)" xlink:href="#aF"/><use transform="matrix(0.07407407407407407,0,0,0.07407407407407407,133.1111111111111,0)" xlink:href="#aq"/><use transform="matrix(0.07407407407407407,0,0,0.07407407407407407,146.37037037037035,0)" xlink:href="#ar"/><use transform="matrix(0.07407407407407407,0,0,0.07407407407407407,161.18518518518516,0)" xlink:href="#as"/><use transform="matrix(0.07407407407407407,0,0,0.07407407407407407,174.5185185185185,0)" xlink:href="#at"/></g><path d="M30 0v-248h187v28H63v79h144v27H63v87h162V0H30" id="aG"/><path d="M141 0L90-78 38 0H4l68-98-65-92h35l48 74 47-74h35l-64 92 68 98h-35" id="aH"/><path d="M96-169c-40 0-48 33-48 73s9 75 48 75c24 0 41-14 43-38l32 2c-6 37-31 61-74 61-59 0-76-41-82-99-10-93 101-131 147-64 4 7 5 14 7 22l-32 3c-4-21-16-35-41-35" id="aI"/><g id="f"><use transform="matrix(0.07407407407407407,0,0,0.07407407407407407,0,0)" xlink:href="#aG"/><use transform="matrix(0.07407407407407407,0,0,0.07407407407407407,17.77777777777778,0)" xlink:href="#aH"/><use transform="matrix(0.07407407407407407,0,0,0.07407407407407407,31.11111111111111,0)" xlink:href="#az"/><use transform="matrix(0.07407407407407407,0,0,0.07407407407407407,45.925925925925924,0)" xlink:href="#ar"/><use transform="matrix(0.07407407407407407,0,0,0.07407407407407407,60.74074074074074,0)" xlink:href="#aI"/><use transform="matrix(0.07407407407407407,0,0,0.07407407407407407,74.07407407407406,0)" xlink:href="#at"/><use transform="matrix(0.07407407407407407,0,0,0.07407407407407407,81.48148148148146,0)" xlink:href="#ar"/><use transform="matrix(0.07407407407407407,0,0,0.07407407407407407,96.29629629629627,0)" xlink:href="#aD"/></g><path d="M140-251c81 0 123 46 123 126C263-46 219 4 140 4 59 4 17-45 17-125s42-126 123-126zm0 227c63 0 89-41 89-101s-29-99-89-99c-61 0-89 39-89 99S79-25 140-24" id="aJ"/><g id="g"><use transform="matrix(0.07407407407407407,0,0,0.07407407407407407,0,0)" xlink:href="#aJ"/><use transform="matrix(0.07407407407407407,0,0,0.07407407407407407,20.74074074074074,0)" xlink:href="#aA"/><use transform="matrix(0.07407407407407407,0,0,0.07407407407407407,35.55555555555556,0)" xlink:href="#at"/><use transform="matrix(0.07407407407407407,0,0,0.07407407407407407,42.96296296296296,0)" xlink:href="#az"/><use transform="matrix(0.07407407407407407,0,0,0.07407407407407407,57.77777777777777,0)" xlink:href="#aA"/><use transform="matrix(0.07407407407407407,0,0,0.07407407407407407,72.59259259259258,0)" xlink:href="#at"/></g><path d="M23 0v-37h61v-169l-59 37v-38l62-41h46v211h57V0H23" id="aK"/><use transform="matrix(0.06172839506172839,0,0,0.06172839506172839,0,0)" xlink:href="#aK" id="h"/><path d="M101-234c-31-9-42 10-38 44h38v23H63V0H32v-167H5v-23h27c-7-52 17-82 69-68v24" id="aL"/><path d="M179-190L93 31C79 59 56 82 12 73V49c39 6 53-20 64-50L1-190h34L92-34l54-156h33" id="aM"/><g id="i"><use transform="matrix(0.07407407407407407,0,0,0.07407407407407407,0,0)" xlink:href="#au"/><use transform="matrix(0.07407407407407407,0,0,0.07407407407407407,19.185185185185183,0)" xlink:href="#aC"/><use transform="matrix(0.07407407407407407,0,0,0.07407407407407407,34,0)" xlink:href="#at"/><use transform="matrix(0.07407407407407407,0,0,0.07407407407407407,41.407407407407405,0)" xlink:href="#aE"/><use transform="matrix(0.07407407407407407,0,0,0.07407407407407407,47.259259259259245,0)" xlink:href="#aL"/><use transform="matrix(0.07407407407407407,0,0,0.07407407407407407,54.66666666666666,0)" xlink:href="#aM"/></g><path d="M114-163C36-179 61-72 57 0H25l-1-190h30c1 12-1 29 2 39 6-27 23-49 58-41v29" id="aN"/><path d="M108 0H70L1-190h34L89-25l56-165h34" id="aO"/><path d="M206 0h-36l-40-164L89 0H53L-1-190h32L70-26l43-164h34l41 164 42-164h31" id="aP"/><g id="j"><use transform="matrix(0.07407407407407407,0,0,0.07407407407407407,0,0)" xlink:href="#aN"/><use transform="matrix(0.07407407407407407,0,0,0.07407407407407407,8.814814814814814,0)" xlink:href="#ar"/><use transform="matrix(0.07407407407407407,0,0,0.07407407407407407,23.629629629629622,0)" xlink:href="#aO"/><use transform="matrix(0.07407407407407407,0,0,0.07407407407407407,36.96296296296296,0)" xlink:href="#aE"/><use transform="matrix(0.07407407407407407,0,0,0.07407407407407407,42.81481481481481,0)" xlink:href="#ar"/><use transform="matrix(0.07407407407407407,0,0,0.07407407407407407,57.62962962962962,0)" xlink:href="#aP"/><use transform="matrix(0.07407407407407407,0,0,0.07407407407407407,76.81481481481481,0)" xlink:href="#ar"/><use transform="matrix(0.07407407407407407,0,0,0.07407407407407407,91.62962962962962,0)" xlink:href="#aN"/></g><g id="k"><use transform="matrix(0.07407407407407407,0,0,0.07407407407407407,0,0)" xlink:href="#aC"/><use transform="matrix(0.07407407407407407,0,0,0.07407407407407407,14.814814814814813,0)" xlink:href="#aL"/></g><g id="l"><use transform="matrix(0.07407407407407407,0,0,0.07407407407407407,0,0)" xlink:href="#aO"/><use transform="matrix(0.07407407407407407,0,0,0.07407407407407407,13.333333333333332,0)" xlink:href="#ar"/><use transform="matrix(0.07407407407407407,0,0,0.07407407407407407,28.148148148148145,0)" xlink:href="#aN"/><use transform="matrix(0.07407407407407407,0,0,0.07407407407407407,36.96296296296296,0)" xlink:href="#aD"/><use transform="matrix(0.07407407407407407,0,0,0.07407407407407407,51.77777777777777,0)" xlink:href="#aE"/><use transform="matrix(0.07407407407407407,0,0,0.07407407407407407,57.62962962962962,0)" xlink:href="#aI"/><use transform="matrix(0.07407407407407407,0,0,0.07407407407407407,70.96296296296295,0)" xlink:href="#at"/></g><path d="M30-248c118-7 216 8 213 122C240-48 200 0 122 0H30v-248zM63-27c89 8 146-16 146-99s-60-101-146-95v194" id="aQ"/><g id="m"><use transform="matrix(0.07407407407407407,0,0,0.07407407407407407,0,0)" xlink:href="#aQ"/><use transform="matrix(0.07407407407407407,0,0,0.07407407407407407,19.185185185185183,0)" xlink:href="#ar"/><use transform="matrix(0.07407407407407407,0,0,0.07407407407407407,34,0)" xlink:href="#aI"/><use transform="matrix(0.07407407407407407,0,0,0.07407407407407407,47.33333333333333,0)" xlink:href="#aE"/><use transform="matrix(0.07407407407407407,0,0,0.07407407407407407,53.185185185185176,0)" xlink:href="#as"/><use transform="matrix(0.07407407407407407,0,0,0.07407407407407407,66.5185185185185,0)" xlink:href="#aE"/><use transform="matrix(0.07407407407407407,0,0,0.07407407407407407,72.37037037037035,0)" xlink:href="#aC"/><use transform="matrix(0.07407407407407407,0,0,0.07407407407407407,87.18518518518516,0)" xlink:href="#ay"/></g><g id="n"><use transform="matrix(0.07407407407407407,0,0,0.07407407407407407,0,0)" xlink:href="#av"/><use transform="matrix(0.07407407407407407,0,0,0.07407407407407407,14.814814814814813,0)" xlink:href="#ay"/><use transform="matrix(0.07407407407407407,0,0,0.07407407407407407,29.629629629629626,0)" xlink:href="#aD"/></g><path d="M177-190C167-65 218 103 67 71c-23-6-38-20-44-43l32-5c15 47 100 32 89-28v-30C133-14 115 1 83 1 29 1 15-40 15-95c0-56 16-97 71-98 29-1 48 16 59 35 1-10 0-23 2-32h30zM94-22c36 0 50-32 50-73 0-42-14-75-50-75-39 0-46 34-46 75s6 73 46 73" id="aR"/><g id="o"><use transform="matrix(0.07407407407407407,0,0,0.07407407407407407,0,0)" xlink:href="#aB"/><use transform="matrix(0.07407407407407407,0,0,0.07407407407407407,19.185185185185183,0)" xlink:href="#av"/><use transform="matrix(0.07407407407407407,0,0,0.07407407407407407,34,0)" xlink:href="#at"/><use transform="matrix(0.07407407407407407,0,0,0.07407407407407407,41.407407407407405,0)" xlink:href="#ar"/><use transform="matrix(0.07407407407407407,0,0,0.07407407407407407,56.22222222222221,0)" xlink:href="#aR"/><use transform="matrix(0.07407407407407407,0,0,0.07407407407407407,71.03703703703702,0)" xlink:href="#aC"/><use transform="matrix(0.07407407407407407,0,0,0.07407407407407407,85.85185185185183,0)" xlink:href="#aN"/><use transform="matrix(0.07407407407407407,0,0,0.07407407407407407,94.66666666666664,0)" xlink:href="#aM"/></g><g id="q"><use transform="matrix(0.07407407407407407,0,0,0.07407407407407407,0,0)" xlink:href="#aB"/><use transform="matrix(0.07407407407407407,0,0,0.07407407407407407,19.185185185185183,0)" xlink:href="#av"/><use transform="matrix(0.07407407407407407,0,0,0.07407407407407407,34,0)" xlink:href="#at"/><use transform="matrix(0.07407407407407407,0,0,0.07407407407407407,41.407407407407405,0)" xlink:href="#ar"/><use transform="matrix(0.07407407407407407,0,0,0.07407407407407407,56.22222222222221,0)" xlink:href="#aR"/><use transform="matrix(0.07407407407407407,0,0,0.07407407407407407,71.03703703703702,0)" xlink:href="#aC"/><use transform="matrix(0.07407407407407407,0,0,0.07407407407407407,85.85185185185183,0)" xlink:href="#aN"/><use transform="matrix(0.07407407407407407,0,0,0.07407407407407407,94.66666666666664,0)" xlink:href="#aM"/></g><g id="r"><use transform="matrix(0.07407407407407407,0,0,0.07407407407407407,0,0)" xlink:href="#ar"/><use transform="matrix(0.07407407407407407,0,0,0.07407407407407407,14.814814814814813,0)" xlink:href="#aH"/><use transform="matrix(0.07407407407407407,0,0,0.07407407407407407,28.148148148148145,0)" xlink:href="#aE"/><use transform="matrix(0.07407407407407407,0,0,0.07407407407407407,34,0)" xlink:href="#as"/><use transform="matrix(0.07407407407407407,0,0,0.07407407407407407,47.33333333333333,0)" xlink:href="#at"/></g><path d="M24 0v-261h32V0H24" id="aS"/><g id="s"><use transform="matrix(0.07407407407407407,0,0,0.07407407407407407,0,0)" xlink:href="#aQ"/><use transform="matrix(0.07407407407407407,0,0,0.07407407407407407,19.185185185185183,0)" xlink:href="#aE"/><use transform="matrix(0.07407407407407407,0,0,0.07407407407407407,25.037037037037034,0)" xlink:href="#as"/><use transform="matrix(0.07407407407407407,0,0,0.07407407407407407,38.37037037037037,0)" xlink:href="#az"/><use transform="matrix(0.07407407407407407,0,0,0.07407407407407407,53.185185185185176,0)" xlink:href="#aS"/><use transform="matrix(0.07407407407407407,0,0,0.07407407407407407,59.037037037037024,0)" xlink:href="#av"/><use transform="matrix(0.07407407407407407,0,0,0.07407407407407407,73.85185185185183,0)" xlink:href="#aM"/></g><path d="M240 0l2-218c-23 76-54 145-80 218h-23L58-218 59 0H30v-248h44l77 211c21-75 51-140 76-211h43V0h-30" id="aT"/><g id="t"><use transform="matrix(0.07407407407407407,0,0,0.07407407407407407,0,0)" xlink:href="#aT"/><use transform="matrix(0.07407407407407407,0,0,0.07407407407407407,22.148148148148145,0)" xlink:href="#ar"/><use transform="matrix(0.07407407407407407,0,0,0.07407407407407407,36.96296296296296,0)" xlink:href="#as"/><use transform="matrix(0.07407407407407407,0,0,0.07407407407407407,50.29629629629629,0)" xlink:href="#as"/><use transform="matrix(0.07407407407407407,0,0,0.07407407407407407,63.62962962962962,0)" xlink:href="#av"/><use transform="matrix(0.07407407407407407,0,0,0.07407407407407407,78.44444444444443,0)" xlink:href="#aR"/><use transform="matrix(0.07407407407407407,0,0,0.07407407407407407,93.25925925925924,0)" xlink:href="#ar"/></g><g id="u"><use transform="matrix(0.07407407407407407,0,0,0.07407407407407407,0,0)" xlink:href="#as"/><use transform="matrix(0.07407407407407407,0,0,0.07407407407407407,13.333333333333332,0)" xlink:href="#ar"/><use transform="matrix(0.07407407407407407,0,0,0.07407407407407407,28.148148148148145,0)" xlink:href="#ay"/><use transform="matrix(0.07407407407407407,0,0,0.07407407407407407,42.96296296296296,0)" xlink:href="#at"/></g><g id="v"><use transform="matrix(0.07407407407407407,0,0,0.07407407407407407,0,0)" xlink:href="#as"/><use transform="matrix(0.07407407407407407,0,0,0.07407407407407407,13.333333333333332,0)" xlink:href="#aA"/><use transform="matrix(0.07407407407407407,0,0,0.07407407407407407,28.148148148148145,0)" xlink:href="#aI"/><use transform="matrix(0.07407407407407407,0,0,0.07407407407407407,41.48148148148148,0)" xlink:href="#aI"/><use transform="matrix(0.07407407407407407,0,0,0.07407407407407407,54.81481481481481,0)" xlink:href="#ar"/><use transform="matrix(0.07407407407407407,0,0,0.07407407407407407,69.62962962962962,0)" xlink:href="#as"/><use transform="matrix(0.07407407407407407,0,0,0.07407407407407407,82.96296296296295,0)" xlink:href="#as"/><use transform="matrix(0.07407407407407407,0,0,0.07407407407407407,96.29629629629627,0)" xlink:href="#aL"/><use transform="matrix(0.07407407407407407,0,0,0.07407407407407407,103.70370370370368,0)" xlink:href="#aA"/><use transform="matrix(0.07407407407407407,0,0,0.07407407407407407,118.51851851851849,0)" xlink:href="#aS"/><use transform="matrix(0.07407407407407407,0,0,0.07407407407407407,124.37037037037035,0)" xlink:href="#aS"/><use transform="matrix(0.07407407407407407,0,0,0.07407407407407407,130.2222222222222,0)" xlink:href="#aM"/></g><path d="M185-189c-5-48-123-54-124 2 14 75 158 14 163 119 3 78-121 87-175 55-17-10-28-26-33-46l33-7c5 56 141 63 141-1 0-78-155-14-162-118-5-82 145-84 179-34 5 7 8 16 11 25" id="aU"/><g id="w"><use transform="matrix(0.07407407407407407,0,0,0.07407407407407407,0,0)" xlink:href="#aU"/><use transform="matrix(0.07407407407407407,0,0,0.07407407407407407,17.77777777777778,0)" xlink:href="#at"/><use transform="matrix(0.07407407407407407,0,0,0.07407407407407407,25.185185185185183,0)" xlink:href="#av"/><use transform="matrix(0.07407407407407407,0,0,0.07407407407407407,40,0)" xlink:href="#aM"/></g><g id="x"><use transform="matrix(0.07407407407407407,0,0,0.07407407407407407,0,0)" xlink:href="#aC"/><use transform="matrix(0.07407407407407407,0,0,0.07407407407407407,14.814814814814813,0)" xlink:href="#ay"/></g><g id="y"><use transform="matrix(0.07407407407407407,0,0,0.07407407407407407,0,0)" xlink:href="#as"/><use transform="matrix(0.07407407407407407,0,0,0.07407407407407407,13.333333333333332,0)" xlink:href="#av"/><use transform="matrix(0.07407407407407407,0,0,0.07407407407407407,28.148148148148145,0)" xlink:href="#aw"/><use transform="matrix(0.07407407407407407,0,0,0.07407407407407407,50.29629629629629,0)" xlink:href="#ar"/></g><g id="z"><use transform="matrix(0.07407407407407407,0,0,0.07407407407407407,0,0)" xlink:href="#az"/><use transform="matrix(0.07407407407407407,0,0,0.07407407407407407,14.814814814814813,0)" xlink:href="#av"/><use transform="matrix(0.07407407407407407,0,0,0.07407407407407407,29.629629629629626,0)" xlink:href="#aR"/><use transform="matrix(0.07407407407407407,0,0,0.07407407407407407,44.44444444444444,0)" xlink:href="#ar"/></g><path d="M182-182c0 78-84 86-111 141h115V0H12c-6-101 99-100 120-180 1-22-12-31-33-32-23 0-32 14-35 34l-49-3c5-45 32-70 84-70 51 0 83 22 83 69" id="aV"/><use transform="matrix(0.06172839506172839,0,0,0.06172839506172839,0,0)" xlink:href="#aV" id="A"/><g id="B"><use transform="matrix(0.07407407407407407,0,0,0.07407407407407407,0,0)" xlink:href="#aB"/><use transform="matrix(0.07407407407407407,0,0,0.07407407407407407,19.185185185185183,0)" xlink:href="#av"/><use transform="matrix(0.07407407407407407,0,0,0.07407407407407407,34,0)" xlink:href="#at"/><use transform="matrix(0.07407407407407407,0,0,0.07407407407407407,41.407407407407405,0)" xlink:href="#ar"/><use transform="matrix(0.07407407407407407,0,0,0.07407407407407407,56.22222222222221,0)" xlink:href="#aR"/><use transform="matrix(0.07407407407407407,0,0,0.07407407407407407,71.03703703703702,0)" xlink:href="#aC"/><use transform="matrix(0.07407407407407407,0,0,0.07407407407407407,85.85185185185183,0)" xlink:href="#aN"/><use transform="matrix(0.07407407407407407,0,0,0.07407407407407407,94.66666666666664,0)" xlink:href="#aM"/></g><g id="C"><use transform="matrix(0.07407407407407407,0,0,0.07407407407407407,0,0)" xlink:href="#aD"/><use transform="matrix(0.07407407407407407,0,0,0.07407407407407407,14.814814814814813,0)" xlink:href="#aC"/><use transform="matrix(0.07407407407407407,0,0,0.07407407407407407,29.629629629629626,0)" xlink:href="#ar"/><use transform="matrix(0.07407407407407407,0,0,0.07407407407407407,44.44444444444444,0)" xlink:href="#as"/></g><g id="D"><use transform="matrix(0.07407407407407407,0,0,0.07407407407407407,0,0)" xlink:href="#ay"/><use transform="matrix(0.07407407407407407,0,0,0.07407407407407407,14.814814814814813,0)" xlink:href="#aC"/><use transform="matrix(0.07407407407407407,0,0,0.07407407407407407,29.629629629629626,0)" xlink:href="#at"/></g><g id="E"><use transform="matrix(0.07407407407407407,0,0,0.07407407407407407,0,0)" xlink:href="#aP"/><use transform="matrix(0.07407407407407407,0,0,0.07407407407407407,19.185185185185183,0)" xlink:href="#av"/><use transform="matrix(0.07407407407407407,0,0,0.07407407407407407,34,0)" xlink:href="#as"/></g><path d="M68-38c1 34 0 65-14 84H32c9-13 17-26 17-46H33v-38h35" id="aW"/><use transform="matrix(0.07407407407407407,0,0,0.07407407407407407,0,0)" xlink:href="#aW" id="F"/><g id="G"><use transform="matrix(0.07407407407407407,0,0,0.07407407407407407,0,0)" xlink:href="#aI"/><use transform="matrix(0.07407407407407407,0,0,0.07407407407407407,13.333333333333332,0)" xlink:href="#av"/><use transform="matrix(0.07407407407407407,0,0,0.07407407407407407,28.148148148148145,0)" xlink:href="#at"/><use transform="matrix(0.07407407407407407,0,0,0.07407407407407407,35.55555555555555,0)" xlink:href="#ar"/><use transform="matrix(0.07407407407407407,0,0,0.07407407407407407,50.37037037037037,0)" xlink:href="#aR"/><use transform="matrix(0.07407407407407407,0,0,0.07407407407407407,65.18518518518517,0)" xlink:href="#aC"/><use transform="matrix(0.07407407407407407,0,0,0.07407407407407407,79.99999999999998,0)" xlink:href="#aN"/><use transform="matrix(0.07407407407407407,0,0,0.07407407407407407,88.8148148148148,0)" xlink:href="#aM"/></g><g id="H"><use transform="matrix(0.07407407407407407,0,0,0.07407407407407407,0,0)" xlink:href="#ar"/><use transform="matrix(0.07407407407407407,0,0,0.07407407407407407,14.814814814814813,0)" xlink:href="#aH"/><use transform="matrix(0.07407407407407407,0,0,0.07407407407407407,28.148148148148145,0)" xlink:href="#aE"/><use transform="matrix(0.07407407407407407,0,0,0.07407407407407407,34,0)" xlink:href="#as"/><use transform="matrix(0.07407407407407407,0,0,0.07407407407407407,47.33333333333333,0)" xlink:href="#at"/></g><path d="M143 0L79-87 56-68V0H24v-261h32v163l83-92h37l-77 82L181 0h-38" id="aX"/><g id="I"><use transform="matrix(0.07407407407407407,0,0,0.07407407407407407,0,0)" xlink:href="#aT"/><use transform="matrix(0.07407407407407407,0,0,0.07407407407407407,22.148148148148145,0)" xlink:href="#av"/><use transform="matrix(0.07407407407407407,0,0,0.07407407407407407,36.96296296296296,0)" xlink:href="#aX"/><use transform="matrix(0.07407407407407407,0,0,0.07407407407407407,50.29629629629629,0)" xlink:href="#ar"/></g><g id="J"><use transform="matrix(0.07407407407407407,0,0,0.07407407407407407,0,0)" xlink:href="#aD"/><use transform="matrix(0.07407407407407407,0,0,0.07407407407407407,14.814814814814813,0)" xlink:href="#ar"/><use transform="matrix(0.07407407407407407,0,0,0.07407407407407407,29.629629629629626,0)" xlink:href="#aI"/><use transform="matrix(0.07407407407407407,0,0,0.07407407407407407,42.96296296296296,0)" xlink:href="#aE"/><use transform="matrix(0.07407407407407407,0,0,0.07407407407407407,48.81481481481481,0)" xlink:href="#as"/><use transform="matrix(0.07407407407407407,0,0,0.07407407407407407,62.14814814814814,0)" xlink:href="#aE"/><use transform="matrix(0.07407407407407407,0,0,0.07407407407407407,67.99999999999998,0)" xlink:href="#aC"/><use transform="matrix(0.07407407407407407,0,0,0.07407407407407407,82.8148148148148,0)" xlink:href="#ay"/></g><g id="K"><use transform="matrix(0.07407407407407407,0,0,0.07407407407407407,0,0)" xlink:href="#aC"/><use transform="matrix(0.07407407407407407,0,0,0.07407407407407407,14.814814814814813,0)" xlink:href="#ay"/></g><g id="L"><use transform="matrix(0.07407407407407407,0,0,0.07407407407407407,0,0)" xlink:href="#aL"/><use transform="matrix(0.07407407407407407,0,0,0.07407407407407407,7.4074074074074065,0)" xlink:href="#aC"/><use transform="matrix(0.07407407407407407,0,0,0.07407407407407407,22.22222222222222,0)" xlink:href="#aN"/><use transform="matrix(0.07407407407407407,0,0,0.07407407407407407,31.037037037037038,0)" xlink:href="#aP"/><use transform="matrix(0.07407407407407407,0,0,0.07407407407407407,50.22222222222222,0)" xlink:href="#av"/><use transform="matrix(0.07407407407407407,0,0,0.07407407407407407,65.03703703703704,0)" xlink:href="#aD"/><use transform="matrix(0.07407407407407407,0,0,0.07407407407407407,79.85185185185185,0)" xlink:href="#ar"/><use transform="matrix(0.07407407407407407,0,0,0.07407407407407407,94.66666666666666,0)" xlink:href="#aD"/></g><g id="M"><use transform="matrix(0.07407407407407407,0,0,0.07407407407407407,0,0)" xlink:href="#av"/><use transform="matrix(0.07407407407407407,0,0,0.07407407407407407,14.814814814814813,0)" xlink:href="#az"/><use transform="matrix(0.07407407407407407,0,0,0.07407407407407407,29.629629629629626,0)" xlink:href="#az"/><use transform="matrix(0.07407407407407407,0,0,0.07407407407407407,44.44444444444444,0)" xlink:href="#aS"/><use transform="matrix(0.07407407407407407,0,0,0.07407407407407407,50.29629629629629,0)" xlink:href="#aE"/><use transform="matrix(0.07407407407407407,0,0,0.07407407407407407,56.14814814814814,0)" xlink:href="#aI"/><use transform="matrix(0.07407407407407407,0,0,0.07407407407407407,69.48148148148146,0)" xlink:href="#av"/><use transform="matrix(0.07407407407407407,0,0,0.07407407407407407,84.29629629629627,0)" xlink:href="#at"/><use transform="matrix(0.07407407407407407,0,0,0.07407407407407407,91.70370370370368,0)" xlink:href="#aE"/><use transform="matrix(0.07407407407407407,0,0,0.07407407407407407,97.55555555555553,0)" xlink:href="#aC"/><use transform="matrix(0.07407407407407407,0,0,0.07407407407407407,112.37037037037032,0)" xlink:href="#ay"/></g><g id="N"><use transform="matrix(0.07407407407407407,0,0,0.07407407407407407,0,0)" xlink:href="#aQ"/><use transform="matrix(0.07407407407407407,0,0,0.07407407407407407,19.185185185185183,0)" xlink:href="#ar"/><use transform="matrix(0.07407407407407407,0,0,0.07407407407407407,34,0)" xlink:href="#aI"/><use transform="matrix(0.07407407407407407,0,0,0.07407407407407407,47.33333333333333,0)" xlink:href="#aE"/><use transform="matrix(0.07407407407407407,0,0,0.07407407407407407,53.185185185185176,0)" xlink:href="#as"/><use transform="matrix(0.07407407407407407,0,0,0.07407407407407407,66.5185185185185,0)" xlink:href="#aE"/><use transform="matrix(0.07407407407407407,0,0,0.07407407407407407,72.37037037037035,0)" xlink:href="#aC"/><use transform="matrix(0.07407407407407407,0,0,0.07407407407407407,87.18518518518516,0)" xlink:href="#ay"/></g><g id="O"><use transform="matrix(0.07407407407407407,0,0,0.07407407407407407,0,0)" xlink:href="#aE"/><use transform="matrix(0.07407407407407407,0,0,0.07407407407407407,5.851851851851851,0)" xlink:href="#as"/></g><g id="P"><use transform="matrix(0.07407407407407407,0,0,0.07407407407407407,0,0)" xlink:href="#av"/><use transform="matrix(0.07407407407407407,0,0,0.07407407407407407,14.814814814814813,0)" xlink:href="#aI"/><use transform="matrix(0.07407407407407407,0,0,0.07407407407407407,28.148148148148145,0)" xlink:href="#aI"/><use transform="matrix(0.07407407407407407,0,0,0.07407407407407407,41.48148148148148,0)" xlink:href="#ar"/><use transform="matrix(0.07407407407407407,0,0,0.07407407407407407,56.29629629629629,0)" xlink:href="#az"/><use transform="matrix(0.07407407407407407,0,0,0.07407407407407407,71.1111111111111,0)" xlink:href="#at"/></g><path d="M205 0l-28-72H64L36 0H1l101-248h38L239 0h-34zm-38-99l-47-123c-12 45-31 82-46 123h93" id="aY"/><g id="Q"><use transform="matrix(0.07407407407407407,0,0,0.07407407407407407,0,0)" xlink:href="#aY"/><use transform="matrix(0.07407407407407407,0,0,0.07407407407407407,17.77777777777778,0)" xlink:href="#az"/><use transform="matrix(0.07407407407407407,0,0,0.07407407407407407,32.592592592592595,0)" xlink:href="#az"/><use transform="matrix(0.07407407407407407,0,0,0.07407407407407407,47.407407407407405,0)" xlink:href="#aS"/><use transform="matrix(0.07407407407407407,0,0,0.07407407407407407,53.25925925925926,0)" xlink:href="#aE"/><use transform="matrix(0.07407407407407407,0,0,0.07407407407407407,59.1111111111111,0)" xlink:href="#aI"/><use transform="matrix(0.07407407407407407,0,0,0.07407407407407407,72.44444444444443,0)" xlink:href="#av"/><use transform="matrix(0.07407407407407407,0,0,0.07407407407407407,87.25925925925924,0)" xlink:href="#at"/><use transform="matrix(0.07407407407407407,0,0,0.07407407407407407,94.66666666666664,0)" xlink:href="#aE"/><use transform="matrix(0.07407407407407407,0,0,0.07407407407407407,100.51851851851849,0)" xlink:href="#aC"/><use transform="matrix(0.07407407407407407,0,0,0.07407407407407407,115.3333333333333,0)" xlink:href="#ay"/></g><g id="R"><use transform="matrix(0.07407407407407407,0,0,0.07407407407407407,0,0)" xlink:href="#av"/><use transform="matrix(0.07407407407407407,0,0,0.07407407407407407,14.814814814814813,0)" xlink:href="#aI"/><use transform="matrix(0.07407407407407407,0,0,0.07407407407407407,28.148148148148145,0)" xlink:href="#aI"/><use transform="matrix(0.07407407407407407,0,0,0.07407407407407407,41.48148148148148,0)" xlink:href="#ar"/><use transform="matrix(0.07407407407407407,0,0,0.07407407407407407,56.29629629629629,0)" xlink:href="#az"/><use transform="matrix(0.07407407407407407,0,0,0.07407407407407407,71.1111111111111,0)" xlink:href="#at"/><use transform="matrix(0.07407407407407407,0,0,0.07407407407407407,78.51851851851849,0)" xlink:href="#ar"/><use transform="matrix(0.07407407407407407,0,0,0.07407407407407407,93.33333333333331,0)" xlink:href="#aD"/></g><g id="S"><use transform="matrix(0.07407407407407407,0,0,0.07407407407407407,0,0)" xlink:href="#av"/><use transform="matrix(0.07407407407407407,0,0,0.07407407407407407,14.814814814814813,0)" xlink:href="#aD"/><use transform="matrix(0.07407407407407407,0,0,0.07407407407407407,29.629629629629626,0)" xlink:href="#aD"/><use transform="matrix(0.07407407407407407,0,0,0.07407407407407407,44.44444444444444,0)" xlink:href="#ar"/><use transform="matrix(0.07407407407407407,0,0,0.07407407407407407,59.25925925925925,0)" xlink:href="#aD"/></g><path d="M24-231v-30h32v30H24zM-9 49c24 4 33-6 33-30v-209h32V24c2 40-23 58-65 49V49" id="aZ"/><g id="T"><use transform="matrix(0.07407407407407407,0,0,0.07407407407407407,0,0)" xlink:href="#aN"/><use transform="matrix(0.07407407407407407,0,0,0.07407407407407407,8.814814814814814,0)" xlink:href="#ar"/><use transform="matrix(0.07407407407407407,0,0,0.07407407407407407,23.629629629629622,0)" xlink:href="#aZ"/><use transform="matrix(0.07407407407407407,0,0,0.07407407407407407,29.481481481481477,0)" xlink:href="#ar"/><use transform="matrix(0.07407407407407407,0,0,0.07407407407407407,44.29629629629629,0)" xlink:href="#aI"/><use transform="matrix(0.07407407407407407,0,0,0.07407407407407407,57.62962962962962,0)" xlink:href="#at"/></g><g id="U"><use transform="matrix(0.07407407407407407,0,0,0.07407407407407407,0,0)" xlink:href="#aN"/><use transform="matrix(0.07407407407407407,0,0,0.07407407407407407,8.814814814814814,0)" xlink:href="#ar"/><use transform="matrix(0.07407407407407407,0,0,0.07407407407407407,23.629629629629622,0)" xlink:href="#aZ"/><use transform="matrix(0.07407407407407407,0,0,0.07407407407407407,29.481481481481477,0)" xlink:href="#ar"/><use transform="matrix(0.07407407407407407,0,0,0.07407407407407407,44.29629629629629,0)" xlink:href="#aI"/><use transform="matrix(0.07407407407407407,0,0,0.07407407407407407,57.62962962962962,0)" xlink:href="#at"/><use transform="matrix(0.07407407407407407,0,0,0.07407407407407407,65.03703703703702,0)" xlink:href="#ar"/><use transform="matrix(0.07407407407407407,0,0,0.07407407407407407,79.85185185185183,0)" xlink:href="#aD"/></g><g id="V"><use transform="matrix(0.07407407407407407,0,0,0.07407407407407407,0,0)" xlink:href="#aU"/><use transform="matrix(0.07407407407407407,0,0,0.07407407407407407,17.77777777777778,0)" xlink:href="#ar"/><use transform="matrix(0.07407407407407407,0,0,0.07407407407407407,32.592592592592595,0)" xlink:href="#aS"/><use transform="matrix(0.07407407407407407,0,0,0.07407407407407407,38.44444444444444,0)" xlink:href="#ar"/><use transform="matrix(0.07407407407407407,0,0,0.07407407407407407,53.25925925925926,0)" xlink:href="#aI"/><use transform="matrix(0.07407407407407407,0,0,0.07407407407407407,66.59259259259258,0)" xlink:href="#at"/></g><g id="W"><use transform="matrix(0.07407407407407407,0,0,0.07407407407407407,0,0)" xlink:href="#aY"/><use transform="matrix(0.07407407407407407,0,0,0.07407407407407407,17.77777777777778,0)" xlink:href="#aD"/><use transform="matrix(0.07407407407407407,0,0,0.07407407407407407,32.592592592592595,0)" xlink:href="#aD"/><use transform="matrix(0.07407407407407407,0,0,0.07407407407407407,47.407407407407405,0)" xlink:href="#aN"/><use transform="matrix(0.07407407407407407,0,0,0.07407407407407407,56.22222222222222,0)" xlink:href="#ar"/><use transform="matrix(0.07407407407407407,0,0,0.07407407407407407,71.03703703703704,0)" xlink:href="#as"/><use transform="matrix(0.07407407407407407,0,0,0.07407407407407407,84.37037037037036,0)" xlink:href="#as"/></g><g id="X"><use transform="matrix(0.07407407407407407,0,0,0.07407407407407407,0,0)" xlink:href="#aY"/><use transform="matrix(0.07407407407407407,0,0,0.07407407407407407,17.77777777777778,0)" xlink:href="#aD"/><use transform="matrix(0.07407407407407407,0,0,0.07407407407407407,32.592592592592595,0)" xlink:href="#aD"/><use transform="matrix(0.07407407407407407,0,0,0.07407407407407407,47.407407407407405,0)" xlink:href="#aN"/><use transform="matrix(0.07407407407407407,0,0,0.07407407407407407,56.22222222222222,0)" xlink:href="#ar"/><use transform="matrix(0.07407407407407407,0,0,0.07407407407407407,71.03703703703704,0)" xlink:href="#as"/><use transform="matrix(0.07407407407407407,0,0,0.07407407407407407,84.37037037037036,0)" xlink:href="#as"/></g><g id="Y"><use transform="matrix(0.07407407407407407,0,0,0.07407407407407407,0,0)" xlink:href="#aY"/><use transform="matrix(0.07407407407407407,0,0,0.07407407407407407,17.77777777777778,0)" xlink:href="#aD"/><use transform="matrix(0.07407407407407407,0,0,0.07407407407407407,32.592592592592595,0)" xlink:href="#aD"/><use transform="matrix(0.07407407407407407,0,0,0.07407407407407407,47.407407407407405,0)" xlink:href="#aN"/><use transform="matrix(0.07407407407407407,0,0,0.07407407407407407,56.22222222222222,0)" xlink:href="#ar"/><use transform="matrix(0.07407407407407407,0,0,0.07407407407407407,71.03703703703704,0)" xlink:href="#as"/><use transform="matrix(0.07407407407407407,0,0,0.07407407407407407,84.37037037037036,0)" xlink:href="#as"/></g><g id="Z"><use transform="matrix(0.07407407407407407,0,0,0.07407407407407407,0,0)" xlink:href="#ar"/><use transform="matrix(0.07407407407407407,0,0,0.07407407407407407,14.814814814814813,0)" xlink:href="#aH"/><use transform="matrix(0.07407407407407407,0,0,0.07407407407407407,28.148148148148145,0)" xlink:href="#aE"/><use transform="matrix(0.07407407407407407,0,0,0.07407407407407407,34,0)" xlink:href="#as"/><use transform="matrix(0.07407407407407407,0,0,0.07407407407407407,47.33333333333333,0)" xlink:href="#at"/><use transform="matrix(0.07407407407407407,0,0,0.07407407407407407,54.740740740740726,0)" xlink:href="#as"/></g><g id="aa"><use transform="matrix(0.07407407407407407,0,0,0.07407407407407407,0,0)" xlink:href="#aY"/><use transform="matrix(0.07407407407407407,0,0,0.07407407407407407,17.77777777777778,0)" xlink:href="#aD"/><use transform="matrix(0.07407407407407407,0,0,0.07407407407407407,32.592592592592595,0)" xlink:href="#aD"/><use transform="matrix(0.07407407407407407,0,0,0.07407407407407407,47.407407407407405,0)" xlink:href="#aN"/><use transform="matrix(0.07407407407407407,0,0,0.07407407407407407,56.22222222222222,0)" xlink:href="#ar"/><use transform="matrix(0.07407407407407407,0,0,0.07407407407407407,71.03703703703704,0)" xlink:href="#as"/><use transform="matrix(0.07407407407407407,0,0,0.07407407407407407,84.37037037037036,0)" xlink:href="#as"/></g><path d="M106-169C34-169 62-67 57 0H25v-261h32l-1 103c12-21 28-36 61-36 89 0 53 116 60 194h-32v-121c2-32-8-49-39-48" id="ba"/><g id="ab"><use transform="matrix(0.07407407407407407,0,0,0.07407407407407407,0,0)" xlink:href="#ba"/><use transform="matrix(0.07407407407407407,0,0,0.07407407407407407,14.814814814814813,0)" xlink:href="#av"/><use transform="matrix(0.07407407407407407,0,0,0.07407407407407407,29.629629629629626,0)" xlink:href="#as"/></g><path d="M115-194c53 0 69 39 70 98 0 66-23 100-70 100C84 3 66-7 56-30L54 0H23l1-261h32v101c10-23 28-34 59-34zm-8 174c40 0 45-34 45-75 0-40-5-75-45-74-42 0-51 32-51 76 0 43 10 73 51 73" id="bb"/><g id="ac"><use transform="matrix(0.07407407407407407,0,0,0.07407407407407407,0,0)" xlink:href="#bb"/><use transform="matrix(0.07407407407407407,0,0,0.07407407407407407,14.814814814814813,0)" xlink:href="#ar"/><use transform="matrix(0.07407407407407407,0,0,0.07407407407407407,29.629629629629626,0)" xlink:href="#ar"/><use transform="matrix(0.07407407407407407,0,0,0.07407407407407407,44.44444444444444,0)" xlink:href="#ay"/></g><g id="ad"><use transform="matrix(0.07407407407407407,0,0,0.07407407407407407,0,0)" xlink:href="#as"/><use transform="matrix(0.07407407407407407,0,0,0.07407407407407407,13.333333333333332,0)" xlink:href="#av"/><use transform="matrix(0.07407407407407407,0,0,0.07407407407407407,28.148148148148145,0)" xlink:href="#aO"/><use transform="matrix(0.07407407407407407,0,0,0.07407407407407407,41.48148148148148,0)" xlink:href="#ar"/><use transform="matrix(0.07407407407407407,0,0,0.07407407407407407,56.29629629629629,0)" xlink:href="#aD"/></g><g id="ae"><use transform="matrix(0.07407407407407407,0,0,0.07407407407407407,0,0)" xlink:href="#ar"/><use transform="matrix(0.07407407407407407,0,0,0.07407407407407407,14.814814814814813,0)" xlink:href="#aH"/><use transform="matrix(0.07407407407407407,0,0,0.07407407407407407,28.148148148148145,0)" xlink:href="#aE"/><use transform="matrix(0.07407407407407407,0,0,0.07407407407407407,34,0)" xlink:href="#as"/><use transform="matrix(0.07407407407407407,0,0,0.07407407407407407,47.33333333333333,0)" xlink:href="#at"/></g><g id="af"><use transform="matrix(0.07407407407407407,0,0,0.07407407407407407,0,0)" xlink:href="#ar"/><use transform="matrix(0.07407407407407407,0,0,0.07407407407407407,14.814814814814813,0)" xlink:href="#ay"/><use transform="matrix(0.07407407407407407,0,0,0.07407407407407407,29.629629629629626,0)" xlink:href="#at"/><use transform="matrix(0.07407407407407407,0,0,0.07407407407407407,37.03703703703703,0)" xlink:href="#ar"/><use transform="matrix(0.07407407407407407,0,0,0.07407407407407407,51.85185185185185,0)" xlink:href="#aN"/></g><g id="ag"><use transform="matrix(0.07407407407407407,0,0,0.07407407407407407,0,0)" xlink:href="#aO"/><use transform="matrix(0.07407407407407407,0,0,0.07407407407407407,13.333333333333332,0)" xlink:href="#av"/><use transform="matrix(0.07407407407407407,0,0,0.07407407407407407,28.148148148148145,0)" xlink:href="#aS"/><use transform="matrix(0.07407407407407407,0,0,0.07407407407407407,34,0)" xlink:href="#aE"/><use transform="matrix(0.07407407407407407,0,0,0.07407407407407407,39.85185185185185,0)" xlink:href="#aD"/></g><g id="ah"><use transform="matrix(0.07407407407407407,0,0,0.07407407407407407,0,0)" xlink:href="#av"/><use transform="matrix(0.07407407407407407,0,0,0.07407407407407407,14.814814814814813,0)" xlink:href="#aD"/><use transform="matrix(0.07407407407407407,0,0,0.07407407407407407,29.629629629629626,0)" xlink:href="#aD"/><use transform="matrix(0.07407407407407407,0,0,0.07407407407407407,44.44444444444444,0)" xlink:href="#aN"/><use transform="matrix(0.07407407407407407,0,0,0.07407407407407407,53.25925925925926,0)" xlink:href="#ar"/><use transform="matrix(0.07407407407407407,0,0,0.07407407407407407,68.07407407407407,0)" xlink:href="#as"/><use transform="matrix(0.07407407407407407,0,0,0.07407407407407407,81.4074074074074,0)" xlink:href="#as"/></g><path d="M143 4C61 4 22-44 18-125c-5-107 100-154 193-111 17 8 29 25 37 43l-32 9c-13-25-37-40-76-40-61 0-88 39-88 99 0 61 29 100 91 101 35 0 62-11 79-27v-45h-74v-28h105v86C228-13 192 4 143 4" id="bc"/><g id="ai"><use transform="matrix(0.07407407407407407,0,0,0.07407407407407407,0,0)" xlink:href="#bc"/><use transform="matrix(0.07407407407407407,0,0,0.07407407407407407,20.74074074074074,0)" xlink:href="#ar"/><use transform="matrix(0.07407407407407407,0,0,0.07407407407407407,35.55555555555556,0)" xlink:href="#at"/></g><g id="aj"><use transform="matrix(0.07407407407407407,0,0,0.07407407407407407,0,0)" xlink:href="#aD"/><use transform="matrix(0.07407407407407407,0,0,0.07407407407407407,14.814814814814813,0)" xlink:href="#aE"/><use transform="matrix(0.07407407407407407,0,0,0.07407407407407407,20.666666666666664,0)" xlink:href="#aN"/><use transform="matrix(0.07407407407407407,0,0,0.07407407407407407,29.48148148148148,0)" xlink:href="#ar"/><use transform="matrix(0.07407407407407407,0,0,0.07407407407407407,44.29629629629629,0)" xlink:href="#aI"/><use transform="matrix(0.07407407407407407,0,0,0.07407407407407407,57.62962962962962,0)" xlink:href="#at"/><use transform="matrix(0.07407407407407407,0,0,0.07407407407407407,65.03703703703702,0)" xlink:href="#aE"/><use transform="matrix(0.07407407407407407,0,0,0.07407407407407407,70.88888888888887,0)" xlink:href="#aC"/><use transform="matrix(0.07407407407407407,0,0,0.07407407407407407,85.70370370370368,0)" xlink:href="#ay"/><use transform="matrix(0.07407407407407407,0,0,0.07407407407407407,100.51851851851849,0)" xlink:href="#as"/></g><g id="ak"><use transform="matrix(0.07407407407407407,0,0,0.07407407407407407,0,0)" xlink:href="#aQ"/><use transform="matrix(0.07407407407407407,0,0,0.07407407407407407,19.185185185185183,0)" xlink:href="#aE"/><use transform="matrix(0.07407407407407407,0,0,0.07407407407407407,25.037037037037034,0)" xlink:href="#aN"/><use transform="matrix(0.07407407407407407,0,0,0.07407407407407407,33.85185185185185,0)" xlink:href="#ar"/><use transform="matrix(0.07407407407407407,0,0,0.07407407407407407,48.66666666666666,0)" xlink:href="#aI"/><use transform="matrix(0.07407407407407407,0,0,0.07407407407407407,61.999999999999986,0)" xlink:href="#at"/><use transform="matrix(0.07407407407407407,0,0,0.07407407407407407,69.40740740740739,0)" xlink:href="#aE"/><use transform="matrix(0.07407407407407407,0,0,0.07407407407407407,75.25925925925924,0)" xlink:href="#aC"/><use transform="matrix(0.07407407407407407,0,0,0.07407407407407407,90.07407407407405,0)" xlink:href="#ay"/><use transform="matrix(0.07407407407407407,0,0,0.07407407407407407,104.88888888888884,0)" xlink:href="#as"/></g><g id="al"><use transform="matrix(0.07407407407407407,0,0,0.07407407407407407,0,0)" xlink:href="#at"/><use transform="matrix(0.07407407407407407,0,0,0.07407407407407407,7.4074074074074065,0)" xlink:href="#aC"/></g><g id="am"><use transform="matrix(0.07407407407407407,0,0,0.07407407407407407,0,0)" xlink:href="#at"/><use transform="matrix(0.07407407407407407,0,0,0.07407407407407407,7.4074074074074065,0)" xlink:href="#ba"/><use transform="matrix(0.07407407407407407,0,0,0.07407407407407407,22.22222222222222,0)" xlink:href="#ar"/></g><g id="an"><use transform="matrix(0.07407407407407407,0,0,0.07407407407407407,0,0)" xlink:href="#as"/><use transform="matrix(0.07407407407407407,0,0,0.07407407407407407,13.333333333333332,0)" xlink:href="#az"/><use transform="matrix(0.07407407407407407,0,0,0.07407407407407407,28.148148148148145,0)" xlink:href="#ar"/><use transform="matrix(0.07407407407407407,0,0,0.07407407407407407,42.96296296296296,0)" xlink:href="#aI"/><use transform="matrix(0.07407407407407407,0,0,0.07407407407407407,56.29629629629629,0)" xlink:href="#aE"/><use transform="matrix(0.07407407407407407,0,0,0.07407407407407407,62.14814814814814,0)" xlink:href="#aL"/><use transform="matrix(0.07407407407407407,0,0,0.07407407407407407,69.55555555555554,0)" xlink:href="#aE"/><use transform="matrix(0.07407407407407407,0,0,0.07407407407407407,75.40740740740739,0)" xlink:href="#ar"/><use transform="matrix(0.07407407407407407,0,0,0.07407407407407407,90.2222222222222,0)" xlink:href="#aD"/></g><g id="ao"><use transform="matrix(0.07407407407407407,0,0,0.07407407407407407,0,0)" xlink:href="#av"/><use transform="matrix(0.07407407407407407,0,0,0.07407407407407407,14.814814814814813,0)" xlink:href="#aD"/><use transform="matrix(0.07407407407407407,0,0,0.07407407407407407,29.629629629629626,0)" xlink:href="#aD"/><use transform="matrix(0.07407407407407407,0,0,0.07407407407407407,44.44444444444444,0)" xlink:href="#aN"/><use transform="matrix(0.07407407407407407,0,0,0.07407407407407407,53.25925925925926,0)" xlink:href="#ar"/><use transform="matrix(0.07407407407407407,0,0,0.07407407407407407,68.07407407407407,0)" xlink:href="#as"/><use transform="matrix(0.07407407407407407,0,0,0.07407407407407407,81.4074074074074,0)" xlink:href="#as"/></g></defs></g></svg>