<svg xmlns="http://www.w3.org/2000/svg" xmlns:xlink="http://www.w3.org/1999/xlink" xmlns:lucid="lucid" width="1768.14" height="1274"><g transform="translate(0 0)" lucid:page-tab-id="Ubu2Wzll671_"><path d="M0 0h1870.4v1323.2H0z" fill="#fff"/><path d="M40 20h110v42H40zM150 20h314v42H150z" fill="#b2d6ef"/><path d="M464 20h306v42H464zM770 20h243.4v42H770zM1013.4 20h406v42h-406z" fill="#c1e4f7"/><path d="M40 62h110v138H40zM150 62h314v138H150zM464 62h306v138H464zM770 62h243.4v138H770zM1013.4 62h406v138h-406zM40 200h110v138H40zM150 200h314v138H150zM464 200h306v138H464zM770 200h243.4v138H770zM1013.4 200h406v138h-406z" fill="#fff"/><path d="M40 20v42M150 20v42M464 20v42M770 20v42M1013.4 20v42M1419.4 20v42M40 62v138M150 62v138M464 62v138M770 62v138M1013.4 62v138M1419.4 62v138M40 200v138M150 200v138M464 200v138M770 200v138M1013.4 200v138M1419.4 200v138M40 20h110M150 20h314M464 20h306M770 20h243.4M1013.4 20h406M40 62h110M150 62h314M464 62h306M770 62h243.4M1013.4 62h406M40 200h110M40 338h110M150 200h314M150 338h314M464 200h306M464 338h306M770 200h243.4M770 338h243.4M1013.4 200h406M1013.4 338h406" stroke="#000" stroke-width="2" fill="none"/><use xlink:href="#a" transform="matrix(1,0,0,1,45,25) translate(42.592592592592595 21.333333333333332)"/><use xlink:href="#b" transform="matrix(1,0,0,1,155,25) translate(88.40740740740742 21.333333333333332)"/><use xlink:href="#c" transform="matrix(1,0,0,1,155,25) translate(144.62962962962962 21.333333333333332)"/><use xlink:href="#d" transform="matrix(1,0,0,1,469,25) translate(118.37037037037038 21.333333333333332)"/><use xlink:href="#e" transform="matrix(1,0,0,1,775,25) translate(26.037037037037038 21.333333333333332)"/><use xlink:href="#f" transform="matrix(1,0,0,1,1018.4000000000001,25) translate(98.74074074074076 21.333333333333332)"/><use xlink:href="#g" transform="matrix(1,0,0,1,1018.4000000000001,25) translate(217.25925925925924 21.333333333333332)"/><use xlink:href="#h" transform="matrix(1,0,0,1,45,67) translate(43.82716049382716 68.44444444444444)"/><use xlink:href="#i" transform="matrix(1,0,0,1,155,67) translate(95 69.33333333333333)"/><use xlink:href="#j" transform="matrix(1,0,0,1,155,67) translate(149.8148148148148 69.33333333333333)"/><use xlink:href="#k" transform="matrix(1,0,0,1,469,67) translate(7.407407407407419 53.33333333333333)"/><use xlink:href="#l" transform="matrix(1,0,0,1,469,67) translate(74 53.33333333333333)"/><use xlink:href="#m" transform="matrix(1,0,0,1,469,67) translate(198.37037037037035 53.33333333333333)"/><use xlink:href="#n" transform="matrix(1,0,0,1,469,67) translate(229.4074074074074 53.33333333333333)"/><use xlink:href="#o" transform="matrix(1,0,0,1,469,67) translate(126.51851851851852 85.33333333333333)"/><use xlink:href="#k" transform="matrix(1,0,0,1,775,67) translate(28.8888888888889 21.333333333333332)"/><use xlink:href="#p" transform="matrix(1,0,0,1,775,67) translate(95.48148148148148 21.333333333333332)"/><use xlink:href="#q" transform="matrix(1,0,0,1,775,67) translate(145.85185185185185 21.333333333333332)"/><use xlink:href="#r" transform="matrix(1,0,0,1,775,67) translate(52.55555555555557 53.33333333333333)"/><use xlink:href="#s" transform="matrix(1,0,0,1,775,67) translate(134.03703703703704 53.33333333333333)"/><use xlink:href="#t" transform="matrix(1,0,0,1,775,67) translate(3.0740740740740904 85.33333333333333)"/><use xlink:href="#u" transform="matrix(1,0,0,1,775,67) translate(128.7037037037037 85.33333333333333)"/><use xlink:href="#v" transform="matrix(1,0,0,1,775,67) translate(193.88888888888886 85.33333333333333)"/><use xlink:href="#w" transform="matrix(1,0,0,1,775,67) translate(89.62962962962963 117.33333333333333)"/><use xlink:href="#x" transform="matrix(1,0,0,1,1018.4000000000001,67) translate(4.888888888888914 53.33333333333333)"/><use xlink:href="#y" transform="matrix(1,0,0,1,1018.4000000000001,67) translate(99.48148148148148 53.33333333333333)"/><use xlink:href="#r" transform="matrix(1,0,0,1,1018.4000000000001,67) translate(166.07407407407408 53.33333333333333)"/><use xlink:href="#z" transform="matrix(1,0,0,1,1018.4000000000001,67) translate(247.55555555555554 53.33333333333333)"/><use xlink:href="#A" transform="matrix(1,0,0,1,1018.4000000000001,67) translate(83.22222222222223 85.33333333333333)"/><use xlink:href="#B" transform="matrix(1,0,0,1,1018.4000000000001,67) translate(143.96296296296296 85.33333333333333)"/><use xlink:href="#C" transform="matrix(1,0,0,1,1018.4000000000001,67) translate(181 85.33333333333333)"/><use xlink:href="#D" transform="matrix(1,0,0,1,1018.4000000000001,67) translate(253.5185185185185 85.33333333333333)"/><use xlink:href="#E" transform="matrix(1,0,0,1,45,205) translate(43.82716049382716 68.44444444444444)"/><use xlink:href="#k" transform="matrix(1,0,0,1,469,205) translate(7.407407407407419 53.33333333333333)"/><use xlink:href="#l" transform="matrix(1,0,0,1,469,205) translate(74 53.33333333333333)"/><use xlink:href="#m" transform="matrix(1,0,0,1,469,205) translate(198.37037037037035 53.33333333333333)"/><use xlink:href="#n" transform="matrix(1,0,0,1,469,205) translate(229.4074074074074 53.33333333333333)"/><use xlink:href="#o" transform="matrix(1,0,0,1,469,205) translate(126.51851851851852 85.33333333333333)"/><use xlink:href="#k" transform="matrix(1,0,0,1,775,205) translate(28.8888888888889 37.33333333333333)"/><use xlink:href="#p" transform="matrix(1,0,0,1,775,205) translate(95.48148148148148 37.33333333333333)"/><use xlink:href="#q" transform="matrix(1,0,0,1,775,205) translate(145.85185185185185 37.33333333333333)"/><use xlink:href="#r" transform="matrix(1,0,0,1,775,205) translate(52.55555555555557 69.33333333333333)"/><use xlink:href="#s" transform="matrix(1,0,0,1,775,205) translate(134.03703703703704 69.33333333333333)"/><use xlink:href="#t" transform="matrix(1,0,0,1,775,205) translate(26.814814814814838 101.33333333333333)"/><use xlink:href="#w" transform="matrix(1,0,0,1,775,205) translate(152.44444444444446 101.33333333333333)"/><use xlink:href="#x" transform="matrix(1,0,0,1,1018.4000000000001,205) translate(4.888888888888914 37.33333333333333)"/><use xlink:href="#y" transform="matrix(1,0,0,1,1018.4000000000001,205) translate(99.48148148148148 37.33333333333333)"/><use xlink:href="#r" transform="matrix(1,0,0,1,1018.4000000000001,205) translate(166.07407407407408 37.33333333333333)"/><use xlink:href="#F" transform="matrix(1,0,0,1,1018.4000000000001,205) translate(247.55555555555554 37.33333333333333)"/><use xlink:href="#G" transform="matrix(1,0,0,1,1018.4000000000001,205) translate(70.0740740740741 69.33333333333333)"/><use xlink:href="#y" transform="matrix(1,0,0,1,1018.4000000000001,205) translate(164.66666666666668 69.33333333333333)"/><use xlink:href="#H" transform="matrix(1,0,0,1,1018.4000000000001,205) translate(231.25925925925927 69.33333333333333)"/><use xlink:href="#A" transform="matrix(1,0,0,1,1018.4000000000001,205) translate(83.22222222222223 101.33333333333333)"/><use xlink:href="#B" transform="matrix(1,0,0,1,1018.4000000000001,205) translate(143.96296296296296 101.33333333333333)"/><use xlink:href="#C" transform="matrix(1,0,0,1,1018.4000000000001,205) translate(181 101.33333333333333)"/><use xlink:href="#D" transform="matrix(1,0,0,1,1018.4000000000001,205) translate(253.5185185185185 101.33333333333333)"/><path d="M40 380h110v42H40zM150 380h314v42H150z" fill="#b2d6ef"/><path d="M464 380h306v42H464zM770 380h243.4v42H770zM1013.4 380h450v42h-450z" fill="#c1e4f7"/><path d="M40 422h110v106H40zM150 422h314v106H150zM464 422h306v106H464zM770 422h243.4v106H770zM1013.4 422h450v106h-450zM40 528h110v106H40zM150 528h314v106H150zM464 528h306v106H464zM770 528h243.4v106H770zM1013.4 528h450v106h-450z" fill="#fff"/><path d="M40 380v42M150 380v42M464 380v42M770 380v42M1013.4 380v42M1463.4 380v42M40 422v106M150 422v106M464 422v106M770 422v106M1013.4 422v106M1463.4 422v106M40 528v106M150 528v106M464 528v106M770 528v106M1013.4 528v106M1463.4 528v106M40 380h110M150 380h314M464 380h306M770 380h243.4M1013.4 380h450M40 422h110M150 422h314M464 422h306M770 422h243.4M1013.4 422h450M40 528h110M40 634h110M150 528h314M150 634h314M464 528h306M464 634h306M770 528h243.4M770 634h243.4M1013.4 528h450M1013.4 634h450" stroke="#000" stroke-width="2" fill="none"/><use xlink:href="#a" transform="matrix(1,0,0,1,45,385) translate(42.592592592592595 21.333333333333332)"/><use xlink:href="#b" transform="matrix(1,0,0,1,155,385) translate(88.40740740740742 21.333333333333332)"/><use xlink:href="#c" transform="matrix(1,0,0,1,155,385) translate(144.62962962962962 21.333333333333332)"/><use xlink:href="#d" transform="matrix(1,0,0,1,469,385) translate(118.37037037037038 21.333333333333332)"/><use xlink:href="#e" transform="matrix(1,0,0,1,775,385) translate(26.037037037037038 21.333333333333332)"/><use xlink:href="#f" transform="matrix(1,0,0,1,1018.4000000000001,385) translate(120.74074074074076 21.333333333333332)"/><use xlink:href="#g" transform="matrix(1,0,0,1,1018.4000000000001,385) translate(239.25925925925924 21.333333333333332)"/><use xlink:href="#h" transform="matrix(1,0,0,1,45,427) translate(43.82716049382716 52.44444444444444)"/><use xlink:href="#I" transform="matrix(1,0,0,1,155,427) translate(48.40740740740743 37.333333333333336)"/><use xlink:href="#J" transform="matrix(1,0,0,1,155,427) translate(120.92592592592594 37.333333333333336)"/><use xlink:href="#K" transform="matrix(1,0,0,1,155,427) translate(225.96296296296293 37.333333333333336)"/><use xlink:href="#L" transform="matrix(1,0,0,1,155,427) translate(86.92592592592594 69.33333333333333)"/><use xlink:href="#M" transform="matrix(1,0,0,1,469,427) translate(97.00000000000001 53.33333333333333)"/><use xlink:href="#N" transform="matrix(1,0,0,1,775,427) translate(9.740740740740761 53.33333333333333)"/><use xlink:href="#O" transform="matrix(1,0,0,1,775,427) translate(119.14814814814814 53.33333333333333)"/><use xlink:href="#P" transform="matrix(1,0,0,1,775,427) translate(145.74074074074073 53.33333333333333)"/><use xlink:href="#x" transform="matrix(1,0,0,1,1018.4000000000001,427) translate(5.407407407407447 37.333333333333336)"/><use xlink:href="#Q" transform="matrix(1,0,0,1,1018.4000000000001,427) translate(100.00000000000001 37.333333333333336)"/><use xlink:href="#p" transform="matrix(1,0,0,1,1018.4000000000001,427) translate(209.4074074074074 37.333333333333336)"/><use xlink:href="#R" transform="matrix(1,0,0,1,1018.4000000000001,427) translate(259.77777777777777 37.333333333333336)"/><use xlink:href="#S" transform="matrix(1,0,0,1,1018.4000000000001,427) translate(326.4444444444444 37.333333333333336)"/><use xlink:href="#A" transform="matrix(1,0,0,1,1018.4000000000001,427) translate(105.22222222222223 69.33333333333333)"/><use xlink:href="#B" transform="matrix(1,0,0,1,1018.4000000000001,427) translate(165.96296296296296 69.33333333333333)"/><use xlink:href="#C" transform="matrix(1,0,0,1,1018.4000000000001,427) translate(203 69.33333333333333)"/><use xlink:href="#D" transform="matrix(1,0,0,1,1018.4000000000001,427) translate(275.5185185185185 69.33333333333333)"/><use xlink:href="#E" transform="matrix(1,0,0,1,45,533) translate(43.82716049382716 52.44444444444444)"/><use xlink:href="#M" transform="matrix(1,0,0,1,469,533) translate(97.00000000000001 53.33333333333333)"/><use xlink:href="#N" transform="matrix(1,0,0,1,775,533) translate(16.481481481481495 53.33333333333333)"/><use xlink:href="#O" transform="matrix(1,0,0,1,775,533) translate(125.88888888888887 53.33333333333333)"/><use xlink:href="#T" transform="matrix(1,0,0,1,775,533) translate(152.48148148148147 53.33333333333333)"/><use xlink:href="#x" transform="matrix(1,0,0,1,1018.4000000000001,533) translate(12.14814814814821 37.333333333333336)"/><use xlink:href="#Q" transform="matrix(1,0,0,1,1018.4000000000001,533) translate(106.74074074074077 37.333333333333336)"/><use xlink:href="#p" transform="matrix(1,0,0,1,1018.4000000000001,533) translate(216.14814814814815 37.333333333333336)"/><use xlink:href="#R" transform="matrix(1,0,0,1,1018.4000000000001,533) translate(266.51851851851853 37.333333333333336)"/><use xlink:href="#U" transform="matrix(1,0,0,1,1018.4000000000001,533) translate(333.18518518518516 37.333333333333336)"/><use xlink:href="#A" transform="matrix(1,0,0,1,1018.4000000000001,533) translate(105.22222222222223 69.33333333333333)"/><use xlink:href="#B" transform="matrix(1,0,0,1,1018.4000000000001,533) translate(165.96296296296296 69.33333333333333)"/><use xlink:href="#C" transform="matrix(1,0,0,1,1018.4000000000001,533) translate(203 69.33333333333333)"/><use xlink:href="#D" transform="matrix(1,0,0,1,1018.4000000000001,533) translate(275.5185185185185 69.33333333333333)"/><path d="M40 676h110v42H40zM150 676h314v42H150z" fill="#b2d6ef"/><path d="M464 676h306v42H464zM770 676h243v42H770zM1013 676h562v42h-562z" fill="#c1e4f7"/><path d="M40 718h110v106H40zM150 718h314v106H150zM464 718h306v106H464zM770 718h243v106H770zM1013 718h562v106h-562zM40 824h110v106H40zM150 824h314v106H150zM464 824h306v106H464zM770 824h243v106H770zM1013 824h562v106h-562z" fill="#fff"/><path d="M40 676v42M150 676v42M464 676v42M770 676v42M1013 676v42M1575 676v42M40 718v106M150 718v106M464 718v106M770 718v106M1013 718v106M1575 718v106M40 824v106M150 824v106M464 824v106M770 824v106M1013 824v106M1575 824v106M40 676h110M150 676h314M464 676h306M770 676h243M1013 676h562M40 718h110M150 718h314M464 718h306M770 718h243M1013 718h562M40 824h110M40 930h110M150 824h314M150 930h314M464 824h306M464 930h306M770 824h243M770 930h243M1013 824h562M1013 930h562" stroke="#000" stroke-width="2" fill="none"/><use xlink:href="#a" transform="matrix(1,0,0,1,45,681) translate(42.592592592592595 21.333333333333332)"/><use xlink:href="#b" transform="matrix(1,0,0,1,155,681) translate(88.40740740740742 21.333333333333332)"/><use xlink:href="#c" transform="matrix(1,0,0,1,155,681) translate(144.62962962962962 21.333333333333332)"/><use xlink:href="#d" transform="matrix(1,0,0,1,469,681) translate(118.37037037037038 21.333333333333332)"/><use xlink:href="#e" transform="matrix(1,0,0,1,775,681) translate(25.537037037037038 21.333333333333332)"/><use xlink:href="#f" transform="matrix(1,0,0,1,1018,681) translate(176.74074074074076 21.333333333333332)"/><use xlink:href="#g" transform="matrix(1,0,0,1,1018,681) translate(295.25925925925923 21.333333333333332)"/><use xlink:href="#h" transform="matrix(1,0,0,1,45,723) translate(43.82716049382716 52.44444444444444)"/><use xlink:href="#V" transform="matrix(1,0,0,1,155,723) translate(8.518518518518561 53.33333333333333)"/><use xlink:href="#W" transform="matrix(1,0,0,1,155,723) translate(83.92592592592595 53.33333333333333)"/><use xlink:href="#X" transform="matrix(1,0,0,1,155,723) translate(200.8148148148148 53.33333333333333)"/><use xlink:href="#Y" transform="matrix(1,0,0,1,155,723) translate(230.44444444444443 53.33333333333333)"/><use xlink:href="#Z" transform="matrix(1,0,0,1,469,723) translate(93.96296296296297 53.33333333333333)"/><use xlink:href="#aa" transform="matrix(1,0,0,1,775,723) translate(1.0925925925926094 53.33333333333333)"/><use xlink:href="#X" transform="matrix(1,0,0,1,775,723) translate(83.9074074074074 53.33333333333333)"/><use xlink:href="#ab" transform="matrix(1,0,0,1,775,723) translate(113.53703703703704 53.33333333333333)"/><use xlink:href="#w" transform="matrix(1,0,0,1,775,723) translate(177.16666666666666 53.33333333333333)"/><g><use xlink:href="#x" transform="matrix(1,0,0,1,1018,723) translate(55.51851851851856 37.333333333333336)"/><use xlink:href="#ac" transform="matrix(1,0,0,1,1018,723) translate(150.11111111111114 37.333333333333336)"/><use xlink:href="#ad" transform="matrix(1,0,0,1,1018,723) translate(265.5925925925926 37.333333333333336)"/><use xlink:href="#ae" transform="matrix(1,0,0,1,1018,723) translate(352.92592592592586 37.333333333333336)"/><use xlink:href="#A" transform="matrix(1,0,0,1,1018,723) translate(161.22222222222223 69.33333333333333)"/><use xlink:href="#B" transform="matrix(1,0,0,1,1018,723) translate(221.96296296296296 69.33333333333333)"/><use xlink:href="#C" transform="matrix(1,0,0,1,1018,723) translate(259 69.33333333333333)"/><use xlink:href="#D" transform="matrix(1,0,0,1,1018,723) translate(331.5185185185185 69.33333333333333)"/></g><g><use xlink:href="#E" transform="matrix(1,0,0,1,45,829) translate(43.82716049382716 52.44444444444444)"/></g><g><use xlink:href="#Z" transform="matrix(1,0,0,1,469,829) translate(93.96296296296297 53.33333333333333)"/></g><g><use xlink:href="#aa" transform="matrix(1,0,0,1,775,829) translate(6.981481481481495 37.333333333333336)"/><use xlink:href="#X" transform="matrix(1,0,0,1,775,829) translate(89.79629629629629 37.333333333333336)"/><use xlink:href="#ab" transform="matrix(1,0,0,1,775,829) translate(119.42592592592592 37.333333333333336)"/><use xlink:href="#af" transform="matrix(1,0,0,1,775,829) translate(183.05555555555554 37.333333333333336)"/><use xlink:href="#ag" transform="matrix(1,0,0,1,775,829) translate(23.90740740740742 69.33333333333333)"/><use xlink:href="#R" transform="matrix(1,0,0,1,775,829) translate(68.35185185185185 69.33333333333333)"/><use xlink:href="#ah" transform="matrix(1,0,0,1,775,829) translate(135.0185185185185 69.33333333333333)"/></g><g><use xlink:href="#x" transform="matrix(1,0,0,1,1018,829) translate(8.148148148148152 37.333333333333336)"/><use xlink:href="#Q" transform="matrix(1,0,0,1,1018,829) translate(102.74074074074072 37.333333333333336)"/><use xlink:href="#B" transform="matrix(1,0,0,1,1018,829) translate(212.1481481481481 37.333333333333336)"/><use xlink:href="#y" transform="matrix(1,0,0,1,1018,829) translate(249.18518518518513 37.333333333333336)"/><use xlink:href="#p" transform="matrix(1,0,0,1,1018,829) translate(315.7777777777777 37.333333333333336)"/><use xlink:href="#ag" transform="matrix(1,0,0,1,1018,829) translate(366.1481481481481 37.333333333333336)"/><use xlink:href="#R" transform="matrix(1,0,0,1,1018,829) translate(410.59259259259255 37.333333333333336)"/><use xlink:href="#ai" transform="matrix(1,0,0,1,1018,829) translate(477.25925925925923 37.333333333333336)"/><use xlink:href="#A" transform="matrix(1,0,0,1,1018,829) translate(161.22222222222223 69.33333333333333)"/><use xlink:href="#B" transform="matrix(1,0,0,1,1018,829) translate(221.96296296296296 69.33333333333333)"/><use xlink:href="#C" transform="matrix(1,0,0,1,1018,829) translate(259 69.33333333333333)"/><use xlink:href="#D" transform="matrix(1,0,0,1,1018,829) translate(331.5185185185185 69.33333333333333)"/></g><path d="M20 1000h110v42H20zM130 1000h314v42H130z" fill="#b2d6ef"/><path d="M444 1000h306v42H444zM750 1000h243.4v42H750zM993.4 1000h578v42h-578z" fill="#c1e4f7"/><path d="M20 1042h110v106H20zM130 1042h314v106H130zM444 1042h306v106H444zM750 1042h243.4v106H750zM993.4 1042h578v106h-578zM20 1148h110v106H20zM130 1148h314v106H130zM444 1148h306v106H444zM750 1148h243.4v106H750zM993.4 1148h578v106h-578z" fill="#fff"/><path d="M20 1000v42M130 1000v42M444 1000v42M750 1000v42M993.4 1000v42M1571.4 1000v42M20 1042v106M130 1042v106M444 1042v106M750 1042v106M993.4 1042v106M1571.4 1042v106M20 1148v106M130 1148v106M444 1148v106M750 1148v106M993.4 1148v106M1571.4 1148v106M20 1000h110M130 1000h314M444 1000h306M750 1000h243.4M993.4 1000h578M20 1042h110M130 1042h314M444 1042h306M750 1042h243.4M993.4 1042h578M20 1148h110M20 1254h110M130 1148h314M130 1254h314M444 1148h306M444 1254h306M750 1148h243.4M750 1254h243.4M993.4 1148h578M993.4 1254h578" stroke="#000" stroke-width="2" fill="none"/><g><use xlink:href="#a" transform="matrix(1,0,0,1,25,1005) translate(42.592592592592595 21.333333333333332)"/></g><g><use xlink:href="#b" transform="matrix(1,0,0,1,135,1005) translate(88.40740740740742 21.333333333333332)"/><use xlink:href="#c" transform="matrix(1,0,0,1,135,1005) translate(144.62962962962962 21.333333333333332)"/></g><g><use xlink:href="#d" transform="matrix(1,0,0,1,449,1005) translate(118.37037037037038 21.333333333333332)"/></g><g><use xlink:href="#e" transform="matrix(1,0,0,1,755,1005) translate(26.037037037037038 21.333333333333332)"/></g><g><use xlink:href="#f" transform="matrix(1,0,0,1,998.4000000000001,1005) translate(184.74074074074076 21.333333333333332)"/><use xlink:href="#g" transform="matrix(1,0,0,1,998.4000000000001,1005) translate(303.25925925925923 21.333333333333332)"/></g><g><use xlink:href="#h" transform="matrix(1,0,0,1,25,1047) translate(43.82716049382716 52.44444444444444)"/></g><g><use xlink:href="#aj" transform="matrix(1,0,0,1,135,1047) translate(49.962962962962976 37.333333333333336)"/><use xlink:href="#ak" transform="matrix(1,0,0,1,135,1047) translate(149.14814814814815 37.333333333333336)"/><use xlink:href="#al" transform="matrix(1,0,0,1,135,1047) translate(105.37037037037038 69.33333333333333)"/></g><g><use xlink:href="#am" transform="matrix(1,0,0,1,449,1047) translate(48.18518518518519 53.33333333333333)"/><use xlink:href="#X" transform="matrix(1,0,0,1,449,1047) translate(113.29629629629629 53.33333333333333)"/><use xlink:href="#an" transform="matrix(1,0,0,1,449,1047) translate(142.92592592592592 53.33333333333333)"/></g><g><use xlink:href="#am" transform="matrix(1,0,0,1,755,1047) translate(35.666666666666686 53.33333333333333)"/><use xlink:href="#O" transform="matrix(1,0,0,1,755,1047) translate(100.77777777777778 53.33333333333333)"/><use xlink:href="#ao" transform="matrix(1,0,0,1,755,1047) translate(127.37037037037038 53.33333333333333)"/></g><g><use xlink:href="#x" transform="matrix(1,0,0,1,998.4000000000001,1047) translate(64.33333333333334 37.333333333333336)"/><use xlink:href="#ap" transform="matrix(1,0,0,1,998.4000000000001,1047) translate(158.92592592592592 37.333333333333336)"/><use xlink:href="#aq" transform="matrix(1,0,0,1,998.4000000000001,1047) translate(272.7777777777777 37.333333333333336)"/><use xlink:href="#ar" transform="matrix(1,0,0,1,998.4000000000001,1047) translate(423.74074074074076 37.333333333333336)"/><use xlink:href="#A" transform="matrix(1,0,0,1,998.4000000000001,1047) translate(169.22222222222223 69.33333333333333)"/><use xlink:href="#B" transform="matrix(1,0,0,1,998.4000000000001,1047) translate(229.96296296296296 69.33333333333333)"/><use xlink:href="#C" transform="matrix(1,0,0,1,998.4000000000001,1047) translate(267 69.33333333333333)"/><use xlink:href="#D" transform="matrix(1,0,0,1,998.4000000000001,1047) translate(339.5185185185185 69.33333333333333)"/></g><g><use xlink:href="#E" transform="matrix(1,0,0,1,25,1153) translate(43.82716049382716 52.44444444444444)"/></g><g><use xlink:href="#am" transform="matrix(1,0,0,1,449,1153) translate(48.18518518518519 53.33333333333333)"/><use xlink:href="#X" transform="matrix(1,0,0,1,449,1153) translate(113.29629629629629 53.33333333333333)"/><use xlink:href="#ak" transform="matrix(1,0,0,1,449,1153) translate(142.92592592592592 53.33333333333333)"/></g><g><use xlink:href="#am" transform="matrix(1,0,0,1,755,1153) translate(39.37037037037038 53.33333333333333)"/><use xlink:href="#O" transform="matrix(1,0,0,1,755,1153) translate(104.48148148148148 53.33333333333333)"/><use xlink:href="#as" transform="matrix(1,0,0,1,755,1153) translate(131.07407407407408 53.33333333333333)"/></g><g><use xlink:href="#x" transform="matrix(1,0,0,1,998.4000000000001,1153) translate(64.33333333333334 37.333333333333336)"/><use xlink:href="#ap" transform="matrix(1,0,0,1,998.4000000000001,1153) translate(158.92592592592592 37.333333333333336)"/><use xlink:href="#aq" transform="matrix(1,0,0,1,998.4000000000001,1153) translate(272.7777777777777 37.333333333333336)"/><use xlink:href="#ar" transform="matrix(1,0,0,1,998.4000000000001,1153) translate(423.74074074074076 37.333333333333336)"/><use xlink:href="#A" transform="matrix(1,0,0,1,998.4000000000001,1153) translate(169.22222222222223 69.33333333333333)"/><use xlink:href="#B" transform="matrix(1,0,0,1,998.4000000000001,1153) translate(229.96296296296296 69.33333333333333)"/><use xlink:href="#C" transform="matrix(1,0,0,1,998.4000000000001,1153) translate(267 69.33333333333333)"/><use xlink:href="#D" transform="matrix(1,0,0,1,998.4000000000001,1153) translate(339.5185185185185 69.33333333333333)"/></g><defs><path d="M160-152l-12 59h37v26h-43L128 0h-28l14-67H60L46 0H20l13-67H6v-26h33l13-59H15v-26h42l15-67h27l-15 67h54l15-67h27l-14 67h28v26h-34zm-81 0L66-93h55l12-59H79" id="at"/><use transform="matrix(0.07407407407407407,0,0,0.07407407407407407,0,0)" xlink:href="#at" id="a"/><path d="M127-220V0H93v-220H8v-28h204v28h-85" id="au"/><path d="M100-194c63 0 86 42 84 106H49c0 40 14 67 53 68 26 1 43-12 49-29l28 8c-11 28-37 45-77 45C44 4 14-33 15-96c1-61 26-98 85-98zm52 81c6-60-76-77-97-28-3 7-6 17-6 28h103" id="av"/><path d="M135-143c-3-34-86-38-87 0 15 53 115 12 119 90S17 21 10-45l28-5c4 36 97 45 98 0-10-56-113-15-118-90-4-57 82-63 122-42 12 7 21 19 24 35" id="aw"/><path d="M59-47c-2 24 18 29 38 22v24C64 9 27 4 27-40v-127H5v-23h24l9-43h21v43h35v23H59v120" id="ax"/><g id="b"><use transform="matrix(0.07407407407407407,0,0,0.07407407407407407,0,0)" xlink:href="#au"/><use transform="matrix(0.07407407407407407,0,0,0.07407407407407407,13.259259259259257,0)" xlink:href="#av"/><use transform="matrix(0.07407407407407407,0,0,0.07407407407407407,28.074074074074072,0)" xlink:href="#aw"/><use transform="matrix(0.07407407407407407,0,0,0.07407407407407407,41.407407407407405,0)" xlink:href="#ax"/></g><path d="M190 0L58-211 59 0H30v-248h39L202-35l-2-213h31V0h-41" id="ay"/><path d="M141-36C126-15 110 5 73 4 37 3 15-17 15-53c-1-64 63-63 125-63 3-35-9-54-41-54-24 1-41 7-42 31l-33-3c5-37 33-52 76-52 45 0 72 20 72 64v82c-1 20 7 32 28 27v20c-31 9-61-2-59-35zM48-53c0 20 12 33 32 33 41-3 63-29 60-74-43 2-92-5-92 41" id="az"/><path d="M210-169c-67 3-38 105-44 169h-31v-121c0-29-5-50-35-48C34-165 62-65 56 0H25l-1-190h30c1 10-1 24 2 32 10-44 99-50 107 0 11-21 27-35 58-36 85-2 47 119 55 194h-31v-121c0-29-5-49-35-48" id="aA"/><g id="c"><use transform="matrix(0.07407407407407407,0,0,0.07407407407407407,0,0)" xlink:href="#ay"/><use transform="matrix(0.07407407407407407,0,0,0.07407407407407407,19.185185185185183,0)" xlink:href="#az"/><use transform="matrix(0.07407407407407407,0,0,0.07407407407407407,34,0)" xlink:href="#aA"/><use transform="matrix(0.07407407407407407,0,0,0.07407407407407407,56.148148148148145,0)" xlink:href="#av"/></g><path d="M33 0v-248h34V0H33" id="aB"/><path d="M117-194c89-4 53 116 60 194h-32v-121c0-31-8-49-39-48C34-167 62-67 57 0H25l-1-190h30c1 10-1 24 2 32 11-22 29-35 61-36" id="aC"/><path d="M115-194c55 1 70 41 70 98S169 2 115 4C84 4 66-9 55-30l1 105H24l-1-265h31l2 30c10-21 28-34 59-34zm-8 174c40 0 45-34 45-75s-6-73-45-74c-42 0-51 32-51 76 0 43 10 73 51 73" id="aD"/><path d="M84 4C-5 8 30-112 23-190h32v120c0 31 7 50 39 49 72-2 45-101 50-169h31l1 190h-30c-1-10 1-25-2-33-11 22-28 36-60 37" id="aE"/><g id="d"><use transform="matrix(0.07407407407407407,0,0,0.07407407407407407,0,0)" xlink:href="#aB"/><use transform="matrix(0.07407407407407407,0,0,0.07407407407407407,7.4074074074074065,0)" xlink:href="#aC"/><use transform="matrix(0.07407407407407407,0,0,0.07407407407407407,22.22222222222222,0)" xlink:href="#aD"/><use transform="matrix(0.07407407407407407,0,0,0.07407407407407407,37.03703703703704,0)" xlink:href="#aE"/><use transform="matrix(0.07407407407407407,0,0,0.07407407407407407,51.85185185185185,0)" xlink:href="#ax"/></g><path d="M212-179c-10-28-35-45-73-45-59 0-87 40-87 99 0 60 29 101 89 101 43 0 62-24 78-52l27 14C228-24 195 4 139 4 59 4 22-46 18-125c-6-104 99-153 187-111 19 9 31 26 39 46" id="aF"/><path d="M100-194c62-1 85 37 85 99 1 63-27 99-86 99S16-35 15-95c0-66 28-99 85-99zM99-20c44 1 53-31 53-75 0-43-8-75-51-75s-53 32-53 75 10 74 51 75" id="aG"/><path d="M85-194c31 0 48 13 60 33l-1-100h32l1 261h-30c-2-10 0-23-3-31C134-8 116 4 85 4 32 4 16-35 15-94c0-66 23-100 70-100zm9 24c-40 0-46 34-46 75 0 40 6 74 45 74 42 0 51-32 51-76 0-42-9-74-50-73" id="aH"/><path d="M24-231v-30h32v30H24zM24 0v-190h32V0H24" id="aI"/><path d="M0 4l72-265h28L28 4H0" id="aJ"/><g id="e"><use transform="matrix(0.07407407407407407,0,0,0.07407407407407407,0,0)" xlink:href="#aF"/><use transform="matrix(0.07407407407407407,0,0,0.07407407407407407,19.185185185185183,0)" xlink:href="#aG"/><use transform="matrix(0.07407407407407407,0,0,0.07407407407407407,34,0)" xlink:href="#aC"/><use transform="matrix(0.07407407407407407,0,0,0.07407407407407407,48.81481481481481,0)" xlink:href="#aH"/><use transform="matrix(0.07407407407407407,0,0,0.07407407407407407,63.62962962962962,0)" xlink:href="#aI"/><use transform="matrix(0.07407407407407407,0,0,0.07407407407407407,69.48148148148146,0)" xlink:href="#ax"/><use transform="matrix(0.07407407407407407,0,0,0.07407407407407407,76.88888888888887,0)" xlink:href="#aI"/><use transform="matrix(0.07407407407407407,0,0,0.07407407407407407,82.74074074074072,0)" xlink:href="#aG"/><use transform="matrix(0.07407407407407407,0,0,0.07407407407407407,97.55555555555553,0)" xlink:href="#aC"/><use transform="matrix(0.07407407407407407,0,0,0.07407407407407407,112.37037037037032,0)" xlink:href="#aw"/><use transform="matrix(0.07407407407407407,0,0,0.07407407407407407,125.70370370370366,0)" xlink:href="#aJ"/><use transform="matrix(0.07407407407407407,0,0,0.07407407407407407,133.1111111111111,0)" xlink:href="#au"/><use transform="matrix(0.07407407407407407,0,0,0.07407407407407407,146.37037037037035,0)" xlink:href="#av"/><use transform="matrix(0.07407407407407407,0,0,0.07407407407407407,161.18518518518516,0)" xlink:href="#aw"/><use transform="matrix(0.07407407407407407,0,0,0.07407407407407407,174.5185185185185,0)" xlink:href="#ax"/></g><path d="M30 0v-248h187v28H63v79h144v27H63v87h162V0H30" id="aK"/><path d="M141 0L90-78 38 0H4l68-98-65-92h35l48 74 47-74h35l-64 92 68 98h-35" id="aL"/><path d="M96-169c-40 0-48 33-48 73s9 75 48 75c24 0 41-14 43-38l32 2c-6 37-31 61-74 61-59 0-76-41-82-99-10-93 101-131 147-64 4 7 5 14 7 22l-32 3c-4-21-16-35-41-35" id="aM"/><g id="f"><use transform="matrix(0.07407407407407407,0,0,0.07407407407407407,0,0)" xlink:href="#aK"/><use transform="matrix(0.07407407407407407,0,0,0.07407407407407407,17.77777777777778,0)" xlink:href="#aL"/><use transform="matrix(0.07407407407407407,0,0,0.07407407407407407,31.11111111111111,0)" xlink:href="#aD"/><use transform="matrix(0.07407407407407407,0,0,0.07407407407407407,45.925925925925924,0)" xlink:href="#av"/><use transform="matrix(0.07407407407407407,0,0,0.07407407407407407,60.74074074074074,0)" xlink:href="#aM"/><use transform="matrix(0.07407407407407407,0,0,0.07407407407407407,74.07407407407406,0)" xlink:href="#ax"/><use transform="matrix(0.07407407407407407,0,0,0.07407407407407407,81.48148148148146,0)" xlink:href="#av"/><use transform="matrix(0.07407407407407407,0,0,0.07407407407407407,96.29629629629627,0)" xlink:href="#aH"/></g><path d="M140-251c81 0 123 46 123 126C263-46 219 4 140 4 59 4 17-45 17-125s42-126 123-126zm0 227c63 0 89-41 89-101s-29-99-89-99c-61 0-89 39-89 99S79-25 140-24" id="aN"/><g id="g"><use transform="matrix(0.07407407407407407,0,0,0.07407407407407407,0,0)" xlink:href="#aN"/><use transform="matrix(0.07407407407407407,0,0,0.07407407407407407,20.74074074074074,0)" xlink:href="#aE"/><use transform="matrix(0.07407407407407407,0,0,0.07407407407407407,35.55555555555556,0)" xlink:href="#ax"/><use transform="matrix(0.07407407407407407,0,0,0.07407407407407407,42.96296296296296,0)" xlink:href="#aD"/><use transform="matrix(0.07407407407407407,0,0,0.07407407407407407,57.77777777777777,0)" xlink:href="#aE"/><use transform="matrix(0.07407407407407407,0,0,0.07407407407407407,72.59259259259258,0)" xlink:href="#ax"/></g><path d="M23 0v-37h61v-169l-59 37v-38l62-41h46v211h57V0H23" id="aO"/><use transform="matrix(0.06172839506172839,0,0,0.06172839506172839,0,0)" xlink:href="#aO" id="h"/><path d="M205 0l-28-72H64L36 0H1l101-248h38L239 0h-34zm-38-99l-47-123c-12 45-31 82-46 123h93" id="aP"/><g id="i"><use transform="matrix(0.07407407407407407,0,0,0.07407407407407407,0,0)" xlink:href="#aP"/><use transform="matrix(0.07407407407407407,0,0,0.07407407407407407,17.77777777777778,0)" xlink:href="#aH"/><use transform="matrix(0.07407407407407407,0,0,0.07407407407407407,32.592592592592595,0)" xlink:href="#aH"/></g><path d="M30-248c87 1 191-15 191 75 0 78-77 80-158 76V0H30v-248zm33 125c57 0 124 11 124-50 0-59-68-47-124-48v98" id="aQ"/><path d="M106-169C34-169 62-67 57 0H25v-261h32l-1 103c12-21 28-36 61-36 89 0 53 116 60 194h-32v-121c2-32-8-49-39-48" id="aR"/><g id="j"><use transform="matrix(0.07407407407407407,0,0,0.07407407407407407,0,0)" xlink:href="#aQ"/><use transform="matrix(0.07407407407407407,0,0,0.07407407407407407,17.77777777777778,0)" xlink:href="#aI"/><use transform="matrix(0.07407407407407407,0,0,0.07407407407407407,23.62962962962963,0)" xlink:href="#ax"/><use transform="matrix(0.07407407407407407,0,0,0.07407407407407407,31.037037037037038,0)" xlink:href="#aM"/><use transform="matrix(0.07407407407407407,0,0,0.07407407407407407,44.37037037037037,0)" xlink:href="#aR"/></g><g id="k"><use transform="matrix(0.07407407407407407,0,0,0.07407407407407407,0,0)" xlink:href="#aQ"/><use transform="matrix(0.07407407407407407,0,0,0.07407407407407407,17.77777777777778,0)" xlink:href="#aI"/><use transform="matrix(0.07407407407407407,0,0,0.07407407407407407,23.62962962962963,0)" xlink:href="#ax"/><use transform="matrix(0.07407407407407407,0,0,0.07407407407407407,31.037037037037038,0)" xlink:href="#aM"/><use transform="matrix(0.07407407407407407,0,0,0.07407407407407407,44.37037037037037,0)" xlink:href="#aR"/></g><g id="l"><use transform="matrix(0.07407407407407407,0,0,0.07407407407407407,0,0)" xlink:href="#aH"/><use transform="matrix(0.07407407407407407,0,0,0.07407407407407407,14.814814814814813,0)" xlink:href="#aG"/><use transform="matrix(0.07407407407407407,0,0,0.07407407407407407,29.629629629629626,0)" xlink:href="#aM"/><use transform="matrix(0.07407407407407407,0,0,0.07407407407407407,42.96296296296296,0)" xlink:href="#aE"/><use transform="matrix(0.07407407407407407,0,0,0.07407407407407407,57.77777777777777,0)" xlink:href="#aA"/><use transform="matrix(0.07407407407407407,0,0,0.07407407407407407,79.92592592592592,0)" xlink:href="#av"/><use transform="matrix(0.07407407407407407,0,0,0.07407407407407407,94.74074074074073,0)" xlink:href="#aC"/><use transform="matrix(0.07407407407407407,0,0,0.07407407407407407,109.55555555555554,0)" xlink:href="#ax"/></g><path d="M114-163C36-179 61-72 57 0H25l-1-190h30c1 12-1 29 2 39 6-27 23-49 58-41v29" id="aS"/><g id="m"><use transform="matrix(0.07407407407407407,0,0,0.07407407407407407,0,0)" xlink:href="#aG"/><use transform="matrix(0.07407407407407407,0,0,0.07407407407407407,14.814814814814813,0)" xlink:href="#aS"/></g><g id="n"><use transform="matrix(0.07407407407407407,0,0,0.07407407407407407,0,0)" xlink:href="#aQ"/><use transform="matrix(0.07407407407407407,0,0,0.07407407407407407,17.77777777777778,0)" xlink:href="#aI"/><use transform="matrix(0.07407407407407407,0,0,0.07407407407407407,23.62962962962963,0)" xlink:href="#ax"/><use transform="matrix(0.07407407407407407,0,0,0.07407407407407407,31.037037037037038,0)" xlink:href="#aM"/><use transform="matrix(0.07407407407407407,0,0,0.07407407407407407,44.37037037037037,0)" xlink:href="#aR"/></g><g id="o"><use transform="matrix(0.07407407407407407,0,0,0.07407407407407407,0,0)" xlink:href="#ax"/><use transform="matrix(0.07407407407407407,0,0,0.07407407407407407,7.4074074074074065,0)" xlink:href="#av"/><use transform="matrix(0.07407407407407407,0,0,0.07407407407407407,22.22222222222222,0)" xlink:href="#aL"/><use transform="matrix(0.07407407407407407,0,0,0.07407407407407407,35.55555555555556,0)" xlink:href="#ax"/></g><g id="p"><use transform="matrix(0.07407407407407407,0,0,0.07407407407407407,0,0)" xlink:href="#aR"/><use transform="matrix(0.07407407407407407,0,0,0.07407407407407407,14.814814814814813,0)" xlink:href="#az"/><use transform="matrix(0.07407407407407407,0,0,0.07407407407407407,29.629629629629626,0)" xlink:href="#aw"/></g><path d="M115-194c53 0 69 39 70 98 0 66-23 100-70 100C84 3 66-7 56-30L54 0H23l1-261h32v101c10-23 28-34 59-34zm-8 174c40 0 45-34 45-75 0-40-5-75-45-74-42 0-51 32-51 76 0 43 10 73 51 73" id="aT"/><g id="q"><use transform="matrix(0.07407407407407407,0,0,0.07407407407407407,0,0)" xlink:href="#aT"/><use transform="matrix(0.07407407407407407,0,0,0.07407407407407407,14.814814814814813,0)" xlink:href="#av"/><use transform="matrix(0.07407407407407407,0,0,0.07407407407407407,29.629629629629626,0)" xlink:href="#av"/><use transform="matrix(0.07407407407407407,0,0,0.07407407407407407,44.44444444444444,0)" xlink:href="#aC"/></g><g id="r"><use transform="matrix(0.07407407407407407,0,0,0.07407407407407407,0,0)" xlink:href="#az"/><use transform="matrix(0.07407407407407407,0,0,0.07407407407407407,14.814814814814813,0)" xlink:href="#aH"/><use transform="matrix(0.07407407407407407,0,0,0.07407407407407407,29.629629629629626,0)" xlink:href="#aH"/><use transform="matrix(0.07407407407407407,0,0,0.07407407407407407,44.44444444444444,0)" xlink:href="#av"/><use transform="matrix(0.07407407407407407,0,0,0.07407407407407407,59.25925925925925,0)" xlink:href="#aH"/></g><g id="s"><use transform="matrix(0.07407407407407407,0,0,0.07407407407407407,0,0)" xlink:href="#aP"/><use transform="matrix(0.07407407407407407,0,0,0.07407407407407407,17.77777777777778,0)" xlink:href="#aC"/><use transform="matrix(0.07407407407407407,0,0,0.07407407407407407,32.592592592592595,0)" xlink:href="#aH"/></g><path d="M24 0v-261h32V0H24" id="aU"/><path d="M177-190C167-65 218 103 67 71c-23-6-38-20-44-43l32-5c15 47 100 32 89-28v-30C133-14 115 1 83 1 29 1 15-40 15-95c0-56 16-97 71-98 29-1 48 16 59 35 1-10 0-23 2-32h30zM94-22c36 0 50-32 50-73 0-42-14-75-50-75-39 0-46 34-46 75s6 73 46 73" id="aV"/><g id="t"><use transform="matrix(0.07407407407407407,0,0,0.07407407407407407,0,0)" xlink:href="#aQ"/><use transform="matrix(0.07407407407407407,0,0,0.07407407407407407,17.77777777777778,0)" xlink:href="#aU"/><use transform="matrix(0.07407407407407407,0,0,0.07407407407407407,23.62962962962963,0)" xlink:href="#az"/><use transform="matrix(0.07407407407407407,0,0,0.07407407407407407,38.44444444444444,0)" xlink:href="#aV"/><use transform="matrix(0.07407407407407407,0,0,0.07407407407407407,53.25925925925926,0)" xlink:href="#av"/><use transform="matrix(0.07407407407407407,0,0,0.07407407407407407,68.07407407407406,0)" xlink:href="#aS"/><use transform="matrix(0.07407407407407407,0,0,0.07407407407407407,76.88888888888887,0)" xlink:href="#aI"/><use transform="matrix(0.07407407407407407,0,0,0.07407407407407407,82.74074074074072,0)" xlink:href="#aw"/><use transform="matrix(0.07407407407407407,0,0,0.07407407407407407,96.07407407407405,0)" xlink:href="#aA"/></g><g id="u"><use transform="matrix(0.07407407407407407,0,0,0.07407407407407407,0,0)" xlink:href="#aH"/><use transform="matrix(0.07407407407407407,0,0,0.07407407407407407,14.814814814814813,0)" xlink:href="#aG"/><use transform="matrix(0.07407407407407407,0,0,0.07407407407407407,29.629629629629626,0)" xlink:href="#av"/><use transform="matrix(0.07407407407407407,0,0,0.07407407407407407,44.44444444444444,0)" xlink:href="#aw"/></g><g id="v"><use transform="matrix(0.07407407407407407,0,0,0.07407407407407407,0,0)" xlink:href="#aC"/><use transform="matrix(0.07407407407407407,0,0,0.07407407407407407,14.814814814814813,0)" xlink:href="#aG"/><use transform="matrix(0.07407407407407407,0,0,0.07407407407407407,29.629629629629626,0)" xlink:href="#ax"/></g><g id="w"><use transform="matrix(0.07407407407407407,0,0,0.07407407407407407,0,0)" xlink:href="#av"/><use transform="matrix(0.07407407407407407,0,0,0.07407407407407407,14.814814814814813,0)" xlink:href="#aL"/><use transform="matrix(0.07407407407407407,0,0,0.07407407407407407,28.148148148148145,0)" xlink:href="#aI"/><use transform="matrix(0.07407407407407407,0,0,0.07407407407407407,34,0)" xlink:href="#aw"/><use transform="matrix(0.07407407407407407,0,0,0.07407407407407407,47.33333333333333,0)" xlink:href="#ax"/></g><path d="M30-248c118-7 216 8 213 122C240-48 200 0 122 0H30v-248zM63-27c89 8 146-16 146-99s-60-101-146-95v194" id="aW"/><path d="M179-190L93 31C79 59 56 82 12 73V49c39 6 53-20 64-50L1-190h34L92-34l54-156h33" id="aX"/><g id="x"><use transform="matrix(0.07407407407407407,0,0,0.07407407407407407,0,0)" xlink:href="#aW"/><use transform="matrix(0.07407407407407407,0,0,0.07407407407407407,19.185185185185183,0)" xlink:href="#aI"/><use transform="matrix(0.07407407407407407,0,0,0.07407407407407407,25.037037037037034,0)" xlink:href="#aw"/><use transform="matrix(0.07407407407407407,0,0,0.07407407407407407,38.37037037037037,0)" xlink:href="#aD"/><use transform="matrix(0.07407407407407407,0,0,0.07407407407407407,53.185185185185176,0)" xlink:href="#aU"/><use transform="matrix(0.07407407407407407,0,0,0.07407407407407407,59.037037037037024,0)" xlink:href="#az"/><use transform="matrix(0.07407407407407407,0,0,0.07407407407407407,73.85185185185183,0)" xlink:href="#aX"/></g><g id="y"><use transform="matrix(0.07407407407407407,0,0,0.07407407407407407,0,0)" xlink:href="#aQ"/><use transform="matrix(0.07407407407407407,0,0,0.07407407407407407,17.77777777777778,0)" xlink:href="#aI"/><use transform="matrix(0.07407407407407407,0,0,0.07407407407407407,23.62962962962963,0)" xlink:href="#ax"/><use transform="matrix(0.07407407407407407,0,0,0.07407407407407407,31.037037037037038,0)" xlink:href="#aM"/><use transform="matrix(0.07407407407407407,0,0,0.07407407407407407,44.37037037037037,0)" xlink:href="#aR"/></g><path d="M101-234c-31-9-42 10-38 44h38v23H63V0H32v-167H5v-23h27c-7-52 17-82 69-68v24" id="aY"/><g id="z"><use transform="matrix(0.07407407407407407,0,0,0.07407407407407407,0,0)" xlink:href="#aw"/><use transform="matrix(0.07407407407407407,0,0,0.07407407407407407,13.333333333333332,0)" xlink:href="#aE"/><use transform="matrix(0.07407407407407407,0,0,0.07407407407407407,28.148148148148145,0)" xlink:href="#aM"/><use transform="matrix(0.07407407407407407,0,0,0.07407407407407407,41.48148148148148,0)" xlink:href="#aM"/><use transform="matrix(0.07407407407407407,0,0,0.07407407407407407,54.81481481481481,0)" xlink:href="#av"/><use transform="matrix(0.07407407407407407,0,0,0.07407407407407407,69.62962962962962,0)" xlink:href="#aw"/><use transform="matrix(0.07407407407407407,0,0,0.07407407407407407,82.96296296296295,0)" xlink:href="#aw"/><use transform="matrix(0.07407407407407407,0,0,0.07407407407407407,96.29629629629627,0)" xlink:href="#aY"/><use transform="matrix(0.07407407407407407,0,0,0.07407407407407407,103.70370370370368,0)" xlink:href="#aE"/><use transform="matrix(0.07407407407407407,0,0,0.07407407407407407,118.51851851851849,0)" xlink:href="#aU"/><use transform="matrix(0.07407407407407407,0,0,0.07407407407407407,124.37037037037035,0)" xlink:href="#aU"/><use transform="matrix(0.07407407407407407,0,0,0.07407407407407407,130.2222222222222,0)" xlink:href="#aX"/></g><path d="M185-189c-5-48-123-54-124 2 14 75 158 14 163 119 3 78-121 87-175 55-17-10-28-26-33-46l33-7c5 56 141 63 141-1 0-78-155-14-162-118-5-82 145-84 179-34 5 7 8 16 11 25" id="aZ"/><g id="A"><use transform="matrix(0.07407407407407407,0,0,0.07407407407407407,0,0)" xlink:href="#aZ"/><use transform="matrix(0.07407407407407407,0,0,0.07407407407407407,17.77777777777778,0)" xlink:href="#ax"/><use transform="matrix(0.07407407407407407,0,0,0.07407407407407407,25.185185185185183,0)" xlink:href="#az"/><use transform="matrix(0.07407407407407407,0,0,0.07407407407407407,40,0)" xlink:href="#aX"/></g><g id="B"><use transform="matrix(0.07407407407407407,0,0,0.07407407407407407,0,0)" xlink:href="#aG"/><use transform="matrix(0.07407407407407407,0,0,0.07407407407407407,14.814814814814813,0)" xlink:href="#aC"/></g><g id="C"><use transform="matrix(0.07407407407407407,0,0,0.07407407407407407,0,0)" xlink:href="#aw"/><use transform="matrix(0.07407407407407407,0,0,0.07407407407407407,13.333333333333332,0)" xlink:href="#az"/><use transform="matrix(0.07407407407407407,0,0,0.07407407407407407,28.148148148148145,0)" xlink:href="#aA"/><use transform="matrix(0.07407407407407407,0,0,0.07407407407407407,50.29629629629629,0)" xlink:href="#av"/></g><g id="D"><use transform="matrix(0.07407407407407407,0,0,0.07407407407407407,0,0)" xlink:href="#aD"/><use transform="matrix(0.07407407407407407,0,0,0.07407407407407407,14.814814814814813,0)" xlink:href="#az"/><use transform="matrix(0.07407407407407407,0,0,0.07407407407407407,29.629629629629626,0)" xlink:href="#aV"/><use transform="matrix(0.07407407407407407,0,0,0.07407407407407407,44.44444444444444,0)" xlink:href="#av"/></g><path d="M182-182c0 78-84 86-111 141h115V0H12c-6-101 99-100 120-180 1-22-12-31-33-32-23 0-32 14-35 34l-49-3c5-45 32-70 84-70 51 0 83 22 83 69" id="ba"/><use transform="matrix(0.06172839506172839,0,0,0.06172839506172839,0,0)" xlink:href="#ba" id="E"/><g id="F"><use transform="matrix(0.07407407407407407,0,0,0.07407407407407407,0,0)" xlink:href="#aw"/><use transform="matrix(0.07407407407407407,0,0,0.07407407407407407,13.333333333333332,0)" xlink:href="#aE"/><use transform="matrix(0.07407407407407407,0,0,0.07407407407407407,28.148148148148145,0)" xlink:href="#aM"/><use transform="matrix(0.07407407407407407,0,0,0.07407407407407407,41.48148148148148,0)" xlink:href="#aM"/><use transform="matrix(0.07407407407407407,0,0,0.07407407407407407,54.81481481481481,0)" xlink:href="#av"/><use transform="matrix(0.07407407407407407,0,0,0.07407407407407407,69.62962962962962,0)" xlink:href="#aw"/><use transform="matrix(0.07407407407407407,0,0,0.07407407407407407,82.96296296296295,0)" xlink:href="#aw"/><use transform="matrix(0.07407407407407407,0,0,0.07407407407407407,96.29629629629627,0)" xlink:href="#aY"/><use transform="matrix(0.07407407407407407,0,0,0.07407407407407407,103.70370370370368,0)" xlink:href="#aE"/><use transform="matrix(0.07407407407407407,0,0,0.07407407407407407,118.51851851851849,0)" xlink:href="#aU"/><use transform="matrix(0.07407407407407407,0,0,0.07407407407407407,124.37037037037035,0)" xlink:href="#aU"/><use transform="matrix(0.07407407407407407,0,0,0.07407407407407407,130.2222222222222,0)" xlink:href="#aX"/></g><g id="G"><use transform="matrix(0.07407407407407407,0,0,0.07407407407407407,0,0)" xlink:href="#aW"/><use transform="matrix(0.07407407407407407,0,0,0.07407407407407407,19.185185185185183,0)" xlink:href="#aI"/><use transform="matrix(0.07407407407407407,0,0,0.07407407407407407,25.037037037037034,0)" xlink:href="#aw"/><use transform="matrix(0.07407407407407407,0,0,0.07407407407407407,38.37037037037037,0)" xlink:href="#aD"/><use transform="matrix(0.07407407407407407,0,0,0.07407407407407407,53.185185185185176,0)" xlink:href="#aU"/><use transform="matrix(0.07407407407407407,0,0,0.07407407407407407,59.037037037037024,0)" xlink:href="#az"/><use transform="matrix(0.07407407407407407,0,0,0.07407407407407407,73.85185185185183,0)" xlink:href="#aX"/></g><path d="M24-231v-30h32v30H24zM-9 49c24 4 33-6 33-30v-209h32V24c2 40-23 58-65 49V49" id="bb"/><g id="H"><use transform="matrix(0.07407407407407407,0,0,0.07407407407407407,0,0)" xlink:href="#aS"/><use transform="matrix(0.07407407407407407,0,0,0.07407407407407407,8.814814814814814,0)" xlink:href="#av"/><use transform="matrix(0.07407407407407407,0,0,0.07407407407407407,23.629629629629622,0)" xlink:href="#bb"/><use transform="matrix(0.07407407407407407,0,0,0.07407407407407407,29.481481481481477,0)" xlink:href="#av"/><use transform="matrix(0.07407407407407407,0,0,0.07407407407407407,44.29629629629629,0)" xlink:href="#aM"/><use transform="matrix(0.07407407407407407,0,0,0.07407407407407407,57.62962962962962,0)" xlink:href="#ax"/><use transform="matrix(0.07407407407407407,0,0,0.07407407407407407,65.03703703703702,0)" xlink:href="#av"/><use transform="matrix(0.07407407407407407,0,0,0.07407407407407407,79.85185185185183,0)" xlink:href="#aH"/></g><path d="M240 0l2-218c-23 76-54 145-80 218h-23L58-218 59 0H30v-248h44l77 211c21-75 51-140 76-211h43V0h-30" id="bc"/><path d="M143 0L79-87 56-68V0H24v-261h32v163l83-92h37l-77 82L181 0h-38" id="bd"/><g id="I"><use transform="matrix(0.07407407407407407,0,0,0.07407407407407407,0,0)" xlink:href="#bc"/><use transform="matrix(0.07407407407407407,0,0,0.07407407407407407,22.148148148148145,0)" xlink:href="#az"/><use transform="matrix(0.07407407407407407,0,0,0.07407407407407407,36.96296296296296,0)" xlink:href="#bd"/><use transform="matrix(0.07407407407407407,0,0,0.07407407407407407,50.29629629629629,0)" xlink:href="#av"/></g><g id="J"><use transform="matrix(0.07407407407407407,0,0,0.07407407407407407,0,0)" xlink:href="#aH"/><use transform="matrix(0.07407407407407407,0,0,0.07407407407407407,14.814814814814813,0)" xlink:href="#av"/><use transform="matrix(0.07407407407407407,0,0,0.07407407407407407,29.629629629629626,0)" xlink:href="#aM"/><use transform="matrix(0.07407407407407407,0,0,0.07407407407407407,42.96296296296296,0)" xlink:href="#aI"/><use transform="matrix(0.07407407407407407,0,0,0.07407407407407407,48.81481481481481,0)" xlink:href="#aw"/><use transform="matrix(0.07407407407407407,0,0,0.07407407407407407,62.14814814814814,0)" xlink:href="#aI"/><use transform="matrix(0.07407407407407407,0,0,0.07407407407407407,67.99999999999998,0)" xlink:href="#aG"/><use transform="matrix(0.07407407407407407,0,0,0.07407407407407407,82.8148148148148,0)" xlink:href="#aC"/></g><g id="K"><use transform="matrix(0.07407407407407407,0,0,0.07407407407407407,0,0)" xlink:href="#aG"/><use transform="matrix(0.07407407407407407,0,0,0.07407407407407407,14.814814814814813,0)" xlink:href="#aC"/></g><g id="L"><use transform="matrix(0.07407407407407407,0,0,0.07407407407407407,0,0)" xlink:href="#aP"/><use transform="matrix(0.07407407407407407,0,0,0.07407407407407407,17.77777777777778,0)" xlink:href="#aD"/><use transform="matrix(0.07407407407407407,0,0,0.07407407407407407,32.592592592592595,0)" xlink:href="#aD"/><use transform="matrix(0.07407407407407407,0,0,0.07407407407407407,47.407407407407405,0)" xlink:href="#aU"/><use transform="matrix(0.07407407407407407,0,0,0.07407407407407407,53.25925925925926,0)" xlink:href="#aI"/><use transform="matrix(0.07407407407407407,0,0,0.07407407407407407,59.1111111111111,0)" xlink:href="#aM"/><use transform="matrix(0.07407407407407407,0,0,0.07407407407407407,72.44444444444443,0)" xlink:href="#az"/><use transform="matrix(0.07407407407407407,0,0,0.07407407407407407,87.25925925925924,0)" xlink:href="#ax"/><use transform="matrix(0.07407407407407407,0,0,0.07407407407407407,94.66666666666664,0)" xlink:href="#aI"/><use transform="matrix(0.07407407407407407,0,0,0.07407407407407407,100.51851851851849,0)" xlink:href="#aG"/><use transform="matrix(0.07407407407407407,0,0,0.07407407407407407,115.3333333333333,0)" xlink:href="#aC"/></g><g id="M"><use transform="matrix(0.07407407407407407,0,0,0.07407407407407407,0,0)" xlink:href="#aW"/><use transform="matrix(0.07407407407407407,0,0,0.07407407407407407,19.185185185185183,0)" xlink:href="#av"/><use transform="matrix(0.07407407407407407,0,0,0.07407407407407407,34,0)" xlink:href="#aM"/><use transform="matrix(0.07407407407407407,0,0,0.07407407407407407,47.33333333333333,0)" xlink:href="#aI"/><use transform="matrix(0.07407407407407407,0,0,0.07407407407407407,53.185185185185176,0)" xlink:href="#aw"/><use transform="matrix(0.07407407407407407,0,0,0.07407407407407407,66.5185185185185,0)" xlink:href="#aI"/><use transform="matrix(0.07407407407407407,0,0,0.07407407407407407,72.37037037037035,0)" xlink:href="#aG"/><use transform="matrix(0.07407407407407407,0,0,0.07407407407407407,87.18518518518516,0)" xlink:href="#aC"/></g><g id="N"><use transform="matrix(0.07407407407407407,0,0,0.07407407407407407,0,0)" xlink:href="#aW"/><use transform="matrix(0.07407407407407407,0,0,0.07407407407407407,19.185185185185183,0)" xlink:href="#av"/><use transform="matrix(0.07407407407407407,0,0,0.07407407407407407,34,0)" xlink:href="#aM"/><use transform="matrix(0.07407407407407407,0,0,0.07407407407407407,47.33333333333333,0)" xlink:href="#aI"/><use transform="matrix(0.07407407407407407,0,0,0.07407407407407407,53.185185185185176,0)" xlink:href="#aw"/><use transform="matrix(0.07407407407407407,0,0,0.07407407407407407,66.5185185185185,0)" xlink:href="#aI"/><use transform="matrix(0.07407407407407407,0,0,0.07407407407407407,72.37037037037035,0)" xlink:href="#aG"/><use transform="matrix(0.07407407407407407,0,0,0.07407407407407407,87.18518518518516,0)" xlink:href="#aC"/></g><g id="O"><use transform="matrix(0.07407407407407407,0,0,0.07407407407407407,0,0)" xlink:href="#aI"/><use transform="matrix(0.07407407407407407,0,0,0.07407407407407407,5.851851851851851,0)" xlink:href="#aw"/></g><g id="P"><use transform="matrix(0.07407407407407407,0,0,0.07407407407407407,0,0)" xlink:href="#az"/><use transform="matrix(0.07407407407407407,0,0,0.07407407407407407,14.814814814814813,0)" xlink:href="#aM"/><use transform="matrix(0.07407407407407407,0,0,0.07407407407407407,28.148148148148145,0)" xlink:href="#aM"/><use transform="matrix(0.07407407407407407,0,0,0.07407407407407407,41.48148148148148,0)" xlink:href="#av"/><use transform="matrix(0.07407407407407407,0,0,0.07407407407407407,56.29629629629629,0)" xlink:href="#aD"/><use transform="matrix(0.07407407407407407,0,0,0.07407407407407407,71.1111111111111,0)" xlink:href="#ax"/></g><g id="Q"><use transform="matrix(0.07407407407407407,0,0,0.07407407407407407,0,0)" xlink:href="#aW"/><use transform="matrix(0.07407407407407407,0,0,0.07407407407407407,19.185185185185183,0)" xlink:href="#av"/><use transform="matrix(0.07407407407407407,0,0,0.07407407407407407,34,0)" xlink:href="#aM"/><use transform="matrix(0.07407407407407407,0,0,0.07407407407407407,47.33333333333333,0)" xlink:href="#aI"/><use transform="matrix(0.07407407407407407,0,0,0.07407407407407407,53.185185185185176,0)" xlink:href="#aw"/><use transform="matrix(0.07407407407407407,0,0,0.07407407407407407,66.5185185185185,0)" xlink:href="#aI"/><use transform="matrix(0.07407407407407407,0,0,0.07407407407407407,72.37037037037035,0)" xlink:href="#aG"/><use transform="matrix(0.07407407407407407,0,0,0.07407407407407407,87.18518518518516,0)" xlink:href="#aC"/></g><g id="R"><use transform="matrix(0.07407407407407407,0,0,0.07407407407407407,0,0)" xlink:href="#aT"/><use transform="matrix(0.07407407407407407,0,0,0.07407407407407407,14.814814814814813,0)" xlink:href="#av"/><use transform="matrix(0.07407407407407407,0,0,0.07407407407407407,29.629629629629626,0)" xlink:href="#av"/><use transform="matrix(0.07407407407407407,0,0,0.07407407407407407,44.44444444444444,0)" xlink:href="#aC"/></g><g id="S"><use transform="matrix(0.07407407407407407,0,0,0.07407407407407407,0,0)" xlink:href="#az"/><use transform="matrix(0.07407407407407407,0,0,0.07407407407407407,14.814814814814813,0)" xlink:href="#aM"/><use transform="matrix(0.07407407407407407,0,0,0.07407407407407407,28.148148148148145,0)" xlink:href="#aM"/><use transform="matrix(0.07407407407407407,0,0,0.07407407407407407,41.48148148148148,0)" xlink:href="#av"/><use transform="matrix(0.07407407407407407,0,0,0.07407407407407407,56.29629629629629,0)" xlink:href="#aD"/><use transform="matrix(0.07407407407407407,0,0,0.07407407407407407,71.1111111111111,0)" xlink:href="#ax"/><use transform="matrix(0.07407407407407407,0,0,0.07407407407407407,78.51851851851849,0)" xlink:href="#av"/><use transform="matrix(0.07407407407407407,0,0,0.07407407407407407,93.33333333333331,0)" xlink:href="#aH"/></g><g id="T"><use transform="matrix(0.07407407407407407,0,0,0.07407407407407407,0,0)" xlink:href="#aS"/><use transform="matrix(0.07407407407407407,0,0,0.07407407407407407,8.814814814814814,0)" xlink:href="#av"/><use transform="matrix(0.07407407407407407,0,0,0.07407407407407407,23.629629629629622,0)" xlink:href="#bb"/><use transform="matrix(0.07407407407407407,0,0,0.07407407407407407,29.481481481481477,0)" xlink:href="#av"/><use transform="matrix(0.07407407407407407,0,0,0.07407407407407407,44.29629629629629,0)" xlink:href="#aM"/><use transform="matrix(0.07407407407407407,0,0,0.07407407407407407,57.62962962962962,0)" xlink:href="#ax"/></g><g id="U"><use transform="matrix(0.07407407407407407,0,0,0.07407407407407407,0,0)" xlink:href="#aS"/><use transform="matrix(0.07407407407407407,0,0,0.07407407407407407,8.814814814814814,0)" xlink:href="#av"/><use transform="matrix(0.07407407407407407,0,0,0.07407407407407407,23.629629629629622,0)" xlink:href="#bb"/><use transform="matrix(0.07407407407407407,0,0,0.07407407407407407,29.481481481481477,0)" xlink:href="#av"/><use transform="matrix(0.07407407407407407,0,0,0.07407407407407407,44.29629629629629,0)" xlink:href="#aM"/><use transform="matrix(0.07407407407407407,0,0,0.07407407407407407,57.62962962962962,0)" xlink:href="#ax"/><use transform="matrix(0.07407407407407407,0,0,0.07407407407407407,65.03703703703702,0)" xlink:href="#av"/><use transform="matrix(0.07407407407407407,0,0,0.07407407407407407,79.85185185185183,0)" xlink:href="#aH"/></g><g id="V"><use transform="matrix(0.07407407407407407,0,0,0.07407407407407407,0,0)" xlink:href="#ay"/><use transform="matrix(0.07407407407407407,0,0,0.07407407407407407,19.185185185185183,0)" xlink:href="#aG"/><use transform="matrix(0.07407407407407407,0,0,0.07407407407407407,34,0)" xlink:href="#ax"/><use transform="matrix(0.07407407407407407,0,0,0.07407407407407407,41.407407407407405,0)" xlink:href="#aI"/><use transform="matrix(0.07407407407407407,0,0,0.07407407407407407,47.259259259259245,0)" xlink:href="#aY"/><use transform="matrix(0.07407407407407407,0,0,0.07407407407407407,54.66666666666666,0)" xlink:href="#aX"/></g><path d="M108 0H70L1-190h34L89-25l56-165h34" id="be"/><g id="W"><use transform="matrix(0.07407407407407407,0,0,0.07407407407407407,0,0)" xlink:href="#aI"/><use transform="matrix(0.07407407407407407,0,0,0.07407407407407407,5.851851851851851,0)" xlink:href="#aC"/><use transform="matrix(0.07407407407407407,0,0,0.07407407407407407,20.666666666666664,0)" xlink:href="#aC"/><use transform="matrix(0.07407407407407407,0,0,0.07407407407407407,35.48148148148148,0)" xlink:href="#aG"/><use transform="matrix(0.07407407407407407,0,0,0.07407407407407407,50.29629629629629,0)" xlink:href="#be"/><use transform="matrix(0.07407407407407407,0,0,0.07407407407407407,63.62962962962962,0)" xlink:href="#az"/><use transform="matrix(0.07407407407407407,0,0,0.07407407407407407,78.44444444444443,0)" xlink:href="#ax"/><use transform="matrix(0.07407407407407407,0,0,0.07407407407407407,85.85185185185183,0)" xlink:href="#aG"/><use transform="matrix(0.07407407407407407,0,0,0.07407407407407407,100.66666666666664,0)" xlink:href="#aS"/></g><g id="X"><use transform="matrix(0.07407407407407407,0,0,0.07407407407407407,0,0)" xlink:href="#aG"/><use transform="matrix(0.07407407407407407,0,0,0.07407407407407407,14.814814814814813,0)" xlink:href="#aY"/></g><g id="Y"><use transform="matrix(0.07407407407407407,0,0,0.07407407407407407,0,0)" xlink:href="#aS"/><use transform="matrix(0.07407407407407407,0,0,0.07407407407407407,8.814814814814814,0)" xlink:href="#av"/><use transform="matrix(0.07407407407407407,0,0,0.07407407407407407,23.629629629629622,0)" xlink:href="#aw"/><use transform="matrix(0.07407407407407407,0,0,0.07407407407407407,36.96296296296296,0)" xlink:href="#aE"/><use transform="matrix(0.07407407407407407,0,0,0.07407407407407407,51.77777777777777,0)" xlink:href="#aU"/><use transform="matrix(0.07407407407407407,0,0,0.07407407407407407,57.62962962962962,0)" xlink:href="#ax"/></g><g id="Z"><use transform="matrix(0.07407407407407407,0,0,0.07407407407407407,0,0)" xlink:href="#bc"/><use transform="matrix(0.07407407407407407,0,0,0.07407407407407407,22.148148148148145,0)" xlink:href="#av"/><use transform="matrix(0.07407407407407407,0,0,0.07407407407407407,36.96296296296296,0)" xlink:href="#aw"/><use transform="matrix(0.07407407407407407,0,0,0.07407407407407407,50.29629629629629,0)" xlink:href="#aw"/><use transform="matrix(0.07407407407407407,0,0,0.07407407407407407,63.62962962962962,0)" xlink:href="#az"/><use transform="matrix(0.07407407407407407,0,0,0.07407407407407407,78.44444444444443,0)" xlink:href="#aV"/><use transform="matrix(0.07407407407407407,0,0,0.07407407407407407,93.25925925925924,0)" xlink:href="#av"/></g><path d="M233-177c-1 41-23 64-60 70L243 0h-38l-65-103H63V0H30v-248c88 3 205-21 203 71zM63-129c60-2 137 13 137-47 0-61-80-42-137-45v92" id="bf"/><g id="aa"><use transform="matrix(0.07407407407407407,0,0,0.07407407407407407,0,0)" xlink:href="#bf"/><use transform="matrix(0.07407407407407407,0,0,0.07407407407407407,19.185185185185183,0)" xlink:href="#av"/><use transform="matrix(0.07407407407407407,0,0,0.07407407407407407,34,0)" xlink:href="#aw"/><use transform="matrix(0.07407407407407407,0,0,0.07407407407407407,47.33333333333333,0)" xlink:href="#aE"/><use transform="matrix(0.07407407407407407,0,0,0.07407407407407407,62.14814814814814,0)" xlink:href="#aU"/><use transform="matrix(0.07407407407407407,0,0,0.07407407407407407,67.99999999999998,0)" xlink:href="#ax"/></g><g id="ab"><use transform="matrix(0.07407407407407407,0,0,0.07407407407407407,0,0)" xlink:href="#aD"/><use transform="matrix(0.07407407407407407,0,0,0.07407407407407407,14.814814814814813,0)" xlink:href="#aI"/><use transform="matrix(0.07407407407407407,0,0,0.07407407407407407,20.666666666666664,0)" xlink:href="#ax"/><use transform="matrix(0.07407407407407407,0,0,0.07407407407407407,28.07407407407407,0)" xlink:href="#aM"/><use transform="matrix(0.07407407407407407,0,0,0.07407407407407407,41.407407407407405,0)" xlink:href="#aR"/></g><g id="ac"><use transform="matrix(0.07407407407407407,0,0,0.07407407407407407,0,0)" xlink:href="#bc"/><use transform="matrix(0.07407407407407407,0,0,0.07407407407407407,22.148148148148145,0)" xlink:href="#av"/><use transform="matrix(0.07407407407407407,0,0,0.07407407407407407,36.96296296296296,0)" xlink:href="#aw"/><use transform="matrix(0.07407407407407407,0,0,0.07407407407407407,50.29629629629629,0)" xlink:href="#aw"/><use transform="matrix(0.07407407407407407,0,0,0.07407407407407407,63.62962962962962,0)" xlink:href="#az"/><use transform="matrix(0.07407407407407407,0,0,0.07407407407407407,78.44444444444443,0)" xlink:href="#aV"/><use transform="matrix(0.07407407407407407,0,0,0.07407407407407407,93.25925925925924,0)" xlink:href="#av"/></g><g id="ad"><use transform="matrix(0.07407407407407407,0,0,0.07407407407407407,0,0)" xlink:href="#aU"/><use transform="matrix(0.07407407407407407,0,0,0.07407407407407407,5.851851851851851,0)" xlink:href="#aG"/><use transform="matrix(0.07407407407407407,0,0,0.07407407407407407,20.666666666666664,0)" xlink:href="#aV"/><use transform="matrix(0.07407407407407407,0,0,0.07407407407407407,35.48148148148148,0)" xlink:href="#aV"/><use transform="matrix(0.07407407407407407,0,0,0.07407407407407407,50.29629629629629,0)" xlink:href="#av"/><use transform="matrix(0.07407407407407407,0,0,0.07407407407407407,65.1111111111111,0)" xlink:href="#aH"/></g><g id="ae"><use transform="matrix(0.07407407407407407,0,0,0.07407407407407407,0,0)" xlink:href="#aw"/><use transform="matrix(0.07407407407407407,0,0,0.07407407407407407,13.333333333333332,0)" xlink:href="#av"/><use transform="matrix(0.07407407407407407,0,0,0.07407407407407407,28.148148148148145,0)" xlink:href="#aM"/><use transform="matrix(0.07407407407407407,0,0,0.07407407407407407,41.48148148148148,0)" xlink:href="#aM"/><use transform="matrix(0.07407407407407407,0,0,0.07407407407407407,54.81481481481481,0)" xlink:href="#av"/><use transform="matrix(0.07407407407407407,0,0,0.07407407407407407,69.62962962962962,0)" xlink:href="#aw"/><use transform="matrix(0.07407407407407407,0,0,0.07407407407407407,82.96296296296295,0)" xlink:href="#aw"/><use transform="matrix(0.07407407407407407,0,0,0.07407407407407407,96.29629629629627,0)" xlink:href="#aY"/><use transform="matrix(0.07407407407407407,0,0,0.07407407407407407,103.70370370370368,0)" xlink:href="#aE"/><use transform="matrix(0.07407407407407407,0,0,0.07407407407407407,118.51851851851849,0)" xlink:href="#aU"/><use transform="matrix(0.07407407407407407,0,0,0.07407407407407407,124.37037037037035,0)" xlink:href="#aU"/><use transform="matrix(0.07407407407407407,0,0,0.07407407407407407,130.2222222222222,0)" xlink:href="#aX"/></g><g id="af"><use transform="matrix(0.07407407407407407,0,0,0.07407407407407407,0,0)" xlink:href="#aR"/><use transform="matrix(0.07407407407407407,0,0,0.07407407407407407,14.814814814814813,0)" xlink:href="#az"/><use transform="matrix(0.07407407407407407,0,0,0.07407407407407407,29.629629629629626,0)" xlink:href="#aw"/></g><g id="ag"><use transform="matrix(0.07407407407407407,0,0,0.07407407407407407,0,0)" xlink:href="#aC"/><use transform="matrix(0.07407407407407407,0,0,0.07407407407407407,14.814814814814813,0)" xlink:href="#aG"/><use transform="matrix(0.07407407407407407,0,0,0.07407407407407407,29.629629629629626,0)" xlink:href="#ax"/></g><g id="ah"><use transform="matrix(0.07407407407407407,0,0,0.07407407407407407,0,0)" xlink:href="#az"/><use transform="matrix(0.07407407407407407,0,0,0.07407407407407407,14.814814814814813,0)" xlink:href="#aH"/><use transform="matrix(0.07407407407407407,0,0,0.07407407407407407,29.629629629629626,0)" xlink:href="#aH"/><use transform="matrix(0.07407407407407407,0,0,0.07407407407407407,44.44444444444444,0)" xlink:href="#av"/><use transform="matrix(0.07407407407407407,0,0,0.07407407407407407,59.25925925925925,0)" xlink:href="#aH"/></g><g id="ai"><use transform="matrix(0.07407407407407407,0,0,0.07407407407407407,0,0)" xlink:href="#aA"/><use transform="matrix(0.07407407407407407,0,0,0.07407407407407407,22.148148148148145,0)" xlink:href="#az"/><use transform="matrix(0.07407407407407407,0,0,0.07407407407407407,36.96296296296296,0)" xlink:href="#aH"/><use transform="matrix(0.07407407407407407,0,0,0.07407407407407407,51.77777777777777,0)" xlink:href="#av"/></g><g id="aj"><use transform="matrix(0.07407407407407407,0,0,0.07407407407407407,0,0)" xlink:href="#aF"/><use transform="matrix(0.07407407407407407,0,0,0.07407407407407407,19.185185185185183,0)" xlink:href="#aR"/><use transform="matrix(0.07407407407407407,0,0,0.07407407407407407,34,0)" xlink:href="#aG"/><use transform="matrix(0.07407407407407407,0,0,0.07407407407407407,48.81481481481481,0)" xlink:href="#aG"/><use transform="matrix(0.07407407407407407,0,0,0.07407407407407407,63.62962962962962,0)" xlink:href="#aw"/><use transform="matrix(0.07407407407407407,0,0,0.07407407407407407,76.96296296296295,0)" xlink:href="#av"/></g><path d="M206 0h-36l-40-164L89 0H53L-1-190h32L70-26l43-164h34l41 164 42-164h31" id="bg"/><g id="ak"><use transform="matrix(0.07407407407407407,0,0,0.07407407407407407,0,0)" xlink:href="#aI"/><use transform="matrix(0.07407407407407407,0,0,0.07407407407407407,5.851851851851851,0)" xlink:href="#aC"/><use transform="matrix(0.07407407407407407,0,0,0.07407407407407407,20.666666666666664,0)" xlink:href="#ax"/><use transform="matrix(0.07407407407407407,0,0,0.07407407407407407,28.07407407407407,0)" xlink:href="#av"/><use transform="matrix(0.07407407407407407,0,0,0.07407407407407407,42.888888888888886,0)" xlink:href="#aS"/><use transform="matrix(0.07407407407407407,0,0,0.07407407407407407,51.7037037037037,0)" xlink:href="#be"/><use transform="matrix(0.07407407407407407,0,0,0.07407407407407407,65.03703703703704,0)" xlink:href="#aI"/><use transform="matrix(0.07407407407407407,0,0,0.07407407407407407,70.88888888888888,0)" xlink:href="#av"/><use transform="matrix(0.07407407407407407,0,0,0.07407407407407407,85.7037037037037,0)" xlink:href="#bg"/></g><g id="al"><use transform="matrix(0.07407407407407407,0,0,0.07407407407407407,0,0)" xlink:href="#aD"/><use transform="matrix(0.07407407407407407,0,0,0.07407407407407407,14.814814814814813,0)" xlink:href="#aS"/><use transform="matrix(0.07407407407407407,0,0,0.07407407407407407,23.629629629629622,0)" xlink:href="#aG"/><use transform="matrix(0.07407407407407407,0,0,0.07407407407407407,38.44444444444444,0)" xlink:href="#aM"/><use transform="matrix(0.07407407407407407,0,0,0.07407407407407407,51.77777777777777,0)" xlink:href="#av"/><use transform="matrix(0.07407407407407407,0,0,0.07407407407407407,66.59259259259258,0)" xlink:href="#aw"/><use transform="matrix(0.07407407407407407,0,0,0.07407407407407407,79.92592592592591,0)" xlink:href="#aw"/></g><g id="am"><use transform="matrix(0.07407407407407407,0,0,0.07407407407407407,0,0)" xlink:href="#au"/><use transform="matrix(0.07407407407407407,0,0,0.07407407407407407,14.74074074074074,0)" xlink:href="#aX"/><use transform="matrix(0.07407407407407407,0,0,0.07407407407407407,28.074074074074072,0)" xlink:href="#aD"/><use transform="matrix(0.07407407407407407,0,0,0.07407407407407407,42.888888888888886,0)" xlink:href="#av"/></g><g id="an"><use transform="matrix(0.07407407407407407,0,0,0.07407407407407407,0,0)" xlink:href="#aI"/><use transform="matrix(0.07407407407407407,0,0,0.07407407407407407,5.851851851851851,0)" xlink:href="#aC"/><use transform="matrix(0.07407407407407407,0,0,0.07407407407407407,20.666666666666664,0)" xlink:href="#ax"/><use transform="matrix(0.07407407407407407,0,0,0.07407407407407407,28.07407407407407,0)" xlink:href="#av"/><use transform="matrix(0.07407407407407407,0,0,0.07407407407407407,42.888888888888886,0)" xlink:href="#aS"/><use transform="matrix(0.07407407407407407,0,0,0.07407407407407407,51.7037037037037,0)" xlink:href="#be"/><use transform="matrix(0.07407407407407407,0,0,0.07407407407407407,65.03703703703704,0)" xlink:href="#aI"/><use transform="matrix(0.07407407407407407,0,0,0.07407407407407407,70.88888888888888,0)" xlink:href="#av"/><use transform="matrix(0.07407407407407407,0,0,0.07407407407407407,85.7037037037037,0)" xlink:href="#bg"/></g><g id="ao"><use transform="matrix(0.07407407407407407,0,0,0.07407407407407407,0,0)" xlink:href="#aG"/><use transform="matrix(0.07407407407407407,0,0,0.07407407407407407,14.814814814814813,0)" xlink:href="#aC"/><use transform="matrix(0.07407407407407407,0,0,0.07407407407407407,29.629629629629626,0)" xlink:href="#aU"/><use transform="matrix(0.07407407407407407,0,0,0.07407407407407407,35.48148148148148,0)" xlink:href="#aI"/><use transform="matrix(0.07407407407407407,0,0,0.07407407407407407,41.33333333333333,0)" xlink:href="#aC"/><use transform="matrix(0.07407407407407407,0,0,0.07407407407407407,56.14814814814814,0)" xlink:href="#av"/></g><g id="ap"><use transform="matrix(0.07407407407407407,0,0,0.07407407407407407,0,0)" xlink:href="#aB"/><use transform="matrix(0.07407407407407407,0,0,0.07407407407407407,7.4074074074074065,0)" xlink:href="#aC"/><use transform="matrix(0.07407407407407407,0,0,0.07407407407407407,22.22222222222222,0)" xlink:href="#ax"/><use transform="matrix(0.07407407407407407,0,0,0.07407407407407407,29.629629629629626,0)" xlink:href="#av"/><use transform="matrix(0.07407407407407407,0,0,0.07407407407407407,44.44444444444444,0)" xlink:href="#aS"/><use transform="matrix(0.07407407407407407,0,0,0.07407407407407407,53.25925925925926,0)" xlink:href="#be"/><use transform="matrix(0.07407407407407407,0,0,0.07407407407407407,66.5925925925926,0)" xlink:href="#aI"/><use transform="matrix(0.07407407407407407,0,0,0.07407407407407407,72.44444444444444,0)" xlink:href="#av"/><use transform="matrix(0.07407407407407407,0,0,0.07407407407407407,87.25925925925925,0)" xlink:href="#bg"/></g><g id="aq"><use transform="matrix(0.07407407407407407,0,0,0.07407407407407407,0,0)" xlink:href="#aw"/><use transform="matrix(0.07407407407407407,0,0,0.07407407407407407,13.333333333333332,0)" xlink:href="#aE"/><use transform="matrix(0.07407407407407407,0,0,0.07407407407407407,28.148148148148145,0)" xlink:href="#aM"/><use transform="matrix(0.07407407407407407,0,0,0.07407407407407407,41.48148148148148,0)" xlink:href="#aM"/><use transform="matrix(0.07407407407407407,0,0,0.07407407407407407,54.81481481481481,0)" xlink:href="#av"/><use transform="matrix(0.07407407407407407,0,0,0.07407407407407407,69.62962962962962,0)" xlink:href="#aw"/><use transform="matrix(0.07407407407407407,0,0,0.07407407407407407,82.96296296296295,0)" xlink:href="#aw"/><use transform="matrix(0.07407407407407407,0,0,0.07407407407407407,96.29629629629627,0)" xlink:href="#aY"/><use transform="matrix(0.07407407407407407,0,0,0.07407407407407407,103.70370370370368,0)" xlink:href="#aE"/><use transform="matrix(0.07407407407407407,0,0,0.07407407407407407,118.51851851851849,0)" xlink:href="#aU"/><use transform="matrix(0.07407407407407407,0,0,0.07407407407407407,124.37037037037035,0)" xlink:href="#aU"/><use transform="matrix(0.07407407407407407,0,0,0.07407407407407407,130.2222222222222,0)" xlink:href="#aX"/></g><g id="ar"><use transform="matrix(0.07407407407407407,0,0,0.07407407407407407,0,0)" xlink:href="#aU"/><use transform="matrix(0.07407407407407407,0,0,0.07407407407407407,5.851851851851851,0)" xlink:href="#aG"/><use transform="matrix(0.07407407407407407,0,0,0.07407407407407407,20.666666666666664,0)" xlink:href="#aV"/><use transform="matrix(0.07407407407407407,0,0,0.07407407407407407,35.48148148148148,0)" xlink:href="#aV"/><use transform="matrix(0.07407407407407407,0,0,0.07407407407407407,50.29629629629629,0)" xlink:href="#av"/><use transform="matrix(0.07407407407407407,0,0,0.07407407407407407,65.1111111111111,0)" xlink:href="#aH"/></g><g id="as"><use transform="matrix(0.07407407407407407,0,0,0.07407407407407407,0,0)" xlink:href="#aG"/><use transform="matrix(0.07407407407407407,0,0,0.07407407407407407,14.814814814814813,0)" xlink:href="#aY"/><use transform="matrix(0.07407407407407407,0,0,0.07407407407407407,22.22222222222222,0)" xlink:href="#aU"/><use transform="matrix(0.07407407407407407,0,0,0.07407407407407407,28.074074074074072,0)" xlink:href="#aI"/><use transform="matrix(0.07407407407407407,0,0,0.07407407407407407,33.925925925925924,0)" xlink:href="#aC"/><use transform="matrix(0.07407407407407407,0,0,0.07407407407407407,48.740740740740726,0)" xlink:href="#av"/></g></defs></g></svg>